<svg aria-hidden="true" viewBox="0 -960 960 960" fill="currentColor">
  <path d="M691.5-411.5Q680-423 680-440v-80H560q-17 0-28.5-11.5T520-560v-200q0-17 11.5-28.5T560-800q17 0 28.5 11.5T600-760v160h80v-160q0-17 11.5-28.5T720-800q17 0 28.5 11.5T760-760v160h40q17 0 28.5 11.5T840-560q0 17-11.5 28.5T800-520h-40v80q0 17-11.5 28.5T720-400q-17 0-28.5-11.5ZM240-400q-17 0-28.5-11.5T200-440v-120q0-33 23.5-56.5T280-640h80v-80H240q-17 0-28.5-11.5T200-760q0-17 11.5-28.5T240-800h120q33 0 56.5 23.5T440-720v80q0 33-23.5 56.5T360-560h-80v80h120q17 0 28.5 11.5T440-440q0 17-11.5 28.5T400-400H240ZM160-80q-17 0-28.5-11.5T120-120v-120q0-17 11.5-28.5T160-280q17 0 28.5 11.5T200-240v120q0 17-11.5 28.5T160-80Zm131.5-11.5Q280-103 280-120v-120q0-17 11.5-28.5T320-280q17 0 28.5 11.5T360-240v120q0 17-11.5 28.5T320-80q-17 0-28.5-11.5Zm160 0Q440-103 440-120v-120q0-17 11.5-28.5T480-280q17 0 28.5 11.5T520-240v120q0 17-11.5 28.5T480-80q-17 0-28.5-11.5ZM640-80q-17 0-28.5-11.5T600-120v-120q0-17 11.5-28.5T640-280h160q17 0 28.5 11.5T840-240v120q0 17-11.5 28.5T800-80H640Z"/>
</svg>
