<svg aria-hidden="true" viewBox="0 -960 960 960" fill="currentColor">
  <path d="M376-279H172q-11 0-18-7t-7-18v-32q0-5 1.5-10.5t6.5-8.5q51-41 84.5-68.5T292-478q16-22 24-41.5t8-46.5q0-23-17-39.5T266-622q-17 0-29.5 9.5T216-589q-7 13-20.5 18t-26.5-1q-14-7-17-22t3-29q14-32 45.5-49.5T266-690q63 0 97.5 32t34.5 90q0 37-14 69t-36 61q-23 31-46.5 50.5T249-346l2 3h125q14 0 23 9t9 23q0 14-9 23t-23 9Zm152-1q-17 0-28.5-11.5T488-320v-321q0-17 11.5-28.5T528-681h94q97 0 148.5 52T822-480q0 97-52 148.5T622-280h-94Zm36-72h54q66 0 97.5-31t31.5-97q0-66-31.5-97.5T618-609h-54v257Z"/>
</svg>
