<svg aria-hidden="true" viewBox="0 -960 960 960" fill="currentColor">
  <path d="M200-396.413q-18.524 0-31.056-12.531-12.531-12.532-12.531-31.056t12.531-31.056q12.532-12.531 31.056-12.531h152.587v-74.5h-154.5q-17.712 0-29.693-12.05-11.981-12.05-11.981-29.863t11.981-29.863q11.981-12.05 29.693-12.05h154.5v-74.5H200q-18.524 0-31.056-12.531-12.531-12.532-12.531-31.056t12.531-31.056q12.532-12.531 31.056-12.531h152.587q36.587 0 62 25.293Q440-753 440-716.413V-660q0 25.067-15.206 41.458-15.207 16.39-39.772 18.542 24.565 2.152 39.772 18.542Q440-565.067 440-540v56.413q0 36.587-25.413 61.881-25.413 25.293-62 25.293H200Zm523.587 0H607.413q-36.587 0-62-25.293Q520-447 520-483.587v-232.826q0-36.587 25.413-61.881 25.413-25.293 62-25.293h116.174q36.587 0 62 25.293Q811-753 811-716.413v232.826q0 36.587-25.413 61.881-25.413 25.293-62 25.293Zm0-87.174v-232.826H607.413v232.826h116.174ZM149-80q-17.813 0-29.863-12.05t-12.05-29.863v-116.174q0-17.813 12.05-29.863T149-280q17.813 0 29.863 12.05t12.05 29.863v116.174q0 17.813-12.05 29.863T149-80Zm163.587 0q-17.712 0-29.693-12.05-11.981-12.05-11.981-29.863v-116.174q0-17.813 11.982-29.863Q294.878-280 312.591-280t29.811 12.05Q354.5-255.9 354.5-238.087v116.174q0 17.813-12.05 29.863T312.587-80Zm163.822 0q-17.713 0-29.811-12.05Q434.5-104.1 434.5-121.913v-116.174q0-17.813 12.05-29.863T476.413-280q17.711 0 29.693 12.05 11.981 12.05 11.981 29.863v116.174q0 17.813-11.983 29.863Q494.122-80 476.409-80Zm167.178 0q-19.152 0-32.326-13.174T598.087-125.5v-109q0-19.152 13.174-32.326T643.587-280h163.826q19.152 0 32.326 13.174t13.174 32.326v109q0 19.152-13.174 32.326T807.413-80H643.587Z"/>
</svg>
