<svg aria-hidden="true" viewBox="0 -960 960 960" fill="currentColor">
  <path d="M329.609-182.978q-11.718-11.718-11.718-29.315 0-17.598 11.718-29.316l39.456-39.456q-132.544-17.478-214.87-71.794Q71.869-407.174 71.869-480q0-89.696 117.653-148.913Q307.174-688.131 480-688.131q172.826 0 290.478 59.098Q888.131-569.935 888.131-480q0 56.87-51.642 103.424-51.641 46.554-138.163 74.033-23.587 7.434-40.956-4.761Q640-319.5 640-345.326q0-13.674 9.696-26.728 9.695-13.055 23.608-17.533 60.37-19.283 92.098-44.967Q797.13-460.239 797.13-480q0-32.478-83.587-74.804Q629.957-597.13 480-597.13t-233.543 42.326Q162.87-512.478 162.87-480q0 24 48.13 56.065t142.13 49.065l-23.521-23.521q-11.718-11.718-11.718-29.316 0-17.597 11.718-29.315 11.717-11.717 29.315-11.717t29.315 11.717l104.957 105.196q6.956 6.956 9.815 14.913 2.859 7.956 2.859 16.913t-2.859 16.913q-2.859 7.957-9.815 14.913L388.239-182.978q-11.717 11.717-29.315 11.717t-29.315-11.717Z"/>
</svg>
