<svg aria-hidden="true" viewBox="0 -960 960 960" fill="currentColor">
  <path d="M530-279q-17 0-28.5-11.5T490-319v-321q0-17 11.5-28.5T530-680h93q97 0 148.5 51.5T823-480q0 97-52 149t-148 52h-93Zm35-72h55q66 0 97-31.5t31-97.5q0-66-31-97.5T620-609h-55v258Zm-289 81q-45 0-78-17.5T149-340q-7-14-1-29t20-22q14-7 28.5-1.5T219-373q8 16 22.5 24.5T276-340q28 0 45-15.5t17-42.5q0-26-18-43t-51-17h-2q-14 0-23-9t-9-23q0-14 9-23t23-9q30 0 45-14t15-37q0-23-14.5-36.5T274-623q-18 0-31 8t-21 22q-7 14-21 18t-28-3q-14-7-18-21t3-28q6-12 14.5-21.5T192-666q16-11 37-17t46-6q55 0 89.5 27.5T399-581q0 30-13.5 50.5T350-496v4q30 11 46 39t16 61q0 59-37.5 90.5T276-270Z"/>
</svg>
