<svg aria-hidden="true" viewBox="0 -960 960 960" fill="currentColor">
  <path d="M480-720q-33 0-56.5-23.5T400-800q0-33 23.5-56.5T480-880q33 0 56.5 23.5T560-800q0 33-23.5 56.5T480-720Zm200 600v-160H480q-33 0-56.5-23.5T400-360v-240q0-33 23.5-56.5T480-680q24 0 41.5 10.5T559-636q45 54 81.5 79t78.5 33q17 3 29 15t12 29q0 17-12.5 28t-28.5 8q-44-8-85.5-28T560-518v138h120q33 0 56.5 23.5T760-300v180q0 17-11.5 28.5T720-80q-17 0-28.5-11.5T680-120ZM400-80q-83 0-141.5-58.5T200-280q0-72 45.5-127T360-476v82q-35 14-57.5 44.5T280-280q0 50 35 85t85 35q39 0 69.5-22.5T514-240h82q-14 69-69 114.5T400-80Z"/>
</svg>
