<svg aria-hidden="true" viewBox="0 -960 960 960" fill="currentColor">
  <path d="M320-80q-83 0-141.5-58.5T120-280q0-83 58.5-141.5T320-480v80q-50 0-85 35t-35 85q0 50 35 85t85 35q50 0 85-35t35-85h80q0 83-58.5 141.5T320-80Zm120-240q-44 0-68-37.5t-6-78.5l74-164h-91l-11 28q-5 14-19 21.5t-29 2.5q-17-5-25-20.5t-1-32.5l12-31q9-23 29.5-35.5T350-680h208q45 0 68.5 36.5T632-566l-66 146h114q33 0 56.5 23.5T760-340v180q0 17-11.5 28.5T720-120q-17 0-28.5-11.5T680-160v-160H440Zm200-380q-33 0-56.5-23.5T560-780q0-33 23.5-56.5T640-860q33 0 56.5 23.5T720-780q0 33-23.5 56.5T640-700Z"/>
</svg>
