<svg aria-hidden="true" viewBox="0 -960 960 960" fill="currentColor">
  <path d="M236.413-277.37q-18.435 0-31.131-12.695-12.695-12.696-12.695-31.131v-193.586q0-18.435 12.695-30.511 12.696-12.077 31.131-12.077 18.435 0 31.011 12.577Q280-532.217 280-513.782v193.586q0 18.435-12.576 30.631-12.576 12.195-31.011 12.195Zm243.587 0q-18.435 0-31.011-12.695-12.576-12.696-12.576-31.131v-193.586q0-18.435 12.576-30.511Q461.565-557.37 480-557.37t31.011 12.577q12.576 12.576 12.576 31.011v193.586q0 18.435-12.576 30.631Q498.435-277.37 480-277.37ZM116.37-113.782q-19.153 0-31.827-13.174Q71.87-140.13 71.87-159.283q0-19.152 13.174-32.326t32.327-13.174h726.26q19.153 0 31.827 13.174 12.674 13.174 12.674 32.326 0 19.153-13.174 32.327t-32.327 13.174H116.37ZM723.587-277.37q-18.435 0-31.011-12.695Q680-302.761 680-321.196v-193.586q0-18.435 12.576-30.511 12.576-12.077 31.011-12.077t31.131 12.577q12.695 12.576 12.695 31.011v193.586q0 18.435-12.695 30.631-12.696 12.195-31.131 12.195ZM521.022-907.022l332.695 166.087q16.109 8.435 25.261 23.685 9.153 15.25 9.153 33.598 0 22.63-16.533 38.043-16.533 15.414-39.402 15.414h-703.87q-22.87 0-39.663-15.294-16.794-15.293-16.794-38.163 0-17.587 8.892-33.218 8.891-15.63 25.761-23.304l332.456-166.848q19.392-9.435 41.022-9.315 21.63.119 41.022 9.315Z"/>
</svg>
