<svg aria-hidden="true" viewBox="0 -960 960 960" fill="currentColor">
  <path d="M640-420q26 0 43-17t17-43q0-26-17-43t-43-17q-26 0-43 17t-17 43q0 26 17 43t43 17ZM202.87-202.87v-554.26 554.26Zm0 91.001q-37.783 0-64.392-26.609-26.609-26.609-26.609-64.392v-554.26q0-37.783 26.609-64.392 26.609-26.609 64.392-26.609h554.26q37.783 0 64.392 26.609 26.609 26.609 26.609 64.392V-660H757.13v-97.13H202.87v554.26h554.26V-300h91.001v97.13q0 37.783-26.609 64.392-26.609 26.609-64.392 26.609H202.87ZM520.478-280q-32.761 0-56.619-23.62Q440-327.239 440-360v-239.522q0-32.761 23.859-56.619Q487.717-680 520.478-680h287.413q32.761 0 56.5 23.859 23.74 23.858 23.74 56.619V-360q0 32.761-23.74 56.38-23.739 23.62-56.5 23.62H520.478Z"/>
</svg>
