<svg aria-hidden="true" viewBox="0 -960 960 960" fill="currentColor">
  <path d="M200-520v-40q0-72 32.5-131.5T320-789l-75-75 35-36 85 85q26-12 55.5-18.5T480-840q30 0 59.5 6.5T595-815l85-85 35 36-75 75q55 38 87.5 97.5T760-560v40H200Zm428.5-91.5Q640-623 640-640t-11.5-28.5Q617-680 600-680t-28.5 11.5Q560-657 560-640t11.5 28.5Q583-600 600-600t28.5-11.5Zm-240 0Q400-623 400-640t-11.5-28.5Q377-680 360-680t-28.5 11.5Q320-657 320-640t11.5 28.5Q343-600 360-600t28.5-11.5Zm-107 490Q200-203 200-320v-160h560v160q0 117-81.5 198.5T480-40q-117 0-198.5-81.5Z"/>
</svg>
