<svg aria-hidden="true" viewBox="0 -960 960 960" fill="currentColor">
  <path d="M240-280v-160h160v160-160H240v160Zm420-293ZM40-240v-319q0-20 9-37t25-28l200-143q21-15 46-15t46 15l212 151q11 8 16.5 19t5.5 24q-23 11-43 25.5T520-515v-45L320-702 120-560v280h80v-160q0-17 11.5-28.5T240-480h160q17 0 28.5 11.5T440-440v160h3q3 21 9 41t15 39h-67q-17 0-28.5-11.5T360-240v-160h-80v160q0 17-11.5 28.5T240-200H80q-17 0-28.5-11.5T40-240Zm880-600v325q-17-18-37-32.5T840-573v-267H480v56l-80-58q0-32 23-55t55-23h362q33 0 56.5 23.5T920-840ZM700-680h40q8 0 14-6t6-14v-40q0-8-6-14t-14-6h-40q-8 0-14 6t-6 14v40q0 8 6 14t14 6Zm20 560q-83 0-141.5-58.5T520-320q0-83 58.5-141.5T720-520q83 0 141.5 58.5T920-320q0 83-58.5 141.5T720-120Zm-20-180v80q0 8 6 14t14 6q8 0 14-6t6-14v-80h80q8 0 14-6t6-14q0-8-6-14t-14-6h-80v-80q0-8-6-14t-14-6q-8 0-14 6t-6 14v80h-80q-8 0-14 6t-6 14q0 8 6 14t14 6h80Z"/>
</svg>
