<svg aria-hidden="true" viewBox="0 -960 960 960" fill="currentColor">
  <path d="M660-260v80q0 8 6 14t14 6q8 0 14-6t6-14v-80h80q8 0 14-6t6-14q0-8-6-14t-14-6h-80v-80q0-8-6-14t-14-6q-8 0-14 6t-6 14v80h-80q-8 0-14 6t-6 14q0 8 6 14t14 6h80Zm20 180q-83 0-141.5-58.5T480-280q0-83 58.5-141.5T680-480q83 0 141.5 58.5T880-280q0 83-58.5 141.5T680-80Zm-200 0q-139-35-229.5-159.5T160-516v-189q0-25 14.5-45t37.5-29l240-90q14-5 28-5t28 5l240 90q23 9 37.5 29t14.5 45v172q-26-13-58.5-20t-61.5-7q-116 0-198 82t-82 198q0 62 23.5 112T483-81q-1 0-1.5.5t-1.5.5Z"/>
</svg>
