<svg aria-hidden="true" viewBox="0 -960 960 960" fill="currentColor">
  <path d="M700-300v80q0 8 6 14t14 6q8 0 14-6t6-14v-80h80q8 0 14-6t6-14q0-8-6-14t-14-6h-80v-80q0-8-6-14t-14-6q-8 0-14 6t-6 14v80h-80q-8 0-14 6t-6 14q0 8 6 14t14 6h80Zm20 180q-83 0-141.5-58.5T520-320q0-83 58.5-141.5T720-520q83 0 141.5 58.5T920-320q0 83-58.5 141.5T720-120ZM160-280v-360q0-19 8.5-36t23.5-28l240-180q11-8 23-12t25-4q13 0 25 4t23 12l240 180q15 11 23.5 28t8.5 36v52q-19-6-39-9t-41-3v-40L480-820 240-640v360h203q3 21 9 41t15 39H240q-33 0-56.5-23.5T160-280Zm320-270Z"/>
</svg>
