<svg aria-hidden="true" viewBox="0 -960 960 960" fill="currentColor">
  <path d="M724.304-113.304V-235.6H601.913v-81.53h122.296v-122.153h81.53v122.153h122.152v81.434H805.739v122.392h-81.435ZM220.583-93.065q-21.366 0-39.724-11.12-18.359-11.119-29.359-29.597l-95.913-166.87q-11-18.478-11-40.718 0-22.239 11-40.717L313.89-826.218q11.479-20.239 30.098-30.478 18.62-10.239 40.028-10.239h191.657q21.364 0 40.186 10.186 18.821 10.186 30.012 30.558l182.106 312.713q-15.478-5-30.734-6.5-15.256-1.5-32.547-1.5h-17.153q-8 0-17.167 2L575.565-785.5H384.087L126.022-341.37l95.644 166.87h321.53q11 23.239 25.858 43.718 14.859 20.478 35.098 37.717H220.583Zm65.648-183.348-29.535-51.717 186.587-324.979h73.293l102.815 179.348q-18.478 14.239-32.097 28.859-13.62 14.619-26.098 33.098l-81.435-141.392-111.913 195.348h167.109q-8 20.239-11.24 40.128-3.239 19.889-3.239 41.307H286.231Z"/>
</svg>
