<svg aria-hidden="true" viewBox="0 -960 960 960" fill="currentColor">
  <path d="M710-680h20q13 0 21.5-8.5T760-710v-20q0-13-8.5-21.5T730-760h-20q-13 0-21.5 8.5T680-730v20q0 13 8.5 21.5T710-680Zm10 560q-83 0-141.5-58.5T520-320q0-83 58.5-141.5T720-520q83 0 141.5 58.5T920-320q0 83-58.5 141.5T720-120Zm-20-180v80q0 8 6 14t14 6q8 0 14-6t6-14v-80h80q8 0 14-6t6-14q0-8-6-14t-14-6h-80v-80q0-8-6-14t-14-6q-8 0-14 6t-6 14v80h-80q-8 0-14 6t-6 14q0 8 6 14t14 6h80Zm220-215q-39-42-91-63.5T720-600q-11 0-20.5.5T680-597v-2q0-20-8.5-37T647-664L400-842q0-32 23-55t55-23h362q33 0 56.5 23.5T920-840v325ZM40-240v-319q0-20 9-37t25-28l200-143q21-15 46-15t46 15l212 151q11 8 16.5 19t5.5 24q-72 34-116 103.5T440-320q0 31 6.5 61.5T467-200h-27q-17 0-28.5-11.5T400-240v-170q0-13-8.5-21.5T370-440H270q-13 0-21.5 8.5T240-410v170q0 17-11.5 28.5T200-200H80q-17 0-28.5-11.5T40-240Z"/>
</svg>
