<svg aria-hidden="true" viewBox="0 -960 960 960" fill="currentColor">
  <path d="M680-280q25 0 42.5-17.5T740-340q0-25-17.5-42.5T680-400q-25 0-42.5 17.5T620-340q0 25 17.5 42.5T680-280Zm0 120q31 0 57-14.5t42-38.5q-22-13-47-20t-52-7q-27 0-52 7t-47 20q16 24 42 38.5t57 14.5Zm0 80q-83 0-141.5-58.5T480-280q0-83 58.5-141.5T680-480q83 0 141.5 58.5T880-280q0 83-58.5 141.5T680-80Zm-200 0q-139-35-229.5-159.5T160-516v-189q0-25 14.5-45t37.5-29l240-90q14-5 28-5t28 5l240 90q23 9 37.5 29t14.5 45v172q-26-13-58.5-20t-61.5-7q-116 0-198 82t-82 198q0 62 23.5 112T483-81q-1 0-1.5.5t-1.5.5Z"/>
</svg>
