<svg aria-hidden="true" viewBox="0 -960 960 960" fill="currentColor">
  <path d="M680-80q-83 0-141.5-58.5T480-280q0-83 58.5-141.5T680-480q83 0 141.5 58.5T880-280q0 83-58.5 141.5T680-80ZM160-516v-189q0-25 14.5-45t37.5-29l240-90q14-5 28-5t28 5l240 90q23 9 37.5 29t14.5 45v122q0 17-15 27.5t-32 5.5q-18-5-36-7.5t-37-2.5q-116 0-198 82t-82 198q0 32 7.5 62.5T429-156q9 19-5.5 34t-33.5 6q-42-22-77-54t-62-70q-43-59-67-129.5T160-516Zm562.5 218.5Q740-315 740-340t-17.5-42.5Q705-400 680-400t-42.5 17.5Q620-365 620-340t17.5 42.5Q655-280 680-280t42.5-17.5ZM680-160q25 0 47-9.5t39-27.5q5-6 4-13.5t-9-11.5q-19-9-39.5-13.5T680-240q-21 0-41.5 4.5T599-222q-8 4-9 11.5t4 13.5q17 18 39 27.5t47 9.5Z"/>
</svg>
