<svg aria-hidden="true" viewBox="0 -960 960 960" fill="currentColor">
  <path d="M469.913-229q-101.261-4.282-171.087-76.63T229-480q0-104.583 73.208-177.792Q375.417-731 480-731q101.935 0 174.446 69.945Q726.957-591.109 731-489.848L639.587-517q-13-55.435-57.079-91.011Q538.43-643.587 480-643.587q-67.48 0-115.533 48.088-48.054 48.087-48.054 115.615 0 58.319 35.439 102.254 35.439 43.934 90.909 57.217L469.913-229ZM480-65.413q-86.034 0-161.702-32.576-75.668-32.576-131.7-88.609-56.033-56.032-88.61-131.718-32.575-75.686-32.575-161.739 0-86.054 32.576-161.684 32.576-75.631 88.609-131.663 56.032-56.033 131.718-88.609 75.686-32.576 161.739-32.576 86.054 0 161.684 32.576 75.631 32.576 131.663 88.609 56.033 56.032 88.609 131.7Q894.587-566.034 894.587-480v19.674q0 9.837-2 19.674l-85.174-26.232V-480q0-136.87-95.272-232.141Q616.87-807.413 480-807.413t-232.141 95.272Q152.587-616.87 152.587-480t95.272 232.141Q343.13-152.587 480-152.587h12.957l25.913 85.174q-9.638 2-19.276 2H480Zm328.674-3.326L651.913-225.5l-27.369 82.63q-5.798 16.153-22.029 15.653-16.232-.5-21.711-16.653l-88.369-295.108q-4.239-12.674 5.837-22.75t22.75-5.837l295.108 88.369q16.153 5.479 16.653 21.711.5 16.231-15.653 22.029l-82.63 27.369 156.761 156.761q6.957 6.848 6.957 15.978 0 9.131-6.957 16.087l-50.522 50.522q-6.848 6.957-15.978 6.957-9.131 0-16.087-6.957Z"/>
</svg>
