<svg aria-hidden="true" viewBox="0 -960 960 960" fill="currentColor">
  <path d="M468-240q-96-5-162-74t-66-166q0-100 70-170t170-70q97 0 166 66t74 162l-84-25q-13-54-56-88.5T480-640q-66 0-113 47t-47 113q0 57 34.5 100t88.5 56l25 84Zm12 160q-83 0-156-31.5T197-197q-54-54-85.5-127T80-480q0-83 31.5-156T197-763q54-54 127-85.5T480-880q83 0 156 31.5T763-763q54 54 85.5 127T880-480v18q0 9-2 18l-78-24v-12q0-134-93-227t-227-93q-134 0-227 93t-93 227q0 134 93 227t227 93h12l24 78q-9 2-18 2h-18Zm327 6L650-231l-30 91q-5 14-19 13.5T582-141l-91-303q-4-11 5-20t20-5l303 91q14 5 14.5 19T820-340l-91 30 157 157q6 6 6 14t-6 14l-51 51q-6 6-14 6t-14-6Z"/>
</svg>
