<svg aria-hidden="true" viewBox="0 -960 960 960" fill="currentColor">
  <path d="M454.5-136.086q-33.957 0-62.413-16.261-28.457-16.261-45.892-43.022-14.587-22.391-3.913-46.218 10.674-23.826 39.74-23.826 10.239 0 20.597 5.881 10.359 5.88 21.598 18.924 5.479 6.521 13.5 10.021 8.022 3.5 16.783 3.5 16.043 0 27.065-11.141 11.022-11.141 11.022-27.185 0-16.043-11.022-27.065Q470.543-303.5 454.5-303.5H121.913q-19.152 0-32.326-13.174T76.413-349q0-19.152 13.174-32.326t32.326-13.174H454.5q53.826 0 91.457 37.511 37.63 37.511 37.63 91.576 0 54.066-37.63 91.696-37.631 37.631-91.457 37.631ZM121.913-565.5q-19.152 0-32.326-13.174T76.413-611q0-19.152 13.174-32.326t32.326-13.174H614.5q25.043 0 41.565-16.522t16.522-41.565q0-25.044-16.522-41.685-16.522-16.641-41.565-16.641-15.804 0-28.587 6.902t-20.304 19.467q-10.153 16.196-21.87 24.076-11.717 7.881-24.152 7.881-24.348 0-37.902-18.587-13.555-18.587-4.207-39.414 16.152-41.521 52.967-66.423 36.816-24.903 84.055-24.903 62.109 0 105.598 42.653 43.489 42.652 43.489 106.674t-43.489 106.554Q676.609-565.5 614.5-565.5H121.913Zm679.674 322.587q-23.391 11.631-45.239.174-21.848-11.456-21.848-39.283 0-12.434 8-23.652 8-11.217 24.196-21.848 12.565-7.761 19.228-20.543 6.663-12.783 6.663-28.348 0-25.043-16.522-41.565T734.5-434.5H121.913q-19.152 0-32.326-13.174T76.413-480q0-19.152 13.174-32.326t32.326-13.174H734.5q62.109 0 105.598 42.772 43.489 42.771 43.489 106.315 0 44.674-22.62 79.87-22.619 35.195-59.38 53.63Z"/>
</svg>
