<svg aria-hidden="true" viewBox="0 -960 960 960" fill="currentColor">
  <path d="M460-160q-33 0-60.5-16.5T356-220q-11-20-2-40t34-20q10 0 20 6t21 20q5 7 13.5 10.5T460-240q17 0 28.5-11.5T500-280q0-17-11.5-28.5T460-320H120q-17 0-28.5-11.5T80-360q0-17 11.5-28.5T120-400h340q50 0 85 35t35 85q0 50-35 85t-85 35ZM120-560q-17 0-28.5-11.5T80-600q0-17 11.5-28.5T120-640h500q26 0 43-17t17-43q0-26-17-43t-43-17q-17 0-30.5 7.5T568-731q-8 15-19 23t-22 8q-21 0-33-15t-6-32q14-42 49.5-67.5T620-840q59 0 99.5 40.5T760-700q0 59-40.5 99.5T620-560H120Zm678 308q-21 9-39.5-1.5T740-288q0-11 8-21.5t23-18.5q14-8 21.5-21.5T800-380q0-26-17-43t-43-17H120q-17 0-28.5-11.5T80-480q0-17 11.5-28.5T120-520h620q59 0 99.5 40.5T880-380q0 43-22.5 77T798-252Z"/>
</svg>
