<svg aria-hidden="true" viewBox="0 -960 960 960" fill="currentColor">
  <path d="M840-280H120q-33 0-56.5-23.5T40-360v-280q0-17 11.5-28.5T80-680q17 0 28.5 11.5T120-640v280h320v-240q0-33 23.5-56.5T520-680h240q66 0 113 47t47 113v160q0 33-23.5 56.5T840-280Zm-320-80h320v-160q0-33-23.5-56.5T760-600H520v240Zm0-240v240-240ZM365-435q35-35 35-85t-35-85q-35-35-85-35t-85 35q-35 35-35 85t35 85q35 35 85 35t85-35Zm-113.5-56.5Q240-503 240-520t11.5-28.5Q263-560 280-560t28.5 11.5Q320-537 320-520t-11.5 28.5Q297-480 280-480t-28.5-11.5ZM280-520Z"/>
</svg>
