<svg aria-hidden="true" viewBox="0 -960 960 960" fill="currentColor">
  <path d="M400-400q-17 0-28.5-11.5T360-440v-160q0-33 23.5-56.5T440-680h280q66 0 113 47t47 113v80q0 17-11.5 28.5T840-400H400Zm40-200v120-120Zm400 320H120q-17 0-28.5-11.5T80-320q0-17 11.5-28.5T120-360h720q17 0 28.5 11.5T880-320q0 17-11.5 28.5T840-280ZM115-435q-35-35-35-85t35-85q35-35 85-35t85 35q35 35 35 85t-35 85q-35 35-85 35t-85-35Zm113.5-56.5Q240-503 240-520t-11.5-28.5Q217-560 200-560t-28.5 11.5Q160-537 160-520t11.5 28.5Q183-480 200-480t28.5-11.5ZM440-480h360v-40q0-33-23.5-56.5T720-600H440v120Zm-240-40Z"/>
</svg>
