<svg aria-hidden="true" viewBox="0 -960 960 960" fill="currentColor">
  <path d="M753.826-622.131q-27.956 27.957-63.674 42.196-35.717 14.239-71.913 14.239t-71.152-13.859q-34.957-13.858-62.913-42.576l-75-75q-14.283-14.282-32.207-21.304-17.924-7.022-36.967-7.022t-36.967 7.022q-17.924 7.022-31.968 21.304l-46.239 46.24q-13.435 13.434-32.326 13.434t-32.326-13.434Q146.5-664.565 146.5-683.337t13.674-32.446l46-46q27.717-27.717 62.554-41.696 34.837-13.978 71.033-13.978t70.772 13.978q34.576 13.979 62.293 41.696l75 75q15.044 15.043 33.087 22.185 18.044 7.141 37.087 7.141 19.043 0 37.587-7.261 18.543-7.261 33.587-22.304l47-47q13.435-13.435 32.326-13.435t32.326 13.435q13.674 13.674 13.674 32.446 0 18.771-13.674 32.445l-47 47Zm0 211.957q-27.956 27.957-63.293 41.815Q655.196-354.5 619-354.5t-71.533-13.859q-35.337-13.858-63.293-41.815l-75-75q-14.283-14.282-32.207-21.304Q359.043-513.5 340-513.5t-36.967 7.022q-17.924 7.022-32.207 21.304l-47 47q-12.913 12.913-31.946 12.913-19.032 0-32.706-12.913-12.913-13.674-12.913-32.706 0-19.033 12.913-31.946l47-47q27.717-27.718 62.554-41.696 34.837-13.978 71.033-13.978t70.772 13.978q34.576 13.978 62.293 41.696l75 75q15.044 15.043 33.087 22.185Q598.957-445.5 618-445.5q19.043 0 37.587-7.141 18.543-7.142 33.587-22.424l47-47Q749.609-535.5 768.5-535.5t32.326 13.435Q814.5-508.391 814.5-489.62q0 18.772-13.674 32.446l-47 47Zm-1 211.957q-27.717 27.717-62.674 41.696-34.956 13.978-71.152 13.978t-71.533-13.978q-35.337-13.979-63.293-41.696l-76-75q-14.283-14.283-32.207-21.304-17.924-7.022-36.967-7.022t-36.967 7.022q-17.924 7.021-31.968 21.304l-46.239 46.239q-13.435 13.435-32.206 13.435-18.772 0-32.446-13.435-12.674-12.913-12.674-32.065 0-19.152 12.674-31.826l47-47q27.717-27.957 62.554-41.816 34.837-13.858 71.033-13.858t70.772 13.978q34.576 13.978 62.293 41.696l75 75q15.044 15.043 33.587 22.184 18.544 7.142 37.587 7.142 19.043 0 37.087-7.142 18.043-7.141 33.087-22.424l46.761-46.76q12.913-12.913 31.945-12.913 19.033 0 31.946 12.913 13.674 13.674 13.674 32.326t-13.674 32.326l-47 47Z"/>
</svg>
