<svg aria-hidden="true" viewBox="0 -960 960 960" fill="currentColor">
  <path d="M798-270 314-760q38-20 79.5-30t86.5-10q74 0 139.5 28T734-694.5Q783-645 811.5-579T840-436q0 45-11 86.5T798-270Zm-90-512q-11-11-11-28t11-28q11-11 28-11t28 11l114 114q11 11 11 28t-11 28q-11 11-28 11t-28-11L708-782ZM480-80q-74 0-139.5-28T226-184q-49-48-77.5-113T120-436q0-62 18.5-116.5T192-652l-34-34-20 20q-11 11-28 11t-28-11q-11-11-11-28t11-28l20-20-46-46q-11-11-11-28t11-28q11-11 28-11t28 11l736 736q11 11 11 28t-11 28q-11 11-28 11t-28-11l-98-98q-45 33-99.5 51.5T480-80Z"/>
</svg>
