<svg aria-hidden="true" viewBox="0 -960 960 960" fill="currentColor">
  <path d="M348.5-411.5Q360-423 360-440t-11.5-28.5Q337-480 320-480t-28.5 11.5Q280-457 280-440t11.5 28.5Q303-400 320-400t28.5-11.5Zm160 0Q520-423 520-440t-11.5-28.5Q497-480 480-480t-28.5 11.5Q440-457 440-440t11.5 28.5Q463-400 480-400t28.5-11.5Zm160 0Q680-423 680-440t-11.5-28.5Q657-480 640-480t-28.5 11.5Q600-457 600-440t11.5 28.5Q623-400 640-400t28.5-11.5Zm-329 303q-65.5-28.5-114-77t-77-114Q120-365 120-440t28.5-140.5q28.5-65.5 77-114t114-77Q405-800 480-800t140.5 28.5q65.5 28.5 114 77t77 114Q840-515 840-440t-28.5 140.5q-28.5 65.5-77 114t-114 77Q555-80 480-80t-140.5-28.5ZM480-440ZM82-668q-11-11-11-28t11-28l114-114q11-11 28-11t28 11q11 11 11 28t-11 28L138-668q-11 11-28 11t-28-11Zm796 0q-11 11-28 11t-28-11L708-782q-11-11-11-28t11-28q11-11 28-11t28 11l114 114q11 11 11 28t-11 28ZM480-160q117 0 198.5-81.5T760-440q0-117-81.5-198.5T480-720q-117 0-198.5 81.5T200-440q0 117 81.5 198.5T480-160Z"/>
</svg>
