<svg aria-hidden="true" viewBox="0 -960 960 960" fill="currentColor">
  <path d="M520-456v-144q0-17-11.5-28.5T480-640q-17 0-28.5 11.5T440-600v159q0 8 3 15.5t9 13.5l112 112q11 11 28 11t28-11q11-11 11-28t-11-28L520-456ZM339.5-108.5q-65.5-28.5-114-77t-77-114Q120-365 120-440t28.5-140.5q28.5-65.5 77-114t114-77Q405-800 480-800t140.5 28.5q65.5 28.5 114 77t77 114Q840-515 840-440t-28.5 140.5q-28.5 65.5-77 114t-114 77Q555-80 480-80t-140.5-28.5ZM480-440ZM82-668q-11-11-11-28t11-28l114-114q11-11 28-11t28 11q11 11 11 28t-11 28L138-668q-11 11-28 11t-28-11Zm796 0q-11 11-28 11t-28-11L708-782q-11-11-11-28t11-28q11-11 28-11t28 11l114 114q11 11 11 28t-11 28ZM480-160q117 0 198.5-81.5T760-440q0-117-81.5-198.5T480-720q-117 0-198.5 81.5T200-440q0 117 81.5 198.5T480-160Z"/>
</svg>
