<svg aria-hidden="true" viewBox="0 -960 960 960" fill="currentColor">
  <path d="M440-840v-80q0-17 11.5-28.5T480-960q17 0 28.5 11.5T520-920v80q0 17-11.5 28.5T480-800q-17 0-28.5-11.5T440-840Zm-205 68-63-63q-12-12-12-28.5t12-28.5q12-12 28-12t28 12l64 64q12 12 12 28t-12 28q-12 12-28.5 12T235-772Zm125 532q17 0 28.5-11.5T400-280q0-17-11.5-28.5T360-320H260q-8 0-14 6t-6 14v40q0 8 6 14t14 6h100Zm240 0h100q8 0 14-6t6-14v-40q0-8-6-14t-14-6H600q-17 0-28.5 11.5T560-280q0 17 11.5 28.5T600-240Zm91-355-18-18q-9-9-21-8.5t-21 9.5q-9 9-9 21t9 21l32 32q12 12 28 12t28-12l90-89q9-9 9-21t-9-21q-9-9-21-8.5t-21 8.5l-76 74Zm29-205q83 0 141.5 58.5T920-600q0 83-58.5 141.5T720-400q-83 0-141.5-58.5T520-600q0-83 58.5-141.5T720-800ZM160-40q-17 0-28.5-11.5T120-80v-306q0-7 1-14t3-13l80-227q6-18 21.5-29t34.5-11h100v-40q0-17 11.5-28.5T400-760h91q-24 34-37.5 74.5T440-600H274l-59 160h276q40 57 100 88.5T720-320q32 0 61.5-6.5T840-347v267q0 17-11.5 28.5T800-40h-40q-17 0-28.5-11.5T720-80v-40H240v40q0 17-11.5 28.5T200-40h-40Z"/>
</svg>
