<svg aria-hidden="true" viewBox="0 -960 960 960" fill="currentColor">
  <path d="M283.5-666Q189-632 111-569q-17 14-37.5 13.5T38-571q-15-15-14.5-35.5T40-641q93-78 206-118.5T480-800q121 0 234 40.5T920-641q16 14 16.5 34.5T922-571q-15 15-35.5 15.5T849-569q-78-63-172.5-97T480-700q-102 0-196.5 34Zm140 482.5Q400-207 400-240t23.5-56.5Q447-320 480-320t56.5 23.5Q560-273 560-240t-23.5 56.5Q513-160 480-160t-56.5-23.5ZM480-380q-38 0-74 10t-68 30q-18 11-39 10.5T263-345q-15-15-14-35t18-32q47-33 101-50.5T480-480q41 0 80.5 8.5T636-446q-17 17-33 38.5T574-363q-23-8-46.5-12.5T480-380Zm251.5 208.5Q720-183 720-200t11.5-28.5Q743-240 760-240t28.5 11.5Q800-217 800-200t-11.5 28.5Q777-160 760-160t-28.5-11.5Zm0-120Q720-303 720-320v-60q0-17 11.5-28.5T760-420q17 0 28.5 11.5T800-380v60q0 17-11.5 28.5T760-280q-17 0-28.5-11.5ZM480-540q-70 0-135 21.5T224-455q-17 13-37.5 12.5T151-458q-14-15-13.5-35t16.5-33q70-56 153.5-85T481-640q90 0 173 29t153 84q13 10 16 25t-3 29q-16-6-33-9t-35-3q-14 0-26.5 2t-24.5 5q-50-30-106-46t-115-16Z"/>
</svg>
