<svg aria-hidden="true" viewBox="0 -960 960 960" fill="currentColor">
  <path d="M480-380q-38 0-74 10t-68 30q-18 11-39 10.5T263-345q-15-15-14-35t18-32q47-33 101-50.5T480-480q58 0 112 17.5T693-412q17 12 18 32t-14 35q-15 15-36 15.5T622-340q-32-20-68-30t-74-10ZM283.5-666Q189-632 111-569q-17 14-37.5 13.5T38-571q-15-15-14.5-35.5T40-641q93-78 206-118.5T480-800q121 0 234 40.5T920-641q16 14 16.5 34.5T922-571q-15 15-35.5 15.5T849-569q-78-63-172.5-97T480-700q-102 0-196.5 34ZM480-540q-70 0-135 21.5T224-455q-17 13-37.5 12.5T151-458q-14-15-13.5-35t16.5-33q70-56 153.5-85T481-640q90 0 173 29t153 84q16 13 17 33.5T810-458q-15 15-36 15.5T736-455q-56-42-121.5-63.5T480-540Zm-56.5 356.5Q400-207 400-240t23.5-56.5Q447-320 480-320t56.5 23.5Q560-273 560-240t-23.5 56.5Q513-160 480-160t-56.5-23.5Z"/>
</svg>
