<svg aria-hidden="true" viewBox="0 -960 960 960" fill="currentColor">
  <path d="M360-80q-58 0-109-22t-89-60q-38-38-60-89T80-360q0-81 42-148t110-102q20-39 49.5-68.5T350-728q33-68 101-110t149-42q58 0 109 22t89 60q38 38 60 89t22 109q0 85-42 150T728-350q-20 39-49.5 68.5T610-232q-35 68-102 110T360-80Zm0-80q33 0 63.5-10t56.5-30q-58 0-109-22t-89-60q-38-38-60-89t-22-109q-20 26-30 56.5T160-360q0 42 16 78t43 63q27 27 63 43t78 16Zm120-120q33 0 64.5-10t57.5-30q-59 0-110-22.5T403-403q-38-38-60.5-89T320-602q-20 26-30 57.5T280-480q0 42 15.5 78t43.5 63q27 28 63 43.5t78 15.5Z"/>
</svg>
