<svg aria-hidden="true" viewBox="0 -960 960 960" fill="currentColor">
  <path d="M280-40q-33 0-56.5-23.5T200-120v-720q0-33 23.5-56.5T280-920h400q33 0 56.5 23.5T760-840v160h-80v-40H280v480h400v-40h80v160q0 33-23.5 56.5T680-40H280Zm0-120v40h400v-40H280Zm0-640h400v-40H280v40Zm0 0v-40 40Zm0 640v40-40Zm406-280H480v80q0 17-11.5 28.5T440-320q-17 0-28.5-11.5T400-360v-80q0-33 23.5-56.5T480-520h206l-35-36q-11-11-11-27.5t12-28.5q11-11 28-11t28 11l104 104q12 12 12 28t-12 28L708-348q-11 11-27.5 11.5T652-348q-11-11-11.5-27.5T651-404l35-36Z"/>
</svg>
