<svg aria-hidden="true" viewBox="0 -960 960 960" fill="currentColor">
  <path d="M236.445-152.587q-34.467 0-59.163-24.695-24.695-24.696-24.695-59.163 0-34.466 24.695-59.011Q201.978-320 236.445-320q34.466 0 59.011 24.544Q320-270.911 320-236.445q0 34.467-24.544 59.163-24.545 24.695-59.011 24.695Zm0-243.826q-34.467 0-59.163-24.544-24.695-24.545-24.695-59.011 0-34.467 24.695-59.043 24.696-24.576 59.163-24.576 34.466 0 59.011 24.544Q320-514.498 320-480.032q0 34.467-24.544 59.043-24.545 24.576-59.011 24.576Zm0-243.587q-34.467 0-59.163-24.544-24.695-24.545-24.695-59.011 0-34.467 24.695-59.163 24.696-24.695 59.163-24.695 34.466 0 59.011 24.695Q320-758.022 320-723.555q0 34.466-24.544 59.011Q270.911-640 236.445-640Zm243.587 243.587q-34.467 0-59.043-24.544-24.576-24.545-24.576-59.011 0-34.467 24.544-59.043 24.545-24.576 59.011-24.576 34.467 0 59.043 24.554Q563.587-514.48 563.587-480l-83.555 83.587Zm0-243.587q-34.467 0-59.043-24.544-24.576-24.545-24.576-59.011 0-34.467 24.544-59.163 24.545-24.695 59.011-24.695 34.467 0 59.043 24.695 24.576 24.696 24.576 59.163 0 34.466-24.544 59.011Q514.498-640 480.032-640ZM462.87-152.587q-9.148 0-16.009-6.717Q440-166.022 440-175.217v-45.131q0-9.195 3.359-17.549 3.358-8.354 10.076-15.038l203.587-203.587 86.913 87.152-203.587 203.348q-6.683 6.718-15.037 10.077-8.354 3.358-17.55 3.358H462.87ZM723.555-640q-34.466 0-59.011-24.544Q640-689.089 640-723.555q0-34.467 24.544-59.163 24.545-24.695 59.011-24.695 34.467 0 59.163 24.695 24.695 24.696 24.695 59.163 0 34.466-24.695 59.011Q758.022-640 723.555-640Zm48.858 241.913L685.5-485.239l29.677-29.508q12.28-12.21 29.019-12.21 16.739 0 28.134 12.21l30.04 29.508q12.239 11.478 12.239 28.329t-12.239 29.106l-29.957 29.717Z"/>
</svg>
