<svg aria-hidden="true" viewBox="0 -960 960 960" fill="currentColor">
  <path d="M183.5-183.5Q160-207 160-240t23.5-56.5Q207-320 240-320t56.5 23.5Q320-273 320-240t-23.5 56.5Q273-160 240-160t-56.5-23.5Zm0-240Q160-447 160-480t23.5-56.5Q207-560 240-560t56.5 23.5Q320-513 320-480t-23.5 56.5Q273-400 240-400t-56.5-23.5Zm0-240Q160-687 160-720t23.5-56.5Q207-800 240-800t56.5 23.5Q320-753 320-720t-23.5 56.5Q273-640 240-640t-56.5-23.5Zm240 0Q400-687 400-720t23.5-56.5Q447-800 480-800t56.5 23.5Q560-753 560-720t-23.5 56.5Q513-640 480-640t-56.5-23.5Zm240 0Q640-687 640-720t23.5-56.5Q687-800 720-800t56.5 23.5Q800-753 800-720t-23.5 56.5Q753-640 720-640t-56.5-23.5Zm-240 240Q400-447 400-480t23.5-56.5Q447-560 480-560t56.5 23.5Q560-513 560-480t-23.5 56.5Q513-400 480-400t-56.5-23.5ZM520-200v-66q0-8 3-15.5t9-13.5l209-208q9-9 20-13t22-4q12 0 23 4.5t20 13.5l37 37q8 9 12.5 20t4.5 22q0 11-4 22.5T863-380L655-172q-6 6-13.5 9t-15.5 3h-66q-17 0-28.5-11.5T520-200Zm300-223-37-37 37 37ZM580-220h38l121-122-18-19-19-18-122 121v38Zm141-141-19-18 37 37-18-19Z"/>
</svg>
