<svg aria-hidden="true" viewBox="0 -960 960 960" fill="currentColor">
  <path d="M516.522-526.848 338.869-704.74l64.653-63.891 113 113.239 227-226.239 63.891 63.891-290.891 290.892ZM557.609-49l-276.174-77.282v-397.783h75.608l249.196 92.478q35.152 12.957 56.968 44.511 21.815 31.554 21.815 70.424h-87.413q-42 0-65.881-3-23.88-3-43.315-9.478l-78.804-25.522-14.153 44.935 64.674 23.239q27.044 10.283 51.24 13.641 24.195 3.359 54 3.359h192.239q70.543 0 98.978 19.826 28.435 19.826 28.435 57.065v41.435L557.609-49ZM30.435-69.478v-454.587h163.587v454.587H30.435Z"/>
</svg>
