<svg aria-hidden="true" viewBox="0 -960 960 960" fill="currentColor">
  <path d="m557-631 199-198q11-11 27.5-11.5T812-829q11 11 11 28t-11 28L585-546q-12 12-28 12t-28-12L415-660q-12-12-11.5-28t12.5-28q12-11 28-11.5t28 11.5l85 85Zm41 487 238-74q-5-9-14.5-15.5T800-240H598q-27 0-43-2t-33-8l-57-19q-16-5-23-20t-2-31q5-16 19.5-23.5T490-346l42 14q17 5 38.5 8t58.5 4h11q0-11-6.5-21T618-354l-234-86h-64v220l278 76Zm-21 78-257-72q-8 26-31.5 42T240-80h-80q-33 0-56.5-23.5T80-160v-280q0-33 23.5-56.5T160-520h224q7 0 14 1.5t13 3.5l235 87q33 12 53.5 42t20.5 66h80q50 0 85 33t35 87q0 22-11.5 34.5T873-145L623-67q-11 4-23 4t-23-3Zm-417-94h80v-280h-80v280Z"/>
</svg>
