<svg aria-hidden="true" viewBox="0 -960 960 960" fill="currentColor">
  <path d="M517-526.848 339.348-704.74 404-768.631l113 113.239 227-226.239 63.891 63.891L517-526.848ZM557.609-49l-276.174-77.282v56.804h-251v-454.587h326.608l249.196 92.478q35.152 12.957 56.968 44.511 21.815 31.554 21.815 70.424h72.587q53.089 0 90.251 31.924 37.162 31.924 37.162 88.076v45.5L557.609-49Zm-440-107.652h76.413v-280h-76.413v280Zm438 16 238-74q-3-11.239-13.512-16.62-10.511-5.38-22.523-5.38H565.37q-29.805 0-55.642-4.12-25.837-4.119-53.641-13.641l-69.478-24.239 23-76 78.804 25.522q19.435 6.478 43.35 9.478 23.916 3 65.846 3 0-11-6.5-21t-15.5-13l-234-86h-60.174v220.717l274.174 75.283ZM194.022-296.891Zm403.587-19.761Zm-403.587 19.761Zm87.413 0Z"/>
</svg>
