<svg aria-hidden="true" viewBox="0 -960 960 960" fill="currentColor">
  <path d="M183.5-183.5Q160-207 160-240t23.5-56.5Q207-320 240-320t56.5 23.5Q320-273 320-240t-23.5 56.5Q273-160 240-160t-56.5-23.5Zm0-240Q160-447 160-480t23.5-56.5Q207-560 240-560t56.5 23.5Q320-513 320-480t-23.5 56.5Q273-400 240-400t-56.5-23.5Zm0-240Q160-687 160-720t23.5-56.5Q207-800 240-800t56.5 23.5Q320-753 320-720t-23.5 56.5Q273-640 240-640t-56.5-23.5Zm240 480Q400-207 400-240t23.5-56.5Q447-320 480-320t56.5 23.5Q560-273 560-240t-23.5 56.5Q513-160 480-160t-56.5-23.5Zm0-240Q400-447 400-480t23.5-56.5Q447-560 480-560t56.5 23.5Q560-513 560-480t-23.5 56.5Q513-400 480-400t-56.5-23.5ZM480-640q-33 0-56.5-23.5T400-720q0-35 24.5-57.5T483-800q-2 10-2.5 19.5T480-760q0 31 6.5 60.5T505-644q-6 2-12 3t-13 1Zm138.5 21.5Q560-677 560-760t58.5-141.5Q677-960 760-960t141.5 58.5Q960-843 960-760t-58.5 141.5Q843-560 760-560t-141.5-58.5Zm45 435Q640-207 640-240t23.5-56.5Q687-320 720-320t56.5 23.5Q800-273 800-240t-23.5 56.5Q753-160 720-160t-56.5-23.5ZM720-400q-33 0-56.5-23.5T640-480q0-7 1-13t3-12q26 12 55.5 18.5T760-480q11 0 20.5-.5T800-483q0 34-22.5 58.5T720-400Zm54-246q6-6 6-14t-6-14q-6-6-14-6t-14 6q-6 6-6 14t6 14q6 6 14 6t14-6Zm-14-74q8 0 14-6t6-14v-120q0-8-6-14t-14-6q-8 0-14 6t-6 14v120q0 8 6 14t14 6Z"/>
</svg>
