<svg aria-hidden="true" viewBox="0 -960 960 960" fill="currentColor">
  <path d="M707-707q93 93 93 227t-93 227q-93 93-227 93t-227-93q-93-93-93-227t93-227q93-93 227-93t227 93Zm-57 397q70-70 70-170t-70-170q-70-70-170-70t-170 70q-70 70-70 170t70 170q70 70 170 70t170-70ZM351.5-531.5Q363-520 380-520t28.5-11.5Q420-543 420-560t-11.5-28.5Q397-600 380-600t-28.5 11.5Q340-577 340-560t11.5 28.5Zm200 0Q563-520 580-520t28.5-11.5Q620-543 620-560t-11.5-28.5Q597-600 580-600t-28.5 11.5Q540-577 540-560t11.5 28.5ZM40-760v-80q0-33 23.5-56.5T120-920h80q17 0 28.5 11.5T240-880q0 17-11.5 28.5T200-840h-80v80q0 17-11.5 28.5T80-720q-17 0-28.5-11.5T40-760ZM200-40h-80q-33 0-56.5-23.5T40-120v-80q0-17 11.5-28.5T80-240q17 0 28.5 11.5T120-200v80h80q17 0 28.5 11.5T240-80q0 17-11.5 28.5T200-40Zm640 0h-80q-17 0-28.5-11.5T720-80q0-17 11.5-28.5T760-120h80v-80q0-17 11.5-28.5T880-240q17 0 28.5 11.5T920-200v80q0 33-23.5 56.5T840-40Zm0-720v-80h-80q-17 0-28.5-11.5T720-880q0-17 11.5-28.5T760-920h80q33 0 56.5 23.5T920-840v80q0 17-11.5 28.5T880-720q-17 0-28.5-11.5T840-760ZM480-480Zm70.5 122q32.5-18 52.5-49 6-11-.5-22T583-440H377q-13 0-19.5 11t-.5 22q20 31 52.5 49t70.5 18q38 0 70.5-18Z"/>
</svg>
