<svg aria-hidden="true" viewBox="0 -960 960 960" fill="currentColor">
  <path d="M225.5-82.5Q120-125 120-200q0-32 20-57.5t56-45.5l65 58q-24 8-42.5 20.5T200-200q0 26 81 53t199 27q118 0 199-27t81-53q0-12-18.5-24.5T699-245l65-58q36 20 56 45.5t20 57.5q0 75-105.5 117.5T480-40q-149 0-254.5-42.5Zm212-125Q417-215 400-230L148-453q-13-11-20.5-27t-7.5-33v-80q0-17 6.5-33t19.5-27l252-235q17-16 38-24t44-8q23 0 44 8t38 24l252 235q13 11 19.5 27t6.5 33v80q0 17-7.5 33T812-453L560-230q-17 15-37.5 22.5T480-200q-22 0-42.5-7.5Zm65-185Q515-397 526-407l222-197-240-226q-7-5-14-7.5t-15-2.5q-8 0-15 2.5t-12 7.5L208-600l218 193q11 10 23.5 14.5T476-388q14 0 26.5-4.5Zm-107-172Q410-579 410-600t-14.5-35.5Q381-650 360-650t-35.5 14.5Q310-621 310-600t14.5 35.5Q339-550 360-550t35.5-14.5ZM410-496q43 21 90.5 13.5T584-522q34-29 44.5-73T618-678L410-496Zm105.5-188.5Q530-699 530-720t-14.5-35.5Q501-770 480-770t-35.5 14.5Q430-741 430-720t14.5 35.5Q459-670 480-670t35.5-14.5ZM478-614Z"/>
</svg>
