<svg aria-hidden="true" viewBox="0 -960 960 960" fill="currentColor">
  <path d="M848.131-317.848 537.37-560.37q-30.826-23.869-68.87-18.532-38.044 5.337-60.913 37.163L304.522-398.826l-140.74-110.109q-12.478-10.239-25.837-14.478-13.358-4.239-26.076-4.718v-158.13q5.479 0 11.979 1.978 6.5 1.978 12.978 6.978l141.261 105.826 171.891-241.217q11.435-16.152 30.826-18.891 19.392-2.739 35.066 9.696l167 133.76h119.76q19.153 0 32.327 13.174t13.174 32.327v324.782ZM157.37-151.869q-19.153 0-32.327-13.174t-13.174-32.327v-241.195q7.24 0 13.359 2 6.12 2 12.598 7.239l181.696 145.022 132.652-182.218q11.435-15.913 30.206-18.772 18.772-2.858 34.446 9.577l331.305 258.869v19.478q0 19.153-13.174 32.327t-32.327 13.174H157.37Z"/>
</svg>
