<svg aria-hidden="true" viewBox="0 -960 960 960" fill="currentColor">
  <path d="M157.37-151.869q-19.153 0-32.327-13.174t-13.174-32.327v-488.891q5.479 0 11.979 1.978 6.5 1.978 12.978 6.978l141.261 105.826 171.891-241.217q11.435-16.152 30.826-18.891 19.392-2.739 35.066 9.696l167 133.76h119.76q19.153 0 32.327 13.174t13.174 32.327v445.26q0 19.153-13.174 32.327t-32.327 13.174H157.37Zm162.152-132.435 132.413-182.218q11.435-15.913 30.326-18.772 18.891-2.858 34.565 9.577L757.13-287.978V-597.13H650.804L496.478-720.696l-197.761 278-95.847-71.326v136.587l116.652 93.131Z"/>
</svg>
