<svg aria-hidden="true" viewBox="0 -960 960 960" fill="currentColor">
  <path d="M324-111.5Q251-143 197-197t-85.5-127Q80-397 80-480t31.5-156Q143-709 197-763t127-85.5Q397-880 480-880t156 31.5Q709-817 763-763t85.5 127Q880-563 880-480t-31.5 156Q817-251 763-197t-127 85.5Q563-80 480-80t-156-31.5ZM480-160q133 0 226.5-93.5T800-480q0-133-93.5-226.5T480-800q-133 0-226.5 93.5T160-480q0 133 93.5 226.5T480-160Zm0-320Zm-72 132q11-11 11-28t-11-28l-36-36h216l-36 36q-11 11-11 28t11 28q11 11 28 11t28-11l104-104q12-12 12-28t-12-28L608-612q-11-11-28-11t-28 11q-11 11-11 28t11 28l36 36H372l36-36q11-11 11-28t-11-28q-11-11-28-11t-28 11L248-508q-12 12-12 28t12 28l104 104q11 11 28 11t28-11Z"/>
</svg>
