<svg aria-hidden="true" viewBox="0 -960 960 960" fill="currentColor">
  <path d="M465-87q-7-3-13-9L228-319q-11-11-11-28t11-29q12-12 28.5-12t28.5 12l155 156v-247q0-17 11.5-28.5T480-507q17 0 28.5 11.5T520-467v247l156-156q11-11 27.5-11t28.5 12q11 11 11 28t-11 28L508-96q-6 6-13 9t-15 3q-8 0-15-3Zm-13.5-511.5Q440-610 440-627v-40q0-17 11.5-28.5T480-707q17 0 28.5 11.5T520-667v40q0 17-11.5 28.5T480-587q-17 0-28.5-11.5Zm0-200Q440-810 440-827t11.5-28.5Q463-867 480-867t28.5 11.5Q520-844 520-827t-11.5 28.5Q497-787 480-787t-28.5-11.5Z"/>
</svg>
