<svg aria-hidden="true" viewBox="0 -960 960 960" fill="currentColor">
  <path d="M324-111.5Q251-143 197-197t-85.5-127Q80-397 80-480t31.5-156Q143-709 197-763t127-85.5Q397-880 480-880t156 31.5Q709-817 763-763t85.5 127Q880-563 880-480t-31.5 156Q817-251 763-197t-127 85.5Q563-80 480-80t-156-31.5ZM440-372l-36-36q-11-11-28-11t-28 11q-11 11-11 28t11 28l104 104q12 12 28 12t28-12l104-104q11-11 11-28t-11-28q-11-11-28-11t-28 11l-36 36v-216l36 36q11 11 28 11t28-11q11-11 11-28t-11-28L508-712q-12-12-28-12t-28 12L348-608q-11 11-11 28t11 28q11 11 28 11t28-11l36-36v216Z"/>
</svg>
