<svg aria-hidden="true" viewBox="0 -960 960 960" fill="currentColor">
  <path d="M629-189q-29-29-29-71t29-71q29-29 71-29 8 0 18 1.5t22 6.5v-168q0-17 11.5-28.5T780-560h60q17 0 28.5 11.5T880-520q0 17-11.5 28.5T840-480h-40v220q0 42-29 71t-71 29q-42 0-71-29Zm-469 29q-17 0-28.5-11.5T120-200v-72q0-35 17.5-63t46.5-43q62-31 126-46.5T440-440q23 0 47 1.5t47 6.5q21 4 29 18t6 29q-2 15-14 26t-31 7q-21-4-41.5-6t-42.5-2q-57 0-112 14t-108 40q-9 5-14.5 14t-5.5 20v32h293q20 0 30 12.5t10 27.5q0 15-10 27.5T493-160H160Zm167-367q-47-47-47-113t47-113q47-47 113-47t113 47q47 47 47 113t-47 113q-47 47-113 47t-113-47Zm169.5-56.5Q520-607 520-640t-23.5-56.5Q473-720 440-720t-56.5 23.5Q360-673 360-640t23.5 56.5Q407-560 440-560t56.5-23.5ZM440-640Zm0 400Z"/>
</svg>
