<svg aria-hidden="true" viewBox="0 -960 960 960" fill="currentColor">
  <path d="M200-120q-33 0-56.5-23.5T120-200v-560q0-33 23.5-56.5T200-840h168q14-36 44-58t68-22q38 0 68 22t44 58h168q33 0 56.5 23.5T840-760v560q0 33-23.5 56.5T760-120H200Zm301.5-678.5Q510-807 510-820t-8.5-21.5Q493-850 480-850t-21.5 8.5Q450-833 450-820t8.5 21.5Q467-790 480-790t21.5-8.5ZM579-481q41-41 41-99t-41-99q-41-41-99-41t-99 41q-41 41-41 99t41 99q41 41 99 41t99-41ZM200-200h560v-46q-54-53-125.5-83.5T480-360q-83 0-154.5 30.5T200-246v46Z"/>
</svg>
