<svg aria-hidden="true" viewBox="0 -960 960 960" fill="currentColor">
  <path d="M200-120q-33 0-56.5-23.5T120-200v-560q0-33 23.5-56.5T200-840h168q14-36 44-58t68-22q38 0 68 22t44 58h168q33 0 56.5 23.5T840-760v560q0 33-23.5 56.5T760-120H200Zm301.5-678.5Q510-807 510-820t-8.5-21.5Q493-850 480-850t-21.5 8.5Q450-833 450-820t8.5 21.5Q467-790 480-790t21.5-8.5ZM200-246q54-53 125.5-83.5T480-360q83 0 154.5 30.5T760-246v-514H200v514Zm379-235q41-41 41-99t-41-99q-41-41-99-41t-99 41q-41 41-41 99t41 99q41 41 99 41t99-41ZM280-200h400v-10q-42-35-93-52.5T480-280q-56 0-107 17.5T280-210v10Zm157.5-337.5Q420-555 420-580t17.5-42.5Q455-640 480-640t42.5 17.5Q540-605 540-580t-17.5 42.5Q505-520 480-520t-42.5-17.5ZM480-503Z"/>
</svg>
