<svg aria-hidden="true" viewBox="0 -960 960 960" fill="currentColor">
  <path d="M240-280q-17 0-28.5-11.5T200-320v-200q0-17 11.5-28.5T240-560q17 0 28.5 11.5T280-520v200q0 17-11.5 28.5T240-280Zm240 0q-17 0-28.5-11.5T440-320v-200q0-17 11.5-28.5T480-560q17 0 28.5 11.5T520-520v200q0 17-11.5 28.5T480-280ZM128-640q-20 0-34-14t-14-34q0-15 7-27t21-19l336-168q8-5 17.5-7t18.5-2q9 0 18.5 2t17.5 7l336 168q14 7 21 19t7 27q0 20-14 34t-34 14H128Zm-8 520q-17 0-28.5-11.5T80-160q0-17 11.5-28.5T120-200h442q2 21 5 40.5t9 39.5H120Zm560-310v-90q0-17 11.5-28.5T720-560q17 0 28.5 11.5T760-520v50l-80 40ZM800 0q-69-17-114.5-79.5T640-218v-77q0-11 5.5-21t16.5-15l120-60q8-5 18-5t18 5l120 60q11 5 16.5 15t5.5 21v77q0 76-45.5 138.5T800 0Zm89-237q9-9 9-21t-9-21q-9-9-21-8.5t-21 8.5l-76 74-18-18q-9-9-21-8.5t-21 9.5q-9 9-9 21t9 21l32 32q6 6 13 9t15 3q8 0 15-3t13-9l90-89Z"/>
</svg>
