<svg aria-hidden="true" viewBox="0 -960 960 960" fill="currentColor">
  <path d="M236.413-277.37q-18.435 0-31.131-12.695-12.695-12.696-12.695-31.131v-192.586q0-18.435 12.695-31.011 12.696-12.577 31.131-12.577 18.435 0 31.011 12.577Q280-532.217 280-513.782v192.586q0 18.435-12.576 31.131-12.576 12.695-31.011 12.695Zm243.587 0q-18.435 0-31.011-12.695-12.576-12.696-12.576-31.131v-192.586q0-18.435 12.576-31.011Q461.565-557.37 480-557.37t31.011 12.577q12.576 12.576 12.576 31.011v192.586q0 18.435-12.576 31.131Q498.435-277.37 480-277.37ZM126.565-630.195q-22.63 0-38.663-15.914-16.033-15.913-16.033-38.543 0-17.152 8.913-32.381 8.914-15.228 24.827-23.185l333.369-166.804q9.435-5.478 20.131-7.717 10.695-2.239 20.891-2.239 10.196 0 20.891 2.239 10.696 2.239 20.131 7.717l333.369 166.804q15.913 7.957 24.827 22.946 8.913 14.989 8.913 32.62 0 22.63-16.033 38.543-16.033 15.914-38.663 15.914h-706.87Zm144.631-91.001h417.608L480-824.978 271.196-721.196ZM117.37-113.782q-19.153 0-32.327-13.174T71.87-159.283q0-19.152 13.174-32.326t32.327-13.174h441.282q2 22.435 5.598 45.522t10.793 45.479H117.37ZM680-433.587v-80.195q0-18.435 12.576-31.011 12.576-12.577 31.011-12.577 17.478 0 29.696 11.381 12.217 11.38 13.413 28.141v40.913L680-433.587ZM800 3.587q-70.435-17.478-116.652-81.054-46.218-63.576-46.218-141.011v-75.326q0-12.674 6.337-23.87 6.337-11.196 18.772-16.913l117.37-58.804q9.434-5.479 20.391-5.479 10.957 0 20.391 5.479l117.37 58.804q12.435 5.717 18.772 16.913 6.337 11.196 6.337 23.87v75.326q0 77.435-46.218 141.01Q870.435-13.89 800 3.588Zm90.913-242.5q9-9 9-21.12 0-12.119-9-21.119t-21.119-8.62q-12.12.381-21.12 8.62L770.761-205l-20.87-20.87q-9-9-21-8.619-12 .38-21 9.38t-9 21.12q0 12.119 9 21.119l31.044 31.283q6.956 6.957 14.913 10.196 7.956 3.239 16.913 3.239 8.956 0 16.913-3.239 7.956-3.239 14.913-10.196l88.326-87.326ZM271.196-721.196h417.608-417.608Z"/>
</svg>
