<svg aria-hidden="true" viewBox="0 -960 960 960" fill="currentColor">
  <path d="M460-80q-92 0-156-64t-64-156v-420q0-66 47-113t113-47q66 0 113 47t47 113v320h-60v-320q0-42-29-71t-71-29q-42 0-71 29t-29 71v420q0 66 47 113t113 47q29 0 54.5-9.5T560-176v72q-23 11-48 17.5T460-80Zm180-160h-80q-17 0-28.5-11.5T520-280q0-17 11.5-28.5T560-320h80v-80q0-17 11.5-28.5T680-440q17 0 28.5 11.5T720-400v80h80q17 0 28.5 11.5T840-280q0 17-11.5 28.5T800-240h-80v80q0 17-11.5 28.5T680-120q-17 0-28.5-11.5T640-160v-80Zm-180-60v60q-42 0-71-29t-29-71v-350q0-13 8.5-21.5T390-720q13 0 21.5 8.5T420-690v350q0 17 11.5 28.5T460-300Zm160-220v-170q0-13 8.5-21.5T650-720q13 0 21.5 8.5T680-690v170h-60Z"/>
</svg>
