<svg aria-hidden="true" viewBox="0 -960 960 960" fill="currentColor">
  <path d="M480-620q-53 0-81.5 14.5T370-564v164q0 8 6 14t14 6h40v130q0 21 14.5 35.5T480-200q21 0 35.5-14.5T530-250v-130h40q8 0 14-6t6-14v-164q0-27-28.5-41.5T480-620ZM325-111.5q-73-31.5-127.5-86t-86-127.5Q80-398 80-480.5t31.5-155q31.5-72.5 86-127t127.5-86Q398-880 480.5-880t155 31.5q72.5 31.5 127 86t86 127Q880-563 880-480.5T848.5-325q-31.5 73-86 127.5t-127 86Q563-80 480.5-80T325-111.5ZM523-657q17-17 17-43t-17-43q-17-17-43-17t-43 17q-17 17-17 43t17 43q17 17 43 17t43-17Z"/>
</svg>
