<svg aria-hidden="true" viewBox="0 -960 960 960" fill="currentColor">
  <path d="M200-200q-17 0-28.5-11.5T160-240v-40q-33 0-56.5-23.5T80-360v-320q0-33 23.5-56.5T160-760h640q33 0 56.5 23.5T880-680v320q0 33-23.5 56.5T800-280v40q0 17-11.5 28.5T760-200q-17 0-28.5-11.5T720-240v-40H240v40q0 17-11.5 28.5T200-200Zm516.5-263.5Q740-487 740-520t-23.5-56.5Q693-600 660-600t-56.5 23.5Q580-553 580-520t23.5 56.5Q627-440 660-440t56.5-23.5ZM280-440h200q17 0 28.5-11.5T520-480v-80q0-17-11.5-28.5T480-600H280q-17 0-28.5 11.5T240-560v80q0 17 11.5 28.5T280-440Z"/>
</svg>
