<svg aria-hidden="true" viewBox="0 -960 960 960" fill="currentColor">
  <path d="m438-592 40-116h4l40 116h-84Zm42 232q-100 0-170-70t-70-170q0-100 70-170t170-70q100 0 170 70t70 170q0 100-70 170t-170 70Zm-98-120q7 0 13-4.5t8-10.5l21-57h112l21 57q2 6 8 10.5t13 4.5q13 0 19.5-8.5T599-509l-86-228q-4-10-13.5-16.5T479-760q-11 0-20.5 6.5T445-737l-84 227q-5 12 1.5 21t19.5 9ZM160-80q-17 0-28.5-11.5T120-120v-120q0-17 11.5-28.5T160-280q17 0 28.5 11.5T200-240v120q0 17-11.5 28.5T160-80Zm160 0q-17 0-28.5-11.5T280-120v-120q0-17 11.5-28.5T320-280q17 0 28.5 11.5T360-240v120q0 17-11.5 28.5T320-80Zm160 0q-17 0-28.5-11.5T440-120v-120q0-17 11.5-28.5T480-280q17 0 28.5 11.5T520-240v120q0 17-11.5 28.5T480-80Zm160 0q-17 0-28.5-11.5T600-120v-120q0-17 11.5-28.5T640-280h160q17 0 28.5 11.5T840-240v120q0 17-11.5 28.5T800-80H640Z"/>
</svg>
