<svg aria-hidden="true" viewBox="0 -960 960 960" fill="currentColor">
  <path d="m777.217-710.869-20.478-44.435-44.435-20.718q-12.913-5.956-12.913-20.75 0-14.793 12.913-20.75L756.739-838l20.478-44.435q5.957-12.913 20.75-12.913 14.794 0 20.75 12.913L839.435-838l44.435 20.478q12.913 5.957 12.913 20.75 0 14.794-12.913 20.75l-44.435 20.718-20.718 44.435q-5.956 12.913-20.75 12.913-14.793 0-20.75-12.913ZM632.522-444.587 446.739-630.37l81.935-81.934q13.674-13.674 32.587-13.674 18.913 0 32.826 13.674l120.37 119.891q13.674 13.674 13.674 32.946t-13.674 32.946l-81.935 81.934ZM765.913-75.391 513.739-325.804l-246 245.522q-13.674 13.434-32.706 13.434-19.033 0-32.707-13.434L81.956-201.935Q69.043-214.848 69.043-234q0-19.152 12.913-32.065l245.761-245.522L76.826-764.478q-12.478-12.479-12.478-29.316 0-16.836 12.478-29.315 11.717-11.717 29.196-11.717 17.478 0 29.195 11.717l689.327 689.087q11.717 11.718 11.717 29.316 0 17.597-11.717 29.315-12.479 12.478-29.316 12.478T765.913-75.39Z"/>
</svg>
