<svg aria-hidden="true" viewBox="0 -960 960 960" fill="currentColor">
  <path d="M760.478-625.37q-5.956 0-12.054-3.239t-8.815-10.195l-31.522-69.044-68.804-31.522q-6.957-2.717-10.316-8.695-3.358-5.978-3.358-11.935 0-5.957 3.358-12.054 3.359-6.098 10.316-8.816l68.804-31.282 31.522-69.044q2.717-6.956 8.815-10.315 6.098-3.359 12.054-3.359 5.957 0 11.935 3.359 5.978 3.359 8.696 10.315l31.521 69.044 68.805 31.282q6.956 2.718 10.315 8.816 3.359 6.097 3.359 12.054t-3.359 11.935q-3.359 5.978-10.315 8.695l-68.805 31.522-31.521 69.044q-2.718 6.956-8.696 10.195t-11.935 3.239Zm0 560q-5.956 0-12.054-3.239t-8.815-10.195l-31.522-69.044-68.804-31.522q-6.957-2.717-10.316-8.695-3.358-5.978-3.358-11.935 0-5.957 3.358-12.054 3.359-6.098 10.316-8.816l68.804-31.282 31.522-69.044q2.717-6.956 8.815-10.315 6.098-3.359 12.054-3.359 5.957 0 11.935 3.359 5.978 3.359 8.696 10.315l31.521 69.044 68.805 31.282q6.956 2.718 10.315 8.816 3.359 6.097 3.359 12.054t-3.359 11.935q-3.359 5.978-10.315 8.695l-68.805 31.522-31.521 69.044q-2.718 6.956-8.696 10.195-5.978 3.24-11.935 3.24ZM361.435-215.565q-12.435 0-23.75-6.837t-17.272-19.511L258.565-377.13l-135.217-61.848q-12.674-5.957-19.511-17.272Q97-467.565 97-480t6.837-23.75q6.837-11.315 19.511-17.272l135.217-61.848 61.848-135.217q5.957-12.674 17.272-19.511 11.315-6.837 23.75-6.837t23.869 6.837q11.435 6.837 17.392 19.511l61.608 135.217 135.218 61.848q12.674 5.957 19.511 17.272 6.837 11.315 6.837 23.75t-6.837 23.75q-6.837 11.315-19.511 17.272L464.304-377.13l-61.608 135.217q-5.957 12.674-17.392 19.511-11.434 6.837-23.869 6.837Z"/>
</svg>
