<svg aria-hidden="true" viewBox="0 -960 960 960" fill="currentColor">
  <path d="m799.522-666.13-41.109-89.174L669-796.652 758.413-838l41.109-89.413L840.87-838l89.413 41.348-89.413 41.348-41.348 89.174Zm-477.935 0-41.109-89.174-89.413-41.348L280.478-838l41.109-89.413L362.934-838l89.414 41.348-89.414 41.348-41.347 89.174Zm477.935 478.413-41.109-89.413L669-318.478l89.413-41.109L799.522-449l41.348 89.413 89.413 41.109-89.413 41.348-41.348 89.413ZM203.761-80.043l-120.13-120.37q-13.675-13.674-13.675-32.826t13.674-32.826l446.718-446.239q13.434-13.435 32.587-13.435 19.152 0 32.587 13.435l120.609 119.891q13.674 13.674 13.674 32.946t-13.674 32.946L269.413-79.565q-13.435 13.435-32.826 13.196-19.391-.24-32.826-13.674ZM562.935-503.11l56.478-56.478-56.478-56.239-56.239 56.239 56.239 56.478Z"/>
</svg>
