<svg aria-hidden="true" viewBox="0 -960 960 960" fill="currentColor">
  <path d="m777.456-710.869-20.478-44.435-44.435-20.718q-12.913-5.956-12.913-20.75 0-14.793 12.913-20.75L756.978-838l20.478-44.435q5.957-12.913 20.75-12.913 14.794 0 20.751 12.913L839.435-838l44.435 20.478q12.913 5.957 12.913 20.75 0 14.794-12.913 20.75l-44.435 20.718-20.478 44.435q-5.957 12.913-20.751 12.913-14.793 0-20.75-12.913ZM632.761-444.587 446.978-630.37l81.935-81.934q13.674-13.674 32.587-13.674 18.913 0 32.826 13.674l120.37 119.891q13.674 13.674 13.674 32.946t-13.674 32.946l-81.935 81.934ZM766.152-75.391 513.978-325.804l-246 245.522q-13.674 13.434-32.706 13.434-19.033 0-32.707-13.434L82.195-201.935Q69.282-214.848 69.282-234q0-19.152 12.913-32.065l245.522-245.522L76.826-764.478q-11.717-11.718-12.098-28.935-.38-17.217 12.098-29.696 11.717-11.717 29.315-11.717t29.315 11.717l689.088 689.087q11.717 11.718 12.097 28.935.381 17.218-12.097 29.696-11.718 11.717-28.816 11.717T766.152-75.39ZM235.913-176l213.935-215.696-56.239-56.239L177.913-234l58 58Zm0 0-58-58 58 58Z"/>
</svg>
