<svg aria-hidden="true" viewBox="0 -960 960 960" fill="currentColor">
  <path d="M145.696-161.391q-14.435-14.435-14.435-33.826 0-19.392 14.435-33.826l242-242q6.956-6.957 14.913-9.816 7.956-2.858 16.913-2.858 8.956 0 17.032 2.858 8.076 2.859 15.033 9.816l127.696 127.695 252.173-283.695q12.435-14.674 32.327-14.914 19.891-.239 33.804 13.435 12.674 12.435 13.174 30.207t-11.935 31.446l-287 323.239q-6.717 7.956-15.174 11.815-8.456 3.859-17.652 4.098-9.196.239-17.772-3.239-8.576-3.479-15.532-10.435L419.522-367.565 213.587-161.391q-14.435 14.435-33.946 14.435-19.511 0-33.945-14.435Zm15.5-265.652q-5.957 0-11.555-2.979-5.598-2.978-9.076-9.935l-20-43.239-43.239-20q-6.956-3.478-9.935-9.076-2.978-5.598-2.978-11.554 0-5.957 2.978-11.674 2.978-5.718 9.935-9.196l43.239-20 20-43q3.478-6.956 9.076-9.935 5.598-2.978 11.555-2.978 5.956 0 11.674 2.978 5.717 2.979 9.195 9.935l20 43 43.239 20q12.914 5.957 12.914 20.75 0 14.794-12.914 20.75l-43.239 20-20 43.239q-3.478 6.957-9.195 9.935-5.718 2.979-11.674 2.979Zm439.761-81.914q-5.957 0-11.674-2.978-5.718-2.978-9.196-9.935l-20-43-43-20q-6.957-3.478-9.935-9.195-2.978-5.718-2.978-11.674 0-5.957 2.978-11.555 2.978-5.597 9.935-9.076l43-20 20-43.239q3.478-6.956 9.196-9.935 5.717-2.978 11.674-2.978 5.956 0 11.554 2.978 5.598 2.979 9.076 9.935l20 43.239 43.239 20q6.957 3.479 9.935 9.076 2.978 5.598 2.978 11.555 0 5.956-2.978 11.674-2.978 5.717-9.935 9.195l-43.239 20-20 43q-3.478 6.957-9.076 9.935-5.598 2.978-11.554 2.978ZM341.913-630.87q-5.956 0-11.554-3.358-5.598-3.359-9.076-10.316l-25.761-55.76-55.283-25.522q-6.956-3.478-10.315-9.196-3.359-5.717-3.359-11.674 0-5.956 3.359-11.554t10.315-9.076l55.283-25.522 25.761-55.522q3.478-6.956 9.076-10.435 5.598-3.478 11.554-3.478 5.957 0 11.674 3.478 5.717 3.479 9.196 10.435l25.521 55.522 55.522 25.522q6.957 3.478 10.315 9.076 3.359 5.598 3.359 11.554 0 5.957-3.359 11.674-3.358 5.718-10.315 9.196l-55.522 25.522-25.521 55.76q-3.479 6.957-9.196 10.316-5.717 3.358-11.674 3.358Z"/>
</svg>
