<svg aria-hidden="true" viewBox="0 -960 960 960" fill="currentColor">
  <path d="M437.522-598.935 478-715.413h4l40 116.478h-84.478ZM480-357.848q-103.109 0-175.62-72.511-72.511-72.511-72.511-175.619 0-103.109 72.511-175.501Q376.891-853.87 480-853.87q103.109 0 175.62 72.391 72.511 72.392 72.511 175.501 0 103.108-72.511 175.619T480-357.848ZM379.848-484.304q7.239 0 13.837-4.74 6.598-4.739 8.837-11.217l20.282-55.326h114.392l20.282 55.087q2.239 6.478 8.837 11.337t14.076 4.859q14.435 0 21.413-9.457 6.979-9.457 1.5-22.891l-86-225.37q-4.239-10.956-14.934-18.533-10.696-7.576-23.131-7.576-12.196 0-23.13 7.576-10.935 7.577-15.174 18.533l-84 224.848q-5.479 13.196 1.619 23.033 7.098 9.837 21.294 9.837ZM149-80q-17.718 0-29.815-12.098-12.098-12.098-12.098-29.815v-116.174q0-17.717 12.098-29.815Q131.282-280 149-280q17.717 0 29.815 12.098 12.098 12.098 12.098 29.815v116.174q0 17.717-12.098 29.815Q166.717-80 149-80Zm163.587 0q-17.718 0-29.696-12.098-11.978-12.098-11.978-29.815v-116.174q0-17.717 11.978-29.815Q294.869-280 312.587-280q17.717 0 29.815 12.098 12.098 12.098 12.098 29.815v116.174q0 17.717-12.098 29.815Q330.304-80 312.587-80Zm163.826 0q-17.717 0-29.815-12.098-12.098-12.098-12.098-29.815v-116.174q0-17.717 12.098-29.815Q458.696-280 476.413-280t29.696 12.098q11.978 12.098 11.978 29.815v116.174q0 17.717-11.978 29.815Q494.13-80 476.413-80Zm167.174 0q-19.152 0-32.326-13.174T598.087-125.5v-109q0-19.152 13.174-32.326T643.587-280h163.826q19.152 0 32.326 13.174t13.174 32.326v109q0 19.152-13.174 32.326T807.413-80H643.587Z"/>
</svg>
