<svg aria-hidden="true" viewBox="0 -960 960 960" fill="currentColor">
  <path d="M40-320v-80q0-17 11.5-28.5T80-440h288L120-636v76q0 17-11.5 28.5T80-520q-17 0-28.5-11.5T40-560v-154q0-23 19.5-34.5T99-749l421 231v-242q0-17 11.5-28.5T560-800h123q18 0 34 7.5t27 21.5l157 189q9 11 14 24t5 27v211q0 17-11.5 28.5T880-280h-60q0 50-35 85t-85 35q-50 0-85-35t-35-85H360q0 50-35 85t-85 35q-50 0-85-35t-35-85H80q-17 0-28.5-11.5T40-320Zm243 83q17-17 17-43t-17-43q-17-17-43-17t-43 17q-17 17-17 43t17 43q17 17 43 17t43-17Zm460 0q17-17 17-43t-17-43q-17-17-43-17t-43 17q-17 17-17 43t17 43q17 17 43 17t43-17ZM600-560h216L682-720h-82v160Z"/>
</svg>
