<svg aria-hidden="true" viewBox="0 -960 960 960" fill="currentColor">
  <path d="M240-478q0 17 2.5 33t7.5 32q5 17 1 34.5T234-348q-11 11-26.5 10T186-353q-13-30-19.5-61.5T160-478q0-134 93-228t227-94h7l-36-36q-11-11-11-28t11-28q11-11 28-11t28 11l104 104q12 12 12 28t-12 28L507-628q-11 11-28 11t-28-11q-11-11-11-28t11-28l36-36h-7q-100 0-170 70.5T240-478Zm480-4q0-17-2.5-33t-7.5-32q-5-17-1-34.5t17-30.5q11-11 26.5-10t21.5 15q13 30 19.5 61.5T800-482q0 134-93 228t-227 94h-7l36 36q11 11 11 28t-11 28q-11 11-28 11t-28-11L349-172q-12-12-12-28t12-28l104-104q11-11 28-11t28 11q11 11 11 28t-11 28l-36 36h7q100 0 170-70.5T720-482Z"/>
</svg>
