<svg aria-hidden="true" viewBox="0 -960 960 960" fill="currentColor">
  <path d="m758.413-755.304-44.435-20.718q-12.913-5.956-12.913-20.75 0-14.793 12.913-20.75L758.413-838l20.478-44.435q5.957-12.913 20.75-12.913 14.794 0 20.75 12.913L840.87-838l44.434 20.478q12.914 5.957 12.914 20.75 0 14.794-12.914 20.75l-44.434 20.718-20.479 44.435q-5.956 12.913-20.75 12.913-14.793 0-20.75-12.913l-20.478-44.435ZM204-80.282 83.63-200.413q-13.674-13.674-13.674-32.826t13.674-32.826l446.718-446.239q13.674-13.435 32.587-13.435 18.913 0 32.587 13.435l120.609 119.891q13.674 13.674 13.674 32.946t-13.674 32.946L269.413-80.282q-13.674 13.434-32.706 13.434-19.033 0-32.707-13.434ZM562.935-503.11l56.478-56.478-56.478-56.239-56.239 56.239 56.239 56.478Z"/>
</svg>
