<svg aria-hidden="true" viewBox="0 -960 960 960" fill="currentColor">
  <path d="M340.5-148.5Q275-177 226-226t-77.5-114.5Q120-406 120-480q0-78 30-146t84-117q12-11 28.5-10.5T290-742l218 218q11 11 11 28t-11 28q-11 11-28 11t-28-11L264-656q-30 36-47 80.5T200-480q0 116 82 198t198 82q116 0 198-82t82-198q0-107-68.5-184.5T520-756v36q0 17-11.5 28.5T480-680q-17 0-28.5-11.5T440-720v-80q0-17 11.5-28.5T480-840q74 0 139.5 28.5T734-734q49 49 77.5 114.5T840-480q0 74-28.5 139.5T734-226q-49 49-114.5 77.5T480-120q-74 0-139.5-28.5Zm-89-303Q240-463 240-480t11.5-28.5Q263-520 280-520t28.5 11.5Q320-497 320-480t-11.5 28.5Q297-440 280-440t-28.5-11.5Zm200 200Q440-263 440-280t11.5-28.5Q463-320 480-320t28.5 11.5Q520-297 520-280t-11.5 28.5Q497-240 480-240t-28.5-11.5Zm200-200Q640-463 640-480t11.5-28.5Q663-520 680-520t28.5 11.5Q720-497 720-480t-11.5 28.5Q697-440 680-440t-28.5-11.5Z"/>
</svg>
