<svg aria-hidden="true" viewBox="0 -960 960 960" fill="currentColor">
  <path d="M574.5-774.5Q560-789 560-810t14.5-35.5Q589-860 610-860t35.5 14.5Q660-831 660-810t-14.5 35.5Q631-760 610-760t-35.5-14.5Zm0 660Q560-129 560-150t14.5-35.5Q589-200 610-200t35.5 14.5Q660-171 660-150t-14.5 35.5Q631-100 610-100t-35.5-14.5Zm160-520Q720-649 720-670t14.5-35.5Q749-720 770-720t35.5 14.5Q820-691 820-670t-14.5 35.5Q791-620 770-620t-35.5-14.5Zm0 380Q720-269 720-290t14.5-35.5Q749-340 770-340t35.5 14.5Q820-311 820-290t-14.5 35.5Q791-240 770-240t-35.5-14.5Zm60-190Q780-459 780-480t14.5-35.5Q809-530 830-530t35.5 14.5Q880-501 880-480t-14.5 35.5Q851-430 830-430t-35.5-14.5ZM184.5-750Q289-863 441-878q16-2 27.5 9.5T480-840q0 16-10.5 28T443-798q-121 14-202 104t-81 214q0 125 81 214.5T443-162q16 2 26.5 14t10.5 28q0 17-11.5 28.5T441-82Q288-97 184-210T80-480q0-157 104.5-270Zm239 326.5Q400-447 400-480q0-5 .5-10.5T403-501l-55-55q-11-11-11-28t11-28q11-11 28-11t28 11l55 55q4-1 21-3 33 0 56.5 23.5T560-480q0 33-23.5 56.5T480-400q-33 0-56.5-23.5Z"/>
</svg>
