<svg aria-hidden="true" viewBox="0 -960 960 960" fill="currentColor">
  <path d="M153.543-67.087q-19.152 0-32.326-13.174t-13.174-32.326v-353.456q0-7.957 1-15.294 1-7.337 3.478-14.293l59-171.283q11.957-36.391 46.99-51.348 35.032-14.957 69.424.239L452.739-645.5h60.804q19.153 0 32.327 13.174 13.173 13.174 13.173 32.326t-13.173 32.326Q532.696-554.5 513.543-554.5h-61.804q-9.196 0-18.391-2.239-9.196-2.239-18.153-5.717l-86.304-37.131-49.848 150.544v336.456q0 19.152-13.173 32.326-13.174 13.174-32.327 13.174h-80Zm163.827-696.5q-34.435 0-59.131-24.696-24.696-24.695-24.696-59.13t24.696-59.011Q282.935-931 317.37-931q34.434 0 59.01 24.576 24.577 24.576 24.577 59.011t-24.577 59.13q-24.576 24.696-59.01 24.696Zm85.5 587.501q-19.153 0-32.327-13.174-13.173-13.174-13.173-32.327 0-19.152 13.173-32.326 13.174-13.174 32.327-13.174h403.587q19.152 0 32.326 13.174t13.174 32.326q0 19.153-13.174 32.327t-32.326 13.174H402.87Zm385.5-131.001q-26.435 0-45.131-18.695-18.695-18.696-18.695-45.131t18.695-45.011Q761.935-434.5 788.37-434.5t45.011 18.576q18.576 18.576 18.576 45.011 0 26.435-18.576 45.131-18.576 18.695-45.011 18.695Zm-263.826 0q-37.783 0-62.479-24.934-24.695-24.935-24.695-62.479v-32.587h-36.413q-18.435 0-31.011-12.695-12.576-12.696-12.576-31.131 0-18.435 12.576-31.011t31.011-12.576h78.086q19.153 0 32.327 13.174T524.544-469v34.5h72.826v-36.413q0-18.435 12.576-31.011t31.011-12.576q18.434 0 31.01 12.576 12.577 12.576 12.577 31.011v76.413q0 37.783-24.696 62.598-24.696 24.815-62.478 24.815h-72.826Z"/>
</svg>
