<svg aria-hidden="true" viewBox="0 -960 960 960" fill="currentColor">
  <path d="M260-160q-91 0-155.5-63T40-377q0-78 47-139t123-78q25-92 100-149t170-57q117 0 198.5 81.5T760-520q69 8 114.5 59.5T920-340q0 75-52.5 127.5T740-160H520q-33 0-56.5-23.5T440-240v-208l-36 36q-11 11-28 11t-28-11q-11-11-11-28t11-28l104-104q6-6 13-8.5t15-2.5q8 0 15 2.5t13 8.5l104 104q11 11 11 28t-11 28q-11 11-28 11t-28-11l-36-36v208h220q42 0 71-29t29-71q0-42-29-71t-71-29h-60v-80q0-83-58.5-141.5T480-720q-83 0-141.5 58.5T280-520h-20q-58 0-99 41t-41 99q0 58 41 99t99 41h60q17 0 28.5 11.5T360-200q0 17-11.5 28.5T320-160h-60Zm220-280Z"/>
</svg>
