<svg aria-hidden="true" viewBox="0 -960 960 960" fill="currentColor">
  <path d="M382.5-297.5Q400-315 400-340t-17.5-42.5Q365-400 340-400t-42.5 17.5Q280-365 280-340t17.5 42.5Q315-280 340-280t42.5-17.5Zm0-280Q400-595 400-620t-17.5-42.5Q365-680 340-680t-42.5 17.5Q280-645 280-620t17.5 42.5Q315-560 340-560t42.5-17.5Zm280 280Q680-315 680-340t-17.5-42.5Q645-400 620-400t-42.5 17.5Q560-365 560-340t17.5 42.5Q595-280 620-280t42.5-17.5Zm0-280Q680-595 680-620t-17.5-42.5Q645-680 620-680t-42.5 17.5Q560-645 560-620t17.5 42.5Q595-560 620-560t42.5-17.5ZM200-120q-33 0-56.5-23.5T120-200v-560q0-33 23.5-56.5T200-840h560q33 0 56.5 23.5T840-760v560q0 33-23.5 56.5T760-120H200Zm0-80h560v-560H200v560Zm0-560v560-560Z"/>
</svg>
