<svg aria-hidden="true" viewBox="0 -960 960 960" fill="currentColor">
  <path d="M640-560q17 0 28.5-11.5T680-600q0-17-11.5-28.5T640-640H520q-17 0-28.5 11.5T480-600q0 17 11.5 28.5T520-560h120Zm0 240q17 0 28.5-11.5T680-360q0-17-11.5-28.5T640-400H520q-17 0-28.5 11.5T480-360q0 17 11.5 28.5T520-320h120ZM416.5-543.5Q440-567 440-600t-23.5-56.5Q393-680 360-680t-56.5 23.5Q280-633 280-600t23.5 56.5Q327-520 360-520t56.5-23.5Zm0 240Q440-327 440-360t-23.5-56.5Q393-440 360-440t-56.5 23.5Q280-393 280-360t23.5 56.5Q327-280 360-280t56.5-23.5ZM200-120q-33 0-56.5-23.5T120-200v-560q0-33 23.5-56.5T200-840h560q33 0 56.5 23.5T840-760v560q0 33-23.5 56.5T760-120H200Z"/>
</svg>
