<svg aria-hidden="true" viewBox="0 -960 960 960" fill="currentColor">
  <path d="M240-154.5q-35.152 0-59.967-24.815-24.816-24.815-24.816-59.968v-281.434q0-35.153 24.816-59.968Q204.848-605.5 240-605.5t59.967 24.815q24.816 24.815 24.816 59.968v281.434q0 35.153-24.816 59.968Q275.152-154.5 240-154.5Zm240 0q-35.152 0-59.967-24.815-24.816-24.815-24.816-59.968v-481.434q0-35.153 24.816-59.968Q444.848-805.5 480-805.5t59.967 24.815q24.816 24.815 24.816 59.968v481.434q0 35.153-24.816 59.968Q515.152-154.5 480-154.5Zm240 0q-35.152 0-59.967-24.815-24.816-24.815-24.816-59.968v-121.434q0-35.153 24.816-59.968Q684.848-445.5 720-445.5t59.967 24.815q24.816 24.815 24.816 59.968v121.434q0 35.153-24.816 59.968Q755.152-154.5 720-154.5Z"/>
</svg>
