<svg aria-hidden="true" viewBox="0 -960 960 960" fill="currentColor">
  <path d="M120-120q-17 0-28.5-11.5T80-160q0-17 11.5-28.5T120-200h720q17 0 28.5 11.5T880-160q0 17-11.5 28.5T840-120H120Zm17.5-137.5Q120-275 120-300v-160q0-25 17.5-42.5T180-520q25 0 42.5 17.5T240-460v160q0 25-17.5 42.5T180-240q-25 0-42.5-17.5Zm200 0Q320-275 320-300v-360q0-25 17.5-42.5T380-720q25 0 42.5 17.5T440-660v360q0 25-17.5 42.5T380-240q-25 0-42.5-17.5Zm200 0Q520-275 520-300v-240q0-25 17.5-42.5T580-600q25 0 42.5 17.5T640-540v240q0 25-17.5 42.5T580-240q-25 0-42.5-17.5Zm200 0Q720-275 720-300v-480q0-25 17.5-42.5T780-840q25 0 42.5 17.5T840-780v480q0 25-17.5 42.5T780-240q-25 0-42.5-17.5Z"/>
</svg>
