<svg aria-hidden="true" viewBox="0 -960 960 960" fill="currentColor">
  <path d="M228.5-131.5Q217-120 200-120H80q-17 0-28.5-11.5T40-160v-120q0-17 11.5-28.5T80-320q17 0 28.5 11.5T120-280v80h80q17 0 28.5 11.5T240-160q0 17-11.5 28.5Zm680-177Q920-297 920-280v120q0 17-11.5 28.5T880-120H760q-17 0-28.5-11.5T720-160q0-17 11.5-28.5T760-200h80v-80q0-17 11.5-28.5T880-320q17 0 28.5 11.5ZM180-240q-8 0-14-6t-6-14v-440q0-8 6-14t14-6h40q8 0 14 6t6 14v440q0 8-6 14t-14 6h-40Zm106-6q-6-6-6-14v-440q0-8 6-14t14-6q8 0 14 6t6 14v440q0 8-6 14t-14 6q-8 0-14-6Zm134 6q-8 0-14-6t-6-14v-440q0-8 6-14t14-6h40q8 0 14 6t6 14v440q0 8-6 14t-14 6h-40Zm120 0q-8 0-14-6t-6-14v-440q0-8 6-14t14-6h80q8 0 14 6t6 14v440q0 8-6 14t-14 6h-80Zm146-6q-6-6-6-14v-440q0-8 6-14t14-6q8 0 14 6t6 14v440q0 8-6 14t-14 6q-8 0-14-6Zm80 0q-6-6-6-14v-440q0-8 6-14t14-6q8 0 14 6t6 14v440q0 8-6 14t-14 6q-8 0-14-6ZM228.5-771.5Q217-760 200-760h-80v80q0 17-11.5 28.5T80-640q-17 0-28.5-11.5T40-680v-120q0-17 11.5-28.5T80-840h120q17 0 28.5 11.5T240-800q0 17-11.5 28.5Zm503-57Q743-840 760-840h120q17 0 28.5 11.5T920-800v120q0 17-11.5 28.5T880-640q-17 0-28.5-11.5T840-680v-80h-80q-17 0-28.5-11.5T720-800q0-17 11.5-28.5Z"/>
</svg>
