<svg aria-hidden="true" viewBox="0 -960 960 960" fill="currentColor">
  <path d="M191.5-651.5Q180-663 180-680t11.5-28.5Q203-720 220-720t28.5 11.5Q260-697 260-680t-11.5 28.5Q237-640 220-640t-28.5-11.5ZM400-80q-66 0-113-47t-47-113v-240q0-100 70-170t170-70h73q69 0 118 46.5T720-559q0 46-24.5 84.5T629-416q-32 15-50.5 44.5T560-307v67q0 67-46.5 113.5T400-80ZM291.5-731.5Q280-743 280-760v-20q0-17 11.5-28.5T320-820q17 0 28.5 11.5T360-780v20q0 17-11.5 28.5T320-720q-17 0-28.5-11.5Zm165 548Q480-207 480-240v-67q0-58 30.5-107t83.5-74q21-10 33.5-29.5T640-560q0-35-26-57.5T553-640h-73q-66 0-113 47t-47 113v240q0 33 23.5 56.5T400-160q33 0 56.5-23.5Zm-45-588Q400-783 400-800v-20q0-17 11.5-28.5T440-860q17 0 28.5 11.5T480-820v20q0 17-11.5 28.5T440-760q-17 0-28.5-11.5Zm120 0Q520-783 520-800v-40q0-17 11.5-28.5T560-880q17 0 28.5 11.5T600-840v40q0 17-11.5 28.5T560-760q-17 0-28.5-11.5Zm126 34Q640-755 640-780v-40q0-25 17.5-42.5T700-880q25 0 42.5 17.5T760-820v40q0 25-17.5 42.5T700-720q-25 0-42.5-17.5ZM400-480Z"/>
</svg>
