<svg aria-hidden="true" viewBox="0 -960 960 960" fill="currentColor">
  <path d="M277.37-614.587q-34.196 0-58.533-24.457Q194.5-663.5 194.5-697.696t24.337-58.533q24.337-24.337 58.533-24.337 34.195 0 58.652 24.337 24.456 24.337 24.456 58.533t-24.456 58.652q-24.457 24.457-58.652 24.457ZM203.587-65.413q-17 0-30.293-13.293Q160-92 160-109q-37.783 0-64.391-26.609-26.61-26.608-26.61-64.391v-205.5q0-19.152 13.175-32.326Q95.348-451 114.5-451h80v-28.087q0-40.152 27.674-67.826 27.674-27.674 67.826-27.674 21.913 0 40.826 8.956 18.913 8.957 34.109 24.631l56 62q8 8 15.5 15t16.5 13H720v-318.587q0-14-10-24t-24-10q-5.761 0-11.261 2.38-5.5 2.381-10.261 7.142l-46.413 46.413q5.718 19.391.565 38.043-5.152 18.652-16.782 34.326L482.282-796.848q15.435-11.631 33.707-16.402 18.272-4.772 36.663 2.184l50-50q16.478-16.478 38.054-25 21.577-8.521 45.294-8.521 52.304 0 88.652 36.348T811-769.587V-451h34.5q19.152 0 32.326 13.174T891-405.5V-200q0 37.783-26.609 64.391Q837.783-109 800-109q0 17-13.294 30.294-13.293 13.293-30.293 13.293H203.587Z"/>
</svg>
