<svg aria-hidden="true" viewBox="0 -960 960 960" fill="currentColor">
  <path d="M279-716q-21-25-29.5-51t-8.5-64q0-23 10.5-36t29.5-13q18 0 28.5 13t10.5 36q0 22 7 39t23 36q22 26 31 52.5t9 62.5q0 19-10.5 30T350-600q-17 0-27.5-11T312-641q0-20-7-36t-26-39Zm160 0q-21-25-29.5-51t-8.5-64q0-23 10.5-36t29.5-13q18 0 28.5 13t10.5 36q0 22 7 39t23 36q22 26 31 52.5t9 62.5q0 19-10.5 30T510-600q-17 0-27.5-11T472-641q0-20-7-36t-26-39Zm162 0q-21-25-29.5-51t-8.5-64q0-23 10.5-36t29.5-13q18 0 28.5 13t10.5 36q0 22 7 39t23 36q22 26 31 52.5t9 62.5q0 19-10.5 30T672-600q-17 0-27.5-11T634-641q0-20-7-36t-26-39ZM400-240q-17 0-28.5-11.5T360-280v-160q0-33 23.5-56.5T440-520h280q66 0 113 47t47 113v80q0 17-11.5 28.5T840-240H400Zm40-200v120-120Zm400 320H120q-17 0-28.5-11.5T80-160q0-17 11.5-28.5T120-200h720q17 0 28.5 11.5T880-160q0 17-11.5 28.5T840-120ZM115-275q-35-35-35-85t35-85q35-35 85-35t85 35q35 35 35 85t-35 85q-35 35-85 35t-85-35Zm113.5-56.5Q240-343 240-360t-11.5-28.5Q217-400 200-400t-28.5 11.5Q160-377 160-360t11.5 28.5Q183-320 200-320t28.5-11.5ZM440-320h360v-40q0-33-23.5-56.5T720-440H440v120Zm-240-40Z"/>
</svg>
