<svg aria-hidden="true" viewBox="0 -960 960 960" fill="currentColor">
  <path d="M160-240q-50 0-85-35t-35-85v-240q0-50 35-85t85-35h311q20 0 30 12.5t10 27.5q0 15-10.5 27.5T470-640H160q-17 0-28.5 11.5T120-600v240q0 17 11.5 28.5T160-320h364q17 0 28.5 11.5T564-280q0 17-11.5 28.5T524-240H160Zm-40-80v-320 320Zm604 32q-8-2-15-6-64-35-103.5-111.5T561-577q-1-10 5.5-17.5T583-604q31-7 64-22t70-38q11-7 23-7t23 7q37 24 70.5 38.5T898-604q10 2 15.5 9.5T919-577q-5 95-45.5 171.5T770-294q-7 4-14.5 6t-15.5 2q-8 0-16-2Zm16-81q35-23 60-68t35-102q-23-8-46.5-19.5T740-585v216Z"/>
</svg>
