<svg aria-hidden="true" viewBox="0 -960 960 960" fill="currentColor">
  <path d="M811.5-311.5Q800-323 800-340t11.5-28.5Q823-380 840-380t28.5 11.5Q880-357 880-340t-11.5 28.5Q857-300 840-300t-28.5-11.5Zm0-140Q800-463 800-480v-160q0-17 11.5-28.5T840-680q17 0 28.5 11.5T880-640v160q0 17-11.5 28.5T840-440q-17 0-28.5-11.5ZM160-240q-50 0-85-35t-35-85v-240q0-50 35-85t85-35h520q17 0 28.5 11.5T720-680q0 17-11.5 28.5T680-640H160q-17 0-28.5 11.5T120-600v240q0 17 11.5 28.5T160-320h520q17 0 28.5 11.5T720-280q0 17-11.5 28.5T680-240H160Zm-40-80v-320 320Z"/>
</svg>
