<svg aria-hidden="true" viewBox="0 -960 960 960" fill="currentColor">
  <path d="M360-160Zm-40 80q-17 0-28.5-11.5T280-120v-640q0-17 11.5-28.5T320-800h80v-40q0-17 11.5-28.5T440-880h80q17 0 28.5 11.5T560-840v40h80q17 0 28.5 11.5T680-760v280q-21 0-41 3.5T600-466v-254H360v560h94q8 23 19.5 43T501-80H320Zm320-120h-80q-17 0-28.5-11.5T520-240q0-17 11.5-28.5T560-280h80v-80q0-17 11.5-28.5T680-400q17 0 28.5 11.5T720-360v80h80q17 0 28.5 11.5T840-240q0 17-11.5 28.5T800-200h-80v80q0 17-11.5 28.5T680-80q-17 0-28.5-11.5T640-120v-80Z"/>
</svg>
