<svg aria-hidden="true" viewBox="0 -960 960 960" fill="currentColor">
  <path d="M280-120v-640q0-17 11.5-28.5T320-800h80v-40q0-17 11.5-28.5T440-880h80q17 0 28.5 11.5T560-840v40h80q17 0 28.5 11.5T680-760v280q-8 0-16 .5t-16 1.5q-88 12-148 79t-60 159q0 45 16 86t45 74H320q-17 0-28.5-11.5T280-120Zm360-80h-80q-17 0-28.5-11.5T520-240q0-17 11.5-28.5T560-280h80v-80q0-17 11.5-28.5T680-400q17 0 28.5 11.5T720-360v80h80q17 0 28.5 11.5T840-240q0 17-11.5 28.5T800-200h-80v80q0 17-11.5 28.5T680-80q-17 0-28.5-11.5T640-120v-80Z"/>
</svg>
