<svg aria-hidden="true" viewBox="0 -960 960 960" fill="currentColor">
  <path d="M640-200h-80q-17 0-28.5-11.5T520-240q0-17 11.5-28.5T560-280h80v-80q0-17 11.5-28.5T680-400q17 0 28.5 11.5T720-360v80h80q17 0 28.5 11.5T840-240q0 17-11.5 28.5T800-200h-80v80q0 17-11.5 28.5T680-80q-17 0-28.5-11.5T640-120v-80ZM320-80q-17 0-28.5-11.5T280-120v-640q0-17 11.5-28.5T320-800h80v-40q0-17 11.5-28.5T440-880h80q17 0 28.5 11.5T560-840v40h80q17 0 28.5 11.5T680-760v280q-100 1-170 70.5T440-240q0 46 16 87t45 73H320Z"/>
</svg>
