<svg aria-hidden="true" viewBox="0 -960 960 960" fill="currentColor">
  <path d="M120-320v-320 320Zm40 80q-50 0-85-35t-35-85v-240q0-50 35-85t85-35h440q17 0 28.5 11.5T640-680q0 17-11.5 28.5T600-640H160q-17 0-28.5 11.5T120-600v240q0 17 11.5 28.5T160-320h440q17 0 28.5 11.5T640-280q0 17-11.5 28.5T600-240H160Zm560-200h-80q-17 0-28.5-11.5T600-480q0-17 11.5-28.5T640-520h80v-80q0-17 11.5-28.5T760-640q17 0 28.5 11.5T800-600v80h80q17 0 28.5 11.5T920-480q0 17-11.5 28.5T880-440h-80v80q0 17-11.5 28.5T760-320q-17 0-28.5-11.5T720-360v-80Z"/>
</svg>
