<svg aria-hidden="true" viewBox="0 -960 960 960" fill="currentColor">
  <path d="M320-80q-17 0-28.5-11.5T280-120v-640q0-17 11.5-28.5T320-800h80v-40q0-17 11.5-28.5T440-880h80q17 0 28.5 11.5T560-840v40h80q17 0 28.5 11.5T680-760v308q-22 6-42 15.5T600-414v-306H360v560h148q5 22 14.5 42T545-80H320Zm40-80Zm380-3-56 55q-11 11-27.5 11.5T628-108q-11-11-11-28t11-28l56-56-56-56q-11-11-11-28t11-28q11-11 28-11t28 11l56 56 56-56q11-11 27.5-11.5T852-332q11 11 11 28t-11 28l-55 56 55 56q11 11 11.5 27.5T852-108q-11 11-28 11t-28-11l-56-55Z"/>
</svg>
