<svg aria-hidden="true" viewBox="0 -960 960 960" fill="currentColor">
  <path d="M756-148 530-374l56-56 226 226q11 11 11 28t-11 28q-11 11-28 11t-28-11Zm-575-72q-31-50-46-104.5T120-436q0-78 29-152t89-134q60-60 134.5-89.5T525-841q57 0 111.5 15.5T740-779q31 20 33 57t-26 65L303-213q-28 28-65.5 26T181-220Zm65-50 54-54q-16-21-30.5-43T243-411q-12-22-21-44t-16-43q-11 59-1.5 118T246-270Zm112-110 222-224q-43-33-86.5-53.5t-81.5-28q-38-7.5-68.5-2.5T296-666q-17 18-22 48.5t2.5 69q7.5 38.5 28 81.5t53.5 87Zm334-334q-53-32-112-42t-118 2q22 7 44 16t44 20.5q22 11.5 43.5 26T636-660l56-54Z"/>
</svg>
