<svg aria-hidden="true" viewBox="0 -960 960 960" fill="currentColor">
  <path d="m755.761-142.022-226-226 63.652-64.13 226.239 226.239q12.674 12.674 12.674 31.826t-12.674 31.826q-12.674 12.913-31.826 13.033-19.152.119-32.065-12.794Zm-583.174-75.065q-64.066-99.696-66.609-215.011-2.543-115.315 56.913-214.424-.348 36.63 14.728 82.598 15.077 45.967 41.968 95.956 26.891 49.99 63.283 101.283 36.391 51.294 76.913 98.576l-57.261 57.261q-29.674 29.674-69.326 28.055-39.653-1.62-60.609-34.294Zm242.196-106.022q-49.913-50.152-87.707-107.728-37.793-57.576-59.609-110.935-21.815-53.359-25.152-96.619-3.337-43.261 17.185-63.783 20.522-21.283 63.304-18.446 42.783 2.837 96.283 24.533t111.315 59.989q57.815 38.294 108.924 88.446L414.783-323.109Zm335.804-335.804-56.022 56.022q-46.522-40.522-97.935-75.913-51.413-35.392-101.141-62.663-49.728-27.272-95.815-42.729-46.087-15.456-82.718-15.108 98.348-56.414 213.283-53.37 114.935 3.043 213.109 64.826 32.674 20.957 34.793 60.109 2.12 39.152-27.554 68.826Z"/>
</svg>
