<svg aria-hidden="true" viewBox="0 -960 960 960" fill="currentColor">
  <path d="M448.739-630.957 258.565-821.891q39.718-26.24 79.892-40.24 40.173-14 83.608-19.76 31.631-4.24 45.707 15.673 14.076 19.914 2.119 54.305-16.239 45.478-21.576 91.196-5.337 45.717.424 89.76ZM773.522-74.913l-66.826-67.065q-48.239 33.435-105.631 52.13-57.391 18.696-121.782 18.696-85.392 0-160.066-31.859-74.674-31.858-129.63-86.934-54.957-55.077-86.815-129.751Q70.912-394.37 70.912-480q0-62.913 17.838-120.087 17.837-57.174 51.75-107.326l-65.587-66.109q-11.718-11.717-11.718-28.935 0-17.217 11.718-29.695 12.478-12.479 29.696-12.479 17.217 0 29.695 12.479l698.609 698.609q12.479 12.478 12.098 29.315-.38 16.837-12.859 29.315-12.478 11.718-29.315 12.098-16.837.38-29.315-12.098Z"/>
</svg>
