<svg aria-hidden="true" viewBox="0 -960 960 960" fill="currentColor">
  <path d="M793.522-221.717q-57.631 70.5-138.761 110.532-81.131 40.033-175.478 40.033-85.392 0-160.066-31.978-74.674-31.979-129.63-87.055-54.957-55.076-86.815-129.75Q70.912-394.609 70.912-480q0-154.891 97.523-266.772 97.522-111.88 255.152-135.641 31.631-5 45.326 15.174 13.696 20.174 1.739 53.043-30.717 85.913-22.793 170.696 7.924 84.783 47.326 155.348 39.402 70.565 107.141 121.271 67.739 50.707 156.652 69.468 34.87 7.239 44.805 29.272 9.935 22.032-10.261 46.424Z"/>
</svg>
