<svg aria-hidden="true" viewBox="0 -960 960 960" fill="currentColor">
  <path d="M157.5-437.5Q140-455 140-480t17.5-42.5Q175-540 200-540t42.5 17.5Q260-505 260-480t-17.5 42.5Q225-420 200-420t-42.5-17.5Zm560 0Q700-455 700-480t17.5-42.5Q735-540 760-540t42.5 17.5Q820-505 820-480t-17.5 42.5Q785-420 760-420t-42.5-17.5ZM440-137v-247L284-228q-11 11-28 11t-28-11q-11-11-11-28t11-28l196-196-196-196q-11-11-11-28t11-28q11-11 28-11t28 11l156 156v-247q0-18 12-29.5t28-11.5q8 0 15 3t13 9l172 172q6 6 8.5 13t2.5 15q0 8-2.5 15t-8.5 13L536-480l144 144q6 6 8.5 13t2.5 15q0 8-2.5 15t-8.5 13L508-108q-6 6-13 9t-15 3q-16 0-28-11.5T440-137Zm80-439 76-76-76-74v150Zm0 342 76-74-76-76v150Z"/>
</svg>
