<svg aria-hidden="true" viewBox="0 -960 960 960" fill="currentColor">
  <path d="M764-84 84-764q-11-11-11-28t11-28q11-11 28-11t28 11l680 680q11 11 11 28t-11 28q-11 11-28 11t-28-11Zm-378-22q-6-6-6-14t6-14q6-6 14-6t14 6q6 6 6 14t-6 14q-6 6-14 6t-14-6Zm160 0q-6-6-6-14t6-14q6-6 14-6t14 6q6 6 6 14t-6 14q-6 6-14 6t-14-6ZM211.5-211.5Q200-223 200-240t11.5-28.5Q223-280 240-280t28.5 11.5Q280-257 280-240t-11.5 28.5Q257-200 240-200t-28.5-11.5Zm160 0Q360-223 360-240t11.5-28.5Q383-280 400-280t28.5 11.5Q440-257 440-240t-11.5 28.5Q417-200 400-200t-28.5-11.5Zm160 0Q520-223 520-240t11.5-28.5Q543-280 560-280t28.5 11.5Q600-257 600-240t-11.5 28.5Q577-200 560-200t-28.5-11.5ZM357-357q-17-17-17-43t17-43q17-17 43-17t43 17q17 17 17 43t-17 43q-17 17-43 17t-43-17Zm-145.5-14.5Q200-383 200-400t11.5-28.5Q223-440 240-440t28.5 11.5Q280-417 280-400t-11.5 28.5Q257-360 240-360t-28.5-11.5ZM712-361l-31-31q-4-20 8.5-34t30.5-14q17 0 28.5 11.5T760-400q0 18-14 30.5t-34 8.5Zm-606-25q-6-6-6-14t6-14q6-6 14-6t14 6q6 6 6 14t-6 14q-6 6-14 6t-14-6Zm720 0q-6-6-6-14t6-14q6-6 14-6t14 6q6 6 6 14t-6 14q-6 6-14 6t-14-6ZM572-502l-70-70q5-21 20-34.5t38-13.5q26 0 43 17t17 43q0 23-14 38.5T572-502Zm-360.5-29.5Q200-543 200-560t11.5-28.5Q223-600 240-600t28.5 11.5Q280-577 280-560t-11.5 28.5Q257-520 240-520t-28.5-11.5Zm480 0Q680-543 680-560t11.5-28.5Q703-600 720-600t28.5 11.5Q760-577 760-560t-11.5 28.5Q737-520 720-520t-28.5-11.5ZM106-546q-6-6-6-14t6-14q6-6 14-6t14 6q6 6 6 14t-6 14q-6 6-14 6t-14-6Zm720 0q-6-6-6-14t6-14q6-6 14-6t14 6q6 6 6 14t-6 14q-6 6-14 6t-14-6ZM531.5-691.5Q520-703 520-720t11.5-28.5Q543-760 560-760t28.5 11.5Q600-737 600-720t-11.5 28.5Q577-680 560-680t-28.5-11.5ZM393-681l-32-32q-3-20 9-33.5t30-13.5q17 0 28.5 11.5T440-720q0 18-13.5 30t-33.5 9Zm298.5-10.5Q680-703 680-720t11.5-28.5Q703-760 720-760t28.5 11.5Q760-737 760-720t-11.5 28.5Q737-680 720-680t-28.5-11.5ZM386-826q-6-6-6-14t6-14q6-6 14-6t14 6q6 6 6 14t-6 14q-6 6-14 6t-14-6Zm160 0q-6-6-6-14t6-14q6-6 14-6t14 6q6 6 6 14t-6 14q-6 6-14 6t-14-6Z"/>
</svg>
