<svg aria-hidden="true" viewBox="0 -960 960 960" fill="currentColor">
  <path d="M428.5-531.5Q440-543 440-560t-11.5-28.5Q417-600 400-600t-28.5 11.5Q360-577 360-560t11.5 28.5Q383-520 400-520t28.5-11.5Zm0 160Q440-383 440-400t-11.5-28.5Q417-440 400-440t-28.5 11.5Q360-417 360-400t11.5 28.5Q383-360 400-360t28.5-11.5ZM294-546q6-6 6-14t-6-14q-6-6-14-6t-14 6q-6 6-6 14t6 14q6 6 14 6t14-6Zm106 286q8 0 14-6t6-14q0-8-6-14t-14-6q-8 0-14 6t-6 14q0 8 6 14t14 6ZM294-386q6-6 6-14t-6-14q-6-6-14-6t-14 6q-6 6-6 14t6 14q6 6 14 6t14-6Zm120-280q6-6 6-14t-6-14q-6-6-14-6t-14 6q-6 6-6 14t6 14q6 6 14 6t14-6Zm174.5 134.5Q600-543 600-560t-11.5-28.5Q577-600 560-600t-28.5 11.5Q520-577 520-560t11.5 28.5Q543-520 560-520t28.5-11.5ZM574-666q6-6 6-14t-6-14q-6-6-14-6t-14 6q-6 6-6 14t6 14q6 6 14 6t14-6Zm120 280q6-6 6-14t-6-14q-6-6-14-6t-14 6q-6 6-6 14t6 14q6 6 14 6t14-6Zm0-160q6-6 6-14t-6-14q-6-6-14-6t-14 6q-6 6-6 14t6 14q6 6 14 6t14-6ZM324-111.5Q251-143 197-197t-85.5-127Q80-397 80-480t31.5-156Q143-709 197-763t127-85.5Q397-880 480-880t156 31.5Q709-817 763-763t85.5 127Q880-563 880-480t-31.5 156Q817-251 763-197t-127 85.5Q563-80 480-80t-156-31.5ZM480-160q134 0 227-93t93-227q0-134-93-227t-227-93q-134 0-227 93t-93 227q0 134 93 227t227 93Zm94-106q6-6 6-14t-6-14q-6-6-14-6t-14 6q-6 6-6 14t6 14q6 6 14 6t14-6Zm14.5-105.5Q600-383 600-400t-11.5-28.5Q577-440 560-440t-28.5 11.5Q520-417 520-400t11.5 28.5Q543-360 560-360t28.5-11.5ZM480-480Z"/>
</svg>
