<svg aria-hidden="true" viewBox="0 -960 960 960" fill="currentColor">
  <path d="M830-515.5Q880-471 880-400v160q0 33-23.5 56.5T800-160l46 46q10 10 5 22t-19 12H568q-14 0-19-12t5-22l46-46q-33 0-56.5-23.5T520-240v-160q0-71 50-115.5T700-560q80 0 130 44.5ZM721-249q9-9 9-21t-9-21q-9-9-21-9t-21 9q-9 9-9 21t9 21q9 9 21 9t21-9ZM580-360h240v-40q0-11-2-21t-6-19H588q-4 9-6 19t-2 21v40ZM420-880h120q17 0 28.5 11.5T580-840v40h100q33 0 56.5 23.5T760-720v41q0 17-11.5 28.5T720-639q-17 0-28.5-11.5T680-679v-41H280v113l190-50q16-5 30 4t19 25q5 16-4 30t-25 19l-288 75 46 149q11-10 22.5-19.5T293-395l11-11q12-13 28.5-12.5T361-405q14 16 31 33t36 33q10 8 11 25t-10 29q-11 11-25 12t-27-6q-11-6-25-19t-22-22q-19 18-40.5 32.5T245-262q-18 8-36 1t-23-25l-73-234q-5-17 3-31t25-19l59-16v-134q0-33 23.5-56.5T280-800h100v-40q0-17 11.5-28.5T420-880ZM161-81q-17 1-29-11t-12-29q0-17 11-28.5t28-11.5q48-2 84.5-10t79.5-26q8-3 16-4.5t15 3.5q9 5 23 12t22 10q16 5 21.5 19.5T420-126q-5 15-19.5 22t-30.5 2q-11-5-17.5-7.5T338-116q-41 17-83 25t-94 10Zm329-498Z"/>
</svg>
