<svg aria-hidden="true" viewBox="0 -960 960 960" fill="currentColor">
  <path d="m731.043-373.022 47.305 47.066-148.783 147.799v40.309h40.318L818.674-285.63l46.304 46.304L723.631-98.217q-12.674 12.434-29.178 19.391-16.503 6.957-34.714 6.957h-50.652q-19.152 0-32.326-13.174t-13.174-32.327v-50.652q0-18.21 6.837-34.714 6.837-16.503 19.511-29.177l141.108-141.109Zm133.935 133.696L731.043-373.022l58.24-58.239q12.913-12.913 32.065-12.913 19.152 0 31.826 12.913l69.804 69.805q12.913 12.674 12.913 31.826t-12.913 32.065l-58 58.239ZM162.87-151.869q-37.783 0-64.392-26.609Q71.87-205.087 71.87-242.87v-474.26q0-37.783 26.61-64.392 26.608-26.609 64.391-26.609H358.87q18.211 0 34.714 6.837 16.504 6.837 29.178 19.511L480-724.544h317.13q37.783 0 64.392 26.609 26.609 26.609 26.609 64.392v70.608q0 19.236-13.174 32.248-13.174 13.013-32.327 13.013-19.152 0-32.326-13.174t-13.174-32.326v-70.369H442.456l-83.587-83.587H162.87v474.26h275.217q19.152 0 32.326 13.174t13.174 32.326q0 19.153-13.174 32.327t-32.326 13.174H162.87Zm0-336.044v289.674-518.891 229.217Z"/>
</svg>
