<svg aria-hidden="true" viewBox="0 -960 960 960" fill="currentColor">
  <path d="M451.5-611.5Q440-623 440-640t11.5-28.5Q463-680 480-680t28.5 11.5Q520-657 520-640t-11.5 28.5Q497-600 480-600t-28.5-11.5Zm-160 160Q280-463 280-480t11.5-28.5Q303-520 320-520t28.5 11.5Q360-497 360-480t-11.5 28.5Q337-440 320-440t-28.5-11.5Zm160 0Q440-463 440-480t11.5-28.5Q463-520 480-520t28.5 11.5Q520-497 520-480t-11.5 28.5Q497-440 480-440t-28.5-11.5Zm160 0Q600-463 600-480t11.5-28.5Q623-520 640-520t28.5 11.5Q680-497 680-480t-11.5 28.5Q657-440 640-440t-28.5-11.5Zm-160 160Q440-303 440-320t11.5-28.5Q463-360 480-360t28.5 11.5Q520-337 520-320t-11.5 28.5Q497-280 480-280t-28.5-11.5Zm-160-480Q280-783 280-800t11.5-28.5Q303-840 320-840t28.5 11.5Q360-817 360-800t-11.5 28.5Q337-760 320-760t-28.5-11.5Zm160 0Q440-783 440-800t11.5-28.5Q463-840 480-840t28.5 11.5Q520-817 520-800t-11.5 28.5Q497-760 480-760t-28.5-11.5Zm160 0Q600-783 600-800t11.5-28.5Q623-840 640-840t28.5 11.5Q680-817 680-800t-11.5 28.5Q657-760 640-760t-28.5-11.5Zm160 0Q760-783 760-800t11.5-28.5Q783-840 800-840t28.5 11.5Q840-817 840-800t-11.5 28.5Q817-760 800-760t-28.5-11.5Zm0 160Q760-623 760-640t11.5-28.5Q783-680 800-680t28.5 11.5Q840-657 840-640t-11.5 28.5Q817-600 800-600t-28.5-11.5Zm0 160Q760-463 760-480t11.5-28.5Q783-520 800-520t28.5 11.5Q840-497 840-480t-11.5 28.5Q817-440 800-440t-28.5-11.5Zm0 160Q760-303 760-320t11.5-28.5Q783-360 800-360t28.5 11.5Q840-337 840-320t-11.5 28.5Q817-280 800-280t-28.5-11.5Zm-480 160Q280-143 280-160t11.5-28.5Q303-200 320-200t28.5 11.5Q360-177 360-160t-11.5 28.5Q337-120 320-120t-28.5-11.5Zm160 0Q440-143 440-160t11.5-28.5Q463-200 480-200t28.5 11.5Q520-177 520-160t-11.5 28.5Q497-120 480-120t-28.5-11.5Zm160 0Q600-143 600-160t11.5-28.5Q623-200 640-200t28.5 11.5Q680-177 680-160t-11.5 28.5Q657-120 640-120t-28.5-11.5Zm160 0Q760-143 760-160t11.5-28.5Q783-200 800-200t28.5 11.5Q840-177 840-160t-11.5 28.5Q817-120 800-120t-28.5-11.5ZM120-160v-640q0-17 11.5-28.5T160-840q17 0 28.5 11.5T200-800v640q0 17-11.5 28.5T160-120q-17 0-28.5-11.5T120-160Z"/>
</svg>
