<svg aria-hidden="true" viewBox="0 -960 960 960" fill="currentColor">
  <path d="M163.587 0q-34.435 0-59.011-24.576T80-83.587q0-34.435 24.576-59.131 24.576-24.695 59.011-24.695h632.826q34.435 0 59.011 24.695Q880-118.022 880-83.587t-24.576 59.01Q830.848 0 796.413 0H163.587Zm38.326-247.413q-19.152 0-32.326-13.174t-13.174-32.326v-90.37q0-9.196 3.359-17.532 3.358-8.337 10.315-15.294l350.717-350.957 155.261 155.261-350.956 350.718q-6.957 6.956-15.294 10.315-8.337 3.359-17.532 3.359h-90.37Zm515.804-405.522L562.696-808.196l73.674-73.674q12.195-13.196 30.63-12.815 18.435.38 30.63 12.815l94 94q12.196 12.196 12.196 30.011 0 17.815-12.196 31.011l-73.913 73.913Z"/>
</svg>
