<svg aria-hidden="true" viewBox="0 -960 960 960" fill="currentColor">
  <path d="M111.869-155.456V-757.13q0-37.783 26.609-64.392 26.609-26.609 64.392-26.609h601.674q18.524 0 31.055 12.532 12.532 12.531 12.532 31.055 0 18.525-12.532 31.056-12.531 12.531-31.055 12.531H199.043v605.501q0 18.524-12.531 31.055-12.531 12.532-31.056 12.532-18.524 0-31.055-12.532-12.532-12.531-12.532-31.055Zm692.675-443.348q-18.525 0-31.056-12.532-12.531-12.531-12.531-31.055 0-18.525 12.531-31.056 12.531-12.531 31.056-12.531 18.524 0 31.055 12.531 12.532 12.531 12.532 31.056 0 18.524-12.532 31.055-12.531 12.532-31.055 12.532Zm0 162.391q-18.525 0-31.056-12.531-12.531-12.532-12.531-31.056t12.531-31.056q12.531-12.531 31.056-12.531 18.524 0 31.055 12.531 12.532 12.532 12.532 31.056t-12.532 31.056q-12.531 12.531-31.055 12.531Zm0 162.152q-18.525 0-31.056-12.531-12.531-12.531-12.531-31.056 0-18.524 12.531-31.056 12.531-12.531 31.056-12.531 18.524 0 31.055 12.531 12.532 12.532 12.532 31.056 0 18.525-12.532 31.056-12.531 12.531-31.055 12.531ZM317.848-111.869q-18.525 0-31.056-12.532-12.531-12.531-12.531-31.055 0-18.525 12.531-31.056 12.531-12.531 31.056-12.531 18.524 0 31.056 12.531 12.531 12.531 12.531 31.056 0 18.524-12.531 31.055-12.532 12.532-31.056 12.532Zm162.152 0q-18.524 0-31.056-12.532-12.531-12.531-12.531-31.055 0-18.525 12.531-31.056 12.532-12.531 31.056-12.531t31.056 12.531q12.531 12.531 12.531 31.056 0 18.524-12.531 31.055-12.532 12.532-31.056 12.532Zm162.391 0q-18.524 0-31.055-12.532-12.532-12.531-12.532-31.055 0-18.525 12.532-31.056 12.531-12.531 31.055-12.531 18.525 0 31.056 12.531 12.531 12.531 12.531 31.056 0 18.524-12.531 31.055-12.531 12.532-31.056 12.532Zm162.153 0q-18.525 0-31.056-12.532-12.531-12.531-12.531-31.055 0-18.525 12.531-31.056 12.531-12.531 31.056-12.531 18.524 0 31.055 12.531 12.532 12.531 12.532 31.056 0 18.524-12.532 31.055-12.531 12.532-31.055 12.532Z"/>
</svg>
