<svg aria-hidden="true" viewBox="0 -960 960 960" fill="currentColor">
  <path d="M199.043-199.043h561.914v-561.914H199.043v561.914Zm-87.174-3.827v-554.26q0-37.783 26.609-64.392 26.609-26.609 64.392-26.609h554.26q37.783 0 64.392 26.609 26.609 26.609 26.609 64.392v554.26q0 37.783-26.609 64.392-26.609 26.609-64.392 26.609H202.87q-37.783 0-64.392-26.609-26.609-26.609-26.609-64.392ZM480-598.804q-18.524 0-31.056-12.532-12.531-12.531-12.531-31.055 0-18.525 12.531-31.056 12.532-12.531 31.056-12.531t31.056 12.531q12.531 12.531 12.531 31.056 0 18.524-12.531 31.055-12.532 12.532-31.056 12.532ZM317.848-436.413q-18.525 0-31.056-12.531-12.531-12.532-12.531-31.056t12.531-31.056q12.531-12.531 31.056-12.531 18.524 0 31.056 12.531 12.531 12.532 12.531 31.056t-12.531 31.056q-12.532 12.531-31.056 12.531Zm162.152 0q-18.524 0-31.056-12.531-12.531-12.532-12.531-31.056t12.531-31.056q12.532-12.531 31.056-12.531t31.056 12.531q12.531 12.532 12.531 31.056t-12.531 31.056Q498.524-436.413 480-436.413Zm162.391 0q-18.524 0-31.055-12.531-12.532-12.532-12.532-31.056t12.532-31.056q12.531-12.531 31.055-12.531 18.525 0 31.056 12.531 12.531 12.532 12.531 31.056t-12.531 31.056q-12.531 12.531-31.056 12.531ZM480-274.261q-18.524 0-31.056-12.531-12.531-12.531-12.531-31.056 0-18.524 12.531-31.056 12.532-12.531 31.056-12.531t31.056 12.531q12.531 12.532 12.531 31.056 0 18.525-12.531 31.056-12.532 12.531-31.056 12.531Z"/>
</svg>
