<svg aria-hidden="true" viewBox="0 -960 960 960" fill="currentColor">
  <path d="M640-760q-17 0-28.5-11.5T600-800q0-17 11.5-28.5T640-840q17 0 28.5 11.5T680-800q0 17-11.5 28.5T640-760Zm0 320q-17 0-28.5-11.5T600-480q0-17 11.5-28.5T640-520q17 0 28.5 11.5T680-480q0 17-11.5 28.5T640-440Zm0 320q-17 0-28.5-11.5T600-160q0-17 11.5-28.5T640-200q17 0 28.5 11.5T680-160q0 17-11.5 28.5T640-120ZM480-760q-17 0-28.5-11.5T440-800q0-17 11.5-28.5T480-840q17 0 28.5 11.5T520-800q0 17-11.5 28.5T480-760Zm0 160q-17 0-28.5-11.5T440-640q0-17 11.5-28.5T480-680q17 0 28.5 11.5T520-640q0 17-11.5 28.5T480-600Zm0 160q-17 0-28.5-11.5T440-480q0-17 11.5-28.5T480-520q17 0 28.5 11.5T520-480q0 17-11.5 28.5T480-440Zm0 160q-17 0-28.5-11.5T440-320q0-17 11.5-28.5T480-360q17 0 28.5 11.5T520-320q0 17-11.5 28.5T480-280Zm0 160q-17 0-28.5-11.5T440-160q0-17 11.5-28.5T480-200q17 0 28.5 11.5T520-160q0 17-11.5 28.5T480-120ZM320-760q-17 0-28.5-11.5T280-800q0-17 11.5-28.5T320-840q17 0 28.5 11.5T360-800q0 17-11.5 28.5T320-760Zm0 320q-17 0-28.5-11.5T280-480q0-17 11.5-28.5T320-520q17 0 28.5 11.5T360-480q0 17-11.5 28.5T320-440Zm0 320q-17 0-28.5-11.5T280-160q0-17 11.5-28.5T320-200q17 0 28.5 11.5T360-160q0 17-11.5 28.5T320-120ZM160-760q-17 0-28.5-11.5T120-800q0-17 11.5-28.5T160-840q17 0 28.5 11.5T200-800q0 17-11.5 28.5T160-760Zm0 160q-17 0-28.5-11.5T120-640q0-17 11.5-28.5T160-680q17 0 28.5 11.5T200-640q0 17-11.5 28.5T160-600Zm0 160q-17 0-28.5-11.5T120-480q0-17 11.5-28.5T160-520q17 0 28.5 11.5T200-480q0 17-11.5 28.5T160-440Zm0 160q-17 0-28.5-11.5T120-320q0-17 11.5-28.5T160-360q17 0 28.5 11.5T200-320q0 17-11.5 28.5T160-280Zm0 160q-17 0-28.5-11.5T120-160q0-17 11.5-28.5T160-200q17 0 28.5 11.5T200-160q0 17-11.5 28.5T160-120Zm640 0q-17 0-28.5-11.5T760-160v-640q0-17 11.5-28.5T800-840q17 0 28.5 11.5T840-800v640q0 17-11.5 28.5T800-120Z"/>
</svg>
