<svg aria-hidden="true" viewBox="0 -960 960 960" fill="currentColor">
  <path d="M800-760q-17 0-28.5-11.5T760-800q0-17 11.5-28.5T800-840q17 0 28.5 11.5T840-800q0 17-11.5 28.5T800-760Zm0 160q-17 0-28.5-11.5T760-640q0-17 11.5-28.5T800-680q17 0 28.5 11.5T840-640q0 17-11.5 28.5T800-600Zm0 320q-17 0-28.5-11.5T760-320q0-17 11.5-28.5T800-360q17 0 28.5 11.5T840-320q0 17-11.5 28.5T800-280Zm0 160q-17 0-28.5-11.5T760-160q0-17 11.5-28.5T800-200q17 0 28.5 11.5T840-160q0 17-11.5 28.5T800-120ZM640-760q-17 0-28.5-11.5T600-800q0-17 11.5-28.5T640-840q17 0 28.5 11.5T680-800q0 17-11.5 28.5T640-760Zm0 640q-17 0-28.5-11.5T600-160q0-17 11.5-28.5T640-200q17 0 28.5 11.5T680-160q0 17-11.5 28.5T640-120ZM320-760q-17 0-28.5-11.5T280-800q0-17 11.5-28.5T320-840q17 0 28.5 11.5T360-800q0 17-11.5 28.5T320-760Zm0 640q-17 0-28.5-11.5T280-160q0-17 11.5-28.5T320-200q17 0 28.5 11.5T360-160q0 17-11.5 28.5T320-120ZM160-760q-17 0-28.5-11.5T120-800q0-17 11.5-28.5T160-840q17 0 28.5 11.5T200-800q0 17-11.5 28.5T160-760Zm0 160q-17 0-28.5-11.5T120-640q0-17 11.5-28.5T160-680q17 0 28.5 11.5T200-640q0 17-11.5 28.5T160-600Zm0 320q-17 0-28.5-11.5T120-320q0-17 11.5-28.5T160-360q17 0 28.5 11.5T200-320q0 17-11.5 28.5T160-280Zm0 160q-17 0-28.5-11.5T120-160q0-17 11.5-28.5T160-200q17 0 28.5 11.5T200-160q0 17-11.5 28.5T160-120Zm320 0q-17 0-28.5-11.5T440-160v-280H160q-17 0-28.5-11.5T120-480q0-17 11.5-28.5T160-520h280v-280q0-17 11.5-28.5T480-840q17 0 28.5 11.5T520-800v280h280q17 0 28.5 11.5T840-480q0 17-11.5 28.5T800-440H520v280q0 17-11.5 28.5T480-120Z"/>
</svg>
