<svg aria-hidden="true" viewBox="0 -960 960 960" fill="currentColor">
  <path d="M804.544-274.022q-18.525 0-31.056-12.531-12.531-12.531-12.531-31.056 0-18.524 12.531-31.055 12.531-12.532 31.056-12.532 18.524 0 31.055 12.532 12.532 12.531 12.532 31.055 0 18.525-12.532 31.056-12.531 12.531-31.055 12.531Zm-324.544 0q-18.524 0-31.056-12.531-12.531-12.531-12.531-31.056 0-18.524 12.531-31.055 12.532-12.532 31.056-12.532t31.056 12.532q12.531 12.531 12.531 31.055 0 18.525-12.531 31.056-12.532 12.531-31.056 12.531Zm-324.544 0q-18.524 0-31.055-12.531-12.532-12.531-12.532-31.056 0-18.524 12.532-31.055 12.531-12.532 31.055-12.532 18.525 0 31.056 12.532 12.531 12.531 12.531 31.055 0 18.525-12.531 31.056-12.531 12.531-31.056 12.531Zm649.088-162.391q-18.525 0-31.056-12.531-12.531-12.532-12.531-31.056t12.531-31.056q12.531-12.531 31.056-12.531 18.524 0 31.055 12.531 12.532 12.532 12.532 31.056t-12.532 31.056q-12.531 12.531-31.055 12.531Zm-162.392 0q-18.524 0-31.056-12.531-12.531-12.532-12.531-31.056t12.531-31.056q12.532-12.531 31.056-12.531 18.525 0 31.056 12.531 12.531 12.532 12.531 31.056t-12.531 31.056q-12.531 12.531-31.056 12.531Zm-162.152 0q-18.524 0-31.056-12.531-12.531-12.532-12.531-31.056t12.531-31.056q12.532-12.531 31.056-12.531t31.056 12.531q12.531 12.532 12.531 31.056t-12.531 31.056Q498.524-436.413 480-436.413Zm-162.391 0q-18.525 0-31.056-12.531-12.531-12.532-12.531-31.056t12.531-31.056q12.531-12.531 31.056-12.531 18.524 0 31.055 12.531 12.532 12.532 12.532 31.056t-12.532 31.056q-12.531 12.531-31.055 12.531Zm-162.153 0q-18.524 0-31.055-12.531-12.532-12.532-12.532-31.056t12.532-31.056q12.531-12.531 31.055-12.531 18.525 0 31.056 12.531 12.531 12.532 12.531 31.056t-12.531 31.056q-12.531 12.531-31.056 12.531Zm649.088-162.152q-18.525 0-31.056-12.531-12.531-12.532-12.531-31.056 0-18.525 12.531-31.056 12.531-12.531 31.056-12.531 18.524 0 31.055 12.531 12.532 12.531 12.532 31.056 0 18.524-12.532 31.056-12.531 12.531-31.055 12.531Zm-324.544 0q-18.524 0-31.056-12.531-12.531-12.532-12.531-31.056 0-18.525 12.531-31.056 12.532-12.531 31.056-12.531t31.056 12.531q12.531 12.531 12.531 31.056 0 18.524-12.531 31.056-12.532 12.531-31.056 12.531Zm-324.544 0q-18.524 0-31.055-12.531-12.532-12.532-12.532-31.056 0-18.525 12.532-31.056 12.531-12.531 31.055-12.531 18.525 0 31.056 12.531 12.531 12.531 12.531 31.056 0 18.524-12.531 31.056-12.531 12.531-31.056 12.531Zm649.088-162.392q-18.525 0-31.056-12.531-12.531-12.531-12.531-31.056 0-18.524 12.531-31.055 12.531-12.532 31.056-12.532 18.524 0 31.055 12.532 12.532 12.531 12.532 31.055 0 18.525-12.532 31.056-12.531 12.531-31.055 12.531Zm-162.392 0q-18.524 0-31.056-12.531-12.531-12.531-12.531-31.056 0-18.524 12.531-31.055 12.532-12.532 31.056-12.532 18.525 0 31.056 12.532 12.531 12.531 12.531 31.055 0 18.525-12.531 31.056-12.531 12.531-31.056 12.531Zm-162.152 0q-18.524 0-31.056-12.531-12.531-12.531-12.531-31.056 0-18.524 12.531-31.055 12.532-12.532 31.056-12.532t31.056 12.532q12.531 12.531 12.531 31.055 0 18.525-12.531 31.056-12.532 12.531-31.056 12.531Zm-162.391 0q-18.525 0-31.056-12.531-12.531-12.531-12.531-31.056 0-18.524 12.531-31.055 12.531-12.532 31.056-12.532 18.524 0 31.055 12.532 12.532 12.531 12.532 31.055 0 18.525-12.532 31.056-12.531 12.531-31.055 12.531Zm-162.153 0q-18.524 0-31.055-12.531-12.532-12.531-12.532-31.056 0-18.524 12.532-31.055 12.531-12.532 31.055-12.532 18.525 0 31.056 12.532 12.531 12.531 12.531 31.055 0 18.525-12.531 31.056-12.531 12.531-31.056 12.531Zm0 649.088q-18.524 0-31.055-12.532-12.532-12.531-12.532-31.055 0-18.525 12.532-31.056 12.531-12.531 31.055-12.531h649.088q18.524 0 31.055 12.531 12.532 12.531 12.532 31.056 0 18.524-12.532 31.055-12.531 12.532-31.055 12.532H155.456Z"/>
</svg>
