<svg aria-hidden="true" viewBox="0 -960 960 960" fill="currentColor">
  <path d="M804.544-760.957q-18.525 0-31.056-12.531-12.531-12.531-12.531-31.056 0-18.524 12.531-31.055 12.531-12.532 31.056-12.532 18.524 0 31.055 12.532 12.532 12.531 12.532 31.055 0 18.525-12.532 31.056-12.531 12.531-31.055 12.531Zm0 162.392q-18.525 0-31.056-12.531-12.531-12.532-12.531-31.056 0-18.525 12.531-31.056 12.531-12.531 31.056-12.531 18.524 0 31.055 12.531 12.532 12.531 12.532 31.056 0 18.524-12.532 31.056-12.531 12.531-31.055 12.531Zm0 324.543q-18.525 0-31.056-12.531-12.531-12.531-12.531-31.056 0-18.524 12.531-31.055 12.531-12.532 31.056-12.532 18.524 0 31.055 12.532 12.532 12.531 12.532 31.055 0 18.525-12.532 31.056-12.531 12.531-31.055 12.531Zm0 162.153q-18.525 0-31.056-12.532-12.531-12.531-12.531-31.055 0-18.525 12.531-31.056 12.531-12.531 31.056-12.531 18.524 0 31.055 12.531 12.532 12.531 12.532 31.056 0 18.524-12.532 31.055-12.531 12.532-31.055 12.532ZM642.391-760.957q-18.524 0-31.055-12.531-12.532-12.531-12.532-31.056 0-18.524 12.532-31.055 12.531-12.532 31.055-12.532 18.525 0 31.056 12.532 12.531 12.531 12.531 31.055 0 18.525-12.531 31.056-12.531 12.531-31.056 12.531Zm0 649.088q-18.524 0-31.055-12.532-12.532-12.531-12.532-31.055 0-18.525 12.532-31.056 12.531-12.531 31.055-12.531 18.525 0 31.056 12.531 12.531 12.531 12.531 31.056 0 18.524-12.531 31.055-12.531 12.532-31.056 12.532ZM317.848-760.957q-18.525 0-31.056-12.531-12.531-12.531-12.531-31.056 0-18.524 12.531-31.055 12.531-12.532 31.056-12.532 18.524 0 31.056 12.532 12.531 12.531 12.531 31.055 0 18.525-12.531 31.056-12.532 12.531-31.056 12.531Zm0 649.088q-18.525 0-31.056-12.532-12.531-12.531-12.531-31.055 0-18.525 12.531-31.056 12.531-12.531 31.056-12.531 18.524 0 31.056 12.531 12.531 12.531 12.531 31.056 0 18.524-12.531 31.055-12.532 12.532-31.056 12.532ZM155.456-760.957q-18.524 0-31.055-12.531-12.532-12.531-12.532-31.056 0-18.524 12.532-31.055 12.531-12.532 31.055-12.532 18.525 0 31.056 12.532 12.531 12.531 12.531 31.055 0 18.525-12.531 31.056-12.531 12.531-31.056 12.531Zm0 162.392q-18.524 0-31.055-12.531-12.532-12.532-12.532-31.056 0-18.525 12.532-31.056 12.531-12.531 31.055-12.531 18.525 0 31.056 12.531 12.531 12.531 12.531 31.056 0 18.524-12.531 31.056-12.531 12.531-31.056 12.531Zm0 324.543q-18.524 0-31.055-12.531-12.532-12.531-12.532-31.056 0-18.524 12.532-31.055 12.531-12.532 31.055-12.532 18.525 0 31.056 12.532 12.531 12.531 12.531 31.055 0 18.525-12.531 31.056-12.531 12.531-31.056 12.531Zm0 162.153q-18.524 0-31.055-12.532-12.532-12.531-12.532-31.055 0-18.525 12.532-31.056 12.531-12.531 31.055-12.531 18.525 0 31.056 12.531 12.531 12.531 12.531 31.056 0 18.524-12.531 31.055-12.531 12.532-31.056 12.532Zm324.544 0q-18.524 0-31.056-12.532-12.531-12.531-12.531-31.055v-280.957H155.456q-18.524 0-31.055-12.531-12.532-12.532-12.532-31.056t12.532-31.056q12.531-12.531 31.055-12.531h280.957v-280.957q0-18.524 12.531-31.055 12.532-12.532 31.056-12.532t31.056 12.532q12.531 12.531 12.531 31.055v280.957h280.957q18.524 0 31.055 12.531 12.532 12.532 12.532 31.056t-12.532 31.056q-12.531 12.531-31.055 12.531H523.587v280.957q0 18.524-12.531 31.055-12.532 12.532-31.056 12.532Z"/>
</svg>
