<svg aria-hidden="true" viewBox="0 -960 960 960" fill="currentColor">
  <path d="M434.37-645.696 329.63-364.587q-6.478 15.435 3.24 29.772 9.717 14.337 26.674 14.337 10.956 0 19.293-5.979 8.337-5.978 11.576-16.173l22.37-66.74H548.5l22.369 67.261q3.24 10.196 11.457 15.913 8.217 5.718 18.413 5.718 16.435 0 25.891-13.696 9.457-13.696 3.979-29.13L525.87-645.696q-5.479-14.717-18.196-23.434-12.717-8.718-27.674-8.718-14.957 0-27.674 8.718-12.717 8.717-17.956 23.434Zm-4.066 181.218L478-607.304h4l47.696 142.826h-99.392Zm-85.5 307.108H248.37q-37.544 0-64.272-26.728-26.728-26.728-26.728-64.272v-96.434l-70.305-71.544Q60.957-442.696 60.957-480t26.108-63.652l70.305-71.544v-96.673q0-37.544 26.728-64.272 26.728-26.729 64.272-26.729h96.434l71.544-70.543q26.348-26.109 63.652-26.109t63.652 26.109l71.544 70.543h96.673q37.544 0 64.272 26.729 26.729 26.728 26.729 64.272v96.673l70.543 71.544q26.109 26.348 26.109 63.652t-26.109 63.652l-70.543 71.544v96.434q0 37.544-26.729 64.272-26.728 26.728-64.272 26.728h-96.673l-71.544 70.305Q517.304-60.957 480-60.957t-63.652-26.108l-71.544-70.305Z"/>
</svg>
