<svg aria-hidden="true" viewBox="0 -960 960 960" fill="currentColor">
  <path d="M344.804-157.37H248.37q-37.538 0-64.269-26.731-26.731-26.731-26.731-64.269v-96.434l-70.305-71.544Q60.957-442.696 60.957-480t26.108-63.652l70.305-71.544v-96.673q0-37.538 26.731-64.269 26.731-26.732 64.269-26.732h96.434l71.544-70.543q26.348-26.109 63.652-26.109t63.652 26.109l71.544 70.543h96.673q37.538 0 64.269 26.732 26.732 26.731 26.732 64.269v96.673l70.543 71.544q26.109 26.348 26.109 63.652t-26.109 63.652l-70.543 71.544v96.434q0 37.538-26.732 64.269-26.731 26.731-64.269 26.731h-96.673l-71.544 70.305Q517.304-60.957 480-60.957t-63.652-26.108l-71.544-70.305ZM480-285.5q-80.848 0-137.674-56.826Q285.5-399.152 285.5-480q0-80.848 56.826-137.674Q399.152-674.5 480-674.5q80.848 0 137.674 56.826Q674.5-560.848 674.5-480q0 80.848-56.826 137.674Q560.848-285.5 480-285.5Zm.12-85.5q45.336 0 77.108-31.891Q589-434.783 589-480.12q0-45.336-31.792-77.108Q525.417-589 480-589q-45.217 0-77.109 31.792Q371-525.417 371-480q0 45.217 31.891 77.109Q434.783-371 480.12-371ZM480-151.718l96.624-96.553h135.274v-135.175L808.521-480l-96.623-96.624v-135.274H576.624L480-808.521l-96.554 96.623H248.271v135.274L151.718-480l96.652 96.652v134.978h134.978L480-151.718ZM480-480Z"/>
</svg>
