<svg aria-hidden="true" viewBox="0 -960 960 960" fill="currentColor">
  <path d="m448.174-56-103.37-101.37H202.87q-19.153 0-32.327-13.173-13.173-13.174-13.173-32.327v-141.934L56-448.174Q43.326-461.609 43.326-480T56-511.826l101.37-103.37V-757.37q0-19.152 13.173-32.326 13.174-13.174 32.327-13.174h141.934l103.37-101.369q13.674-12.674 31.826-12.674t31.826 12.674l103.37 101.369H757.37q19.152 0 32.326 13.174t13.174 32.326v142.174l101.369 103.37q12.674 13.674 12.674 31.826t-12.674 31.826L802.87-344.804v141.934q0 19.153-13.174 32.327-13.174 13.173-32.326 13.173H615.196L511.826-56Q498.391-43.326 480-43.326T448.174-56Z"/>
</svg>
