<svg aria-hidden="true" viewBox="0 -960 960 960" fill="currentColor">
  <path d="M345.565-157.37h-96.434q-37.544 0-64.272-26.728-26.729-26.728-26.729-64.272v-96.434l-70.543-71.544Q61.478-442.696 61.478-480t26.109-63.652l70.543-71.544v-96.673q0-37.544 26.729-64.272 26.728-26.729 64.272-26.729h96.434l71.304-70.543q26.348-26.109 63.772-26.109t63.772 26.109l71.304 70.543h96.913q37.544 0 64.272 26.729 26.728 26.728 26.728 64.272v96.673l70.305 71.544q26.108 26.348 26.108 63.652t-26.108 63.652l-70.305 71.544v96.434q0 37.544-26.728 64.272-26.728 26.728-64.272 26.728h-96.913l-71.304 70.305q-26.348 26.108-63.772 26.108t-63.772-26.108l-71.304-70.305ZM480.522-285.5q-80.848 0-137.674-56.826Q286.022-399.152 286.022-480q0-80.848 56.826-137.674Q399.674-674.5 480.522-674.5q80.848 0 137.674 56.826Q675.022-560.848 675.022-480q0 80.848-56.826 137.674Q561.37-285.5 480.522-285.5Zm0 133.782 96.891-96.652H712.63v-134.978L809.282-480l-96.652-96.652v-135.217H577.413l-96.891-96.652-96.652 96.652H249.131v135.217L152.479-480l96.652 96.652v134.978H383.87l96.652 96.652Z"/>
</svg>
