<svg aria-hidden="true" viewBox="0 -960 960 960" fill="currentColor">
  <path d="M346-160H240q-33 0-56.5-23.5T160-240v-106l-77-78q-11-12-17-26.5T60-480q0-15 6-29.5T83-536l77-78v-106q0-33 23.5-56.5T240-800h106l78-77q12-11 26.5-17t29.5-6q15 0 29.5 6t26.5 17l78 77h106q33 0 56.5 23.5T800-720v106l77 78q11 12 17 26.5t6 29.5q0 15-6 29.5T877-424l-77 78v106q0 33-23.5 56.5T720-160H614l-78 77q-12 11-26.5 17T480-60q-15 0-29.5-6T424-83l-78-77Zm275.5-178.5Q680-397 680-480t-58.5-141.5Q563-680 480-680t-141.5 58.5Q280-563 280-480t58.5 141.5Q397-280 480-280t141.5-58.5ZM480-480ZM380-240l100 100 100-100h140v-140l100-100-100-100v-140H580L480-820 380-720H240v140L140-480l100 100v140h140Zm100-240Z"/>
</svg>
