<svg aria-hidden="true" viewBox="0 -960 960 960" fill="currentColor">
  <path d="M493.435-285.5q80.848 0 137.674-56.826Q687.935-399.152 687.935-480q0-80.848-56.826-137.674Q574.283-674.5 493.435-674.5h-14.109q-7.304 0-14.108 1.522-14.283 2.522-18.283 16.424-4 13.902 6.761 21.902 36.326 27.761 55.369 68.304 19.044 40.544 19.044 86.348 0 46.565-18.044 88.109-18.043 41.543-56.369 66.543-11.522 8-8.022 21.783 3.5 13.782 19.783 15.543 6.804 1.522 13.989 2.022 7.184.5 13.989.5Zm121.761 128.13-71.544 70.544Q517.304-60.717 480-60.717t-63.652-26.11l-71.544-70.543H248.37q-37.783 0-64.392-26.608-26.608-26.609-26.608-64.392v-96.434l-70.544-71.544Q60.717-442.696 60.717-480t26.11-63.652l70.543-71.544v-96.673q0-37.783 26.608-64.392 26.609-26.609 64.392-26.609h96.434l71.544-70.543q26.348-26.109 63.652-26.109t63.652 26.109l71.544 70.543h96.673q37.783 0 64.392 26.609 26.609 26.609 26.609 64.392v96.673l70.543 71.544q26.109 26.348 26.109 63.652t-26.109 63.652l-70.543 71.544v96.434q0 37.783-26.609 64.392-26.609 26.608-64.392 26.608h-96.673ZM480.239-480.239ZM480-151.718l96.652-96.652h135.217v-134.978L808.521-480l-96.652-96.652v-135.217H576.652L480-808.521l-96.652 96.652H248.37v135.217L151.718-480l96.652 96.652v134.978h134.978L480-151.718Z"/>
</svg>
