<svg aria-hidden="true" viewBox="0 -960 960 960" fill="currentColor">
  <path d="M434.37-645.696 329.63-364.587q-6.478 16.196 3.24 30.152 9.717 13.957 26.674 13.957 11.052 0 19.341-5.979 8.289-5.978 11.528-16.173l22.37-66.74H548.5l22.369 67.261q3.279 10.246 11.477 15.938 8.197 5.693 18.393 5.693 16.435 0 25.891-13.696 9.457-13.696 3.979-29.13L525.87-645.696q-5.479-14.717-18.251-23.434-12.773-8.718-27.674-8.718-14.902 0-27.619 8.718-12.717 8.717-17.956 23.434Zm-4.066 181.218L478-607.304h4l47.696 142.826h-99.392Zm-85.5 307.108H248.37q-37.538 0-64.269-26.731-26.731-26.731-26.731-64.269v-96.434l-70.305-71.544Q60.957-442.696 60.957-480t26.108-63.652l70.305-71.544v-96.673q0-37.538 26.731-64.269 26.731-26.732 64.269-26.732h96.434l71.544-70.543q26.348-26.109 63.652-26.109t63.652 26.109l71.544 70.543h96.673q37.538 0 64.269 26.732 26.732 26.731 26.732 64.269v96.673l70.543 71.544q26.109 26.348 26.109 63.652t-26.109 63.652l-70.543 71.544v96.434q0 37.538-26.732 64.269-26.731 26.731-64.269 26.731h-96.673l-71.544 70.305Q517.304-60.957 480-60.957t-63.652-26.108l-71.544-70.305Zm135.435-322.869ZM480-151.718l96.624-96.553h135.274v-135.175L808.521-480l-96.623-96.624v-135.274H576.624L480-808.521l-96.554 96.623H248.271v135.274L151.718-480l96.652 96.652v134.978h134.978L480-151.718Z"/>
</svg>
