<svg aria-hidden="true" viewBox="0 -960 960 960" fill="currentColor">
  <path d="M384.065-797.13q-9.565 0-19.087.119-9.521.12-17.565 1.641 56.283 65.283 87.902 146.305 31.62 81.022 31.62 169.065 0 88.043-31.62 169.065-31.619 81.022-87.902 146.305 8.044 1.521 17.446 1.641 9.402.119 19.206.119 131.565 0 224.348-92.663Q701.196-348.196 701.196-480q0-131.804-92.783-224.467-92.783-92.663-224.348-92.663ZM791.479-480q0 84.674-32.218 159.109-32.217 74.435-87.293 129.63-55.077 55.196-129.392 87.294T383.587-71.869q-32.957 0-69.511-6.598-36.554-6.598-69.272-18.316-13.913-5.956-22.826-17.891-8.913-11.935-8.913-27.326 0-9.717 3.859-18.435 3.858-8.717 11.098-14.435 71.239-61.391 109.217-140.097Q375.217-393.674 375.456-480q.24-86.326-37.739-165.033Q299.739-723.739 228.5-785.13q-7.239-5.718-11.098-14.435-3.859-8.718-3.859-18.435 0-15.391 9.033-27.326t22.946-17.892q32.717-11.717 69.152-18.315 36.435-6.598 69.391-6.598 84.674 0 158.99 32.098 74.315 32.098 129.391 87.294 55.076 55.195 87.054 129.63Q791.479-564.674 791.479-480Zm-324.544 0Z"/>
</svg>
