<svg aria-hidden="true" viewBox="0 -960 960 960" fill="currentColor">
  <path d="M437-650 327-361q-6 14 3 27.5t25 13.5q10 0 17.5-5.5T383-340l25-72h146l25 73q3 9 10.5 14t16.5 5q15 0 23.5-12.5T633-359L523-650q-5-14-17-22t-26-8q-14 0-26 8t-17 22Zm-11 186 52-150h4l52 150H426Zm-80 304H240q-33 0-56.5-23.5T160-240v-106l-77-78q-23-23-23-56t23-56l77-78v-106q0-33 23.5-56.5T240-800h106l78-77q23-23 56-23t56 23l78 77h106q33 0 56.5 23.5T800-720v106l77 78q23 23 23 56t-23 56l-77 78v106q0 33-23.5 56.5T720-160H614l-78 77q-23 23-56 23t-56-23l-78-77Z"/>
</svg>
