<svg aria-hidden="true" viewBox="0 -960 960 960" fill="currentColor">
  <path d="M767.413-480q0 82.913-30.456 155.826-30.457 72.913-84.011 127.989-53.555 55.076-126.207 88.055-72.652 32.978-157.043 36.26-19.392.761-32.566-13.293-13.174-14.054-13.174-33.207 0-11.434 4.718-21.01 4.717-9.577 13.674-15.294 82.478-57.761 127.434-142.402Q514.739-381.717 514.739-480t-44.957-182.924q-44.956-84.641-127.434-142.402-8.957-5.717-13.674-15.294-4.718-9.576-4.718-21.01 0-19.153 13.174-33.207 13.174-14.054 32.566-13.294 84.391 3.283 157.043 36.261 72.652 32.979 126.207 88.055 53.554 55.076 84.011 127.989Q767.413-562.913 767.413-480Z"/>
</svg>
