<svg aria-hidden="true" viewBox="0 -960 960 960" fill="currentColor">
  <path d="M346-160H240q-33 0-56.5-23.5T160-240v-106l-77-78q-23-23-23-56t23-56l77-78v-106q0-33 23.5-56.5T240-800h106l78-77q23-23 56-23t56 23l78 77h106q33 0 56.5 23.5T800-720v106l77 78q23 23 23 56t-23 56l-77 78v106q0 33-23.5 56.5T720-160H614l-78 77q-23 23-56 23t-56-23l-78-77Zm134-120q83 0 141.5-58.5T680-480q0-83-58.5-141.5T480-680q-83 0-141.5 58.5T280-480q0 83 58.5 141.5T480-280Zm0-200Zm0 120q50 0 85-35t35-85q0-50-35-85t-85-35q-50 0-85 35t-35 85q0 50 35 85t85 35Zm0 220 100-100h140v-140l100-100-100-100v-140H580L480-820 380-720H240v140L140-480l100 100v140h140l100 100Zm0-220q50 0 85-35t35-85q0-50-35-85t-85-35q-50 0-85 35t-35 85q0 50 35 85t85 35Z"/>
</svg>
