<svg aria-hidden="true" viewBox="0 -960 960 960" fill="currentColor">
  <path d="M266.79-237.37q-68.095 0-116.649-48.541-48.554-48.542-48.554-116.707 0-68.165 48.541-116.6 48.542-48.434 116.707-48.434 68.165 0 116.6 48.492 48.434 48.492 48.434 116.587t-48.492 116.649Q334.885-237.37 266.79-237.37Zm.041-91q30.625 0 52.332-21.809 21.706-21.809 21.706-52.435 0-30.625-21.759-52.332-21.76-21.706-52.315-21.706-30.556 0-52.382 21.759-21.826 21.76-21.826 52.315 0 30.556 21.809 52.382 21.809 21.826 52.435 21.826Zm395.358-72.826q-95.385 0-161.776-66.305-66.391-66.306-66.391-161.62 0-95.314 66.354-161.705 66.355-66.392 161.739-66.392 95.385 0 161.776 66.355 66.392 66.354 66.392 161.739t-66.355 161.657q-66.354 66.271-161.739 66.271Zm-83.385 299.609q-53.108 0-90.5-37.51-37.391-37.511-37.391-90.62t37.391-90.62q37.392-37.511 90.5-37.511 53.109 0 90.62 37.511t37.511 90.62q0 53.109-37.511 90.62-37.511 37.51-90.62 37.51Zm83.358-390.609q57.795 0 97.458-39.601 39.663-39.6 39.663-97.29 0-57.791-39.673-97.461t-97.467-39.67q-57.795 0-97.458 39.673t-39.663 97.467q0 57.795 39.672 97.339 39.673 39.543 97.468 39.543Zm-83.374 299.609q15.787 0 26.467-10.68 10.68-10.679 10.68-26.467 0-15.787-10.68-26.451-10.68-10.663-26.467-10.663-15.788 0-26.331 10.68-10.544 10.68-10.544 26.468 0 15.787 10.544 26.45 10.543 10.663 26.331 10.663Zm83.364-436.5ZM266.848-402.63Zm311.956 172.913Z"/>
</svg>
