<svg aria-hidden="true" viewBox="0 -960 960 960" fill="currentColor">
  <path d="M495-155q-35-35-35-85t35-85q35-35 85-35t85 35q35 35 35 85t-35 85q-35 35-85 35t-85-35Zm113.5-56.5Q620-223 620-240t-11.5-28.5Q597-280 580-280t-28.5 11.5Q540-257 540-240t11.5 28.5Q563-200 580-200t28.5-11.5ZM504-464q-64-64-64-156t64-156q64-64 156-64t156 64q64 64 64 156t-64 156q-64 64-156 64t-156-64Zm255.5-56.5Q800-561 800-620t-40.5-99.5Q719-760 660-760t-99.5 40.5Q520-679 520-620t40.5 99.5Q601-480 660-480t99.5-40.5ZM280-240q-66 0-113-47t-47-113q0-66 47-113t113-47q66 0 113 47t47 113q0 66-47 113t-113 47Zm56.5-103.5Q360-367 360-400t-23.5-56.5Q313-480 280-480t-56.5 23.5Q200-433 200-400t23.5 56.5Q247-320 280-320t56.5-23.5ZM580-240Zm80-380ZM280-400Z"/>
</svg>
