<svg aria-hidden="true" viewBox="0 -960 960 960" fill="currentColor">
  <path d="M266.79-237.37q-68.095 0-116.649-48.541-48.554-48.542-48.554-116.707 0-68.165 48.541-116.6 48.542-48.434 116.707-48.434 68.165 0 116.6 48.492 48.434 48.492 48.434 116.587t-48.492 116.649Q334.885-237.37 266.79-237.37Zm395.399-163.826q-95.385 0-161.776-66.305-66.391-66.306-66.391-161.62 0-95.314 66.354-161.705 66.355-66.392 161.739-66.392 95.385 0 161.776 66.355 66.392 66.354 66.392 161.739t-66.355 161.657q-66.354 66.271-161.739 66.271Zm-83.385 299.609q-53.108 0-90.5-37.51-37.391-37.511-37.391-90.62t37.391-90.62q37.392-37.511 90.5-37.511 53.109 0 90.62 37.511t37.511 90.62q0 53.109-37.511 90.62-37.511 37.51-90.62 37.51Z"/>
</svg>
