<svg aria-hidden="true" viewBox="0 -960 960 960" fill="currentColor">
  <path d="M480-111.869q-71.739 0-128.174-35.87t-87.957-90.348h-71.087q-17.833 0-29.373-12.05-11.54-12.05-11.54-29.863t12.05-29.863q12.05-12.05 29.863-12.05h41.848q-2.761-22.283-3.261-37.707-.5-15.423-.5-38.467h-39.087q-17.833 0-29.373-12.05-11.54-12.05-11.54-29.863t12.05-29.863q12.05-12.05 29.863-12.05h38.134q0-25.334.477-41.754.476-16.42 3.237-34.42h-42.848q-17.833 0-29.373-12.05-11.54-12.05-11.54-29.863t12.05-29.863q12.05-12.05 29.863-12.05h71.283q12.804-24 30.902-44.576t41.098-35.576l-36.043-36.805q-11.718-12.51-11.218-29.711.5-17.202 12.218-28.919 11.717-11.718 29.554-11.718 17.837 0 29.554 11.718l56.566 56.565q23.956-8.956 60.587-9.076 36.63-.12 59.869 8.359l59.044-58.283q12.574-11.717 29.863-11.217t29.006 12.217q11.718 11.717 11.718 29.435 0 17.717-11.718 29.435l-36.087 36.087q23.479 15.478 43.174 37.011Q682.848-665.435 696.37-640h71.804q17.239 0 28.598 11.859 11.359 11.858 11.359 29.098 0 17.239-11.859 29.097-11.859 11.859-29.098 11.859H724.37q2.761 21.804 3.261 36.207.5 14.402.5 39.967h39.087q17.833 0 29.373 12.05 11.54 12.05 11.54 29.863t-12.05 29.863q-12.05 12.05-29.863 12.05h-38.087q0 23.044-.5 38.467-.5 15.424-3.5 37.707h43.087q17.833 0 29.373 12.05 11.54 12.05 11.54 29.863t-12.05 29.863q-12.05 12.05-29.863 12.05h-70.179q-31.191 54-87.745 90.109Q551.739-111.869 480-111.869Zm-38.087-206.218h77.174q17.834 0 29.373-12.05Q560-342.187 560-360t-12.05-29.863q-12.05-12.05-29.863-12.05h-77.174q-17.834 0-29.373 12.05Q400-377.813 400-360t12.05 29.863q12.05 12.05 29.863 12.05Zm0-160h77.174q17.834 0 29.373-12.05Q560-502.187 560-520t-12.05-29.863q-12.05-12.05-29.863-12.05h-77.174q-17.834 0-29.373 12.05Q400-537.813 400-520t12.05 29.863q12.05 12.05 29.863 12.05Z"/>
</svg>
