<svg aria-hidden="true" viewBox="0 -960 960 960" fill="currentColor">
  <path d="M480-120q-66 0-121-33t-87-87h-73q-17 0-28-11.5T160-280q0-17 11.5-28.5T200-320h44q-3-23-3.5-39.5T240-400h-41q-17 0-28-11.5T160-440q0-17 11.5-28.5T200-480h40q0-27 .5-44.5T244-560h-45q-17 0-28-11.5T160-600q0-17 11.5-28.5T200-640h72q14-24 31.5-43.5T344-718l-37-38q-11-12-10.5-28.5T308-812q11-11 28-11t28 11l58 58q23-8 57-8t57 8l60-59q12-11 28.5-10.5T652-812q11 11 11 28t-11 28l-38 38q23 15 41.5 34.5T688-640h73q17 0 28 11.5t11 28.5q0 17-11.5 28.5T760-560h-44q3 23 3.5 38t.5 42h41q17 0 28 11.5t11 28.5q0 17-11.5 28.5T760-400h-40q0 24-.5 40.5T716-320h45q17 0 28 11.5t11 28.5q0 17-11.5 28.5T760-240h-72q-32 54-87 87t-121 33Zm-40-200h81q17 0 28-11.5t11-28.5q0-17-11.5-28.5T520-400h-81q-17 0-28 11.5T400-360q0 17 11.5 28.5T440-320Zm0-160h81q17 0 28-11.5t11-28.5q0-17-11.5-28.5T520-560h-81q-17 0-28 11.5T400-520q0 17 11.5 28.5T440-480Z"/>
</svg>
