<svg aria-hidden="true" viewBox="0 -960 960 960" fill="currentColor">
  <path d="M480.014-111.869q-67.644 0-125.416-33.794-57.772-33.793-90.729-92.424h-71.087q-17.833 0-29.373-12.05-11.54-12.05-11.54-29.863t12.05-29.863q12.05-12.05 29.863-12.05h41.848q-2.82-18.964-3.291-37.928-.47-18.963-.47-38.246h-39.087q-17.833 0-29.373-12.05-11.54-12.05-11.54-29.863t12.05-29.863q12.05-12.05 29.863-12.05h38.087q0-19.283.47-38.246.471-18.964 3.291-37.928h-42.848q-17.833 0-29.373-12.05-11.54-12.05-11.54-29.863t12.05-29.863q12.05-12.05 29.863-12.05h71.283q13.044-23.957 30.902-44.315 17.859-20.359 41.098-35.837l-36.043-36.565q-11.718-12.574-11.218-29.864.5-17.289 12.218-29.006 11.717-11.718 29.554-11.718 17.837 0 29.554 11.718l56.566 56.565q29.434-10.435 60.228-10.674 30.793-.239 60.228 9.957l59.044-58.283q12.574-11.717 29.863-11.217t29.006 12.217q11.718 11.717 11.718 29.435 0 17.717-11.718 29.435l-36.087 36.087q24.435 15.956 43.533 37.011 19.098 21.054 32.867 46.967h71.796q17.239 0 28.598 11.859 11.359 11.858 11.359 29.098 0 17.239-11.859 29.097-11.859 11.859-29.098 11.859H724.37q2.82 18.964 3.291 37.928.47 18.963.47 38.246h39.087q17.833 0 29.373 12.05 11.54 12.05 11.54 29.863t-12.05 29.863q-12.05 12.05-29.863 12.05h-38.087q0 19.283-.62 38.207-.62 18.923-3.38 37.967h43.087q17.833 0 29.373 12.05 11.54 12.05 11.54 29.863t-12.05 29.863q-12.05 12.05-29.863 12.05h-70.087q-32.957 58.631-90.715 92.424-57.758 33.794-125.402 33.794ZM480-202.87q66 0 111.565-46.929 45.565-46.93 45.565-112.831v-154.5q0-66.099-45.565-113.169Q546-677.37 480-677.37t-111.565 47.071q-45.565 47.07-45.565 113.169v154.5q0 65.901 45.565 112.831Q414-202.87 480-202.87Zm-38.087-115.217h77.174q17.834 0 29.373-12.05Q560-342.187 560-360t-12.05-29.863q-12.05-12.05-29.863-12.05h-77.174q-17.834 0-29.373 12.05Q400-377.813 400-360t12.05 29.863q12.05 12.05 29.863 12.05Zm0-160h77.174q17.834 0 29.373-12.05Q560-502.187 560-520t-12.05-29.863q-12.05-12.05-29.863-12.05h-77.174q-17.834 0-29.373 12.05Q400-537.813 400-520t12.05 29.863q12.05 12.05 29.863 12.05ZM480-440.239Z"/>
</svg>
