<svg aria-hidden="true" viewBox="0 -960 960 960" fill="currentColor">
  <path d="M320-116.413q-19.152 0-32.326-13.174T274.5-161.913v-197.956l-18.696 30.304q-10.913 14.478-28.108 17.5-17.196 3.022-31.196-5.739-15.435-9.957-19.674-27.392-4.239-17.434 5.717-32.869L441.696-788.87q6.956-10.956 17.032-15.554 10.076-4.598 21.272-4.598 11.196 0 21.272 4.598 10.076 4.598 17.032 15.554l259.153 410.805q9.956 15.435 5.717 32.869-4.239 17.435-19.674 27.392-14 8.761-31.196 5.358-17.195-3.402-28.108-17.88L685.5-359.63v197.717q0 19.152-13.174 32.326T640-116.413H320Zm41.913-87.174h74.5v-75.456q0-18.435 12.576-31.011T480-322.63q18.435 0 31.011 12.576t12.576 31.011v75.456h74.5v-294.087L480-684.891 361.913-497.674v294.087ZM480-397.37q-18.435 0-31.011-12.576t-12.576-31.011q0-18.434 12.576-31.01 12.576-12.577 31.011-12.577t31.011 12.577q12.576 12.576 12.576 31.01 0 18.435-12.576 31.011T480-397.37ZM361.913-203.587h236.174-236.174Z"/>
</svg>
