<svg aria-hidden="true" viewBox="0 -960 960 960" fill="currentColor">
  <path d="M830-515.5Q880-471 880-400v160q0 33-23.5 56.5T800-160l46 46q10 10 5 22t-19 12H568q-14 0-19-12t5-22l46-46q-33 0-56.5-23.5T520-240v-160q0-71 50-115.5T700-560q80 0 130 44.5Zm-447.5 178Q400-355 400-380t-17.5-42.5Q365-440 340-440t-42.5 17.5Q280-405 280-380t17.5 42.5Q315-320 340-320t42.5-17.5ZM721-249q9-9 9-21t-9-21q-9-9-21-9t-21 9q-9 9-9 21t9 21q9 9 21 9t21-9ZM580-360h240v-40q0-11-2-21t-6-19H588q-4 9-6 19t-2 21v40ZM240-120q-17 0-28.5-11.5T200-160v-82q-18-20-29-44.5T160-340v-380q0-83 77-121.5T480-880q172 0 246 37t74 123v48q0 17-11.5 28.5T760-632q-17 0-28.5-11.5T720-672v-8H240v120h202q17 0 25.5 15.5T467-513q-14 26-20.5 54.5T440-400v160q0 17-11.5 28.5T400-200h-80v40q0 17-11.5 28.5T280-120h-40Z"/>
</svg>
