<svg aria-hidden="true" viewBox="0 -960 960 960" fill="currentColor">
  <path d="M508.5-668.5Q520-657 520-640v480q0 17-11.5 28.5T480-120q-17 0-28.5-11.5T440-160v-480q0-17 11.5-28.5T480-680q17 0 28.5 11.5Zm-160 120Q360-537 360-520v240q0 17-11.5 28.5T320-240q-17 0-28.5-11.5T280-280v-240q0-17 11.5-28.5T320-560q17 0 28.5 11.5Zm320 0Q680-537 680-520v240q0 17-11.5 28.5T640-240q-17 0-28.5-11.5T600-280v-240q0-17 11.5-28.5T640-560q17 0 28.5 11.5ZM480-760q-45 0-84.5 22.5T333-676q-32 54-87.5 85T127-560h-7q-17 0-28.5-11.5T80-600q0-17 11.5-28.5T120-640h7q42 0 78.5-21t58.5-57q34-57 91.5-89.5T480-840q67 0 124.5 32.5T696-718q22 36 58.5 57t78.5 21h7q17 0 28.5 11.5T880-600q0 17-11.5 28.5T840-560h-6q-63 0-118.5-31T628-676q-23-39-62.5-61.5T480-760ZM131.5-371.5Q120-383 120-400t11.5-28.5Q143-440 160-440t28.5 11.5Q200-417 200-400t-11.5 28.5Q177-360 160-360t-28.5-11.5Zm640 0Q760-383 760-400t11.5-28.5Q783-440 800-440t28.5 11.5Q840-417 840-400t-11.5 28.5Q817-360 800-360t-28.5-11.5Z"/>
</svg>
