<svg aria-hidden="true" viewBox="0 -960 960 960" fill="currentColor">
  <path d="M200-80q-33 0-56.5-23.5T120-160v-560q0-33 23.5-56.5T200-800h40v-40q0-17 11.5-28.5T280-880q17 0 28.5 11.5T320-840v40h320v-40q0-17 11.5-28.5T680-880q17 0 28.5 11.5T720-840v40h40q33 0 56.5 23.5T840-720v187q0 17-11.5 28.5T800-493q-17 0-28.5-11.5T760-533v-27H200v400h232q17 0 28.5 11.5T472-120q0 17-11.5 28.5T432-80H200Zm378.5-18.5Q520-157 520-240t58.5-141.5Q637-440 720-440t141.5 58.5Q920-323 920-240T861.5-98.5Q803-40 720-40T578.5-98.5ZM740-248v-92q0-8-6-14t-14-6q-8 0-14 6t-6 14v91q0 8 3 15.5t9 13.5l61 61q6 6 14 6t14-6q6-6 6-14t-6-14l-61-61Z"/>
</svg>
