<svg aria-hidden="true" viewBox="0 -960 960 960" fill="currentColor">
  <path d="M284.065-282.87h391.87q18.435 0 31.25-12.815Q720-308.5 720-326.935v-30.435q0-19.152-13.174-32.326T674.5-402.87h-389q-19.152 0-32.326 13.174T240-357.37v30.435q0 18.435 12.815 31.25 12.815 12.815 31.25 12.815ZM162.87-151.869q-37.783 0-64.392-26.609Q71.87-205.087 71.87-242.87v-474.26q0-37.783 26.61-64.392 26.608-26.609 64.391-26.609h634.26q37.783 0 64.392 26.609 26.609 26.609 26.609 64.392v474.26q0 37.783-26.609 64.392-26.609 26.609-64.392 26.609H162.87Zm0-91.001h634.26v-474.26H162.87v474.26Zm0 0v-474.26 474.26Z"/>
</svg>
