<svg aria-hidden="true" viewBox="0 -960 960 960" fill="currentColor">
  <path d="M758-80q-125 0-247-54.5T289-289Q189-389 134.5-511T80-758q0-18 12-30t30-12h162q14 0 25 9.5t13 22.5l26 140q2 16-1 27t-11 19l-97 98q20 37 47.5 71.5T347-346q31 31 65 57.5t72 48.5l94-94q9-9 23.5-13.5T630-350l138 28q14 4 23 14.5t9 23.5v162q0 18-12 30t-30 12ZM538.5-538.5Q480-597 480-680t58.5-141.5Q597-880 680-880t141.5 58.5Q880-763 880-680t-58.5 141.5Q763-480 680-480t-141.5-58.5ZM694-566q6-6 6-14v-120q0-8-6-14t-14-6q-8 0-14 6t-6 14v120q0 8 6 14t14 6q8 0 14-6Zm0-200q6-6 6-14t-6-14q-6-6-14-6t-14 6q-6 6-6 14t6 14q6 6 14 6t14-6Z"/>
</svg>
