<svg aria-hidden="true" viewBox="0 -960 960 960" fill="currentColor">
  <path d="M423.5-503.5Q400-527 400-560t23.5-56.5Q447-640 480-640t56.5 23.5Q560-593 560-560t-23.5 56.5Q513-480 480-480t-56.5-23.5ZM260-600q17 0 28.5-11.5T300-640q0-17-11.5-28.5T260-680q-17 0-28.5 11.5T220-640q0 17 11.5 28.5T260-600Zm-60 480q-17 0-28.5-11.5T160-160q0-17 11.5-28.5T200-200h89l21-84q-99-17-164.5-94.5T80-560q0-117 81.5-198.5T360-840h240q117 0 198.5 81.5T880-560q0 104-65.5 181.5T650-284l21 84h89q17 0 28.5 11.5T800-160q0 17-11.5 28.5T760-120H200Zm393-327q47-47 47-113t-47-113q-47-47-113-47t-113 47q-47 47-47 113t47 113q47 47 113 47t113-47Z"/>
</svg>
