<svg aria-hidden="true" viewBox="0 -960 960 960" fill="currentColor">
  <path d="M166.696-70.435q-37.538 0-64.269-26.73-26.731-26.732-26.731-64.27v-592.587q0-37.537 26.731-64.269 26.731-26.731 64.269-26.731h36.891v-42.391q0-17 11.5-28.5t28.5-11.5h160q17 0 28.5 11.5t11.5 28.5v42.391h37.13q36.058 0 61.736 25.533 25.678 25.532 25.678 61.641h225.173q37.783 0 64.392 26.609 26.608 26.609 26.608 64.391v418q0 37.783-26.608 64.391-26.609 26.609-64.392 26.609H568.131q0 36.109-25.678 61.761t-61.736 25.652H166.696Zm-3.109-87.413h317.13v-87.174h315.696v-425.413H480.717v-87.413h-317.13v600Zm222.87-127.174h34.5q9.195 0 15.913-6.861 6.717-6.861 6.717-16.008v-34.5q0-9.196-6.861-15.913-6.861-6.718-16.009-6.718h-34.499q-9.196 0-15.914 6.861-6.717 6.861-6.717 16.009v34.5q0 9.195 6.861 15.913 6.861 6.717 16.009 6.717Zm0-265.413h34.5q9.195 0 15.913-6.86 6.717-6.861 6.717-16.009v-34.5q0-9.196-6.861-15.913-6.861-6.718-16.009-6.718h-34.499q-9.196 0-15.914 6.861-6.717 6.861-6.717 16.009v34.5q0 9.196 6.861 15.913 6.861 6.717 16.009 6.717ZM542.87-285.022h34.5q9.195 0 15.913-6.861Q600-298.744 600-307.891v-34.5q0-9.196-6.861-15.913-6.861-6.718-16.009-6.718h-34.5q-9.195 0-15.913 6.861Q520-351.3 520-342.152v34.5q0 9.195 6.861 15.913 6.861 6.717 16.009 6.717Zm0-265.413h34.5q9.195 0 15.913-6.86Q600-564.156 600-573.304v-34.5q0-9.196-6.861-15.913-6.861-6.718-16.009-6.718h-34.5q-9.195 0-15.913 6.861Q520-616.713 520-607.565v34.5q0 9.196 6.861 15.913 6.861 6.717 16.009 6.717Zm156.413 265.413h34.499q9.196 0 15.914-6.861 6.717-6.861 6.717-16.008v-34.5q0-9.196-6.861-15.913-6.861-6.718-16.009-6.718h-34.5q-9.195 0-15.913 6.861-6.717 6.861-6.717 16.009v34.5q0 9.195 6.861 15.913 6.861 6.717 16.009 6.717Zm0-265.413h34.499q9.196 0 15.914-6.86 6.717-6.861 6.717-16.009v-34.5q0-9.196-6.861-15.913-6.861-6.718-16.009-6.718h-34.5q-9.195 0-15.913 6.861-6.717 6.861-6.717 16.009v34.5q0 9.196 6.861 15.913 6.861 6.717 16.009 6.717ZM163.587-157.848v-600 600Z"/>
</svg>
