<svg aria-hidden="true" viewBox="0 -960 960 960" fill="currentColor">
  <path d="M166.696-70.435q-37.544 0-64.272-26.728-26.728-26.728-26.728-64.272v-592.587q0-37.543 26.728-64.272 26.728-26.728 64.272-26.728h36.891v-42.391q0-17 11.5-28.5t28.5-11.5h160q17 0 28.5 11.5t11.5 28.5v42.391h37.13q36.109 0 61.761 25.533 25.653 25.532 25.653 61.641h225.173q37.783 0 64.392 26.609 26.608 26.609 26.608 64.391v418q0 37.783-26.608 64.391-26.609 26.609-64.392 26.609H568.131q0 36.109-25.653 61.761-25.652 25.652-61.761 25.652H166.696Zm219.761-214.587h34.5q9.195 0 15.913-6.837 6.717-6.837 6.717-16.032v-34.5q0-9.196-6.837-15.913-6.837-6.718-16.033-6.718h-34.499q-9.196 0-15.914 6.837-6.717 6.837-6.717 16.033v34.5q0 9.195 6.837 15.913 6.837 6.717 16.033 6.717Zm0-265.413h34.5q9.195 0 15.913-6.837 6.717-6.837 6.717-16.032v-34.5q0-9.196-6.837-15.913-6.837-6.718-16.033-6.718h-34.499q-9.196 0-15.914 6.837-6.717 6.837-6.717 16.033v34.5q0 9.196 6.837 15.913 6.837 6.717 16.033 6.717ZM542.87-285.022h34.5q9.195 0 15.913-6.837Q600-298.696 600-307.891v-34.5q0-9.196-6.837-15.913-6.837-6.718-16.033-6.718h-34.5q-9.195 0-15.913 6.837Q520-351.348 520-342.152v34.5q0 9.195 6.837 15.913 6.837 6.717 16.033 6.717Zm0-265.413h34.5q9.195 0 15.913-6.837Q600-564.109 600-573.304v-34.5q0-9.196-6.837-15.913-6.837-6.718-16.033-6.718h-34.5q-9.195 0-15.913 6.837Q520-616.761 520-607.565v34.5q0 9.196 6.837 15.913 6.837 6.717 16.033 6.717Zm156.413 265.413h34.499q9.196 0 15.914-6.837 6.717-6.837 6.717-16.032v-34.5q0-9.196-6.837-15.913-6.837-6.718-16.033-6.718h-34.5q-9.195 0-15.913 6.837-6.717 6.837-6.717 16.033v34.5q0 9.195 6.837 15.913 6.837 6.717 16.033 6.717Zm0-265.413h34.499q9.196 0 15.914-6.837 6.717-6.837 6.717-16.032v-34.5q0-9.196-6.837-15.913-6.837-6.718-16.033-6.718h-34.5q-9.195 0-15.913 6.837-6.717 6.837-6.717 16.033v34.5q0 9.196 6.837 15.913 6.837 6.717 16.033 6.717Z"/>
</svg>
