<svg aria-hidden="true" viewBox="0 -960 960 960" fill="currentColor">
  <path d="M160-80q-33 0-56.5-23.5T80-160v-600q0-33 23.5-56.5T160-840h40v-40q0-17 11.5-28.5T240-920h160q17 0 28.5 11.5T440-880v40h40q33 0 56.5 23.5T560-760h240q33 0 56.5 23.5T880-680v440q0 33-23.5 56.5T800-160H560q0 33-23.5 56.5T480-80H160Zm220-200h40q8 0 14-6t6-14v-40q0-8-6-14t-14-6h-40q-8 0-14 6t-6 14v40q0 8 6 14t14 6Zm0-280h40q8 0 14-6t6-14v-40q0-8-6-14t-14-6h-40q-8 0-14 6t-6 14v40q0 8 6 14t14 6Zm160 280h40q8 0 14-6t6-14v-40q0-8-6-14t-14-6h-40q-8 0-14 6t-6 14v40q0 8 6 14t14 6Zm0-280h40q8 0 14-6t6-14v-40q0-8-6-14t-14-6h-40q-8 0-14 6t-6 14v40q0 8 6 14t14 6Zm160 280h40q8 0 14-6t6-14v-40q0-8-6-14t-14-6h-40q-8 0-14 6t-6 14v40q0 8 6 14t14 6Zm0-280h40q8 0 14-6t6-14v-40q0-8-6-14t-14-6h-40q-8 0-14 6t-6 14v40q0 8 6 14t14 6Z"/>
</svg>
