<svg aria-hidden="true" viewBox="0 -960 960 960" fill="currentColor">
  <path d="M760-440q-17 0-28.5-11.5T720-480q0-17 11.5-28.5T760-520h80q17 0 28.5 11.5T880-480q0 17-11.5 28.5T840-440h-80Zm-24 256-64-48q-14-10-16-26t8-30q10-14 26-16t30 8l64 48q14 10 16 26t-8 30q-10 14-26 16t-30-8Zm-16-480q-14 10-30 8t-26-16q-10-14-8-30t16-26l64-48q14-10 30-8t26 16q10 14 8 30t-16 26l-64 48ZM200-200v-160h-40q-33 0-56.5-23.5T80-440v-80q0-33 23.5-56.5T160-600h160l139-84q20-12 40.5 0t20.5 35v338q0 23-20.5 35t-40.5 0l-139-84h-40v160h-80Zm100-280Zm260 134v-268q27 24 43.5 58.5T620-480q0 41-16.5 75.5T560-346Zm-120-36v-196l-98 58H160v80h182l98 58Z"/>
</svg>
