<svg aria-hidden="true" viewBox="0 -960 960 960" fill="currentColor">
  <path d="M767.413-436.413q-18.435 0-31.13-12.576-12.696-12.576-12.696-31.011t12.696-31.011q12.695-12.576 31.13-12.576H851q18.435 0 31.011 12.576T894.587-480q0 18.435-12.576 31.011T851-436.413h-83.587Zm-23.282 257.435-67.109-50.152q-14.957-10.957-17.315-28.392-2.359-17.435 8.597-32.63 10.957-15.196 28.511-17.435 17.555-2.239 32.75 8.717l66.87 50.153q14.957 10.956 17.315 28.391 2.359 17.435-8.598 32.63-10.956 15.196-28.391 17.435-17.435 2.239-32.63-8.717ZM729.565-661.13q-14.956 10.956-32.63 8.717-17.674-2.239-28.631-17.435-10.956-15.195-8.717-32.63 2.239-17.435 17.435-28.392l67.109-50.152q14.956-10.956 32.511-8.717 17.554 2.239 28.51 17.435 10.957 15.195 8.718 32.63-2.239 17.435-17.435 28.391l-66.87 50.153ZM185.413-191.869v-160h-32.826q-36.587-1.435-61.88-27.924-25.294-26.49-25.294-63.077v-74.26q0-37.544 26.728-64.272 26.728-26.729 64.272-26.729h154.739l141.152-84.956q22.87-13.674 46-.239 23.131 13.435 23.131 39.782v347.088q0 26.347-23.131 39.782-23.13 13.435-46-.239l-141.152-84.956h-33.304v160h-92.435Zm376.022-146v-284.262q30.587 24.957 49 61.848 18.413 36.892 18.413 80.283t-18.413 80.283q-18.413 36.891-49 61.848Z"/>
</svg>
