<svg aria-hidden="true" viewBox="0 -960 960 960" fill="currentColor">
  <path d="m679-251 55 55q6 6 15 6t15-6q6-6 6-15t-6-15l-54-54 55-55q6-6 6-15t-6-15q-6-6-15-6t-15 6l-55 55-55-55q-6-6-15-6t-15 6q-6 6-6 15t6 15l55 55-56 56q-6 6-6 14t6 14q6 6 15 6t15-6l55-55Zm-559 31v-180l320-80-320-80v-180q0-22 17.5-33.5T175-777l517 217h-12q-117 0-198.5 82.5T400-278v-1 1l-224 95q-20 8-38-3.5T120-220ZM680-80q-83 0-141.5-58.5T480-280q0-83 58.5-141.5T680-480q83 0 141.5 58.5T880-280q0 83-58.5 141.5T680-80Z"/>
</svg>
