<svg aria-hidden="true" viewBox="0 -960 960 960" fill="currentColor">
  <path d="M240-160h480q17 0 28.5-11.5T760-200H200q0 17 11.5 28.5T240-160Zm160-513.5Q368-707 370-755q2-44 27-78.5t56-62.5q6-5 12.5-7.5T480-906q8 0 14.5 2.5T507-896q31 28 56 62.5t27 78.5q2 48-30 81.5T480-640q-48 0-80-33.5ZM440-280h80v-240h-80v240Zm61.5-449q8.5-9 8.5-22 0-17-9.5-31T480-809q-11 13-20.5 27t-9.5 31q0 13 8.5 22t21.5 9q13 0 21.5-9Zm330 440.5Q840-297 840-310t-8.5-21.5Q823-340 810-340t-21.5 8.5Q780-323 780-310t8.5 21.5Q797-280 810-280t21.5-8.5ZM720-80H240q-50 0-85-35t-35-85v-40q0-17 11.5-28.5T160-280h200v-240q0-33 23.5-56.5T440-600h80q33 0 56.5 23.5T600-520v240h104q-2-8-3-15t-1-15q0-46 32-78t78-32q46 0 78 32t32 78q0 38-22.5 67T840-204v4q0 50-35 85t-85 35Zm-240-80Zm-40-120h80-80Zm40-484Z"/>
</svg>
