<svg aria-hidden="true" viewBox="0 -960 960 960" fill="currentColor">
  <path d="M320-154.5q-19.152 0-32.326-13.174T274.5-200v-34.5H240q-19.152 0-32.326-13.174T194.5-280v-400q0-19.152 13.174-32.326T240-725.5h34.5V-760q0-19.152 13.174-32.326T320-805.5q19.152 0 32.326 13.174T365.5-760v34.5H400q19.152 0 32.326 13.174T445.5-680v400q0 19.152-13.174 32.326T400-234.5h-34.5v34.5q0 19.152-13.174 32.326T320-154.5Zm-38.087-167.413h76.174v-316.174h-76.174v316.174ZM640-154.5q-19.152 0-32.326-13.174T594.5-200v-154.5H560q-19.152 0-32.326-13.174T514.5-400v-200q0-19.152 13.174-32.326T560-645.5h34.5V-760q0-19.152 13.174-32.326T640-805.5q19.152 0 32.326 13.174T685.5-760v114.5H720q19.152 0 32.326 13.174T765.5-600v200q0 19.152-13.174 32.326T720-354.5h-34.5V-200q0 19.152-13.174 32.326T640-154.5Zm-38.087-287.413h76.174v-116.174h-76.174v116.174ZM320-480Zm320-20Z"/>
</svg>
