<svg aria-hidden="true" viewBox="0 -960 960 960" fill="currentColor">
  <path d="M394-60q-14-8-18-24t4-30l118-206q11-19 29.5-29.5T568-360h92l58-201q10-35 37-57t61-22q48 0 78.5 36.5T916-519l-43 215q-5 28-27.5 46T794-240H545L449-74q-8 14-24.5 18T394-60Zm446-620q-33 0-56.5-23.5T760-760q0-33 23.5-56.5T840-840q33 0 56.5 23.5T920-760q0 33-23.5 56.5T840-680ZM265-499.5q-7-2.5-13-8.5L108-652q-12-12-12-28t12-28q12-12 28.5-12t28.5 12l75 75v-207q0-17 11.5-28.5T280-880q17 0 28.5 11.5T320-840v207l75-75q12-11 28.5-11.5T452-708q12 12 12 28t-12 28L308-508q-6 6-13 8.5t-15 2.5q-8 0-15-2.5Z"/>
</svg>
