<svg aria-hidden="true" viewBox="0 -960 960 960" fill="currentColor">
  <path d="M720-520q-83 0-141.5-58.5T520-720q0-82 58-141t142-59q83 0 141.5 58.5T920-720q0 83-58.5 141.5T720-520ZM240-240v20q0 25-17.5 42.5T180-160q-25 0-42.5-17.5T120-220v-286q0-7 1-14t3-13l75-213q8-24 29-39t47-15h177q-6 19-9 39t-3 41H274l-42 120h235q11 23 25.5 43t32.5 37H200v200h560v-123q21-3 41-9t39-15v247q0 25-17.5 42.5T780-160q-25 0-42.5-17.5T720-220v-20H240Zm60-120q25 0 42.5-17.5T360-420q0-25-17.5-42.5T300-480q-25 0-42.5 17.5T240-420q0 25 17.5 42.5T300-360Zm360 0q25 0 42.5-17.5T720-420q0-5-.5-10t-2.5-10q-27 0-52.5-5T616-460q-8 8-12 18.5t-4 21.5q0 25 17.5 42.5T660-360Zm-460 40v-200 200Zm520-360q8 0 14-6t6-14v-120q0-8-6-14t-14-6q-8 0-14 6t-6 14v120q0 8 6 14t14 6Zm0 80q8 0 14-6t6-14q0-8-6-14t-14-6q-8 0-14 6t-6 14q0 8 6 14t14 6Z"/>
</svg>
