<svg aria-hidden="true" viewBox="0 -960 960 960" fill="currentColor">
  <path d="M565-60q-14 8-30 4t-24-18l-96-166H166q-29 0-51.5-18T87-304L44-519q-9-48 21.5-84.5T144-640q34 0 61 22t37 57l58 201h92q22 0 40.5 10.5T462-320l118 206q8 14 3.5 30T565-60ZM120-680q-33 0-56.5-23.5T40-760q0-33 23.5-56.5T120-840q33 0 56.5 23.5T200-760q0 33-23.5 56.5T120-680Zm532 172L508-652q-6-6-8.5-13t-2.5-15q0-8 2.5-15t8.5-13l144-144q12-12 28-12t28 12q12 12 12 28.5T708-795l-75 75h207q17 0 28.5 11.5T880-680q0 17-11.5 28.5T840-640H633l75 75q11 12 11.5 28.5T708-508q-12 12-28 12t-28-12Z"/>
</svg>
