<svg aria-hidden="true" viewBox="0 -960 960 960" fill="currentColor">
  <path d="M565-60q-14 8-30 4t-24-18l-96-166H166q-29 0-51.5-18T87-304L44-519q-9-48 21.5-84.5T144-640q34 0 61 22t37 57l58 201h92q22 0 40.5 10.5T462-320l118 206q8 14 3.5 30T565-60ZM120-680q-33 0-56.5-23.5T40-760q0-33 23.5-56.5T120-840q33 0 56.5 23.5T200-760q0 33-23.5 56.5T120-680Zm482 40q0-4-12-29-10-13-15-29t-5-34q0-8 1-15.5t3-13.5q5-14 16-21.5t24-2.5q12 5 17.5 16t.5 22q-2 3-2 6v7q0 10 2.5 19t9.5 17q9 12 14 26.5t6 31.5h-60Zm128 0q-1-6-14-25-13-13-20-31t-7-38q0-9 1.5-17t4.5-15q5-13 18-19t25 0q11 5 15.5 16t-1.5 22q-2 3-2.5 6t-.5 7q0 9 3 16.5t11 15.5q13 13 19 29t8 33h-60Zm-255 0-29-201q-2-17 6.5-31.5T478-892q48-14 101.5-21t100.5-7q47 0 100.5 7T882-892q17 5 25.5 19.5T914-841l-29 201h-61l29-197q-43-11-86-17t-87-6q-44 0-87 6t-86 17l29 197h-61Zm177 412L508-372q-6-6-8.5-13t-2.5-15q0-8 2.5-15t8.5-13l144-144q12-12 28-12t28 12q12 12 12 28.5T708-515l-75 75h207q17 0 28.5 11.5T880-400q0 17-11.5 28.5T840-360H633l75 75q12 12 12 28.5T708-228q-12 12-28 12t-28-12Z"/>
</svg>
