<svg aria-hidden="true" viewBox="0 -960 960 960" fill="currentColor">
  <path d="M586-510H415l6-6q9-9 9-21.5t-9-21.5q-9-9-21-9t-21 9l-51 51q-12 12-12 28t12 28l51 51q9 9 21 9t21-9q9-9 9-21.5t-9-21.5l-6-6h180q9 0 16.5-3.5T625-464l218-254q8-10 7.5-22T840-760q-10-8-22.5-7.5T797-757L586-510ZM260-160q-41 0-75-21.5T134-240H40q-17 0-28.5-11.5T0-280v-200q0-33 23.5-56.5T80-560h40l60-167q9-24 29.5-38.5T256-780h298q21 0 39.5 10.5T623-741l19 31q7 11 5.5 24t-9.5 23l-80 93h-63l-53-53q-17-17-42-17t-42 17L257-522q-17 17-17 42t17 42l101 101q17 17 42 17t42-17l53-53h118q14 0 26-5.5t20-15.5l126-147q6-8 14.5-11t18.5-2l69 5q33 2 53 24.5t20 55.5v206q0 17-11.5 28.5T920-240h-94q-17 37-51 58.5T700-160q-41 0-75-21.5T574-240H386q-17 37-51 58.5T260-160Z"/>
</svg>
