<svg aria-hidden="true" viewBox="0 -960 960 960" fill="currentColor">
  <path d="M565-60q-14 8-30 4t-24-18l-96-166H166q-29 0-51.5-18T87-304L44-519q-9-48 21.5-84.5T144-640q34 0 61 22t37 57l58 201h92q22 0 40.5 10.5T462-320l118 206q8 14 3.5 30T565-60ZM120-680q-33 0-56.5-23.5T40-760q0-33 23.5-56.5T120-840q33 0 56.5 23.5T200-760q0 33-23.5 56.5T120-680Zm622 98q-11-5-15.5-16.5t.5-22.5q1-2 3-13 0-8-3-15.5T716-665q-13-13-20-31t-7-38q0-9 1.5-17t4.5-15q5-13 18-19t25 0q11 5 15.5 16t-1.5 22q-2 3-2.5 6t-.5 7q0 9 3 16.5t11 15.5q11 11 18 26.5t9 32.5q2 11 .5 21t-5.5 18q-5 14-17.5 21t-25.5 1Zm-124 0q-12-5-17.5-16t-.5-22q2-3 2-6v-7q0-10-2.5-19t-9.5-17q-10-13-15-29t-5-34q0-8 1-15.5t3-13.5q5-14 16-21.5t24-2.5q12 5 17.5 16t.5 22q-2 3-2 6v7q0 10 2.5 19t9.5 17q10 13 15 29t5 34q0 8-1 15.5t-3 13.5q-5 14-16 21.5t-24 2.5Zm-117-58q-11 0-19.5-7.5T471-666l-25-175q-2-17 6.5-31.5T478-892q46-13 99.5-20.5T680-920q49 0 102 7.5T882-892q17 5 25.5 19.5T914-841l-25 175q-2 11-10.5 18.5T859-640q-14 0-23-10t-7-24l24-163q-43-11-86-17t-87-6q-44 0-87 6t-86 17l24 163q2 14-7 24t-23 10Z"/>
</svg>
