<svg aria-hidden="true" viewBox="0 -960 960 960" fill="currentColor">
  <path d="M394-60q-14-8-18-24t4-30l118-206q11-19 29.5-29.5T568-360h92l58-201q10-35 37-57t61-22q48 0 78.5 36.5T916-519l-43 215q-5 28-27.5 46T794-240H545L449-74q-8 14-24.5 18T394-60Zm446-620q-33 0-56.5-23.5T760-760q0-33 23.5-56.5T840-840q33 0 56.5 23.5T920-760q0 33-23.5 56.5T840-680ZM252-508q-12-12-12-28.5t12-28.5l75-75H120q-17 0-28.5-11.5T80-680q0-17 11.5-28.5T120-720h207l-75-75q-12-12-12-28.5t12-28.5q12-12 28-12t28 12l144 144q6 6 8.5 13t2.5 15q0 8-2.5 15t-8.5 13L308-508q-12 12-28 12t-28-12Z"/>
</svg>
