<svg aria-hidden="true" viewBox="0 -960 960 960" fill="currentColor">
  <path d="M480-470ZM260-160q-41 0-75-21.5T134-240H40q-17 0-28.5-11.5T0-280v-200q0-33 23.5-56.5T80-560h40l60-167q9-24 29.5-38.5T256-780h298q21 0 39.5 10.5T623-741l19 31q11 17 5 32t-19 23q-13 8-28 5.5T574-669l-19-31H256l-70 194q-5 12-15 19t-23 7H80v160h100q8 0 14 6t6 14q0 25 17.5 42.5T260-240q25 0 42.5-17.5T320-300q0-8 6-14t14-6h280q8 0 14 6t6 14q0 25 17.5 42.5T700-240q25 0 42.5-17.5T760-300q0-8 6-14t14-6h100v-166l-68-6q-20-2-29.5-15t-7.5-28q2-15 13-27t31-10l68 6q33 3 53 25t20 55v206q0 17-11.5 28.5T920-240h-94q-17 37-51 58.5T700-160q-41 0-75-21.5T574-240H386q-17 37-51 58.5T260-160Zm326-350H415l6-6q9-9 9-21.5t-9-21.5q-9-9-21-9t-21 9l-51 51q-12 12-12 28t12 28l51 51q9 9 21 9t21-9q9-9 9-21.5t-9-21.5l-6-6h180q9 0 16.5-3.5T625-464l218-254q8-10 7.5-22T840-760q-10-8-22.5-7.5T797-757L586-510Z"/>
</svg>
