<svg aria-hidden="true" viewBox="0 -960 960 960" fill="currentColor">
  <path d="M640-280q50 0 85 35t35 85q0 50-35 85t-85 35q-38 0-68.5-22T527-120H320q-33 0-56.5-23.5T240-200v-400q0-33 23.5-56.5T320-680h240v-120h-40q-17 0-28.5-11.5T480-840q0-17 11.5-28.5T520-880h80q17 0 28.5 11.5T640-840v560Zm-280 80v-400h-40v400h40Zm80-400v400h87q4-15 13-27.5t20-22.5v-350H440Zm242.5 482.5Q700-135 700-160t-17.5-42.5Q665-220 640-220t-42.5 17.5Q580-185 580-160t17.5 42.5Q615-100 640-100t42.5-17.5ZM640-160ZM440-400Zm-80 200v-400 400Zm80-400v400-400Z"/>
</svg>
