<svg aria-hidden="true" viewBox="0 -960 960 960" fill="currentColor">
  <path d="m692-210-41-41q-6-6-15-6t-15 6q-6 6-6 15t6 15l43 43q12 12 28 12t28-12l99-99q6-6 6-15t-6-15q-6-6-15-6t-15 6l-97 97ZM578.5-98.5Q520-157 520-240t58.5-141.5Q637-440 720-440t141.5 58.5Q920-323 920-240T861.5-98.5Q803-40 720-40T578.5-98.5ZM420-120v-560h140v-120h-40q-17 0-28.5-11.5T480-840q0-17 11.5-28.5T520-880h80q17 0 28.5 11.5T640-840v291q0 19-11 34t-28 23q-32 15-58.5 37T496-406q-26 35-41 77t-15 89q0 20 3 38.5t8 36.5q5 17-4.5 31T420-120Zm-100 0q-33 0-56.5-23.5T240-200v-400q0-33 23.5-56.5T320-680h40v560h-40Z"/>
</svg>
