<svg aria-hidden="true" viewBox="0 -960 960 960" fill="currentColor">
  <path d="m660-547 110-64q10-6 10-17t-10-17l-110-64q-9-5-20-5t-20 5l-110 64q-10 6-10 17t10 17l110 64q9 5 20 5t20-5Zm0 121 70-40q9-5 14.5-14.5T750-501v-61l-90 52q-9 5-20 5t-20-5l-90-52v61q0 11 5.5 20.5T550-466l70 40q9 5 20 5t20-5ZM140-160q-25 0-42.5-17.5T80-220q0-25 17.5-42.5T140-280q25 0 42.5 17.5T200-220q0 25-17.5 42.5T140-160Zm180 0q-16 0-28-9.5T277-195q-11-63-56.5-107T112-357q-15-2-23.5-14.5T80-400q0-17 10.5-28.5T116-438q94 12 161 79t80 161q2 16-9 27t-28 11Zm160 0q-17 0-28.5-11T438-199q-14-128-104.5-217T115-518q-16-2-25.5-14T80-560q0-17 10.5-29t25.5-10q161 13 274 125.5T518-201q2 17-9.5 29T480-160Zm120 0q0-109-40.5-203.5t-111-165Q378-599 283-639.5T80-680v-40q0-33 23.5-56.5T160-800h640q33 0 56.5 23.5T880-720v480q0 33-23.5 56.5T800-160H600Z"/>
</svg>
