<svg aria-hidden="true" viewBox="0 -960 960 960" fill="currentColor">
  <path d="M680-320H575q-35-109-111.5-192T281-640h399q17 0 28.5 11.5T720-600v240q0 17-11.5 28.5T680-320Zm120 160H600q0-20-1.5-40t-4.5-40h206v-480H160v46q-20-3-40-4.5T80-680v-40q0-33 23.5-56.5T160-800h640q33 0 56.5 23.5T880-720v480q0 33-23.5 56.5T800-160Zm-480 0q-16 0-28-9.5T277-195q-11-63-56.5-107T112-357q-15-2-23.5-14.5T80-400q0-17 11-28.5t26-9.5q94 12 160.5 79T357-198q2 16-9 27t-28 11Zm160 0q-17 0-28.5-11T438-199q-14-128-104.5-217T115-518q-16-2-25.5-14T80-560q0-17 10.5-29t25.5-10q161 13 274 125.5T518-201q2 17-9.5 29T480-160Zm-340 0q-25 0-42.5-17.5T80-220q0-25 17.5-42.5T140-280q25 0 42.5 17.5T200-220q0 25-17.5 42.5T140-160Z"/>
</svg>
