<svg aria-hidden="true" viewBox="0 -960 960 960" fill="currentColor">
  <path d="M480-480Zm320 320H600q0-20-1.5-40t-4.5-40h206v-480H160v46q-20-3-40-4.5T80-680v-40q0-33 23.5-56.5T160-800h640q33 0 56.5 23.5T880-720v480q0 33-23.5 56.5T800-160Zm-480 0q-16 0-28-9.5T277-195q-11-63-56.5-107T112-357q-15-2-23.5-14.5T80-400q0-17 11-28.5t26-9.5q94 12 160.5 79T357-198q2 16-9 27t-28 11Zm160 0q-17 0-28.5-11T438-199q-14-128-104.5-217T115-518q-16-2-25.5-14T80-560q0-17 10.5-29t25.5-10q161 13 274 125.5T518-201q2 17-9.5 29T480-160Zm-350 0q-21 0-35.5-14.5T80-210q0-21 14.5-35.5T130-260q21 0 35.5 14.5T180-210q0 21-14.5 35.5T130-160Z"/>
</svg>
