<svg aria-hidden="true" viewBox="0 -960 960 960" fill="currentColor">
  <path d="M160-108q-24 8-42-10t-10-42l129-361q15-42 58-51.5t74 21.5l182 182q31 31 21.5 74T521-237L160-108Zm401-371q-9-9-9-21t9-21l203-203q32-32 77-32t77 32l4 4q8 8 8 20t-9 21q-9 9-21 9t-21-9l-3-3q-14-14-35-14t-35 14L602-478q-8 8-20 8t-21-9ZM401-639q-9-9-9-21t9-21l3-3q14-14 14-34t-14-34l-6-6q-8-8-8-20t9-21q9-9 21-9t21 9l5 5q32 32 32 76t-32 76l-4 4q-8 8-20 8t-21-9Zm80 80q-9-9-9-21t9-21l123-123q14-14 14-35t-14-35l-44-44q-8-8-8-20t9-21q9-9 21-9t21 9l43 43q32 32 32 77t-32 77L522-558q-8 8-20 8t-21-9Zm160 160q-9-9-9-21t9-21l43-43q32-32 77-32t77 32l44 44q8 8 8 20t-9 21q-9 9-21 9t-21-9l-43-43q-14-14-35-14t-35 14l-44 44q-8 8-20 8t-21-9Z"/>
</svg>
