<svg aria-hidden="true" viewBox="0 -960 960 960" fill="currentColor">
  <path d="M161.913-97.478q-27.348 9.435-47.859-10.957-20.51-20.391-11.076-47.739l129.239-361.717q17.153-47.5 65.892-58.435 48.739-10.935 84.043 24.369l175.544 175.544Q593-341.109 582.065-292.37q-10.934 48.74-58.435 65.892l-361.717 129Zm406.5-379.609q-9.717-9.717-9.717-22.913t9.717-22.913l197.261-197.022q33.435-33.435 80.707-33.435 47.271 0 80.706 33.435l3.522 3.522q8.717 8.717 9.076 21.913t-9.598 23.152q-9.717 9.718-22.913 9.718t-23.152-9.957l-2.761-2.761q-14-14-35-14t-35 14L613.239-476.087q-8.717 8.717-21.913 8.717-13.195 0-22.913-9.717ZM401.239-644.5q-9.717-9.718-9.837-22.674-.119-12.957 9.837-22.913l2.522-2.761q12.565-12.565 12.206-31.489-.358-18.924-15.076-33.641l-5.761-5.522q-8.717-8.718-8.837-22.033-.119-13.315 9.598-23.032 9.718-9.718 23.033-9.479 13.315.239 23.033 9.957l4.521 4.522q34.392 34.391 34.631 79.587.239 45.195-31.522 76.956l-3.761 3.522q-8.956 8.956-21.793 8.956t-22.794-9.956Zm83.587 83.587q-9.717-9.717-9.717-22.794 0-13.076 9.717-22.793l118.217-118.217q14-14 14-35t-14-35l-42.086-42.087q-8.718-8.718-8.718-21.913 0-13.196 9.718-22.913 9.717-9.718 22.793-9.718 13.076 0 22.794 9.718l41.326 41.326q33.434 33.434 33.434 80.587 0 47.152-33.434 80.587L529.413-559.913q-8.717 8.717-21.793 8.717-13.076 0-22.794-9.717ZM652.239-393.5q-9.717-9.717-9.717-22.793 0-13.077 9.717-22.794l39.652-39.891q33.435-33.435 80.707-33.435 47.272 0 80.707 33.435l42.087 42.326q8.717 8.717 8.717 21.793 0 13.077-9.717 22.794-9.718 9.717-22.794 9.717t-22.793-9.717l-41.326-41.087q-14-14-35-14t-35 14L696.826-392.5q-8.717 8.718-21.793 8.718-13.076 0-22.794-9.718Z"/>
</svg>
