<svg aria-hidden="true" viewBox="0 -960 960 960" fill="currentColor">
  <path d="M161.913-97.478q-27.348 10.196-48.239-10.576-20.892-20.772-10.696-48.12l129.239-361.717q16.153-47.739 64.892-59.055 48.739-11.315 85.043 24.989l175.544 175.544Q594-340.109 582.685-291.37q-11.315 48.74-59.055 64.892l-361.717 129Zm59.174-117.87L492.804-312 317.739-487.065l-96.652 271.717Zm347.326-261.739q-9.717-9.717-9.717-22.913t9.717-22.913l197.261-197.022q33.435-33.435 80.707-33.435 47.271 0 80.706 33.435l3.522 3.522q8.717 8.717 9.076 21.913t-9.598 23.152q-9.717 9.718-22.913 9.718t-23.152-9.957l-2.761-2.761q-14-14-35-14t-35 14L613.239-476.087q-8.717 8.717-21.913 8.717-13.195 0-22.913-9.717ZM401.239-644.5q-9.717-9.718-9.837-22.674-.119-12.957 9.837-22.913l2.522-2.761q12.565-12.565 12.206-31.489-.358-18.924-15.076-33.641l-5.761-5.522q-8.717-8.718-8.837-22.033-.119-13.315 9.598-23.032 9.718-9.718 23.033-9.479 13.315.239 23.033 9.957l4.521 4.522q34.392 34.391 34.631 79.587.239 45.195-31.522 76.956l-3.761 3.522q-8.956 8.956-21.793 8.956t-22.794-9.956Zm83.587 83.587q-9.717-9.717-9.717-22.794 0-13.076 9.717-22.793l118.217-118.217q14-14 14-35t-14-35l-42.086-42.087q-8.957-8.957-8.837-22.033.119-13.076 9.837-22.793 9.717-9.718 22.793-9.718 13.076 0 22.794 9.718l41.326 41.326q33.434 33.434 33.434 80.587 0 47.152-33.434 80.587L529.413-559.913q-8.956 8.956-21.913 8.837-12.956-.12-22.674-9.837ZM652.239-393.5q-9.717-9.717-9.717-22.793 0-13.077 9.717-22.794l39.652-39.891q33.435-33.435 80.707-33.435 47.272 0 80.707 33.435l42.087 42.326q8.956 8.956 8.837 21.913-.12 12.957-9.837 22.674-9.718 9.717-22.794 9.717t-22.793-9.717l-41.326-41.087q-14-14-35-14t-35 14L696.826-392.5q-8.956 8.957-21.913 8.837-12.956-.119-22.674-9.837ZM221.087-215.348Z"/>
</svg>
