<svg aria-hidden="true" viewBox="0 -960 960 960" fill="currentColor">
  <path d="M330.022-71.87q-29.827 0-41.761-27.847-11.935-27.848 9.695-49.479l512.609-513.848q21.631-22.391 49.598-10.531 27.968 11.86 27.968 42.357v513.848q0 19.153-13.174 32.327T842.63-71.87H330.022Zm387.108-91h80v-357.717l-80 80v277.717ZM285.705-596.779q-12.683-12.691-12.683-30.141 0-17.45 13.956-27.689 33-23.522 71.5-35.522t78.022-12q39.522 0 78.022 12 38.5 12 71.5 35.522 13.956 10.239 14.456 27.16t-13.183 30.67q-9.513 9.518-23.969 10.377-14.457.858-27.652-7.62-22.283-15.804-47.753-23.326T436.5-624.87q-25.951 0-51.421 7.522t-47.753 23.326q-13.196 8.478-27.652 7.62-14.457-.859-23.969-10.377Zm-103.777-104.67q-12.819-11.921-12.7-29.258.12-17.337 13.076-28.054 54.761-45.283 119.641-68.402 64.881-23.12 134.555-23.12t135.293 23q65.62 23 121.142 68.522 12.956 10.478 13.076 27.435.119 16.956-12.837 29.913-9.718 9.717-24.294 9.837-14.576.119-26.293-9.359-44.761-36.283-97.712-53.424Q491.925-771.5 436.5-771.5q-55.418 0-107.372 17.141t-96.715 53.424q-11.717 9.478-26.294 9.359-14.576-.12-24.191-9.873ZM436.5-441.5q-24 0-42-18t-18-42q0-24 18-42t42-18q24 0 42 18t18 42q0 24-18 42t-42 18Z"/>
</svg>
