<svg aria-hidden="true" viewBox="0 -960 960 960" fill="currentColor">
  <path d="M289.13-369.13q-39.956-39.957-60.576-88.598Q207.935-506.37 207.935-560q0-51.717 20.38-101.076 20.381-49.359 60.815-89.794l52.066 52.066q-30.239 27.478-44.761 64.119-14.522 36.642-14.522 74.685 0 35.522 14.402 71.924 14.402 36.402 44.881 66.88L289.13-369.13Zm481.088 99.348-52.305-52.305q48.717-48.717 73.076-111.337Q815.348-496.043 815.348-560q0-63.957-24.359-126.576-24.359-62.62-73.076-111.337l52.305-52.305q58.434 61.435 88.652 135.87Q889.087-639.913 889.087-560q0 79.913-28.717 154.348-28.718 74.435-90.152 135.87Zm-580.436 0q-57.956-60.957-88.413-135.631Q70.913-480.087 70.913-560q0-79.913 30.217-154.348 30.218-74.435 88.652-135.87l52.305 52.305q-48.717 48.717-73.076 111.337Q144.652-623.957 144.652-560q0 63.957 24.359 126.576 24.359 62.62 73.076 111.337l-52.305 52.305ZM670.87-369.13l-52.066-52.066q30.479-27.478 44.881-64.119 14.402-36.642 14.402-74.685 0-35.522-14.402-71.924-14.402-36.402-44.881-66.88l52.066-52.066q40.434 40.435 59.554 89.794 19.12 49.359 21.641 101.076 0 51.717-20.38 101.076-20.381 49.359-60.815 89.794ZM276.413-81.913l136.674-397.109q-16.957-14.239-27.772-34.793Q374.5-534.37 374.5-560q0-44.152 30.674-74.826Q435.848-665.5 480-665.5q44.152 0 74.826 30.674Q585.5-604.152 585.5-560q0 25.63-10.815 45.946-10.815 20.315-27.772 35.032L683.587-81.913h-85.5l-26.717-80H389.391l-27.478 80h-85.5Zm140.174-160h126.826L480-428.043l-63.413 186.13Z"/>
</svg>
