<svg aria-hidden="true" viewBox="0 -960 960 960" fill="currentColor">
  <path d="M336-80q-26 0-36.5-24.5T308-148l504-505q19-20 43.5-9.5T880-625v505q0 17-11.5 28.5T840-80H336Zm384-80h80v-368l-80 80v288ZM291-591q-12-12-12-28.5t13-26.5q33-24 71.5-36t78.5-12q40 0 78.5 12t71.5 36q13 10 13.5 26T593-591q-9 9-22.5 9.5T545-589q-23-17-49.5-25t-53.5-8q-27 0-53.5 8T339-589q-12 8-25.5 7.5T291-591ZM189-694q-12-11-12-27.5t12-26.5q55-46 120-69t133-23q68 0 133.5 23T697-748q12 10 12 26t-12 28q-9 9-22.5 9t-24.5-9q-45-37-98.5-54.5T442-766q-56 0-108.5 17.5T236-694q-11 9-24.5 9t-22.5-9Zm253 258q-24 0-42-18t-18-42q0-24 18-42t42-18q24 0 42 18t18 42q0 24-18 42t-42 18Z"/>
</svg>
