<svg aria-hidden="true" viewBox="0 -960 960 960" fill="currentColor">
  <path d="M200-120q-33 0-56.5-23.5T120-200v-120q0-17 11.5-28.5T160-360q17 0 28.5 11.5T200-320v120h120q17 0 28.5 11.5T360-160q0 17-11.5 28.5T320-120H200Zm560 0H640q-17 0-28.5-11.5T600-160q0-17 11.5-28.5T640-200h120v-120q0-17 11.5-28.5T800-360q17 0 28.5 11.5T840-320v120q0 33-23.5 56.5T760-120ZM120-640v-120q0-33 23.5-56.5T200-840h120q17 0 28.5 11.5T360-800q0 17-11.5 28.5T320-760H200v120q0 17-11.5 28.5T160-600q-17 0-28.5-11.5T120-640Zm640 0v-120H640q-17 0-28.5-11.5T600-800q0-17 11.5-28.5T640-840h120q33 0 56.5 23.5T840-760v120q0 17-11.5 28.5T800-600q-17 0-28.5-11.5T760-640ZM367-367q-47-47-47-113t47-113q47-47 113-47t113 47q47 47 47 113t-47 113q-47 47-113 47t-113-47Zm169.5-56.5Q560-447 560-480t-23.5-56.5Q513-560 480-560t-56.5 23.5Q400-513 400-480t23.5 56.5Q447-400 480-400t56.5-23.5ZM480-480Z"/>
</svg>
