<svg aria-hidden="true" viewBox="0 -960 960 960" fill="currentColor">
  <path d="M168.5-128.5Q160-137 160-150v-92q-18-5-30-19t-14-34L84-637q-2-17 10.5-30t29.5-13q16 0 27 10.5t13 25.5l25 284h171q33 0 56.5 23.5T440-280q0 17-11.5 28.5T400-240v90q0 13-8.5 21.5T370-120q-13 0-21.5-8.5T340-150v-90H220v90q0 13-8.5 21.5T190-120q-13 0-21.5-8.5Zm343-3Q500-143 500-160v-400q-14-18-34.5-29T420-600q-20 0-37 7t-31 19q-9 8-20.5 11t-23.5 3q-20 0-33.5-14.5T264-609q17-99 94.5-165T540-840q104 0 181.5 66T816-609q4 20-10 34.5T772-560q-12 0-23.5-3T728-574q-13-13-30.5-19.5T660-600q-25 0-45.5 11T580-560v400q0 17-11.5 28.5T540-120q-17 0-28.5-11.5Zm140 0Q640-143 640-160v-160q0-17 11.5-28.5T680-360h160q17 0 28.5 11.5T880-320v160q0 17-11.5 28.5T840-120q-17 0-28.5-11.5T800-160v-120h-80v120q0 17-11.5 28.5T680-120q-17 0-28.5-11.5Z"/>
</svg>
