<svg aria-hidden="true" viewBox="0 -960 960 960" fill="currentColor">
  <path d="M280-440v-80q0-52.435-31.674-98.522t-95.739-52.935V-720q0-53.089 37.162-90.251 37.162-37.162 90.251-37.162h400q53.089 0 90.251 37.162 37.162 37.162 37.162 90.251v48.543q-64.304 13.566-95.859 56.294Q680-572.435 680-520v80H280Zm-74.5 336.5q-19.152 0-32.326-13.174T160-149v-43.587q-53.109 0-90.261-37.162Q32.587-266.911 32.587-320v-200q0-36.569 23.576-60.078t60.25-23.509q36.674 0 60.13 23.509Q200-556.569 200-520v160h560v-160q0-36.674 23.509-60.13 23.509-23.457 60.078-23.457 36.674 0 60.25 23.509T927.413-520v200q0 53.089-37.162 90.251-37.162 37.162-90.251 37.162V-149q0 19.152-13.174 32.326T754.5-103.5q-19.152 0-32.326-13.174T709-149v-43.587H251V-149q0 19.152-13.174 32.326T205.5-103.5Z"/>
</svg>
