<svg aria-hidden="true" viewBox="0 -960 960 960" fill="currentColor">
  <path d="M727-240H600q-17 0-28.5-11.5T560-280q0-17 11.5-28.5T600-320h127l-35-35q-11-12-11.5-28.5T692-412q12-12 28-12t28 12l104 104q12 12 12 28t-12 28L748-148q-12 12-28 12t-28-12q-12-12-11.5-28.5T692-205l35-35Zm-487 0-86 86q-10 10-22 5t-12-19v-552q0-33 23.5-56.5T200-800h480q33 0 56.5 23.5T760-720v203q-10-2-20-2.5t-20-.5q-10 0-20 .5t-20 2.5v-203H200v400h283q-2 10-2.5 20t-.5 20q0 10 .5 20t2.5 20H240Zm80-320h240q17 0 28.5-11.5T600-600q0-17-11.5-28.5T560-640H320q-17 0-28.5 11.5T280-600q0 17 11.5 28.5T320-560Zm0 160h120q17 0 28.5-11.5T480-440q0-17-11.5-28.5T440-480H320q-17 0-28.5 11.5T280-440q0 17 11.5 28.5T320-400Zm-120 80v-400 400Z"/>
</svg>
