<svg aria-hidden="true" viewBox="0 -960 960 960" fill="currentColor">
  <path d="M116.413-153.304q-33.065 0-43.38-31.446-10.316-31.446 16.032-50.598L434.5-492.87v-67.847q0-19.153 12.793-32.446 12.794-13.294 31.946-13.055 25.044.761 41.946-16.141 16.902-16.902 16.902-41.945 0-24.283-16.522-41.185T481-722.391q-17.761 0-32.783 9.902-15.021 9.902-21.782 26.424-5.718 12.435-16.533 19.011-10.815 6.576-24.489 6.576-25.109 0-38.283-20.892-13.174-20.891-2.978-43.761 18.196-40.391 54.707-64.445Q435.37-813.631 480-813.631q61.826 0 105.457 42.75 43.63 42.75 43.63 104.577 0 49.434-29.076 87.75-29.076 38.315-74.511 53.75v31.934l345.435 257.522q26.348 19.391 15.913 50.718-10.435 31.326-43.261 31.326H116.413Zm136.022-91h455.13L480-414.022 252.435-244.304Z"/>
</svg>
