<svg aria-hidden="true" viewBox="0 -960 960 960" fill="currentColor">
  <path d="M240-80q-33 0-56.5-23.5T160-160v-76q0-21 9-39.5t26-31.5q43-35 77.5-78.5T330-480h-50q-17 0-28.5-11.5T240-520q0-17 11.5-28.5T280-560h32l-40-66q-14-23-11-50.5t23-47.5l168-168q12-12 28-12t28 12l168 168q20 20 23 47.5T688-626l-40 66h32q17 0 28.5 11.5T720-520q0 17-11.5 28.5T680-480h-50q23 51 57.5 94.5T765-307q16 14 25.5 32t9.5 39v76q0 33-23.5 56.5T720-80H240Zm268.5-571.5Q520-663 520-680t-11.5-28.5Q497-720 480-720t-28.5 11.5Q440-697 440-680t11.5 28.5Q463-640 480-640t28.5-11.5Z"/>
</svg>
