<svg aria-hidden="true" viewBox="0 -960 960 960" fill="currentColor">
  <path d="M340-80q-26 0-43-17t-17-43q0-26 17-43t43-17q26 0 43 17t17 43q0 26-17 43t-43 17Zm440 0q-26 0-43-17t-17-43q0-26 17-43t43-17q26 0 43 17t17 43q0 26-17 43t-43 17ZM540-656 384-844q36-18 78-27t90-9q35 0 67.5 6.5T681-854q22 10 23.5 31T687-785L540-656Zm-60 416q-83 0-141.5-58.5T280-440v-308l-20-24q-14-17-23.5-22.5T216-800q-17 0-30 9.5T166-767q-6 13-14.5 20t-19.5 7q-23 0-37-16t-6-35q15-39 49-64t78-25q30 0 55 14t51 44l428 516q17 20 6.5 43T720-240H480Zm0-80h154L360-652v212q0 50 35 85t85 35Zm17-166Z"/>
</svg>
