<svg aria-hidden="true" viewBox="0 -960 960 960" fill="currentColor">
  <path d="M615.5-504.5Q630-519 630-540t-14.5-35.5Q601-590 580-590t-35.5 14.5Q530-561 530-540t14.5 35.5Q559-490 580-490t35.5-14.5Zm-200 0Q430-519 430-540t-14.5-35.5Q401-590 380-590t-35.5 14.5Q330-561 330-540t14.5 35.5Q359-490 380-490t35.5-14.5Zm173 191.5q48.5-33 71.5-87H300q23 54 71.5 87T480-280q60 0 108.5-33Zm-249 164.5q-65.5-28.5-114-77t-77-114Q120-405 120-480t28.5-140.5q28.5-65.5 77-114t114-77Q405-840 480-840t140.5 28.5q65.5 28.5 114 77t77 114Q840-555 840-480t-28.5 140.5q-28.5 65.5-77 114t-114 77Q555-120 480-120t-140.5-28.5ZM496-620q17 0 38.5-6.5T556-656q0-12-8-21t-20-9q-8 0-15.5 3t-16.5 3q-21 0-35.5-14.5T446-730q0-11 3.5-18.5T460-759q-19 2-37 5t-35 10q-1 3-1.5 7t-.5 7q0 45 32.5 77.5T496-620Z"/>
</svg>
