<svg aria-hidden="true" viewBox="0 -960 960 960" fill="currentColor">
  <path d="M385-264q-43-24-69-66-6-10-.5-20t17.5-10h294q11 0 17 10t0 20q-26 42-69 66t-95 24q-52 0-95-24Zm-40.5-170.5Q330-449 330-470t14.5-35.5Q359-520 380-520t35.5 14.5Q430-491 430-470t-14.5 35.5Q401-420 380-420t-35.5-14.5Zm200 0Q530-449 530-470t14.5-35.5Q559-520 580-520t35.5 14.5Q630-491 630-470t-14.5 35.5Q601-420 580-420t-35.5-14.5ZM480-80q-149 0-253.5-103.5T120-436l81-30q-1 7-1 13v13q0 117 81.5 198.5T480-160q117 0 198.5-81.5T760-440q0-16-1.5-31.5T753-502q-60-7-113.5-30.5T541-594l213-80q41 48 63.5 107.5T840-440q0 75-28.5 140.5t-77 114q-48.5 48.5-114 77T480-80ZM136-505q-7-20-11.5-41t-4.5-43q0-91 51-163t129-112q-2-4-2.5-7.5t-.5-8.5q0-17 11.5-28.5T337-920q14 0 24 8t14 20q22-5 43.5-8t44.5-3q67 0 127.5 26T697-802l85-32q16-6 30.5 1t20.5 23q6 16-.5 30.5T810-759L136-505Z"/>
</svg>
