<svg aria-hidden="true" viewBox="0 -960 960 960" fill="currentColor">
  <path d="M340-67.087q-27.435 0-45.511-18.195-18.076-18.196-18.076-45.631t18.076-45.511Q312.565-194.5 340-194.5q27.435 0 45.511 18.076 18.076 18.076 18.076 45.511 0 27.435-18.076 45.63Q367.435-67.086 340-67.086Zm447.413 0q-27.435 0-45.63-18.195-18.196-18.196-18.196-45.631t18.196-45.511q18.195-18.076 45.63-18.076 27.435 0 45.511 18.076Q851-158.348 851-130.913q0 27.435-18.076 45.63-18.076 18.196-45.511 18.196ZM550.283-656 386.152-853.565q40.305-19.914 84.218-29.75 43.913-9.837 91.913-9.837 36.196 0 70.369 7.097 34.174 7.098 65.327 21.533 23.195 10.957 24.695 33.391 1.5 22.435-18.695 40.392L550.283-656ZM480-230.435q-86.348 0-147.239-60.891-60.892-60.891-60.892-147.239v-313.5L254.5-773.196q-12.565-15.326-21.707-20.467-9.141-5.141-19.423-5.141-14.131 0-25.218 7.706-11.087 7.707-17.13 19.315-8.631 11.805-18.087 21.196-9.457 9.391-23.087 9.391-25.631 0-41.066-17.913-15.434-17.913-6.717-38.826 15.718-40.435 50.794-66.152 35.076-25.718 80.989-25.718 31.435 0 58.109 14.359 26.673 14.359 52.195 44.359l432.066 521.5q20.587 23.587 7.815 51.37-12.772 27.782-44.033 27.782H480Zm0-91h147.782l-264.912-321v203.87q0 48.804 34.163 82.967T480-321.435Zm15.326-160.5Z"/>
</svg>
