<svg aria-hidden="true" viewBox="0 -960 960 960" fill="currentColor">
  <path d="M385-264q-43-24-69-66-6-10-.5-20t17.5-10h294q11 0 17 10t0 20q-26 42-69 66t-95 24q-52 0-95-24Zm-40.5-170.5Q330-449 330-470t14.5-35.5Q359-520 380-520t35.5 14.5Q430-491 430-470t-14.5 35.5Q401-420 380-420t-35.5-14.5Zm200 0Q530-449 530-470t14.5-35.5Q559-520 580-520t35.5 14.5Q630-491 630-470t-14.5 35.5Q601-420 580-420t-35.5-14.5ZM480-80q-75 0-140.5-28.5t-114-77q-48.5-48.5-77-114T120-440q0-32 5-62t16-59l80 14q-11 25-16 51.5t-5 55.5q0 117 81.5 198.5T480-160q117 0 198.5-81.5T760-440q0-16-2-31.5t-5-30.5q-81-9-150-48T485-651l70-41q32 37 72.5 63t88.5 39q-25-39-61.5-68.5T573-704l84-50q83 47 133 129.5T840-440q0 75-28.5 140.5t-77 114q-48.5 48.5-114 77T480-80ZM200-615l413-155q-32-26-70-39.5T463-823q-95 0-169.5 57.5T200-615Zm-64 110q-7-20-11.5-41t-4.5-43q0-91 51-163t129-112q-2-4-2.5-7.5t-.5-8.5q0-17 11.5-28.5T337-920q14 0 24 8t14 20q22-5 43.5-8t44.5-3q67 0 127.5 26T697-802l85-32q16-6 30.5 1t20.5 23q6 16-.5 30.5T810-759L136-505Zm271-188Z"/>
</svg>
