<svg aria-hidden="true" viewBox="0 -960 960 960" fill="currentColor">
  <path d="M811.718-376.413v-207.174h124.304v207.174H811.718ZM231.136-262.348q-77.854 0-142.506-46.63-64.652-46.631-64.652-108.805V-542.13q0-62.174 64.652-108.848t142.506-46.674q43.598 0 74.22 9.978t56.579 21.217q19.717 8.479 37.853 14.598 18.136 6.12 38.863 6.12h331.632v331.478H438.579q-20.731 0-38.829 6.12-18.098 6.119-37.815 14.598-25.957 11.239-56.579 21.217-30.622 9.978-74.22 9.978Zm.016-82.869q30.125 0 53.497-7.739 23.373-7.74 44.117-16.142 25.93-11.554 51.842-19.793 25.913-8.239 58.044-8.239h248.761v-165.74H438.652q-32.131 0-58.044-8.239-25.912-8.239-51.842-19.793-20.744-8.402-44.103-16.142-23.36-7.739-53.467-7.739-46.718 0-85.533 21.789-38.815 21.79-38.815 50.842v41.435h20.717q8.478 0 14.598 6.119 6.119 6.12 6.119 14.598 0 8.478-6.119 14.598-6.12 6.119-14.598 6.119h-20.717v41.407q0 28.985 38.845 50.822 38.845 21.837 85.459 21.837ZM106.848-480Z"/>
</svg>
