<svg aria-hidden="true" viewBox="0 -960 960 960" fill="currentColor">
  <path d="M811.718-376.413v-207.174h124.304v207.174H811.718ZM231.136-262.348q-77.854 0-142.506-46.63-64.652-46.631-64.652-108.805V-542.13q0-62.174 64.652-108.848t142.506-46.674q43.598 0 74.22 9.978t56.579 21.217q19.717 8.479 37.853 14.598 18.136 6.12 38.863 6.12h331.632v331.478H438.579q-20.731 0-38.829 6.12-18.098 6.119-37.815 14.598-25.957 11.239-56.579 21.217-30.622 9.978-74.22 9.978ZM86.13-459.283h41.435q8.478 0 14.598-6.119 6.119-6.12 6.119-14.598 0-8.478-6.119-14.598-6.12-6.119-14.598-6.119H86.13q-8.478 0-14.598 6.119-6.12 6.12-6.12 14.598 0 8.478 6.12 14.598 6.12 6.119 14.598 6.119Z"/>
</svg>
