<svg aria-hidden="true" viewBox="0 -960 960 960" fill="currentColor">
  <path d="M354.932-103.978q-122.215 0-207.421-85.119-85.207-85.12-85.207-207.316 0-110.354 71.13-191.557 71.131-81.204 177.718-97.4v-55q0-65.205 45.223-110.429 45.224-45.223 110.429-45.223 35.913 0 67.729 15.598 31.815 15.598 54.011 43.032L801-569.5l23.718-19.718 117.695 147.609L825-348.63 708.304-496.239l23.718-19.718-211.979-267.652q-10.239-12-23.739-18.619-13.5-6.62-29.5-6.62-29 0-48.619 19.739-19.62 19.739-19.62 48.822v55.156q106.587 16.196 177.718 97.329 71.13 81.132 71.13 191.389 0 122.196-85.133 207.316-85.132 85.119-207.348 85.119Zm.046-91q83.478 0 142.457-58.92 58.978-58.92 58.978-142.515 0-83.595-58.92-142.515-58.919-58.92-142.515-58.92-83.478 0-142.576 58.92t-59.098 142.515q0 83.595 59.098 142.515 59.098 58.92 142.576 58.92Z"/>
</svg>
