<svg aria-hidden="true" viewBox="0 -960 960 960" fill="currentColor">
  <path d="M80-160v-188q0-24 13-43.5t35-29.5l112-50v-80q0-23 12-41.5t32-29.5l156-78v-60h-40q-17 0-28.5-11.5T360-800q0-17 11.5-28.5T400-840h40v-40q0-17 11.5-28.5T480-920q17 0 28.5 11.5T520-880v40h40q17 0 28.5 11.5T600-800q0 17-11.5 28.5T560-760h-40v60l156 78q20 11 32 29.5t12 41.5v80l112 50q22 10 35 29.5t13 43.5v188q0 33-23.5 56.5T800-80H600q-17 0-28.5-11.5T560-120v-80q0-33-23.5-56.5T480-280q-33 0-56.5 23.5T400-200v80q0 17-11.5 28.5T360-80H160q-33 0-56.5-23.5T80-160Zm442.5-277.5Q540-455 540-480t-17.5-42.5Q505-540 480-540t-42.5 17.5Q420-505 420-480t17.5 42.5Q455-420 480-420t42.5-17.5Z"/>
</svg>
