<svg aria-hidden="true" viewBox="0 -960 960 960" fill="currentColor">
  <path d="m160-840 65 130q7 14 20 22t28 8q30 0 46-25.5t2-52.5l-41-82h80l65 130q7 14 20 22t28 8q30 0 46-25.5t2-52.5l-41-82h80l65 130q7 14 20 22t28 8q30 0 46-25.5t2-52.5l-41-82h120q33 0 56.5 23.5T880-760v560q0 33-23.5 56.5T800-120H160q-33 0-56.5-23.5T80-200v-560q0-33 23.5-56.5T160-840Zm192 600h256q13 0 22-9t8-23q-2-18-13-34t-29-27q-22-14-51-20.5t-65-6.5q-36 0-65 6.5T364-333q-18 11-29 27t-13 34q-2 13 7 22.5t23 9.5Zm184.5-183.5Q560-447 560-480t-23.5-56.5Q513-560 480-560t-56.5 23.5Q400-513 400-480t23.5 56.5Q447-400 480-400t56.5-23.5Z"/>
</svg>
