<svg aria-hidden="true" viewBox="0 -960 960 960" fill="currentColor">
  <path d="M480-360q-50 0-85-35t-35-85q0-50 35-85t85-35q50 0 85 35t35 85q0 50-35 85t-85 35ZM324-111.5Q251-143 197-197t-85.5-127Q80-397 80-480t31.5-156Q143-709 197-763t127-85.5Q397-880 480-880t156 31.5Q709-817 763-763t85.5 127Q880-563 880-480t-31.5 156Q817-251 763-197t-127 85.5Q563-80 480-80t-156-31.5ZM480-160q133 0 226.5-93.5T800-480q0-133-93.5-226.5T480-800q-133 0-226.5 93.5T160-480q0 133 93.5 226.5T480-160Zm0-320Zm141.5 141.5Q680-397 680-480t-58.5-141.5Q563-680 480-680t-141.5 58.5Q280-563 280-480t58.5 141.5Q397-280 480-280t141.5-58.5Z"/>
</svg>
