<svg aria-hidden="true" viewBox="0 -960 960 960" fill="currentColor">
  <path d="M127-167q-47-47-47-113t47-113q47-47 113-47t113 47q47 47 47 113t-47 113q-47 47-113 47t-113-47Zm480 0q-47-47-47-113t47-113q47-47 113-47t113 47q47 47 47 113t-47 113q-47 47-113 47t-113-47Zm-367-33q33 0 56.5-23.5T320-280q0-33-23.5-56.5T240-360q-33 0-56.5 23.5T160-280q0 33 23.5 56.5T240-200Zm480 0q33 0 56.5-23.5T800-280q0-33-23.5-56.5T720-360q-33 0-56.5 23.5T640-280q0 33 23.5 56.5T720-200ZM426-386q-22-22-22-54t22-54q22-22 54-22t54 22q22 22 22 54t-22 54q-22 22-54 22t-54-22Zm-59-221q-47-47-47-113t47-113q47-47 113-47t113 47q47 47 47 113t-47 113q-47 47-113 47t-113-47Zm169.5-56.5Q560-687 560-720t-23.5-56.5Q513-800 480-800t-56.5 23.5Q400-753 400-720t23.5 56.5Q447-640 480-640t56.5-23.5ZM480-720ZM240-280Zm480 0Z"/>
</svg>
