<svg aria-hidden="true" viewBox="0 -960 960 960" fill="currentColor">
  <path d="M110.913-123.587v-198.326q0-85.283 60.174-145.391 60.174-60.109 145.326-60.109h34.5v-270.674q0-53.886 37.658-91.606 37.659-37.72 91.457-37.72 53.798 0 91.429 37.72 37.63 37.72 37.63 91.606v270.674h34.5q85.283 0 145.391 60.109 60.109 60.108 60.109 145.391v198.326q0 37.538-26.731 64.269-26.731 26.731-64.269 26.731H201.913q-37.538 0-64.269-26.731-26.731-26.731-26.731-64.269Zm91 0h70.674v-114.5q0-19.152 13.174-32.326t32.326-13.174q19.152 0 32.326 13.174t13.174 32.326v114.5H434.5v-114.5q0-19.152 13.174-32.326T480-283.587q19.152 0 32.326 13.174t13.174 32.326v114.5h70.913v-114.5q0-19.152 13.174-32.326t32.326-13.174q19.152 0 32.326 13.174t13.174 32.326v114.5h70.674v-198.326q0-47.848-33.326-81.174-33.326-33.326-81.174-33.326H316.413q-47.708 0-81.104 33.326t-33.396 81.174v198.326Z"/>
</svg>
