<svg aria-hidden="true" viewBox="0 -960 960 960" fill="currentColor">
  <path d="m601.913-501.174-91.478-34.305q-2.718-44.891-35.185-76.499-32.468-31.609-78.837-31.609-31.565 0-57.491 15.382-25.925 15.382-41.009 40.553h-97.718q16.283-53.153 56.5-91.587 40.218-38.435 94.218-50.153v-74.195H334.5q-18.913-.957-31.25-13.652-12.337-12.696-12.337-31.848t13.174-32.326q13.174-13.174 32.326-13.174h180q15.957 0 31.674 2.119 15.717 2.12 34.435 10.076 24.435 9.435 30.913 30.805 6.478 21.369-8.392 41-8.478 11.761-23.793 15.12-15.315 3.358-29.772-1.941-8.261-3.179-16.876-4.679-8.616-1.5-18.189-1.5h-74.5v74.195q69.239 15.435 114.62 71.011 45.38 55.576 45.38 129.294v27.913Zm-47.5 360.522 238-74q-5-9-14.5-15.5t-21.5-6.5H552.022q-25.087 0-40.848-2t-32.761-7.987l-57-18.957q-16-4.989-23-19.956-7-14.966-2-30.93 5-15.965 19.5-23.448 14.5-7.483 30.5-2.483l44.87 14.717q15.565 4.761 36.467 7.522t57.718 3.522h10.945q0-11-6.5-21t-15.5-13l-234-86H280v220.717l274.413 75.283Zm-24.109 84.696L280-126.282q-10.152 26-36.163 41.402Q217.826-69.478 189-69.478h-69q-37.538 0-64.269-26.731Q29-122.941 29-160.478v-272.587q0-37.538 26.731-64.269Q82.462-524.065 120-524.065h219.696q7.956 0 15.913 1.619 7.956 1.62 15.152 4.098l234.043 86.761q35.153 12.957 56.968 44.511 21.815 31.554 21.815 70.424h72.826q52.989 0 90.082 31.924 37.092 31.924 37.092 88.076 0 24.63-12.935 39.043-12.935 14.414-38.848 22.892l-249.282 77.76q-12.435 4.24-26.109 4.36-13.674.119-26.109-3.36ZM116.413-156.652h76.174v-280h-76.174v280Zm253.065-431ZM765.253-554.5q-34.188 0-58.525-24.343-24.337-24.343-24.337-58.527 0-22.195 14.457-53.108 14.456-30.913 51.174-86.631 1.761-2.761 17.239-9.239 2.761 0 17.239 9 36.478 55.239 51.055 86.346 14.576 31.107 14.576 53.632 0 34.184-24.346 58.527Q799.44-554.5 765.253-554.5Z"/>
</svg>
