<svg aria-hidden="true" viewBox="0 -960 960 960" fill="currentColor">
  <path d="m601.913-501.174-232.435-86.478H200.195q16.283-53.153 56.5-91.587 40.218-38.435 94.218-50.153v-74.195H334.5q-18.913-.957-31.25-13.652-12.337-12.696-12.337-31.848t13.174-32.326q13.174-13.174 32.326-13.174h180q15.957 0 31.674 2.119 15.717 2.12 34.435 10.076 24.435 9.435 30.913 30.805 6.478 21.369-8.392 41-8.478 11.761-23.793 15.12-15.315 3.358-29.794-1.881-8.239-3.239-16.88-4.739-8.641-1.5-18.163-1.5h-74.5v74.195q69.239 15.435 114.62 71.011 45.38 55.576 45.38 129.294v27.913ZM29-151.152v-291q0-33.718 24.098-57.815 24.097-24.098 57.815-24.098 33.717 0 57.696 24.098 23.978 24.097 23.978 57.815v291q0 33.717-23.978 57.696-23.979 23.978-57.696 23.978-33.718 0-57.815-23.978Q29-117.435 29-151.152ZM528.543-73.13l-255.717-72.478v-378.457h67.109q8.195 0 16.032 1.619 7.837 1.62 15.794 4.098l268.391 99.652q18.304 6.674 30.75 23.859 12.446 17.185 12.446 35.25 0 19.087-13.065 31.011t-30.631 11.924H532.261q-8.109 0-14.555-1.218-6.445-1.217-13.554-3.934l-43.087-15.805q-9.435-3.478-18.63 1.239-9.196 4.718-11.674 13.153-2.479 9.435 1.119 17.869 3.598 8.435 13.033 11.913l54.695 19.326q5.827 2.196 14.49 3.414 8.663 1.217 15.489 1.217h268.5q37.739 0 61.62 23.359 23.88 23.358 23.88 62.141L584.043-74.891q-11.673 4.24-27.13 4.74-15.457.5-28.37-2.98ZM765.261-554.5q-34.196 0-58.533-24.337-24.337-24.337-24.337-58.533 0-22.195 14.457-53.108 14.456-30.913 51.174-86.631 1.761-2.761 17.239-9.239 2.761 0 17.239 9 36.478 55.239 51.055 86.391 14.576 31.153 14.576 53.587 0 34.196-24.337 58.533-24.337 24.337-58.533 24.337Z"/>
</svg>
