<svg aria-hidden="true" viewBox="0 -960 960 960" fill="currentColor">
  <path d="M160-480q-33 0-56.5-23.5T80-560v-240q0-33 23.5-56.5T160-880h640q33 0 56.5 23.5T880-800v240q0 33-23.5 56.5T800-480h-80v-160q0-33-23.5-56.5T640-720H320q-33 0-56.5 23.5T240-640v160h-80Zm160 0v-160h320v160H320Zm-1 80q15 0 26.5 9t11.5 23q0 69-46.5 118.5T195-200q-15 0-25-11.5T160-239q0-16 9.5-28t24.5-12q37 0 62-26.5t25-63.5q0-14 11.5-22.5T319-400Zm319 0q-15 0-26.5 9T600-368q0 69 46.5 118.5T762-200q15 0 25-11.5t10-27.5q0-16-9.5-28T763-279q-37 0-62-26.5T676-369q0-14-11.5-22.5T638-400ZM480-160q-17 0-28.5-11.5T440-200v-160q0-17 11.5-28.5T480-400q17 0 28.5 11.5T520-360v160q0 17-11.5 28.5T480-160Z"/>
</svg>
