<svg aria-hidden="true" viewBox="0 -960 960 960" fill="currentColor">
  <path d="M163.826-472.826q-37.783 0-64.391-26.609-26.61-26.608-26.61-64.391v-234.261q0-37.783 26.61-64.391 26.608-26.609 64.391-26.609h632.348q37.783 0 64.391 26.609 26.609 26.608 26.609 64.391v234.261q0 37.783-26.609 64.391-26.608 26.609-64.391 26.609h-75.217v-159.043q0-37.783-26.609-64.392-26.609-26.609-64.392-26.609H330.044q-37.783 0-64.392 26.609-26.609 26.609-26.609 64.392v159.043h-75.217Zm163.826 0v-161.435h304.696v161.435H327.652Zm-8.702 70.435q16.963 0 30.017 10.345 13.055 10.345 13.055 26.437 0 71.392-47.942 122.924-47.941 51.533-119.08 51.533-17.357 0-28.929-13.1-11.571-13.1-11.571-31.326t10.769-31.9q10.77-13.674 27.774-13.674 35.272 0 59.103-25.444 23.832-25.444 23.832-60.969 0-15.728 13.005-25.277 13.005-9.549 29.967-9.549Zm318.382 0q-16.962 0-30.017 10.345-13.054 10.345-13.054 26.437 0 71.392 47.873 122.924 47.872 51.533 118.909 51.533 17.46 0 29.1-13.1t11.64-31.326q0-18.226-10.77-31.781-10.769-13.554-27.774-13.554-35.271 0-59.103-25.514-23.832-25.515-23.832-61.138 0-15.728-13.004-25.277-13.005-9.549-29.968-9.549ZM480-151.391q-19.152 0-32.326-13.174T434.5-196.891v-160q0-19.152 13.174-32.326T480-402.391q19.152 0 32.326 13.174t13.174 32.326v160q0 19.152-13.174 32.326T480-151.391Z"/>
</svg>
