<svg aria-hidden="true" viewBox="0 -960 960 960" fill="currentColor">
  <path d="M275-800h485q33 0 56.5 23.5T840-720v485l-80-80v-405H355l-80-80Zm385 380q0-8 6-14t14-6h20q8 0 14 6t6 14v20q0 9-3.5 17.5T706-369l-51-51h5ZM560-600h120q17 0 28.5 11.5T720-560v25q0 8-6 14t-14 6h-20q-8 0-14-6t-6-14v-5h-80v45l-60-60v-5q0-17 11.5-28.5T560-600Zm-2 82Zm-154 74Zm-43-156 60 60H300v120h80v-5q0-8 6-14t14-6h20q8 0 14 6t6 14v25q0 17-11.5 28.5T400-360H280q-17 0-28.5-11.5T240-400v-160q0-17 11.5-28.5T280-600h81ZM168-793l73 73h-41v480h407L55-792q-12-12-12-28.5T55-849q12-12 28.5-12t28.5 12l736 736q12 12 12 28t-12 28q-12 12-28.5 12T791-57L687-160H200q-33 0-56.5-23.5T120-240v-480q0-25 13.5-44.5T168-793Z"/>
</svg>
