<svg aria-hidden="true" viewBox="0 -960 960 960" fill="currentColor">
  <path d="M791-57 687-160H200q-33 0-56.5-23.5T120-240v-487l-65-65q-12-12-12-28.5T55-849q12-12 28.5-12t28.5 12l736 736q12 12 12 28t-12 28q-12 12-28.5 12T791-57ZM280-360h120q17 0 28.5-11.5T440-400v-25q0-8-6-14t-14-6h-20q-8 0-14 6t-6 14v5h-80v-127l-45-45v1q-7 5-11 13t-4 18v160q0 17 11.5 28.5T280-360Zm560 125L706-369q7-5 10.5-13.5T720-400v-20q0-8-6-14t-14-6h-20q-8 0-14 6t-6 14h-5l-75-75v-45h80v5q0 8 6 14t14 6h20q8 0 14-6t6-14v-25q0-17-11.5-28.5T680-600H560q-17 0-28.5 11.5T520-560v5L275-800h485q33 0 56.5 23.5T840-720v485Z"/>
</svg>
