<svg aria-hidden="true" viewBox="0 -960 960 960" fill="currentColor">
  <path d="m765.913-76.109-77.283-75.76H260q-95.109 0-161.261-66.153-66.152-66.152-66.152-161.261 0-77.956 48.098-140.228 48.097-62.272 124.293-79.511 2.522-6.565 4.804-13.826 2.283-7.261 4.805-14.587L78.261-763.761q-11.718-11.717-11.718-29.315t11.718-29.315q11.717-11.718 29.315-11.718t29.315 11.718l687.653 687.652q11.717 11.717 11.717 29.315t-11.717 29.316q-11.718 11.717-29.316 12.097-17.598.38-29.315-12.098Zm103.109-127.913L316.978-755.304q35-24.957 76.533-38.174 41.532-13.218 86.489-13.218 118.196 0 201.25 81.859t85.685 199.815q69.717 10.631 115.098 63.446 45.38 52.815 45.38 123.011 0 40.435-16.076 75.609-16.076 35.174-42.315 58.934Z"/>
</svg>
