<svg aria-hidden="true" viewBox="0 -960 960 960" fill="currentColor">
  <path d="M260.717-151.869q-94.347 0-161.239-65.153-66.891-65.152-66.891-159.261 0-80.391 47.358-143.663 47.359-63.272 125.033-80.75 26.435-92.956 102.631-150.195 76.195-57.24 172.391-57.24 118.196 0 201.25 81.74 83.054 81.739 85.685 199.695 69.717 10.631 115.098 63.805 45.38 53.174 45.38 123.608 0 78.109-54.652 132.761Q818.109-151.869 740-151.869H521.913v-282.413l36.478 35.717q11.718 11.717 28.935 11.717 17.218 0 29.696-12.478 11.717-11.717 11.717-29.315t-11.717-29.315L511.826-562.913Q498.391-576.348 480-576.348t-31.826 13.435L342.978-457.956q-11.717 11.717-12.098 28.935-.38 17.217 12.098 29.695 11.718 11.718 28.935 12.098 17.217.38 29.696-11.337l36.478-35.717v282.413h-177.37Z"/>
</svg>
