<svg aria-hidden="true" viewBox="0 -960 960 960" fill="currentColor">
  <path d="M260-160q-91 0-155.5-63T40-377q0-78 47-139t123-78q17-72 85-137t145-65q33 0 56.5 23.5T520-716v242l36-35q11-11 27.5-11t28.5 12q11 11 11 28t-11 28L508-348q-6 6-13 8.5t-15 2.5q-8 0-15-2.5t-13-8.5L348-452q-11-11-11.5-27.5T348-508q11-11 27.5-11.5T404-509l36 35v-242q-76 14-118 73.5T280-520h-20q-58 0-99 41t-41 99q0 58 41 99t99 41h480q42 0 71-29t29-71q0-42-29-71t-71-29h-60v-80q0-48-22-89.5T600-680v-93q74 35 117 103.5T760-520q69 8 114.5 59.5T920-340q0 75-52.5 127.5T740-160H260Zm220-358Z"/>
</svg>
