<svg aria-hidden="true" viewBox="0 -960 960 960" fill="currentColor">
  <path d="M260.717-151.869q-94.347 0-161.239-65.153-66.891-65.152-66.891-159.261 0-80.391 47.358-143.663 47.359-63.272 125.033-80.75 26.435-92.956 102.631-150.195 76.195-57.24 172.391-57.24 118.196 0 201.25 81.74 83.054 81.739 85.685 199.695 69.717 10.631 115.098 63.805 45.38 53.174 45.38 123.608 0 78.109-55.011 132.761-55.011 54.653-133.119 54.653H260.717Zm152.087-147.044q8.957 0 17.033-2.978 8.076-2.979 14.793-9.696l166.848-166.609q12.479-12.478 12.479-30.195 0-17.718-12.479-30.196-12.478-12.478-30.195-12.478-17.718 0-30.196 12.478L412.043-399.783l-54.804-54.804q-11.717-11.717-29.315-11.717t-29.315 11.717q-12.479 12.478-12.479 30.076t12.479 29.315l82.369 83.609q6.718 6.717 14.794 9.696 8.076 2.978 17.032 2.978Z"/>
</svg>
