<svg aria-hidden="true" viewBox="0 -960 960 960" fill="currentColor">
  <path d="m869.022-204.022-65.652-63.891q16.521-14 24.782-31.719 8.261-17.72 8.261-39.749 0-40.228-28.043-68.271-28.044-28.044-68.37-28.044h-63.587v-83.587q0-81.511-57.451-138.962Q561.511-715.696 480-715.696q-27 0-51.163 6.62-24.163 6.62-45.967 19.663l-65.892-65.891q35-24.957 76.533-38.174 41.532-13.218 86.489-13.218 118.196 0 201.25 81.859t85.685 199.815q69.717 10.631 115.098 63.446 45.38 52.815 45.38 123.011 0 40.435-16.076 75.609-16.076 35.174-42.315 58.934ZM765.913-76.109l-77.283-75.76H260q-95.1 0-161.257-66.157-66.156-66.157-66.156-161.257 0-77.956 48.098-140.228 48.097-62.272 124.293-79.511 2.522-6.565 4.804-13.826 2.283-7.261 4.805-14.587L78.261-763.761q-11.718-11.717-11.718-29.315t11.718-29.315q11.717-11.718 29.315-11.718t29.315 11.718l687.653 687.652q11.717 11.717 11.717 29.315t-11.717 29.316q-11.718 11.717-28.919 11.717-17.202 0-29.712-11.718ZM260-242.87h337.63L287.348-553.152q-1.522 9.804-2.402 18.724-.881 8.92-.881 18.732H260q-56.514 0-96.463 39.961-39.95 39.96-39.95 96.489t39.95 96.452Q203.486-242.87 260-242.87Zm333.239-235.413ZM442.37-398.13Z"/>
</svg>
