<svg aria-hidden="true" viewBox="0 -960 960 960" fill="currentColor">
  <path d="M260.717-151.869q-94.347 0-161.239-65.153-66.891-65.152-66.891-159.261 0-80.391 47.358-143.663 47.359-63.272 125.033-80.75 23.957-81.717 87.174-136.598 63.218-54.88 145.935-67.597v330.174l-32.891-32.131q-11.718-11.717-28.816-11.717-17.097 0-29.576 12.478-11.717 11.717-11.717 29.315t11.717 29.316l101.37 101.369q13.435 13.435 31.826 13.435t31.826-13.435l101.37-101.369q11.717-11.718 12.098-28.935.38-17.218-12.098-29.696-11.718-11.717-28.816-12.098-17.097-.38-29.576 11.337l-32.891 32.131v-330.174q103.717 14.478 173.294 92.978 69.576 78.5 71.728 185.217 69.717 10.631 115.098 63.805 45.38 53.174 45.38 123.608 0 78.109-54.652 132.761Q818.109-151.869 740-151.869H260.717Z"/>
</svg>
