<svg aria-hidden="true" viewBox="0 -960 960 960" fill="currentColor">
  <path d="M260.717-151.869q-94.363 0-161.246-65.153-66.884-65.152-66.884-159.261 0-80.391 47.358-143.663 47.359-63.272 125.033-80.75 26.435-92.956 102.631-150.195 76.195-57.24 172.391-57.24 118.196 0 201.25 81.74 83.054 81.739 85.685 199.695 69.717 10.631 115.098 63.805 45.38 53.174 45.38 123.608 0 78.089-55.011 132.751-55.011 54.663-133.119 54.663H529.087q-37.537 0-64.269-26.732-26.731-26.731-26.731-64.269v-192.934l-36.478 36.478q-11.718 11.718-29.316 11.718-17.597 0-29.315-11.718-11.717-11.717-11.717-29.315t11.717-29.315l105.196-104.957q6.861-6.913 14.865-9.793 8.004-2.881 16.961-2.881 8.957 0 16.961 2.881 8.004 2.88 14.865 9.793l105.196 104.957q11.717 11.717 11.717 29.315t-11.717 29.315q-11.718 11.718-29.315 11.718-17.598 0-29.316-11.718l-36.478-36.478v192.934h217.37q40.565 0 68.847-28.282 28.283-28.283 28.283-68.848t-28.283-68.848q-28.282-28.282-68.847-28.282h-62.87v-83.587q0-81.512-57.451-138.963Q561.511-717.13 480-717.13q-82.043 0-139.228 58.739T283.587-517.13h-22.87q-56.811 0-96.97 40.158-40.16 40.158-40.16 96.967t40.16 96.972q40.159 40.163 96.97 40.163h51.87q19.152 0 32.326 13.174t13.174 32.326q0 19.153-13.174 32.327t-32.326 13.174h-51.87ZM480-434.5Z"/>
</svg>
