<svg aria-hidden="true" viewBox="0 -960 960 960" fill="currentColor">
  <path d="M260.717-151.869q-94.347 0-161.239-65.153-66.891-65.152-66.891-159.261 0-80.391 47.358-143.663 47.359-63.272 125.033-80.75 26.435-92.956 102.631-150.195 76.195-57.24 172.391-57.24 118.196 0 201.25 81.74 83.054 81.739 85.685 199.695 69.717 10.631 115.098 63.805 45.38 53.174 45.38 123.608 0 78.109-55.011 132.761-55.011 54.653-133.119 54.653H260.717Zm152.087-147.044q8.957 0 17.153-2.978 8.195-2.979 14.913-9.696l166.608-166.609q12.479-12.478 12.359-30.195-.12-17.718-12.598-30.196-12.478-12.478-30.076-12.478t-30.076 12.478L412.043-399.783l-54.804-54.804q-12.478-12.478-29.315-12.478-16.837 0-29.315 12.478-12.479 12.478-12.479 29.696 0 17.217 12.479 29.695l82.369 83.609q6.718 6.717 14.794 9.696 8.076 2.978 17.032 2.978ZM260.717-242.87h478.566q40.565 0 68.847-28.282 28.283-28.283 28.283-68.848t-28.283-68.848q-28.282-28.282-68.847-28.282h-62.87v-83.587q0-81.566-57.424-138.989Q561.565-717.13 480-717.13q-82.043 0-139.228 58.739T283.587-517.13h-22.87q-56.804 0-96.967 40.163T123.587-380q0 56.804 40.163 96.967t96.967 40.163ZM480-480Z"/>
</svg>
