<svg aria-hidden="true" viewBox="0 -960 960 960" fill="currentColor">
  <path d="M260-151.869q-93.87 0-160.641-64.913-66.772-64.914-66.772-158.68 0-80.372 47.478-143.227 47.478-62.855 124.913-80.333 17.957-71.522 85.478-136.641 67.522-65.12 144.761-65.12 35.631 0 61.163 24.816 25.533 24.815 25.533 59.967v241.283l32.891-32.131q11.718-11.717 28.831-11.717 17.114 0 29.561 12.478 11.717 11.717 11.717 29.315t-11.717 29.316l-101.37 101.369q-6.861 6.913-14.865 9.794-8.004 2.88-16.961 2.88-8.957 0-16.961-2.88-8.004-2.881-14.865-9.794l-101.37-101.369q-11.717-11.718-12.098-28.935-.38-17.218 12.098-29.696 11.718-11.717 28.816-12.098 17.097-.38 29.576 11.337l32.891 32.131v-237.696q-73.609 15.435-114.054 73.978-40.446 58.544-40.446 121.305h-22.87q-56.811 0-96.97 40.159-40.16 40.16-40.16 96.971 0 57.043 39.95 97.087Q203.486-242.87 260-242.87h480q40.326 0 68.37-28.043 28.043-28.044 28.043-69.087 0-40.565-28.043-68.848-28.044-28.282-69.087-28.282h-61.196v-82.153q0-46.804-20.804-86.63-20.805-39.826-55.37-68.826v-104.718q74.957 35 119.033 103.739 44.076 68.74 45.989 150.696 69.717 10.631 115.098 63.446 45.38 52.815 45.38 123.011 0 77.79-54.662 132.243Q818.089-151.869 740-151.869H260Zm220-370.435Z"/>
</svg>
