<svg aria-hidden="true" viewBox="0 -960 960 960" fill="currentColor">
  <path d="M260-160q-91 0-155.5-63T40-377q0-78 47-139t123-78q25-92 100-149t170-57q117 0 198.5 81.5T760-520q69 8 114.5 59.5T920-340q0 75-52.5 127.5T740-160H260Zm0-80h480q42 0 71-29t29-71q0-42-29-71t-71-29h-60v-80q0-83-58.5-141.5T480-720q-83 0-141.5 58.5T280-520h-20q-58 0-99 41t-41 99q0 58 41 99t99 41Zm220-240Zm28.5 148.5Q520-343 520-360t-11.5-28.5Q497-400 480-400t-28.5 11.5Q440-377 440-360t11.5 28.5Q463-320 480-320t28.5-11.5Zm0-140Q520-483 520-500v-100q0-17-11.5-28.5T480-640q-17 0-28.5 11.5T440-600v100q0 17 11.5 28.5T480-460q17 0 28.5-11.5Z"/>
</svg>
