<svg aria-hidden="true" viewBox="0 -960 960 960" fill="currentColor">
  <path d="M157.37-111.869q-19.153 0-32.327-13.174t-13.174-32.327v-136.826q0-9.195 3.359-17.532t10.315-15.294L466.521-668l-24.499-24.5q-13.392-13.391-13.153-33.5.24-20.109 14.392-34.261 13.391-13.391 33.739-13.391t34.739 13.63l41.5 42.261L670.5-835.5q13.63-13.631 33.859-13.391 20.228.239 33.859 13.869l95.282 95.044q13.631 13.63 13.87 33.978.239 20.348-13.392 33.978L716.239-554.761 760.5-510.5q13.152 13.152 13.152 33.5t-13.391 33.739Q746.109-429.109 726-428.989q-20.109.12-33.5-14.033L668-466.521 327.022-125.543q-6.957 6.956-15.294 10.315-8.337 3.359-17.532 3.359H157.37Zm45.5-91.001h73.934L605.935-534 534-605.935 202.87-276.804v73.934Z"/>
</svg>
