<svg aria-hidden="true" viewBox="0 -960 960 960" fill="currentColor">
  <path d="M160-240q-33 0-56.5-23.5T80-320v-447l-25-25q-12-12-12-28.5T55-849q12-12 28.5-12t28.5 12l736 736q12 12 12 28t-12 28q-12 12-28.5 12T791-57L607-240H160Zm720 45L755-320h45v-480H275l-80-80h605q33 0 56.5 23.5T880-800v605ZM160-320h367l-80-80H280q-17 0-28.5-11.5T240-440q0-17 11.5-28.5T280-480h87l-40-40h-47q-17 0-28.5-11.5T240-560q0-17 11.5-28.5T280-600h25v58L160-687v367Zm515-80-80-80h85q17 0 28.5 11.5T720-440q0 17-11.5 28.5T680-400h-5ZM555-520l-80-80h205q17 0 28.5 11.5T720-560q0 17-11.5 28.5T680-520H555ZM435-640l-80-80h325q17 0 28.5 11.5T720-680q0 17-11.5 28.5T680-640H435Zm-91 136Zm171-56Z"/>
</svg>
