<svg aria-hidden="true" viewBox="0 -960 960 960" fill="currentColor">
  <path d="M360-320q33 0 56.5-23.5T440-400q0-33-23.5-56.5T360-480q-33 0-56.5 23.5T280-400q0 33 23.5 56.5T360-320Zm296.5-23.5Q680-367 680-400t-23.5-56.5Q633-480 600-480t-56.5 23.5Q520-433 520-400t23.5 56.5Q567-320 600-320t56.5-23.5Zm-120-200Q560-567 560-600t-23.5-56.5Q513-680 480-680t-56.5 23.5Q400-633 400-600t23.5 56.5Q447-520 480-520t56.5-23.5ZM480-80q-83 0-156-31.5T197-197q-54-54-85.5-127T80-480q0-83 31.5-156T197-763q54-54 127-85.5T480-880q83 0 156 31.5T763-763q54 54 85.5 127T880-480q0 83-31.5 156T763-197q-54 54-127 85.5T480-80Zm0-80q134 0 227-93t93-227q0-134-93-227t-227-93q-134 0-227 93t-93 227q0 134 93 227t227 93Zm0-320Z"/>
</svg>
