<svg aria-hidden="true" viewBox="0 -960 960 960" fill="currentColor">
  <path d="m196-120-6-51-8-4q-4-2-11-7l-48 20-44-76 41-31v-21l-41-32 44-76 48 20q5-3 9.5-6t9.5-5l6-51h88l6 51 4 2 4 2q2 1 5 3l6 4 48-20 44 76-41 31v22l219-127-45 79 12 9-158 92-31 54-48-20q-5 3-9.5 6t-9.5 5l-6 51h-88Zm1.5-202.5Q180-305 180-280t17.5 42.5Q215-220 240-220t42.5-17.5Q300-255 300-280t-17.5-42.5Q265-340 240-340t-42.5 17.5ZM396-560l-6-51q-2-2-5-3t-5-3v220l-15-26-45 19v-204l-40-70 40-31v-21l-41-32 44-76 48 20q5-3 9.5-6t9.5-5l6-51h88l6 51 8 4q4 2 11 7l48-20 44 76-41 31v21l41 32-44 76-48-20q-5 3-9.5 6t-9.5 5l-6 51h-88Zm1.5-202.5Q380-745 380-720t17.5 42.5Q415-660 440-660t42.5-17.5Q500-695 500-720t-17.5-42.5Q465-780 440-780t-42.5 17.5ZM676-120l-6-51-8-4q-4-2-11-7l-48 20-44-76 41-31v-21l-41-31 44-77 48 20q3-2 4-2.5l15-7.5-216-152h48l4-36 195 136h63l6 51 4 2 4 2q2 1 5 3l6 4 48-20 44 76-41 31v21l41 32-44 76-48-20q-5 3-9.5 6t-9.5 5l-6 51h-88Zm1.5-202.5Q660-305 660-280t17.5 42.5Q695-220 720-220t42.5-17.5Q780-255 780-280t-17.5-42.5Q745-340 720-340t-42.5 17.5Z"/>
</svg>
