<svg aria-hidden="true" viewBox="0 -960 960 960" fill="currentColor">
  <path d="M480-74.022q-85.63 0-145.565-59.934Q274.5-193.891 274.5-279.522q0-85.63 59.935-145.565T480-485.022q85.63 0 145.565 59.935T685.5-279.522q0 85.631-59.935 145.566Q565.63-74.022 480-74.022Zm-234.261-434L104.696-648.826Q91.022-662.5 91.522-681.272t14.413-31.207q78.195-67.478 174.152-103.717Q376.043-852.435 480-852.435q103.957 0 199.913 36.239 95.957 36.239 174.152 103.717 13.913 12.435 14.413 31.207t-13.174 32.446L714.261-508.022q-12.435 12.435-31.826 13.555-19.392 1.119-35.544-10.837-36.521-27.566-78.685-41.848-42.163-14.283-88.206-14.283-46.043 0-88.206 14.283-42.164 14.282-78.685 41.848-16.152 11.956-35.544 10.837-19.391-1.12-31.826-13.555Z"/>
</svg>
