<svg aria-hidden="true" viewBox="0 -960 960 960" fill="currentColor">
  <path d="M480-100q-79 0-148-30t-120.5-81.5Q160-263 130-332t-30-148q0-79 30-148t81.5-120.5Q263-800 332-830t148-30v-52q0-14 12.5-18.5T514-926l112 112q6 6 6 14t-6 14L514-674q-9 9-21.5 4.5T480-688v-52q-108 0-184 76t-76 184q0 66 30.5 122.5T332-266q16-28 47.5-47.5T452-338q-3-21-8-42t-12-39q-11 9-24 14t-28 5q-33 0-56.5-23.5T300-480v-40q0-8-1.5-16.5T294-553q-4-10 2.5-18.5T314-579q21 1 46 6t47 16q22 11 37.5 29.5T460-480q0 9-1.5 16.5T453-448q-13-10-26-18t-27-14q17 13 39 40t41 64q20-49 50-96.5t70-87.5q-23 16-44 34t-41 38q-7-11-11-24.5t-4-27.5q0-42 29-71t71-29h40q14 0 27-3t24-9q12-6 21 0t9 17q0 25-4.5 58.5t-17.5 64Q686-482 662-461t-62 21q-15 0-28.5-4T547-455q-7 19-16 50.5T517-337q38 7 67 26t44 45q47-33 76.5-83T739-460q1-8 7-14t14-6h80q8 0 14.5 6t5.5 14q-4 75-35 141t-82.5 114.5Q691-156 623.5-128T480-100Z"/>
</svg>
