<svg aria-hidden="true" viewBox="0 -960 960 960" fill="currentColor">
  <path d="M480-80q-83 0-141.5-58.5T280-280q0-83 58.5-141.5T480-480q83 0 141.5 58.5T680-280q0 83-58.5 141.5T480-80Zm0-80q50 0 85-35t35-85q0-50-35-85t-85-35q-50 0-85 35t-35 85q0 50 35 85t85 35ZM251-503 109-645q-12-12-11.5-28.5T110-701q77-67 172-103t198-36q103 0 198 36t172 103q12 11 12.5 27.5T851-645L709-503q-11 11-28 12t-31-10q-37-29-80-44t-90-15q-47 0-90 15t-80 44q-14 11-31 10t-28-12Zm35-77q42-30 91.5-45T480-640q53 0 101.5 14.5T674-582l88-88q-62-44-133.5-67T480-760q-77 0-148.5 23T198-670l88 90Zm194-60Zm0 360Z"/>
</svg>
