<svg aria-hidden="true" viewBox="0 -960 960 960" fill="currentColor">
  <path d="M480-74.022q-85.63 0-145.565-59.934Q274.5-193.891 274.5-279.522q0-85.63 59.935-145.565T480-485.022q85.63 0 145.565 59.935T685.5-279.522q0 85.631-59.935 145.566Q565.63-74.022 480-74.022Zm0-87.413q49.043 0 83.565-34.522 34.522-34.521 34.522-83.565 0-49.043-34.522-83.684-34.522-34.642-83.565-34.642t-83.565 34.642q-34.522 34.641-34.522 83.684 0 49.044 34.522 83.565 34.522 34.522 83.565 34.522ZM245.739-508.022 104.696-648.826q-13.674-13.658-13.174-32.438t14.413-31.215q78.195-67.478 174.113-103.717 95.918-36.239 199.913-36.239 103.996 0 199.952 36.239 95.957 36.239 174.152 103.717 13.913 12.435 14.413 31.215t-13.174 32.438L714.261-508.022q-12.52 12.417-31.869 13.545-19.349 1.129-35.501-10.827-36.521-27.566-78.665-41.848-42.143-14.283-88.206-14.283t-88.226 14.283q-42.164 14.282-78.685 41.848-16.152 11.956-35.501 10.827-19.349-1.128-31.869-13.545ZM286-589.805q42.478-29.521 91.978-44.282 49.5-14.761 102.022-14.761 52.522 0 101.261 14.261T674-591.805l84.652-84.891q-61.522-43.522-132.185-65.924Q555.804-765.022 480-765.022q-75.804 0-146.706 22.402-70.903 22.402-132.424 65.924L286-589.805Zm193.761-59.043ZM480-279.522Z"/>
</svg>
