<svg aria-hidden="true" viewBox="0 -960 960 960" fill="currentColor">
  <path d="M480-92.109q-80.435 0-150.75-30.478t-122.772-82.935q-52.456-52.456-82.935-122.771-30.478-70.316-30.478-150.75 0-80.435 30.478-150.751 30.479-70.315 82.935-122.771 52.457-52.457 122.772-82.935T480-865.978v-46.739q0-15.913 14.294-21.25 14.293-5.337 24.728 5.097l107.935 107.935q6.956 6.957 6.956 16.033t-6.956 16.032L519.022-680.935q-10.435 10.435-24.728 5.098Q480-681.174 480-697.087v-46.739q-109.913 0-187.348 77.435-77.435 77.434-77.435 187.348 0 67.434 31.098 124.771t83.055 93.055q16.239-28.239 48.336-48.098 32.098-19.859 73.816-25.098-3-21.478-8.12-42.837-5.119-21.359-12.359-39.837-11 9.239-24.239 14.359-13.239 5.119-28.717 5.119-33.478 0-57.457-23.978-23.978-23.978-23.978-57.456v-40.718q0-8-1.5-16.38-1.5-8.381-4.261-16.381-4.239-11.195 2.142-19.935 6.38-8.739 18.097-7.5 21 1.24 46.479 6.24 25.478 5 47.956 16.239t38.218 29.978q15.739 18.739 15.739 48.457 0 9.239-1.381 16.858-1.38 7.62-5.619 15.62-13.239-10.239-26.359-18.239-13.12-8-27.598-14.239 17.478 13.239 39.837 40.597Q460.761-411.087 480-373.37q20.478-49.956 50.957-98.173 30.478-48.218 71.195-88.935-23.239 16.239-44.717 34.478-21.478 18.239-41.718 38.717-7.239-11.239-11.239-24.858-4-13.62-4-28.098 0-42.718 29.479-72.196 29.478-29.478 72.195-29.478h40.718q14 0 26.641-2.761 12.641-2.761 23.402-8.522 14.152-6.478 23.391-.717 9.24 5.761 9 18.196-.239 25.717-4.978 59.695-4.739 33.979-17.978 64.718-13.239 30.739-37.359 51.858-24.119 21.12-62.837 21.12-15.478 0-29.098-4.12-13.619-4.119-24.858-11.358-7.239 19.239-16.359 51.456-9.12 32.218-14.12 68.935 38.718 7.239 68.196 26.478 29.478 19.239 44.957 45.718 47.239-33 77.097-83.12 29.859-50.119 35.577-111.359 1.239-9.434 8.195-16.391 6.957-6.956 16.392-6.956h75.456q9.435 0 16.891 6.956 7.457 6.957 6.218 16.391-4.478 75.957-36.315 142.555-31.837 66.598-84.055 115.576-52.217 48.978-120.674 77.217Q557.196-92.108 480-92.108Z"/>
</svg>
