<svg aria-hidden="true" viewBox="0 -960 960 960" fill="currentColor">
  <path d="M714-162 537-339l84-84 177 177q17 17 17 42t-17 42q-17 17-42 17t-42-17Zm-552 0q-17-17-17-42t17-42l234-234-68-68q-13 13-29 12t-27-12l-23-23v82l-7 7q-9 9-21 9t-21-9l-79-79q-9-9-9-21t9-21l7-7h82l-22-22q-12-12-12-28t12-28l114-114q20-20 43-29t47-9q24 0 47 9t43 29l-92 92 22 22q11 11 12 27t-12 29l68 68 90-90q-4-11-6.5-23t-2.5-24q0-59 40.5-99.5T701-841q15 0 28.5 3t27.5 9l-99 99 72 72 99-99q7 14 9.5 27.5T841-701q0 59-40.5 99.5T701-561q-12 0-24-2t-23-7L246-162q-17 17-42 17t-42-17Z"/>
</svg>
