<svg aria-hidden="true" viewBox="0 -960 960 960" fill="currentColor">
  <path d="M714.478-153.152 538.913-328.717l89.022-89.261L803.5-242.413q18.196 18.196 18.196 44.631 0 26.434-18.196 44.63t-44.511 18.196q-26.315 0-44.511-18.196Zm-554.391 0q-18.196-18.196-18.196-44.63 0-26.435 18.196-44.631l232.565-232.565-69.913-69.913q-12.522 12.521-29 11.521t-27.717-12.239l-18.935-18.695v78.652l-5.804 5.804q-10.196 10.196-23.99 10.196-13.793 0-23.989-10.196l-79.956-79.956q-10.196-10.196-10.196-23.99 0-13.793 10.196-23.989l5.804-5.804h78.652l-17.935-17.935q-10.804-14.152-9.967-31.348.837-17.195 13.076-29.434L295.782-804.87q20.479-20.478 44.555-29.837 24.076-9.358 49.033-9.358 24.956 0 49.152 9.478 24.195 9.478 44.674 29.717l-93.435 93.196 17.935 17.935q12.674 12.674 14.391 29.272 1.717 16.597-10.565 30.554l70.152 70.152 91.435-91.435q-3.761-10.761-6.142-22.641-2.38-11.88-2.38-23.641 0-60.435 41.576-102.131 41.576-41.695 102.011-41.695 16.196 0 30.772 3.358 14.576 3.359 29.533 10.555l-99 99.239 69.369 69.369 99.239-99.239q8.196 14.718 10.935 29.533 2.739 14.815 2.739 31.011 0 60.435-41.576 102.011-41.576 41.576-102.011 41.576-11.761 0-23.402-2-11.641-2-22.402-6.522L249.348-153.152q-18.196 18.196-44.631 18.196-26.434 0-44.63-18.196Z"/>
</svg>
