<svg aria-hidden="true" viewBox="0 -960 960 960" fill="currentColor">
  <path d="M480-360q-50 0-85-35t-35-85q0-50 35-85t85-35q50 0 85 35t35 85q0 50-35 85t-85 35Zm0 166 86-85q12-11 28-11t28 12q11 11 11 28t-11 28L508-108q-12 12-28 12t-28-12L338-222q-11-11-11.5-27.5T338-278q11-11 27.5-11t28.5 11l86 84ZM194-480l85 86q11 12 11 28t-12 28q-11 11-28 11t-28-11L108-452q-12-12-12-28t12-28l114-114q11-11 27.5-11.5T278-622q11 11 11 27.5T278-566l-84 86Zm286-286-86 85q-12 11-28 11t-28-12q-11-11-11-28t11-28l114-114q12-12 28-12t28 12l114 114q11 11 11.5 27.5T622-682q-11 11-27.5 11T566-682l-86-84Zm286 286-85-86q-11-12-11-28t12-28q11-11 28-11t28 11l114 114q12 12 12 28t-12 28L738-338q-11 11-27.5 11.5T682-338q-11-11-11-27.5t11-28.5l84-86Z"/>
</svg>
