<svg aria-hidden="true" viewBox="0 -960 960 960" fill="currentColor">
  <path d="m840-234-80-80v-446h-80v80q0 17-11.5 28.5T640-640H434L234-840h133q11-35 43-57.5t70-22.5q40 0 71.5 22.5T594-840h166q33 0 56.5 23.5T840-760v526ZM480-760q17 0 28.5-11.5T520-800q0-17-11.5-28.5T480-840q-17 0-28.5 11.5T440-800q0 17 11.5 28.5T480-760Zm166 560L200-646v446h446Zm-446 80q-33 0-56.5-23.5T120-200v-526l-37-37q-12-12-12-28.5T83-820q12-12 28.5-12t28.5 12l680 680q12 12 12 28t-12 28q-12 12-28.5 12T763-84l-37-36H200Z"/>
</svg>
