<svg aria-hidden="true" viewBox="0 -960 960 960" fill="currentColor">
  <path d="M0-120v-720h960v720H0Zm445-315q35-35 35-85t-35-85q-35-35-85-35t-85 35q-35 35-35 85t35 85q35 35 85 35t85-35ZM84-200h552q-42-75-116-117.5T360-360q-86 0-160 42.5T84-200Zm606-348v38q0 13 8.5 21.5T720-480q13 0 21.5-8.5T750-510v-38l33 19q11 6 23 3t18-14q6-11 3-23t-14-18l-33-19 33-19q11-6 14-18t-3-23q-6-11-18-14t-23 3l-33 19v-38q0-13-8.5-21.5T720-720q-13 0-21.5 8.5T690-690v38l-33-19q-11-6-23-3t-18 14q-6 11-3 23t14 18l33 19-33 19q-11 6-14 18t3 23q6 11 18 14t23-3l33-19Z"/>
</svg>
