<svg aria-hidden="true" viewBox="0 -960 960 960" fill="currentColor">
  <path d="M480-351.869q-53.348 0-90.739-37.392-37.392-37.391-37.392-90.739 0-53.348 37.392-90.739 37.391-37.392 90.739-37.392 53.348 0 90.739 37.392 37.392 37.391 37.392 90.739 0 53.348-37.392 90.739-37.391 37.392-90.739 37.392Zm0 157.152 82.174-81.174q13.435-12.674 31.826-12.555 18.391.12 31.826 13.555 12.674 12.674 12.674 31.826t-12.674 31.826l-114 114Q498.391-83.804 480-83.804T448.174-97.24l-114-114Q321.5-223.913 321-242.565t13.174-32.326q12.674-12.674 31.446-12.794 18.771-.119 32.206 12.555L480-194.717ZM194.717-480l81.174 82.174q12.674 13.435 12.555 31.826-.12 18.391-13.555 31.826-12.674 12.674-31.826 12.674t-31.826-12.674l-114-114Q83.804-461.609 83.804-480t13.435-31.826l114-114Q223.913-638.5 242.565-639t32.326 13.174q12.674 12.674 12.794 31.446.119 18.771-12.555 32.206L194.717-480ZM480-765.283l-82.174 81.174Q384.391-671.435 366-671.554q-18.391-.12-31.826-13.555-12.674-12.674-12.674-31.826t12.674-31.826l114-114q13.435-13.435 31.826-13.435t31.826 13.435l114 114Q638.5-736.087 639-717.435t-13.174 32.326q-12.674 12.674-31.446 12.794-18.771.119-32.206-12.555L480-765.283ZM765.283-480l-81.174-82.174Q671.435-575.609 671.554-594q.12-18.391 13.555-31.826 12.674-12.674 31.826-12.674t31.826 12.674l114 114q13.435 13.435 13.435 31.826t-13.435 31.826l-114 114Q736.087-321.5 717.435-321t-32.326-13.174q-12.674-12.674-12.794-31.446-.119-18.771 12.555-32.206L765.283-480Z"/>
</svg>
