<svg aria-hidden="true" viewBox="0 -960 960 960" fill="currentColor">
  <path d="M200-120q-33 0-56.5-23.5T120-200v-560q0-33 23.5-56.5T200-840h167q11-35 43-57.5t70-22.5q40 0 71.5 22.5T594-840h166q33 0 56.5 23.5T840-760v160q0 17-11.5 28.5T800-560q-17 0-28.5-11.5T760-600v-160h-80v80q0 17-11.5 28.5T640-640H320q-17 0-28.5-11.5T280-680v-80h-80v560h160q17 0 28.5 11.5T400-160q0 17-11.5 28.5T360-120H200Zm308.5-651.5Q520-783 520-800t-11.5-28.5Q497-840 480-840t-28.5 11.5Q440-817 440-800t11.5 28.5Q463-760 480-760t28.5-11.5ZM620-160q-75 0-127.5-52.5T440-340q0-75 52.5-127.5T620-520q75 0 127.5 52.5T800-340q0 26-7.5 50T772-244l80 80q11 11 11 28t-11 28q-11 11-28 11t-28-11l-80-80q-22 13-46 20.5t-50 7.5Zm71-109q29-29 29-71t-29-71q-29-29-71-29t-71 29q-29 29-29 71t29 71q29 29 71 29t71-29Z"/>
</svg>
