<svg aria-hidden="true" viewBox="0 -960 960 960" fill="currentColor">
  <path d="M556-283q-14-6-21-20.5t-2-29.5q7-19 11.5-38.5T551-411l69 69q-2 9-5 18.5t-6 18.5q-5 16-20.5 22.5T556-283Zm-129-52q-15-6-21.5-20.5T404-387q7-23 9.5-46t2.5-47q0-19-1-37t-5-35l86 86q-1 28-5.5 55.5T478-357q-5 15-20 21.5t-31 .5Zm-130-55q-14-6-21-20t-4-30q2-10 3-20t1-20q0-10-1-20t-3-20q-3-16 4-30.5t21-19.5q17-7 32 0t19 24q4 16 6 32.5t2 33.5q0 17-2 33.5t-6 32.5q-4 17-19 24t-32 0Zm338-51-80-80q-2-28-8-54.5T533-627q-5-15 1.5-29.5T555-677q17-8 33-1t21 23q14 42 20.5 85.5T636-480v19.5q0 9.5-1 19.5ZM480-80q-83 0-156-31.5T197-197q-54-54-85.5-127T80-480q0-62 17-117.5T146-701l-90-91q-12-12-12-28.5T56-849q12-12 28.5-12t28.5 12l735 735q12 12 12 28.5T848-57q-12 12-28.5 12T791-57l-90-89q-48 32-103.5 49T480-80Zm0-80q45 0 85.5-12t76.5-33L205-642q-21 36-33 76.5T160-480q0 133 93.5 226.5T480-160Zm335-100-59-59q21-35 32.5-75.5T800-480q0-133-93.5-226.5T480-800q-45 0-85.5 11.5T319-756l-59-59q48-31 103.5-48T480-880q83 0 156 31.5T763-763q54 54 85.5 127T880-480q0 61-17 116.5T815-260ZM538-538ZM424-424Z"/>
</svg>
