<svg aria-hidden="true" viewBox="0 -960 960 960" fill="currentColor">
  <path d="M815-260 260-815q52-35 116-49.5T513-879q19 0 33 12t14 31q0 61 48 110.5T719-682q17-2 29.5 10.5T760-642q-2 44 24.5 78t64.5 39q13 2 22 11.5t9 22.5q0 61-16 120.5T815-260ZM340-360q25 0 42.5-17.5T400-420q0-25-17.5-42.5T340-480q-25 0-42.5 17.5T280-420q0 25 17.5 42.5T340-360ZM480-80q-83 0-156-31.5T197-197q-54-54-85.5-127T80-480q0-62 17-117.5T146-701l-91-91q-12-12-12-28.5T55-849q12-12 28.5-12t28.5 12l736 736q12 12 12 28t-12 28q-12 12-28.5 12T791-57l-90-89q-48 32-103.5 49T480-80Z"/>
</svg>
