<svg aria-hidden="true" viewBox="0 -960 960 960" fill="currentColor">
  <path d="M440-142q-118-15-199-104t-81-210q0-66 24.5-122.5T254-678l184-181q9-8 20-12.5t22-4.5q11 0 22 4.5t20 12.5l184 181q36 36 59.5 81t31.5 97h-81q-7-34-23.5-64.5T650-620L480-788 310-620q-35 33-52.5 74.5T240-456q0 87 57.5 153T440-223v81Zm38-364Zm217 166q-18-8-36.5-14t-38.5-6q-16 0-31 3.5t-29 9.5q-11 5-23 1t-17-15q-5-12 0-24t17-17q20-8 41-13t42-5q23 0 45.5 5.5T709-401q18 8 36.5 14t38.5 6q16 0 31-3.5t29-9.5q11-5 23-1t17 15q5 12 0 24t-17 17q-20 8-41 13t-42 5q-23 0-45.5-5.5T695-340Zm0 120q-18-8-36.5-14t-38.5-6q-16 0-31 3.5t-29 9.5q-11 5-23 1t-17-15q-5-12 0-24t17-17q20-8 41-13t42-5q23 0 45.5 5.5T709-281q18 8 36.5 14t38.5 6q16 0 31-3.5t29-9.5q11-5 23-1t17 15q5 12 0 24t-17 17q-20 8-41 13t-42 5q-23 0-45.5-5.5T695-220Zm0 120q-18-8-36.5-14t-38.5-6q-16 0-31 3.5t-29 9.5q-11 5-23 1t-17-15q-5-12 0-24t17-17q20-8 41-13t42-5q23 0 45.5 5.5T709-161q18 8 36.5 14t38.5 6q16 0 31-3.5t29-9.5q11-5 23-1t17 15q5 12 0 24t-17 17q-20 8-41 13t-42 5q-23 0-45.5-5.5T695-100Z"/>
</svg>
