<svg aria-hidden="true" viewBox="0 -960 960 960" fill="currentColor">
  <path d="M371-240q-37.782 0-64.391-26.609Q280-293.218 280-331v-469q0-37.783 26.609-64.391Q333.218-891 371-891h349q37.783 0 64.391 26.609Q811-837.783 811-800v469q0 37.782-26.609 64.391Q757.783-240 720-240H371Zm0-91h349v-469H371v469Zm-262-29h91v-80h-91v80Zm0-140h91v-80h-91v80ZM400-69h80v-91h-80v91ZM109-220h91v-80h-91v80Zm91 151v-91h-91q0 37.783 26.609 64.391 26.608 26.61 64.391 26.61Zm60 0h80v-91h-80v91Zm280 0q37.783 0 64.391-26.609Q631-122.217 631-160h-91v91ZM109-640h91v-91q-37.783 0-64.391 26.609Q109-677.783 109-640Z"/>
</svg>
