<svg aria-hidden="true" viewBox="0 -960 960 960" fill="currentColor">
  <path d="M193.065-147.565q-19.152 0-32.326-13.174t-13.174-32.326V-477.13H109q-18.525 0-31.056-12.532-12.531-12.531-12.531-31.055 0-18.525 12.531-31.056Q90.475-564.304 109-564.304h122.869q-34.913 0-59.608-24.835-24.696-24.835-24.696-59.709v-120.239q0-19.152 13.174-32.326t32.326-13.174h159.283q19.152 0 32.326 13.174t13.174 32.326v120.239q0 34.874-24.835 59.709t-59.709 24.835h330.283v-125.261q0-16.086-10.799-26.967t-26.763-10.881q-10.329 0-19.21 5.141-8.88 5.141-16.402 15.663-7.717 10.957-16.456 15.435t-17.935 4.478q-28.249 0-39.657-21.054-11.408-21.055 2.548-44.729 16.632-27.37 44.697-44.739 28.066-17.369 62.368-17.369 52.093 0 88.558 36.464Q731-741.658 731-689.565v125.261h120q18.525 0 31.056 12.531 12.531 12.531 12.531 31.056 0 18.524-12.531 31.055Q869.525-477.13 851-477.13h-38.565v284.065q0 19.152-13.174 32.326t-32.326 13.174h-573.87Zm243.348-87.413h87.174V-477.13h-87.174v242.152Z"/>
</svg>
