<svg aria-hidden="true" viewBox="0 -960 960 960" fill="currentColor">
  <path d="M200-160q-17 0-28.5-11.5T160-200v-280h-40q-17 0-28.5-11.5T80-520q0-17 11.5-28.5T120-560h120q-33 0-56.5-23.5T160-640v-120q0-17 11.5-28.5T200-800h160q17 0 28.5 11.5T400-760v120q0 33-23.5 56.5T320-560h320v-120q0-17-11.5-28.5T600-720q-11 0-20 5.5T563-698q-7 10-15.5 14t-16.5 4q-26 0-36.5-19.5T497-741q16-26 43-42.5t60-16.5q50 0 85 35t35 85v120h120q17 0 28.5 11.5T880-520q0 17-11.5 28.5T840-480h-40v280q0 17-11.5 28.5T760-160H200Zm240-80h80v-240h-80v240Z"/>
</svg>
