<svg aria-hidden="true" viewBox="0 -960 960 960" fill="currentColor">
  <path d="M480-162.87q18.087 0 36.174-2.141t36.413-6.424v-148.326H407.413v148.326q18.326 4.283 36.413 6.424 18.087 2.141 36.174 2.141Zm0 91q-69 0-134.435-23.239t-121.587-66.717q-16.152-12.435-16.772-32.424-.619-19.989 15.533-35.902 11.957-11.957 29.131-12.315 17.173-.359 30.608 10.597 8.044 7.044 16.587 12.566 8.544 5.521 17.348 10.804v-111.261H242.63q-37.782 0-64.391-26.609-26.609-26.608-26.609-64.391v-235.217q0-69.587 49.392-119.098Q250.413-814.587 320-814.587h75.217q37.544 0 64.272 26.728 26.729 26.728 26.729 64.272v109H717.37q37.782 0 64.391 26.608 26.609 26.609 26.609 64.392v112.826q0 37.783-26.609 64.391-26.609 26.609-64.391 26.609h-73.783V-208.5q8.804-5.283 17.348-10.685 8.543-5.402 16.587-12.445 13.435-10.957 30.989-10.337 17.554.619 29.75 12.815 15.152 14.913 14.533 34.902-.62 19.989-16.772 32.424-55.913 43.478-121.468 66.717Q549-71.869 480-71.869Z"/>
</svg>
