<svg aria-hidden="true" viewBox="0 -960 960 960" fill="currentColor">
  <path d="M240-400h480v-120H400v-200h-80q-33 0-56.5 23.5T240-640v240Zm240 240q20 0 40-2.5t40-7.5v-150H400v150q20 5 40 7.5t40 2.5Zm0 80q-69 0-133-23t-118-66q-14-11-14.5-28t13.5-31q11-11 26.5-11t27.5 10q9 8 18.5 14t19.5 12v-117h-80q-33 0-56.5-23.5T160-400v-240q0-66 47-113t113-47h80q33 0 56.5 23.5T480-720v120h240q33 0 56.5 23.5T800-520v120q0 33-23.5 56.5T720-320h-80v117q10-6 19.5-12t18.5-14q12-10 28-9.5t27 11.5q13 13 12.5 30T731-169q-54 43-118 66T480-80Zm0-480Z"/>
</svg>
