<svg aria-hidden="true" viewBox="0 -960 960 960" fill="currentColor">
  <path d="M480-65.174q-86.109 0-161.739-32.576-75.631-32.576-131.663-88.608-56.033-56.033-88.61-131.664-32.575-75.63-32.575-161.739 0-118.783 62.369-219.228 62.37-100.446 168.914-152.881-.435 20.674 1.967 42.805 2.402 22.13 9.641 50.761-72.717 45.195-114.217 118.891t-41.5 159.652q0 136.87 95.272 232.022Q343.13-152.587 480-152.587t232.141-95.152q95.272-95.152 95.272-232.022 0-85.956-41.619-160.152-41.62-74.196-115.098-119.391 7.239-28.87 9.761-50.761 2.521-21.892 2.847-41.805 106.544 52.435 168.914 152.5 62.369 100.066 62.369 219.609 0 86.109-32.576 161.739-32.576 75.631-88.609 131.664-56.032 56.032-131.663 88.608Q566.109-65.174 480-65.174Zm0-165.978q-103.587 0-176.098-72.511-72.511-72.511-72.511-176.098 0-59.435 25.859-111.63 25.859-52.196 73.576-87.631 5.239 16.674 12.076 38.207 6.837 21.532 17.794 53.402-20.566 22.522-31.229 49.804-10.663 27.283-10.663 57.848 0 66.718 47.239 113.957 47.24 47.239 113.957 47.239 66.717 0 113.957-47.239 47.239-47.239 47.239-113.957 0-30.565-10.663-57.848-10.663-27.282-31.229-49.804 9.196-27.348 16.414-49.881 7.217-22.532 12.695-41.728 47.718 35.435 73.957 87.631 26.239 52.195 26.239 111.63 0 103.587-72.511 176.098Q583.587-231.152 480-231.152Zm0-731.239q43.674 0 73.989 30.315 30.315 30.315 30.315 73.989 0 32.283-8.5 71.185t-37.26 123.272q-6.718 19.434-22.414 31.771-15.695 12.337-36.13 12.337-20.435 0-36.25-12.217-15.815-12.218-22.533-31.413-28.521-84.131-37.021-123.152-8.5-39.022-8.5-71.783 0-43.674 30.315-73.989 30.315-30.315 73.989-30.315Zm0 565.021q-34.196 0-58.413-24.217T397.37-480q0-34.196 24.217-58.413T480-562.63q34.196 0 58.413 24.217T562.63-480q0 34.196-24.217 58.413T480-397.37Z"/>
</svg>
