<svg aria-hidden="true" viewBox="0 -960 960 960" fill="currentColor">
  <path d="M617.5-587.5Q600-605 600-630t17.5-42.5Q635-690 660-690t42.5 17.5Q720-655 720-630t-17.5 42.5Q685-570 660-570t-42.5-17.5Zm-360 0Q240-605 240-630t17.5-42.5Q275-690 300-690t42.5 17.5Q360-655 360-630t-17.5 42.5Q325-570 300-570t-42.5-17.5Zm180 110Q420-495 420-520t17.5-42.5Q455-580 480-580t42.5 17.5Q540-545 540-520t-17.5 42.5Q505-460 480-460t-42.5-17.5Zm0-220Q420-715 420-740t17.5-42.5Q455-800 480-800t42.5 17.5Q540-765 540-740t-17.5 42.5Q505-680 480-680t-42.5-17.5Zm2 534.5q-20.5-3-39.5-8v-143q0-35 23.5-60.5T480-400q33 0 56.5 25.5T560-314v143q-19 5-39.5 8t-40.5 3q-20 0-40.5-3ZM340-192q-20-8-38.5-18T266-232q-28-20-44.5-52T205-352q0-26-5.5-48.5T180-443q-10-13-37.5-39.5T92-532q-11-11-11-28t11-28q11-11 28-11t28 11l153 145q20 18 29.5 42.5T340-350v158Zm280 0v-158q0-26 10-51t29-42l153-145q12-11 28.5-11t27.5 11q11 11 11 28t-11 28q-23 23-50.5 49T780-443q-14 20-19.5 42.5T755-352q0 36-16.5 68.5T693-231q-16 11-34.5 21T620-192Z"/>
</svg>
