<svg aria-hidden="true" viewBox="0 -960 960 960" fill="currentColor">
  <path d="M480-320q-66 0-113-47t-47-113q0-66 47-113t113-47q66 0 113 47t47 113q0 66-47 113t-113 47Zm0-80q33 0 56.5-23.5T560-480q0-33-23.5-56.5T480-560q-33 0-56.5 23.5T400-480q0 33 23.5 56.5T480-400ZM717-80q-23 0-34.5-15.5T677-134q10-38 16-67.5t9-48.5q-43 42-100 66t-122 24q-123 0-217.5-14.5T107-206q-11-3-19-14t-8-23q0-23 15.5-34.5T134-283q38 10 67.5 16t48.5 9q-42-43-66-100t-24-122q0-123 14.5-217.5T206-853q3-11 14-19t23-8q23 0 34.5 15.5T283-826q-11 38-16.5 67.5T258-710q43-42 100-66t122-24q123 0 217.5 14.5T853-754q11 3 19 14t8 23q0 23-15.5 34.5T826-677q-38-11-67.5-16.5T710-702q42 43 66 100t24 122q0 123-14.5 217.5T754-107q-3 11-14 19t-23 8ZM480-240q100 0 170-70t70-170q0-100-70-170t-170-70q-100 0-170 70t-70 170q0 100 70 170t170 70Z"/>
</svg>
