<svg aria-hidden="true" viewBox="0 -960 960 960" fill="currentColor">
  <path d="M160-559q0 85 42 158t115 117q14 9 19.5 24.5T334-230q-8 15-24.5 19.5T278-214q-93-54-146-146T79-559q0-26 3-50.5t9-49.5l-12 7q-14 8-30 4t-24-18q-8-14-3.5-30.5T40-721l121-70q14-8 30.5-3.5T216-776l70 120q8 14 3.5 30.5T271-601q-14 8-30.5 3.5T216-616l-34-59q-11 28-16.5 57t-5.5 59Zm320-321q-42 0-82 10.5T322-839q-15 8-31.5 5.5T266-850q-9-16-4-32.5t21-25.5q45-26 94.5-39T479-960q79 0 151.5 29.5T760-845v-15q0-17 11.5-28.5T800-900q17 0 28.5 11.5T840-860v140q0 17-11.5 28.5T800-680H660q-17 0-28.5-11.5T620-720q0-17 11.5-28.5T660-760h69q-46-57-111-88.5T480-880Zm241 531q38-44 58.5-97T800-557q0-17 10.5-30t27.5-13q17 0 29 13t12 30q-1 65-21 125.5T799-319q-39 52-92.5 89T590-175l10 6q14 8 18 24.5t-4 30.5q-8 14-24 18t-30-4l-122-70q-14-8-18.5-24.5T423-225l70-121q8-14 24-18t30 4q14 8 18.5 24.5T562-305l-37 63q57-8 107.5-35.5T721-349Z"/>
</svg>
