<svg aria-hidden="true" viewBox="0 -960 960 960" fill="currentColor">
  <path d="M171.718-559q0 79.022 37.815 147.358 37.815 68.337 104.119 111.142 15.435 10.913 20.935 28.445 5.5 17.533-3.696 33.446-9.195 16.913-27.609 22.011-18.413 5.098-34.608-4.576-88.457-54.717-138.707-144.446-50.25-89.728-50.25-193.619 0-23.37 2.522-45.598 2.522-22.228 7.565-44.837l-9.13 5.326q-14.718 8.718-31.076 2.566-16.359-6.153-25.076-21.588-9.196-16.152-4.337-34.565 4.859-18.413 21.01-27.609l121.24-70.239q16.152-9.195 34.685-4.217 18.532 4.978 27.728 21.13l69.761 120.24q9.196 16.152 4.217 34.684-4.978 18.533-21.13 27.729-16.152 9.195-34.685 4.217-18.533-4.978-27.728-21.13l-25.87-45.13q-8.848 23.934-13.271 48.869-4.424 24.935-4.424 50.391ZM480-868.282q-36.739 0-71.956 8.706-35.218 8.707-67.391 25.359-17.631 8-36.164 4.424-18.532-3.577-27.728-19.729-10.196-17.674-4.598-36.326t23.511-27.652q42.37-23.13 88.641-34.457 46.272-11.326 94.685-11.326 76.37 0 146.717 27.826 70.348 27.827 126.392 80.479v-11.413q0-17.718 13.532-28.739 13.533-11.022 31.968-11.022 19.152 0 32.326 13.174t13.174 32.326v140q0 19.152-13.174 32.326t-32.326 13.174h-140q-19.153 0-32.327-13.174-13.173-13.174-13.173-32.326t13.173-32.326q13.174-13.174 32.327-13.174h52.978q-43.848-50.544-103.707-78.337-59.858-27.793-126.88-27.793Zm237.174 505.173q32.261-38.5 50.25-84.326 17.989-45.826 19.184-95.934 1.435-19.152 13.968-33.468 12.533-14.315 31.685-14.315t32.587 14.435q13.435 14.435 12.478 33.348-2.435 59.978-21.359 115.695-18.924 55.717-54.576 104.13-37.565 51.522-89.271 88.522-51.707 37-112.794 56.196l7.609 4.565q14.956 8.717 17.88 26.652 2.924 17.935-6.032 33.37-9.435 16.152-27.468 20.63-18.032 4.479-34.185-4.717l-121.76-70q-16.153-9.196-21.131-27.848-4.978-18.652 4.217-34.804l70-120.761q9.196-16.152 27.348-20.75 18.153-4.598 34.305 4.837 15.913 9.195 21.011 27.608 5.098 18.414-4.098 34.327l-28.152 47.934q52.456-9.674 98.174-36.696 45.717-27.021 80.13-68.63Z"/>
</svg>
