<svg aria-hidden="true" viewBox="0 -960 960 960" fill="currentColor">
  <path d="M480-316.413q-67.435 0-115.511-48.076Q316.413-412.565 316.413-480t48.076-115.511Q412.565-643.587 480-643.587t115.511 48.076Q643.587-547.435 643.587-480t-48.076 115.511Q547.435-316.413 480-316.413Zm0-87.174q31.565 0 53.989-22.424 22.424-22.424 22.424-53.989 0-31.565-22.424-53.989-22.424-22.424-53.989-22.424-31.565 0-53.989 22.424-22.424 22.424-22.424 53.989 0 31.565 22.424 53.989 22.424 22.424 53.989 22.424ZM723.218-80q-24.435 0-36.772-16.457-12.337-16.456-6.098-41.13 8.565-32.978 13.728-59.011 5.163-26.032 7.924-43.837-42.283 40.326-99.88 64.087-57.598 23.761-122.12 23.761-122.043 0-214.989-13.304t-154.424-29.587q-12.435-3.239-21.51-15.435Q80-223.109 80-236.782q0-24.435 16.576-36.892 16.576-12.456 41.011-6.217 32.978 8.565 59.13 13.967 26.152 5.402 43.957 8.163-39.848-41.565-63.968-99.282Q152.587-414.761 152.587-480q0-116.782 13.424-210.565t29.945-158.848q3.239-12.435 15.196-21.511Q223.109-880 236.782-880q24.435 0 36.892 16.576 12.456 16.576 6.456 41.011-9.565 32.978-14.228 59.13t-7.424 43.718q41.805-39.131 97.609-63.49Q411.891-807.413 480-807.413q120.848 0 213.913 13.424 93.065 13.424 155.5 29.706 12.435 3.239 21.511 15.315Q880-736.891 880-723.218q0 24.435-16.457 36.653-16.456 12.217-41.13 5.978-33.217-9.565-59.25-14.228-26.032-4.663-43.837-7.424 41.044 44.913 64.565 99.522Q807.413-548.109 807.413-480q0 120.37-13.185 213.435-13.184 93.065-29.706 155.978-3.239 12.435-15.435 21.51Q736.891-80 723.218-80ZM480-240q100 0 170-70t70-170q0-100-70-170t-170-70q-100 0-170 70t-70 170q0 100 70 170t170 70Z"/>
</svg>
