<svg aria-hidden="true" viewBox="0 -960 960 960" fill="currentColor">
  <path d="M480.239-116.413q-153.63 0-258.728-104.978Q116.413-326.37 116.413-480q0-133.935 84.739-235.435t223.304-123.043q30.022-5.631 47.37 15.369t4.978 48.305q-13.891 25.043-21.315 51.652-7.424 26.608-7.424 55.5 0 91.694 64.326 155.879 64.325 64.186 156.218 64.186 28.369 0 56.478-7.446 28.109-7.445 50.913-20.576 24.826-11.369 46.467 3.642 21.642 15.011 16.011 46.554Q820.174-291 717.63-203.706q-102.543 87.293-237.391 87.293Zm0-91q81.783 0 147.837-43.717 66.054-43.718 98.293-114.783-17.608 4.044-35.097 6.326-17.49 2.283-34.859 1.805-122.043-4.066-207.946-89.37-85.902-85.304-90.445-209.261-.24-17.369 1.923-34.978 2.164-17.609 6.446-34.978-70.826 32.478-114.782 98.652Q207.652-561.543 207.652-480q0 112.929 79.829 192.758 79.829 79.829 192.758 79.829ZM467.13-466.891Z"/>
</svg>
