<svg aria-hidden="true" viewBox="0 -960 960 960" fill="currentColor">
  <path d="M480.239-116.413q-153.63 0-258.728-104.978Q116.413-326.37 116.413-480q0-133.935 84.739-235.435t223.304-123.043q30.022-5.631 47.37 15.369t4.978 48.305q-13.891 25.043-21.315 51.652-7.424 26.608-7.424 55.5 0 91.674 64.316 155.869 64.315 64.196 156.228 64.196 28.369 0 56.478-7.446 28.109-7.445 50.913-20.576 24.826-11.369 46.467 3.642 21.642 15.011 16.011 46.554Q820.174-291 717.63-203.706q-102.543 87.293-237.391 87.293Z"/>
</svg>
