<svg aria-hidden="true" viewBox="0 -960 960 960" fill="currentColor">
  <path d="M780.717-135.696q18.913 0 31.25-12.815t12.337-30.772q0-18.913-12.815-31.25t-30.772-12.337q-17.956 0-30.771 12.337-12.816 12.337-12.816 31.25 0 17.957 12.816 30.772 12.815 12.815 30.771 12.815ZM480-71.869q-115.152 0-201.348-52.337-86.196-52.337-134.913-125.098l173.848-174.087L417-338.739q6.956 5.717 14.913 8.576 7.956 2.859 16.674 1.859 7.956 0 15.913-3.359 7.956-3.359 13.913-9.315L629-490.565v19.652q0 18.435 12.576 31.131 12.576 12.695 31.011 12.695t31.13-12.695q12.696-12.696 12.696-31.131V-594.5q0-19.152-13.174-32.326T670.913-640H547.087q-18.435 0-31.011 12.576T503.5-596.413q0 18.435 12.576 31.131 12.576 12.695 31.011 12.695h19.891L444.587-430.196l-100.174-83.891q-6.957-5.717-14.913-8.576-7.957-2.859-15.913-2.62-8.718 1-16.794 4.359t-14.032 9.315l-182.37 182.37q-13.522-35.239-21.022-72.522-7.5-37.282-7.5-78.239 0-84.674 32.098-159.109t87.294-129.63q55.195-55.196 129.63-87.294T480-888.131q84.674 0 159.109 32.098t129.63 87.294q55.196 55.195 87.294 129.63T888.131-480v317.13q0 37.544-26.729 64.272-26.728 26.729-64.272 26.729H480Z"/>
</svg>
