<svg aria-hidden="true" viewBox="0 -960 960 960" fill="currentColor">
  <path d="M160-160q-17 0-28.5-11.5T120-200q0-17 11.5-28.5T160-240h400q17 0 28.5 11.5T600-200q0 17-11.5 28.5T560-160H160Zm480-280q-83 0-141.5-58.5T440-640q0-83 58.5-141.5T640-840q83 0 141.5 58.5T840-640q0 83-58.5 141.5T640-440Zm-480-40q-17 0-28.5-11.5T120-520q0-17 11.5-28.5T160-560h212q7 22 16 42t22 38H160Zm0 160q-17 0-28.5-11.5T120-360q0-17 11.5-28.5T160-400h336q23 14 49 23.5t55 13.5v3q0 17-11.5 28.5T560-320H160Zm480-280q8 0 14-6t6-14v-120q0-8-6-14t-14-6q-8 0-14 6t-6 14v120q0 8 6 14t14 6Zm0 80q8 0 14-6t6-14q0-8-6-14t-14-6q-8 0-14 6t-6 14q0 8 6 14t14 6Z"/>
</svg>
