<svg aria-hidden="true" viewBox="0 -960 960 960" fill="currentColor">
  <path d="M278.087-278.087h163.826v-163.826H278.087v163.826Zm240 0h163.826v-163.826H518.087v163.826Zm-240-240h163.826v-163.826H278.087v163.826Zm240 0h163.826v-163.826H518.087v163.826ZM202.87-111.869q-37.783 0-64.392-26.609-26.609-26.609-26.609-64.392v-554.26q0-37.783 26.609-64.392 26.609-26.609 64.392-26.609h554.26q37.783 0 64.392 26.609 26.609 26.609 26.609 64.392v554.26q0 37.783-26.609 64.392-26.609 26.609-64.392 26.609H202.87Zm0-91.001h554.26v-554.26H202.87v554.26Zm0-554.26v554.26-554.26Z"/>
</svg>
