<svg aria-hidden="true" viewBox="0 -960 960 960" fill="currentColor">
  <path d="M160-160q-17 0-28.5-11.5T120-200q0-17 11.5-28.5T160-240h400q17 0 28.5 11.5T600-200q0 17-11.5 28.5T560-160H160Zm338.5-338.5Q440-557 440-640t58.5-141.5Q557-840 640-840t141.5 58.5Q840-723 840-640t-58.5 141.5Q723-440 640-440t-141.5-58.5ZM160-480q-17 0-28.5-11.5T120-520q0-17 11.5-28.5T160-560h187q17 0 28.5 11.5T387-520q0 16-11.5 28T347-480H160Zm0 160q-17 0-28.5-11.5T120-360q0-17 11.5-28.5T160-400h317q17 0 28.5 11.5T517-360q0 16-11 28t-29 12H160Zm494-206q6-6 6-14v-120q0-8-6-14t-14-6q-8 0-14 6t-6 14v120q0 8 6 14t14 6q8 0 14-6Zm0-200q6-6 6-14t-6-14q-6-6-14-6t-14 6q-6 6-6 14t6 14q6 6 14 6t14-6Z"/>
</svg>
