<svg aria-hidden="true" viewBox="0 -960 960 960" fill="currentColor">
  <path d="M480-71.87q-84.674 0-159.109-32.097-74.435-32.098-129.63-87.294-55.196-55.195-87.294-129.63T71.869-480q0-84.674 32.098-159.109t87.294-129.63q55.195-55.196 129.63-87.294T480-888.131q84.674 0 159.109 32.098t129.63 87.294q55.196 55.195 87.294 129.63T888.131-480v317.13q0 37.544-26.729 64.272-26.728 26.729-64.272 26.729H480Zm0-91q132.565 0 224.848-92.282Q797.13-347.435 797.13-480t-92.282-224.848Q612.565-797.13 480-797.13t-224.848 92.282Q162.87-612.565 162.87-480q0 20.13 2.641 39.859 2.641 19.728 7.685 38.336l109.565-109.804q5.956-5.956 14.032-9.315 8.076-3.359 16.794-4.359 7.956-.239 15.913 2.62 7.956 2.859 14.913 8.576l100.174 83.891 122.391-122.391h-19.891q-18.435 0-31.011-12.695-12.576-12.696-12.576-31.131 0-18.435 12.576-31.011T547.087-640h123.826q19.152 0 32.326 13.174t13.174 32.326v123.587q0 18.435-12.696 31.131-12.695 12.695-31.13 12.695t-31.011-12.695Q629-452.478 629-470.913v-19.652L478.413-340.978q-5.957 5.956-13.913 9.315-7.957 3.359-15.913 3.359-8.718 1-16.674-1.859-7.957-2.859-14.913-8.576l-99.413-84.652L209.63-315.196q41.761 68.283 112.544 110.305Q392.957-162.87 480-162.87Zm300.717 27.174q18.913 0 31.25-12.815t12.337-30.772q0-18.913-12.815-31.25t-30.772-12.337q-17.956 0-30.771 12.337-12.816 12.337-12.816 31.25 0 17.957 12.816 30.772 12.815 12.815 30.771 12.815ZM449.022-480Z"/>
</svg>
