<svg aria-hidden="true" viewBox="0 -960 960 960" fill="currentColor">
  <path d="M480-80q-83 0-156-31.5t-127-86Q143-252 111.5-325T80-480q0-157 104-270t256-128v120q-103 14-171.5 92.5T200-480q0 116 82 198t198 82q66 0 123.5-28t96.5-76l104 60q-54 75-139 119.5T480-80Zm-40-360h-80q-17 0-28.5-11.5T320-480q0-17 11.5-28.5T360-520h80v-80q0-17 11.5-28.5T480-640q17 0 28.5 11.5T520-600v80h80q17 0 28.5 11.5T640-480q0 17-11.5 28.5T600-440h-80v80q0 17-11.5 28.5T480-320q-17 0-28.5-11.5T440-360v-80Zm406 122-104-60q9-24 13.5-49.5T760-480q0-107-68.5-185.5T520-758v-120q152 15 256 128t104 270q0 44-8 85t-26 77Z"/>
</svg>
