<svg aria-hidden="true" viewBox="0 -960 960 960" fill="currentColor">
  <path d="M120-640h720v-100q0-25-17.5-42.5T780-800H180q-25 0-42.5 17.5T120-740v100Zm0 240h720v-160H120v160Zm60 240h600q25 0 42.5-17.5T840-220v-100H120v100q0 25 17.5 42.5T180-160Zm-8.5-531.5Q160-703 160-720t11.5-28.5Q183-760 200-760t28.5 11.5Q240-737 240-720t-11.5 28.5Q217-680 200-680t-28.5-11.5Zm0 240Q160-463 160-480t11.5-28.5Q183-520 200-520t28.5 11.5Q240-497 240-480t-11.5 28.5Q217-440 200-440t-28.5-11.5Zm0 240Q160-223 160-240t11.5-28.5Q183-280 200-280t28.5 11.5Q240-257 240-240t-11.5 28.5Q217-200 200-200t-28.5-11.5Z"/>
</svg>
