<svg aria-hidden="true" viewBox="0 -960 960 960" fill="currentColor">
  <path d="M780-140q17 0 28.5-11.5T820-180q0-17-11.5-28.5T780-220q-17 0-28.5 11.5T740-180q0 17 11.5 28.5T780-140ZM480-80q-113 0-198-51.5T149-256l176-176 103 88q6 5 13 7.5t15 1.5q7 0 14-3t12-8l158-157v23q0 17 11.5 28.5T680-440q17 0 28.5-11.5T720-480v-120q0-17-11.5-28.5T680-640H560q-17 0-28.5 11.5T520-600q0 17 11.5 28.5T560-560h23L452-429l-104-87q-6-5-13-7.5t-14-2.5q-8 1-15 4t-12 8L109-329q-14-35-21.5-73T80-480q0-83 31.5-156T197-763q54-54 127-85.5T480-880q83 0 156 31.5T763-763q54 54 85.5 127T880-480v320q0 33-23.5 56.5T800-80H480Z"/>
</svg>
