<svg aria-hidden="true" viewBox="0 -960 960 960" fill="currentColor">
  <path d="M202.87-151.869q-37.783 0-64.392-26.609-26.609-26.609-26.609-64.392v-554.26q0-37.783 26.609-64.392 26.609-26.609 64.392-26.609h554.26q37.783 0 64.392 26.609 26.609 26.609 26.609 64.392v284.717q-11.674-2.717-23.327-4.196-11.652-1.478-24.804-1.478h-42.87V-797.13H202.87v554.26h113.956q3.043 25.109 9.783 48.098 6.739 22.99 18.217 42.903H202.87Zm0-121.435v30.434-554.26 523.826Zm75.217-44.783h40.174q9.195-51.63 38.587-94.326 29.391-42.696 74.261-69.5H278.087v163.826Zm0-240h163.826v-163.826H278.087v163.826ZM560-105.413q-68.565 0-117.391-48.674-48.827-48.674-48.827-117.424t48.674-117.543Q491.13-437.848 560-437.848h36.891q18.196 0 30.652 12.457Q640-412.935 640-394.739t-12.457 30.652q-12.456 12.457-30.652 12.457H560q-33 0-56.5 23.5t-23.5 56.5q0 33 23.5 56.5t56.5 23.5h36.891q18.196 0 30.652 12.456Q640-166.717 640-148.521q0 18.195-12.457 30.652-12.456 12.456-30.652 12.456H560Zm-41.913-452.674h163.826v-163.826H518.087v163.826Zm85.022 329.566q-18.196 0-30.652-12.457Q560-253.435 560-271.63q0-18.196 12.457-30.652 12.456-12.457 30.652-12.457h153.782q18.196 0 30.652 12.457Q800-289.826 800-271.63q0 18.195-12.457 30.652-12.456 12.457-30.652 12.457H603.109ZM800-105.413h-36.891q-18.196 0-30.652-12.456Q720-130.326 720-148.521q0-18.196 12.457-30.653 12.456-12.456 30.652-12.456H800q33 0 56.5-23.5t23.5-56.5q0-33-23.5-56.5t-56.5-23.5h-36.891q-18.196 0-30.652-12.457Q720-376.543 720-394.739t12.457-30.652q12.456-12.457 30.652-12.457H800q68.565 0 117.391 48.321 48.827 48.32 48.827 117.943 0 68.584-48.827 117.378Q868.565-105.413 800-105.413Z"/>
</svg>
