<svg aria-hidden="true" viewBox="0 -960 960 960" fill="currentColor">
  <path d="M291.5-411.5Q280-423 280-440t11.5-28.5Q303-480 320-480t28.5 11.5Q360-457 360-440t-11.5 28.5Q337-400 320-400t-28.5-11.5Zm160 0Q440-423 440-440t11.5-28.5Q463-480 480-480t28.5 11.5Q520-457 520-440t-11.5 28.5Q497-400 480-400t-28.5-11.5Zm160 0Q600-423 600-440t11.5-28.5Q623-480 640-480t28.5 11.5Q680-457 680-440t-11.5 28.5Q657-400 640-400t-28.5-11.5ZM200-80q-33 0-56.5-23.5T120-160v-560q0-33 23.5-56.5T200-800h40v-40q0-17 11.5-28.5T280-880q17 0 28.5 11.5T320-840v40h320v-40q0-17 11.5-28.5T680-880q17 0 28.5 11.5T720-840v40h40q33 0 56.5 23.5T840-720v560q0 33-23.5 56.5T760-80H200Zm0-80h560v-400H200v400Z"/>
</svg>
