<svg aria-hidden="true" viewBox="0 -960 960 960" fill="currentColor">
  <path d="M211.5-371.5Q200-383 200-400t11.5-28.5Q223-440 240-440t28.5 11.5Q280-417 280-400t-11.5 28.5Q257-360 240-360t-28.5-11.5Zm0 160Q200-223 200-240t11.5-28.5Q223-280 240-280t28.5 11.5Q280-257 280-240t-11.5 28.5Q257-200 240-200t-28.5-11.5Zm0-320Q200-543 200-560t11.5-28.5Q223-600 240-600t28.5 11.5Q280-577 280-560t-11.5 28.5Q257-520 240-520t-28.5-11.5ZM106-546q-6-6-6-14t6-14q6-6 14-6t14 6q6 6 6 14t-6 14q-6 6-14 6t-14-6Zm105.5-145.5Q200-703 200-720t11.5-28.5Q223-760 240-760t28.5 11.5Q280-737 280-720t-11.5 28.5Q257-680 240-680t-28.5-11.5ZM106-386q-6-6-6-14t6-14q6-6 14-6t14 6q6 6 6 14t-6 14q-6 6-14 6t-14-6Zm280 280q-6-6-6-14t6-14q6-6 14-6t14 6q6 6 6 14t-6 14q-6 6-14 6t-14-6Zm0-720q-6-6-6-14t6-14q6-6 14-6t14 6q6 6 6 14t-6 14q-6 6-14 6t-14-6Zm-14.5 134.5Q360-703 360-720t11.5-28.5Q383-760 400-760t28.5 11.5Q440-737 440-720t-11.5 28.5Q417-680 400-680t-28.5-11.5Zm-14 334Q340-375 340-400t17.5-42.5Q375-460 400-460t42.5 17.5Q460-425 460-400t-17.5 42.5Q425-340 400-340t-42.5-17.5Zm0-160Q340-535 340-560t17.5-42.5Q375-620 400-620t42.5 17.5Q460-585 460-560t-17.5 42.5Q425-500 400-500t-42.5-17.5Zm14 306Q360-223 360-240t11.5-28.5Q383-280 400-280t28.5 11.5Q440-257 440-240t-11.5 28.5Q417-200 400-200t-28.5-11.5ZM691-664q-69-78-171-93-17-2-28.5-14T480-800q0-17 12-28.5t29-9.5q135 16 227 117.5T840-480q0 139-92 240.5T521-122q-17 2-29-9.5T480-160q0-17 11.5-29t28.5-14q102-15 171-93t69-184q0-106-69-184ZM480-480Z"/>
</svg>
