<svg aria-hidden="true" viewBox="0 -960 960 960" fill="currentColor">
  <path d="M480-76.413q-18.435 0-31.011-12.576T436.413-120v-480H137.022q-16.913 0-21.631-15.913-4.717-15.913 8.957-25.348l302.956-214.152q23.87-16.392 52.696-16.392 28.826 0 52.696 16.392l302.956 214.152q13.674 9.435 9.076 25.348Q840.131-600 822.978-600H523.587v480q0 18.435-12.576 31.01Q498.435-76.412 480-76.412Zm-331 0q-18.435 0-31.011-12.576T105.413-120v-169.522l-25-136.761q-3.24-18.434 6.598-32.75 9.837-14.315 28.271-17.554 17.674-3.478 32.25 6.859 14.577 10.337 18.055 28.011l22.282 118.13h123.044q19.152 0 32.326 13.174t13.174 32.326V-120q0 18.435-12.696 31.01-12.695 12.577-31.13 12.577t-31.011-12.576Q269-101.565 269-120v-116.413h-76.413V-120q0 18.435-12.576 31.01Q167.435-76.412 149-76.412Zm498.413 0q-18.435 0-31.13-12.576-12.696-12.576-12.696-31.011v-158.087q0-19.152 13.174-32.326t32.326-13.174h123.044l22.282-118.13q3.478-17.435 18.055-27.653 14.576-10.217 32.25-7.217 18.434 3 28.391 17.435 9.957 14.435 6.478 32.869l-25 136.761V-120q0 18.435-12.576 31.01Q829.435-76.412 811-76.412t-31.011-12.576Q767.413-101.565 767.413-120v-116.413H691V-120q0 18.435-12.576 31.01-12.576 12.577-31.011 12.577Z"/>
</svg>
