<svg aria-hidden="true" viewBox="0 -960 960 960" fill="currentColor">
  <path d="M720-40q-83 0-141.5-58.5T520-240q0-83 58.5-141.5T720-440q83 0 141.5 58.5T920-240q0 83-58.5 141.5T720-40ZM320-600h320q17 0 28.5-11.5T680-640q0-17-11.5-28.5T640-680H320q-17 0-28.5 11.5T280-640q0 17 11.5 28.5T320-600ZM200-120q-33 0-56.5-23.5T120-200v-560q0-33 23.5-56.5T200-840h560q33 0 56.5 23.5T840-760v218q0 18-15 28t-32 4q-17-5-35.5-7.5T720-520q-11 0-20.5.5T680-517q-9-2-20-2.5t-20-.5H320q-17 0-28.5 11.5T280-480q0 17 11.5 28.5T320-440h205q-18 17-32.5 37T467-360H320q-17 0-28.5 11.5T280-320q0 17 11.5 28.5T320-280h123q-2 10-2.5 19.5T440-240q0 20 2 38t7 35q5 17-5 32t-27 15H200Zm562.5-137.5Q780-275 780-300t-17.5-42.5Q745-360 720-360t-42.5 17.5Q660-325 660-300t17.5 42.5Q695-240 720-240t42.5-17.5Zm4.5 128q22-9.5 39-27.5 5-6 4-13.5t-9-11.5q-19-9-39.5-13.5T720-200q-21 0-41.5 4.5T639-182q-8 3-9 11t4 14q17 18 39 27.5t47 9.5q25 0 47-9.5Z"/>
</svg>
