<svg aria-hidden="true" viewBox="0 -960 960 960" fill="currentColor">
  <path d="M200-120q-33 0-56.5-23.5T120-200v-560q0-33 23.5-56.5T200-840h560q33 0 56.5 23.5T840-760v200q0 17-11.5 28.5T800-520q-17 0-28.5-11.5T760-560v-200H200v560h200q17 0 28.5 11.5T440-160q0 17-11.5 28.5T400-120H200Zm0-120v40-560 243-3 280Zm91.5-51.5Q303-280 320-280h83q17 0 28.5-11.5T443-320q0-17-11.5-28.5T403-360h-83q-17 0-28.5 11.5T280-320q0 17 11.5 28.5Zm0-160Q303-440 320-440h200q17 0 28.5-11.5T560-480q0-17-11.5-28.5T520-520H320q-17 0-28.5 11.5T280-480q0 17 11.5 28.5Zm0-160Q303-600 320-600h320q17 0 28.5-11.5T680-640q0-17-11.5-28.5T640-680H320q-17 0-28.5 11.5T280-640q0 17 11.5 28.5ZM720-40q-83 0-141.5-58.5T520-240q0-83 58.5-141.5T720-440q83 0 141.5 58.5T920-240q0 83-58.5 141.5T720-40Zm42.5-217.5Q780-275 780-300t-17.5-42.5Q745-360 720-360t-42.5 17.5Q660-325 660-300t17.5 42.5Q695-240 720-240t42.5-17.5Zm5.5 128q21-9.5 38-27.5 6-6 5-14t-9-13q-18-11-38.5-15.5T720-204q-23 0-43.5 5T638-184q-8 4-9 12.5t5 14.5q17 18 38 27.5t48 9.5q27 0 48-9.5Z"/>
</svg>
