<svg aria-hidden="true" viewBox="0 -960 960 960" fill="currentColor">
  <path d="M156.174-111.869q-18.674 0-31.489-12.816-12.816-12.815-12.816-31.489t12.816-31.489q12.815-12.815 31.489-12.815h647.652q18.674 0 31.489 12.815 12.816 12.815 12.816 31.489t-12.816 31.489q-12.815 12.816-31.489 12.816H156.174Zm0-323.827q-18.674 0-31.489-12.815-12.816-12.815-12.816-31.489t12.816-31.489q12.815-12.815 31.489-12.815h647.652q18.674 0 31.489 12.815 12.816 12.815 12.816 31.489t-12.816 31.489q-12.815 12.815-31.489 12.815H156.174Zm0-323.826q-18.674 0-31.489-12.815-12.816-12.815-12.816-31.489t12.816-31.489q12.815-12.816 31.489-12.816h647.652q18.674 0 31.489 12.816 12.816 12.815 12.816 31.489t-12.816 31.489q-12.815 12.815-31.489 12.815H156.174Z"/>
</svg>
