<svg aria-hidden="true" viewBox="0 -960 960 960" fill="currentColor">
  <path d="M700-688v-92q0-8-6-14t-14-6q-8 0-14 6t-6 14v92q0 8 3 15.5t8 12.5l60 61q6 6 15 6t15-6q6-6 6-15t-6-15l-61-59Zm-20 208q-83 0-141.5-58.5T480-680q0-82 58-141t142-59q83 0 141.5 58.5T880-680q0 83-58.5 141.5T680-480ZM302.5-297.5Q320-315 320-340t-17.5-42.5Q285-400 260-400t-42.5 17.5Q200-365 200-340t17.5 42.5Q235-280 260-280t42.5-17.5Zm280 0Q600-315 600-340t-17.5-42.5Q565-400 540-400t-42.5 17.5Q480-365 480-340t17.5 42.5Q515-280 540-280t42.5-17.5Zm-445 200Q120-115 120-140v-62q-20-21-30-46.5T80-300v-380q0-72 66.5-110T362-837q29-2 45 22.5t5 53.5q-6 20-9 41.5t-3 42.5q0 15-9.5 26T366-640H160v120h260q14 0 27 6.5t22 17.5q17 20 37 35.5t43 27.5q32 17 66.5 25.5T686-400q14 0 24 8.5t10 22.5v69q0 26-10 51.5T680-202v62q0 25-17.5 42.5T620-80q-25 0-42.5-17.5T560-140v-20H240v20q0 25-17.5 42.5T180-80q-25 0-42.5-17.5Z"/>
</svg>
