<svg aria-hidden="true" viewBox="0 -960 960 960" fill="currentColor">
  <path d="M260-280q25 0 42.5-17.5T320-340q0-25-17.5-42.5T260-400q-25 0-42.5 17.5T200-340q0 25 17.5 42.5T260-280Zm280 0q25 0 42.5-17.5T600-340q0-25-17.5-42.5T540-400q-25 0-42.5 17.5T480-340q0 25 17.5 42.5T540-280ZM240-160v20q0 25-17.5 42.5T180-80q-25 0-42.5-17.5T120-140v-62q-18-20-29-44.5T80-300v-380q0-30 11.5-60.5t51-54.5Q182-819 259-831.5t207-6.5q-20 48-24.5 98T452-640H160v120h364q38 38 88.5 59T720-440v140q0 29-11 53.5T680-202v62q0 25-17.5 42.5T620-80q-25 0-42.5-17.5T560-140v-20H240Zm480-360q-83 0-141.5-58.5T520-720q0-83 58.5-141.5T720-920q83 0 141.5 58.5T920-720q0 83-58.5 141.5T720-520Zm20-208v-92q0-8-6-14t-14-6q-8 0-14 6t-6 14v92q0 8 3 15.5t8 12.5l60 61q6 6 15 6t15-6q6-6 6-15t-6-15l-61-59Z"/>
</svg>
