<svg aria-hidden="true" viewBox="0 -960 960 960" fill="currentColor">
  <path d="M740-208v-92q0-8-6-14t-14-6q-8 0-14 6t-6 14v91q0 8 3 15.5t9 13.5l60 60q6 6 14 6t14-6q6-6 6-14t-6-14l-60-60ZM501-449q10-3 19-8l203-117q14-8 18-24.5t-4-30.5q-8-14-24-18t-30 4L480-526 277-643q-14-8-30-4t-24 18q-8 14-3.5 30.5T238-574l202 117q9 5 19 8t21 3q11 0 21-3ZM120-321v-318q0-22 10.5-40t29.5-29l280-161q10-5 19.5-8t20.5-3q11 0 21 3t19 8l280 161q19 11 29.5 29t10.5 40v136q0 18-15 28t-32 5q-17-5-35.5-7.5T720-480q-116 0-198 82t-82 198v20.5q0 9.5 2 17.5 4 25-14.5 39t-38.5 3L160-252q-19-11-29.5-29T120-321ZM578.5-58.5Q520-117 520-200t58.5-141.5Q637-400 720-400t141.5 58.5Q920-283 920-200T861.5-58.5Q803 0 720 0T578.5-58.5Z"/>
</svg>
