<svg aria-hidden="true" viewBox="0 -960 960 960" fill="currentColor">
  <path d="M480-800 243-663l237 137 237-137-237-137ZM120-321v-318q0-22 10.5-40t29.5-29l280-161q10-5 19.5-8t20.5-3q11 0 21 3t19 8l280 161q19 11 29.5 29t10.5 40v119q0 17-11.5 28.5T800-480q-17 0-28.5-11.5T760-520v-76L519-457q-19 11-40 11t-40-11L200-596v274l220 128q9 5 14.5 14t5.5 20q0 23-20 34.5t-40 .5L160-252q-19-11-29.5-29T120-321ZM578.5-58.5Q520-117 520-200t58.5-141.5Q637-400 720-400t141.5 58.5Q920-283 920-200T861.5-58.5Q803 0 720 0T578.5-58.5ZM480-491Zm260 283v-92q0-8-6-14t-14-6q-8 0-14 6t-6 14v91q0 8 3 15.5t9 13.5l60 60q6 6 14 6t14-6q6-6 6-14t-6-14l-60-60Z"/>
</svg>
