<svg aria-hidden="true" viewBox="0 -960 960 960" fill="currentColor">
  <path d="M200-120q-33 0-56.5-23.5T120-200h80v80Zm80 0v-80h80v80h-80Zm160 0v-80h80v80h-80Zm0-640v-80h80v80h-80Zm160 640v-80h80v80h-80Zm0-640v-80h80v80h-80Zm160 0v-80q33 0 56.5 23.5T840-760h-80Zm3 676L567-280H320q-17 0-28.5-11.5T280-320v-247L84-763q-11-11-11-27.5T84-819q12-12 28.5-12t28.5 12l679 679q12 12 11.5 28T819-84q-12 11-28 11.5T763-84ZM360-360h127L360-487v127Zm320-33-80-80v-127H473l-80-80h247q17 0 28.5 11.5T680-640v247ZM313-760l-33-33v-47h80v80h-47Zm480 480-33-33v-47h80v80h-47Zm-673 0v-80h80v80h-80Zm0-160v-80h80v80h-80Zm0-160v-80h80v80h-80Zm640 160v-80h80v80h-80Zm0-160v-80h80v80h-80Z"/>
</svg>
