<svg aria-hidden="true" viewBox="0 -960 960 960" fill="currentColor">
  <path d="M200.957-111.869Q164.13-111.869 138-138q-26.131-26.13-26.131-62.957h89.088v89.088Zm80 0v-89.088H360v89.088h-79.043Zm159.043 0v-89.088h80v89.088h-80Zm0-647.174v-89.088h80v89.088h-80Zm160 647.174v-89.088h79.043v89.088H600Zm0-647.174v-89.088h79.043v89.088H600Zm159.043 0v-89.088q36.827 0 62.957 26.131 26.131 26.13 26.131 62.957h-89.088Zm11.848 683.891L564.848-280.957H326.457q-19.153 0-32.327-13.173-13.173-13.174-13.173-32.327v-238.391L74.913-770.891q-11.718-11.718-11.718-28.935 0-17.218 11.718-29.696Q87.39-842 104.609-842q17.217 0 29.695 12.478l695.979 695.979q12.478 12.478 12.098 29.195Q842-87.63 829.522-75.152q-12.478 11.717-29.315 12.098-16.837.38-29.316-12.098ZM371.957-371.957h101.891L371.957-473.848v101.891Zm307.086-25.587-91-91v-99.499h-99.499l-91-91h235.999q19.153 0 32.327 13.173 13.173 13.174 13.173 32.327v235.999ZM317.544-759.043l-36.587-36.587v-52.501H360v89.088h-42.456ZM795.63-280.957l-36.587-36.587V-360h89.088v79.043H795.63Zm-683.761 0V-360h89.088v79.043h-89.088Zm0-159.043v-80h89.088v80h-89.088Zm0-160v-79.043h89.088V-600h-89.088Zm647.174 160v-80h89.088v80h-89.088Zm0-160v-79.043h89.088V-600h-89.088Z"/>
</svg>
