<svg aria-hidden="true" viewBox="0 -960 960 960" fill="currentColor">
  <path d="M757.109-578.5 576.587-758.783l54.608-54.847q26.348-26.348 64.392-26.348 38.043 0 64.391 26.348l51.739 51.739q26.348 26.347 26.348 64.391 0 38.044-26.348 64.391L757.109-578.5ZM110.674-112.587v-180.761l176.891-176.891L76.325-683l199.523-199.522 212.239 213 88.5-89.261L757.109-578.5l-88.5 88.5 211.239 212.761L681.087-78.478l-213-212-176.891 177.891H110.674Zm238.913-419.435 76.239-76.478-44.891-44.891-48 47.239-57.196-57.435 47.239-48-47.891-46.891L199.609-682l149.978 149.978Zm330.5 330.5 76.239-76.239-47.891-47.13-47.239 47.239-57.957-57.435 48-48-45.652-44.891-76.478 76.478 150.978 149.978Zm-482 1.522h56.239l379.261-378.5-57-57.239-378.5 379.261V-200Z"/>
</svg>
