<svg aria-hidden="true" viewBox="0 -960 960 960" fill="currentColor">
  <path d="M680-200h80v-560h-80v560ZM308.5-411.5Q320-423 320-440t-11.5-28.5Q297-480 280-480t-28.5 11.5Q240-457 240-440t11.5 28.5Q263-400 280-400t28.5-11.5Zm0 120Q320-303 320-320t-11.5-28.5Q297-360 280-360t-28.5 11.5Q240-337 240-320t11.5 28.5Q263-280 280-280t28.5-11.5ZM280-520h240q17 0 28.5-11.5T560-560v-80q0-17-11.5-28.5T520-680H280q-17 0-28.5 11.5T240-640v80q0 17 11.5 28.5T280-520Zm148.5 108.5Q440-423 440-440t-11.5-28.5Q417-480 400-480t-28.5 11.5Q360-457 360-440t11.5 28.5Q383-400 400-400t28.5-11.5Zm0 120Q440-303 440-320t-11.5-28.5Q417-360 400-360t-28.5 11.5Q360-337 360-320t11.5 28.5Q383-280 400-280t28.5-11.5Zm120-120Q560-423 560-440t-11.5-28.5Q537-480 520-480t-28.5 11.5Q480-457 480-440t11.5 28.5Q503-400 520-400t28.5-11.5Zm0 120Q560-303 560-320t-11.5-28.5Q537-360 520-360t-28.5 11.5Q480-337 480-320t11.5 28.5Q503-280 520-280t28.5-11.5ZM600-240v-480H200v480h400Zm80 120q-23 0-40.5-11T611-160H200q-33 0-56.5-23.5T120-240v-480q0-33 23.5-56.5T200-800h411q11-18 28.5-29t40.5-11h80q33 0 56.5 23.5T840-760v560q0 33-23.5 56.5T760-120h-80ZM200-240v-480 480Z"/>
</svg>
