<svg aria-hidden="true" viewBox="0 -960 960 960" fill="currentColor">
  <path d="M72.826-278.804v-402.87Q72.826-700.826 86-714t32.326-13.174h723.587q19.152 0 32.326 13.174t13.174 32.326v402.87q0 19.152-13.174 32.326t-32.326 13.174q-8 0-16.337-8.381-8.337-8.38-14.793-17.946-6.457-9.565-10.413-16.348-3.957-6.782-3.957-2.825v-29.717H643.826v29.717q0-3.957-3.837 2.945-3.837 6.902-10.413 16.348-6.576 9.446-14.913 17.826-8.337 8.381-16.337 8.381-19.152 0-32.326-13.174t-13.174-32.326v-357.37h-389v357.37q0 19.152-13.174 32.326t-32.326 13.174q-19.152 0-32.326-13.174t-13.174-32.326Zm571-282.153h152.587v-75.217H643.826v75.217Zm0 163.827h152.587v-75.218H643.826v75.218Z"/>
</svg>
