<svg aria-hidden="true" viewBox="0 -960 960 960" fill="currentColor">
  <path d="M480-146.783q-80.109 0-153.434-30.131-73.326-30.13-130.544-86.434-6.195-5.718-10.174-14.435-3.978-8.717-3.978-17.674 0-18.196 12.957-30.772 12.956-12.576 31.152-12.576 8.717 0 16.576 3.239t13.576 9.718q45.261 44.304 103.369 68.576 58.109 24.271 121.261 24.271 63.152 0 120.76-23.771 57.609-23.772 103.109-68.076 5.717-5.718 13.576-9.337 7.859-3.62 16.576-3.62 18.196 0 30.652 12.457 12.457 12.456 12.457 30.652 0 9.196-3.979 17.413-3.978 8.217-10.173 13.935-57.979 56.304-130.924 86.434Q559.869-146.783 480-146.783Zm0-77.259q-65.087 0-124.098-25.066-59.011-25.065-105.229-71.282-5.717-5.718-9.337-13.576-3.619-7.859-3.619-16.577 0-18.195 12.576-30.771 12.576-12.577 30.772-12.577 8.717 0 16.576 3.62 7.858 3.62 13.576 9.337 34.261 34.261 77.696 52.468Q432.348-310.26 480-310.26t91.207-18.087q43.554-18.087 77.815-52.348 5.718-5.717 13.576-9.217 7.859-3.5 16.577-3.5 18.195 0 30.532 12.337t12.337 30.532q0 8.718-3.5 16.577-3.5 7.858-9.217 13.576-46.218 46.217-105.229 71.282Q545.087-224.042 480-224.042ZM322.804-635.696l11.761 40h290.87l11.761-40H322.804Zm11.761 131.001q-30.543 0-54.652-18.25T247.326-570.5l-19.044-65.196h-34.978q-37.783 0-64.391-26.608-26.609-26.609-26.609-64.392v-131h755.392v131q0 37.783-26.609 64.392-26.608 26.608-64.391 26.608h-34.978l-23.848 68.479q-9.478 27.782-32.826 45.152t-52.892 17.37H334.565Z"/>
</svg>
