<svg aria-hidden="true" viewBox="0 -960 960 960" fill="currentColor">
  <path d="M479.88-146.783q-79.989 0-153.314-30.131-73.326-30.13-130.544-86.434-6.195-5.718-10.174-14.435-3.978-8.717-3.978-17.674 0-18.196 12.937-30.772 12.937-12.576 31.265-12.576 8.624 0 16.483 3.239t13.576 9.718q45.261 44.304 103.369 68.576 58.109 24.271 121.261 24.271 63.152 0 120.76-23.771 57.609-23.772 103.109-68.076 5.717-5.718 13.576-9.337 7.859-3.62 16.496-3.62 18.355 0 30.772 12.457 12.417 12.456 12.417 30.652 0 9.196-3.979 17.413-3.978 8.217-10.173 13.935-57.979 56.304-130.924 86.434-72.946 30.131-152.935 30.131Zm.12-77.259q-65.087 0-124.098-25.066-59.011-25.065-105.176-71.229-5.77-5.771-9.39-13.629-3.619-7.859-3.619-16.471 0-18.301 12.576-30.877 12.576-12.577 30.877-12.577 8.612 0 16.471 3.62 7.858 3.62 13.576 9.337 34.261 34.261 77.721 52.468 43.46 18.206 91.087 18.206t91.182-18.087q43.554-18.087 77.815-52.348 5.718-5.717 13.576-9.217 7.859-3.5 16.457-3.5 18.27 0 30.63 12.359 12.359 12.36 12.359 30.63 0 8.598-3.5 16.457-3.5 7.858-9.27 13.629-46.165 46.164-105.176 71.229Q545.087-224.042 480-224.042ZM193.304-766.696v40h573.392v-40H193.304Zm129.5 131 11.761 40h290.87l11.761-40H322.804Zm11.761 131.001q-30.543 0-54.652-18.25T247.326-570.5l-19.044-65.196h-34.978q-37.783 0-64.391-26.608-26.609-26.609-26.609-64.392v-131h755.392v131q0 37.783-26.609 64.392-26.608 26.608-64.391 26.608h-34.978l-23.848 68.479q-9.478 27.782-32.826 45.152t-52.892 17.37H334.565ZM193.304-766.696v40-40Z"/>
</svg>
