<svg aria-hidden="true" viewBox="0 -960 960 960" fill="currentColor">
  <path d="m274-480 98 98q12 12 11.5 28T372-326q-12 12-28.5 12.5T315-325L188-452q-12-12-12-28t12-28l127-127q12-12 28.5-11.5T372-634q11 12 11.5 28T372-578l-98 98Zm-74 200h80v40h400v-40h80v160q0 33-23.5 56.5T680-40H280q-33 0-56.5-23.5T200-120v-160Zm80-400h-80v-160q0-33 23.5-56.5T280-920h400q33 0 56.5 23.5T760-840v160h-80v-40H280v40Zm406 200-98-98q-12-12-11.5-28t11.5-28q12-12 28.5-12.5T645-635l127 127q12 12 12 28t-12 28L645-325q-12 12-28.5 11.5T588-326q-11-12-11.5-28t11.5-28l98-98Z"/>
</svg>
