<svg aria-hidden="true" viewBox="0 -960 960 960" fill="currentColor">
  <path d="M792-56 688-160h-68q-25 0-42.5-17.5T560-220v-68l-80-80v48q0 17-11.5 28.5T440-280H200q-33 0-56.5-23.5T120-360v-368l-64-64q-11-11-11-28t11-28q11-11 28-11t28 11l736 736q11 11 11 28t-11 28q-11 11-28 11t-28-11ZM481-593 274-800h486q33 0 56.5 23.5T840-720H620.5q-54.8 0-94.66 36.5T481-593Zm395 395L560-514v-66q0-25 17.5-42.5T620-640h200q25 0 42.5 17.5T880-580v360q0 6-1.2 11.5T876-198ZM720-460q13 0 21.5-9t8.5-21q0-13-8.5-21.5T720-520q-12 0-21 8.5t-9 21.5q0 12 9 21t21 9ZM120-160q-17 0-28.5-11.5T80-200q0-17 11.5-28.5T120-240h320q17 0 28.5 11.5T480-200q0 17-11.5 28.5T440-160H120Z"/>
</svg>
