<svg aria-hidden="true" viewBox="0 -960 960 960" fill="currentColor">
  <path d="m354-720-80-80h526q17 0 28.5 11.5T840-760q0 17-11.5 28.5T800-720H354Zm526 520-80-80v-280H640v126l-80-80v-86q0-17 11.5-28.5T600-640h240q17 0 28.5 11.5T880-600v400Zm-280 40q-17 0-28.5-11.5T560-200v-88L240-608v328h180q25 0 42.5 17.5T480-220q0 25-17.5 42.5T420-160H140q-25 0-42.5-17.5T80-220q0-25 17.5-42.5T140-280h20v-408l-76-76q-11-11-11-28t11-28q11-11 28-11t28 11l680 680q11 11 11 28t-11 28q-11 11-28 11t-28-11l-76-76h-88Zm120-197Z"/>
</svg>
