<svg aria-hidden="true" viewBox="0 -960 960 960" fill="currentColor">
  <path d="M480-165.478q-19.391 0-37.544-8.337-18.152-8.337-31.826-24.489L113.478-554.022q-17.152-20.63-20.63-47.739-3.478-27.109 8.956-51.217l70.935-140.631q12.435-22.869 33.565-36.424 21.131-13.554 47.24-13.554h452.912q26.109 0 47.24 13.554 21.13 13.555 33.565 36.424l70.935 140.631q12.434 24.108 8.956 51.217-3.478 27.109-20.63 47.739L549.37-198.304q-13.674 16.152-31.826 24.489-18.153 8.337-37.544 8.337ZM384.761-640h190.478l-58.326-116.413h-73.826L384.761-640ZM440-298.739V-560H222.783L440-298.739Zm80 0L737.217-560H520v261.261ZM664.478-640h101.457l-58.087-116.413H606.152L664.478-640Zm-470.413 0h101.457l58.326-116.413H252.152L194.065-640Z"/>
</svg>
