<svg aria-hidden="true" viewBox="0 -960 960 960" fill="currentColor">
  <path d="M381-641q-41-41-41-99t41-99q41-41 99-41t99 41q41 41 41 99t-41 99q-41 41-99 41t-99-41Zm141.5-56.5Q540-715 540-740t-17.5-42.5Q505-800 480-800t-42.5 17.5Q420-765 420-740t17.5 42.5Q455-680 480-680t42.5-17.5ZM423-137 240-320q-20-20-30-45t-10-55q0-59 40.5-99.5T340-560q29 0 53.5 11t44.5 31l42 42 42-42q20-20 44.5-31t53.5-11q59 0 99.5 40.5T760-420q0 30-10 55t-30 45L537-137q-12 12-27 18t-30 6q-15 0-30-6t-27-18Zm57-57 182-182q9-9 13.5-20.5T680-420q0-24-17-42t-43-18q-12 0-21.5 3.5T580-464L480-364 380-464q-6-6-15.5-11t-24.5-5q-26 0-43 18t-17 42q0 12 5 22.5t13 19.5l182 184Zm0-546Zm0 403Z"/>
</svg>
