<svg aria-hidden="true" viewBox="0 -960 960 960" fill="currentColor">
  <path d="M320-200v20q0 25-17.5 42.5T260-120q-25 0-42.5-17.5T200-180v-62q-18-20-29-44.5T160-340v-380q0-83 77-121.5T480-880q172 0 246 37t74 123v380q0 29-11 53.5T760-242v62q0 25-17.5 42.5T700-120q-25 0-42.5-17.5T640-180v-20H320Zm-80-360h480v-120H240v120Zm142.5 222.5Q400-355 400-380t-17.5-42.5Q365-440 340-440t-42.5 17.5Q280-405 280-380t17.5 42.5Q315-320 340-320t42.5-17.5Zm280 0Q680-355 680-380t-17.5-42.5Q645-440 620-440t-42.5 17.5Q560-405 560-380t17.5 42.5Q595-320 620-320t42.5-17.5Z"/>
</svg>
