<svg aria-hidden="true" viewBox="0 -960 960 960" fill="currentColor">
  <path d="M200-80q-83 0-141.5-58.5T0-280q0-83 58.5-141.5T200-480q83 0 141.5 58.5T400-280q0 83-58.5 141.5T200-80Zm85-115q35-35 35-85t-35-85q-35-35-85-35t-85 35q-35 35-35 85t35 85q35 35 85 35t85-35Zm243-441-96 96 66 69q11 11 16.5 25t5.5 30v176q0 17-11.5 28.5T480-200q-17 0-28.5-11.5T440-240v-160L312-512q-12-11-18-25.5t-6-30.5q0-16 6.5-30.5T312-624l112-112q12-12 27.5-18t32.5-6q17 0 32.5 6t27.5 18l76 76q23 23 50.5 37.5T729-603q17 3 26.5 16t6.5 30q-3 17-16 26.5t-30 6.5q-45-8-84.5-28T560-604l-32-32Zm35.5-127.5Q540-787 540-820t23.5-56.5Q587-900 620-900t56.5 23.5Q700-853 700-820t-23.5 56.5Q653-740 620-740t-56.5-23.5ZM760-80q-83 0-141.5-58.5T560-280q0-83 58.5-141.5T760-480q83 0 141.5 58.5T960-280q0 83-58.5 141.5T760-80Zm85-115q35-35 35-85t-35-85q-35-35-85-35t-85 35q-35 35-35 85t35 85q35 35 85 35t85-35Z"/>
</svg>
