<svg aria-hidden="true" viewBox="0 -960 960 960" fill="currentColor">
  <path d="M300-200q-59 0-99.5-40.5T160-340v-380q0-83 77-121.5T480-880q172 0 246 37t74 123v380q0 59-40.5 99.5T660-200l65 43q12 8 8 22.5T714-120H246q-15 0-19-14.5t8-22.5l65-43Zm-60-360h200v-120H240v120Zm420 80H240h480-60Zm-140-80h200v-120H520v120ZM382.5-337.5Q400-355 400-380t-17.5-42.5Q365-440 340-440t-42.5 17.5Q280-405 280-380t17.5 42.5Q315-320 340-320t42.5-17.5Zm280 0Q680-355 680-380t-17.5-42.5Q645-440 620-440t-42.5 17.5Q560-405 560-380t17.5 42.5Q595-320 620-320t42.5-17.5ZM300-280h360q26 0 43-17t17-43v-140H240v140q0 26 17 43t43 17Zm180-520q-86 0-142.5 10T258-760h448q-18-20-74.5-30T480-800Zm0 40h226-448 222Z"/>
</svg>
