<svg aria-hidden="true" viewBox="0 -960 960 960" fill="currentColor">
  <path d="M607.5-352.5Q660-405 660-480t-52.5-127.5Q555-660 480-660t-127.5 52.5Q300-555 300-480t52.5 127.5Q405-300 480-300t127.5-52.5Zm-156-99Q440-463 440-480t11.5-28.5Q463-520 480-520t28.5 11.5Q520-497 520-480t-11.5 28.5Q497-440 480-440t-28.5-11.5ZM480-80q-83 0-156-31.5T197-197q-54-54-85.5-127T80-480q0-83 31.5-156T197-763q54-54 127-85.5T480-880q98 0 183 44t141 122q10 14 5.5 30T791-660q-14 8-30 4t-27-18q-45-60-112-93t-142-33q-134 0-227 93t-93 227q0 134 93 227t227 93q42 0 82.5-11t76.5-32q15-8 31-6t26 16q10 14 7 30.5T686-138q-47 28-99.5 43T480-80Zm331.5-171.5Q800-263 800-280v-240q0-17 11.5-28.5T840-560q17 0 28.5 11.5T880-520v240q0 17-11.5 28.5T840-240q-17 0-28.5-11.5Zm0 160Q800-103 800-120t11.5-28.5Q823-160 840-160t28.5 11.5Q880-137 880-120t-11.5 28.5Q857-80 840-80t-28.5-11.5ZM480-480Z"/>
</svg>
