<svg aria-hidden="true" viewBox="0 -960 960 960" fill="currentColor">
  <path d="M607.5-352.5Q660-405 660-480t-52.5-127.5Q555-660 480-660t-127.5 52.5Q300-555 300-480t52.5 127.5Q405-300 480-300t127.5-52.5Zm-156-99Q440-463 440-480t11.5-28.5Q463-520 480-520t28.5 11.5Q520-497 520-480t-11.5 28.5Q497-440 480-440t-28.5-11.5Zm360 200Q800-263 800-280v-240q0-17 11.5-28.5T840-560q17 0 28.5 11.5T880-520v240q0 17-11.5 28.5T840-240q-17 0-28.5-11.5Zm0 160Q800-103 800-120t11.5-28.5Q823-160 840-160t28.5 11.5Q880-137 880-120t-11.5 28.5Q857-80 840-80t-28.5-11.5ZM480-80q-83 0-156-31.5T197-197q-54-54-85.5-127T80-480q0-83 31.5-156T197-763q54-54 127-85.5T480-880q103 0 191 48.5T814-699q13 19 1 39t-36 20h-19q-17 0-28.5 11.5T720-600v411q0 14-6.5 25.5T696-144q-49 31-104 47.5T480-80Z"/>
</svg>
