<svg aria-hidden="true" viewBox="0 -960 960 960" fill="currentColor">
  <path d="M200-520v320h560v-320H200Zm0-80h560v-160H200v160Zm280 360q-33 0-56.5-23.5T400-320q0-14 3-27.5t12-30.5q11-20 23-39t25-38q6-9 17-9t17 9q13 19 25 38t23 39q9 17 12 30.5t3 27.5q0 33-23.5 56.5T480-240Zm228.5-411.5Q720-663 720-680t-11.5-28.5Q697-720 680-720t-28.5 11.5Q640-697 640-680t11.5 28.5Q663-640 680-640t28.5-11.5ZM200-120q-33 0-56.5-23.5T120-200v-560q0-33 23.5-56.5T200-840h560q33 0 56.5 23.5T840-760v560q0 33-23.5 56.5T760-120H200Zm0-480v-160 160Z"/>
</svg>
