<svg aria-hidden="true" viewBox="0 -960 960 960" fill="currentColor">
  <path d="M724.848-188.043H609.326q-19.152 0-32.326-13.174t-13.174-32.326q0-19.153 13.174-32.327 13.174-13.173 32.326-13.173h115.522l-27.391-27.392q-12.435-12.434-12.055-30.989.381-18.554 12.816-30.989 13.913-13.913 32.543-14.272 18.631-.358 32.305 13.315l104 104q13.434 13.674 13.434 31.827 0 18.152-13.434 31.826l-104 104q-13.674 13.674-32.305 13.315-18.63-.359-32.543-14.272-13.196-13.195-13.196-31.369t13.196-31.37l26.63-26.63ZM202.87-111.869q-37.783 0-64.392-26.609-26.609-26.609-26.609-64.392V-314.5q0-19.152 13.174-32.326T157.37-360q19.152 0 32.326 13.174T202.87-314.5v111.63H314.5q19.152 0 32.326 13.174T360-157.37q0 19.153-13.174 32.327T314.5-111.869H202.87ZM111.869-645.5v-111.63q0-37.783 26.609-64.392 26.609-26.609 64.392-26.609H314.5q19.152 0 32.326 13.174T360-802.63q0 19.152-13.174 32.326T314.5-757.13H202.87v111.63q0 19.152-13.174 32.326T157.37-600q-19.153 0-32.327-13.174T111.869-645.5Zm645.261 0v-111.63H645.5q-19.152 0-32.326-13.174T600-802.63q0-19.153 13.174-32.327t32.326-13.174h111.63q37.783 0 64.392 26.609 26.609 26.609 26.609 64.392v111.63q0 19.152-13.174 32.326T802.63-600q-19.152 0-32.326-13.174T757.13-645.5Z"/>
</svg>
