<svg aria-hidden="true" viewBox="0 -960 960 960" fill="currentColor">
  <path d="M264-840q62.915 0 119.838 26.38Q440.761-787.239 480-740q39.239-47.239 96.162-73.62Q633.085-840 696-840q111.522 0 187.761 76.239Q960-687.522 960-576q0 37.283-9.811 74.041-9.811 36.759-27.472 72.524-13.63-20.195-32.098-34.956-18.467-14.761-41.576-22.087 9.453-23 14.705-45Q869-553.478 869-576q0-72.978-50.011-122.989Q768.978-749 696-749q-77.891 0-121.152 41.631-43.261 41.63-94.848 101.413-51.587-60.544-94.848-101.794Q341.891-749 264-749q-72.978 0-122.989 50.011Q91.001-648.978 91.001-576q0 22.522 5.251 44.522 5.252 22 14.705 45-22.87 7.326-41.337 22.206-18.468 14.881-32.337 35.076-17.761-36-27.522-72.761Q0-538.717 0-576q0-111.522 76.24-187.761Q152.477-840 264-840ZM41.674-60.87q-19.152 0-32.326-13.173Q-3.826-87.217-3.826-106.37v-21.326q0-45.736 45.196-73.281Q86.565-228.521 160-228.521q10.95 0 20.636.76 9.686.761 18.951 2.283-14.478 21.196-21.337 45.342-6.859 24.145-6.859 51.441v67.826H41.674Zm240 0q-19.152 0-32.326-13.173-13.174-13.174-13.174-32.326v-22.326q0-66.704 67.456-108.265 67.457-41.561 176.37-41.561 109.722 0 176.774 41.561t67.052 108.265v22.326q0 19.152-13.174 32.326T678.326-60.87H281.674Zm506.935 0v-67.825q0-27.196-7.239-51.511t-20.957-45.272q9.265-1.522 18.951-2.283 9.686-.76 20.636-.76 73.435 0 118.63 27.545 45.196 27.545 45.196 73.281v21.326q0 19.152-13.174 32.326T918.326-60.87H788.609ZM480-192.064q-52.456 0-94.945 13.707-42.49 13.706-53.12 31.032h296.13q-11.391-18.087-53.5-31.413T480-192.065Zm-320-75.5q-34.196 0-58.294-24.098-24.097-24.098-24.097-58.293 0-34.196 24.097-58.294 24.098-24.098 58.294-24.098t58.294 24.098q24.097 24.098 24.097 58.294 0 34.195-24.097 58.293-24.098 24.098-58.294 24.098Zm640 0q-34.196 0-58.294-24.098-24.097-24.098-24.097-58.293 0-34.196 24.097-58.294 24.098-24.098 58.294-24.098t58.294 24.098q24.097 24.098 24.097 58.294 0 34.195-24.097 58.293-24.098 24.098-58.294 24.098Zm-320.056-40.717q-51.618 0-87.694-36.133-36.076-36.132-36.076-87.75 0-51.617 36.132-87.694 36.133-36.076 87.75-36.076 51.618 0 87.694 36.133 36.076 36.132 36.076 87.75 0 51.617-36.132 87.694-36.133 36.076-87.75 36.076Zm.014-161.435q-16.001 0-26.784 10.824-10.783 10.825-10.783 26.826 0 16.002 10.825 26.785Q464.04-394.5 480.042-394.5q16.001 0 26.784-10.824 10.783-10.825 10.783-26.826 0-16.002-10.825-26.785-10.824-10.782-26.826-10.782Zm.042 322.39Zm0-284.783Z"/>
</svg>
