<svg aria-hidden="true" viewBox="0 -960 960 960" fill="currentColor">
  <path d="M80-160q-17 0-28.5-11.5T40-200v-120q0-33 23.5-56.5T120-400h131q20 0 38 10t29 27q29 39 71.5 61t90.5 22q49 0 91.5-22t70.5-61q13-17 30.5-27t36.5-10h131q33 0 56.5 23.5T920-320v120q0 17-11.5 28.5T880-160H680q-17 0-28.5-11.5T640-200v-51q-35 25-75.5 38T480-200q-43 0-84-13.5T320-252v52q0 17-11.5 28.5T280-160H80Zm400-160q-38 0-72-17.5T351-386q-17-25-42.5-39.5T253-440q22-37 93-58.5T480-520q63 0 134 21.5t93 58.5q-29 0-55 14.5T609-386q-22 32-56 49t-73 17ZM160-440q-50 0-85-35t-35-85q0-50 35-85t85-35q50 0 85 35t35 85q0 50-35 85t-85 35Zm640 0q-50 0-85-35t-35-85q0-50 35-85t85-35q50 0 85 35t35 85q0 50-35 85t-85 35ZM480-560q-50 0-85-35t-35-85q0-50 35-85t85-35q50 0 85 35t35 85q0 50-35 85t-85 35Z"/>
</svg>
