<svg aria-hidden="true" viewBox="0 -960 960 960" fill="currentColor">
  <path d="M76.174-144.217q-19.152 0-32.326-13.174t-13.174-32.326v-120q0-35.392 25.054-60.446 25.054-25.054 60.446-25.054h132.435q20.717 0 37.88 9.282 17.163 9.283 27.685 25.565 29.478 40.196 72.935 62.674 43.456 22.479 92.891 22.479 50.196 0 93.772-22.479 43.576-22.478 72.293-62.674 12.044-16.282 28.826-25.565 16.783-9.282 36.5-9.282h132.674q35.392 0 60.446 25.054 25.054 25.054 25.054 60.446v120q0 19.152-13.174 32.326-13.173 13.174-32.326 13.174h-200q-19.152 0-32.326-13.174t-13.174-32.326v-47.652q-35 23.565-75.141 35.967Q523.283-189 480-189q-42.283 0-82.804-12.782-40.522-12.783-75.522-36.348v48.413q0 19.152-13.174 32.326t-32.326 13.174h-200ZM480-320q-36.804 0-69.728-17.022-32.924-17.021-55.207-47.065Q336.63-411 309.576-425.5 282.522-440 250.13-440q24.392-36.522 95.631-58.62Q417-520.717 480-520.717t134.359 22.097q71.358 22.098 95.75 58.62-31.631 0-59.066 14.38-27.434 14.381-45.869 41.533-21.283 30.804-54.326 47.446Q517.804-320 480-320ZM160-444.783q-50.957 0-86.674-35.717-35.717-35.718-35.717-86.674 0-50.957 35.717-86.674 35.717-35.717 86.674-35.717 50.957 0 86.674 35.717 35.717 35.717 35.717 86.674 0 50.956-35.717 86.674-35.717 35.717-86.674 35.717Zm640 0q-50.957 0-86.674-35.717-35.717-35.718-35.717-86.674 0-50.957 35.717-86.674 35.717-35.717 86.674-35.717 50.957 0 86.674 35.717 35.717 35.717 35.717 86.674 0 50.956-35.717 86.674-35.717 35.717-86.674 35.717Zm-320-125.5q-50.957 0-86.674-35.717-35.717-35.718-35.717-86.674 0-50.957 35.717-86.674 35.717-35.718 86.674-35.718 50.957 0 86.674 35.718 35.717 35.717 35.717 86.674 0 50.956-35.717 86.674-35.717 35.717-86.674 35.717Z"/>
</svg>
