<svg aria-hidden="true" viewBox="0 -960 960 960" fill="currentColor">
  <path d="M350-63q-46 0-82.5-24T211-153q-16 21-40.5 32.5T120-109q-51 0-85.5-35T0-229q0-43 28-77.5T99-346q-14-20-21.5-42.5T70-436q0-40 20.5-75t57.5-57q5 18 13.5 38.5T181-494q-14 11-22 26.5t-8 32.5q0 56 46 69t87 21l19 32q-11 32-19 54.5t-8 40.5q0 30 21.5 52.5T350-143q32 0 54.5-24.5t38-61Q458-265 468-306t16-74q3-17 17-27t30-5q17 5 25.5 20.5T561-359q-9 46-23 98t-37.5 96q-23.5 44-60 73T350-63ZM120-189q17 0 28.5-11.5T160-229q0-17-11.5-28.5T120-269q-17 0-28.5 11.5T80-229q0 17 11.5 28.5T120-189Zm313-187q-13 13-31.5 11.5T369-379q-77-70-123-127t-46-123q0-65 44.5-109.5T354-783q4 0 7 .5t7 .5q-4-10-6-20t-2-21q0-50 35-85t85-35q50 0 85 35t35 85q0 11-2 20.5t-6 19.5h14q60 0 102 38.5t50 95.5q-18-3-40.5-3t-41.5 2q-7-23-25.5-38T606-703q-35 0-54.5 20.5T498-623h-37q-35-41-54.5-60.5T354-703q-32 0-53 21t-21 53q0 42 39.5 87.5T426-435q14 12 16.5 29.5T433-376Zm47-407q17 0 28.5-11.5T520-823q0-17-11.5-28.5T480-863q-17 0-28.5 11.5T440-823q0 17 11.5 28.5T480-783ZM609-63q-22 0-43.5-6T524-88q11-14 22-33t20-35q11 7 22 10t22 3q32 0 53.5-22.5T685-219q0-19-8-41t-19-54l19-32q42-8 87.5-21t45.5-69q0-40-29.5-58T716-512q-35 0-81 12t-105 31q-17 5-33-1.5T476-494q-5-17 5-32.5t27-20.5q63-20 114-32.5t95-12.5q69 0 121 41t52 115q0 25-7.5 47.5T861-346q43 5 71 39.5t28 77.5q0 50-34.5 85T840-109q-26 0-50.5-11.5T749-153q-20 42-56.5 66T609-63Zm232-126q17 0 28-11.5t11-28.5q0-17-11.5-29T840-270q-17 0-28.5 11.5T800-230q0 17 12 29t29 12Zm-721-40Zm360-594Zm360 593Z"/>
</svg>
