<svg aria-hidden="true" viewBox="0 -960 960 960" fill="currentColor">
  <path d="M264-840q63 0 119.88 26.38Q440.761-787.239 480-740q39.239-47.239 96.12-73.62Q633-840 696-840q111.522 0 187.761 76.239Q960-687.522 960-576q0 37.283-9.761 74.043-9.761 36.761-27.522 72.522-13.63-20.195-32.098-34.956-18.467-14.761-41.576-22.087 9.478-23 14.718-45Q869-553.478 869-576q0-72.978-50.011-122.989Q768.978-749 696-749q-77.891 0-121.152 41.631-43.261 41.63-94.848 101.413-51.587-60.544-94.848-101.794Q341.891-749 264-749q-72.978 0-122.989 50.011Q91.001-648.978 91.001-576q0 22.522 5.238 44.522 5.24 22 14.718 45-22.87 7.326-41.337 22.206-18.468 14.881-32.337 35.076-17.761-36-27.522-72.761Q0-538.717 0-576q0-111.522 76.24-187.761Q152.477-840 264-840ZM41.674-60.87q-19.152 0-32.326-13.173Q-3.826-87.217-3.826-106.37v-21.326q0-45.674 45.196-73.25Q86.565-228.521 160-228.521q10.848 0 20.554.76 9.707.761 19.033 2.283-14.478 21.196-21.337 45.391-6.859 24.196-6.859 51.392v67.826H41.674Zm240 0q-19.152 0-32.326-13.173-13.174-13.174-13.174-32.326v-22.326q0-66.674 67.456-108.25 67.457-41.576 176.37-41.576 109.674 0 176.75 41.576t67.076 108.25v22.326q0 19.152-13.174 32.326T678.326-60.87H281.674Zm506.935 0v-67.825q0-27.196-7.239-51.511t-20.957-45.272q9.326-1.522 19.033-2.283 9.706-.76 20.554-.76 73.435 0 118.63 27.576 45.196 27.576 45.196 73.25v21.326q0 19.152-13.174 32.326T918.326-60.87H788.609ZM160-267.564q-34.196 0-58.294-24.098-24.097-24.098-24.097-58.293 0-34.196 24.097-58.294 24.098-24.098 58.294-24.098t58.294 24.098q24.097 24.098 24.097 58.294 0 34.195-24.097 58.293-24.098 24.098-58.294 24.098Zm640 0q-34.196 0-58.294-24.098-24.097-24.098-24.097-58.293 0-34.196 24.097-58.294 24.098-24.098 58.294-24.098t58.294 24.098q24.097 24.098 24.097 58.294 0 34.195-24.097 58.293-24.098 24.098-58.294 24.098Zm-320-40.717q-51.674 0-87.75-36.076-36.076-36.077-36.076-87.751 0-51.673 36.076-87.75 36.076-36.076 87.75-36.076t87.75 36.076q36.076 36.077 36.076 87.75 0 51.674-36.076 87.751-36.076 36.076-87.75 36.076Z"/>
</svg>
