<svg aria-hidden="true" viewBox="0 -960 960 960" fill="currentColor">
  <path d="M264-840q63 0 120 26.5t96 73.5q39-47 96-73.5T696-840q112 0 188 76t76 188q0 38-10 75t-28 73q-11-19-26-34t-35-24q9-23 14-45t5-45q0-78-53-131t-131-53q-81 0-124.5 44.5T480-616q-48-56-91.5-100T264-760q-78 0-131 53T80-576q0 23 5 45t14 45q-20 9-35 24t-26 34q-18-36-28-73T0-576q0-112 76-188t188-76ZM40-80q-17 0-28.5-11.5T0-120v-23q0-44 44-70.5T160-240q13 0 24.5 1t22.5 3q-14 20-20.5 43t-6.5 49v64H40Zm240 0q-17 0-28.5-11.5T240-120v-24q0-65 66.5-105.5T480-290q108 0 174 40.5T720-144v24q0 17-11.5 28.5T680-80H280Zm500 0v-64q0-26-7-49t-20-43q11-2 22.5-3t24.5-1q72 0 116 26.5t44 70.5v23q0 17-11.5 28.5T920-80H780ZM480-210q-57 0-102 15.5T325-160h310q-9-20-53.5-35T480-210Zm-320-70q-33 0-56.5-23.5T80-360q0-33 23.5-56.5T160-440q33 0 56.5 23.5T240-360q0 33-23.5 56.5T160-280Zm640 0q-33 0-56.5-23.5T720-360q0-33 23.5-56.5T800-440q33 0 56.5 23.5T880-360q0 33-23.5 56.5T800-280Zm-320-40q-50 0-85-35t-35-85q0-50 35-85t85-35q50 0 85 35t35 85q0 50-35 85t-85 35Zm0-160q-17 0-28.5 11.5T440-440q0 17 11.5 28.5T480-400q17 0 28.5-11.5T520-440q0-17-11.5-28.5T480-480Zm0 320Zm0-280Z"/>
</svg>
