<svg aria-hidden="true" viewBox="0 -960 960 960" fill="currentColor">
  <path d="M650-310q70-70 70-170t-70-170q-70-70-170-70t-170 70q-70 70-70 170t70 170q70 70 170 70t170-70ZM400-440q-17 0-28.5-11.5T360-480q0-17 11.5-28.5T400-520h160q17 0 28.5 11.5T600-480q0 17-11.5 28.5T560-440H400Zm80 360q-83 0-156-31.5T197-197q-54-54-85.5-127T80-480q0-83 31.5-156T197-763q54-54 127-85.5T480-880q83 0 156 31.5T763-763q54 54 85.5 127T880-480q0 83-31.5 156T763-197q-54 54-127 85.5T480-80Zm0-80q134 0 227-93t93-227q0-134-93-227t-227-93q-134 0-227 93t-93 227q0 134 93 227t227 93Zm0-320Z"/>
</svg>
