<svg aria-hidden="true" viewBox="0 -960 960 960" fill="currentColor">
  <path d="m791-55-91-91q-49 32-104.5 49T480-80q-83 0-156-31.5T197-197q-54-54-85.5-127T80-480q0-60 17-115.5T146-700l-91-91 57-57 736 736-57 57Zm23-205-58-58q22-38 33-78.5t11-83.5q0-133-93.5-226.5T480-800q-43 0-83.5 11T318-756l-58-58q49-32 104.5-49T480-880q83 0 156 31.5T763-763q54 54 85.5 127T880-480q0 60-17 115.5T814-260ZM554-520Zm-131 97Zm211-17-80-80h87q17 0 28 11.5t11 28.5q0 17-11.5 28.5T640-440h-6Zm8 236L406-440h-87q-17 0-28-11.5T280-480q0-17 11.5-28.5T320-520h6L204-642q-22 38-33 78.5T160-480q0 133 93.5 226.5T480-160q43 0 83.5-11t78.5-33Z"/>
</svg>
