<svg aria-hidden="true" viewBox="0 -960 960 960" fill="currentColor">
  <path d="M402-40q-30 0-56-13.5T303-92L67-438q-8-12-7-26t12-24q19-19 45-22t47 12l116 81v-150L55-792q-12-12-12-28.5T55-849q12-12 28.5-12t28.5 12l736 736q12 12 12 28t-12 28q-12 12-28.5 12T791-57l-16-15q-20 15-44 23.5T680-40H402Zm438-194L601-473h-1v-367q0-17 11.5-28.5T640-880q17 0 28.5 11.5T680-840v367h80v-287q0-17 11.5-28.5T800-800q17 0 28.5 11.5T840-760v526ZM520-554l-80-80v-246q0-17 11.5-28.5T480-920q17 0 28.5 11.5T520-880v326ZM360-714l-80-80v-6q0-17 11.5-28.5T320-840q17 0 28.5 11.5T360-800v86Z"/>
</svg>
