<svg aria-hidden="true" viewBox="0 -960 960 960" fill="currentColor">
  <path d="m765.827-310.76-63.892-63.892 189.761-189.761q24.826 23.065 25.207 63.392.38 40.326-25.207 65.152L765.827-310.76Zm-94.522-95.522-64.892-63.892 126.109-125.869-170.717-170.718-126.109 125.87-64.653-64.653 125.87-125.869q26.348-26.348 64.392-26.348 38.043 0 64.391 26.348l235.37 235.37-189.761 189.761Zm99.347 331.37L564-280.805l-113.348 113.11q-12.434 12.435-29.087 19.391-16.652 6.957-34.804 6.957H113.065q-37.543 0-64.272-26.729-26.728-26.728-26.728-64.272v-25.239q0-30.543 14.141-53.772 14.141-23.228 40.728-32.706 19.87-7.239 41.805-16.881 21.935-9.641 43.891-23.163l59.783 60.022q5.761 5.761 14.239 5.761 8.478 0 14.478-6 6-5.761 6-14.12 0-8.358-6-14.358l-54.826-55.826q8.478-8 15.978-15.022t15.74-16.261l55.065 54.826q6.239 6 14.239 6t14.239-6q6.239-6 6.239-14.239t-6-14.239l-59.108-58.87q6.478-10.522 11.097-21.402 4.62-10.88 8.098-22.641l70.392 71.391q6 6 14 5.761 8-.239 14.239-6.239 6-5.761 6.619-14 .62-8.239-5.38-14.239L78.739-767.065Q67.022-778.783 67.022-796q0-17.218 11.717-29.696 12.478-12.478 29.696-12.478 17.217 0 29.695 12.478l691.153 692.153q11.717 11.717 12.098 28.934.38 17.218-12.098 29.696-11.718 11.718-29.315 11.718-17.598 0-29.316-11.718ZM114.587-260.5v28.152h.38-.38 271.935L499.87-345.696l-67.718-67.717L297.478-278.5q-25.152 25.152-60.141 24.533-34.989-.62-62.902-24.294l-6.566-6.043q-14.239 6-26.88 12.022-12.641 6.021-26.402 11.782Zm385.283-85.196Zm31.304-199.717Z"/>
</svg>
