<svg aria-hidden="true" viewBox="0 -960 960 960" fill="currentColor">
  <path d="M120-720q-17 0-28.5-11.5T80-760v-120q0-17 11.5-28.5T120-920h120q17 0 28.5 11.5T280-880q0 17-11.5 28.5T240-840h-80v80q0 17-11.5 28.5T120-720Zm720 0q-17 0-28.5-11.5T800-760v-80h-80q-17 0-28.5-11.5T680-880q0-17 11.5-28.5T720-920h120q17 0 28.5 11.5T880-880v120q0 17-11.5 28.5T840-720ZM120-40q-17 0-28.5-11.5T80-80v-120q0-17 11.5-28.5T120-240q17 0 28.5 11.5T160-200v80h80q17 0 28.5 11.5T280-80q0 17-11.5 28.5T240-40H120Zm600 0q-17 0-28.5-11.5T680-80q0-17 11.5-28.5T720-120h80v-80q0-17 11.5-28.5T840-240q17 0 28.5 11.5T880-200v120q0 17-11.5 28.5T840-40H720ZM280-160q-33 0-56.5-23.5T200-240v-480q0-33 23.5-56.5T280-800h400q33 0 56.5 23.5T760-720v480q0 33-23.5 56.5T680-160H280Zm120-400h160q17 0 28.5-11.5T600-600q0-17-11.5-28.5T560-640H400q-17 0-28.5 11.5T360-600q0 17 11.5 28.5T400-560Zm0 120h160q17 0 28.5-11.5T600-480q0-17-11.5-28.5T560-520H400q-17 0-28.5 11.5T360-480q0 17 11.5 28.5T400-440Zm0 120h160q17 0 28.5-11.5T600-360q0-17-11.5-28.5T560-400H400q-17 0-28.5 11.5T360-360q0 17 11.5 28.5T400-320Z"/>
</svg>
