<svg aria-hidden="true" viewBox="0 -960 960 960" fill="currentColor">
  <path d="M116.413-719.283q-18.435 0-31.13-12.576-12.696-12.576-12.696-31.011v-119.043q0-19.152 13.174-32.326t32.326-13.174H237.13q18.435 0 31.011 12.695 12.576 12.696 12.576 31.131 0 18.435-12.576 31.011T237.13-840H160v77.13q0 18.435-12.576 31.011t-31.011 12.576Zm727.174 0q-18.435 0-31.011-12.576T800-762.87V-840h-77.13q-18.435 0-31.011-12.576t-12.576-31.011q0-18.435 12.576-31.131 12.576-12.695 31.011-12.695h119.043q19.152 0 32.326 13.174t13.174 32.326v119.043q0 18.435-12.695 31.011-12.696 12.576-31.131 12.576Zm-725.5 686.696q-19.152 0-32.326-13.174T72.587-78.087V-197.13q0-18.435 12.695-31.011 12.696-12.576 31.131-12.576 18.435 0 31.011 12.576T160-197.13V-120h77.13q18.435 0 31.011 12.576t12.576 31.011q0 18.435-12.576 31.13-12.576 12.696-31.011 12.696H118.087Zm604.783 0q-18.435 0-31.011-12.695-12.576-12.696-12.576-31.131 0-18.435 12.576-31.011T722.87-120H800v-77.13q0-18.435 12.576-31.011t31.011-12.576q18.435 0 31.131 12.576 12.695 12.576 12.695 31.011v119.043q0 19.152-13.174 32.326t-32.326 13.174H722.87ZM287.413-156.413q-37.304 0-64.152-26.848t-26.848-64.152v-465.174q0-37.304 26.848-64.152t64.152-26.848h385.174q37.304 0 64.152 26.848t26.848 64.152v465.174q0 37.304-26.848 64.152t-64.152 26.848H287.413ZM400-558.565h160q17.717 0 29.576-11.859 11.859-11.859 11.859-29.576 0-17.478-11.978-29.457-11.979-11.978-29.457-11.978H400q-17.717 0-29.576 11.859-11.859 11.859-11.859 29.576 0 17.478 11.978 29.457 11.979 11.978 29.457 11.978Zm0 120h160q17.717 0 29.576-11.859 11.859-11.859 11.859-29.576 0-17.478-11.978-29.457-11.979-11.978-29.457-11.978H400q-17.717 0-29.576 11.859-11.859 11.859-11.859 29.576 0 17.478 11.978 29.457 11.979 11.978 29.457 11.978Zm0 120h160q17.717 0 29.576-11.859 11.859-11.859 11.859-29.576 0-17.478-11.978-29.457-11.979-11.978-29.457-11.978H400q-17.717 0-29.576 11.859-11.859 11.859-11.859 29.576 0 17.478 11.978 29.457 11.979 11.978 29.457 11.978Z"/>
</svg>
