<svg aria-hidden="true" viewBox="0 -960 960 960" fill="currentColor">
  <path d="M790-57 686-160H160q-33 0-56.5-23.5T80-240v-480q0-33 23.5-56.5T160-800v114L54-792q-12-12-11.5-28.5T55-849q12-12 28.5-12t28.5 12l735 736q12 12 12 28t-12 28q-12 12-28.5 12T790-57ZM160-240h446L206-640h-46v400Zm711 37-71-71v-366H434L274-800h526q33 0 56.5 23.5T880-720v480q0 10-2 19.5t-7 17.5ZM607-467l-58-58 28-28q12-12 29-12t29 12q12 12 12 29t-12 29l-28 28Zm-57 57-84 84q-12 12-28 12t-28-12l-85-85q-12-12-12-29t12-29q12-12 29-12t29 12l55 55 54-54 58 58Z"/>
</svg>
