<svg aria-hidden="true" viewBox="0 -960 960 960" fill="currentColor">
  <path d="m880-194-80-80v-326H474l-74-74v-86h-86l-80-80h166q33 0 56.5 23.5T480-760v80h320q33 0 56.5 23.5T880-600v406ZM792-55l-66-65H160q-33 0-56.5-23.5T80-200v-568l-24-24q-11-11-11-28t11-28q11-11 28-11t28 11l736 736q11 11 11.5 27.5T848-56q-11 11-27.5 11.5T792-55ZM160-200h80v-80h-80v80Zm0-160h80v-80h-80v80Zm0-160h80v-80h-80v80Zm160 320h80v-80h-80v80Zm0-160h80v-80h-80v80Zm160 160h166l-80-80h-86v80Zm240-240h-80v-80h80v80Z"/>
</svg>
