<svg aria-hidden="true" viewBox="0 -960 960 960" fill="currentColor">
  <path d="M480-260q17 0 28.5-11.5T520-300h-80q0 17 11.5 28.5T480-260Zm-140-60h280q8 0 14-6t6-14q0-8-6-14t-14-6h-20v-94q0-44-24-80t-66-46v-10q0-13-8.5-21.5T480-620q-13 0-21.5 8.5T450-590v10q-42 10-66 46t-24 80v94h-20q-8 0-14 6t-6 14q0 8 6 14t14 6Zm-97.13 208.131q-37.538 0-64.269-26.732-26.732-26.731-26.732-64.269v-355.695q0-21.658 9.816-41.036 9.815-19.377 26.728-31.812l236.891-177.848q12.435-9.196 26.229-13.674 13.793-4.478 28.467-4.478t28.467 4.478q13.794 4.478 26.229 13.674l236.891 177.848q17.13 12.521 26.837 31.871 9.707 19.35 9.707 40.977v355.695q0 37.538-26.732 64.269-26.731 26.732-64.269 26.732H242.87Zm0-91.001h474.26v-355.695L480-736.413 242.87-558.565v355.695ZM480-469.522Z"/>
</svg>
