<svg aria-hidden="true" viewBox="0 -960 960 960" fill="currentColor">
  <path d="M388.5-451.5Q400-463 400-480t-11.5-28.5Q377-520 360-520t-28.5 11.5Q320-497 320-480t11.5 28.5Q343-440 360-440t28.5-11.5Zm240 0Q640-463 640-480t-11.5-28.5Q617-520 600-520t-28.5 11.5Q560-497 560-480t11.5 28.5Q583-440 600-440t28.5-11.5ZM160-120q-17 0-28.5-11.5T120-160q0-16 14.5-22.5T160-200v-560q0-33 23.5-56.5T240-840h220v640h40v-640h220q33 0 56.5 23.5T800-760v560q17 0 28.5 11.5T840-160q0 17-11.5 28.5T800-120H160Z"/>
</svg>
