<svg aria-hidden="true" viewBox="0 -960 960 960" fill="currentColor">
  <path d="M360-120q-33 0-56.5-23.5T280-200v-80h200q33 0 56.5-23.5T560-360q0-33-23.5-56.5T480-440H280v-320q0-33 23.5-56.5T360-840h240q33 0 56.5 23.5T680-760v560q0 33-23.5 56.5T600-120H360ZM200-320q-17 0-28.5-11.5T160-360q0-17 11.5-28.5T200-400h280q17 0 28.5 11.5T520-360q0 17-11.5 28.5T480-320H200Zm308.5-251.5Q520-583 520-600t-11.5-28.5Q497-640 480-640t-28.5 11.5Q440-617 440-600t11.5 28.5Q463-560 480-560t28.5-11.5Zm263-40Q760-623 760-640v-160q0-17 11.5-28.5T800-840q17 0 28.5 11.5T840-800v160q0 17-11.5 28.5T800-600q-17 0-28.5-11.5Z"/>
</svg>
