<svg aria-hidden="true" viewBox="0 -960 960 960" fill="currentColor">
  <path d="m599-516.674-84-84-203.37 203.609q-6.717 6.683-10.076 15.037-3.358 8.354-3.358 17.55v41.978q0 9.148 6.861 16.009 6.86 6.861 16.008 6.861h41.978q9.196 0 17.533-3.479 8.337-3.478 15.054-10.195L599-516.674Zm24-24 29.674-29.674q10.804-10.761 10.804-25.109 0-14.347-10.804-25.152l-33.739-33.739q-10.761-10.804-25.109-10.804-14.348 0-25.152 10.804l-30.152 30.152L623-540.674ZM480-71.869q-84.913 0-159.345-32.118t-129.491-87.177q-55.059-55.059-87.177-129.491Q71.869-395.087 71.869-480t32.118-159.345q32.118-74.432 87.177-129.491 55.059-55.059 129.491-87.177Q395.087-888.131 480-888.131t159.345 32.118q74.432 32.118 129.491 87.177 55.059 55.059 87.177 129.491Q888.131-564.913 888.131-480t-32.118 159.345q-32.118 74.432-87.177 129.491-55.059 55.059-129.491 87.177Q564.913-71.869 480-71.869Z"/>
</svg>
