<svg aria-hidden="true" viewBox="0 -960 960 960" fill="currentColor">
  <path d="m599-515-84-84-206 206q-6 6-9 13.5t-3 15.5v47q0 8 6 14t14 6h47q8 0 15.5-3t13.5-9l206-206Zm24-24 28-28q12-12 12-28t-12-28l-28-28q-12-12-28-12t-28 12l-28 28 84 84ZM480-80q-83 0-156-31.5T197-197q-54-54-85.5-127T80-480q0-83 31.5-156T197-763q54-54 127-85.5T480-880q83 0 156 31.5T763-763q54 54 85.5 127T880-480q0 83-31.5 156T763-197q-54 54-127 85.5T480-80Zm0-80q134 0 227-93t93-227q0-134-93-227t-227-93q-134 0-227 93t-93 227q0 134 93 227t227 93Zm0-320Z"/>
</svg>
