<svg aria-hidden="true" viewBox="0 -960 960 960" fill="currentColor">
  <path d="M434.5-435.5H241.218l34.673 34.674q13.674 13.559 13.674 32.769 0 19.209-13.674 32.883-13.674 13.674-32.883 13.674-19.21 0-32.769-13.674L97.478-447.935q-13.674-13.761-13.674-32.108 0-18.348 13.674-32.022l112.761-112.761q13.594-13.674 32.286-13.674t32.366 13.674q13.674 13.674 13.674 32.366t-13.674 32.286L240.218-525.5H434.5v-194.282l-35.674 35.673q-13.63 13.674-31.804 13.674t-31.848-13.674Q321.5-697.783 321.5-716.475t13.674-32.286l112.761-113.761q13.761-13.674 32.108-13.674 18.348 0 32.022 13.674l113.761 113.761q13.674 13.63 13.674 31.804t-13.674 31.848q-13.674 13.674-32.366 13.674t-32.286-13.674L525.5-719.782v194.521l193.282.761-34.673-34.674q-13.674-13.559-13.674-32.769 0-19.209 13.674-32.883 13.674-13.674 32.883-13.674 19.21 0 32.769 13.674l112.761 112.761q13.674 13.761 13.674 32.108 0 18.348-13.674 32.022L748.761-334.174Q735.167-320.5 716.475-321t-32.366-14.174q-13.435-13.53-13.435-32.135 0-18.604 13.435-32.278l35.673-35.913H525.5v194.282l33.913-34.673q13.497-13.674 32.618-13.674 19.121 0 32.795 13.674 13.674 13.674 13.674 32.883 0 19.21-13.674 32.769L512.065-97.478q-13.761 13.674-32.108 13.674-18.348 0-32.022-13.674L334.174-211.239Q320.5-224.833 321-243.525t14.174-32.366q13.674-13.674 32.366-13.674t32.286 13.674l34.674 35.673V-435.5Z"/>
</svg>
