<svg aria-hidden="true" viewBox="0 -960 960 960" fill="currentColor">
  <path d="M480-240q-97 0-166-66t-74-162l84 25q13 54 56 88.5T480-320q66 0 113-47t47-113q0-57-34.5-100T517-636l-25-84q96 5 162 74t66 166q0 100-70 170t-170 70Zm0 160q-83 0-156-31.5T197-197q-54-54-85.5-127T80-480v-18q0-9 2-18l78 24v12q0 134 93 227t227 93q134 0 227-93t93-227q0-134-93-227t-227-93h-12l-24-78q9-2 18-2h18q83 0 156 31.5T763-763q54 54 85.5 127T880-480q0 83-31.5 156T763-197q-54 54-127 85.5T480-80ZM250-631l-30 91q-5 14-19 13.5T182-541L91-844q-4-11 5-20t20-5l303 91q14 5 14.5 19T420-740l-91 30 132 132q17 17 17 39t-17 39q-17 17-39.5 17T382-500L250-631Z"/>
</svg>
