<svg aria-hidden="true" viewBox="0 -960 960 960" fill="currentColor">
  <path d="M565.5-113.304q-17.717 0-29.815-12.098-12.098-12.098-12.098-29.815 0-17.718 12.098-29.816 12.098-12.097 29.815-12.097 46.283 0 82.185-17.903 35.902-17.902 35.902-40.184 0-13.283-12.641-25.044-12.642-11.761-35.642-21.521l61.631-61.631q32.478 19.239 51.478 45.478t19 62.718q0 66.956-63.598 104.435-63.597 37.478-138.315 37.478ZM175.826-429.587q-30.674-17-47.794-39.859-17.119-22.858-17.119-56.054 0-42.478 30.761-71.935 30.761-29.456 112.195-63.739 62.044-27.565 79.544-38.946 17.5-11.38 17.5-25.38 0-15.283-19.141-26.685-19.142-11.402-59.185-11.402-24.522 0-41.283 5.88-16.761 5.881-30.282 19.403-11.718 11.717-28.316 13.597-16.597 1.881-30.076-9.358-13.717-10.718-15.717-27.316-2-16.597 9.239-30.315 19.239-23.478 55.217-39.598 35.979-16.119 81.218-16.119 72.956 0 117.435 32.978Q434.5-781.457 434.5-725.5q0 41.152-29.239 72.511-29.239 31.359-117.957 68.163-58.239 24.043-75.522 36.043-17.282 12-17.282 23.283 0 8.761 11.5 17.022 11.5 8.26 32.696 16.021l-62.87 62.87ZM761.891-546.87 586.87-721.891l41.76-41.761q24.957-24.957 59.772-25.076 34.816-.12 59.25 25.076l56 56q25.196 24.434 25.076 59.25-.119 34.815-25.076 59.772l-41.761 41.76ZM179.283-116.413q-9.435 0-16.153-6.717-6.717-6.718-6.717-16.153v-142.956q0-2.718 6.957-16.152L528-663.022 703.022-488 338.391-123.13q-2.239 2.239-16.152 6.717H179.283Z"/>
</svg>
