<svg aria-hidden="true" viewBox="0 -960 960 960" fill="currentColor">
  <path d="m386.848-116.174 171-171H800q35.391 0 60.446 25.054 25.054 25.055 25.054 60.446t-25.054 60.446Q835.391-116.174 800-116.174H386.848Zm-228.761-83.587h52.174l342.848-342.848-52.174-52.173-342.848 342.847v52.174ZM729.13-600.37 557.696-769.804l54.804-54.805q23.956-23.956 58.533-24.195 34.576-.239 59.489 24.195l52.891 52.413q24.913 24.435 25.196 58.25.282 33.816-23.674 57.772L729.13-600.37ZM120-116.174q-19.152 0-32.326-13.174T74.5-161.674v-106.543q0-9.196 3.478-17.653 3.478-8.456 10.196-15.173l411.761-411.761L671.37-541.609l-412 411.761q-6.718 6.718-15.174 10.196-8.457 3.478-17.653 3.478H120Zm407.022-452.522-26.087-26.086 52.174 52.173-26.087-26.087Z"/>
</svg>
