<svg aria-hidden="true" viewBox="0 -960 960 960" fill="currentColor">
  <path d="m644-613 100-94-37-37-96 96 33 35Zm0 0-33-35 33 35Zm63.5 467q50.5-26 82.5-74-32-48-82.5-74T600-320q-57 0-107.5 26T410-220q32 48 82.5 74T600-120q57 0 107.5-26Zm-150-31.5Q540-195 540-220t17.5-42.5Q575-280 600-280t42.5 17.5Q660-245 660-220t-17.5 42.5Q625-160 600-160t-42.5-17.5ZM600-40q-79 0-147.5-36T342-178q-6-9-9-19.5t-3-21.5q0-11 3-22t9-21q42-66 110.5-102T600-400q79 0 147.5 36T858-262q6 10 9 20.5t3 21.5q0 11-3 21.5t-9 20.5q-42 66-110.5 102T600-40Zm-440-80q-17 0-28.5-11.5T120-160v-117q0-16 6-31t17-26l334-333-28-29q-12-12-12-28t12-28q12-12 28-11.5t28 11.5l49 48 124-124q5-5 12.5-8t15.5-3q8 0 15 3t13 8l94 94q5 6 8 13t3 15q0 8-3 15.5t-8 12.5L704-554l28 29q11 12 11.5 28.5T732-468q-12 12-28.5 12T675-468L534-610 200-277v77h48q17 0 28.5 11.5T288-160q0 17-11.5 28.5T248-120h-88Z"/>
</svg>
