<svg aria-hidden="true" viewBox="0 -960 960 960" fill="currentColor">
  <path d="M369.087-74.5q-37.543 0-64.272-26.728-26.728-26.729-26.728-64.272v-147.087h-65.674q-42.348 0-72.881-30.532Q109-373.652 109-416q0-31.152 16.576-57.565 16.576-26.413 47.402-39.848L433.782-627.5v-23.13Q399.5-662.152 377-692.891q-22.5-30.739-22.5-69.739 0-53.153 36.174-89.327T480-888.131q43.435 0 74.772 21.218 31.337 21.217 41.532 53.935 6.435 21.152-5.88 36.826t-36.228 15.674q-14.957 0-25.076-6.5-10.12-6.5-17.642-17.022-5.239-8.239-13.619-12.478-8.381-4.239-17.859-4.239-16.043 0-27.065 11.021-11.022 11.022-11.022 27.066 0 15.804 11.022 27.065 11.022 11.261 27.065 11.261 18.435 0 31.011 12.576t12.576 31.011v52.021l263.435 115.283q28.674 12.478 46.326 38.652T851-416q0 42.348-30.532 72.881-30.533 30.532-72.881 30.532h-65.674V-165.5q0 37.543-26.728 64.272Q628.456-74.5 590.913-74.5H369.087ZM212.413-400h82.174q13.478-18.565 30.457-28.326 16.978-9.761 40.456-9.761h229q23.478 0 40.456 9.761 16.979 9.761 30.457 28.326h82.174q8.761 0 12.38-5.761 3.62-5.761 3.62-11.761 0-5-2.5-8.739-2.5-3.739-7.5-5.739L480-552 206.413-432q-5.239 2.239-7.62 5.859-2.38 3.619-2.38 8.619 0 7.522 4 12.522t12 5Z"/>
</svg>
