<svg aria-hidden="true" viewBox="0 -960 960 960" fill="currentColor">
  <path d="M360-80q-33 0-56.5-23.5T280-160v-160h-64q-39 0-67.5-28.5T120-416q0-29 15.5-53.5T178-506l262-116v-26q-35-12-57.5-42.5T360-760q0-51 34.5-85.5T480-880q42 0 72.5 20.5T592-807q5 19-6 33t-33 14q-14 0-24-6.5T511-784q-5-8-13.5-12t-17.5-4q-17 0-28.5 11.5T440-760q0 17 11.5 28.5T480-720t28.5 11.5Q520-697 520-680v58l262 116q27 12 42.5 36.5T840-416q0 39-28.5 67.5T744-320h-64v160q0 33-23.5 56.5T600-80H360Zm0-280h240-240Zm-144-40h75q13-20 29.5-30t39.5-10h240q23 0 39.5 10t29.5 30h75q9 0 12.5-6t3.5-12q0-5-2.5-8.5T750-432L480-552 210-432q-5 2-7.5 5.5T200-418q0 8 4 13t12 5Zm144 240h240v-200H360v200Z"/>
</svg>
