<svg aria-hidden="true" viewBox="0 -960 960 960" fill="currentColor">
  <path d="M194.5-147.087v-91h65.435l76.608-255.108q8.957-29.348 33.327-47.12 24.369-17.772 54.195-17.772h111.87q29.826 0 54.195 17.772 24.37 17.772 33.327 47.12l76.608 255.108H765.5v91h-571Zm160.913-91h249.174l-68.652-229h-111.87l-68.652 229ZM434.5-641.913v-211h91v211h-91Zm250.913 105.217-64.891-64.891 149.891-148.892 63.653 63.892-148.653 149.891ZM729.087-354.5v-91h211v91h-211Zm-454.5-182.196L125.934-686.587l63.653-63.892 149.891 148.892-64.891 64.891ZM19.913-354.5v-91h211v91h-211ZM480-238.087Z"/>
</svg>
