<svg aria-hidden="true" viewBox="0 -960 960 960" fill="currentColor">
  <path d="M280-35.696q-67.913 0-116.109-48.195Q115.696-132.087 115.696-200v-127.174h222.543l129.783 172.63 237.912-237.913 55.696-32.391q23.348-13.957 51.055-12.794 27.706 1.163 49.141 18.511l65.631 54.653L634.87-71.891q-17.718 17.717-40.316 26.956-22.597 9.24-47.554 9.24H280ZM115.696-407.174V-760q0-18.674 12.815-31.489 12.815-12.815 31.489-12.815t31.489 12.815q12.815 12.815 12.815 31.489v277.13h71.392V-840q0-18.674 12.815-31.489 12.815-12.815 31.489-12.815t31.489 12.815q12.815 12.815 12.815 31.489v357.13h71.392V-880q0-18.674 12.815-31.489 12.815-12.815 31.489-12.815t31.489 12.815q12.815 12.815 12.815 31.489v397.13h71.392V-800q0-18.674 12.815-31.489 12.815-12.815 31.489-12.815t31.489 12.815q12.815 12.815 12.815 31.489v318.847L476.978-275.348l-98.5-131.826H115.696Z"/>
</svg>
