<svg aria-hidden="true" viewBox="0 -960 960 960" fill="currentColor">
  <path d="M275.696-482.87V-840q0-18.674 12.815-31.489 12.815-12.815 31.489-12.815t31.489 12.815q12.815 12.815 12.815 31.489v357.13h-88.608Zm160 0V-880q0-18.674 12.815-31.489 12.815-12.815 31.489-12.815t31.489 12.815q12.815 12.815 12.815 31.489v397.13h-88.608Zm160 151.761V-800q0-18.674 12.815-31.489 12.815-12.815 31.489-12.815t31.489 12.815q12.815 12.815 12.815 31.489v419.26l-88.608 49.631ZM280-124.304h267q7.283 0 13.565-3.022 6.283-3.022 11.565-7.544l182.479-182.717h-.239L464.5-154.174 337.848-322.87H204.304V-200q0 31.326 22.185 53.511 22.185 22.185 53.511 22.185Zm0 88.608q-67.913 0-116.109-48.195Q115.696-132.087 115.696-200v-211.479h266.456l105.696 141.261L684.304-380.74l77.326-44.108q24.109-13.196 51.435-12.413 27.326.782 48.761 18.13l65.631 54.653L634.87-71.891q-17.718 17.717-40.316 26.956-22.597 9.24-47.554 9.24H280Zm-75.696-375.783h-88.608V-760q0-18.674 12.815-31.489 12.815-12.815 31.489-12.815t31.489 12.815q12.815 12.815 12.815 31.489v348.521Zm0-71.391h391.392-391.392ZM280-124.304h-75.696H572.13 280Z"/>
</svg>
