<svg aria-hidden="true" viewBox="0 -960 960 960" fill="currentColor">
  <path d="M758.978-83.804 506.609-335.413 301.522-130.326q-6.957 6.956-15.294 10.315-8.337 3.359-17.532 3.359H162.152q-19.152 0-32.326-13.174t-13.174-32.326v-106.544q0-9.195 3.359-17.532t10.315-15.294l205.087-205.087L81.609-760.174Q69.89-771.891 70.01-789.609q.12-17.717 12.598-30.195 11.717-11.718 29.434-11.718 17.718 0 30.196 11.718l676.37 677.369q11.717 11.718 11.717 29.315 0 17.598-11.717 29.316-12.479 12.478-30.196 12.478-17.717 0-29.435-12.478Zm12.305-517.044L600.087-770.283l54.565-54.804q24.196-24.196 58.772-24.315 34.576-.12 59.489 24.315l52.652 52.413q24.913 24.435 25.196 58.25.282 33.815-23.674 57.772l-55.804 55.804ZM623.239-451.804 451.804-623l90.283-90.283 171.435 171.196-90.283 90.283Z"/>
</svg>
