<svg aria-hidden="true" viewBox="0 -960 960 960" fill="currentColor">
  <path d="M197.37-191.869q-19.153 0-32.327-13.174t-13.174-32.327q0-19.152 13.174-32.326t32.327-13.174H229v-271.869q0-86.109 51.315-153.598 51.315-67.489 134.185-88.207v-26.086q0-27.392 19.054-46.446 19.055-19.055 46.446-19.055t46.446 19.055Q545.5-850.022 545.5-822.63v26.086q23.087 5.761 43.772 15.566 20.685 9.804 39.489 23.13L439.13-568.218q-9.434 9.435-14.913 22.251-5.478 12.815-5.478 26.489v94.695q0 28.348 19.891 48.359 19.892 20.011 48.24 20.011h95.173q13.674 0 26.49-5.478 12.815-5.479 22.25-14.913L731-477.022v194.152h31.63q19.153 0 32.327 13.174t13.174 32.326q0 19.153-13.174 32.327t-32.327 13.174H197.37Zm282.869 122.63q-34.196 0-58.533-24.217-24.336-24.218-24.336-58.413h165.5q0 34.195-24.218 58.413-24.217 24.217-58.413 24.217Zm41.131-367.174q-9.196 0-15.914-6.717-6.717-6.718-6.717-15.913v-36.631q0-9.196 3.359-17.533 3.358-8.337 10.076-15.054l199.435-199.435 78.413 78.652-199.196 199.196q-6.717 6.718-15.054 10.076-8.337 3.359-17.533 3.359H521.37ZM816.5-675.522l33.761-33.761q7.435-7.435 7.435-17.848t-7.435-17.848l-42.717-42.717q-7.435-7.435-17.848-7.435t-17.848 7.435l-34 33.761 78.652 78.413Z"/>
</svg>
