<svg aria-hidden="true" viewBox="0 -960 960 960" fill="currentColor">
  <path d="M874.522-592.022 698.261-765.761l41.087-41.087q27.348-27.348 65.391-27.109 38.044.24 64.392 27.587l45.956 46.718q25.87 26.587 25.87 63.891 0 37.305-26.348 63.652l-40.087 40.087ZM202.87-3.869q-37.783 0-64.392-26.61-26.609-26.608-26.609-64.39V-649.13q0-37.783 26.609-64.392 26.609-26.609 64.392-26.609h356.76L315.957-496.457q-19.153 19.153-29.468 44.142-10.315 24.989-10.315 52.337v140.804q0 37.783 26.609 64.391 26.608 26.609 64.391 26.609h140.804q27.348 0 52.337-10.315 24.989-10.315 44.142-29.468l243.674-244.195V-94.87q0 37.783-26.609 64.392Q794.913-3.87 757.13-3.87H202.87Zm198.804-244.305q-19.152 0-32.326-13.174t-13.174-32.326v-92.456q0-18.153 6.837-34.685 6.837-16.533 19.511-29.207l258.739-258.739 176.261 173.739-259.5 259.739q-12.674 12.674-29.207 19.892-16.532 7.217-34.685 7.217h-92.456Z"/>
</svg>
