<svg aria-hidden="true" viewBox="0 -960 960 960" fill="currentColor">
  <path d="M764-85 509-339 302-132q-6 6-13.5 9t-15.5 3H160q-17 0-28.5-11.5T120-160v-113q0-8 3-15.5t9-13.5l207-207L84-764q-12-12-11.5-28T85-820q12-12 28.5-12t28.5 12l679 679q12 12 12 28t-12 28q-12 12-28.5 12T764-85ZM424-424l-28-28 28 28 28 28-28-28Zm199-29-57-57 35-35-56-56-35 35-57-57 91-91 170 170-91 91Zm149-150L602-771l56-56q23-23 56.5-23t56.5 23l56 56q23 23 24 55.5T829-660l-57 57Zm-234 65ZM200-200h56l196-196-56-56-196 196v56Z"/>
</svg>
