<svg aria-hidden="true" viewBox="0 -960 960 960" fill="currentColor">
  <path d="M202.87-3.87q-37.783 0-64.392-26.608-26.609-26.609-26.609-64.392v-554.26q0-37.783 26.609-64.392 26.609-26.609 64.392-26.609h356.76l-91 91.001H202.87v554.26h554.26v-266.282l91.001-91V-94.87q0 37.783-26.609 64.392Q794.913-3.87 757.13-3.87H202.87ZM480-372Zm162.935-338.435 61.782 60.783-262.326 261.609v53.652h52.652L758.13-597l61.066 60.304-261.174 261.413q-12.674 12.674-29.207 19.892-16.532 7.217-34.685 7.217h-92.456q-19.152 0-32.326-13.174t-13.174-32.326v-92.456q0-18.153 6.837-34.685 6.837-16.533 19.511-29.207l260.413-260.413Zm176.261 173.739L642.935-710.435l96.413-96.413q27.348-27.348 65.391-27.109 38.044.24 64.392 27.587l45.956 46.718q25.87 26.587 25.87 63.891 0 37.305-26.348 63.652l-95.413 95.413Z"/>
</svg>
