<svg aria-hidden="true" viewBox="0 -960 960 960" fill="currentColor">
  <path d="M480-80q-33 0-56.5-23.5T400-160h160q0 33-23.5 56.5T480-80ZM240-280v-280q0-83 50-147.5T420-792v-28q0-25 17.5-42.5T480-880q25 0 42.5 17.5T540-820v28q25 6 47 17t42 26l-58 58q-20-14-42.5-21.5T480-720q-66 0-113 47t-47 113v280h320v-112l80-80v192h40q17 0 28.5 11.5T800-240q0 17-11.5 28.5T760-200H200q-17 0-28.5-11.5T160-240q0-17 11.5-28.5T200-280h40Zm240-220Zm78 60h-34q-8 0-14-6t-6-14v-34q0-8 3-15.5t9-13.5l187-187 71 71-187 187q-6 6-13.5 9t-15.5 3Zm242-225 34-34q6-6 6-14.5t-6-14.5l-42-42q-6-6-14.5-6t-14.5 6l-34 34 71 71Z"/>
</svg>
