<svg aria-hidden="true" viewBox="0 -960 960 960" fill="currentColor">
  <path d="M647.413-480.174v-281.739q0-19.152 13.174-32.326t32.326-13.174q19.153 0 32.327 13.174 13.173 13.174 13.173 32.326v190.739l-91 91ZM138-198.087v-563.826q0-19.152 13.173-32.326 13.174-13.174 32.327-13.174 19.152 0 32.326 13.174T229-761.913v563.826q0 19.152-13.174 32.326T183.5-152.587q-19.153 0-32.327-13.174Q138-178.935 138-198.087ZM392.587-685.5v-76.413q0-19.152 13.174-32.326t32.326-13.174q19.152 0 32.326 13.174t13.174 32.326v76.413q0 19.152-13.174 32.326T438.087-640q-19.152 0-32.326-13.174T392.587-685.5Zm0 243.587v-76.174q0-19.152 13.174-32.326t32.326-13.174q19.152 0 32.326 13.174t13.174 32.326v76.174q0 19.152-13.174 32.326t-32.326 13.174q-19.152 0-32.326-13.174t-13.174-32.326Zm0 243.826V-274.5q0-19.152 13.174-32.326T438.087-320q19.152 0 32.326 13.174t13.174 32.326v76.413q0 19.152-13.174 32.326t-32.326 13.174q-19.152 0-32.326-13.174t-13.174-32.326Zm341.674-252.652 47.304 47.065-145.782 144.783v40.326h40.326l145.782-144.783 46.305 46.305-144.304 144.304q-9.435 9.435-22.25 14.794-12.816 5.358-26.49 5.358H603.87q-14.674 0-24.37-9.695-9.695-9.696-9.695-24.37v-71.283q0-13.674 5.478-26.489 5.478-12.815 14.913-22.25l144.065-144.065Zm133.935 133.696L734.261-450.739l58.239-58.239q12.913-12.913 32.065-12.913 19.153 0 31.827 12.913l69.804 69.804q12.913 12.674 12.913 31.826 0 19.153-12.913 32.066l-58 58.239Z"/>
</svg>
