<svg aria-hidden="true" viewBox="0 -960 960 960" fill="currentColor">
  <path d="M480.239-69.239q-34.184 0-58.527-24.273-24.342-24.272-24.342-58.357h165.5q0 34.195-24.273 58.413-24.273 24.217-58.358 24.217ZM229-282.87v-271.869q0-86.109 51.315-153.598 51.315-67.489 134.185-88.207v-26.086q0-27.292 19.104-46.396 19.104-19.105 46.396-19.105t46.396 19.105Q545.5-849.922 545.5-822.63v26.086q23.087 5.761 43.772 15.553 20.685 9.791 39.489 23.143l-67.087 67.087q-18.014-11.576-38.279-17.777-20.265-6.201-43.395-6.201-66 0-113 47t-47 113v271.869h320v-103.152l91-91v194.152h31.63q19.153 0 32.327 13.174t13.174 32.326q0 19.153-13.174 32.327t-32.327 13.174H197.37q-19.153 0-32.327-13.174t-13.174-32.327q0-19.152 13.174-32.326t32.327-13.174H229Zm251-215.934Zm78.239 62.391H521.37q-9.196 0-15.914-6.717-6.717-6.718-6.717-15.913v-36.631q0-9.196 3.359-17.55 3.358-8.354 10.076-15.037l199.435-199.435 78.413 78.652-199.196 199.196q-6.683 6.718-15.037 10.076-8.354 3.359-17.55 3.359ZM816.5-675.522l33.761-33.761q7.435-7.372 7.435-17.817 0-10.444-7.435-17.879l-42.717-42.717q-7.373-7.435-17.817-7.435-10.444 0-17.879 7.435l-34 33.761 78.652 78.413Z"/>
</svg>
