<svg aria-hidden="true" viewBox="0 -960 960 960" fill="currentColor">
  <path d="M238.087-71.87q-37.783 0-64.392-26.608-26.608-26.609-26.608-64.392v-634.26q0-37.783 26.608-64.392 26.609-26.609 64.392-26.609h282.935q18.21 0 34.714 6.837 16.503 6.837 29.177 19.511L777-669.696q12.674 12.674 19.511 29.178 6.837 16.503 6.837 34.714v118.869h-91V-597.13h-154.5q-19.152 0-32.326-13.174t-13.174-32.326v-154.5H238.087v634.26h236.174v91H238.087Zm0-91v-634.26 634.26Zm483.63-210.152 47.305 47.066-148.783 147.799v40.309h40.318L809.348-285.63l46.304 46.304L701.391-85.304q-6.683 6.717-15.037 10.076-8.354 3.359-17.55 3.359H577.13q-9.147 0-16.008-6.718-6.861-6.717-6.861-16.152v-91.674q0-9.196 3.358-17.55 3.359-8.354 10.077-15.037l154.021-154.022Zm133.935 133.696L721.717-373.022l58.239-58.239q12.913-12.913 32.066-12.913 19.152 0 31.826 12.913l69.804 69.805q12.913 12.674 12.913 31.826t-12.913 32.065l-58 58.239Z"/>
</svg>
