<svg aria-hidden="true" viewBox="0 -960 960 960" fill="currentColor">
  <path d="M758.978-83.804 506.609-335.413 301.522-130.326q-6.718 6.717-15.174 10.196-8.457 3.478-17.652 3.478H162.152q-19.152 0-32.326-13.174t-13.174-32.326v-106.544q0-9.195 3.478-17.652 3.479-8.456 10.196-15.174l205.087-205.087L81.609-760.174Q69.13-772.652 69.63-789.489q.5-16.837 12.979-29.315 12.478-12.479 29.815-12.479 17.337 0 29.815 12.479l676.37 676.369q12.478 12.478 12.478 29.315 0 16.837-12.478 29.316-12.479 12.478-29.696 12.478-17.217 0-29.935-12.478ZM421.13-421.13l-26.326-26.087 26.326 26.087 25.848 26.087-25.848-26.087Zm202.109-30.674-59.63-59.631 31.652-31.652-52.174-52.174-31.652 31.652L451.804-623l90.283-90.283 171.435 171.196-90.283 90.283Zm148.044-149.044L600.087-770.283l54.565-54.804q24.196-24.196 58.772-24.315 34.576-.12 59.489 24.315l52.652 52.413q24.913 24.435 25.196 58.25.282 33.815-23.674 57.772l-55.804 55.804Zm-233.761 63.326ZM200.478-200.239h52.174l194.326-194.804-52.174-52.174-194.326 194.804v52.174Z"/>
</svg>
