<svg aria-hidden="true" viewBox="0 -960 960 960" fill="currentColor">
  <path d="M647.413-472.282v-289.631q0-19.152 13.174-32.326t32.326-13.174q19.153 0 32.327 13.174 13.173 13.174 13.173 32.326v198.63l-91 91.001ZM138-198.087v-563.826q0-19.152 13.173-32.326 13.174-13.174 32.327-13.174 19.152 0 32.326 13.174T229-761.913v563.826q0 19.152-13.174 32.326T183.5-152.587q-19.153 0-32.327-13.174Q138-178.935 138-198.087ZM392.587-685.5v-76.413q0-19.152 13.174-32.326t32.326-13.174q19.152 0 32.326 13.174t13.174 32.326v76.413q0 19.152-13.174 32.326T438.087-640q-19.152 0-32.326-13.174T392.587-685.5Zm0 243.587v-76.174q0-19.152 13.174-32.326t32.326-13.174q19.152 0 32.326 13.174t13.174 32.326v76.174q0 19.152-13.174 32.326t-32.326 13.174q-19.152 0-32.326-13.174t-13.174-32.326Zm0 243.826V-274.5q0-19.152 13.174-32.326T438.087-320q19.152 0 32.326 13.174t13.174 32.326v76.413q0 19.152-13.174 32.326t-32.326 13.174q-19.152 0-32.326-13.174t-13.174-32.326Zm377.826-249.717 94.131 92.609-181.217 182.217q-9.435 9.435-22.251 14.913-12.815 5.478-26.489 5.478h-30.956q-14.674 0-24.37-9.695-9.696-9.696-9.696-24.37v-30.957q0-13.674 5.098-26.489 5.098-12.815 14.533-22.25l181.217-181.456Zm123.131 64.369-93.37-93.369 28.239-28.239q13.674-13.674 32.707-13.674 19.032 0 31.946 13.674l28.717 29.478q12.913 13.674 12.913 32.326t-12.913 31.565l-28.239 28.239Z"/>
</svg>
