<svg aria-hidden="true" viewBox="0 -960 960 960" fill="currentColor">
  <path d="M200-80q-33 0-56.5-23.5T120-160v-560q0-33 23.5-56.5T200-800h40v-40q0-17 11.5-28.5T280-880q17 0 28.5 11.5T320-840v40h320v-40q0-17 11.5-28.5T680-880q17 0 28.5 11.5T720-840v40h40q33 0 56.5 23.5T840-720v200q0 17-11.5 28.5T800-480q-17 0-28.5-11.5T760-520v-40H200v400h240q17 0 28.5 11.5T480-120q0 17-11.5 28.5T440-80H200Zm685-200-85-85 29-29q11-11 28-11t28 11l29 29q11 11 11 28t-11 28l-29 29ZM628-40h-48q-8 0-14-6t-6-14v-48q0-8 3-15.5t9-13.5l200-200 85 85L657-52q-6 6-13.5 9T628-40Z"/>
</svg>
