<svg aria-hidden="true" viewBox="0 -960 960 960" fill="currentColor">
  <path d="M520-120q-17 0-28.5-11.5T480-160v-28q0-8 3-15.5t9-13.5l200-200 85 85-200 200q-6 6-13.5 9t-15.5 3h-28ZM160-320q-17 0-28.5-11.5T120-360q0-17 11.5-28.5T160-400h200q17 0 28.5 11.5T400-360q0 17-11.5 28.5T360-320H160Zm645-40-85-85 29-29q11-11 28-11t28 11l29 29q11 11 11 28t-11 28l-29 29ZM160-480q-17 0-28.5-11.5T120-520q0-17 11.5-28.5T160-560h360q17 0 28.5 11.5T560-520q0 17-11.5 28.5T520-480H160Zm0-160q-17 0-28.5-11.5T120-680q0-17 11.5-28.5T160-720h360q17 0 28.5 11.5T560-680q0 17-11.5 28.5T520-640H160Z"/>
</svg>
