<svg aria-hidden="true" viewBox="0 -960 960 960" fill="currentColor">
  <path d="M520-114.5q-19.152 0-32.326-13.174T474.5-160v-28q0-9.196 3.359-17.533 3.358-8.337 10.076-15.054l200.239-200.239 92.652 92.652-200.239 200.239q-6.717 6.718-15.054 10.076Q557.196-114.5 548-114.5h-28ZM160-311.152q-19.152 0-32.326-13.174T114.5-356.652q0-19.152 13.174-32.326T160-402.152h203.587q19.152 0 32.326 13.174t13.174 32.326q0 19.152-13.174 32.326t-32.326 13.174H160Zm648.826-45.022-92.652-92.652 29-29q12.435-12.435 31.826-12.555 19.391-.119 31.826 12.555l29 29Q850.5-436.391 850.381-417q-.12 19.391-12.555 31.826l-29 29ZM160-478.565q-19.152 0-32.326-13.174T114.5-524.065q0-19.153 13.174-32.326 13.174-13.174 32.326-13.174h360q19.152 0 32.326 13.174 13.174 13.173 13.174 32.326 0 19.152-13.174 32.326T520-478.565H160Zm0-167.413q-19.152 0-32.326-13.174T114.5-691.479q0-19.152 13.174-32.326T160-736.979h360q19.152 0 32.326 13.174t13.174 32.326q0 19.153-13.174 32.327T520-645.978H160Z"/>
</svg>
