<svg aria-hidden="true" viewBox="0 -960 960 960" fill="currentColor">
  <path d="M238.087-71.87q-37.783 0-64.392-26.608-26.608-26.609-26.608-64.392v-634.26q0-37.783 26.608-64.392 26.609-26.609 64.392-26.609h282.935q18.152 0 34.684 6.837 16.533 6.837 29.207 19.511L777-669.696q12.674 12.674 19.511 29.207 6.837 16.532 6.837 34.685v79.76L474.261-197.239v125.37H238.087Zm339.043 0q-9.195 0-16.032-6.836-6.837-6.837-6.837-16.033v-51.348q0-9.196 3.739-17.913t9.696-14.674l197.587-198.587 94.13 92.609L661.065-85.543q-5.956 6.717-14.674 10.195-8.717 3.479-17.913 3.479H577.13Zm311.283-241.02-93.37-93.37 28.24-28.239q13.674-13.674 32.706-13.674 19.033 0 31.946 13.674l28.717 29.478q12.913 13.674 12.913 32.326 0 18.653-12.913 31.566l-28.239 28.239ZM557.848-597.13h154.5l-200-200v154.5q0 19.152 13.174 32.326t32.326 13.174Z"/>
</svg>
