<svg aria-hidden="true" viewBox="0 -960 960 960" fill="currentColor">
  <path d="M202.87-71.87q-37.783 0-64.392-26.608-26.609-26.609-26.609-64.392v-554.26q0-37.783 26.609-64.392 26.609-26.609 64.392-26.609H240V-845.5q0-17.957 12.457-30.294 12.456-12.337 30.413-12.337 17.956 0 30.293 12.337T325.5-845.5v37.369h309V-845.5q0-17.957 12.456-30.294 12.457-12.337 30.414-12.337 17.956 0 30.293 12.337T720-845.5v37.369h37.13q37.783 0 64.392 26.609 26.609 26.609 26.609 64.392v196.652q0 19.152-13.174 32.326t-32.327 13.174q-19.152 0-32.326-13.174t-13.174-32.326V-560H202.87v397.13H434.5q19.152 0 32.326 13.174T480-117.37q0 19.153-13.174 32.327T434.5-71.87H202.87Zm691.456-195.934-92.652-92.652 29-29q12.435-12.435 31.707-12.555 19.271-.119 31.945 12.555l29 29q12.674 12.674 12.555 31.945-.12 19.272-12.555 31.707l-29 29ZM633.5-26.13h-50.87q-9.195 0-15.913-6.717Q560-39.566 560-48.761v-50.87q0-9.195 3.359-17.532 3.358-8.337 10.076-15.054l200.239-200.239 92.652 92.652-200.239 200.24q-6.717 6.717-15.054 10.075-8.337 3.359-17.533 3.359Z"/>
</svg>
