<svg aria-hidden="true" viewBox="0 -960 960 960" fill="currentColor">
  <path d="M640-484v-276q0-17 11.5-28.5T680-800q17 0 28.5 11.5T720-760v196l-80 80ZM160-200v-560q0-17 11.5-28.5T200-800q17 0 28.5 11.5T240-760v560q0 17-11.5 28.5T200-160q-17 0-28.5-11.5T160-200Zm240-480v-80q0-17 11.5-28.5T440-800q17 0 28.5 11.5T480-760v80q0 17-11.5 28.5T440-640q-17 0-28.5-11.5T400-680Zm0 240v-80q0-17 11.5-28.5T440-560q17 0 28.5 11.5T480-520v80q0 17-11.5 28.5T440-400q-17 0-28.5-11.5T400-440Zm0 240v-80q0-17 11.5-28.5T440-320q17 0 28.5 11.5T480-280v80q0 17-11.5 28.5T440-160q-17 0-28.5-11.5T400-200Zm329-256 43 43-152 151v42h42l152-151 42 42-151 151q-8 8-19.5 13t-23.5 5h-72q-13 0-21.5-8.5T560-190v-72q0-12 5-23.5t13-19.5l151-151Zm127 127L729-456l58-58q11-11 28-11t28 11l71 71q11 11 11 28t-11 28l-58 58Z"/>
</svg>
