<svg aria-hidden="true" viewBox="0 -960 960 960" fill="currentColor">
  <path d="M479-149.087q-10.478 0-20.457-.5-9.978-.5-20.217-1.739v32.435q0 19.152-13.174 32.326t-32.326 13.174q-19.152 0-32.326-13.174t-13.174-32.326v-54.739Q242.043-213.5 175.88-307.076T109.717-519.37q0-77.152 29.218-144.445 29.217-67.294 79.152-117.348 49.935-50.055 117.348-79.272Q402.848-889.652 479-889.652t143.946 29.217q67.793 29.217 118.228 79.272 50.435 50.054 79.772 117.348 29.337 67.293 29.337 144.445 0 118.718-66.544 211.533-66.543 92.815-171.065 133.446v55.5q0 19.152-13.174 32.326t-32.326 13.174q-19.152 0-32.326-13.174t-13.174-32.326v-32.435q-10.478 2-20.957 2.12-10.478.119-21.717.119Zm1-89q115.761 0 197.522-81.761t81.761-197.522q0-115.76-81.761-197.521Q595.761-796.652 480-796.652t-197.522 81.761q-81.761 81.761-81.761 197.521 0 115.761 81.761 197.522T480-238.087Zm110.435-357.609q18.913 0 31.847-12.934 12.935-12.935 12.935-31.848 0-18.913-12.935-31.848-12.934-12.935-31.847-12.935h-220.87q-18.913 0-31.847 12.935-12.935 12.935-12.935 31.848 0 18.913 12.935 31.848 12.934 12.934 31.847 12.934h220.87ZM480-517.37Zm45.978 70.479 14.739-14.739q-2.13 2.13.174-5.75t4.337-19.109q2.033-11.228 1.761-23.174t-6.272-17.946q-13.956-13.956-32.989-13.956-19.032 0-32.989 13.956l-58.652 58.652q-13.674 13.674-13.674 32.066 0 18.391 13.674 32.065l17.935 17.935-14.739 14.739q2.13-2.131-.174 5.75-2.304 7.88-4.337 19.108-2.033 11.229-1.761 23.174.272 11.946 6.272 17.946 13.956 13.957 32.989 13.957 19.032 0 32.989-13.957l58.652-58.652q13.674-13.674 13.674-32.065 0-18.392-13.674-32.066l-17.935-17.934Z"/>
</svg>
