<svg aria-hidden="true" viewBox="0 -960 960 960" fill="currentColor">
  <path d="M200-240q-50 0-85-35t-35-85q0-50 35-85t85-35q39 0 69.5 22.5T312-400h212q11-68 56.5-119T692-590l-56-250H520q-17 0-28.5-11.5T480-880q0-17 11.5-28.5T520-920h116q28 0 50 17t28 45l69 309q2 11-5 20t-18 9q-63 0-108.5 42.5T601-373q-2 23-18 38t-39 15H312q-12 35-42.5 57.5T200-240Zm28.5-91.5Q240-343 240-360t-11.5-28.5Q217-400 200-400t-28.5 11.5Q160-377 160-360t11.5 28.5Q183-320 200-320t28.5-11.5ZM675-275q-35-35-35-85t35-85q35-35 85-35t85 35q35 35 35 85t-35 85q-35 35-85 35t-85-35Zm113.5-56.5Q800-343 800-360t-11.5-28.5Q777-400 760-400t-28.5 11.5Q720-377 720-360t11.5 28.5Q743-320 760-320t28.5-11.5ZM520-120v48q0 11-9.5 17T491-54l-173-87q-7-4-5.5-11.5t9.5-7.5h118v-48q0-11 9.5-17t19.5-1l173 87q7 4 5.5 11.5T638-120H520ZM200-360Zm560 0Z"/>
</svg>
