<svg aria-hidden="true" viewBox="0 -960 960 960" fill="currentColor">
  <path d="M725.5-360v-83.587H811q17.813 0 29.863 11.982 12.05 11.983 12.05 29.696t-12.05 29.811Q828.813-360 811-360h-85.5Zm0 163.587V-280H811q17.813 0 29.863 12.05t12.05 29.863q0 17.712-12.05 29.693-12.05 11.981-29.863 11.981h-85.5ZM560-154.5q-33.957 0-58.413-23.261-24.457-23.261-26.37-56.739H394.5v-171h80.717q1.913-33.478 26.37-56.739Q526.043-485.5 560-485.5h80q19.152 0 32.326 13.174T685.5-440v240q0 19.152-13.174 32.326T640-154.5h-80Zm-291-120q-68.269 0-116.885-48.641Q103.5-371.782 103.5-440.087q0-68.304 48.615-116.859Q200.731-605.5 269-605.5h60q22.848 0 38.674-15.925 15.826-15.924 15.826-38.673 0-22.75-15.826-38.576T329-714.5H189q-19.152 0-32.326-13.174T143.5-760q0-19.152 13.174-32.326T189-805.5h140q60.278 0 102.889 42.584Q474.5-720.331 474.5-660.089q0 60.241-42.611 102.915Q389.278-514.5 329-514.5h-60q-30.609 0-52.555 21.859-21.945 21.859-21.945 52.554 0 30.696 21.945 52.641Q238.391-365.5 269-365.5h85.5v91H269Z"/>
</svg>
