<svg aria-hidden="true" viewBox="0 -960 960 960" fill="currentColor">
  <path d="M356.413-404.543v79.76q0 18.525 12.531 31.056 12.532 12.531 31.056 12.531t31.056-12.531q12.531-12.531 12.531-31.056v-79.76l75.239 42.782q15.435 8.718 32.75 4.359 17.315-4.359 26.272-19.794 8.956-15.434 3.988-33.378-4.967-17.944-20.423-26.644l-74-42.782 74-42.782q15.456-8.7 20.423-26.644 4.968-17.944-3.988-33.378-8.957-15.435-26.272-19.794-17.315-4.359-32.75 4.359l-75.239 42.782v-79.76q0-18.525-12.531-31.056-12.532-12.531-31.056-12.531t-31.056 12.531q-12.531 12.531-12.531 31.056v79.76l-75.717-42.782q-15.435-8.718-32.774-4.283t-26.009 19.957q-8.956 15.435-3.859 33.369 5.098 17.935 20.533 26.653l74 42.543-74 42.782q-15.456 8.7-20.423 26.644-4.968 17.944 3.988 33.378 8.957 15.435 26.272 19.794 17.315 4.359 32.75-4.359l75.239-42.782ZM162.87-151.869q-37.783 0-64.392-26.609Q71.87-205.087 71.87-242.87v-474.26q0-37.783 26.61-64.392 26.608-26.609 64.391-26.609h474.26q37.783 0 64.392 26.609 26.609 26.609 26.609 64.392V-540L849.11-660.978q11.435-11.435 25.228-5.598 13.794 5.837 13.794 21.75v329.652q0 15.913-13.794 21.75-13.793 5.837-25.228-5.598L728.131-420v177.13q0 37.783-26.609 64.392-26.609 26.609-64.392 26.609H162.87Zm0-91.001h474.26v-474.26H162.87v474.26Zm0 0v-474.26 474.26Z"/>
</svg>
