<svg aria-hidden="true" viewBox="0 -960 960 960" fill="currentColor">
  <path d="M356.413-404.543v79.76q0 18.435 12.576 31.011T400-281.196q18.435 0 31.011-12.576t12.576-31.011v-79.76l75.239 42.782q15.435 8.718 32.75 4.359 17.315-4.359 26.272-19.794 8.956-15.434 3.978-33.369-4.978-17.935-20.413-26.653l-74-42.782 74-42.782q15.435-8.718 20.413-26.653t-3.978-33.369q-8.957-15.435-26.272-19.794-17.315-4.359-32.75 4.359l-75.239 42.782v-79.76q0-18.435-12.576-31.011T400-678.804q-18.435 0-31.011 12.576t-12.576 31.011v79.76l-75.717-42.782q-15.435-8.718-32.75-4.239-17.316 4.478-26.033 19.913-8.956 15.435-3.859 33.369 5.098 17.935 20.533 26.653l74 42.543-74 42.782q-15.435 8.718-20.413 26.653t3.978 33.369q8.957 15.435 26.272 19.794 17.315 4.359 32.75-4.359l75.239-42.782ZM162.87-151.869q-37.783 0-64.392-26.609Q71.87-205.087 71.87-242.87v-474.26q0-37.783 26.61-64.392 26.608-26.609 64.391-26.609h474.26q37.783 0 64.392 26.609 26.609 26.609 26.609 64.392V-540L849.11-660.978q11.435-11.435 25.228-5.598 13.794 5.837 13.794 21.75v329.652q0 15.913-13.794 21.75-13.793 5.837-25.228-5.598L728.131-420v177.13q0 37.783-26.609 64.392-26.609 26.609-64.392 26.609H162.87Z"/>
</svg>
