<svg aria-hidden="true" viewBox="0 -960 960 960" fill="currentColor">
  <path d="M447.609-114.5q-19.153 0-32.327-13.174-13.173-13.174-13.173-32.326v-184.369l-160.044 92.065q-16.152 9.195-34.685 4.717-18.532-4.478-27.728-21.391l-32.391-56.305q-9.196-16.152-4.598-34.184 4.598-18.033 21.511-27.468L324.217-480l-159.282-92.065q-16.913-9.435-21.511-27.848-4.598-18.413 4.598-34.565l32.391-56.305q9.196-16.152 27.348-20.63 18.152-4.478 35.065 4.717l159.283 92.065V-800q0-19.152 13.173-32.326 13.174-13.174 32.327-13.174h64.782q19.153 0 32.327 13.174 13.173 13.174 13.173 32.326v185.369l160.283-92.304q16.152-9.956 34.565-4.978 18.413 4.978 27.609 21.891l31.87 55.783q9.195 16.152 4.097 34.565-5.097 18.413-21.25 27.848L636.022-480l159.043 93.065q16.913 10.196 21.631 28.228 4.717 18.033-4.478 34.185l-32.631 56.544q-9.196 16.152-27.609 20.63-18.413 4.479-34.565-4.717l-159.522-92.304V-160q0 19.152-13.173 32.326-13.174 13.174-32.327 13.174h-64.782Z"/>
</svg>
