<svg aria-hidden="true" viewBox="0 -960 960 960" fill="currentColor">
  <path d="M449.5-85Q435-91 423-102L102-423q-11-12-17-26.5T79-480q0-16 6-31t17-26l321-321q12-12 26.5-17.5T480-881q16 0 31 5.5t26 17.5l321 321q12 11 17.5 26t5.5 31q0 16-5.5 30.5T858-423L537-102q-11 11-26 17t-31 6q-16 0-30.5-6Zm30.5-74 321-321-321-321-321 321 321 321Zm28.5-292.5Q520-463 520-480v-160q0-17-11.5-28.5T480-680q-17 0-28.5 11.5T440-640v160q0 17 11.5 28.5T480-440q17 0 28.5-11.5Zm0 120Q520-343 520-360t-11.5-28.5Q497-400 480-400t-28.5 11.5Q440-377 440-360t11.5 28.5Q463-320 480-320t28.5-11.5ZM480-480Z"/>
</svg>
