<svg aria-hidden="true" viewBox="0 -960 960 960" fill="currentColor">
  <path d="M480-80q-83 0-156-31.5T197-197q-54-54-85.5-127T80-480q0-124 68.5-225.5T331-852q11-5 20 6t9 27q0 17-6.5 32.5T332-763q-78 42-125 117t-47 166q0 134 93 227t227 93q134 0 227-93t93-227q0-91-47-166T628-763q-15-8-21.5-23.5T600-819q0-16 9-27t20-6q114 45 182.5 146T880-480q0 83-31.5 156T763-197q-54 54-127 85.5T480-80Zm-40-393v-367q0-17 11.5-28.5T480-880q17 0 28.5 11.5T520-840v367l76-75q11-11 27.5-11.5T652-548q11 11 11 28t-11 28L508-348q-12 12-28 12t-28-12L308-492q-11-11-11.5-27.5T308-548q11-11 28-11t28 11l76 75Z"/>
</svg>
