<svg aria-hidden="true" viewBox="0 -960 960 960" fill="currentColor">
  <path d="M211.5-508.5Q200-497 200-480v200q0 17 11.5 28.5T240-240q17 0 28.5-11.5T280-280v-200q0-17-11.5-28.5T240-520q-17 0-28.5 11.5Zm160-120Q360-617 360-600v320q0 17 11.5 28.5T400-240q17 0 28.5-11.5T440-280v-320q0-17-11.5-28.5T400-640q-17 0-28.5 11.5Zm160 240Q520-377 520-360v80q0 17 11.5 28.5T560-240q17 0 28.5-11.5T600-280v-80q0-17-11.5-28.5T560-400q-17 0-28.5 11.5ZM720-480q-30 0-59-9t-54-26l-15 14q-12 11-28.5 11T536-501q-11-11-11-28t11-28l16-16q-16-24-24-51t-8-56q0-83 58.5-141.5T720-880h160q17 0 28.5 11.5T920-840v160q0 83-58.5 141.5T720-480Zm50-255q-11-11-28-11t-28 11l-56 56q-12 12-11.5 28t11.5 28q12 12 28 12.5t28-11.5l56-56q12-12 12-28.5T770-735ZM120-80q-33 0-56.5-23.5T40-160v-560q0-33 23.5-56.5T120-800h280q17 0 28.5 11.5T440-760v280q0 33 23.5 56.5T520-400h200q17 0 28.5 11.5T760-360v200q0 33-23.5 56.5T680-80H120Z"/>
</svg>
