<svg aria-hidden="true" viewBox="0 -960 960 960" fill="currentColor">
  <path d="M480-114.5q-63.656 0-120.35-20.522-56.693-20.521-103.172-56.804l-52.435 52.435q-13.673 13.674-31.826 13.293-18.152-.38-31.826-14.041-13.674-13.662-13.674-32.446 0-18.785 13.674-32.458l51.435-51.435q-36.283-46.479-56.804-103.67Q114.5-417.339 114.5-480q0-152.292 107.112-258.896Q328.724-845.5 480-845.5h274.5q37.783 0 64.391 26.609Q845.5-792.283 845.5-754.5V-480q0 151.276-106.604 258.388Q632.292-114.5 480-114.5Zm0-91q114.702 0 194.601-80.389Q754.5-366.279 754.5-480v-274.5H480q-113.721 0-194.111 79.899Q205.5-594.702 205.5-480q0 113.721 80.389 194.111Q366.279-205.5 480-205.5Zm-54.196-74.956 211.563-189.333q10.22-9.211 6.133-21.932-4.087-12.722-18.391-14.757l-165.587-16.479 99.391-135.869q3.761-5.239 3.381-10.859-.381-5.619-4.62-10.619-5-5-11.739-5.12-6.739-.12-11.739 4.88l-210.79 189.333q-10.232 9.211-5.993 21.95 4.239 12.739 18.239 14.739l165.826 16.479-100.152 135.869q-3.239 5.239-3.12 10.859.12 5.619 5.12 10.619t11.239 5.12q6.239.12 11.239-4.88ZM480-480Z"/>
</svg>
