<svg aria-hidden="true" viewBox="0 -960 960 960" fill="currentColor">
  <path d="M480-114.5q-63.761 0-120.402-20.522-56.641-20.521-103.12-56.804l-52.435 52.435q-13.673 13.674-31.826 13.293-18.152-.38-31.826-14.054t-13.674-32.446q0-18.772 13.674-32.445l51.435-51.435q-36.283-46.479-56.804-103.62Q114.5-417.239 114.5-480q0-152.391 107.054-258.946Q328.609-845.5 480-845.5h274.5q37.783 0 64.391 26.609Q845.5-792.283 845.5-754.5V-480q0 151.391-106.554 258.446Q632.391-114.5 480-114.5Zm-54.196-165.956 211.544-189.305q10.239-9.239 6.119-21.978-4.119-12.739-18.358-14.739l-165.587-16.479 99.391-135.869q3.761-5.239 3.381-10.859-.381-5.619-4.62-10.619-5-5-11.739-5.12-6.739-.12-11.739 4.88L323.413-491.239q-10.239 9.239-6 21.978 4.239 12.739 18.239 14.739l165.826 16.479-100.152 135.869q-3.239 5.239-3.12 10.859.12 5.619 5.12 10.619t11.239 5.12q6.239.12 11.239-4.88Z"/>
</svg>
