<svg aria-hidden="true" viewBox="0 -960 960 960" fill="currentColor">
  <path d="M780.805-573.631q-8.957 0-14.794-5.217-5.837-5.218-7.837-13.174l-4.522-23.609q-9-3-16.5-7.5t-13.5-10.5l-24.608 8.283q-7.196 2.478-14.61-.402-7.415-2.881-11.977-9.794l-9.848-16.413q-4.478-6.956-2.709-14.837 1.769-7.881 7.665-13.511l20.087-17.326q-2-5-2-8v-16q0-3 2-8l-20.087-17.326q-5.956-5.717-7.576-13.435-1.619-7.717 2.859-14.913l9.848-16.413q4.478-7.195 11.815-9.934 7.337-2.74 14.533-.261l24.608 8.282q6-6 13.5-10.5t16.5-7.5l4.522-23.608q2-7.957 7.837-13.174 5.837-5.218 14.794-5.218h17.934q8.957 0 14.794 5.218 5.837 5.217 7.837 13.174l4.282 23.608q9 3 16.5 7.5t13.5 10.5l24.609-8.282q7.196-2.479 14.652.261 7.457 2.739 11.935 9.934l9.848 16.413q4.478 7.196 2.859 14.913-1.62 7.718-7.577 13.435l-20.326 17.326q2 5 2 8v16q0 3-2 8l20.326 17.326q5.957 5.718 7.577 13.674 1.619 7.957-2.859 15.152l-9.848 16.413q-4.478 7.196-11.935 9.696-7.456 2.5-14.652.022l-24.609-8.283q-6 6-13.5 10.5t-16.5 7.5l-4.282 23.609q-2 7.956-7.837 13.174-5.837 5.217-14.794 5.217h-17.934Zm8.847-90q21 0 35.5-14.5t14.5-35.5q0-21-14.5-35.5t-35.5-14.5q-21 0-35.5 14.5t-14.5 35.5q0 21 14.5 35.5t35.5 14.5ZM675.978-371.479q-2 0-10-8l-4-22q-6-2-11.5-4.619-5.5-2.62-10.5-7.62l-20 7q-2 1-12-3.977l-12-21.903 2-11.947 16-14.934v-24l-16-15q-2-2-2-12l12-22q0-1 12-4l20 7q4.24-3.76 10.16-6.85t11.84-5.15l4-22q0-2 10-8h24q2 0 10 8l4 22q5.921 2.06 11.841 5.15 5.92 3.09 10.159 6.85l20-7q2-1 12 4l12 22-2 12-16 15v24l16 15q2 2 2 12l-12 22q0 1-12 4l-20-7q-5 5-10.5 7.5t-11.5 4.5l-4 22q0 2-10 8h-24Zm12-70q12.24 0 21.12-8.88t8.88-21.12q0-12.239-8.88-21.119-8.88-8.881-21.12-8.881-12.239 0-21.119 8.881-8.881 8.88-8.881 21.119 0 12.24 8.881 21.12 8.88 8.88 21.119 8.88Zm-325.5-6.891q-69.587 0-118.859-49.032-49.271-49.033-49.271-117.185h-10q-9.969 0-16.061-6.158-6.092-6.158-6.092-16.234 0-9.968 6.092-16.06 6.092-6.092 16.061-6.092h10q0-46.674 23.793-84.348 23.794-37.674 63.142-58.435v38.387q0 9.092 5.565 14.592 5.566 5.5 14.674 5.5 9 0 14.739-5.483Q322-754.4 322-763.371v-53.825q9.084-3 19.178-4.5 10.094-1.5 21.197-1.5t20.984 1.5q9.88 1.5 19.311 4.49v53.833q0 8.972 5.763 14.455 5.763 5.483 14.763 5.483 9.478 0 14.858-5.5 5.381-5.5 5.381-14.5v-38.479q39.348 20.761 63.141 58.435 23.794 37.674 23.794 84.348h10q9.968 0 16.06 6.09 6.092 6.089 6.092 16.054 0 9.965-6.092 16.182-6.092 6.218-16.06 6.218h-10q0 68.152-49.152 117.185-49.153 49.032-118.74 49.032Zm-.008-91q31.813 0 54.356-22.657 22.544-22.657 22.544-54.473H285.348q0 31.804 22.654 54.467 22.655 22.663 54.468 22.663ZM34.348-112.348v-120.369q0-36.587 19.152-67.261 19.152-30.674 49.152-45.674 51-26 116.913-44.359t142.913-18.359q77 0 142.794 18.12 65.793 18.119 116.793 44.119 30 15 49.153 45.913 19.152 30.914 19.152 67.501v120.369H34.348Z"/>
</svg>
