<svg aria-hidden="true" viewBox="0 -960 960 960" fill="currentColor">
  <path d="M780.805-573.631q-8.957 0-14.794-5.217-5.837-5.218-7.837-13.174l-4.522-23.609q-9-3-16.5-7.5t-13.5-10.5l-24.608 8.283q-7.957 2.478-15.033-.381-7.076-2.858-11.554-9.815l-9.848-16.413q-4.478-6.956-3.12-14.793 1.359-7.837 8.076-13.555l20.087-17.326q-2-5-2-8v-16q0-3 2-8l-20.087-17.326q-6.956-5.717-8.076-13.435-1.119-7.717 3.359-14.913l9.848-16.413q4.478-7.195 11.435-9.934 6.956-2.74 14.913-.261l24.608 8.282q6-6 13.5-10.5t16.5-7.5l4.522-23.608q2-7.957 7.837-13.174 5.837-5.218 14.794-5.218h17.934q8.957 0 14.794 5.218 5.837 5.217 7.837 13.174l4.282 23.608q9 3 16.5 7.5t13.5 10.5l24.609-8.282q7.957-2.479 15.033.261 7.076 2.739 11.554 9.934l9.848 16.413q4.478 7.196 3.239 14.913-1.239 7.718-7.957 13.435l-20.326 17.326q2 5 2 8v16q0 3-2 8l20.326 17.326q6.897 5.693 8.047 13.662 1.149 7.969-3.329 15.164l-9.848 16.413q-4.478 7.196-11.554 9.696-7.076 2.5-15.033.022l-24.609-8.283q-6 6-13.5 10.5t-16.5 7.5l-4.282 23.609q-2 7.956-7.837 13.174-5.837 5.217-14.794 5.217h-17.934Zm8.847-90q21 0 35.5-14.5t14.5-35.5q0-21-14.5-35.5t-35.5-14.5q-21 0-35.5 14.5t-14.5 35.5q0 21 14.5 35.5t35.5 14.5ZM675.978-371.479q-2 0-10-8l-4-22q-6-2.053-11.5-4.619-5.5-2.567-10.5-7.62l-20 7.107-12-4.107-12-21.845q-1-.993 2-11.916l16-15v-24l-16-15q-1-1-2-12l12-22 12-4 20 7q4.24-3.76 10.16-6.85t11.84-5.15l4-22q0-2 10-8h24q2 0 10 8l4 22q5.921 2.06 11.841 5.15 5.92 3.09 10.159 6.85l20-7 12 4 12 22q1 1-2 12l-16 15v24l16 15q1 1 2 12l-12 22-12 4-20-7q-5 5-10.5 7.5t-11.5 4.5l-4 22q0 2-10 8h-24Zm12-70q12.24 0 21.12-8.88t8.88-21.12q0-12.239-8.88-21.119-8.88-8.881-21.12-8.881-12.239 0-21.119 8.881-8.881 8.88-8.881 21.119 0 12.24 8.881 21.12 8.88 8.88 21.119 8.88Zm-325.5-6.891q-69.587 0-118.859-49.032-49.271-49.033-49.271-117.185h-10q-9.969 0-16.061-6.158-6.092-6.158-6.092-16.234 0-9.968 6.092-16.06 6.092-6.092 16.061-6.092h10q0-46.674 23.793-84.348 23.794-37.674 63.142-58.435v38.387q0 9.092 5.565 14.592 5.566 5.5 14.674 5.5 9 0 14.739-5.483Q322-754.4 322-763.371v-53.825q9.084-3 19.178-4.5 10.094-1.5 21.197-1.5t20.984 1.5q9.88 1.5 19.311 4.49v53.833q0 8.972 5.763 14.455 5.763 5.483 14.763 5.483 9.478 0 14.858-5.5 5.381-5.5 5.381-14.5v-38.479q39.348 20.761 63.141 58.435 23.794 37.674 23.794 84.348h10q9.968 0 16.06 6.09 6.092 6.089 6.092 16.054 0 9.965-6.092 16.182-6.092 6.218-16.06 6.218h-10q0 68.152-49.152 117.185-49.153 49.032-118.74 49.032Zm-.008-91q31.813 0 54.356-22.657 22.544-22.657 22.544-54.473H285.348q0 31.804 22.654 54.467 22.655 22.663 54.468 22.663ZM34.348-112.348v-120.369q0-36.587 19.152-67.261 19.152-30.674 49.152-45.674 51-26 116.913-44.359t142.913-18.359q77 0 142.794 18.12 65.793 18.119 116.793 44.119 30 15 49.153 45.913 19.152 30.914 19.152 67.501v120.369H34.348Zm91-91H599.37v-28.174q0-11-5.5-19.641-5.5-8.641-14.5-13.641-36-18-91.903-35.283-55.902-17.283-124.989-17.283T237.37-299.967q-56.022 17.402-92.022 35.215-9 4.948-14.5 13.589t-5.5 19.641v28.174Zm237.13 0Z"/>
</svg>
