<svg aria-hidden="true" viewBox="0 -960 960 960" fill="currentColor">
  <path d="M771-560q-8 0-13-4.5t-7-11.5l-5-26q-9-3-16.5-7.5T716-620l-27 9q-7 2-13-.5t-10-8.5l-12-20q-4-6-3-13t7-12l22-19q-2-5-2-8v-16q0-3 2-8l-22-19q-6-5-7-12t3-13l12-20q4-6 10-8.5t13-.5l27 9q6-6 13.5-10.5T746-798l5-26q2-7 7-11.5t13-4.5h22q8 0 13 4.5t7 11.5l5 26q9 3 16.5 7.5T848-780l27-9q7-2 13 .5t10 8.5l12 20q4 6 3 13t-7 12l-22 19q2 5 2 8v16q0 3-2 8l22 19q6 5 7 12t-3 13l-12 20q-4 6-10 8.5t-13 .5l-27-9q-6 6-13.5 10.5T818-602l-5 26q-2 7-7 11.5t-13 4.5h-22Zm11-90q21 0 35.5-14.5T832-700q0-21-14.5-35.5T782-750q-21 0-35.5 14.5T732-700q0 21 14.5 35.5T782-650ZM670-360q-2 0-10-8l-4-22q-6-2-11.5-4.5T634-402l-20 7-12-4-12-22q-1-1 2-12l16-15v-24l-16-15q-1-1-2-12l12-22 12-4 20 7q4-4 10-7t12-5l4-22q0-2 10-8h24q2 0 10 8l4 22q6 2 12 5t10 7l20-7 12 4 12 22q1 1-2 12l-16 15v24l16 15q1 1 2 12l-12 22-12 4-20-7q-5 5-10.5 7.5T708-390l-4 22q0 2-10 8h-24Zm12-70q12 0 21-9t9-21q0-12-9-21t-21-9q-12 0-21 9t-9 21q0 12 9 21t21 9Zm-320-10q-66 0-113-47t-47-113h-10q-9 0-14.5-5.5T172-620q0-9 5.5-14.5T192-640h10q0-45 22-81t58-57v38q0 9 5.5 14.5T302-720q9 0 14.5-5.5T322-740v-54q9-3 19-4.5t21-1.5q11 0 21 1.5t19 4.5v54q0 9 5.5 14.5T422-720q9 0 14.5-5.5T442-740v-38q36 21 58 57t22 81h10q9 0 14.5 5.5T552-620q0 9-5.5 14.5T532-600h-10q0 66-47 113t-113 47Zm0-80q33 0 56.5-23.5T442-600H282q0 33 23.5 56.5T362-520ZM42-120v-112q0-33 17-62t47-44q51-26 115-44t141-18q77 0 141 18t115 44q30 15 47 44t17 62v112H42Zm80-80h480v-32q0-11-5.5-20T582-266q-36-18-92.5-36T362-320q-71 0-127.5 18T142-266q-9 5-14.5 14t-5.5 20v32Zm240 0Z"/>
</svg>
