<svg aria-hidden="true" viewBox="0 -960 960 960" fill="currentColor">
  <path d="M238.055-154.5q-34.466 0-59.011-24.554-24.544-24.553-24.544-59.033v-163.826q0-34.48 24.544-59.033 24.545-24.554 59.011-24.554 34.467 0 59.162 24.554 24.696 24.553 24.696 59.033v163.826q0 34.48-24.696 59.033-24.695 24.554-59.162 24.554Zm241.977 0q-34.467 0-59.043-24.554-24.576-24.553-24.576-59.033v-483.826q0-34.48 24.544-59.033 24.545-24.554 59.011-24.554 34.467 0 59.043 24.554 24.576 24.553 24.576 59.033v483.826q0 34.48-24.544 59.033-24.545 24.554-59.011 24.554Zm241.913 0q-34.467 0-59.162-24.554-24.696-24.553-24.696-59.033v-283.826q0-34.48 24.696-59.033 24.695-24.554 59.162-24.554 34.466 0 59.011 24.554 24.544 24.553 24.544 59.033v283.826q0 34.48-24.544 59.033-24.545 24.554-59.011 24.554Z"/>
</svg>
