<svg aria-hidden="true" viewBox="0 -960 960 960" fill="currentColor">
  <path d="M171.5-131.5Q160-143 160-160v-120q0-33 23.5-56.5T240-360h480q33 0 56.5 23.5T800-280v120q0 17-11.5 28.5T760-120q-17 0-28.5-11.5T720-160v-120H240v120q0 17-11.5 28.5T200-120q-17 0-28.5-11.5ZM180-400q-25 0-42.5-17.5T120-460q0-25 17.5-42.5T180-520q25 0 42.5 17.5T240-460q0 25-17.5 42.5T180-400Zm100 0v-360q0-33 23.5-56.5T360-840h240q33 0 56.5 23.5T680-760v360H280Zm457.5-17.5Q720-435 720-460t17.5-42.5Q755-520 780-520t42.5 17.5Q840-485 840-460t-17.5 42.5Q805-400 780-400t-42.5-17.5Z"/>
</svg>
