<svg aria-hidden="true" viewBox="0 -960 960 960" fill="currentColor">
  <path d="M491.5-243q5.5-3 8.5-9l4-9q26-48 65-82t69-79q15-23 23.5-50t8.5-56q0-79-55-135t-133-57q-77-1-133 53t-59 131q-2 32 6.5 61t25.5 53q30 45 70 78.5t64 82.5l4 9q3 6 8.5 9t11.5 3q6 0 11.5-3Zm-68-230.5Q400-497 400-530t23.5-56.5Q447-610 480-610t56.5 23.5Q560-563 560-530t-23.5 56.5Q513-450 480-450t-56.5-23.5ZM480-80q-83 0-156-31.5T197-197q-54-54-85.5-127T80-480q0-83 31.5-156T197-763q54-54 127-85.5T480-880q83 0 156 31.5T763-763q54 54 85.5 127T880-480q0 83-31.5 156T763-197q-54 54-127 85.5T480-80Z"/>
</svg>
