<svg aria-hidden="true" viewBox="0 -960 960 960" fill="currentColor">
  <path d="M324-111.5Q251-143 197-197t-85.5-127Q80-397 80-480t31.5-156Q143-709 197-763t127-85.5Q397-880 480-880t156 31.5Q709-817 763-763t85.5 127Q880-563 880-480t-31.5 156Q817-251 763-197t-127 85.5Q563-80 480-80t-156-31.5ZM480-260q45-45 80-93 30-41 55-90t25-97q0-66-47-113t-113-47q-66 0-113 47t-47 113q0 48 25 97t55 90q35 48 80 93Zm-42.5-237.5Q420-515 420-540t17.5-42.5Q455-600 480-600t42.5 17.5Q540-565 540-540t-17.5 42.5Q505-480 480-480t-42.5-17.5Z"/>
</svg>
