<svg aria-hidden="true" viewBox="0 -960 960 960" fill="currentColor">
  <path d="M480-80q-83 0-156-31.5T197-197q-54-54-85.5-127T80-480q0-60 17-115.5T146-700l-63-63q-12-12-12-28.5T83-820q12-12 28.5-12t28.5 12l680 680q12 12 12 28t-12 28q-12 12-28.5 12T763-84l-63-62q-49 32-104.5 49T480-80Zm2-284L362-484l-93 195q-5 10 2.5 17.5T289-269l193-95Zm332 104L596-478l95-193q5-10-2.5-17.5T671-691l-193 95-218-218q49-32 104.5-49T480-880q83 0 156 31.5T763-763q54 54 85.5 127T880-480q0 60-17 115.5T814-260Z"/>
</svg>
