<svg aria-hidden="true" viewBox="0 -960 960 960" fill="currentColor">
  <path d="M480-80q-83 0-156-31.5T197-197q-54-54-85.5-127T80-480q0-60 17-115.5T146-700l-63-63q-12-12-12-28.5T83-820q12-12 28.5-12t28.5 12l680 680q12 12 12 28t-12 28q-12 12-28.5 12T763-84l-63-62q-49 32-104.5 49T480-80ZM335-310l124-35q11-3 13.5-14.5T467-379l-88-88q-8-8-19.5-5.5T345-459l-35 124q-3 11 5.5 19.5T335-310Zm468 18q-10 0-19-3.5T767-307L622-452q-8-8-10.5-18t.5-21l38-134q3-11-5.5-19.5T625-650l-134 38q-11 3-21 .5T452-622L307-767q-8-8-11.5-16.5T292-802q0-14 7-25.5t20-18.5q38-17 78.5-25.5T480-880q83 0 156 31.5T763-763q54 54 85.5 127T880-480q0 42-8.5 82.5T846-319q-6 14-17.5 20.5T803-292Z"/>
</svg>
