<svg aria-hidden="true" viewBox="0 -960 960 960" fill="currentColor">
  <path d="M760-252v72q0 8 6 14t14 6q8 0 14-6t6-14v-120q0-8-6-14t-14-6H660q-8 0-14 6t-6 14q0 8 6 14t14 6h72l-98 98q-6 6-6 14t6 14q6 6 14 6t14-6l98-98ZM720-40q-83 0-141.5-58.5T520-240q0-83 58.5-141.5T720-440q83 0 141.5 58.5T920-240q0 83-58.5 141.5T720-40ZM320-600h320q17 0 28.5-11.5T680-640q0-17-11.5-28.5T640-680H320q-17 0-28.5 11.5T280-640q0 17 11.5 28.5T320-600Zm147 480H200q-33 0-56.5-23.5T120-200v-560q0-33 23.5-56.5T200-840h560q33 0 56.5 23.5T840-760v268q-29-14-58.5-21t-61.5-7q-11 0-20.5.5T680-517q-9-2-20-2.5t-20-.5H320q-17 0-28.5 11.5T280-480q0 17 11.5 28.5T320-440h205q-18 17-32.5 37T467-360H320q-17 0-28.5 11.5T280-320q0 17 11.5 28.5T320-280h123q-2 10-2.5 19.5T440-240q0 33 6 61.5t21 58.5Z"/>
</svg>
