<svg aria-hidden="true" viewBox="0 -960 960 960" fill="currentColor">
  <path d="m770.652-74.913-38.674-38.152q-1.674.478-3.467.837-1.794.359-3.707.359H563.696q0-48.566-30.305-82.489-30.304-33.924-73.391-33.924t-73.391 33.924q-30.305 33.923-30.305 82.489H200q-36.348 0-62.239-25.892-25.892-25.891-25.892-62.239v-156.304q48.566 0 82.489-30.305 33.924-30.304 33.924-73.391t-33.924-73.391q-33.923-30.305-82.489-30.305v-161.108q0-1.913.359-3.707.359-1.793.837-3.467l-38.913-38.674q-11.717-11.718-11.717-29.316 0-17.597 12.478-30.076 11.717-11.717 29.315-11.717t30.076 11.717l695.74 696.501q11.717 11.717 11.717 29.315t-11.717 29.315q-12.479 12.478-30.076 12.478-17.598 0-29.316-12.478Zm37.479-199.565L274.478-808.131h78.587q2.631-43.434 33.305-72.554 30.673-29.12 73.63-29.12 42.957 0 73.63 29.12 30.674 29.12 33.305 72.554H720q36.348 0 62.239 25.892 25.892 25.891 25.892 62.239v153.065q43.434 2.631 72.554 33.305 29.12 30.673 29.12 73.63 0 42.957-29.12 73.63-29.12 30.674-72.554 33.305v78.587Z"/>
</svg>
