<svg aria-hidden="true" viewBox="0 -960 960 960" fill="currentColor">
  <path d="M262-378q71 0 97-42t26-108q0-17-12-26t-47-18q-26-7-63-8.5t-72 3.5q-26 4-38.5 13T140-538q0 27 4.5 52t13.5 46q16 35 37.5 48.5T262-378Zm436.5 209.5Q690-177 690-190v-180q0-13 8.5-21.5T720-400q13 0 21.5 8.5T750-370v180q0 13-8.5 21.5T720-160q-13 0-21.5-8.5Zm-110-60Q580-237 580-250v-60q0-13 8.5-21.5T610-340q13 0 21.5 8.5T640-310v60q0 13-8.5 21.5T610-220q-13 0-21.5-8.5Zm220 0Q800-237 800-250v-60q0-13 8.5-21.5T830-340q13 0 21.5 8.5T860-310v60q0 13-8.5 21.5T830-220q-13 0-21.5-8.5ZM262-320q-61 0-93-16.5T110-398q-15-26-25.5-60T65-520q-11 0-18-7t-7-18v-49q0-9 6-15.5t15-8.5q56-11 101.5-16.5T250-640q61 0 110.5 10.5T438-600h85q24-18 76-28.5T711-639q42 0 87 5t101 16q9 2 15 8.5t6 15.5v49q0 11-7 18t-18 7q-5 18-12 40t-13 39q-5 13-16 19t-24 2q-13-4-19.5-15.5T808-460q5-18 8.5-38t3.5-41q0-17-12.5-26.5T768-578q-35-5-71.5-3t-62.5 9q-35 9-47 18t-12 26q0 28 4 51.5t14 42.5q5 11 1.5 23T580-394q-11 5-23 1.5T540-407q-11-21-15.5-44.5T513-498q-4-12-12-17.5t-21-5.5q-12 0-20.5 6T447-498q-5 16-8.5 32t-8.5 32q-17 60-61 87t-107 27Z"/>
</svg>
