<svg aria-hidden="true" viewBox="0 -960 960 960" fill="currentColor">
  <path d="M324.5-324.5Q310-339 310-360t14.5-35.5Q339-410 360-410t35.5 14.5Q410-381 410-360t-14.5 35.5Q381-310 360-310t-35.5-14.5Zm240 0Q550-339 550-360t14.5-35.5Q579-410 600-410t35.5 14.5Q650-381 650-360t-14.5 35.5Q621-310 600-310t-35.5-14.5ZM480-80q134 0 227-93t93-227q0-24-3-46.5T786-490q-21 5-42 7.5t-44 2.5q-91 0-172-39T390-628q-32 78-91.5 135.5T160-406v6q0 134 93 227t227 93Zm-54-635q42 70 114 112.5T700-560q14 0 27-1.5t27-3.5q-42-70-114-112.5T480-720q-14 0-27 1.5t-27 3.5ZM177-501q51-29 89-75t57-103q-51 29-89 75t-57 103Zm249-214Zm-103 36Zm-196 92q28-53 70.5-95.5T293-753q-17-21-41-34t-53-13q-50 0-84.5 34.5T80-681q0 29 13 53t34 41ZM324-31.5Q251-63 197-117t-85.5-127Q80-317 80-400q0-29 4-57.5T96-512q-43-26-69.5-70.5T0-681q0-83 58-141t141-58q53 0 97.5 25.5T368-784q26-8 54.5-12t57.5-4q83 0 156 31.5T763-683q54 54 85.5 127T880-400q0 83-31.5 156T763-117q-54 54-127 85.5T480 0q-83 0-156-31.5ZM197-683Z"/>
</svg>
