<svg aria-hidden="true" viewBox="0 -960 960 960" fill="currentColor">
  <path d="M480-40q23 0 46-3t46-8q88 65 193.5 46.5T927-117q45-74 29-159t-77-143v-3q62-57 77-140.5T928-720q-37-63-102-95.5T689-838q-32-57-87.5-89.5T480-960q-66 0-121.5 32.5T271-838q-72-10-137 22.5T32-720q-43 74-28 157.5T81-422v3Q20-361 4-276t29 159Q89-23 194.5-4.5T388-51q23 5 46 8t46 3Zm0-80q-134 0-227-93t-93-227q0-112 68-198t172-112q0 102 71.5 173.5T645-505q38 0 73-11t64-31q9 25 13.5 51.5T800-440q0 134-93 227t-227 93ZM360-350q-21 0-35.5-14.5T310-400q0-21 14.5-35.5T360-450q21 0 35.5 14.5T410-400q0 21-14.5 35.5T360-350Zm240 0q-21 0-35.5-14.5T550-400q0-21 14.5-35.5T600-450q21 0 35.5 14.5T650-400q0 21-14.5 35.5T600-350Z"/>
</svg>
