<svg aria-hidden="true" viewBox="0 -960 960 960" fill="currentColor">
  <path d="M434-43q-23-3-46-8-88 65-193.5 46.5T33-117q-45-74-29-159t77-143v-3Q19-479 4-562.5T32-720q37-63 102-95.5T271-838q32-57 87.5-89.5T480-960q66 0 121.5 32.5T689-838q72-10 137 22.5T928-720q43 74 28 157.5T879-422v3q61 58 77 143t-29 159Q871-23 765.5-4.5T572-51q-23 5-46 8t-46 3q-23 0-46-3Zm46-77q134 0 227-93t93-227q0-29-4.5-55.5T782-547q-29 20-64 31t-73 11q-102 0-173.5-71.5T400-750q-104 26-172 112t-68 198q0 134 93 227t227 93ZM324.5-364.5Q310-379 310-400t14.5-35.5Q339-450 360-450t35.5 14.5Q410-421 410-400t-14.5 35.5Q381-350 360-350t-35.5-14.5Zm240 0Q550-379 550-400t14.5-35.5Q579-450 600-450t35.5 14.5Q650-421 650-400t-14.5 35.5Q621-350 600-350t-35.5-14.5Z"/>
</svg>
