<svg aria-hidden="true" viewBox="0 -960 960 960" fill="currentColor">
  <path d="M324.5-404.5Q310-419 310-440t14.5-35.5Q339-490 360-490t35.5 14.5Q410-461 410-440t-14.5 35.5Q381-390 360-390t-35.5-14.5Zm240 0Q550-419 550-440t14.5-35.5Q579-490 600-490t35.5 14.5Q650-461 650-440t-14.5 35.5Q621-390 600-390t-35.5-14.5ZM480-160q134 0 227-93t93-227q0-24-3-46.5T786-570q-21 5-42 7.5t-44 2.5q-91 0-172-39T390-708q-32 78-91.5 135.5T160-486v6q0 134 93 227t227 93Zm0 80q-83 0-156-31.5T197-197q-54-54-85.5-127T80-480q0-83 31.5-156T197-763q54-54 127-85.5T480-880q83 0 156 31.5T763-763q54 54 85.5 127T880-480q0 83-31.5 156T763-197q-54 54-127 85.5T480-80Z"/>
</svg>
