<svg aria-hidden="true" viewBox="0 -960 960 960" fill="currentColor">
  <path d="M480-31.87q22.522 0 45.043-2.64 22.522-2.642 45.044-7.642 90.87 65.24 199 44.946Q877.218-17.5 934.174-113.652q45-74.718 30.435-160.076Q950.044-359.087 890-419.239v-2.283q60.805-57.239 73.772-143.848 12.967-86.608-28.876-158.8-36.005-61.46-101.961-96.352-65.957-34.891-139.631-26.087-33.195-56.282-89.678-88.902-56.483-32.62-123.653-32.62-67.169 0-123.625 32.62-56.457 32.62-89.652 88.902-73.674-8.804-139.631 26.087Q61.108-785.63 25.104-724.17q-41.843 72.192-28.876 158.8Q9.195-478.761 70-421.522v2.283Q9.956-359.087-4.61-273.728q-14.565 85.358 30.435 160.076Q82.782-17.5 190.913 2.794q108.13 20.293 199-44.946 22.522 5 45.044 7.641 22.521 2.642 45.043 2.642ZM278.674-86.173q-50.565 16.891-100.315-3.609t-77.502-66.563q-20.096-33.589-21.531-72.295-1.435-38.707 16.652-73.75 12.239 34.043 30.5 65.587 18.261 31.543 41.663 59.065 23.402 27.522 51.326 50.543 27.924 23.022 59.207 41.022Zm402.652 0q32.044-18 59.702-41.05 27.659-23.051 50.95-50.515 23.522-27.522 41.663-59.065 18.142-31.544 30.381-65.587 18.087 35.043 16.652 73.75-1.435 38.706-21.531 72.295-27.752 46.063-77.502 66.563t-100.315 3.61ZM480-122.87q-132.565 0-224.728-92.027-92.163-92.027-92.163-224.625 0-110.087 66.206-194.891 66.207-84.804 167.815-111.761 1.435 102 73.533 173.141Q542.761-501.891 645-501.891q37.495 0 72.03-10.642 34.535-10.641 63.535-29.923 8.522 24.043 12.663 49.706 4.142 25.663 4.142 53.228 0 132.598-92.403 224.625Q612.565-122.87 480-122.87ZM361.196-349.283q-21.479 0-36.098-14.619-14.62-14.62-14.62-36.098t14.62-36.098q14.619-14.619 36.098-14.619 21.478 0 36.098 14.619 14.619 14.62 14.619 36.098t-14.619 36.098q-14.62 14.619-36.098 14.619Zm237.608 0q-21.478 0-36.098-14.619-14.619-14.62-14.619-36.098t14.619-36.098q14.62-14.619 36.098-14.619 21.479 0 36.098 14.619 14.62 14.62 14.62 36.098t-14.62 36.098q-14.619 14.619-36.098 14.619ZM88.978-554.522q-13.37-32.848-10.174-65.337 3.196-32.489 21.522-62.098 20.565-34.369 53.956-55.01 33.392-20.642 73.044-23.033-24.424 19.226-45.56 42.298-21.136 23.072-38.94 48.876T111.5-614.315q-13.522 28.706-22.522 59.793Zm782.044 0q-9-31.087-22.522-59.793-13.522-28.707-31.317-54.567-17.796-25.861-38.87-48.848-21.074-22.987-45.639-42.27 39.652 2.391 73.044 23.033 33.391 20.641 53.956 55.01 18.326 29.609 21.522 62.098 3.195 32.489-10.174 65.337ZM645-588.109q-67.6 0-114.626-46.924-47.026-46.924-47.265-114.489v-7.608q40.565.478 77.492 10.231 36.927 9.752 69.967 28.282 33.041 18.53 61.323 43.074 28.283 24.543 49.044 55.586-20.222 14.988-44.296 23.418-24.074 8.43-51.639 8.43Zm-65.239-246.652q-23.609-6.565-48.616-9.967-25.006-3.403-50.906-3.403-26.063 0-51.227 3.403-25.164 3.402-48.773 9.967 19.283-21.935 45.174-34.543 25.891-12.609 54.587-12.609 28.696 0 54.587 12.609 25.891 12.608 45.174 34.543ZM142.826-668.826Zm337.413-179.305Zm150.326 129.522Zm186.609 49.783Zm-25.196 491.087Zm-623.956 0Z"/>
</svg>
