<svg aria-hidden="true" viewBox="0 -960 960 960" fill="currentColor">
  <path d="M480-31.87q22.522 0 45.043-2.64 22.522-2.642 45.044-7.642 90.87 65.24 199 44.946Q877.218-17.5 934.174-113.652q45-74.718 30.435-160.076Q950.044-359.087 890-419.239v-2.283q60.805-57.239 73.772-143.848 12.967-86.608-28.837-158.695-36.044-61.565-102-96.457-65.957-34.891-139.631-26.087-33.195-56.282-89.652-88.902-56.456-32.62-123.652-32.62t-123.652 32.62q-56.457 32.62-89.652 88.902-73.674-8.804-139.631 26.087-65.957 34.892-102 96.457-41.804 72.087-28.837 158.695Q9.195-478.761 70-421.522v2.283Q9.956-359.087-4.61-273.728q-14.565 85.358 30.435 160.076Q82.782-17.5 190.913 2.794q108.13 20.293 199-44.946 22.522 5 45.044 7.641 22.521 2.642 45.043 2.642Zm0-91q-132.565 0-224.728-92.043-92.163-92.044-92.163-224.609 0-110.087 66.206-194.891 66.207-84.804 167.815-111.761 1.435 102 73.533 173.141Q542.761-501.891 645-501.891q37.522 0 72.043-10.642 34.522-10.641 63.522-29.923 8.522 24.043 12.663 49.706 4.142 25.663 4.142 53.228 0 132.565-92.403 224.609Q612.565-122.87 480-122.87ZM361.196-349.283q-21.479 0-36.098-14.619-14.62-14.62-14.62-36.098t14.62-36.098q14.619-14.619 36.098-14.619 21.478 0 36.098 14.619 14.619 14.62 14.619 36.098t-14.619 36.098q-14.62 14.619-36.098 14.619Zm237.608 0q-21.478 0-36.098-14.619-14.619-14.62-14.619-36.098t14.619-36.098q14.62-14.619 36.098-14.619 21.479 0 36.098 14.619 14.62 14.62 14.62 36.098t-14.62 36.098q-14.619 14.619-36.098 14.619Z"/>
</svg>
