<svg aria-hidden="true" viewBox="0 -960 960 960" fill="currentColor">
  <path d="M434-43q-23-3-46-8-88 65-193.5 46.5T33-117q-45-74-29-159t77-143v-3Q19-479 4-562.5T32-720q37-63 102-95.5T271-838q32-57 87.5-89.5T480-960q66 0 121.5 32.5T689-838q72-10 137 22.5T928-720q43 74 28 157.5T879-422v3q61 58 77 143t-29 159Q871-23 765.5-4.5T572-51q-23 5-46 8t-46 3q-23 0-46-3ZM288-90q-32-18-61-41.5T174-183q-24-28-42.5-60.5T101-311q-20 36-20 76.5t21 75.5q29 48 81.5 68.5T288-90Zm384 0q52 20 104.5-.5T858-159q21-35 21-75.5T859-311q-12 35-30.5 67.5T786-183q-24 28-52.5 51.5T672-90Zm-192-30q134 0 227-93t93-227q0-29-4.5-55.5T782-547q-29 20-64 31t-73 11q-102 0-173.5-71.5T400-750q-104 26-172 112t-68 198q0 134 93 227t227 93ZM324.5-364.5Q310-379 310-400t14.5-35.5Q339-450 360-450t35.5 14.5Q410-421 410-400t-14.5 35.5Q381-350 360-350t-35.5-14.5Zm240 0Q550-379 550-400t14.5-35.5Q579-450 600-450t35.5 14.5Q650-421 650-400t-14.5 35.5Q621-350 600-350t-35.5-14.5ZM94-544q9-33 23-63.5t33-57.5q19-27 41.5-51t48.5-44q-43 0-79.5 21T102-681q-20 32-22 67t14 70Zm772 0q16-35 14-70t-22-67q-22-37-58.5-58T720-760q26 20 48.5 44t41.5 51q19 27 33 57.5t23 63.5Zm-221-41q29 0 54-9t46-25q-21-32-50-57.5T632-721q-34-19-72-29t-80-10v10q0 69 48 117t117 48Zm-54-239q-20-26-49-41t-62-15q-33 0-62 15t-49 41q26-8 54-12t57-4q29 0 57 4t54 12ZM150-665Zm660 0Zm-330-85Zm0-90ZM174-183Zm612 0Z"/>
</svg>
