<svg aria-hidden="true" viewBox="0 -960 960 960" fill="currentColor">
  <path d="M565.5-348.5Q603-377 620-422H340q17 45 54.5 73.5T480-320q48 0 85.5-28.5Zm-143-149Q440-515 440-540t-17.5-42.5Q405-600 380-600t-42.5 17.5Q320-565 320-540t17.5 42.5Q355-480 380-480t42.5-17.5Zm200 0Q640-515 640-540t-17.5-42.5Q605-600 580-600t-42.5 17.5Q520-565 520-540t17.5 42.5Q555-480 580-480t42.5-17.5ZM305-704l112-145q12-16 28.5-23.5T480-880q18 0 34.5 7.5T543-849l112 145 170 57q26 8 41 29.5t15 47.5q0 12-3.5 24T866-523L756-367l4 164q1 35-23 59t-56 24q-2 0-22-3l-179-50-179 50q-5 2-11 2.5t-11 .5q-32 0-56-24t-23-59l4-165L95-523q-8-11-11.5-23T80-570q0-25 14.5-46.5T135-647l170-57Z"/>
</svg>
