<svg aria-hidden="true" viewBox="0 -960 960 960" fill="currentColor">
  <path d="M810.479-271.674 555.304-442.456q-20.63-13.674-20.63-37.544 0-23.87 20.63-37.544l255.175-170.782q22.869-14.913 46.739-1.859 23.869 13.054 23.869 40.402v339.566q0 27.348-23.869 40.782-23.87 13.435-46.739-2.239Zm-417.457 0L137.848-442.456Q117.217-456.13 117.217-480q0-23.87 20.631-37.544l255.174-170.782q22.869-14.913 46.739-1.859 23.869 13.054 23.869 40.402v339.566q0 27.348-23.869 40.782-23.87 13.435-46.739-2.239Z"/>
</svg>
