<svg aria-hidden="true" viewBox="0 -960 960 960" fill="currentColor">
  <path d="M150.521-271.674q-22.63 15.674-46.619 2.239-23.99-13.434-23.99-40.782v-339.566q0-27.348 23.87-40.782 23.87-13.435 46.739 2.239l255.175 170.782Q426.087-503.87 426.087-480q0 23.87-20.391 37.544L150.521-271.674Zm417.457 0q-22.63 15.674-46.619 2.239-23.989-13.434-23.989-40.782v-339.566q0-27.348 23.869-40.782 23.87-13.435 46.739 2.239l255.174 170.782Q843.544-503.87 843.544-480q0 23.87-20.392 37.544L567.978-271.674ZM170.913-480Zm417.457 0Zm-417.457 84.5L298.782-480l-127.869-84.5v169Zm417.457 0L716.478-480 588.37-564.5v169Z"/>
</svg>
