<svg aria-hidden="true" viewBox="0 -960 960 960" fill="currentColor">
  <path d="M150.521-271.674q-22.869 15.674-46.739 2.239-23.87-13.434-23.87-40.782v-339.566q0-27.348 23.87-40.402 23.87-13.054 46.739 1.859l255.175 170.782q20.63 13.674 20.63 37.544 0 23.87-20.63 37.544L150.521-271.674Zm417.457 0q-22.869 15.674-46.739 2.239-23.869-13.434-23.869-40.782v-339.566q0-27.348 23.869-40.402 23.87-13.054 46.739 1.859l255.174 170.782Q843.783-503.87 843.783-480q0 23.87-20.631 37.544L567.978-271.674Z"/>
</svg>
