<svg aria-hidden="true" viewBox="0 -960 960 960" fill="currentColor">
  <path d="M809.479-271.674 554.304-442.456Q533.913-456.13 533.913-480q0-23.87 20.391-37.544l255.175-170.782q22.869-15.674 46.739-2.239 23.869 13.434 23.869 40.782v339.566q0 27.348-23.989 40.782-23.989 13.435-46.619-2.239Zm-417.457 0L136.848-442.456Q116.456-456.13 116.456-480q0-23.87 20.392-37.544l255.174-170.782q22.869-15.674 46.739-2.239 23.869 13.434 23.869 40.782v339.566q0 27.348-23.989 40.782-23.989 13.435-46.619-2.239ZM371.63-480Zm417.457 0ZM371.63-395.5v-169L243.522-480l128.108 84.5Zm417.457 0v-169L661.218-480l127.869 84.5Z"/>
</svg>
