<svg aria-hidden="true" viewBox="0 -960 960 960" fill="currentColor">
  <path d="M270.913-438.087v-38.326h-74.5q-19.152 0-32.326-13.174t-13.174-32.326q0-19.152 13.174-32.326t32.326-13.174h74.5q37.537 0 64.269 26.731 26.731 26.731 26.731 64.269v38.326H434.5v-276q0-71.152 49.674-120.326 49.674-49.174 120.811-49.174 47.425 0 87.633 25.076t62.404 68.033l23.456 46.673q9.196 16.914 3.098 34.805t-23.25 26.848q-16.913 8.717-34.565 2.858-17.652-5.858-26.609-22.771l-24.174-47.631q-10.226-19.58-28.819-31.236-18.594-11.655-40.171-11.655-32.836 0-55.662 22.826T525.5-714.087v276h72.587v-38.326q0-37.538 26.731-64.269 26.732-26.731 64.269-26.731h74.5q19.152 0 32.326 13.174t13.174 32.326q0 19.152-13.174 32.326t-32.326 13.174h-74.5v38.326H840q19.152 0 32.326 13.174t13.174 32.326q0 19.152-13.174 32.326T840-347.087H120q-19.152 0-32.326-13.174T74.5-392.587q0-19.152 13.174-32.326T120-438.087h150.913ZM245.5-114.5q-37.537 0-64.269-26.731Q154.5-167.963 154.5-205.5v-141.587h91V-205.5h469v-141.587h91V-200q0 35.391-25.054 60.446Q755.391-114.5 720-114.5H245.5Z"/>
</svg>
