<svg aria-hidden="true" viewBox="0 -960 960 960" fill="currentColor">
  <path d="M270.913-438.087v-38.326h-74.5q-19.152 0-32.326-13.174t-13.174-32.326q0-19.152 13.174-32.326t32.326-13.174h74.5q37.543 0 64.272 26.728 26.728 26.728 26.728 64.272v38.326H434.5v-276q0-71.152 49.674-120.326Q533.848-883.587 605-883.587q47.435 0 87.63 25.076 40.196 25.076 62.392 68.033l23.456 46.673q9.196 16.914 3.098 34.805t-23.25 26.848q-16.913 8.717-34.565 2.858-17.652-5.858-26.609-22.771l-24.174-47.631q-10.282-19.565-28.848-31.228-18.565-11.663-40.13-11.663-32.848 0-55.674 22.826T525.5-714.087v276h72.587v-38.326q0-37.544 26.728-64.272 26.729-26.728 64.272-26.728h74.5q19.152 0 32.326 13.174t13.174 32.326q0 19.152-13.174 32.326t-32.326 13.174h-74.5v38.326H840q19.152 0 32.326 13.174t13.174 32.326q0 19.152-13.174 32.326T840-347.087H120q-19.152 0-32.326-13.174T74.5-392.587q0-19.152 13.174-32.326T120-438.087h150.913ZM245.5-114.5q-37.543 0-64.272-26.728Q154.5-167.957 154.5-205.5v-101.587h651V-200q0 35.391-25.054 60.446Q755.391-114.5 720-114.5H245.5Z"/>
</svg>
