<svg aria-hidden="true" viewBox="0 -960 960 960" fill="currentColor">
  <path d="M320-160v-560q0-33 23.5-56.5T400-800h240q33 0 56.5 23.5T720-720v120h40q50 0 85 35t35 85v240q0 33-23.5 56.5T800-160H320Zm-140 40q42 0 71-29t29-71v-320q0-42-29-71t-71-29q-42 0-71 29t-29 71v320q0 42 29 71t71 29Zm220-480h240v-120H400v120Zm268.5 188.5Q680-423 680-440t-11.5-28.5Q657-480 640-480t-28.5 11.5Q600-457 600-440t11.5 28.5Q623-400 640-400t28.5-11.5Zm120 0Q800-423 800-440t-11.5-28.5Q777-480 760-480t-28.5 11.5Q720-457 720-440t11.5 28.5Q743-400 760-400t28.5-11.5Zm-120 120Q680-303 680-320t-11.5-28.5Q657-360 640-360t-28.5 11.5Q600-337 600-320t11.5 28.5Q623-280 640-280t28.5-11.5Zm120 0Q800-303 800-320t-11.5-28.5Q777-360 760-360t-28.5 11.5Q720-337 720-320t11.5 28.5Q743-280 760-280t28.5-11.5ZM440-280h80q17 0 28.5-11.5T560-320v-120q0-17-11.5-28.5T520-480h-80q-17 0-28.5 11.5T400-440v120q0 17 11.5 28.5T440-280Z"/>
</svg>
