<svg aria-hidden="true" viewBox="0 -960 960 960" fill="currentColor">
  <path d="M200-120q-50 0-85-35t-35-85v-280q0-50 35-85t85-35q27 0 49.5 11t39.5 29h31v-120q0-33 23.5-56.5T400-800h240q33 0 56.5 23.5T720-720v120h40q50 0 85 35t35 85v240q0 33-23.5 56.5T800-160H289q-17 18-39.5 29T200-120Zm0-80q17 0 28.5-11.5T240-240v-280q0-17-11.5-28.5T200-560q-17 0-28.5 11.5T160-520v280q0 17 11.5 28.5T200-200Zm200-400h240v-120H400v120Zm-80 360h480v-240q0-17-11.5-28.5T760-520H320v280Zm308.5-171.5Q640-423 640-440t-11.5-28.5Q617-480 600-480t-28.5 11.5Q560-457 560-440t11.5 28.5Q583-400 600-400t28.5-11.5Zm120 0Q760-423 760-440t-11.5-28.5Q737-480 720-480t-28.5 11.5Q680-457 680-440t11.5 28.5Q703-400 720-400t28.5-11.5Zm-120 120Q640-303 640-320t-11.5-28.5Q617-360 600-360t-28.5 11.5Q560-337 560-320t11.5 28.5Q583-280 600-280t28.5-11.5Zm120 0Q760-303 760-320t-11.5-28.5Q737-360 720-360t-28.5 11.5Q680-337 680-320t11.5 28.5Q703-280 720-280t28.5-11.5ZM400-280h80q17 0 28.5-11.5T520-320v-120q0-17-11.5-28.5T480-480h-80q-17 0-28.5 11.5T360-440v120q0 17 11.5 28.5T400-280Zm-80 40v-280 280Z"/>
</svg>
