<svg aria-hidden="true" viewBox="0 -960 960 960" fill="currentColor">
  <path d="M160-160v-360q-33 0-56.5-23.5T80-600v-80q0-33 23.5-56.5T160-760h128q-5-9-6.5-19t-1.5-21q0-50 35-85t85-35q23 0 43 8.5t37 23.5q17-16 37-24t43-8q50 0 85 35t35 85q0 11-2 20.5t-6 19.5h128q33 0 56.5 23.5T880-680v80q0 33-23.5 56.5T800-520v360q0 33-23.5 56.5T720-80H240q-33 0-56.5-23.5T160-160Zm371.5-668.5Q520-817 520-800t11.5 28.5Q543-760 560-760t28.5-11.5Q600-783 600-800t-11.5-28.5Q577-840 560-840t-28.5 11.5ZM360-800q0 17 11.5 28.5T400-760q17 0 28.5-11.5T440-800q0-17-11.5-28.5T400-840q-17 0-28.5 11.5T360-800ZM160-680v80h280v-80H160Zm280 520v-360H240v360h200Zm80 0h200v-360H520v360Zm280-440v-80H520v80h280Z"/>
</svg>
