<svg aria-hidden="true" viewBox="0 -960 960 960" fill="currentColor">
  <path d="M396-77q-44 0-77-27.5T278-176q-3-18-13.5-29.5T234-217q-3 0-6 .5t-5 .5q-56 11-99.5-25.5T80-335q0-42 27.5-76t72.5-42l118-21 133-191q-14-14-22-33t-8-39q0-42 28-70.5t69-28.5q26 0 44 9.5t26 15.5q9 7 20.5 10t25.5 4q8-25 25.5-44t41.5-28q44-17 85 2.5t57 61.5l51 141q17 46-4 86.5T810-524q-36 12-69 2.5T686-556h-37L494-335l21 116q11 56-25.5 99T396-77Zm0-80q19 0 31.5-14.5T436-204l-24-133q-2-8 0-15.5t7-14.5l164-235q11-16 28.5-25t37.5-9l-29-80q-30 1-55-7t-45-23q-7-5-12-7.5t-10-2.5q-8 0-12.5 6t-4.5 13q0 4 1.5 8t3.5 7q13 13 19 27.5t6 29.5q0 13-3.5 24.5T496-618L353-413q-5 7-11.5 10.5T327-397l-134 23q-14 2-23.5 13.5T160-335q0 20 15 32t33 9q7-2 13.5-2.5t12.5-.5q23 0 43.5 7.5T314-268q16 14 27 33.5t15 44.5q3 14 14.5 23.5T396-157Zm0 0q-14 0-25.5-9.5T356-190q-8-50-41.5-78.5T234-297q-6 0-12.5.5T208-294q-18 3-33-9t-15-32q0-14 9.5-25.5T193-374l134-23q8-2 14.5-5.5T353-413l143-205q8-11 11.5-22.5T511-665q0-15-6-29.5T486-722q-2-3-3.5-7t-1.5-8q0-7 4.5-13t12.5-6q5 0 10 2.5t12 7.5q20 15 45 23t55 7l29 80q-20 0-37.5 9T583-602L419-367q-5 7-7 14.5t0 15.5l24 133q4 18-8.5 32.5T396-157Z"/>
</svg>
