<svg aria-hidden="true" viewBox="0 -960 960 960" fill="currentColor">
  <path d="m763-84-77-76H240q-33 0-56.5-23.5T160-240v-80q0-17 11.5-28.5T200-360q17 0 28.5 11.5T240-320v80h366L503-343q-6 3-11.5 4.5T480-337q-10 0-16.5-3t-11.5-8L308-492q-11-11-11.5-25.5T304-542L83-763q-11-11-11-28t12-29q11-11 28-11t29 11l679 680q11 11 11 28t-11 28q-12 12-29 12t-28-12Zm37-190-71-71q5-6 12.5-10.5T760-360q17 0 28.5 11.5T800-320v46ZM617-457l-57-57 35-35q11-11 28.5-10.5T652-548q11 11 11 28t-11 28l-35 35Zm-97-97-80-80v-126q0-17 11.5-28.5T480-800q17 0 28.5 11.5T520-760v206Z"/>
</svg>
