<svg aria-hidden="true" viewBox="0 -960 960 960" fill="currentColor">
  <path d="M320-240q-33 0-56.5-23.5T240-320v-480q0-33 23.5-56.5T320-880h480q33 0 56.5 23.5T880-800v480q0 33-23.5 56.5T800-240H320Zm0-80h480v-480H320v480ZM160-80q-33 0-56.5-23.5T80-160v-520q0-17 11.5-28.5T120-720q17 0 28.5 11.5T160-680v520h520q17 0 28.5 11.5T720-120q0 17-11.5 28.5T680-80H160Zm160-720v480-480Zm211.5 228.5Q520-583 520-600t11.5-28.5Q543-640 560-640t28.5 11.5Q600-617 600-600t-11.5 28.5Q577-560 560-560t-28.5-11.5ZM560-360q81-69 120.5-127.5T720-596q0-75-48.5-119.5T560-760q-63 0-111.5 44.5T400-596q0 50 39.5 108.5T560-360Z"/>
</svg>
