<svg aria-hidden="true" viewBox="0 -960 960 960" fill="currentColor">
  <path d="m573-112-61-62q-17 42-52.5 68T380-80q-59 0-99.5-40.5T240-220q0-59 40.5-99.5T380-360q14 0 28 2t26 8L258-613q-8-12-6.5-26t11.5-24l189-189q6-6 13-8.5t15-2.5q8 0 15 2.5t13 8.5l189 189q10 10 11.5 24t-6.5 26L520-340v62l110 110q11 11 11.5 27.5T631-112q-12 12-29 12t-29-12Zm-150.5-65.5Q440-195 440-220t-17.5-42.5Q405-280 380-280t-42.5 17.5Q320-245 320-220t17.5 42.5Q355-160 380-160t42.5-17.5ZM480-424l138-206-138-138-138 138 138 206Zm0-172Z"/>
</svg>
