<svg aria-hidden="true" viewBox="0 -960 960 960" fill="currentColor">
  <path d="M763-84 83-763q-12-12-12-28.5T83-820q12-12 28.5-12t28.5 12l680 680q12 12 12 28t-12 28q-12 12-28.5 12T763-84ZM633-440l-80-80h127q17 0 28.5 11.5T720-480q0 17-11.5 28.5T680-440h-47ZM433-640l-80-80h447q17 0 28.5 11.5T840-680q0 17-11.5 28.5T800-640H433Zm7 400q-17 0-28.5-11.5T400-280q0-17 11.5-28.5T440-320h80q17 0 28.5 11.5T560-280q0 17-11.5 28.5T520-240h-80Zm-34-200H280q-17 0-28.5-11.5T240-480q0-17 11.5-28.5T280-520h126v80ZM206-640h-46q-17 0-28.5-11.5T120-680q0-17 11.5-28.5T160-720h46v80Z"/>
</svg>
