<svg aria-hidden="true" viewBox="0 -960 960 960" fill="currentColor">
  <path d="M123.587-236.413q-28.348 0-40.783-24.989-12.434-24.989 4.479-47.62l156.413-208.456Q257.37-535.63 280-535.63q22.63 0 36.304 18.152l142.979 190.065h286.13L560-573.804l-93.065 123.152L410-526.218l113.696-151.26Q537.37-695.63 560-695.63q22.63 0 36.304 18.152l276.413 368.456q17.153 22.631 4.598 47.62-12.554 24.989-40.902 24.989H123.587Zm436.217-91Zm-350.239 0h140.87L280-421.739l-70.435 94.326Zm0 0h140.87-140.87Z"/>
</svg>
