<svg aria-hidden="true" viewBox="0 -960 960 960" fill="currentColor">
  <path d="M240-80q-33 0-56.5-23.5T160-160v-640q0-33 23.5-56.5T240-880h323q18 0 34 7.5t27 21.5l157 189q9 11 14 24t5 27v451q0 27-24.5 37t-43.5-9L560-302q-17 11-37 16.5t-43 5.5q-66 0-113-47t-47-113q0-66 47-113t113-47q66 0 113 47t47 113q0 23-5.5 43T618-360l102 104v-356L562-800H240v640h333q20 0 30 12.5t10 27.5q0 15-10 27.5T573-80H240Zm296.5-303.5Q560-407 560-440t-23.5-56.5Q513-520 480-520t-56.5 23.5Q400-473 400-440t23.5 56.5Q447-360 480-360t56.5-23.5ZM480-440Zm0 0Z"/>
</svg>
