<svg aria-hidden="true" viewBox="0 -960 960 960" fill="currentColor">
  <path d="M424-284.87q39 32 84.5 15.5t51.5-67.5q5-47-29-69.5t-51-58.5q-5 14-5 26t3 26q3 17 7 32t1 32q-5 18-22 37t-40 27Zm-261.13 213q-37.544 0-64.272-26.728-26.729-26.728-26.729-64.272v-634.26q0-37.544 26.729-64.272 26.728-26.729 64.272-26.729h634.26q37.544 0 64.272 26.729 26.729 26.728 26.729 64.272v634.26q0 37.544-26.729 64.272-26.728 26.729-64.272 26.729H162.87Zm356.043-566.52q4.674 36 26.674 71.184 22 35.185 62.565 65.229 34.674 25.434 55.055 58.652 20.38 33.217 20.38 80.456 0 34.522-10.522 64.5-10.521 29.979-28.282 55.5h33.304q19.152 0 32.326 13.174t13.174 32.326v34.5h73.543v-634.26H162.87v634.26h73.543v-34.5q0-19.152 13.174-32.326t32.326-13.174h43.304q-22.043-27.804-35.424-59.684-13.38-31.881-13.38-62.316 0-85.043 39-153.902 39-68.858 162.283-143.054 16.195-9.957 26.989-3.978 10.793 5.978 14.228 27.413Z"/>
</svg>
