<svg aria-hidden="true" viewBox="0 -960 960 960" fill="currentColor">
  <path d="M424-282q39 32 84.5 15.5T560-334q5-47-29-69.5T480-462q-5 14-5 26t3 26q3 17 7 32t1 32q-5 18-22 37t-40 27ZM160-80q-33 0-56.5-23.5T80-160v-640q0-33 23.5-56.5T160-880h640q33 0 56.5 23.5T880-800v640q0 33-23.5 56.5T800-80H160Zm357-556q3 36 25 72.5t64 67.5q33 24 53.5 56.5T680-360q0 35-11 64.5T640-240h40q17 0 28.5 11.5T720-200v40h80v-640H160v640h80v-40q0-17 11.5-28.5T280-240h50q-23-29-36.5-61T280-362q0-86 39-154.5T482-658q15-9 24-3.5t11 25.5Z"/>
</svg>
