<svg aria-hidden="true" viewBox="0 -960 960 960" fill="currentColor">
  <path d="M279-240v-241l10-39h380l10 39v241H279Zm81-200v120h240v-120H360Zm147.5-292.5Q519-744 519-761t-11.5-28.5Q496-801 479-801t-28.5 11.5Q439-778 439-761t11.5 28.5Q462-721 479-721t28.5-11.5ZM640-738v-46l-42 8q1 4 1 7.5v15q0 3.5-1 7.5l42 8ZM279-481q0-63 35-113t91-72q-11-8-19.5-18.5T371-708l-155-30q-7-2-11.5-7t-4.5-12v-8q0-7 4.5-12t11.5-7l155-30q15-30 43.5-49t64.5-19q23 0 44 9t37 23l112-22q19-4 33.5 8t14.5 31v143q0 19-14.5 31.5T672-650l-112-22q-2 2-3.5 3t-3.5 3q56 22 91 72t35 113h-79q0-50-35-84.5T480-600q-50 0-85 34.5T360-481h-81Zm80 401q-33 0-56.5-23.5T279-160v-80h81v80h240v-80h79v80q0 33-23.5 56.5T599-80H359Z"/>
</svg>
