<svg aria-hidden="true" viewBox="0 -960 960 960" fill="currentColor">
  <path d="M279-320v-120h400v120H279Zm199-401q17 0 28.5-11.5T518-761q0-17-11.5-28.5T478-801q-17 0-28.5 11.5T438-761q0 17 11.5 28.5T478-721ZM282-520q11-50 43.5-88.5T405-665q-11-9-20-19.5T370-708l-155-30q-7-1-11-6t-4-13v-7q0-8 4-13t11-7l155-29q15-31 44-49.5t64-18.5q24 0 44.5 8.5T559-850l113-22q19-3 33.5 9t14.5 31v143q0 19-14.5 31t-33.5 8l-113-21q-2 2-3.5 3t-3.5 3q47 18 79.5 56.5T675-520H282Zm77 440q-33 0-56.5-23.5T279-160v-80h400v80q0 33-23.5 56.5T599-80H359Z"/>
</svg>
