<svg aria-hidden="true" viewBox="0 -960 960 960" fill="currentColor">
  <path d="M195-155q-35-35-35-85h-40q-33 0-56.5-23.5T40-320v-120q0-33 23.5-56.5T120-520h360v-160q0-33 23.5-56.5T560-760h80v-40q0-17 11.5-28.5T680-840h40q17 0 28.5 11.5T760-800v40h22q26 0 47 15t29 40l58 172q2 6 3 12.5t1 13.5v187q0 33-23.5 56.5T840-240h-40q0 50-35 85t-85 35q-50 0-85-35t-35-85H400q0 50-35 85t-85 35q-50 0-85-35Zm113.5-56.5Q320-223 320-240t-11.5-28.5Q297-280 280-280t-28.5 11.5Q240-257 240-240t11.5 28.5Q263-200 280-200t28.5-11.5Zm400 0Q720-223 720-240t-11.5-28.5Q697-280 680-280t-28.5 11.5Q640-257 640-240t11.5 28.5Q663-200 680-200t28.5-11.5ZM560-520h276l-54-160H560v160ZM80-620v-80H70q-13 0-21.5-8.5T40-730q0-13 8.5-21.5T70-760h340q13 0 21.5 8.5T440-730q0 13-8.5 21.5T410-700h-10v80h10q13 0 21.5 8.5T440-590q0 13-8.5 21.5T410-560H70q-13 0-21.5-8.5T40-590q0-13 8.5-21.5T70-620h10Zm60 0h70v-80h-70v80Zm130 0h70v-80h-70v80Z"/>
</svg>
