<svg aria-hidden="true" viewBox="0 -960 960 960" fill="currentColor">
  <path d="M240-160v-120h-40q-33 0-56.5-23.5T120-360v-80q0-33 23.5-56.5T200-520h40v-120h-40q-17 0-28.5-11.5T160-680q0-17 11.5-28.5T200-720h54q25-70 86.5-115T480-880q78 0 139.5 45T706-720h54q17 0 28.5 11.5T800-680q0 17-11.5 28.5T760-640h-40v120h40q33 0 56.5 23.5T840-440v80q0 33-23.5 56.5T760-280h-40v120h40q17 0 28.5 11.5T800-120q0 17-11.5 28.5T760-80H200q-17 0-28.5-11.5T160-120q0-17 11.5-28.5T200-160h40Zm101-560h278q-21-36-57.5-58T480-800q-45 0-81.5 22T341-720Zm-21 560h320v-200h120v-80H640v-200H320v200H200v80h120v200Zm259-141q41-41 41-99t-41-99q-41-41-99-41t-99 41q-41 41-41 99t41 99q41 41 99 41t99-41Zm-141.5-56.5Q420-375 420-400t17.5-42.5Q455-460 480-460t42.5 17.5Q540-425 540-400t-17.5 42.5Q505-340 480-340t-42.5-17.5ZM480-400Zm0-240Z"/>
</svg>
