<svg aria-hidden="true" viewBox="0 -960 960 960" fill="currentColor">
  <path d="M160-116.413q-18.524 0-31.056-12.531-12.531-12.532-12.531-31.056v-640q0-18.524 12.531-31.056 12.532-12.531 31.056-12.531t31.056 12.531q12.531 12.532 12.531 31.056v640q0 18.524-12.531 31.056-12.532 12.531-31.056 12.531Zm116.413-320v-87.174h87.174v87.174h-87.174Zm160 0v-87.174h87.174v87.174h-87.174Zm160 0v-87.174h87.174v87.174h-87.174Zm203.587 320q-18.524 0-31.056-12.531-12.531-12.532-12.531-31.056v-640q0-18.524 12.531-31.056 12.532-12.531 31.056-12.531t31.056 12.531q12.531 12.532 12.531 31.056v640q0 18.524-12.531 31.056-12.532 12.531-31.056 12.531Z"/>
</svg>
