<svg aria-hidden="true" viewBox="0 -960 960 960" fill="currentColor">
  <path d="M120-160v-640q0-17 11.5-28.5T160-840q17 0 28.5 11.5T200-800v640q0 17-11.5 28.5T160-120q-17 0-28.5-11.5T120-160Zm640 0v-640q0-17 11.5-28.5T800-840q17 0 28.5 11.5T840-800v640q0 17-11.5 28.5T800-120q-17 0-28.5-11.5T760-160ZM451.5-451.5Q440-463 440-480t11.5-28.5Q463-520 480-520t28.5 11.5Q520-497 520-480t-11.5 28.5Q497-440 480-440t-28.5-11.5Zm-160 0Q280-463 280-480t11.5-28.5Q303-520 320-520t28.5 11.5Q360-497 360-480t-11.5 28.5Q337-440 320-440t-28.5-11.5Zm320 0Q600-463 600-480t11.5-28.5Q623-520 640-520t28.5 11.5Q680-497 680-480t-11.5 28.5Q657-440 640-440t-28.5-11.5Z"/>
</svg>
