<svg aria-hidden="true" viewBox="0 -960 960 960" fill="currentColor">
  <path d="M500-560ZM211.5-131.5Q200-143 200-160v-600q0-17 11.5-28.5T240-800h165q17 0 28.5 11.5T445-760q0 17-11.5 28.5T405-720H280v240h257q14 0 25 9t14 23l10 48h134v-18q0-17 11.5-28.5T760-458q17 0 28.5 11.5T800-418v58q0 17-11.5 28.5T760-320H553q-14 0-25-9t-14-23l-10-48H280v240q0 17-11.5 28.5T240-120q-17 0-28.5-11.5Zm650-736Q920-809 920-726t-58.5 141.5Q803-526 720-526t-141.5-58.5Q520-643 520-726t58.5-141.5Q637-926 720-926t141.5 58.5ZM691-721l-18-18q-9-9-21-8.5t-21 9.5q-9 9-9 21t9 21l32 32q12 12 28 12t28-12l90-89q9-9 9-21.5t-9-21.5q-9-9-21-8.5t-21 8.5l-76 75Z"/>
</svg>
