<svg aria-hidden="true" viewBox="0 -960 960 960" fill="currentColor">
  <path d="M211.5-131.5Q200-143 200-160v-600q0-17 11.5-28.5T240-800h165q17 0 28 14t9 31q-1 9-1.5 17.5T440-720q2 115 83.5 194.5T720-446q9 0 18-.5t17-1.5q18-2 31.5 9t13.5 28v51q0 17-11.5 28.5T760-320H553q-14 0-25-9t-14-23l-10-48H280v240q0 17-11.5 28.5T240-120q-17 0-28.5-11.5Zm650-736Q920-809 920-726t-58.5 141.5Q803-526 720-526t-141.5-58.5Q520-643 520-726t58.5-141.5Q637-926 720-926t141.5 58.5ZM691-721l-18-18q-9-9-21-8.5t-21 9.5q-9 9-9 21t9 21l32 32q12 12 28 12t28-12l90-89q9-9 9-21.5t-9-21.5q-9-9-21-8.5t-21 8.5l-76 75Z"/>
</svg>
