<svg aria-hidden="true" viewBox="0 -960 960 960" fill="currentColor">
  <path d="M76.413-436.413q-18.435 0-31.13-12.576Q32.587-461.565 32.587-480t12.695-31.011q12.696-12.576 31.131-12.576h160q18.435 0 31.011 12.576T280-480q0 18.435-12.576 31.011t-31.011 12.576h-160ZM276.978-622l-29-29q-12.196-12.196-12.196-29.511 0-17.315 13.196-30.511 12.196-12.196 30.511-12.196 18.315 0 30.511 12.196l29 29q12.196 12.196 12.196 29.511 0 17.315-13.196 30.511-12.196 12.196-30.511 12.196-18.315 0-30.511-12.196ZM480-680q-18.435 0-31.011-12.076t-12.576-30.511v-162q0-18.435 12.576-30.631 12.576-12.195 31.011-12.195t31.011 12.195q12.576 12.196 12.576 30.631v162q0 18.435-12.576 30.511T480-680Zm142 58q-12.196-12.196-12.196-30.511 0-18.315 12.196-30.511l29-29q12.196-12.196 29.511-12.196 17.315 0 30.511 13.196 12.196 12.196 12.196 30.511 0 18.315-12.196 30.511l-29 29q-12.196 12.196-29.511 12.196-17.315 0-30.511-13.196Zm101.587 185.587q-18.435 0-31.011-12.576T680-480q0-18.435 12.576-31.011t31.011-12.576h160q18.435 0 31.131 12.576 12.695 12.576 12.695 31.011t-12.695 31.011q-12.696 12.576-31.131 12.576h-160Zm-243.587 80q-51.435 0-87.511-36.076-36.076-36.076-36.076-87.511 0-51.435 36.076-87.511 36.076-36.076 87.511-36.076 51.435 0 87.511 36.076 36.076 36.076 36.076 87.511 0 51.435-36.076 87.511-36.076 36.076-87.511 36.076Zm170 107.435-29-29q-12.196-12.196-12.196-29.511 0-17.315 13.196-30.511 12.196-12.196 30.511-12.196 18.315 0 30.511 12.196l29 29q12.196 12.196 12.196 29.511 0 17.315-13.196 30.511-12.196 12.196-30.511 12.196-18.315 0-30.511-12.196Zm-401.022 0q-12.196-12.196-12.196-30.511 0-18.315 12.196-30.511l29-29q12.196-12.196 29.511-12.196 17.315 0 30.511 13.196 12.196 12.196 12.196 30.511 0 18.315-12.196 30.511l-29 29q-12.196 12.196-29.511 12.196-17.315 0-30.511-13.196ZM480-32.587q-18.435 0-31.011-12.695-12.576-12.696-12.576-31.131v-160q0-18.435 12.576-31.011T480-280q18.435 0 31.011 12.576t12.576 31.011v160q0 18.435-12.576 31.13Q498.435-32.587 480-32.587Z"/>
</svg>
