<svg aria-hidden="true" viewBox="0 -960 960 960" fill="currentColor">
  <path d="M80-440q-17 0-28.5-11.5T40-480q0-17 11.5-28.5T80-520h160q17 0 28.5 11.5T280-480q0 17-11.5 28.5T240-440H80Zm202-182-29-29q-11-11-11-27t12-28q11-11 28-11t28 11l29 29q11 11 11 27t-12 28q-11 11-28 11t-28-11Zm198-58q-17 0-28.5-11T440-719v-162q0-17 11.5-28t28.5-11q17 0 28.5 11t11.5 28v162q0 17-11.5 28T480-680Zm142 58q-11-11-11-28t11-28l29-29q11-11 27-11t28 12q11 11 11 28t-11 28l-29 29q-11 11-27 11t-28-12Zm98 182q-17 0-28.5-11.5T680-480q0-17 11.5-28.5T720-520h160q17 0 28.5 11.5T920-480q0 17-11.5 28.5T880-440H720Zm-240 80q-50 0-85-35t-35-85q0-50 35-85t85-35q50 0 85 35t35 85q0 50-35 85t-85 35Zm170 106-29-29q-11-11-11-27t12-28q11-11 28-11t28 11l29 29q11 11 11 27t-12 28q-11 11-28 11t-28-11Zm-396 0q-11-11-11-28t11-28l29-29q11-11 27-11t28 12q11 11 11 28t-11 28l-29 29q-11 11-27 11t-28-12ZM480-40q-17 0-28.5-11.5T440-80v-160q0-17 11.5-28.5T480-280q17 0 28.5 11.5T520-240v160q0 17-11.5 28.5T480-40Z"/>
</svg>
