<svg aria-hidden="true" viewBox="0 -960 960 960" fill="currentColor">
  <path d="M268.5-451.5Q257-440 240-440H80q-17 0-28.5-11.5T40-480q0-17 11.5-28.5T80-520h160q17 0 28.5 11.5T280-480q0 17-11.5 28.5ZM338-622q-11 11-28 11t-28-11l-28-28q-11-11-11-28t11-28q11-11 28-11t28 11l28 28q11 11 11 28t-11 28Zm102-98v-160q0-17 11.5-28.5T480-920q17 0 28.5 11.5T520-880v160q0 17-11.5 28.5T480-680q-17 0-28.5-11.5T440-720Zm182 98q-11-11-11-28t11-28l28-28q11-11 28-11t28 11q11 11 11 28t-11 28l-28 28q-11 11-28 11t-28-11Zm69.5 113.5Q703-520 720-520h160q17 0 28.5 11.5T920-480q0 17-11.5 28.5T880-440H720q-17 0-28.5-11.5T680-480q0-17 11.5-28.5ZM395-395q-35-35-35-85t35-85q35-35 85-35t85 35q35 35 35 85t-35 85q-35 35-85 35t-85-35Zm227 57q11-11 28-11t28 11l28 28q11 11 11 28t-11 28q-11 11-28 11t-28-11l-28-28q-11-11-11-28t11-28Zm-284 0q11 11 11 28t-11 28l-28 28q-11 11-28 11t-28-11q-11-11-11-28t11-28l28-28q11-11 28-11t28 11Zm170.5 69.5Q520-257 520-240v160q0 17-11.5 28.5T480-40q-17 0-28.5-11.5T440-80v-160q0-17 11.5-28.5T480-280q17 0 28.5 11.5Z"/>
</svg>
