<svg aria-hidden="true" viewBox="0 -960 960 960" fill="currentColor">
  <path d="M520-120q-17 0-28.5-11.5T480-160v-364q-42-20-61-62.5T400-676q0-63 31.5-113.5T520-840q57 0 88.5 50.5T640-676q0 47-19 89.5T560-524v364q0 17-11.5 28.5T520-120Zm200 0q-17 0-28.5-11.5T680-160v-630q0-22 15-35t34-7q48 16 79.5 57t31.5 95v200q0 17-11.5 28.5T800-440h-40v280q0 17-11.5 28.5T720-120Zm-480 0q-17 0-28.5-11.5T200-160v-360q-33 0-56.5-23.5T120-600v-212q0-12 8-20t20-8q12 0 20 8t8 20v132h36v-132q0-12 8-20t20-8q12 0 20 8t8 20v132h36v-132q0-12 8-20t20-8q12 0 20 8t8 20v212q0 33-23.5 56.5T280-520v360q0 17-11.5 28.5T240-120Z"/>
</svg>
