<svg aria-hidden="true" viewBox="0 -960 960 960" fill="currentColor">
  <path d="M519.283-116.413q-18.525 0-31.056-12.531-12.531-12.532-12.531-31.056v-361.848q-42-20.717-61-63.679t-19-90.473q0-64.674 32.576-116.13 32.576-51.457 91.011-51.457 58.434 0 91.011 51.457Q642.87-740.674 642.87-676q0 47.511-19 90.473-19 42.962-61 63.679V-160q0 18.524-12.532 31.056-12.531 12.531-31.055 12.531Zm209.087 0q-18.435 0-31.011-12.531-12.576-12.532-12.576-31.056v-631.913q0-22.877 15.585-36.275 15.586-13.399 35.328-7.399 50.152 16.239 83.326 58.248 33.174 42.01 33.174 97.339v198.087q0 19.152-13.174 32.326t-32.326 13.174h-34.5V-160q0 18.524-12.696 31.056-12.695 12.531-31.13 12.531Zm-496.501 0q-18.434 0-31.011-12.531-12.576-12.532-12.576-31.056v-356.652q-33.478-1.435-56.978-25.652-23.5-24.218-23.5-57.636v-214.69q0-12.41 8.335-20.684 8.335-8.273 20.837-8.273 12.502 0 20.861 8.273 8.358 8.274 8.358 20.684V-680h36.718v-134.63q0-12.41 8.287-20.684 8.287-8.273 20.717-8.273 12.431 0 20.789 8.273 8.359 8.274 8.359 20.684V-680h36.717v-134.63q0-12.41 8.335-20.684 8.335-8.273 20.837-8.273 12.502 0 20.742 8.273 8.239 8.274 8.239 20.684v214.69q0 33.418-23.381 57.636-23.38 24.217-56.858 25.652V-160q0 18.524-12.696 31.056-12.696 12.531-31.131 12.531Z"/>
</svg>
