<svg aria-hidden="true" viewBox="0 -960 960 960" fill="currentColor">
  <path d="M303.5-376.5Q327-400 360-400t56.5 23.5Q440-353 440-320t-23.5 56.5Q393-240 360-240t-56.5-23.5Q280-287 280-320t23.5-56.5Zm-132 325Q160-63 160-80v-320q0-17 11.5-28.5T200-440q17 0 28.5 11.5T240-400v200h240v-160q0-17 11.5-28.5T520-400h200q33 0 56.5 23.5T800-320v240q0 17-11.5 28.5T760-40q-17 0-28.5-11.5T720-80v-40H240v40q0 17-11.5 28.5T200-40q-17 0-28.5-11.5ZM512-654 406-548l9 58q1 5-.5 9t-5.5 8l-4 4q-8 8-17.5 6T373-474l-34-64-68-37q-8-4-9-12.5t5-14.5l8-8q2-2 14-5l60 8 106-106-188-102q-11-5-12-17t7-20l7-7q5-5 10.5-6.5t11.5.5l251 65 108-108q12-12 29-12t29 12q12 12 12 29t-12 29L600-742l64 250q2 7 .5 13t-6.5 11l-4 4q-9 9-22 7t-19-13L512-654Zm208 454v-120H560v120h160Zm-160 0v-120 120Z"/>
</svg>
