<svg aria-hidden="true" viewBox="0 -960 960 960" fill="currentColor">
  <path d="M200-120q-33 0-56.5-23.5T120-200v-560q0-33 23.5-56.5T200-840h120q17 0 28.5 11.5T360-800q0 17-11.5 28.5T320-760H200v560h120q17 0 28.5 11.5T360-160q0 17-11.5 28.5T320-120H200Zm280 80q-17 0-28.5-11.5T440-80v-800q0-17 11.5-28.5T480-920q17 0 28.5 11.5T520-880v800q0 17-11.5 28.5T480-40Zm120-80v-80h80v80h-80Zm0-640v-80h80v80h-80Zm160 640v-80h80q0 33-23.5 56.5T760-120Zm0-160v-80h80v80h-80Zm0-160v-80h80v80h-80Zm0-160v-80h80v80h-80Zm0-160v-80q33 0 56.5 23.5T840-760h-80Z"/>
</svg>
