<svg aria-hidden="true" viewBox="0 -960 960 960" fill="currentColor">
  <path d="M198.326-111.869q-35.391 0-60.804-25.327-25.413-25.326-25.413-60.891h86.217v86.218Zm-86.217-166.218v-86.217h86.217v86.217h-86.217Zm0-166.217v-86.218h86.217v86.218h-86.217Zm0-166.218v-86.218h86.217v86.218h-86.217Zm166.217 498.653v-86.218h86.218v86.218h-86.218Zm85.978-166.218q-35.63 0-60.804-25.256t-25.174-60.722v-398.087q0-35.631 25.174-60.805t60.804-25.174h397.609q35.466 0 60.722 25.174t25.256 60.805v398.087q0 35.466-25.256 60.722t-60.722 25.256H364.304Zm5.022-91h387.565V-757.13H369.326v388.043Zm75.218 257.218v-86.218h86.217v86.218h-86.217Zm166.217 0v-86.218h86.218v86.218h-86.218Z"/>
</svg>
