<svg aria-hidden="true" viewBox="0 -960 960 960" fill="currentColor">
  <path d="M360-280q-33 0-56.5-23.5T280-360v-400q0-33 23.5-56.5T360-840h400q33 0 56.5 23.5T840-760v400q0 33-23.5 56.5T760-280H360Zm0-80h400v-400H360v400ZM131.5-611.5Q120-623 120-640t11.5-28.5Q143-680 160-680t28.5 11.5Q200-657 200-640t-11.5 28.5Q177-600 160-600t-28.5-11.5Zm0 160Q120-463 120-480t11.5-28.5Q143-520 160-520t28.5 11.5Q200-497 200-480t-11.5 28.5Q177-440 160-440t-28.5-11.5Zm0 160Q120-303 120-320t11.5-28.5Q143-360 160-360t28.5 11.5Q200-337 200-320t-11.5 28.5Q177-280 160-280t-28.5-11.5Zm0 160Q120-143 120-160t11.5-28.5Q143-200 160-200t28.5 11.5Q200-177 200-160t-11.5 28.5Q177-120 160-120t-28.5-11.5Zm160 0Q280-143 280-160t11.5-28.5Q303-200 320-200t28.5 11.5Q360-177 360-160t-11.5 28.5Q337-120 320-120t-28.5-11.5Zm160 0Q440-143 440-160t11.5-28.5Q463-200 480-200t28.5 11.5Q520-177 520-160t-11.5 28.5Q497-120 480-120t-28.5-11.5Zm160 0Q600-143 600-160t11.5-28.5Q623-200 640-200t28.5 11.5Q680-177 680-160t-11.5 28.5Q657-120 640-120t-28.5-11.5Z"/>
</svg>
