<svg aria-hidden="true" viewBox="0 -960 960 960" fill="currentColor">
  <path d="M202.63-111.869q-37.782 0-64.271-26.522-26.49-26.523-26.49-64.239h90.761v90.761Zm-90.761-169.088v-78.326h90.761v78.326h-90.761Zm0-156.891v-78.326h90.761v78.326h-90.761Zm0-156.891v-78.326h90.761v78.326h-90.761Zm169.088 482.87v-90.761h78.326v90.761h-78.326Zm90.761-169.088q-37.783 0-64.272-26.571-26.489-26.571-26.489-64.19V-757.37q0-37.603 26.489-64.182t64.272-26.579H757.37q37.618 0 64.189 26.579 26.572 26.579 26.572 64.182v385.652q0 37.619-26.572 64.19-26.571 26.571-64.189 26.571H371.718Zm0-90.761H757.37V-757.37H371.718v385.652Zm66.13 259.849v-90.761h78.326v90.761h-78.326Zm156.652 0v-90.761h78.565v90.761H594.5Z"/>
</svg>
