<svg aria-hidden="true" viewBox="0 -960 960 960" fill="currentColor">
  <path d="M202.87-111.869q-37.783 0-64.392-26.609-26.609-26.609-26.609-64.392v-554.26q0-37.783 26.609-64.392 26.609-26.609 64.392-26.609H314.5q19.152 0 32.326 13.174T360-802.63q0 19.152-13.174 32.326T314.5-757.13H202.87v554.26H314.5q19.152 0 32.326 13.174T360-157.37q0 19.153-13.174 32.327T314.5-111.869H202.87Zm277.847 79.282q-19.152 0-32.326-13.174t-13.174-32.326v-803.826q0-19.152 13.174-32.326t32.326-13.174q19.153 0 32.327 13.174t13.174 32.326v803.826q0 19.152-13.174 32.326t-32.327 13.174ZM600-111.869v-89.088h79.043v89.088H600Zm0-647.174v-89.088h79.043v89.088H600Zm159.043 647.174v-89.088h89.088q0 36.827-26.131 62.957-26.13 26.131-62.957 26.131Zm0-169.088V-360h89.088v79.043h-89.088Zm0-159.043v-80h89.088v80h-89.088Zm0-160v-79.043h89.088V-600h-89.088Zm0-159.043v-89.088q36.827 0 62.957 26.131 26.131 26.13 26.131 62.957h-89.088Z"/>
</svg>
