<svg aria-hidden="true" viewBox="0 -960 960 960" fill="currentColor">
  <path d="M280-600v-80h80v80h-80Zm0 160v-80h80v80h-80Zm0-320q0-33 23.5-56.5T360-840v80h-80Zm160 480v-80h80v80h-80Zm320-480v-80q33 0 56.5 23.5T840-760h-80Zm-320 0v-80h80v80h-80Zm-80 480q-33 0-56.5-23.5T280-360h80v80Zm400-160v-80h80v80h-80Zm0-160v-80h80v80h-80Zm0 320v-80h80q0 33-23.5 56.5T760-280ZM200-120q-33 0-56.5-23.5T120-200v-440q0-17 11.5-28.5T160-680q17 0 28.5 11.5T200-640v440h440q17 0 28.5 11.5T680-160q0 17-11.5 28.5T640-120H200Zm400-640v-80h80v80h-80Zm0 480v-80h80v80h-80Z"/>
</svg>
