<svg aria-hidden="true" viewBox="0 -960 960 960" fill="currentColor">
  <path d="M277.37-600v-80h88.13v80h-88.13Zm0 160v-80h88.13v80h-88.13Zm0-320q0-36.354 25.888-62.242 25.888-25.889 62.242-25.889V-760h-88.13ZM445.5-271.869V-360h80v88.131h-80ZM765.5-760v-88.131q36.354 0 62.242 25.889 25.889 25.888 25.889 62.242H765.5Zm-320 0v-88.131h80V-760h-80Zm-80 488.131q-36.354 0-62.242-25.889Q277.37-323.646 277.37-360h88.13v88.131ZM765.5-440v-80h88.131v80H765.5Zm0-160v-80h88.131v80H765.5Zm0 328.131V-360h88.131q0 36.348-25.889 62.239-25.888 25.892-62.242 25.892Zm-568.13 171q-37.783 0-64.392-26.609-26.609-26.609-26.609-64.391V-634.5q0-19.152 13.174-32.326T151.869-680q19.153 0 32.327 13.174T197.37-634.5v442.631H640q19.152 0 32.326 13.174t13.174 32.326q0 19.152-13.174 32.326T640-100.869H197.37ZM605.5-760v-88.131h80V-760h-80Zm0 488.131V-360h80v88.131h-80Z"/>
</svg>
