<svg aria-hidden="true" viewBox="0 -960 960 960" fill="currentColor">
  <path d="M347-80q-59 0-77-20t-56-20q-29 0-45 13.5T124-85q-17 5-30.5-7T80-124q0-12 9-24t25-20q19-9 38.5-20.5T214-200q59 0 77 20t56 20q38 0 56-20t77-20q57 0 77.5 20t56.5 20q38 0 56-20t77-20q42 0 61 11.5t38 20.5q16 8 25 19.5t9 24.5q0 20-13.5 31.5T836-86q-29-8-44.5-21T747-120q-37 0-56 20t-77 20q-58 0-77.5-20T480-120q-38 0-56 20t-77 20ZM124-266q-17 5-30.5-7T80-305q0-12 9-23.5t25-19.5q19-9 38-20.5t61-11.5q6 0 12 .5t11 1.5l-38-140-30 40q-11 14-26.5 16t-29.5-9q-14-11-15.5-27.5T106-528l248-307q17-20 42-26.5t49 2.5l369 141q16 6 23.5 21t.5 30q-7 16-22 22.5t-31 .5l-46-19 81 301q7 4 13 7.5t13 6.5q16 7 25 19t9 25q0 20-13.5 31.5T836-266q-29-8-45-21t-44-13q-38 0-56 20t-77 20q-57 0-77.5-20T480-300q-38 0-56 20t-77 20q-57 0-77-20t-56-20q-27 0-44 13t-46 21Zm223-74q30 0 46.5-14t50.5-22l-37-136 155-41 56 212q31-2 49-18.5t65-19.5l-86-321-229-84-157 188 69 254q4 1 8.5 1.5t9.5.5Zm149-222Z"/>
</svg>
