<svg aria-hidden="true" viewBox="0 -960 960 960" fill="currentColor">
  <path d="M347-72.587q-57.326 0-76.522-20-19.195-20-56.478-20-27.565 0-44.043 12.663-16.479 12.663-44.761 20.902-18.435 5.718-33.61-6.402-15.173-12.12-15.173-34.032 0-14.153 9.957-27.348 9.956-13.196 28.347-21.913 19.479-9 39.218-20.142Q173.674-200 214-200q57.565 0 77.12 20 19.554 20 55.88 20 36.326 0 55.88-20 19.555-20 77.12-20 55.565 0 77.5 20 21.935 20 56.5 20 36.326 0 56-20t77-20q40.326 0 59.565 11.261 19.239 11.261 38.718 20.261 18.63 8.717 28.467 21.293 9.837 12.576 9.837 27.729 0 21.434-14.935 33.532-14.935 12.098-33.369 6.38-28.283-8.239-44.381-20.641-16.098-12.402-43.902-12.402-36.522 0-56.478 20-19.957 20-76.522 20-56.326 0-76.902-20t-57.098-20q-37.283 0-56.478 20-19.196 20-76.522 20ZM124.478-263.37q-19.152 5.718-33.608-6.88-14.457-12.598-14.457-34.033 0-13.674 10.196-26.489 10.195-12.815 28.108-21.532 19.24-8.761 38.359-19.903 19.12-11.141 59.446-11.38 5.043 0 9.728.38 4.685.381 8.967 1.142l-34.891-128.522-26.174 34.739q-11.956 14.718-29.011 16.837-17.054 2.12-32.011-9.598-14.956-11.717-16.576-29.771-1.62-18.055 10.098-32.25l245.37-302.696q19.152-22.87 47.5-30.207t55.696 2.859l364.456 138.848q17.435 6.478 25.413 23.032 7.978 16.555.5 32.99-7.478 17.195-23.674 24.293-16.196 7.098-33.63.62L744.5-657.022l79.087 293.109q5.804 3.283 10.728 6.185 4.924 2.902 10.728 5.424 17.674 7.239 28.109 20.434 10.435 13.196 10.435 28.827 0 21.195-14.576 33.413-14.576 12.217-34.207 6.5-27.565-7.761-43.924-20.522-16.358-12.761-43.88-12.761-37.283 0-56.478 20-19.196 20-76.522 20-55.565 0-76.902-20-21.337-20-57.098-20-37.283 0-56.478 20-19.196 20-76.522 20-55.565 0-76.402-20-20.837-20-56.598-20-26.043 0-43.522 12.402-17.478 12.402-46 20.641Zm493.044-81.217L559.13-563.522l-155 41 38.913 142.935q8.24-2 16.979-3 8.739-1 19.978-1 56.283 0 80.783 21.402t56.739 17.598Z"/>
</svg>
