<svg aria-hidden="true" viewBox="0 -960 960 960" fill="currentColor">
  <path d="M280-520h120q17 0 28.5-11.5T440-560q0-17-11.5-28.5T400-600H280q-17 0-28.5 11.5T240-560q0 17 11.5 28.5T280-520ZM160-160q-33 0-56.5-23.5T80-240v-480q0-33 23.5-56.5T160-800h640q26 0 47 15.5t29 39.5q-17-8-36.5-11.5T800-760q-83 0-141.5 58.5T600-560q0 22 4 42t12 38h-56q-50 0-85 35t-35 85v40q-38 27-59 68.5T360-160H160Zm400 40q17 0 28.5-11.5T600-160q0-17-11.5-28.5T560-200q-17 0-28.5 11.5T520-160q0 17 11.5 28.5T560-120Zm240-400q17 0 28.5-11.5T840-560q0-17-11.5-28.5T800-600q-17 0-28.5 11.5T760-560q0 17 11.5 28.5T800-520ZM560-40q-50 0-85-35t-35-85q0-39 22.5-70t57.5-43v-87q0-17 11.5-28.5T560-400h200v-47q-35-12-57.5-43T680-560q0-50 35-85t85-35q50 0 85 35t35 85q0 39-22.5 70T840-447v87q0 17-11.5 28.5T800-320H600v47q35 12 57.5 43t22.5 70q0 50-35 85t-85 35ZM400-360q17 0 28.5-11.5T440-400q0-17-11.5-28.5T400-440H280q-17 0-28.5 11.5T240-400q0 17 11.5 28.5T280-360h120Z"/>
</svg>
