<svg aria-hidden="true" viewBox="0 -960 960 960" fill="currentColor">
  <path d="M508.5-531.5Q520-543 520-560v-120q0-17-11.5-28.5T480-720q-17 0-28.5 11.5T440-680v120q0 17 11.5 28.5T480-520q17 0 28.5-11.5ZM480-360q17 0 28.5-11.5T520-400q0-17-11.5-28.5T480-440q-17 0-28.5 11.5T440-400q0 17 11.5 28.5T480-360Zm-28 248q-14-5-25-15-65-60-115-117t-83.5-110.5q-33.5-53.5-51-103T160-552q0-150 96.5-239T480-880q127 0 223.5 89T800-552q0 45-17.5 94.5t-51 103Q698-301 648-244T533-127q-11 10-25 15t-28 5q-14 0-28-5Z"/>
</svg>
