<svg aria-hidden="true" viewBox="0 -960 960 960" fill="currentColor">
  <path d="M888.131-633.543H325.239q-65.108 0-113.739 40.913-48.63 40.913-48.63 103.782v247.174l75.413-247.695q9.195-29.109 33.326-46.642 24.13-17.532 53.956-17.532h497.348q46.5 0 73.467 37.163 26.968 37.163 13.816 80.663l-64.348 212.26q-10.87 34.37-36.554 52.979-25.685 18.609-60.533 18.609H162.87q-37.783 0-64.392-26.609Q71.87-205.087 71.87-242.87v-474.26q0-38.022 26.61-64.511 26.608-26.49 64.391-26.49H358.87q18.153 0 34.685 6.837 16.533 6.837 29.207 19.511L480-724.544h317.13q38.022 0 64.511 26.609 26.49 26.609 26.49 64.392Z"/>
</svg>
