<svg aria-hidden="true" viewBox="0 -960 960 960" fill="currentColor">
  <path d="M160-160q-33 0-56.5-23.5T80-240v-480q0-33 23.5-56.5T160-800h240l80 80h320q33 0 56.5 23.5T880-640v87q0 23-21 33.5t-41-3.5q-32-18-67-27.5t-72-9.5q-116 0-197.5 81.5T400-281q0 18 2 35.5t7 34.5q5 19-6 35t-30 16H160Zm378.5 21.5Q480-197 480-280t58.5-141.5Q597-480 680-480t141.5 58.5Q880-363 880-280t-58.5 141.5Q763-80 680-80t-141.5-58.5ZM694-166q6-6 6-14v-120q0-8-6-14t-14-6q-8 0-14 6t-6 14v120q0 8 6 14t14 6q8 0 14-6Zm0-200q6-6 6-14t-6-14q-6-6-14-6t-14 6q-6 6-6 14t6 14q6 6 14 6t14-6Z"/>
</svg>
