<svg aria-hidden="true" viewBox="0 -960 960 960" fill="currentColor">
  <path d="M600-160q-17 0-28.5-11.5T560-200q0-31 44-55.5T720-280q72 0 116 24.5t44 55.5q0 17-11.5 28.5T840-160H600Zm63.5-183.5Q640-367 640-400t23.5-56.5Q687-480 720-480t56.5 23.5Q800-433 800-400t-23.5 56.5Q753-320 720-320t-56.5-23.5ZM160-240v-480 172-12 320Zm0 80q-33 0-56.5-23.5T80-240v-480q0-33 23.5-56.5T160-800h207q16 0 30.5 6t25.5 17l57 57h320q33 0 56.5 23.5T880-640v80q0 17-11.5 28.5T840-520q-17 0-28.5-11.5T800-560v-80H447l-80-80H160v480h280q17 0 28.5 11.5T480-200q0 17-11.5 28.5T440-160H160Z"/>
</svg>
