<svg aria-hidden="true" viewBox="0 -960 960 960" fill="currentColor">
  <path d="M615-490.5Q685-501 745-520q20-8 37.5 5t17.5 34v286q0 25-14.5 45.5T748-120q-57 19-127.5 29.5T480-80q-70 0-140.5-10.5T212-120q-23-9-37.5-29.5T160-195v-286q0-21 17.5-34t37.5-5q60 19 130 29.5T480-480q65 0 135-10.5ZM720-200v-230q-50 14-115.5 22T480-400q-59 0-124.5-8T240-430v230q50 18 115 29t125 11q60 0 125-11t115-29ZM593-833q47 47 47 113t-47 113q-47 47-113 47t-113-47q-47-47-47-113t47-113q47-47 113-47t113 47Zm-56.5 169.5Q560-687 560-720t-23.5-56.5Q513-800 480-800t-56.5 23.5Q400-753 400-720t23.5 56.5Q447-640 480-640t56.5-23.5ZM480-720Zm0 425Z"/>
</svg>
