<svg aria-hidden="true" viewBox="0 -960 960 960" fill="currentColor">
  <path d="M280-240H73q-24 0-35-21t2-41l114-178q-24 0-34-21.5t4-41.5l203-290q12-17 33-17t33 17l87 125 87-125q12-17 33-17t33 17l203 290q14 20 4 41.5T806-480l114 178q13 20 2 41t-35 21H680v80q0 33-23.5 56.5T600-80q-33 0-56.5-23.5T520-160v-80h-80v80q0 33-23.5 56.5T360-80q-33 0-56.5-23.5T280-160v-80Zm389-80h145L659-560h67L600-740l-71 101 67 96q14 20 4 41.5T566-480l103 160Zm-523 0h428L419-560h67L360-740 234-560h67L146-320Zm0 0h155-67 252-67 155-428Zm523 0H566h34-71 197-67 155-145Zm-149 80h160-160Zm127 0Z"/>
</svg>
