<svg aria-hidden="true" viewBox="0 -960 960 960" fill="currentColor">
  <path d="M272.587-231.869H64.869q-27.368 0-39.912-23.87t2.369-46.739l108.978-169.391q-24.239-3.348-32.087-26.761-7.848-23.413 6.87-44.848l207.782-296.935q13.595-19.392 37.385-19.392 23.789 0 37.463 19.392L480-716.848l86.283-123.565q13.594-19.392 37.384-19.392t37.464 19.392l207.782 296.935q14.718 21.435 6.87 44.848t-32.087 26.761l109.217 169.391q14.913 22.869 2.239 46.739-12.673 23.87-40.021 23.87H687.413v76.173q0 34.435-24.695 59.13-24.696 24.697-59.163 24.697-34.466 0-59.011-24.696Q520-121.261 520-155.696v-76.173h-80v76.173q0 34.435-24.544 59.13-24.545 24.697-59.011 24.697-34.467 0-59.163-24.696-24.695-24.696-24.695-59.131v-76.173Zm400-91.001H811.37l-155.957-240h68.674l-120.5-172.108-67.891 96.695 66.043 94.805q14.718 21.435 6.75 44.848-7.967 23.413-32.206 26.761l96.304 148.999Zm-523.957 0h415.565l-155.956-240h68.674l-120.5-172.108-120.5 172.108h68.674l-155.957 240Zm0 0h155.957-68.674 241-68.674 155.956H148.63Zm523.957 0h-96.304 32.206-72.793 188.391-68.674H811.37 672.587ZM520-231.869h167.413H520Zm127.957 0Z"/>
</svg>
