<svg aria-hidden="true" viewBox="0 -960 960 960" fill="currentColor">
  <path d="M600-80q-33 0-56.5-23.5T520-160v-40h160v40q0 33-23.5 56.5T600-80Zm-240 0q-33 0-56.5-23.5T280-160v-80H73q-24 0-35-21t2-41l114-178q-24 0-34-21.5t4-41.5l203-290q12-17 33-17t33 17l203 290q14 20 4 41.5T566-480l114 178q11 17 .5 39.5T647-240H440v80q0 33-23.5 56.5T360-80Zm355-160q10-10 13.5-33.5T720-316l-95-149q15-14 19-43.5T632-561L505-743l62-90q12-17 33-17t33 17l203 290q14 20 4 41.5T806-480l114 178q13 20 2 41t-35 21H715Z"/>
</svg>
