<svg aria-hidden="true" viewBox="0 -960 960 960" fill="currentColor">
  <path d="M603.587-71.87q-34.435 0-59.011-24.695Q520-121.261 520-155.696v-37.608h167.413v37.608q0 34.435-24.695 59.13-24.696 24.697-59.131 24.697Zm-247.174 0q-34.435 0-59.131-24.695-24.695-24.696-24.695-59.131v-76.173H64.869q-27.347 0-39.902-23.87-12.554-23.87 2.359-46.739l108.978-169.391q-24.239-3.348-32.087-26.761-7.848-23.413 6.87-44.848l207.782-296.935q13.674-19.392 37.424-19.392t37.424 19.392l208.022 296.935q14.718 21.435 6.75 44.848-7.967 23.413-32.206 26.761L685.5-302.478q12.674 19.391.859 45t-38.402 25.609H440v76.173q0 34.435-24.576 59.13-24.576 24.697-59.011 24.697Zm365.761-159.999q11.913-12.87 15.891-39.001 3.979-26.13-9.934-47.76l-89.979-140.392q14.522-14.717 17.685-46.369 3.163-31.652-14.75-57.522L507.152-755.196l59.131-85.217q13.674-19.392 37.424-19.392t37.424 19.392l207.782 296.935q14.718 21.435 6.87 44.848t-32.087 26.761l109.217 169.391q14.913 22.869 2.239 46.739-12.673 23.87-40.021 23.87H722.174Z"/>
</svg>
