<svg aria-hidden="true" viewBox="0 -960 960 960" fill="currentColor">
  <path d="M160-120q-50 0-85-35t-35-85q0-26 10-49.5T80-330v-150q0-17 11.5-28.5T120-520h40v-200q0-17 11.5-28.5T200-760h227q24 0 44 13t30 36l167 394q6 14 9 28t3 29q0 58-41 99t-99 41q-41 0-75.5-21.5T413-200H273q-13 36-44 58t-69 22Zm720-40H760q-17 0-28.5-11.5T720-200v-560q0-17 11.5-28.5T760-800q17 0 28.5 11.5T800-760v520h80q17 0 28.5 11.5T920-200q0 17-11.5 28.5T880-160Zm-691.5-51.5Q200-223 200-240t-11.5-28.5Q177-280 160-280t-28.5 11.5Q120-257 120-240t11.5 28.5Q143-200 160-200t28.5-11.5Zm394-6Q600-235 600-260t-17.5-42.5Q565-320 540-320t-42.5 17.5Q480-285 480-260t17.5 42.5Q515-200 540-200t42.5-17.5ZM357-400h189L427-680H240v160l117 120Z"/>
</svg>
