<svg aria-hidden="true" viewBox="0 -960 960 960" fill="currentColor">
  <path d="M251.5-91.5Q240-103 240-120v-326q-54-14-87-57t-33-97v-240q0-17 11.5-28.5T160-880q17 0 28.5 11.5T200-840v200h40v-200q0-17 11.5-28.5T280-880q17 0 28.5 11.5T320-840v200h40v-200q0-17 11.5-28.5T400-880q17 0 28.5 11.5T440-840v240q0 54-33 97t-87 57v326q0 17-11.5 28.5T280-80q-17 0-28.5-11.5Zm400 0Q640-103 640-120v-341q-54-18-87-75.5T520-667q0-89 47-151t113-62q66 0 113 62.5T840-666q0 73-33 130t-87 75v341q0 17-11.5 28.5T680-80q-17 0-28.5-11.5Z"/>
</svg>
