<svg aria-hidden="true" viewBox="0 -960 960 960" fill="currentColor">
  <path d="M560-120q-17 0-28.5-11.5T520-160q0-17 11.5-28.5T560-200h113l-92-65q-14-10-16.5-25.5T571-320q9-14 25-16.5t30 6.5l93 64-39-106q-6-15 1-30t23-21q16-6 31 1t21 23l38 106 30-109q5-16 18.5-24.5T872-430q16 5 25 18.5t4 29.5l-62 232q-4 14-14.5 22t-24.5 8H560ZM320-240q-17 0-28.5-11.5T280-280q0-17 11.5-28.5T320-320h123q-3 21-2.5 40t3.5 40H320Zm0-160q-17 0-28.5-11.5T280-440q0-17 11.5-28.5T320-480h226q-23 16-41.5 36T472-400H320Zm0-160q-17 0-28.5-11.5T280-600q0-17 11.5-28.5T320-640h400q17 0 28.5 11.5T760-600q0 17-11.5 28.5T720-560H320Zm0-160q-17 0-28.5-11.5T280-760q0-17 11.5-28.5T320-800h400q17 0 28.5 11.5T760-760q0 17-11.5 28.5T720-720H320Zm-160 0q-17 0-28.5-11.5T120-760q0-17 11.5-28.5T160-800q17 0 28.5 11.5T200-760q0 17-11.5 28.5T160-720Zm0 160q-17 0-28.5-11.5T120-600q0-17 11.5-28.5T160-640q17 0 28.5 11.5T200-600q0 17-11.5 28.5T160-560Zm0 160q-17 0-28.5-11.5T120-440q0-17 11.5-28.5T160-480q17 0 28.5 11.5T200-440q0 17-11.5 28.5T160-400Zm0 160q-17 0-28.5-11.5T120-280q0-17 11.5-28.5T160-320q17 0 28.5 11.5T200-280q0 17-11.5 28.5T160-240Z"/>
</svg>
