<svg aria-hidden="true" viewBox="0 -960 960 960" fill="currentColor">
  <path d="M400-290q-16 0-30.5-6T343-313L153-503q-11-12-17-26.5t-6-30.5q0-16 6-31t17-26l190-191-68-68q-11-11-11-27.5t12-28.5q12-11 28-11.5t28 11.5l315 315q12 11 17.5 26t5.5 31q0 16-5.5 30.5T647-503L457-313q-11 11-26 17t-31 6Zm0-461L209-560h382L400-751Zm360 471q-33 0-56.5-23.5T680-360q0-21 12.5-45t27.5-45q9-12 19-25t21-25q11 12 21 25t19 25q15 21 27.5 45t12.5 45q0 33-23.5 56.5T760-280ZM160 0q-33 0-56.5-23.5T80-80q0-33 23.5-56.5T160-160h640q33 0 56.5 23.5T880-80q0 33-23.5 56.5T800 0H160Z"/>
</svg>
