<svg aria-hidden="true" viewBox="0 -960 960 960" fill="currentColor">
  <path d="M560-120q-17 0-28.5-11.5T520-160q0-17 11.5-28.5T560-200h113l-92-65q-14-10-16.5-25.5T571-320q9-14 25-16.5t30 6.5l93 64-39-106q-6-15 1-30t23-21q16-6 31 1t21 23l38 106 30-109q5-16 18.5-24.5T872-430q16 5 25 18.5t4 29.5l-62 232q-4 14-14.5 22t-24.5 8H560ZM320-240q-17 0-28.5-11.5T280-280q0-17 11.5-28.5T320-320h100q17 0 28.5 11.5T460-280q0 17-11.5 28.5T420-240H320Zm0-160q-17 0-28.5-11.5T280-440q0-17 11.5-28.5T320-480h100q17 0 28.5 11.5T460-440q0 17-11.5 28.5T420-400H320Zm0-160q-17 0-28.5-11.5T280-600q0-17 11.5-28.5T320-640h400q17 0 28.5 11.5T760-600q0 17-11.5 28.5T720-560H320Zm0-160q-17 0-28.5-11.5T280-760q0-17 11.5-28.5T320-800h400q17 0 28.5 11.5T760-760q0 17-11.5 28.5T720-720H320Zm-188.5-11.5Q120-743 120-760t11.5-28.5Q143-800 160-800t28.5 11.5Q200-777 200-760t-11.5 28.5Q177-720 160-720t-28.5-11.5Zm0 160Q120-583 120-600t11.5-28.5Q143-640 160-640t28.5 11.5Q200-617 200-600t-11.5 28.5Q177-560 160-560t-28.5-11.5Zm0 160Q120-423 120-440t11.5-28.5Q143-480 160-480t28.5 11.5Q200-457 200-440t-11.5 28.5Q177-400 160-400t-28.5-11.5Zm0 160Q120-263 120-280t11.5-28.5Q143-320 160-320t28.5 11.5Q200-297 200-280t-11.5 28.5Q177-240 160-240t-28.5-11.5Z"/>
</svg>
