<svg aria-hidden="true" viewBox="0 -960 960 960" fill="currentColor">
  <path d="M651.5-132.5Q640-144 640-161v-80h-80q-17 0-28.5-11.5T520-281q0-17 11.5-28.5T560-321h80v-80q0-17 11.5-28.5T680-441q17 0 28.5 11.5T720-401v80h80q17 0 28.5 11.5T840-281q0 17-11.5 28.5T800-241h-80v80q0 17-11.5 28.5T680-121q-17 0-28.5-11.5ZM320-240q-17 0-28.5-11.5T280-280q0-17 11.5-28.5T320-320h100q17 0 28.5 11.5T460-280q0 17-11.5 28.5T420-240H320Zm0-160q-17 0-28.5-11.5T280-440q0-17 11.5-28.5T320-480h100q17 0 28.5 11.5T460-440q0 17-11.5 28.5T420-400H320Zm0-160q-17 0-28.5-11.5T280-600q0-17 11.5-28.5T320-640h400q17 0 28.5 11.5T760-600q0 17-11.5 28.5T720-560H320Zm0-160q-17 0-28.5-11.5T280-760q0-17 11.5-28.5T320-800h400q17 0 28.5 11.5T760-760q0 17-11.5 28.5T720-720H320Zm-188.5-11.5Q120-743 120-760t11.5-28.5Q143-800 160-800t28.5 11.5Q200-777 200-760t-11.5 28.5Q177-720 160-720t-28.5-11.5Zm0 160Q120-583 120-600t11.5-28.5Q143-640 160-640t28.5 11.5Q200-617 200-600t-11.5 28.5Q177-560 160-560t-28.5-11.5Zm0 160Q120-423 120-440t11.5-28.5Q143-480 160-480t28.5 11.5Q200-457 200-440t-11.5 28.5Q177-400 160-400t-28.5-11.5Zm0 160Q120-263 120-280t11.5-28.5Q143-320 160-320t28.5 11.5Q200-297 200-280t-11.5 28.5Q177-240 160-240t-28.5-11.5Z"/>
</svg>
