<svg aria-hidden="true" viewBox="0 -960 960 960" fill="currentColor">
  <path d="m770-304-62-60q6-17 9-34.5t3-37.5q0-47-17.5-89T650-600L480-768l-88 86-56-56 102-101q9-9 20-13t22-4q11 0 22 4.5t20 12.5l184 181q44 42 69 99.5T800-436q0 36-8 69t-22 63ZM480-120q-133 0-226.5-92.5T160-436q0-51 16-98t48-90L84-764q-11-11-11-28t11-28q11-11 28-11t28 11l680 680q11 11 11 28t-11 28q-11 11-28 11t-28-11l-96-96q-41 29-88 44.5T480-120Zm0-80q36 0 68.5-10t61.5-28L280-566q-21 32-30.5 64t-9.5 66q0 98 70 167t170 69Zm-37-204Zm110-116Z"/>
</svg>
