<svg aria-hidden="true" viewBox="0 -960 960 960" fill="currentColor">
  <path d="M171.5-171.5Q160-183 160-200v-560q0-17 11.5-28.5T200-800q17 0 28.5 11.5T240-760v560q0 17-11.5 28.5T200-160q-17 0-28.5-11.5Zm320-440Q480-623 480-640v-120q0-17 11.5-28.5T520-800q17 0 28.5 11.5T560-760v120q0 17-11.5 28.5T520-600q-17 0-28.5-11.5ZM687-367q-12 12-28.5 12T630-367q-12-12-12-28t12-28l17-17H360q-17 0-28.5-11.5T320-480q0-17 11.5-28.5T360-520h287l-17-17q-12-12-12-28t12-28q12-12 28.5-12t28.5 12l85 85q12 12 12 28t-12 28l-85 85ZM491.5-171.5Q480-183 480-200v-120q0-17 11.5-28.5T520-360q17 0 28.5 11.5T560-320v120q0 17-11.5 28.5T520-160q-17 0-28.5-11.5Z"/>
</svg>
