<svg aria-hidden="true" viewBox="0 -960 960 960" fill="currentColor">
  <path d="M400-278.282q-17.196 0-33.13-6.359-15.935-6.359-28.892-18.554L150.609-490.804q-12.196-12.957-18.555-28.772-6.358-15.815-6.358-33.011 0-17.435 6.358-33.63 6.359-16.196 18.555-28.392l187.369-188.13-65.369-65.37q-12.196-12.195-12.316-30.25-.119-18.054 13.077-31.011 12.956-12.434 30.63-12.695 17.674-.261 30.63 12.695l314.761 314.761q12.957 12.196 19.055 28.392 6.098 16.195 6.098 33.63 0 17.196-6.098 33.011-6.098 15.815-19.055 28.772L462.022-303.195Q449.826-291 433.63-284.641q-16.195 6.359-33.63 6.359Zm.239-462.196-186.217 185.5h371.956l-185.739-185.5Zm364.783 470.283q-34.196 0-58.294-24.098t-24.098-58.294q0-21.478 12.979-46.195 12.978-24.718 28.456-46.196 9.479-12.478 19.479-25.718 10-13.239 21.478-25.717 11.478 12.478 21.837 25.717 10.359 13.24 19.837 25.718 15.478 21.478 28.217 46.196 12.739 24.717 12.739 46.195 0 34.196-24.217 58.294t-58.413 24.098ZM161.913 0q-33.956 0-57.935-23.978Q80-47.956 80-81.913t23.978-57.815q23.979-23.859 57.935-23.859h636.174q33.956 0 57.935 23.859Q880-115.87 880-81.913q0 33.956-23.978 57.935Q832.043 0 798.087 0H161.913Z"/>
</svg>
