<svg aria-hidden="true" viewBox="0 -960 960 960" fill="currentColor">
  <path d="M441.913-68.282q-36.354 0-62.242-25.889-25.889-25.888-25.889-62.242v-155.456H244.783q-37.783 0-64.392-26.609-26.609-26.609-26.609-64.392v-270.434q0-75.326 51.544-126.87 51.544-51.544 126.87-51.544h474.022v448.848q0 37.783-26.609 64.392-26.609 26.609-64.392 26.609H606.218v155.456q0 36.354-25.889 62.242-25.888 25.889-62.242 25.889h-76.174ZM244.783-562.87h470.434v-197.847h-40v114.021q0 17-11.5 28.5t-28.5 11.5q-17 0-28.5-11.5t-11.5-28.5v-114.021h-40v40q0 17-11.5 28.5t-28.5 11.5q-17 0-28.5-11.5t-11.5-28.5v-40H332.196q-37.783 0-62.598 24.815-24.815 24.815-24.815 62.598v110.434Z"/>
</svg>
