<svg aria-hidden="true" viewBox="0 -960 960 960" fill="currentColor">
  <path d="M189.478-149.717q-19.152 0-32.326-13.174t-13.174-32.326v-560q0-19.153 13.174-32.326 13.174-13.174 32.326-13.174t32.326 13.174q13.174 13.173 13.174 32.326v560q0 19.152-13.174 32.326t-32.326 13.174Zm582.001 0q-19.153 0-32.327-13.174t-13.174-32.326v-560q0-19.153 13.174-32.326 13.174-13.174 32.327-13.174 19.152 0 32.326 13.174 13.174 13.173 13.174 32.326v560q0 19.152-13.174 32.326t-32.326 13.174ZM396.196-270.5l-87.87-88.108q-13.674-13.674-13.674-31.946 0-18.272 13.674-31.946l87.87-87.87q13.195-13.195 31.489-13.195 18.293 0 31.489 13.195 13.196 13.196 13.196 31.109 0 17.913-13.196 31.109l-13.413 13.413h71.13q33.239 0 56.859-23.62 23.62-23.619 23.62-56.858t-23.62-56.859q-23.62-23.62-56.859-23.62H319.043q-18.673 0-31.369-12.815-12.696-12.815-12.696-31.489t12.815-31.489q12.816-12.815 31.49-12.815h197.608q69.826 0 119.457 49.63 49.63 49.631 49.63 119.457t-49.63 119.456q-49.631 49.631-119.457 49.631h-71.13l13.413 13.413q13.196 13.196 13.196 30.989 0 17.794-13.196 30.989-13.196 13.196-31.489 13.315-18.294.12-31.489-13.076Z"/>
</svg>
