<svg aria-hidden="true" viewBox="0 -960 960 960" fill="currentColor">
  <path d="M800-120H160q-17 0-28.5-11.5T120-160q0-17 11.5-28.5T160-200h640q17 0 28.5 11.5T840-160q0 17-11.5 28.5T800-120ZM208.5-291.5Q197-280 180-280h-20q-17 0-28.5-11.5T120-320q0-17 11.5-28.5T160-360h20q17 0 28.5 11.5T220-320q0 17-11.5 28.5ZM320-280q-17 0-28.5-11.5T280-320v-320q0-17 11.5-28.5T320-680h320q17 0 28.5 11.5T680-640v320q0 17-11.5 28.5T640-280H320Zm480 0h-20q-17 0-28.5-11.5T740-320q0-17 11.5-28.5T780-360h20q17 0 28.5 11.5T840-320q0 17-11.5 28.5T800-280Zm-440-80h240v-240H360v240Zm-151.5-91.5Q197-440 180-440h-20q-17 0-28.5-11.5T120-480q0-17 11.5-28.5T160-520h20q17 0 28.5 11.5T220-480q0 17-11.5 28.5ZM800-440h-20q-17 0-28.5-11.5T740-480q0-17 11.5-28.5T780-520h20q17 0 28.5 11.5T840-480q0 17-11.5 28.5T800-440ZM208.5-611.5Q197-600 180-600h-20q-17 0-28.5-11.5T120-640q0-17 11.5-28.5T160-680h20q17 0 28.5 11.5T220-640q0 17-11.5 28.5ZM800-600h-20q-17 0-28.5-11.5T740-640q0-17 11.5-28.5T780-680h20q17 0 28.5 11.5T840-640q0 17-11.5 28.5T800-600Zm0-160H160q-17 0-28.5-11.5T120-800q0-17 11.5-28.5T160-840h640q17 0 28.5 11.5T840-800q0 17-11.5 28.5T800-760ZM480-480Z"/>
</svg>
