<svg aria-hidden="true" viewBox="0 -960 960 960" fill="currentColor">
  <path d="M280-280h80q17 0 28.5 11.5T400-240q0 17-11.5 28.5T360-200H240q-17 0-28.5-11.5T200-240v-120q0-17 11.5-28.5T240-400q17 0 28.5 11.5T280-360v80Zm0-400v80q0 17-11.5 28.5T240-560q-17 0-28.5-11.5T200-600v-120q0-17 11.5-28.5T240-760h120q17 0 28.5 11.5T400-720q0 17-11.5 28.5T360-680h-80Zm400 400v-80q0-17 11.5-28.5T720-400q17 0 28.5 11.5T760-360v120q0 17-11.5 28.5T720-200H600q-17 0-28.5-11.5T560-240q0-17 11.5-28.5T600-280h80Zm0-400h-80q-17 0-28.5-11.5T560-720q0-17 11.5-28.5T600-760h120q17 0 28.5 11.5T760-720v120q0 17-11.5 28.5T720-560q-17 0-28.5-11.5T680-600v-80Z"/>
</svg>
