<svg aria-hidden="true" viewBox="0 -960 960 960" fill="currentColor">
  <path d="M320-320h-80q-17 0-28.5-11.5T200-360q0-17 11.5-28.5T240-400h120q17 0 28.5 11.5T400-360v120q0 17-11.5 28.5T360-200q-17 0-28.5-11.5T320-240v-80Zm320 0v80q0 17-11.5 28.5T600-200q-17 0-28.5-11.5T560-240v-120q0-17 11.5-28.5T600-400h120q17 0 28.5 11.5T760-360q0 17-11.5 28.5T720-320h-80ZM320-640v-80q0-17 11.5-28.5T360-760q17 0 28.5 11.5T400-720v120q0 17-11.5 28.5T360-560H240q-17 0-28.5-11.5T200-600q0-17 11.5-28.5T240-640h80Zm320 0h80q17 0 28.5 11.5T760-600q0 17-11.5 28.5T720-560H600q-17 0-28.5-11.5T560-600v-120q0-17 11.5-28.5T600-760q17 0 28.5 11.5T640-720v80Z"/>
</svg>
