<svg aria-hidden="true" viewBox="0 -960 960 960" fill="currentColor">
  <path d="M281.913-281.913H360q19.152 0 32.326 13.174t13.174 32.326q0 19.152-13.174 32.326T360-190.913H236.413q-19.152 0-32.326-13.174t-13.174-32.326V-360q0-19.152 13.174-32.326t32.326-13.174q19.152 0 32.326 13.174T281.913-360v78.087Zm0-396.174V-600q0 19.152-13.174 32.326T236.413-554.5q-19.152 0-32.326-13.174T190.913-600v-123.587q0-19.152 13.174-32.326t32.326-13.174H360q19.152 0 32.326 13.174t13.174 32.326q0 19.152-13.174 32.326T360-678.087h-78.087Zm396.174 396.174V-360q0-19.152 13.174-32.326t32.326-13.174q19.152 0 32.326 13.174T769.087-360v123.587q0 19.152-13.174 32.326t-32.326 13.174H600q-19.152 0-32.326-13.174T554.5-236.413q0-19.152 13.174-32.326T600-281.913h78.087Zm0-396.174H600q-19.152 0-32.326-13.174T554.5-723.587q0-19.152 13.174-32.326T600-769.087h123.587q19.152 0 32.326 13.174t13.174 32.326V-600q0 19.152-13.174 32.326T723.587-554.5q-19.152 0-32.326-13.174T678.087-600v-78.087Z"/>
</svg>
