<svg aria-hidden="true" viewBox="0 -960 960 960" fill="currentColor">
  <path d="M314.5-314.5h-78.087q-19.152 0-32.326-13.174T190.913-360q0-19.152 13.174-32.326t32.326-13.174H360q19.152 0 32.326 13.174T405.5-360v123.587q0 19.152-13.174 32.326T360-190.913q-19.152 0-32.326-13.174T314.5-236.413V-314.5Zm331 0v78.087q0 19.152-13.174 32.326T600-190.913q-19.152 0-32.326-13.174T554.5-236.413V-360q0-19.152 13.174-32.326T600-405.5h123.587q19.152 0 32.326 13.174T769.087-360q0 19.152-13.174 32.326T723.587-314.5H645.5Zm-331-331v-78.087q0-19.152 13.174-32.326T360-769.087q19.152 0 32.326 13.174t13.174 32.326V-600q0 19.152-13.174 32.326T360-554.5H236.413q-19.152 0-32.326-13.174T190.913-600q0-19.152 13.174-32.326t32.326-13.174H314.5Zm331 0h78.087q19.152 0 32.326 13.174T769.087-600q0 19.152-13.174 32.326T723.587-554.5H600q-19.152 0-32.326-13.174T554.5-600v-123.587q0-19.152 13.174-32.326T600-769.087q19.152 0 32.326 13.174t13.174 32.326v78.087Z"/>
</svg>
