<svg aria-hidden="true" viewBox="0 -960 960 960" fill="currentColor">
  <path d="M707-444.5Q800-491 800-557t-93-112.5Q614-716 480-716t-227 46.5Q160-623 160-557t93 112.5Q346-398 480-398t227-46.5ZM680-346v106q0 33-23.5 56.5T600-160H360q-33 0-56.5-23.5T280-240v-106q-91-32-145.5-87.5T80-557q0-101 116.5-172T480-800q167 0 283.5 71T880-557q0 68-54.5 123.5T680-346ZM480-557Zm-39 97q6-6 6-14v-52h28l46 64q2 4 6 6t9 2q12 0 17.5-11t-2.5-20l-37-47q20-7 30.5-21.5T555-590q0-30-19.5-47T485-654h-58q-8 0-14 6t-6 14v160q0 8 6 14t14 6q8 0 14-6Zm6-96v-63h31q16 0 26 8.5t10 23.5q0 16-10 23.5t-27 7.5h-30Z"/>
</svg>
