<svg aria-hidden="true" viewBox="0 -960 960 960" fill="currentColor">
  <path d="M381-641q-41-41-41-99t41-99q41-41 99-41t99 41q41 41 41 99t-41 99q-41 41-99 41t-99-41Zm0 520q-41-41-41-99t41-99q41-41 99-41t99 41q41 41 41 99t-41 99q-41 41-99 41t-99-41Zm141.5-56.5Q540-195 540-220t-17.5-42.5Q505-280 480-280t-42.5 17.5Q420-245 420-220t17.5 42.5Q455-160 480-160t42.5-17.5ZM740-340q-58 0-99-41t-41-99q0-58 41-99t99-41q58 0 99 41t41 99q0 58-41 99t-99 41Zm0-80q25 0 42.5-17.5T800-480q0-25-17.5-42.5T740-540q-25 0-42.5 17.5T680-480q0 25 17.5 42.5T740-420Zm-520 80q-58 0-99-41t-41-99q0-58 41-99t99-41q58 0 99 41t41 99q0 58-41 99t-99 41Zm0-80q25 0 42.5-17.5T280-480q0-25-17.5-42.5T220-540q-25 0-42.5 17.5T160-480q0 25 17.5 42.5T220-420Z"/>
</svg>
