<svg aria-hidden="true" viewBox="0 -960 960 960" fill="currentColor">
  <path d="M121-381q-41-41-41-99t41-99q41-41 99-41t99 41q41 41 41 99t-41 99q-41 41-99 41t-99-41Zm520 0q-41-41-41-99t41-99q41-41 99-41t99 41q41 41 41 99t-41 99q-41 41-99 41t-99-41Zm141.5-56.5Q800-455 800-480t-17.5-42.5Q765-540 740-540t-42.5 17.5Q680-505 680-480t17.5 42.5Q715-420 740-420t42.5-17.5ZM381-641q-41-41-41-99t41-99q41-41 99-41t99 41q41 41 41 99t-41 99q-41 41-99 41t-99-41Zm141.5-56.5Q540-715 540-740t-17.5-42.5Q505-800 480-800t-42.5 17.5Q420-765 420-740t17.5 42.5Q455-680 480-680t42.5-17.5ZM381-121q-41-41-41-99t41-99q41-41 99-41t99 41q41 41 41 99t-41 99q-41 41-99 41t-99-41Zm141.5-56.5Q540-195 540-220t-17.5-42.5Q505-280 480-280t-42.5 17.5Q420-245 420-220t17.5 42.5Q455-160 480-160t42.5-17.5Z"/>
</svg>
