<svg aria-hidden="true" viewBox="0 -960 960 960" fill="currentColor">
  <path d="M300-240v-360h360v360-360H300v360Zm-60-366v366h60v-320q0-17 11.5-28.5T340-600h280q17 0 28.5 11.5T660-560v320h60v-366L480-780 240-606Zm120 126h240v-60H360v60Zm120-160q17 0 28.5-11.5T520-680q0-17-11.5-28.5T480-720q-17 0-28.5 11.5T440-680q0 17 11.5 28.5T480-640ZM240-160q-33 0-56.5-23.5T160-240v-320h-59q-14 0-19-14t7-22l344-250q21-15 47-15t47 15l344 250q12 8 7 22t-19 14h-59v320q0 33-23.5 56.5T720-160h-80q-17 0-28.5-11.5T600-200v-220H360v220q0 17-11.5 28.5T320-160h-80Z"/>
</svg>
