<svg aria-hidden="true" viewBox="0 -960 960 960" fill="currentColor">
  <path d="M160-80q-33 0-56.5-23.5T80-160v-640q0-33 23.5-56.5T160-880h640q33 0 56.5 23.5T880-800v280q0 17-11.5 28.5T840-480h-68l-78-228q-5-14-16.5-23t-25.5-9H308q-14 0-25.5 9T266-708l-62 179q-2 6-3 12.5t-1 13.5v251q0 14 9 23t23 9h16q14 0 23-9t9-23v-48h80v180q0 17-11.5 28.5T320-80H160Zm360 0q-33 0-56.5-23.5T440-160v-160q0-33 23.5-56.5T520-400h320q33 0 56.5 23.5T920-320v160q0 33-23.5 56.5T840-80H520Zm37-60h246q5-21 20.5-36.5T860-197v-86q-21-5-36.5-20.5T803-340H557q-5 21-20.5 36.5T500-283v86q21 5 36.5 20.5T557-140Zm80.5-57.5Q620-215 620-240t17.5-42.5Q655-300 680-300t42.5 17.5Q740-265 740-240t-17.5 42.5Q705-180 680-180t-42.5-17.5Zm-306-214Q320-423 320-440t11.5-28.5Q343-480 360-480t28.5 11.5Q400-457 400-440t-11.5 28.5Q377-400 360-400t-28.5-11.5ZM306-580l28-80h292l28 80H306Z"/>
</svg>
