<svg aria-hidden="true" viewBox="0 -960 960 960" fill="currentColor">
  <path d="M160-160v-640 640Zm0 80q-33 0-56.5-23.5T80-160v-640q0-33 23.5-56.5T160-880h640q33 0 56.5 23.5T880-800v280q0 17-11.5 28.5T840-480q-17 0-28.5-11.5T800-520v-280H160v640h160q17 0 28.5 11.5T360-120q0 17-11.5 28.5T320-80H160Zm72-140h16q14 0 23-9t9-23v-48h40q20 0 30-12.5t10-27.5q0-15-10-27.5T320-380h-40v-120h429q20 0 32.5-16.5T747-553l-53-155q-5-14-16.5-23t-25.5-9H308q-14 0-25.5 9T266-708l-62 179q-2 6-3 12.5t-1 13.5v251q0 14 9 23t23 9Zm74-360 28-80h292l28 80H306Zm82.5 168.5Q400-423 400-440t-11.5-28.5Q377-480 360-480t-28.5 11.5Q320-457 320-440t11.5 28.5Q343-400 360-400t28.5-11.5ZM557-140h246q5-21 20.5-36.5T860-197v-86q-21-5-36.5-20.5T803-340H557q-5 21-20.5 36.5T500-283v86q21 5 36.5 20.5T557-140Zm165.5-57.5Q740-215 740-240t-17.5-42.5Q705-300 680-300t-42.5 17.5Q620-265 620-240t17.5 42.5Q655-180 680-180t42.5-17.5ZM520-80q-33 0-56.5-23.5T440-160v-160q0-33 23.5-56.5T520-400h320q33 0 56.5 23.5T920-320v160q0 33-23.5 56.5T840-80H520Z"/>
</svg>
