<svg aria-hidden="true" viewBox="0 -960 960 960" fill="currentColor">
  <path d="M160-160v-640 292-12 360Zm40-356v264q0 14 9 23t23 9h16q14 0 23-9t9-23v-48h127q20 0 29.5-12.5T446-340q0-15-9.5-27.5T407-380H280v-120h425q20 0 32-16t6-36l-49-156q-5-14-16.5-23t-25.5-9H308q-14 0-25.5 9T266-708l-66 192Zm106-64 28-80h292l28 80H306Zm82.5 168.5Q400-423 400-440t-11.5-28.5Q377-480 360-480t-28.5 11.5Q320-457 320-440t11.5 28.5Q343-400 360-400t28.5-11.5ZM692-210l-41-41q-6-6-15-6t-15 6q-6 6-6 15t6 15l43 43q12 12 28 12t28-12l99-99q6-6 6-15t-6-15q-6-6-15-6t-15 6l-97 97Zm169.5-171.5Q920-323 920-240T861.5-98.5Q803-40 720-40T578.5-98.5Q520-157 520-240t58.5-141.5Q637-440 720-440t141.5 58.5ZM160-80q-33 0-56.5-23.5T80-160v-640q0-33 23.5-56.5T160-880h640q33 0 56.5 23.5T880-800v252q0 17-11.5 28.5T840-508q-17 0-28.5-11.5T800-548v-252H160v640h271q17 0 28.5 11.5T471-120q0 17-11.5 28.5T431-80H160Z"/>
</svg>
