<svg aria-hidden="true" viewBox="0 -960 960 960" fill="currentColor">
  <path d="M317.37-71.87q-68.392 0-116.946-48.554-48.555-48.554-48.555-116.946v-402.391q0-68.391 48.555-116.946 48.554-48.554 116.946-48.554h33.065v-37.369q0-19.153 13.174-32.327 13.173-13.174 32.326-13.174 19.152 0 32.326 13.174t13.174 32.327v37.369h77.13v-37.369q0-19.153 13.174-32.327t32.326-13.174q19.153 0 32.326 13.174 13.174 13.174 13.174 32.327v37.369h32.826q68.392 0 116.946 48.554 48.554 48.555 48.554 116.946v402.391q0 68.392-48.554 116.946-48.554 48.555-116.946 48.555H317.37Zm46.217-476.173h232.587q19.152 0 32.326-13.174t13.174-32.326q0-19.153-13.174-32.327-13.174-13.173-32.326-13.173H363.587q-19.152 0-32.326 13.173-13.174 13.174-13.174 32.327 0 19.152 13.174 32.326t32.326 13.174ZM480-237.37q42 0 71-28.5t29-69.5q0-26-11.5-45t-46.5-59l-24.848-28.608q-6.956-7.957-17.152-7.957-10.196 0-17.152 7.957L438-439.37q-35 41-46.5 59.5t-11.5 44.5q0 41 29 69.5t71 28.5Z"/>
</svg>
