<svg aria-hidden="true" viewBox="0 -960 960 960" fill="currentColor">
  <path d="M189.435-105.413q-17.718 0-29.316-11.978-11.598-11.978-11.598-29.696 0-17.717 12.098-29.815Q172.717-189 190.435-189h408.413q17.717 0 29.195 12.098 11.479 12.098 11.479 29.815 0 17.718-11.979 29.696-11.978 11.978-29.695 11.978H189.435Zm126.652-258.652L210.978-469.413q-26.348-26.348-26.848-64.152-.5-37.805 25.848-64.152l29-29L474.63-393.065l-29 29q-26.347 26.348-64.771 26.348t-64.772-26.348Zm328.935-199.631L411.37-799.348l29-29q26.347-26.348 64.271-25.848t64.272 26.848L674.022-722q26.348 26.348 26.348 64.652 0 38.305-26.348 64.652l-29 29Zm147.152 381.435L294.348-680.087 358-743.978l498.826 499.065Q869.5-232.239 869-213.587t-13.174 31.326Q843.152-169.587 824-169.587t-31.826-12.674Z"/>
</svg>
