<svg aria-hidden="true" viewBox="0 -960 960 960" fill="currentColor">
  <path d="M357.13-155.696q-135.674 0-230.108-94.315Q32.587-344.326 32.587-480t94.435-229.989q94.434-94.315 230.108-94.315t229.99 94.315Q681.435-615.674 681.435-480T587.12-250.011q-94.316 94.315-229.99 94.315Zm0-87.174q98.566 0 167.729-69.282Q594.022-381.435 594.022-480q0-98.565-69.163-167.848-69.163-69.282-167.729-69.282-98.565 0-167.847 69.282Q120-578.565 120-480q0 98.565 69.283 167.848 69.282 69.282 167.847 69.282Zm0-95.217q18.435 0 31.011-12.696 12.576-12.695 12.576-31.13V-534.5h46.413q14.555 0 24.071-9.516 9.516-9.517 9.516-24.071 0-14.435-9.516-24.13-9.516-9.696-24.071-9.696h-180q-14.434 0-24.13 9.696-9.696 9.695-9.696 24.13 0 14.435 9.696 24.011 9.696 9.576 24.13 9.576h46.174v152.587q0 18.435 12.696 31.13 12.696 12.696 31.13 12.696Zm380.566-310.761-32-70.164-70-32.075q-13.153-5.772-13.153-20.777 0-15.006 13.153-20.723l70-32 32-70q5.771-13.153 20.777-13.153 15.005 0 20.723 13.153l32.075 70 70.164 32q13.152 5.771 13.152 20.777 0 15.005-13.152 20.723l-70.164 32.075-32.075 70.164q-5.772 13.152-20.777 13.152-15.006 0-20.723-13.152Zm0 583.435-32-70.164-70-32.075q-13.153-5.771-13.153-20.777t13.153-20.723l70-32.075 32-70.164q5.771-13.152 20.777-13.152 15.005 0 20.723 13.152l32.075 70.164 70.164 32.075q13.152 5.771 13.152 20.777t-13.152 20.723l-70.164 32.075-32.075 70.164q-5.772 13.152-20.777 13.152-15.006 0-20.723-13.152ZM357.13-480Z"/>
</svg>
