<svg aria-hidden="true" viewBox="0 -960 960 960" fill="currentColor">
  <path d="M357.13-155.696q-135.674 0-230.108-94.315Q32.587-344.326 32.587-480t94.435-229.989q94.434-94.315 230.108-94.315t229.99 94.315Q681.435-615.674 681.435-480T587.12-250.011q-94.316 94.315-229.99 94.315Zm0-182.391q18.435 0 31.011-12.696 12.576-12.695 12.576-31.13V-534.5h46.413q14.435 0 24.011-9.576 9.576-9.576 9.576-24.011 0-14.435-9.576-24.13-9.576-9.696-24.011-9.696h-180q-14.434 0-24.13 9.696-9.696 9.695-9.696 24.13 0 14.435 9.696 24.011 9.696 9.576 24.13 9.576h46.174v152.587q0 18.435 12.696 31.13 12.696 12.696 31.13 12.696Zm380.566-310.761-32-70.239-70-32q-13.153-5.957-13.153-20.75 0-14.794 13.153-20.75l70-32 32-70q5.956-13.153 20.75-13.153 14.793 0 20.75 13.153l32 70 70.239 32q13.152 5.956 13.152 20.75 0 14.793-13.152 20.75l-70.239 32-32 70.239q-5.957 13.152-20.75 13.152-14.794 0-20.75-13.152Zm0 583.435-32-70.239-70-32q-13.153-5.956-13.153-20.75 0-14.793 13.153-20.75l70-32 32-70.239q5.956-13.152 20.75-13.152 14.793 0 20.75 13.152l32 70.239 70.239 32q13.152 5.957 13.152 20.75 0 14.794-13.152 20.75l-70.239 32-32 70.24q-5.957 13.152-20.75 13.152-14.794 0-20.75-13.153Z"/>
</svg>
