<svg aria-hidden="true" viewBox="0 -960 960 960" fill="currentColor">
  <path d="M80-800q-17 0-28.5-11.5T40-840q0-17 11.5-28.5T80-880q17 0 28.5 11.5T120-840q0 17-11.5 28.5T80-800Zm131.5-11.5Q200-823 200-840t11.5-28.5Q223-880 240-880t28.5 11.5Q280-857 280-840t-11.5 28.5Q257-800 240-800t-28.5-11.5Zm160 0Q360-823 360-840t11.5-28.5Q383-880 400-880t28.5 11.5Q440-857 440-840t-11.5 28.5Q417-800 400-800t-28.5-11.5Zm160 0Q520-823 520-840t11.5-28.5Q543-880 560-880t28.5 11.5Q600-857 600-840t-11.5 28.5Q577-800 560-800t-28.5-11.5Zm160 0Q680-823 680-840t11.5-28.5Q703-880 720-880t28.5 11.5Q760-857 760-840t-11.5 28.5Q737-800 720-800t-28.5-11.5Zm160 0Q840-823 840-840t11.5-28.5Q863-880 880-880t28.5 11.5Q920-857 920-840t-11.5 28.5Q897-800 880-800t-28.5-11.5ZM80-640q-17 0-28.5-11.5T40-680q0-17 11.5-28.5T80-720q17 0 28.5 11.5T120-680q0 17-11.5 28.5T80-640Zm0 160q-17 0-28.5-11.5T40-520q0-17 11.5-28.5T80-560q17 0 28.5 11.5T120-520q0 17-11.5 28.5T80-480Zm131.5-11.5Q200-503 200-520t11.5-28.5Q223-560 240-560t28.5 11.5Q280-537 280-520t-11.5 28.5Q257-480 240-480t-28.5-11.5Zm480 0Q680-503 680-520t11.5-28.5Q703-560 720-560t28.5 11.5Q760-537 760-520t-11.5 28.5Q737-480 720-480t-28.5-11.5Zm160 0Q840-503 840-520t11.5-28.5Q863-560 880-560t28.5 11.5Q920-537 920-520t-11.5 28.5Q897-480 880-480t-28.5-11.5Zm0-160Q840-663 840-680t11.5-28.5Q863-720 880-720t28.5 11.5Q920-697 920-680t-11.5 28.5Q897-640 880-640t-28.5-11.5ZM640-120H469h171ZM473-40q-24 0-46-9t-39-26L212-252q-13-13-10.5-30.5T217-314q14-14 34-19t40 0l69 20v-327q0-17 11.5-28.5T400-680q17 0 28.5 11.5T440-640v380q0 20-15.5 31.5T389-222l-47-13 103 103q5 5 12.5 8.5T473-120h167q33 0 56.5-23.5T720-200v-160q0-17 11.5-28.5T760-400q17 0 28.5 11.5T800-360v160q0 66-47 113T640-40H473Zm75.5-468.5Q560-497 560-480v120q0 17-11.5 28.5T520-320q-17 0-28.5-11.5T480-360v-120q0-17 11.5-28.5T520-520q17 0 28.5 11.5Zm120 40Q680-457 680-440v80q0 17-11.5 28.5T640-320q-17 0-28.5-11.5T600-360v-80q0-17 11.5-28.5T640-480q17 0 28.5 11.5Z"/>
</svg>
