<svg aria-hidden="true" viewBox="0 -960 960 960" fill="currentColor">
  <path d="M558.065-112.022q-55.152 0-94.087-38.652t-38.935-94.522q0-31.434 13.837-65.913 13.837-34.478 40.816-64.978 26.978-30.5 67.239-53.761 40.261-23.261 92.869-31.782-2.761-36.653-18.043-51.957-15.283-15.304-38.326-15.304-29.761 0-64.881 24.88-35.119 24.881-83.119 82.598-75.609 91.326-114.261 120.641-38.652 29.316-82.087 29.316-53.152 0-89.826-38.935-36.674-38.935-36.674-94.566 0-51.326 23.141-105.891 23.141-54.565 77.707-129.695 22.065-31.022 31.924-48.903 9.858-17.88 9.858-28.88 0-7-2.619-10.5-2.62-3.5-7.62-3.5-4.522 0-10.685 3.022-6.163 3.021-13.445 9.065-19.392 14.717-39.326 15.098-19.935.38-34.653-14.337-16.195-16.196-16.315-39.131-.119-22.935 15.315-36.652 24.479-21.761 50.294-33.239 25.815-11.478 50.25-11.478 49.391 0 82.446 34.174 33.054 34.174 33.054 82.13 0 32.348-15.598 68.402-15.598 36.055-52.272 86.207-38.956 54.478-56.619 92.489-17.663 38.011-17.663 64.38 0 15.566 5.38 23.848 5.381 8.283 14.902 8.283 12 0 33.022-20.142 21.022-20.141 82.913-93.032 63.718-76.196 116.272-109.631 52.554-33.434 111.185-33.434 76.282 0 117.174 49.923 40.891 49.924 46.609 119.511h46.608q22.435 0 38.011 15.576 15.576 15.577 15.576 38.011 0 22.435-15.576 38.011-15.576 15.576-38.011 15.576h-46.369q-6.957 95.175-52.946 171.424-45.989 76.25-136.446 76.25Zm2-107.891q35.174 0 53.478-40.793 18.305-40.794 25.261-91.272-51.934 13.282-79.141 45.391-27.206 32.109-27.206 57.87 0 13.282 7.402 21.043 7.402 7.761 20.206 7.761Z"/>
</svg>
