<svg aria-hidden="true" viewBox="0 -960 960 960" fill="currentColor">
  <path d="M320-200H160q-33 0-56.5-23.5T80-280v-480q0-33 23.5-56.5T160-840h640q33 0 56.5 23.5T880-760v80h-80v-80H160v480h280v160h-80q-17 0-28.5-11.5T320-160v-40Zm313.5-166.5Q661-394 700-394t66.5 27.5Q794-339 794-300t-27.5 66.5Q739-206 700-206t-66.5-27.5Q606-261 606-300t27.5-66.5ZM840-640q17 0 28.5 11.5T880-600v440q0 17-11.5 28.5T840-120H560q-17 0-28.5-11.5T520-160v-440q0-17 11.5-28.5T560-640h280Zm-183 57q-17 17-17 43t17 43q17 17 43 17t43-17q17-17 17-43t-17-43q-17-17-43-17t-43 17Zm142.5 382.5Q840-241 840-300t-40.5-99.5Q759-440 700-440t-99.5 40.5Q560-359 560-300t40.5 99.5Q641-160 700-160t99.5-40.5Z"/>
</svg>
