<svg aria-hidden="true" viewBox="0 -960 960 960" fill="currentColor">
  <path d="M437.5-697.5Q420-715 420-740t17.5-42.5Q455-800 480-800t42.5 17.5Q540-765 540-740t-17.5 42.5Q505-680 480-680t-42.5-17.5Zm-99 599Q280-157 280-240v-480q0-83 58.5-141.5T480-920q83 0 141.5 58.5T680-720v480q0 83-58.5 141.5T480-40q-83 0-141.5-58.5ZM551-669q29-29 29-71t-29-71q-29-29-71-29t-71 29q-29 29-29 71t29 71q29 29 71 29t71-29Zm14 514q35-35 35-85v-367q-25 23-56 35t-64 12q-33 0-64-12t-56-35v367q0 50 35 85t85 35q50 0 85-35ZM448.5-331.5Q460-343 460-360t-11.5-28.5Q437-400 420-400t-28.5 11.5Q380-377 380-360t11.5 28.5Q403-320 420-320t28.5-11.5Zm0-120Q460-463 460-480t-11.5-28.5Q437-520 420-520t-28.5 11.5Q380-497 380-480t11.5 28.5Q403-440 420-440t28.5-11.5Zm120 0Q580-463 580-480t-11.5-28.5Q557-520 540-520t-28.5 11.5Q500-497 500-480t11.5 28.5Q523-440 540-440t28.5-11.5Zm0 120Q580-343 580-360t-11.5-28.5Q557-400 540-400t-28.5 11.5Q500-377 500-360t11.5 28.5Q523-320 540-320t28.5-11.5Zm-120 120Q460-223 460-240t-11.5-28.5Q437-280 420-280t-28.5 11.5Q380-257 380-240t11.5 28.5Q403-200 420-200t28.5-11.5Zm120 0Q580-223 580-240t-11.5-28.5Q557-280 540-280t-28.5 11.5Q500-257 500-240t11.5 28.5Q523-200 540-200t28.5-11.5ZM480-560Z"/>
</svg>
