<svg aria-hidden="true" viewBox="0 -960 960 960" fill="currentColor">
  <path d="m887.652-191.13-85.022-85.022v-37.63H765l-90.761-91.001h122.413v-150.434H646.457v122.652l-85.261-85.022v-37.63h-37.391l-91.001-91.001h122.413v-150.434H405.022V-674L320-759.022v-37.63h-37.63l-91-91h605.282q37.783 0 64.392 26.608 26.608 26.609 26.608 64.392v605.522ZM646.218-646.218h150.434v-150.434H646.218v150.434Zm-482.87 573.87q-37.783 0-64.392-26.608-26.608-26.609-26.608-64.392V-770.63l-20.174-20.174Q40.456-802.522 40.456-820t11.718-29.196q11.717-11.717 29.315-11.717t29.315 11.717l738.631 738.631q11.717 11.763 11.598 29.313-.12 17.55-12.598 30.078-11.718 11.718-28.413 11.718-16.696 0-29.218-11.718L768.87-72.348H163.348Zm482.87-91h37.63l-37.63-39.152v39.152ZM404.783-404.783h37.63l-37.63-39.152v39.152Zm0 241.435h150.434v-124.174l-27.782-26.26H404.783v150.434Zm-241.435-482.87h37.63l-37.63-39.152v39.152Zm0 241.435h150.434v-124.413L286-555.217H163.348v150.434Zm150.434 241.435v-150.434H163.348v150.434h150.434Z"/>
</svg>
