<svg aria-hidden="true" viewBox="0 -960 960 960" fill="currentColor">
  <path d="m880-194-80-80v-46h-46l-80-80h126v-160H640v126l-80-80v-46h-46l-80-80h126v-160H400v126l-80-80v-46h-46l-80-80h606q33 0 56.5 23.5T880-800v606ZM640-640h160v-160H640v160ZM160-80q-33 0-56.5-23.5T80-160v-608l-24-24q-11-11-11-28t11-28q11-11 28-11t28 11l736 736q11 11 11 28t-12 29q-11 11-27 11t-28-11l-26-25H160Zm480-80h46l-46-48v48ZM400-400h46l-46-48v48Zm0 240h160v-128l-34-32H400v160ZM160-640h46l-46-48v48Zm0 240h160v-128l-34-32H160v160Zm160 240v-160H160v160h160Z"/>
</svg>
