<svg aria-hidden="true" viewBox="0 -960 960 960" fill="currentColor">
  <path d="m160-421.87 103.391-103.391L160-628.652 56.609-525.261 160-421.87Zm537.13-21L800-607.652 903.109-442.87H697.13ZM41.674-236.174q-19.152 0-32.326-13.174t-13.174-32.326V-303q0-45.674 45.196-73.25Q86.565-403.826 160-403.826q10.848 0 20.554.761 9.707.761 19.033 2.282-14.478 21.196-21.337 45.392-6.859 24.195-6.859 51.391v67.826H41.674Zm240 0q-19.152 0-32.326-13.174t-13.174-32.326V-304q0-66.674 67.456-108.25 67.457-41.576 176.37-41.576 109.674 0 176.75 41.576T723.826-304v22.326q0 19.152-13.174 32.326t-32.326 13.174H281.674Zm506.935 0V-304q0-27.196-7.239-51.511t-20.957-45.272q9.326-1.521 19.033-2.282 9.706-.761 20.554-.761 73.435 0 118.63 27.576 45.196 27.576 45.196 73.25v21.326q0 19.152-13.174 32.326t-32.326 13.174H788.609ZM480-483.587q-51.674 0-87.75-36.076t-36.076-87.75q0-51.674 36.076-87.75T480-731.239q51.674 0 87.75 36.076t36.076 87.75q0 51.674-36.076 87.75T480-483.587Z"/>
</svg>
