<svg aria-hidden="true" viewBox="0 -960 960 960" fill="currentColor">
  <path d="M360-240Zm-240 80q-33 0-56.5-23.5T40-240v-32q0-34 17.5-62.5T104-378q62-31 126-46.5T360-440q23 0 45.5 2t45.5 6q14 2 20 15.5t1 27.5q-5 14-19 24.5t-40 7.5q-14-2-27-2.5t-26-.5q-56 0-111 13.5T140-306q-9 5-14.5 14t-5.5 20v32h295q20 0 30 12.5t10 27.5q0 15-10 27.5T415-160H120Zm127-367q-47-47-47-113t47-113q47-47 113-47t113 47q47 47 47 113t-47 113q-47 47-113 47t-113-47Zm466 0q-47 47-113 47-11 0-28-2.5t-28-5.5q27-32 41.5-71t14.5-81q0-42-14.5-81T544-792q14-5 28-6.5t28-1.5q66 0 113 47t47 113q0 66-47 113Zm-296.5-56.5Q440-607 440-640t-23.5-56.5Q393-720 360-720t-56.5 23.5Q280-673 280-640t23.5 56.5Q327-560 360-560t56.5-23.5ZM360-640Zm376.5 420q22.5-20 23.5-60 1-34-22.5-57T680-360q-34 0-57 23t-23 57q0 34 23 57t57 23q34 0 56.5-20ZM680-120q-66 0-113-47t-47-113q0-66 47-113t113-47q66 0 113 47t47 113q0 23-5.5 43.5T818-198l74 74q11 11 11 28t-11 28q-11 11-28 11t-28-11l-74-74q-18 11-38.5 16.5T680-120Z"/>
</svg>
