<svg aria-hidden="true" viewBox="0 -960 960 960" fill="currentColor">
  <path d="m160-421.87 103.391-103.391L160-628.652 56.609-525.261 160-421.87Zm537.13-21L800-607.652 903.109-442.87H697.13ZM41.674-236.174q-19.152 0-32.326-13.174t-13.174-32.326V-303q0-45.736 45.196-73.281Q86.565-403.826 160-403.826q10.95 0 20.636.761t18.951 2.282q-14.478 21.196-21.337 45.342-6.859 24.146-6.859 51.441v67.826H41.674Zm240 0q-19.152 0-32.326-13.174t-13.174-32.326V-304q0-66.703 67.456-108.265 67.457-41.561 176.37-41.561 109.722 0 176.774 41.561Q723.826-370.703 723.826-304v22.326q0 19.152-13.174 32.326t-32.326 13.174H281.674Zm506.935 0V-304q0-27.196-7.239-51.511t-20.957-45.272q9.265-1.521 18.951-2.282 9.686-.761 20.636-.761 73.435 0 118.63 27.545 45.196 27.545 45.196 73.281v21.326q0 19.152-13.174 32.326t-32.326 13.174H788.609ZM480-367.37q-52.456 0-94.945 13.707-42.49 13.706-53.12 31.033h296.13q-11.391-18.087-53.5-31.413Q532.456-367.37 480-367.37Zm-.056-116.217q-51.618 0-87.694-36.132-36.076-36.133-36.076-87.75 0-51.618 36.132-87.694 36.133-36.076 87.75-36.076 51.618 0 87.694 36.132t36.076 87.75q0 51.618-36.132 87.694-36.133 36.076-87.75 36.076Zm.014-161.435q-16.001 0-26.784 10.825-10.783 10.824-10.783 26.826 0 16.001 10.825 26.784 10.824 10.782 26.826 10.782 16.001 0 26.784-10.824 10.783-10.825 10.783-26.826 0-16.002-10.825-26.784-10.824-10.783-26.826-10.783ZM480-322.63Zm0-284.783Z"/>
</svg>
