<svg aria-hidden="true" viewBox="0 -960 960 960" fill="currentColor">
  <path d="M320-320q33 0 56.5-23.5T400-400q0-33-23.5-56.5T320-480q-33 0-56.5 23.5T240-400q0 33 23.5 56.5T320-320Zm376.5-23.5Q720-367 720-400t-23.5-56.5Q673-480 640-480t-56.5 23.5Q560-433 560-400t23.5 56.5Q607-320 640-320t56.5-23.5Zm-160-240Q560-607 560-640t-23.5-56.5Q513-720 480-720t-56.5 23.5Q400-673 400-640t23.5 56.5Q447-560 480-560t56.5-23.5ZM480-80q-83 0-156-31.5T197-197q-54-54-85.5-127T80-480q0-83 31.5-156T197-763q54-54 127-85.5T480-880q83 0 156 31.5T763-763q54 54 85.5 127T880-480q0 83-31.5 156T763-197q-54 54-127 85.5T480-80Zm0-80q134 0 227-93t93-227q0-134-93-227t-227-93q-134 0-227 93t-93 227q0 134 93 227t227 93Zm0-320Z"/>
</svg>
