<svg aria-hidden="true" viewBox="0 -960 960 960" fill="currentColor">
  <path d="M502.391-486.544q31.153-33.913 47.37-76.945 16.217-43.033 16.217-88.826 0-45.794-16.695-89.185-16.696-43.392-47.37-76.348 63.826 9.913 103.946 57.424 40.119 47.511 40.119 108.228 0 61.674-40.358 108.946-40.359 47.272-103.229 56.706Zm202.196 338.74q9.957-7.957 15.674-19.86 5.717-11.903 5.717-26.64v-80.674q0-39.348-15.76-73.044-15.761-33.695-43.196-60.13 55.543 16.804 99.163 48.174 43.62 31.369 43.62 85v81.674q0 19.152-13.174 32.326t-32.327 13.174h-59.717Zm144.5-298.174q-17 0-28.5-11.5t-11.5-28.5v-40.718H768.37q-17 0-28.5-11.5t-11.5-28.5q0-17 11.5-28.5t28.5-11.5h40.717v-40.717q0-17 11.5-28.5t28.5-11.5q17 0 28.5 11.5t11.5 28.5v40.717h40.718q17 0 28.5 11.5t11.5 28.5q0 17-11.5 28.5t-28.5 11.5h-40.718v40.718q0 17-11.5 28.5t-28.5 11.5Zm-531-38.087q-69.587 0-118.859-49.272-49.272-49.272-49.272-118.859 0-69.587 49.272-118.739t118.859-49.152q69.587 0 118.739 49.152t49.152 118.739q0 69.587-49.152 118.859-49.152 49.272-118.739 49.272ZM35.457-147.804q-19.153 0-32.327-13.174t-13.174-32.326v-75.109q0-36.234 18.576-66.606 18.577-30.372 49.729-46.329 62.956-31.239 128.032-46.978 65.077-15.739 131.794-15.739 67.435 0 132.391 15.619 64.957 15.62 127.196 46.859 31.152 15.957 49.728 46.25 18.576 30.294 18.576 66.924v75.109q0 19.152-13.174 32.326t-32.326 13.174H35.456Z"/>
</svg>
