<svg aria-hidden="true" viewBox="0 -960 960 960" fill="currentColor">
  <path d="M502.391-486.544q31.153-33.913 47.37-76.945 16.217-43.033 16.217-88.826 0-45.794-16.695-89.185-16.696-43.392-47.37-76.348 63.826 9.913 103.946 57.424 40.119 47.511 40.119 108.228 0 61.674-40.358 108.946-40.359 47.272-103.229 56.706Zm202.196 338.74q9.957-7.957 15.674-19.86 5.717-11.903 5.717-26.64v-80.674q0-39.348-15.76-73.044-15.761-33.695-43.196-60.13 55.543 16.804 99.163 48.174 43.62 31.369 43.62 85v81.674q0 19.152-13.174 32.326t-32.327 13.174h-59.717Zm63.783-378.892q-17 0-28.5-11.5t-11.5-28.5q0-17 11.5-28.5t28.5-11.5h161.435q17 0 28.5 11.5t11.5 28.5q0 17-11.5 28.5t-28.5 11.5H768.37Zm-450.283 42.631q-69.587 0-118.859-49.272-49.272-49.272-49.272-118.859 0-69.587 49.272-118.739t118.859-49.152q69.587 0 118.739 49.152t49.152 118.739q0 69.587-49.152 118.859-49.152 49.272-118.739 49.272ZM35.457-147.804q-19.153 0-32.327-13.174t-13.174-32.326v-75.109q0-36.234 18.576-66.606 18.577-30.372 49.729-46.329 62.956-31.239 128.032-46.978 65.077-15.739 131.794-15.739 67.435 0 132.391 15.619 64.957 15.62 127.196 46.859 31.152 15.957 49.728 46.25 18.576 30.294 18.576 66.924v75.109q0 19.152-13.174 32.326t-32.326 13.174H35.456Zm282.621-427.262q31.813 0 54.357-22.654 22.543-22.655 22.543-54.467 0-31.813-22.587-54.357-22.586-22.543-54.304-22.543-31.816 0-54.473 22.587-22.657 22.586-22.657 54.304 0 31.816 22.654 54.473 22.655 22.657 54.467 22.657ZM80.957-238.804h474.021v-28.413q0-10.768-5.5-19.578-5.5-8.81-14.5-13.705-52.565-26.282-106.848-39.424-54.282-13.141-109.981-13.141-55.698 0-110.402 13.261T100.957-300.5q-9 4.895-14.5 13.705t-5.5 19.578v28.413Zm237.13-413.392Zm0 413.392Z"/>
</svg>
