<svg aria-hidden="true" viewBox="0 -960 960 960" fill="currentColor">
  <path d="M416.261-483.348q-31.871 0-52.36-23.87-20.488-23.869-14.771-55.695l11.044-66.978q8-44.435 41.651-72.772Q435.477-731 480-731q45.544 0 79.185 28.337 33.641 28.337 41.641 72.772l11.044 66.978q5.717 31.826-14.771 55.695-20.489 23.87-52.36 23.87H416.261Zm-292.799 41.124q-23.658 1.028-40.755-9.33-17.098-10.359-22.098-31.861-2-9.215-1-18.574 1-9.359 5.239-17.359 0 1.239-1-4.239-4.24-5-6.74-11.12-2.5-6.119-3.5-13.358-2-12.41 3.056-23.786 5.056-11.376 13.184-19.649-.24 0 2.239-2 2.058-19.505 15.954-32.85 13.895-13.346 34.481-13.346 3.239 0 19.44 4l3.038-1q5.239-5 13.452-7.619 8.212-2.62 17.451-2.62 11.293 0 20.151 3.62 8.859 3.619 13.913 10.805 1.011 0 1.517.513.505.514 1.516.514 14.152 1.026 25.054 8.726 10.902 7.699 16.055 21.044 2 7.186 1.5 13.859t-2.5 12.832q0 .761 1 4.239 7.223 7.203 11.351 15.95 4.127 8.746 4.127 18.007 0 4.717-6.239 21.478-1 1.761 0 4.239l2 16.45q0 21.591-17.972 37.013-17.971 15.422-43.686 15.422h-80.228Zm676.489.789q-33.908 0-58.125-24.233t-24.217-58.262q0-12.374 3.628-23.117 3.629-10.743 9.85-20.975l-28.957-25.717q-10.239-8.479-3.619-20.718 6.619-12.239 18.987-12.239h82.448q34.011 0 58.108 24.176 24.098 24.176 24.098 58.126v20.575q0 33.949-24.146 58.167-24.147 24.217-58.055 24.217ZM41.674-236.174q-19.152 0-32.326-13.174t-13.174-32.326V-303q0-45.736 45.196-73.281Q86.565-403.826 160-403.826q10.95 0 20.636.761t18.951 2.282q-14.478 21.196-21.337 45.342-6.859 24.146-6.859 51.441v67.826H41.674Zm240 0q-19.152 0-32.326-13.174t-13.174-32.326V-304q0-66.703 67.456-108.265 67.457-41.561 176.37-41.561 109.722 0 176.774 41.561Q723.826-370.703 723.826-304v22.326q0 19.152-13.174 32.326t-32.326 13.174H281.674Zm506.935 0V-304q0-27.196-7.239-51.511t-20.957-45.272q9.265-1.521 18.951-2.282 9.686-.761 20.636-.761 73.435 0 118.63 27.545 45.196 27.545 45.196 73.281v21.326q0 19.152-13.174 32.326t-32.326 13.174H788.609Z"/>
</svg>
