<svg aria-hidden="true" viewBox="0 -960 960 960" fill="currentColor">
  <path d="M41.674-236.174q-19.152 0-32.326-13.174t-13.174-32.326V-303q0-45.736 45.196-73.281Q86.565-403.826 160-403.826q10.95 0 20.636.761t18.951 2.282q-14.478 21.196-21.337 45.342-6.859 24.146-6.859 51.441v67.826H41.674Zm240 0q-19.152 0-32.326-13.174t-13.174-32.326V-304q0-66.703 67.456-108.265 67.457-41.561 176.37-41.561 109.722 0 176.774 41.561Q723.826-370.703 723.826-304v22.326q0 19.152-13.174 32.326t-32.326 13.174H281.674Zm506.935 0V-304q0-27.196-7.239-51.511t-20.957-45.272q9.265-1.521 18.951-2.282 9.686-.761 20.636-.761 73.435 0 118.63 27.545 45.196 27.545 45.196 73.281v21.326q0 19.152-13.174 32.326t-32.326 13.174H788.609ZM160-442.87q-34.196 0-58.294-24.097-24.097-24.098-24.097-58.294t24.097-58.294q24.098-24.097 58.294-24.097t58.294 24.097q24.097 24.098 24.097 58.294t-24.097 58.294Q194.196-442.87 160-442.87Zm640 0q-34.196 0-58.294-24.097-24.097-24.098-24.097-58.294t24.097-58.294q24.098-24.097 58.294-24.097t58.294 24.097q24.097 24.098 24.097 58.294t-24.097 58.294Q834.196-442.87 800-442.87Zm-320.056-40.717q-51.618 0-87.694-36.132-36.076-36.133-36.076-87.75 0-51.618 36.132-87.694 36.133-36.076 87.75-36.076 51.618 0 87.694 36.132t36.076 87.75q0 51.618-36.132 87.694-36.133 36.076-87.75 36.076Z"/>
</svg>
