<svg aria-hidden="true" viewBox="0 -960 960 960" fill="currentColor">
  <path d="M40-240q-17 0-28.5-11.5T0-280v-23q0-44 44-70.5T160-400q13 0 24.5 1t22.5 3q-14 20-20.5 43t-6.5 49v64H40Zm240 0q-17 0-28.5-11.5T240-280v-24q0-65 66.5-105.5T480-450q108 0 174 40.5T720-304v24q0 17-11.5 28.5T680-240H280Zm500 0v-64q0-26-7-49t-20-43q11-2 22.5-3t24.5-1q72 0 116 26.5t44 70.5v23q0 17-11.5 28.5T920-240H780ZM160-440q-33 0-56.5-23.5T80-520q0-33 23.5-56.5T160-600q33 0 56.5 23.5T240-520q0 33-23.5 56.5T160-440Zm640 0q-33 0-56.5-23.5T720-520q0-33 23.5-56.5T800-600q33 0 56.5 23.5T880-520q0 33-23.5 56.5T800-440Zm-320-40q-50 0-85-35t-35-85q0-50 35-85t85-35q50 0 85 35t35 85q0 50-35 85t-85 35Z"/>
</svg>
