<svg aria-hidden="true" viewBox="0 -960 960 960" fill="currentColor">
  <path d="M797-360q-7 0-14-4.5T773-375l-29-65h-44v50q0 4-.5 7t-2.5 6l-57-57v-126q0-17 11.5-28.5T680-600h100q24 0 42 18t18 42v40q0 18-10.5 32.5T804-444l19 45q7 17-.5 28T797-360Zm-97-140h80v-40h-80v40Zm63 415L84-764q-11-11-11.5-27.5T84-820q11-11 28-11t28 11l680 678q12 12 11.5 28T820-86q-12 12-28.5 12.5T763-85ZM580-494 474-600h46q24 0 42 18t18 42v46ZM120-390v-180q0-13 8.5-21.5T150-600q13 0 21.5 8.5T180-570v50h80v-50q0-13 8.5-21.5T290-600q13 0 21.5 8.5T320-570v180q0 13-8.5 21.5T290-360q-13 0-21.5-8.5T260-390v-70h-80v70q0 13-8.5 21.5T150-360q-13 0-21.5-8.5T120-390Zm260-134 60 60v44h45l55 56q-5 2-10 3t-10 1H380v-164Z"/>
</svg>
