<svg aria-hidden="true" viewBox="0 -960 960 960" fill="currentColor">
  <path d="M610-260q-13 0-21.5-8.5T580-290v-30h-30q-13 0-21.5-8.5T520-350q0-13 8.5-21.5T550-380h30v-30q0-13 8.5-21.5T610-440q13 0 21.5 8.5T640-410v30h30q13 0 21.5 8.5T700-350q0 13-8.5 21.5T670-320h-30v30q0 13-8.5 21.5T610-260ZM310-480q-13 0-21.5-8.5T280-510v-180q0-13 8.5-21.5T310-720q13 0 21.5 8.5T340-690v50h80v-50q0-13 8.5-21.5T450-720q13 0 21.5 8.5T480-690v180q0 13-8.5 21.5T450-480q-13 0-21.5-8.5T420-510v-70h-80v70q0 13-8.5 21.5T310-480Zm230 0q-8 0-14-6t-6-14v-200q0-8 6-14t14-6h100q24 0 42 18t18 42v120q0 24-18 42t-42 18H540Zm40-60h60v-120h-60v120ZM480-80q-83 0-156-31.5T197-197q-54-54-85.5-127T80-480q0-83 31.5-156T197-763q54-54 127-85.5T480-880q83 0 156 31.5T763-763q54 54 85.5 127T880-480q0 83-31.5 156T763-197q-54 54-127 85.5T480-80Zm0-80q133 0 226.5-93.5T800-480q0-133-93.5-226.5T480-800q-133 0-226.5 93.5T160-480q0 133 93.5 226.5T480-160Zm0-320Zm-60 140v-40h-80v40h80Zm-80 60v50q0 13-8.5 21.5T310-200q-13 0-21.5-8.5T280-230v-180q0-13 8.5-21.5T310-440h110q25 0 42.5 17.5T480-380v40q0 18-10.5 32.5T444-284l19 44q6 14-2.5 27T437-200q-8 0-15.5-4.5T411-217l-27-63h-44Z"/>
</svg>
