<svg aria-hidden="true" viewBox="0 -960 960 960" fill="currentColor">
  <path d="M703.413-536.478 372.891-868.761q26-12.239 53.036-17.598 27.037-5.359 54.073-5.359 103.109 0 175.62 72.511 72.511 72.511 72.511 175.548 0 26.789-6.12 53.865-6.12 27.077-18.598 53.316Zm-48.63 180.63-65.522-65.522q-24.674 12.957-53.011 19.316-28.337 6.358-56.25 6.358-103.109 0-175.62-72.391-72.511-72.391-72.511-175.543 0-29.914 6.479-57.588 6.478-27.673 19.195-51.869l-65.521-65.283 58.63-58.63 462.761 462.522-58.63 58.63ZM820-76.413v-76.174h-76.413v-63.826H820v-76.174h63.587v76.174H960v63.826h-76.413v76.174H820ZM520-74.5v-240h140q26.152 0 44.87 18.718 18.717 18.717 18.717 44.869v38.33q0 22.04-9.902 34.54t-24.902 20.978L725.022-74.5h-64.544l-34.601-75.695h-42.29V-74.5H520Zm63.587-138.087H660v-38.326h-76.413v38.326ZM0-74.5v-240h63.587v80.718H140V-314.5h63.587v240H140v-97.369H63.587v97.37H0Zm260 0v-240h140q26.152 0 44.87 18.718 18.717 18.717 18.717 44.869v112.826q0 26.152-18.717 44.87Q426.152-74.5 400-74.5H260Zm63.587-63.587H400v-112.826h-76.413v112.826ZM820-76.413v-76.174h-76.413v-63.826H820v-76.174h63.587v76.174H960v63.826h-76.413v76.174H820ZM520-74.5v-240h140q26.152 0 44.87 18.718 18.717 18.717 18.717 44.869v38.33q0 22.04-9.902 34.54t-24.902 20.978L725.022-74.5h-64.544l-34.601-75.695h-42.29V-74.5H520Zm63.587-138.087H660v-38.326h-76.413v38.326ZM0-74.5v-240h63.587v80.718H140V-314.5h63.587v240H140v-97.369H63.587v97.37H0Zm260 0v-240h140q26.152 0 44.87 18.718 18.717 18.717 18.717 44.869v112.826q0 26.152-18.717 44.87Q426.152-74.5 400-74.5H260Zm63.587-63.587H400v-112.826h-76.413v112.826Z"/>
</svg>
