<svg aria-hidden="true" viewBox="0 -960 960 960" fill="currentColor">
  <path d="M480-395.696q-103.109 0-175.62-72.391-72.511-72.391-72.511-175.5t72.511-175.62q72.511-72.511 175.62-72.511 103.109 0 175.62 72.511 72.511 72.511 72.511 175.62 0 103.109-72.511 175.5T480-395.696ZM820-76.413v-76.174h-76.413v-63.826H820v-76.174h63.587v76.174H960v63.826h-76.413v76.174H820ZM520-74.5v-240h140q26.152 0 44.87 18.718 18.717 18.717 18.717 44.869v38.33q0 22.04-9.902 34.54t-24.902 20.978L725.022-74.5h-64.544l-34.601-75.695h-42.29V-74.5H520Zm63.587-138.087H660v-38.326h-76.413v38.326ZM0-74.5v-240h63.587v80.718H140V-314.5h63.587v240H140v-97.369H63.587v97.37H0Zm260 0v-240h140q26.152 0 44.87 18.718 18.717 18.717 18.717 44.869v112.826q0 26.152-18.717 44.87Q426.152-74.5 400-74.5H260Zm63.587-63.587H400v-112.826h-76.413v112.826Z"/>
</svg>
