<svg aria-hidden="true" viewBox="0 -960 960 960" fill="currentColor">
  <path d="M609.522-260q-13 0-21.5-8.5t-8.5-21.5v-30h-30q-13 0-21.5-8.5t-8.5-21.5q0-13 8.5-21.5t21.5-8.5h30v-30q0-13 8.5-21.5t21.5-8.5q13 0 21.5 8.5t8.5 21.5v30h30q13 0 21.5 8.5t8.5 21.5q0 13-8.5 21.5t-21.5 8.5h-30v30q0 13-8.5 21.5t-21.5 8.5ZM310.478-479.283q-13 0-21.5-8.5t-8.5-21.5v-178.565q0-13 8.5-21.5t21.5-8.5q13 0 21.5 8.5t8.5 21.5v49.283h80v-49.283q0-13 8.5-21.5t21.5-8.5q13 0 21.5 8.5t8.5 21.5v178.565q0 13-8.5 21.5t-21.5 8.5q-13 0-21.5-8.5t-8.5-21.5v-69.282h-80v69.282q0 13-8.5 21.5t-21.5 8.5Zm232.152 0q-9.434 0-16.271-6.717-6.837-6.717-6.837-16.152v-192.826q0-9.435 6.837-16.152 6.837-6.718 16.271-6.718h96.892q24 0 42 18t18 42v118.565q0 24-18 42t-42 18H542.63Zm36.892-60h60v-118.565h-60v118.565ZM480-71.869q-84.913 0-159.345-32.118t-129.491-87.177q-55.059-55.059-87.177-129.491Q71.869-395.087 71.869-480t32.118-159.345q32.118-74.432 87.177-129.491 55.059-55.059 129.491-87.177Q395.087-888.131 480-888.131t159.345 32.118q74.432 32.118 129.491 87.177 55.059 55.059 87.177 129.491Q888.131-564.913 888.131-480t-32.118 159.345q-32.118 74.432-87.177 129.491-55.059 55.059-129.491 87.177Q564.913-71.869 480-71.869Zm-.002-91.001q131.806 0 224.469-92.543Q797.13-347.957 797.13-480t-92.661-224.587q-92.66-92.543-224.467-92.543-131.806 0-224.469 92.543Q162.87-612.043 162.87-480t92.661 224.587q92.66 92.543 224.467 92.543ZM480-480Zm-59.522 139.283V-380h-80v39.283h80Zm-80 60v49.282q0 13-8.5 21.5t-21.5 8.5q-13 0-21.5-8.5t-8.5-21.5V-410q0-13 8.5-21.5t21.5-8.5h110q25 0 42.5 17.5t17.5 42.5v39.283q0 18-10.5 32.5t-25.5 23.5l18.761 43.282q6 14-2.426 27t-23.296 13q-7.93 0-15.365-4.5-7.435-4.5-10.674-12.5l-27-62.282h-44Z"/>
</svg>
