<svg aria-hidden="true" viewBox="0 -960 960 960" fill="currentColor">
  <path d="M797.478-358.087q-8.674 0-15.913-4.978-7.239-4.978-10.717-12.174l-26.815-60.457h-40.685v45.616q0 3.65-.5 6.387-.5 2.736-2.022 5.497L639.522-439.5v-116.913q0-19.152 13.174-32.326t32.326-13.174h93.065q26.152 0 44.989 18.837 18.837 18.837 18.837 44.989v40q0 18.478-10.141 32.5-10.142 14.022-24.902 23.022l18.282 43.087q7.478 17.956-.511 29.674-7.989 11.717-27.163 11.717Zm-94.13-140h74.739v-40h-74.739v40Zm56.065 414.522L82.565-760.174q-11.717-11.717-11.978-28.935-.261-17.217 12.217-29.695 11.718-11.718 29.316-11.718 17.597 0 29.315 11.718l677.369 676.087q12.479 12.478 12.098 29.195-.38 16.718-12.098 29.196-12.478 12.478-29.695 12.859-17.218.38-29.696-12.098ZM582.63-496.87 477.587-601.913h41.217q26.153 0 44.99 18.837 18.836 18.837 18.836 44.989v41.217ZM118.087-390v-180q0-13.829 9.042-22.871 9.042-9.042 22.871-9.042 13.829 0 22.871 9.042 9.042 9.042 9.042 22.871v48.087h76.174V-570q0-13.829 9.042-22.871 9.042-9.042 22.871-9.042 13.829 0 22.871 9.042 9.042 9.042 9.042 22.871v180q0 13.829-9.042 22.871-9.042 9.042-22.871 9.042-13.829 0-22.871-9.042-9.042-9.042-9.042-22.871v-68.087h-76.174V-390q0 13.829-9.042 22.871-9.042 9.042-22.871 9.042-13.829 0-22.871-9.042-9.042-9.042-9.042-22.871Zm260-133.522 63.826 63.826v37.783h38.304l59.305 59.826q-5.359 2-10.718 3-5.358 1-10.717 1h-140v-165.435Z"/>
</svg>
