<svg aria-hidden="true" viewBox="0 -960 960 960" fill="currentColor">
  <path d="m703.413-536.478-71.326-71.327q1.522-9.565 3.283-17.891 1.76-8.326 1.76-17.891 0-65.043-46.043-111.087Q545.043-800.717 480-800.717q-9.565 0-17.891 1.141-8.326 1.141-16.131 3.663l-73.087-72.848q26-12.239 53.036-17.598 27.037-5.359 54.073-5.359 103.109 0 175.62 72.511 72.511 72.511 72.511 175.548 0 26.789-6.12 53.865-6.12 27.077-18.598 53.316Zm-77.826 151.435-36.326-36.087q-24.674 12.956-53.011 19.195-28.337 6.239-56.25 6.239-103.109 0-175.62-72.391-72.511-72.391-72.511-175.543 0-29.914 6.479-57.588 6.478-27.673 19.195-51.869l-36.087-36.087q-11.717-11.717-11.717-29.315t11.717-29.316q11.718-11.717 29.316-11.717t29.315 11.717l403.891 404.131q11.718 11.717 11.718 29.315t-11.718 29.316q-11.717 11.717-29.195 11.717-17.479 0-29.196-11.717ZM518.652-491.978l-190.5-190.5q-2.761 7.521-4.022 18.132-1.26 10.61-1.26 20.759 0 65.043 46.043 110.967Q414.957-486.696 480-486.696q10.072 0 20.601-1.261t18.051-4.021ZM851.919-76.413q-13.723 0-22.821-8.974-9.098-8.975-9.098-22.7v-44.5h-44.5q-13.829 0-22.871-9.042-9.042-9.042-9.042-22.871 0-13.829 9.042-22.871 9.042-9.042 22.871-9.042H820v-44.5q0-13.725 9.042-22.699 9.042-8.975 22.871-8.975 13.725 0 22.7 8.975 8.974 8.974 8.974 22.699v44.5h44.5q13.829 0 22.871 9.042Q960-198.329 960-184.5q0 13.829-9.042 22.871-9.042 9.042-22.871 9.042h-44.5v44.5q0 13.725-8.973 22.7-8.972 8.974-22.695 8.974Zm-300 1.913q-13.723 0-22.821-9.042T520-106.413V-291.63q0-9.435 6.717-16.152 6.718-6.718 16.153-6.718H660q26.152 0 44.87 18.718 18.717 18.717 18.717 44.869v38.33q0 22.04-9.902 34.54t-24.902 20.978l18.565 41.695q7.956 16.957-.522 28.914Q698.348-74.5 679.913-74.5q-8.478 0-16.196-4.859-7.717-4.858-11.195-12.337l-26.609-58.499h-42.326v43.782q0 13.829-8.973 22.871-8.972 9.042-22.695 9.042Zm31.668-138.087H660v-38.326h-76.413v38.326ZM31.919-74.5q-13.723 0-22.821-9.042T0-106.413v-176.174q0-13.829 9.042-22.871 9.042-9.042 22.871-9.042 13.726 0 22.7 9.042 8.974 9.042 8.974 22.871v48.805H140v-48.805q0-13.829 9.042-22.871 9.042-9.042 22.871-9.042 13.725 0 22.7 9.042 8.974 9.042 8.974 22.871v176.174q0 13.829-8.973 22.871-8.972 9.042-22.695 9.042t-22.821-9.042Q140-92.584 140-106.413v-65.456H63.587v65.456q0 13.829-8.973 22.871Q45.642-74.5 31.92-74.5Zm250.951 0q-9.435 0-16.153-6.717Q260-87.935 260-97.37v-194.26q0-9.435 6.717-16.152 6.718-6.718 16.153-6.718H400q26.152 0 44.87 18.718 18.717 18.717 18.717 44.869v112.826q0 26.152-18.717 44.87Q426.152-74.5 400-74.5H282.87Zm40.717-63.587H400v-112.826h-76.413v112.826Z"/>
</svg>
