<svg aria-hidden="true" viewBox="0 -960 960 960" fill="currentColor">
  <path d="M851.919-76.413q-13.723 0-22.821-8.974-9.098-8.975-9.098-22.7v-44.5h-44.5q-13.829 0-22.871-9.042-9.042-9.042-9.042-22.871 0-13.829 9.042-22.871 9.042-9.042 22.871-9.042H820v-44.5q0-13.725 9.042-22.699 9.042-8.975 22.871-8.975 13.725 0 22.7 8.975 8.974 8.974 8.974 22.699v44.5h44.5q13.829 0 22.871 9.042Q960-198.329 960-184.5q0 13.829-9.042 22.871-9.042 9.042-22.871 9.042h-44.5v44.5q0 13.725-8.973 22.7-8.972 8.974-22.695 8.974ZM480-486.696q65.043 0 111.087-45.924 46.043-45.924 46.043-110.967t-46.043-111.087Q545.043-800.717 480-800.717t-111.087 46.043Q322.87-708.63 322.87-643.587t46.043 110.967Q414.957-486.696 480-486.696Zm0 91q-103.109 0-175.62-72.391-72.511-72.391-72.511-175.5t72.511-175.62q72.511-72.511 175.62-72.511 103.109 0 175.62 72.511 72.511 72.511 72.511 175.62 0 103.109-72.511 175.5T480-395.696ZM551.919-74.5q-13.723 0-22.821-9.042T520-106.413V-291.63q0-9.435 6.717-16.152 6.718-6.718 16.153-6.718H660q26.152 0 44.87 18.718 18.717 18.717 18.717 44.869v38.33q0 22.04-9.902 34.54t-24.902 20.978l18.565 41.695q7.956 16.957-.522 28.914Q698.348-74.5 679.913-74.5q-8.478 0-16.196-4.859-7.717-4.858-11.195-12.337l-26.609-58.499h-42.326v43.782q0 13.829-8.973 22.871-8.972 9.042-22.695 9.042Zm31.668-138.087H660v-38.326h-76.413v38.326ZM31.919-74.5q-13.723 0-22.821-9.042T0-106.413v-176.174q0-13.829 9.042-22.871 9.042-9.042 22.871-9.042 13.726 0 22.7 9.042 8.974 9.042 8.974 22.871v48.805H140v-48.805q0-13.829 9.042-22.871 9.042-9.042 22.871-9.042 13.725 0 22.7 9.042 8.974 9.042 8.974 22.871v176.174q0 13.829-8.973 22.871-8.972 9.042-22.695 9.042t-22.821-9.042Q140-92.584 140-106.413v-65.456H63.587v65.456q0 13.829-8.973 22.871Q45.642-74.5 31.92-74.5Zm250.951 0q-9.435 0-16.153-6.717Q260-87.935 260-97.37v-194.26q0-9.435 6.717-16.152 6.718-6.718 16.153-6.718H400q26.152 0 44.87 18.718 18.717 18.717 18.717 44.869v112.826q0 26.152-18.717 44.87Q426.152-74.5 400-74.5H282.87Zm40.717-63.587H400v-112.826h-76.413v112.826Z"/>
</svg>
