<svg aria-hidden="true" viewBox="0 -960 960 960" fill="currentColor">
  <path d="M850-80q-13 0-21.5-8.5T820-110v-50h-50q-13 0-21.5-8.5T740-190q0-13 8.5-21.5T770-220h50v-50q0-13 8.5-21.5T850-300q13 0 21.5 8.5T880-270v50h50q13 0 21.5 8.5T960-190q0 13-8.5 21.5T930-160h-50v50q0 13-8.5 21.5T850-80ZM480-480q66 0 113-47t47-113q0-66-47-113t-113-47q-66 0-113 47t-47 113q0 66 47 113t113 47Zm0 80q-100 0-170-70t-70-170q0-100 70-170t170-70q100 0 170 70t70 170q0 100-70 170t-170 70Zm70 320q-13 0-21.5-8.5T520-110v-190q0-8 6-14t14-6h120q24 0 42 18t18 42v40q0 23-10.5 35.5T684-164l20 46q7 16-1 27t-25 11q-8 0-15-4.5T653-96l-29-64h-44v50q0 13-8.5 21.5T550-80Zm30-140h80v-40h-80v40ZM30-80q-13 0-21.5-8.5T0-110v-180q0-13 8.5-21.5T30-320q13 0 21.5 8.5T60-290v50h80v-50q0-13 8.5-21.5T170-320q13 0 21.5 8.5T200-290v180q0 13-8.5 21.5T170-80q-13 0-21.5-8.5T140-110v-70H60v70q0 13-8.5 21.5T30-80Zm250 0q-8 0-14-6t-6-14v-200q0-8 6-14t14-6h120q24 0 42 18t18 42v120q0 24-18 42t-42 18H280Zm40-60h80v-120h-80v120Z"/>
</svg>
