<svg aria-hidden="true" viewBox="0 -960 960 960" fill="currentColor">
  <path d="m437.522-636.783 40.435-116.239H482l40 116.239h-84.478Zm42.506 241.087q-103.376 0-175.767-72.314-72.392-72.314-72.392-175.619 0-103.306 72.364-175.697 72.363-72.392 175.739-72.392t175.767 72.364q72.392 72.363 72.392 175.739t-72.364 175.648q-72.363 72.271-175.739 72.271ZM379.609-522.152q7.239 0 13.956-4.859 6.718-4.859 8.957-11.337l20.282-55.087h114.392l20.282 54.848q2.211 6.574 8.844 11.504 6.633 4.931 14.372 4.931 14.371 0 21.35-9.837 6.978-9.837 1.5-23.033l-86.24-224.848q-4.239-10.956-14.95-18.532-10.712-7.576-23.115-7.576-12.196 0-23.13 7.576-10.935 7.576-15.174 18.532l-84 225.087q-5.239 13.196 1.619 22.913 6.859 9.718 21.055 9.718Zm472.31 445.739q-13.723 0-22.821-8.974-9.098-8.975-9.098-22.7v-44.5h-44.5q-13.829 0-22.871-9.042-9.042-9.042-9.042-22.871 0-13.829 9.042-22.871 9.042-9.042 22.871-9.042H820v-44.5q0-13.725 9.042-22.699 9.042-8.975 22.871-8.975 13.725 0 22.7 8.975 8.974 8.974 8.974 22.699v44.5h44.5q13.829 0 22.871 9.042Q960-198.329 960-184.5q0 13.829-9.042 22.871-9.042 9.042-22.871 9.042h-44.5v44.5q0 13.725-8.973 22.7-8.972 8.974-22.695 8.974Zm-300 1.913q-13.723 0-22.821-9.042T520-106.413V-291.63q0-9.435 6.717-16.152 6.718-6.718 16.153-6.718H660q26.152 0 44.87 18.718 18.717 18.717 18.717 44.869v38.33q0 22.04-9.902 34.54t-24.902 20.978l18.565 41.695q7.956 16.957-.522 28.914Q698.348-74.5 679.913-74.5q-8.478 0-16.196-4.859-7.717-4.858-11.195-12.337l-26.609-58.499h-42.326v43.782q0 13.829-8.973 22.871-8.972 9.042-22.695 9.042Zm31.668-138.087H660v-38.326h-76.413v38.326ZM31.919-74.5q-13.723 0-22.821-9.042T0-106.413v-176.174q0-13.829 9.042-22.871 9.042-9.042 22.871-9.042 13.726 0 22.7 9.042 8.974 9.042 8.974 22.871v48.805H140v-48.805q0-13.829 9.042-22.871 9.042-9.042 22.871-9.042 13.725 0 22.7 9.042 8.974 9.042 8.974 22.871v176.174q0 13.829-8.973 22.871-8.972 9.042-22.695 9.042t-22.821-9.042Q140-92.584 140-106.413v-65.456H63.587v65.456q0 13.829-8.973 22.871Q45.642-74.5 31.92-74.5Zm250.951 0q-9.435 0-16.153-6.717Q260-87.935 260-97.37v-194.26q0-9.435 6.717-16.152 6.718-6.718 16.153-6.718H400q26.152 0 44.87 18.718 18.717 18.717 18.717 44.869v112.826q0 26.152-18.717 44.87Q426.152-74.5 400-74.5H282.87Zm40.717-63.587H400v-112.826h-76.413v112.826Z"/>
</svg>
