<svg aria-hidden="true" viewBox="0 -960 960 960" fill="currentColor">
  <path d="M671.435-358.087q-13.829 0-22.871-9.042-9.042-9.042-9.042-22.871v-166.413q0-19.152 13.174-32.326t32.326-13.174h93.065q26.152 0 44.989 18.837 18.837 18.837 18.837 44.989v40q0 22.044-10.022 34.544-10.021 12.5-25.021 20.978l18.282 43.087q7.478 17.717-.511 29.554t-27.163 11.837q-8.435 0-15.793-4.859-7.359-4.858-10.837-12.293l-26.815-60.457h-40.685V-390q0 13.829-9.042 22.871-9.042 9.042-22.871 9.042Zm31.913-140h74.739v-40h-74.739v40ZM150-358.087q-13.829 0-22.871-9.042-9.042-9.042-9.042-22.871v-180q0-13.829 9.042-22.871 9.042-9.042 22.871-9.042 13.829 0 22.871 9.042 9.042 9.042 9.042 22.871v48.087h76.174V-570q0-13.829 9.042-22.871 9.042-9.042 22.871-9.042 13.829 0 22.871 9.042 9.042 9.042 9.042 22.871v180q0 13.829-9.042 22.871-9.042 9.042-22.871 9.042-13.829 0-22.871-9.042-9.042-9.042-9.042-22.871v-68.087h-76.174V-390q0 13.829-9.042 22.871-9.042 9.042-22.871 9.042Zm251.913 0q-9.435 0-16.272-6.837-6.837-6.837-6.837-16.272v-197.608q0-9.435 6.837-16.272 6.837-6.837 16.272-6.837h116.891q26.153 0 44.99 18.837 18.836 18.837 18.836 44.989v116.174q0 26.152-18.836 44.989-18.837 18.837-44.99 18.837H401.913Zm40.717-63.826h76.174v-116.174H442.63v116.174Z"/>
</svg>
