<svg aria-hidden="true" viewBox="0 -960 960 960" fill="currentColor">
  <path d="M670-360q-13 0-21.5-8.5T640-390v-170q0-17 11.5-28.5T680-600h100q24 0 42 18t18 42v40q0 23-10.5 35.5T804-444l19 45q7 17-.5 28T797-360q-7 0-14-4.5T773-375l-29-65h-44v50q0 13-8.5 21.5T670-360Zm30-140h80v-40h-80v40ZM150-360q-13 0-21.5-8.5T120-390v-180q0-13 8.5-21.5T150-600q13 0 21.5 8.5T180-570v50h80v-50q0-13 8.5-21.5T290-600q13 0 21.5 8.5T320-570v180q0 13-8.5 21.5T290-360q-13 0-21.5-8.5T260-390v-70h-80v70q0 13-8.5 21.5T150-360Zm250 0q-8 0-14-6t-6-14v-200q0-8 6-14t14-6h120q24 0 42 18t18 42v120q0 24-18 42t-42 18H400Zm40-60h80v-120h-80v120Z"/>
</svg>
