<svg aria-hidden="true" viewBox="0 -960 960 960" fill="currentColor">
  <path d="m696-536-62-62q2-11 4-21t2-21q0-66-47-113t-113-47q-11 0-21 1.5t-19 4.5l-64-64q26-12 52-17t52-5q100 0 170 70t70 170q0 26-6 52t-18 52Zm-74 150-38-38q-23 12-50.5 18t-53.5 6q-100 0-170-70t-70-170q0-29 6-55t18-49l-38-38q-11-11-11-28t11-28q11-11 28-11t28 11l396 396q11 11 11 28t-11 28q-11 11-28 11t-28-11ZM522-486 326-682q-3 8-4.5 19.5T320-640q0 66 47 113t113 47q11 0 22.5-1.5T522-486ZM850-80q-13 0-21.5-8.5T820-110v-50h-50q-13 0-21.5-8.5T740-190q0-13 8.5-21.5T770-220h50v-50q0-13 8.5-21.5T850-300q13 0 21.5 8.5T880-270v50h50q13 0 21.5 8.5T960-190q0 13-8.5 21.5T930-160h-50v50q0 13-8.5 21.5T850-80Zm-300 0q-13 0-21.5-8.5T520-110v-190q0-8 6-14t14-6h120q24 0 42 18t18 42v40q0 23-10.5 35.5T684-164l20 46q7 16-1 27t-25 11q-8 0-15-4.5T653-96l-29-64h-44v50q0 13-8.5 21.5T550-80Zm30-140h80v-40h-80v40ZM30-80q-13 0-21.5-8.5T0-110v-180q0-13 8.5-21.5T30-320q13 0 21.5 8.5T60-290v50h80v-50q0-13 8.5-21.5T170-320q13 0 21.5 8.5T200-290v180q0 13-8.5 21.5T170-80q-13 0-21.5-8.5T140-110v-70H60v70q0 13-8.5 21.5T30-80Zm250 0q-8 0-14-6t-6-14v-200q0-8 6-14t14-6h120q24 0 42 18t18 42v120q0 24-18 42t-42 18H280Zm40-60h80v-120h-80v120Z"/>
</svg>
