<svg aria-hidden="true" viewBox="0 -960 960 960" fill="currentColor">
  <path d="M844-234 625-453q10-12 25-19.5t34-7.5h80v-40q0-118-82-199t-198-81q-44 0-83.5 12.5T328-752l-58-56q45-35 99.5-53.5T484-880q74 0 139.5 28T738-775q49 49 77.5 114.5T844-520v286ZM524-40q-17 0-28.5-11.5T484-80q0-17 11.5-28.5T524-120h200l-40-40q-33 0-56.5-23.5T604-240L223-621q-9 24-14 49t-5 52v40h80q33 0 56.5 23.5T364-400v160q0 33-23.5 56.5T284-160h-80q-33 0-56.5-23.5T124-240v-280q0-45 9.5-84.5T163-682L56-789q-12-12-11.5-28T57-845q12-11 28-11.5t28 11.5l735 736q11 11 11 27.5T848-53q-12 12-27.5 13T797-47q-6 5-14 6t-19 1H524Z"/>
</svg>
