<svg aria-hidden="true" viewBox="0 -960 960 960" fill="currentColor">
  <path d="M218-104 104-218q-23-23-23-56t23-56l526-526q23-23 56-23t56 23l114 114q23 23 23 56t-23 56L330-104q-23 23-56 23t-56-23Zm290-122 226-226 122 122q23 23 23 56t-23 56L742-104q-23 23-56 23t-56-23L508-226Zm.5-145.5Q520-383 520-400t-11.5-28.5Q497-440 480-440t-28.5 11.5Q440-417 440-400t11.5 28.5Q463-360 480-360t28.5-11.5ZM400-440q17 0 28.5-11.5T440-480q0-17-11.5-28.5T400-520q-17 0-28.5 11.5T360-480q0 17 11.5 28.5T400-440Zm160 0q17 0 28.5-11.5T600-480q0-17-11.5-28.5T560-520q-17 0-28.5 11.5T520-480q0 17 11.5 28.5T560-440Zm-335-69L104-630q-23-23-23-56t23-56l114-114q23-23 56-23t56 23l122 122-227 225Zm283.5-22.5Q520-543 520-560t-11.5-28.5Q497-600 480-600t-28.5 11.5Q440-577 440-560t11.5 28.5Q463-520 480-520t28.5-11.5Z"/>
</svg>
