<svg aria-hidden="true" viewBox="0 -960 960 960" fill="currentColor">
  <path d="M485.5-514.5Q500-529 500-550t-14.5-35.5Q471-600 450-600t-35.5 14.5Q400-571 400-550t14.5 35.5Q429-500 450-500t35.5-14.5ZM486-349l166-166q12-12 12-28.5T652-572q-12-12-28.5-12T595-572L428-405q-12 12-11.5 28t12.5 28q12 12 28.5 12t28.5-12Zm179.5 14.5Q680-349 680-370t-14.5-35.5Q651-420 630-420t-35.5 14.5Q580-391 580-370t14.5 35.5Q609-320 630-320t35.5-14.5ZM760-200H320q-33 0-56.5-23.5T240-280v-560q0-33 23.5-56.5T320-920h247q16 0 30.5 6t25.5 17l194 194q11 11 17 25.5t6 30.5v367q0 33-23.5 56.5T760-200Zm0-440H620q-25 0-42.5-17.5T560-700v-140H320v560h440v-360ZM160-40q-33 0-56.5-23.5T80-120v-520q0-17 11.5-28.5T120-680q17 0 28.5 11.5T160-640v520h400q17 0 28.5 11.5T600-80q0 17-11.5 28.5T560-40H160Zm160-800v200-200 560-560Z"/>
</svg>
