<svg aria-hidden="true" viewBox="0 -960 960 960" fill="currentColor">
  <path d="M280-80q-54 0-96-32.5T127-195q-5-17 7-31t32-14q13 0 23.5 9t17.5 24q10 21 29.5 34t43.5 13q31 0 52.5-20t39.5-66q11-27 20-46t20-33.5q11-14.5 25-26.5t33-25L204-643v3q-3 17-15 28.5T160-600q-17 0-28-12t-9-29q2-17 6.5-33.5T140-707l-85-85q-12-12-12-28.5T55-849q12-12 28.5-12t28.5 12l736 736q12 12 12 28.5T848-56q-12 12-28.5 11.5T791-57L526-321q-20 16-32.5 28t-21 24q-8.5 12-15.5 27.5T442-202q-20 58-62.5 90T280-80Zm466-249-57-57q35-47 53-101.5T760-600q0-65-20.5-122T681-826q-11-14-10-30.5t12-27.5q13-12 30-10.5t29 16.5q45 57 71.5 128T840-600q0 73-24 142t-70 129ZM637-438l-58-58q11-23 16-49t5-55q0-85-57.5-142.5T400-800q-26 0-51 6.5T301-774l-59-59q35-23 75-35t83-12q119 0 199.5 80.5T680-600q0 45-10.5 85.5T637-438ZM497-578 377-698q5-2 11-2h12q42 0 71 29t29 71q0 6-.5 11.5T497-578Zm-97 78q-42 0-71-29.5T300-600q0-13 3-25t10-23l136 136q-11 6-23.5 9t-25.5 3Z"/>
</svg>
