<svg aria-hidden="true" viewBox="0 -960 960 960" fill="currentColor">
  <path d="M274.5-73.304q-54.718 0-97.555-32.261-42.836-32.261-59.271-84.174-6.674-21.065 6.761-37.815 13.434-16.75 37.739-16.75 14.196 0 25.891 9.717 11.696 9.717 19.413 26.87 9.044 19.565 27.228 31.489 18.185 11.924 40.272 11.924 30.044 0 49.989-19.283 19.946-19.283 37.468-65.761 10.282-25.804 19.402-44.804 9.119-19 20.478-33.978 11.359-14.979 26.196-27.935 14.837-12.957 34.554-26.674L204.957-640.848v2.522q-3.957 18.913-17.631 31.967-13.674 13.055-32.826 13.055t-31.946-13.794q-12.793-13.793-10.076-32.706 2.717-19.153 8.054-37.326 5.337-18.174 12.533-35.609L55-790.804Q42.522-803.283 42.522-820.5q0-17.217 12.478-29.696 12.478-12.478 29.696-12.478 17.217 0 29.695 12.478l738.631 738.631Q865.5-99.087 865.5-81.87q0 17.218-12.478 29.696-12.478 12.478-29.696 12.098-17.217-.38-29.696-12.859L527.196-318.609q-20.239 16.239-33.098 28.359-12.859 12.12-21.598 24.359-8.739 12.239-15.859 27.978-7.119 15.739-15.358 40.217-20.479 58.957-64.294 91.674Q333.174-73.304 274.5-73.304Zm484.652-250.674-65.369-65.609q32.608-46.522 49.413-99.707Q760-542.478 760-598.804q0-63.805-19.543-120.805-19.544-57-56.827-105.195-11.239-14.718-10.119-32.413 1.119-17.696 12.837-29.413 15.63-14.631 35.739-12.772 20.109 1.858 33.783 20.445 44.282 58.674 69.706 130.272Q851-677.087 851-598.804q0 73.956-23.402 143.793t-68.446 131.033ZM640.348-443.022l-68.522-68.283q8.848-19.413 13.011-41.228Q589-574.348 589-598.804q0-82.609-55.946-138.555-55.945-55.945-138.554-55.945-21.696 0-42.75 5.304t-40.467 15.913l-68.805-68.804q34.044-21.566 72.489-32.49 38.446-10.923 79.533-10.923 121.152 0 203.326 82.174Q680-719.957 680-598.804q0 42.847-9.783 81.793-9.782 38.946-29.869 73.989ZM488.63-594.74l-97.999-97.999q4.282-1.522 8.967-1.522h9.728q34.348 0 57.967 23.62 23.62 23.619 23.62 57.967 0 5.043-.381 9.348-.38 4.304-1.902 8.586Zm-97.717 100.479q-42 0-71-29.5t-29-70.5q0-16.826 5.63-31.337 5.631-14.511 16.457-25.989l136 136q-11.478 10.065-26.37 15.696-14.891 5.63-31.717 5.63Z"/>
</svg>
