<svg aria-hidden="true" viewBox="0 -960 960 960" fill="currentColor">
  <path d="M480-340q54 0 98.5-29.5T646-448q7-15 0-30t-23-21q-15-6-29.5.5T572-477q-12 27-37.5 42T480-420q-29 0-54.5-15T388-477q-7-15-21.5-21.5T337-499q-16 6-23 21t0 30q23 49 67.5 78.5T480-340Zm-74.5-214.5Q420-569 420-590t-14.5-35.5Q391-640 370-640t-35.5 14.5Q320-611 320-590t14.5 35.5Q349-540 370-540t35.5-14.5Zm220 0Q640-569 640-590t-14.5-35.5Q611-640 590-640t-35.5 14.5Q540-611 540-590t14.5 35.5Q569-540 590-540t35.5-14.5ZM480-756q34-40 81-62t99-22q94 0 157 63t63 157q0 42-12.5 80.5t-43 83Q794-412 742.5-359T613-236l-80 70q-23 20-53 20t-53-20l-80-70q-78-70-129.5-123t-82-97.5q-30.5-44.5-43-83T80-620q0-94 63-157t157-63q52 0 99 22t81 62Z"/>
</svg>
