<svg aria-hidden="true" viewBox="0 -960 960 960" fill="currentColor">
  <path d="M681-80q-62 0-101.5-31T519-202q-17-50-32.5-70T415-336q-62-50-98-113t-36-151q0-119 80.5-199.5T561-880q108 0 185 67t92 170q2 17-9 30t-30 13q-14 0-26-10t-15-26q-12-71-67-117.5T561-800q-85 0-142.5 57.5T361-600q0 68 27 116t77 86q52 38 81 74t43 78q14 44 33.5 65t58.5 21q24 0 43.5-13t29.5-34q7-15 17.5-24t23.5-9q20 0 32 14t7 31q-15 50-57 82.5T681-80ZM216-327q-45-57-70-126.5T121-600q0-79 26.5-150T219-878q12-15 29-16.5t30 10.5q11 11 12 27.5T280-826q-38 47-58.5 104T201-600q0 63 20.5 120T280-376q11 14 10.5 30.5T278-318q-13 12-31.5 9T216-327Zm345-173q-42 0-71-29.5T461-600q0-42 29-71t71-29q42 0 71 29t29 71q0 41-29 70.5T561-500Z"/>
</svg>
