<svg aria-hidden="true" viewBox="0 -960 960 960" fill="currentColor">
  <path d="M310-310q-70-70-70-170t70-170q70-70 170-70t170 70q70 70 70 170t-70 170q-70 70-170 70t-170-70Zm140-13v-85l-60 60q14 9 28.5 15.5T450-323Zm60 0q16-3 31-9.5t29-15.5l-60-60v85Zm102-67q9-14 15.5-29t9.5-31h-85l60 60Zm-60-120h85q-3-16-9.5-31T612-570l-60 60Zm-42-42 60-60q-14-9-28.5-15.5T510-637v85Zm-1.5 100.5Q520-463 520-480t-11.5-28.5Q497-520 480-520t-28.5 11.5Q440-497 440-480t11.5 28.5Q463-440 480-440t28.5-11.5ZM450-552v-85q-16 3-31 9.5T390-612l60 60Zm-127 42h85l-60-60q-9 14-15.5 29t-9.5 31Zm25 120 60-60h-85q3 16 9.5 31t15.5 29ZM200-120q-33 0-56.5-23.5T120-200v-560q0-33 23.5-56.5T200-840h560q33 0 56.5 23.5T840-760v560q0 33-23.5 56.5T760-120H200Zm0-80h560v-560H200v560Zm0-560v560-560Z"/>
</svg>
