<svg aria-hidden="true" viewBox="0 -960 960 960" fill="currentColor">
  <path d="M121.435-88.826q-37.783 0-64.392-26.609-26.608-26.608-26.608-64.391v-278.565q0-19.153 13.174-32.327 13.173-13.173 32.326-13.173H876.89q19.152 0 32.326 13.173 13.174 13.174 13.174 32.327v278.565q0 37.783-26.608 64.391-26.609 26.61-64.392 26.61H121.435Zm0-91h709.956v-233.065H121.435v233.065Zm709.956-233.065H121.435h709.956ZM282.87-219.826q-50.957 0-86.196-36.076t-35.239-87.033V-656q0-18.196 12.456-30.652 12.457-12.457 30.653-12.457 18.195 0 30.652 12.457 12.456 12.456 12.456 30.652v314.739q0 14.967 10.125 25.092 10.125 10.125 25.093 10.125 14.967 0 25.092-10.125 10.125-10.125 10.125-25.092V-576q0-50.957 35.239-87.033t86.196-36.076q50.956 0 86.195 36.076 35.24 36.076 35.24 87.033v234.739q0 14.967 10.125 25.092 10.124 10.125 25.092 10.125 14.967 0 25.092-10.125 10.125-10.125 10.125-25.092V-616q0-51.295 35.907-87.202t87.202-35.907H796l-14.457-14.456q-11.043-12.718-10.445-29.337.598-16.62 12.837-28.859 12.913-12.956 30.13-12.956 17.218 0 30.174 12.956l82.935 82.935q13.674 13.594 13.674 32.286t-13.674 32.366l-82.696 82.696q-12.195 12.195-29.511 11.815-17.315-.38-30.271-12.576-11.24-11.239-11.957-28.12-.717-16.88 9.565-28.837L796-652.891h-41.5q-15.679 0-26.285 10.606T717.609-616v273.065q0 50.957-35.239 87.033-35.24 36.076-86.196 36.076-50.957 0-86.196-36.076t-35.239-87.033v-234.739q0-14.967-10.125-25.092-10.125-10.125-25.092-10.125-14.968 0-25.093 10.125t-10.125 25.092v234.739q0 50.957-35.239 87.033t-86.195 36.076Z"/>
</svg>
