<svg aria-hidden="true" viewBox="0 -960 960 960" fill="currentColor">
  <path d="M121.435-88.826q-37.783 0-64.392-26.609-26.608-26.608-26.608-64.391v-278.565q0-19.153 13.174-32.327 13.173-13.173 32.326-13.173H876.89q19.152 0 32.326 13.173 13.174 13.174 13.174 32.327v278.565q0 37.783-26.608 64.391-26.609 26.61-64.392 26.61H121.435Zm161.435-131q50.956 0 86.195-36.076 35.239-36.076 35.239-87.033v-234.739q0-14.848 10.185-25.032 10.185-10.185 25.033-10.185t25.032 10.185q10.185 10.184 10.185 25.032v234.739q0 50.957 35.239 87.033t86.196 36.076q50.956 0 86.196-36.076 35.239-36.076 35.239-87.033V-616q0-15.565 10.663-26.228 10.663-10.663 26.228-10.663H796l-13.696 13.695q-10.282 11.957-9.565 28.837.717 16.881 11.957 28.12 12.956 12.196 30.271 12.576 17.316.38 29.511-11.815l82.696-82.696q13.674-13.674 13.674-32.326t-13.674-32.326l-82.935-82.935q-12.956-12.956-30.152-12.956t-30.152 12.956q-12.239 12.239-12.837 28.859-.598 16.619 10.445 29.337L796-739.109h-41.5q-51.196 0-87.152 35.957-35.957 35.956-35.957 87.152v274.739q0 14.848-10.185 25.033-10.184 10.184-25.032 10.184t-25.033-10.184q-10.184-10.185-10.184-25.033V-576q0-50.957-35.24-87.033-35.239-36.076-86.195-36.076-50.957 0-86.196 36.076T318.087-576v234.739q0 14.848-10.185 25.033-10.185 10.184-25.032 10.184-14.848 0-25.033-10.184-10.185-10.185-10.185-25.033V-656q0-18.196-12.456-30.652-12.457-12.457-30.652-12.457-18.196 0-30.653 12.457-12.456 12.456-12.456 30.652v313.065q0 50.957 35.239 87.033t86.196 36.076Z"/>
</svg>
