<svg aria-hidden="true" viewBox="0 -960 960 960" fill="currentColor">
  <path d="M120-96q-33 0-56.5-23.5T40-176v-280q0-17 11.5-28.5T80-496h800q17 0 28.5 11.5T920-456v280q0 33-23.5 56.5T840-96H120Zm160-120q50 0 85-35t35-85v-240q0-17 11.5-28.5T440-616q17 0 28.5 11.5T480-576v240q0 50 35 85t85 35q50 0 85-35t35-85v-280q0-17 11.5-28.5T760-656h47l-18 18q-11 11-11 28t11 28q12 11 28 11.5t27-10.5l87-87q12-12 12-28.5T931-725l-87-87q-12-12-28-12t-28 12q-12 12-12 28.5t12 28.5l19 19h-47q-50 0-85 35t-35 85v280q0 17-11.5 28.5T600-296q-17 0-28.5-11.5T560-336v-240q0-50-35-85t-85-35q-50 0-85 35t-35 85v240q0 17-11.5 28.5T280-296q-17 0-28.5-11.5T240-336v-320q0-17-11.5-28.5T200-696q-17 0-28.5 11.5T160-656v320q0 50 35 85t85 35Z"/>
</svg>
