<svg aria-hidden="true" viewBox="0 -960 960 960" fill="currentColor">
  <path d="M508.5-291.5Q520-303 520-320v-120q0-17-11.5-28.5T480-480q-17 0-28.5 11.5T440-440v120q0 17 11.5 28.5T480-280q17 0 28.5-11.5Zm0-280Q520-583 520-600t-11.5-28.5Q497-640 480-640t-28.5 11.5Q440-617 440-600t11.5 28.5Q463-560 480-560t28.5-11.5ZM240-120q-33 0-56.5-23.5T160-200v-360q0-19 8.5-36t23.5-28l240-180q21-16 48-16t48 16l240 180q15 11 23.5 28t8.5 36v360q0 33-23.5 56.5T720-120H240Zm0-80h480v-360L480-740 240-560v360Zm240-270Z"/>
</svg>
