<svg aria-hidden="true" viewBox="0 -960 960 960" fill="currentColor">
  <path d="M404.5-101Q361-162 361-240t43.5-139Q448-440 521-440t116.5 61Q681-318 681-240t-43.5 139Q594-40 521-40t-116.5-61ZM241-480q0 94-11 185.5T193-112q-5 17-20 27t-32 5q-17-5-23-22.5t-1-35.5q23-84 33.5-169T161-480q0-88-10.5-173T117-822q-5-18 1-35.5t23-22.5q17-5 32 5t20 27q26 91 37 182.5T241-480Zm560 0q0 88 10.5 173T845-138q5 18-1 35.5T821-80q-17 5-32-5t-20-27q-26-91-37-182.5T721-480q0-94 11-185.5T769-848q5-17 20-27t32-5q17 5 23 22.5t1 35.5q-23 84-33.5 169T801-480ZM581-157.5q20-37.5 20-82.5t-20-82.5Q561-360 521-360t-60 37.5Q441-285 441-240t20 82.5q20 37.5 60 37.5t60-37.5ZM490-168q9 8 21 8t21-9q14-14 21.5-32.5T561-240q0-20-7-38.5T533-311q-8-9-20.5-9t-21.5 8q-9 8-9.5 21t7.5 22l6 8.5q6 8.5 6 20.5t-6 20.5l-6 8.5q-9 9-8.5 22t9.5 21ZM324.5-581Q281-642 281-720t43.5-139Q368-920 441-920t116.5 61Q601-798 601-720t-43.5 139Q514-520 441-520t-116.5-61ZM501-637.5q20-37.5 20-82.5t-20-82.5Q481-840 441-840t-60 37.5Q361-765 361-720t20 82.5q20 37.5 60 37.5t60-37.5ZM471-648q9-8 9.5-21t-7.5-22q-5-6-8.5-13.5T461-720q0-8 3.5-15.5T473-749q8-9 8-21.5t-9-21.5q-9-8-21-8t-21 9q-14 14-21.5 32.5T401-720q0 20 7 38.5t21 32.5q9 9 21 9t21-8Zm-30-72Zm80 480Z"/>
</svg>
