<svg aria-hidden="true" viewBox="0 -960 960 960" fill="currentColor">
  <path d="M403.5-101Q360-162 360-240t43.5-139Q447-440 520-440t116.5 61Q680-318 680-240t-43.5 139Q593-40 520-40t-116.5-61ZM240-480q0 94-11 185.5T192-112q-5 17-20 27t-32 5q-17-5-23-22.5t-1-35.5q23-84 33.5-169T160-480q0-88-10.5-173T116-822q-5-18 1-35.5t23-22.5q17-5 32 5t20 27q26 91 37 182.5T240-480Zm560 0q0 88 10.5 173T844-138q5 18-1 35.5T820-80q-17 5-32-5t-20-27q-26-91-37-182.5T720-480q0-94 11-185.5T768-848q5-17 20-27t32-5q17 5 23 22.5t1 35.5q-23 84-33.5 169T800-480ZM489-168q9 8 21 8t21-9q14-14 21.5-32.5T560-240q0-20-7-38.5T532-311q-8-9-20.5-9t-21.5 8q-9 8-9.5 21t7.5 22l6 8.5q6 8.5 6 20.5t-6 20.5l-6 8.5q-9 9-8.5 22t9.5 21ZM323.5-581Q280-642 280-720t43.5-139Q367-920 440-920t116.5 61Q600-798 600-720t-43.5 139Q513-520 440-520t-116.5-61ZM470-648q9-8 9.5-21t-7.5-22q-5-6-8.5-13.5T460-720q0-8 3.5-15.5T472-749q8-9 8-21.5t-9-21.5q-9-8-21-8t-21 9q-14 14-21.5 32.5T400-720q0 20 7 38.5t21 32.5q9 9 21 9t21-8Z"/>
</svg>
