<svg aria-hidden="true" viewBox="0 -960 960 960" fill="currentColor">
  <path d="M150-360q-13 0-21.5-8.5T120-390v-180q0-13 8.5-21.5T150-600q13 0 21.5 8.5T180-570v50h40v-50q0-13 8.5-21.5T250-600q13 0 21.5 8.5T280-570v180q0 13-8.5 21.5T250-360q-13 0-21.5-8.5T220-390v-70h-40v70q0 13-8.5 21.5T150-360Zm570 0q-17 0-28.5-11.5T680-400v-160q0-17 11.5-28.5T720-600h80q17 0 28.5 11.5T840-560v10q0 13-8.5 21.5T810-520q-11 0-19.5-5T780-540h-40v120h40q2-10 10.5-15t19.5-5q13 0 21.5 8.5T840-410v10q0 17-11.5 28.5T800-360h-80Zm-166 0q-15 0-26.5-9.5T514-393l-29-174q-2-14 6.5-23.5T514-600q11 0 19.5 7.5T544-574l26 154 26-154q2-11 11-18.5t20-7.5q14 0 22 9.5t6 23.5l-29 174q-2 14-13.5 23.5T586-360h-32Zm-194 0q-17 0-28.5-11.5T320-400v-160q0-17 11.5-28.5T360-600h70q13 0 21.5 8.5T460-570q0 13-8.5 21.5T430-540h-50v20h50q13 0 21.5 8.5T460-490q0 13-8.5 21.5T430-460h-50v40h50q13 0 21.5 8.5T460-390q0 13-8.5 21.5T430-360h-70Z"/>
</svg>
