<svg aria-hidden="true" viewBox="0 -960 960 960" fill="currentColor">
  <path d="M138.761-358.087q-13.726 0-22.7-9.042-8.974-9.042-8.974-22.871v-180q0-13.829 8.972-22.871 8.973-9.042 22.696-9.042t22.821 9.042q9.098 9.042 9.098 22.871v48.087h40V-570q0-13.829 9.042-22.871 9.042-9.042 22.871-9.042 13.725 0 22.699 9.042 8.975 9.042 8.975 22.871v180q0 13.829-8.973 22.871-8.973 9.042-22.696 9.042t-22.82-9.042q-9.098-9.042-9.098-22.871v-68.087h-40V-390q0 13.829-9.042 22.871-9.042 9.042-22.871 9.042Zm588.731 0q-17.796 0-29.774-12.05-11.979-12.05-11.979-29.863v-160q0-17.813 11.982-29.863 11.981-12.05 29.692-12.05h83.747q17.797 0 29.775 12.05 11.978 12.05 11.978 29.863v10q0 13.829-8.995 22.871-8.996 9.042-22.754 9.042-11.642 0-20.381-5t-11.457-15h-40v116.174h40q2.718-10 11.457-15t20.381-5q13.758 0 22.754 9.042 8.995 9.042 8.995 22.871v10q0 17.813-11.981 29.863t-29.693 12.05h-83.747Zm-170.144 0q-16.888 0-29.835-10.696-12.948-10.695-15.426-26.847l-28.522-170.653q-2.239-14.956 6.739-25.293 8.979-10.337 24.174-10.337 11.239 0 20.337 7.859 9.098 7.858 11.098 19.097l26 154.957 26.239-154.957q2-11.239 11.446-19.097 9.445-7.859 20.989-7.859 15.004 0 23.578 10.337t6.335 25.293L631.978-395.87q-2.478 16.153-15.425 26.968-12.948 10.815-29.836 10.815h-29.369Zm-197.587 0q-19.152 0-32.326-13.174t-13.174-32.326v-152.826q0-19.152 13.174-32.326t32.326-13.174h66.413q13.829 0 22.871 9.042 9.042 9.042 9.042 22.871 0 13.829-9.042 22.871-9.042 9.042-22.871 9.042h-48.087v18.804h50q13 0 21.5 8.5t8.5 21.5q0 13-8.5 21.5t-21.5 8.5h-50v37.37h48.087q13.829 0 22.871 9.042 9.042 9.042 9.042 22.871 0 13.829-9.042 22.871-9.042 9.042-22.871 9.042h-66.413Z"/>
</svg>
