<svg aria-hidden="true" viewBox="0 -960 960 960" fill="currentColor">
  <path d="m763-84-63-62q-49 32-104.5 49T480-80q-83 0-156-31.5T197-197q-54-54-85.5-127T80-480q0-60 17-115.5T146-700l-63-63q-12-12-12-28.5T83-820q12-12 28.5-12t28.5 12l680 680q12 12 12 28t-12 28q-12 12-28.5 12T763-84Zm-283-76q43 0 83.5-11t78.5-33L204-642q-22 38-33 78.5T160-480q0 133 93.5 226.5T480-160Zm334-100-58-58q22-38 33-78.5t11-83.5q0-133-93.5-226.5T480-800q-43 0-83.5 11T318-756l-58-58q49-32 104.5-49T480-880q83 0 156 31.5T763-763q54 54 85.5 127T880-480q0 60-17 115.5T814-260ZM537-537ZM423-423Z"/>
</svg>
