<svg aria-hidden="true" viewBox="0 -960 960 960" fill="currentColor">
  <path d="m186.043-673.457-26.369-26.369q-14.435-13.435-14.816-31.826-.38-18.392 13.816-31.827 13.435-13.673 32.206-14.173 18.772-.5 32.446 13.173l26.37 26.37q12.674 12.674 13.174 31.326t-13.174 32.326q-12.674 12.674-31.446 13.174-18.772.5-32.207-12.174ZM480-763.587q-19.152 0-32.326-13.174T434.5-809.087V-845.5q0-19.152 13.174-32.326T480-891q19.152 0 32.326 13.174T525.5-845.5v36.413q0 19.152-13.174 32.326T480-763.587Zm232.304 89.891q-13.434-13.435-13.554-32.587-.12-19.152 13.315-32.587l25.37-25.609Q749.87-776.913 769-776.913q19.131 0 32.326 13.434 12.435 12.674 12.555 31.827.119 19.152-12.555 31.826l-25.369 25.369q-13.435 13.435-31.707 13.935t-31.946-13.174ZM440-66.13q-37.544 0-64.272-26.729Q349-119.587 349-157.13v-115.457l-93.652-93.891q-12.435-12.435-19.392-28.967Q229-411.978 229-430.13v-129.392q0-19.152 13.174-32.326t32.326-13.174h411q19.152 0 32.326 13.174T731-559.522v129.392q0 18.152-6.956 34.685-6.957 16.532-19.392 28.967L611-272.587v115.457q0 37.543-26.728 64.271Q557.544-66.13 520-66.13h-80Zm0-91h80v-153.24l120-120v-86.76H320v86.76l120 120v153.24Zm40-180Z"/>
</svg>
