<svg aria-hidden="true" viewBox="0 -960 960 960" fill="currentColor">
  <path d="M771.5-771.5Q760-783 760-800t11.5-28.5Q783-840 800-840t28.5 11.5Q840-817 840-800t-11.5 28.5Q817-760 800-760t-28.5-11.5Zm0 160Q760-623 760-640t11.5-28.5Q783-680 800-680t28.5 11.5Q840-657 840-640t-11.5 28.5Q817-600 800-600t-28.5-11.5Zm0 160Q760-463 760-480t11.5-28.5Q783-520 800-520t28.5 11.5Q840-497 840-480t-11.5 28.5Q817-440 800-440t-28.5-11.5Zm0 160Q760-303 760-320t11.5-28.5Q783-360 800-360t28.5 11.5Q840-337 840-320t-11.5 28.5Q817-280 800-280t-28.5-11.5Zm-640 160Q120-143 120-160t11.5-28.5Q143-200 160-200t28.5 11.5Q200-177 200-160t-11.5 28.5Q177-120 160-120t-28.5-11.5Zm160 0Q280-143 280-160t11.5-28.5Q303-200 320-200t28.5 11.5Q360-177 360-160t-11.5 28.5Q337-120 320-120t-28.5-11.5Zm160 0Q440-143 440-160t11.5-28.5Q463-200 480-200t28.5 11.5Q520-177 520-160t-11.5 28.5Q497-120 480-120t-28.5-11.5Zm160 0Q600-143 600-160t11.5-28.5Q623-200 640-200t28.5 11.5Q680-177 680-160t-11.5 28.5Q657-120 640-120t-28.5-11.5Zm160 0Q760-143 760-160t11.5-28.5Q783-200 800-200t28.5 11.5Q840-177 840-160t-11.5 28.5Q817-120 800-120t-28.5-11.5ZM120-360v-400q0-33 23.5-56.5T200-840h400q33 0 56.5 23.5T680-760v400q0 33-23.5 56.5T600-280H200q-33 0-56.5-23.5T120-360Z"/>
</svg>
