<svg aria-hidden="true" viewBox="0 -960 960 960" fill="currentColor">
  <path d="M320-148.521q-37.783 0-64.391-26.609Q229-201.739 229-239.522v-77.13q0-19.152 13.174-32.326t32.326-13.174h77.369v-90q-34.043-2.718-65.065-16.457T230.5-508.87v-43.043h-44.804l-98.63-98.631q-16.284-16.282-16.284-34.043t16.283-31.283q30.435-25.956 73.772-39.793t91.576-13.837q25.326 0 49.869 3.88 24.544 3.881 49.587 13.924v-14.522q0-19.152 13.174-32.326t32.327-13.174h405.26q19.153 0 32.327 13.174t13.174 32.326v489.566q0 53.109-37.511 90.62T720-148.521H320Zm122.87-213.631h194.5q19.152 0 32.326 13.174t13.174 32.326v40q0 15.804 10.663 26.467 10.663 10.663 26.467 10.663 15.804 0 26.467-10.663 10.663-10.663 10.663-26.467v-444.065H442.87V-696l218.195 218.195q7.478 7.479 10.457 13.957 2.978 6.478 2.978 16.435 0 17.717-12.098 29.815-12.098 12.098-29.815 12.098-9.718 0-16.196-2.978-6.478-2.979-13.717-10.218l-96.261-96.5-6.565 6.566q-13.044 13.043-27.228 23.445-14.185 10.402-29.75 16.163v106.87ZM221.13-635.5h92.957v86.717q11.522 7.283 24.283 10.283 12.76 3 26.043 3 22.283 0 40.424-6.881 18.141-6.88 35.185-23.923l7.282-7.283-54.326-54.565q-29-29-64.522-43.381-35.521-14.38-76.043-14.38-19.043 0-36.207 2.761-17.163 2.761-34.206 8.522l39.13 39.13ZM320-239.522h277.869q-3-8.761-4.5-18.402-1.5-9.641-1.5-20.641H320v39.043Zm0 0v-39.043 39.043Z"/>
</svg>
