<svg aria-hidden="true" viewBox="0 -960 960 960" fill="currentColor">
  <path d="m525.5-498.152 118.326 118.326Q656.5-367.152 656.5-348t-12.674 31.826Q631.152-303.5 612-303.5t-31.826-12.674L447.935-448.413q-6.718-6.717-10.076-15.054Q434.5-471.804 434.5-481v-159q0-19.152 13.174-32.326T480-685.5q19.152 0 32.326 13.174T525.5-640v141.848ZM106.826-312.935q-13.478-29.956-21.717-62.032-8.24-32.076-11.24-65.033h92.001q2.76 20.761 8.141 41.283 5.38 20.521 13.38 40.282l-80.565 45.5ZM73.869-520q3-33.196 11.36-65.533 8.358-32.337 22.597-62.532l79.565 45.5q-8 19.761-13.38 40.402-5.381 20.641-8.141 42.163h-92Zm168.827 373.174q-27.957-20.478-51.674-44.696-23.718-24.217-44.196-52.174l79.804-45.739q13.522 17.761 28.783 33.141 15.261 15.381 33.022 28.903l-45.739 80.565Zm-15.305-524.739-80.565-45.739q20.478-27.957 44.196-51.674 23.717-23.718 51.674-44.196l45.739 80.565q-17 13.522-32.261 28.783-15.261 15.261-28.783 32.261ZM440-73.869q-33.196-3-65.533-11.36-32.337-8.358-62.532-22.597l45.5-79.804q19.761 8 40.402 13.5 20.641 5.5 42.163 8.26v92ZM357.435-772.37l-45.5-79.804q30.195-14.239 62.532-22.598 32.337-8.359 65.533-11.359v92.001q-21.522 2.76-42.163 8.26t-40.402 13.5ZM520-73.87v-92q21.522-2.76 42.163-8.26t40.402-13.5l45.5 79.804q-30.195 14.24-62.532 22.598Q553.196-76.87 520-73.87Zm82.565-698.5q-19.761-8-40.402-13.5-20.641-5.5-42.163-8.26v-92.001q33.196 3 65.533 11.359t62.532 22.598l-45.5 79.804Zm114.739 625.544-45.739-80.565q17-13.522 32.261-28.783 15.261-15.261 28.783-32.261l80.565 45.739q-20.478 27.957-44.196 52.055-23.717 24.098-51.674 43.815Zm15.066-524.978q-13.522-16.761-28.783-32.022-15.261-15.261-32.022-28.783l45.739-80.565q27.957 19.478 51.555 43.435 23.598 23.956 43.315 51.674l-79.804 46.261ZM794.13-520q-2.76-21.522-8.26-42.283-5.5-20.76-13.5-40.521l79.804-46.261q13.478 30.956 22.098 63.413 8.619 32.456 11.859 65.652H794.13Zm58.044 208.065-79.565-45.5q8-19.761 13.38-40.402 5.381-20.641 8.141-42.163h92.001q-3 33.196-11.359 65.533t-22.598 62.532Z"/>
</svg>
