<svg aria-hidden="true" viewBox="0 -960 960 960" fill="currentColor">
  <path d="M196.5-706Q185-718 185-735t11.5-28.5Q208-775 225-775t29 11.5q12 11.5 12 28.5t-12 29q-12 12-29 12t-28.5-12ZM358-799q-12-12-12-29t12-28.5q12-11.5 29-11.5t28.5 11.5Q427-845 427-828t-11.5 29Q404-787 387-787t-29-12Zm186.5 0Q533-811 533-828t11.5-28.5Q556-868 573-868t29 11.5q12 11.5 12 28.5t-12 29q-12 12-29 12t-28.5-12ZM706-706q-12-12-12-29t12-29q12-12 29-12t28.5 12q11.5 12 11.5 29t-11.5 29Q752-694 735-694t-29-12Zm93 161.5Q787-556 787-573t12-28.5q12-11.5 29-11.5t28.5 11.5Q868-590 868-573t-11.5 28.5Q845-533 828-533t-29-11.5Zm0 186.5q-12-12-12-29t12-28.5q12-11.5 29-11.5t28.5 11.5Q868-404 868-387t-11.5 29Q845-346 828-346t-29-12Zm-93 161.5Q694-208 694-225t12-29q12-12 29-12t28.5 12q11.5 12 11.5 29t-11.5 28.5Q752-185 735-185t-29-11.5Zm-161.5 93Q533-115 533-132t11.5-29q11.5-12 28.5-12t29 12q12 12 12 29t-12 28.5Q590-92 573-92t-28.5-11.5Zm-186.5 0Q346-115 346-132t12-29q12-12 29-12t28.5 12q11.5 12 11.5 29t-11.5 28.5Q404-92 387-92t-29-11.5Zm-161.5-94Q185-209 185-226t11.5-28.5Q208-266 225-266t28.5 11.5Q265-243 265-226t-11.5 28.5Q242-186 225-186t-28.5-11.5ZM132-347q-17 0-28.5-12T92-388q0-17 11.5-28.5T132-428q17 0 29 11.5t12 28.5q0 17-12 29t-29 12Zm0-186q-17 0-28.5-11.5T92-573q0-17 11.5-29t28.5-12q17 0 29 12t12 29q0 17-12 28.5T132-533Zm388 37 120 120q11 11 11 28t-11 28q-11 11-28 11t-28-11L452-452q-6-6-9-13.5t-3-15.5v-159q0-17 11.5-28.5T480-680q17 0 28.5 11.5T520-640v144Z"/>
</svg>
