<svg aria-hidden="true" viewBox="0 -960 960 960" fill="currentColor">
  <path d="M320-160q-33 0-56.5-23.5T240-240v-80q0-17 11.5-28.5T280-360h80v-90q-35-2-66.5-15.5T236-506v-44h-46l-96-96q-17-17-17-35t17-32q29-25 71.5-38t90.5-13q27 0 52.5 4t51.5 15v-15q0-17 11.5-28.5T400-800h400q17 0 28.5 11.5T840-760v480q0 50-35 85t-85 35H320Zm120-200h200q17 0 28.5 11.5T680-320v40q0 17 11.5 28.5T720-240q17 0 28.5-11.5T760-280v-440H440v24l228 228q7 7 9.5 13t2.5 15q0 17-11.5 28.5T640-400q-9 0-15-2.5t-13-9.5L510-514l-8 8q-14 14-29.5 25T440-464v104ZM224-630h92v86q12 8 25 11t27 3q23 0 41.5-7t36.5-25l8-8-56-56q-29-29-65-43.5T256-684q-20 0-38 3t-36 9l42 42Z"/>
</svg>
