<svg aria-hidden="true" viewBox="0 -960 960 960" fill="currentColor">
  <path d="M150-358.087q-13.829 0-22.871-9.042-9.042-9.042-9.042-22.871v-180q0-13.829 9.042-22.871 9.042-9.042 22.871-9.042 13.829 0 22.871 9.042 9.042 9.042 9.042 22.871v48.087h76.174V-570q0-13.829 9.042-22.871 9.042-9.042 22.871-9.042 13.829 0 22.871 9.042 9.042 9.042 9.042 22.871v180q0 13.829-9.042 22.871-9.042 9.042-22.871 9.042-13.829 0-22.871-9.042-9.042-9.042-9.042-22.871v-68.087h-76.174V-390q0 13.829-9.042 22.871-9.042 9.042-22.871 9.042Zm510 0q-17.813 0-29.863-12.05T618.087-400v-8.087q0-13.829 9.042-22.871Q636.171-440 650-440q9.617 0 16.83 4.902 7.213 4.902 10.692 13.185h80.565V-460H660q-17.813 0-29.863-12.05t-12.05-29.863V-560q0-17.813 12.05-29.863T660-601.913h120q17.813 0 29.863 12.05T821.913-560v8.087q0 13.829-9.042 22.871Q803.829-520 790-520q-9.632 0-17.338-4.902-7.705-4.902-10.423-13.185h-80.326V-500H780q17.813 0 29.863 12.05t12.05 29.863V-400q0 17.813-12.05 29.863T780-358.087H660Zm-220 0q-17.813 0-29.863-12.05T398.087-400v-170q0-13.829 9.042-22.871 9.042-9.042 22.871-9.042 13.829 0 22.871 9.042 9.042 9.042 9.042 22.871v148.087H530q13.829 0 22.871 9.042 9.042 9.042 9.042 22.871 0 13.829-9.042 22.871-9.042 9.042-22.871 9.042h-90Z"/>
</svg>
