<svg aria-hidden="true" viewBox="0 -960 960 960" fill="currentColor">
  <path d="M150-360q-13 0-21.5-8.5T120-390v-180q0-13 8.5-21.5T150-600q13 0 21.5 8.5T180-570v50h80v-50q0-13 8.5-21.5T290-600q13 0 21.5 8.5T320-570v180q0 13-8.5 21.5T290-360q-13 0-21.5-8.5T260-390v-70h-80v70q0 13-8.5 21.5T150-360Zm510 0q-17 0-28.5-11.5T620-400v-10q0-13 8.5-21.5T650-440q10 0 17.5 5.5T678-420h82v-40H660q-17 0-28.5-11.5T620-500v-60q0-17 11.5-28.5T660-600h120q17 0 28.5 11.5T820-560v10q0 13-8.5 21.5T790-520q-10 0-18-5.5T762-540h-82v40h100q17 0 28.5 11.5T820-460v60q0 17-11.5 28.5T780-360H660Zm-220 0q-17 0-28.5-11.5T400-400v-170q0-13 8.5-21.5T430-600q13 0 21.5 8.5T460-570v150h70q13 0 21.5 8.5T560-390q0 13-8.5 21.5T530-360h-90Z"/>
</svg>
