<svg aria-hidden="true" viewBox="0 -960 960 960" fill="currentColor">
  <path d="m718.5-358.087-79.391-79.391q2.521-1.522 4.935-2.022 2.413-.5 6.434-.5 10.044.239 17.044 5.147t11 12.94h79.565V-460H660q-17.813 0-29.863-12.05t-12.05-29.863V-560q0-17.813 12.05-29.863T660-601.913h120q17.813 0 29.863 12.05T821.913-560v8.087q0 13.829-9.042 22.871Q803.829-520 790-520q-9.632 0-17.338-4.902-7.705-4.902-10.423-13.185h-80.326V-500H780q17.813 0 29.863 12.05t12.05 29.863V-400q0 17.813-12.05 29.863T780-358.087h-61.5Zm-568.5 0q-13.829 0-22.871-9.042-9.042-9.042-9.042-22.871v-180q0-13.829 9.042-22.871 9.042-9.042 22.871-9.042 13.829 0 22.871 9.042 9.042 9.042 9.042 22.871v48.087h76.174V-570q0-13.829 9.042-22.871 9.042-9.042 22.871-9.042 13.829 0 22.871 9.042 9.042 9.042 9.042 22.871v180q0 13.829-9.042 22.871-9.042 9.042-22.871 9.042-13.829 0-22.871-9.042-9.042-9.042-9.042-22.871v-68.087h-76.174V-390q0 13.829-9.042 22.871-9.042 9.042-22.871 9.042Zm650.087 312.37-754.37-754.37 58.631-59.392 754.131 755.131-58.392 58.63Zm-402-312.37v-148.5l63.826 64.065v20.609h21.37l64.065 63.826H398.087Z"/>
</svg>
