<svg aria-hidden="true" viewBox="0 -960 960 960" fill="currentColor">
  <path d="m713-360-77-77q3-2 6-2.5t8-.5q11 0 18 5.5t11 14.5h81v-40H660q-17 0-28.5-11.5T620-500v-60q0-17 11.5-28.5T660-600h120q17 0 28.5 11.5T820-560v10q0 13-8.5 21.5T790-520q-10 0-18-5.5T762-540h-82v40h100q17 0 28.5 11.5T820-460v60q0 17-11.5 28.5T780-360h-67Zm-563 0q-13 0-21.5-8.5T120-390v-180q0-13 8.5-21.5T150-600q13 0 21.5 8.5T180-570v50h80v-50q0-13 8.5-21.5T290-600q13 0 21.5 8.5T320-570v180q0 13-8.5 21.5T290-360q-13 0-21.5-8.5T260-390v-70h-80v70q0 13-8.5 21.5T150-360ZM791-56 56-791l56-57 735 736-56 56ZM400-360v-143l60 60v23h24l60 60H400Z"/>
</svg>
