<svg aria-hidden="true" viewBox="0 -960 960 960" fill="currentColor">
  <path d="M197.37-282.87h565.26q30.848 0 52.674-21.945 21.826-21.946 21.826-52.555v-245.26q0-30.848-21.826-52.674T762.63-677.13H197.37q-30.609 0-52.555 21.826-21.945 21.826-21.945 52.674v245.26q0 30.609 21.945 52.555 21.946 21.945 52.555 21.945Zm0 91.001q-68.392 0-116.946-48.555-48.555-48.554-48.555-116.946v-245.26q0-68.392 48.555-116.946 48.554-48.555 116.946-48.555h565.26q68.392 0 116.946 48.555 48.555 48.554 48.555 116.946v245.26q0 68.392-48.555 116.946-48.554 48.555-116.946 48.555h-74.499q0 17-11.5 28.5t-28.5 11.5H311.869q-17 0-28.5-11.5t-11.5-28.5H197.37ZM480-480Z"/>
</svg>
