<svg aria-hidden="true" viewBox="0 -960 960 960" fill="currentColor">
  <path d="M381.087-108.282q-76.587 0-126.739-57.131-50.153-57.13-39.913-132.717l56.195-419.414q2-12.434 9.076-22.13 7.076-9.696 19.272-14.413l321.739-128.392q20.631-8.717 39.903 3.098 19.271 11.816 21.75 34.685l65.195 548.805q9.479 75.348-40.293 131.478-49.772 56.131-125.359 56.131H381.087ZM331.87-484.304h301.5l-35.283-291.022L357.913-679 331.87-484.304Zm49.217 285.021h200.826q34.565 0 57.109-25.923 22.543-25.924 18.543-60.49l-12.761-107.608H319.196l-13.761 106.608q-5 34.566 18.043 60.99 23.044 26.423 57.609 26.423ZM482-393.304v-91 91Zm1-91Zm-2 91Z"/>
</svg>
