<svg aria-hidden="true" viewBox="0 -960 960 960" fill="currentColor">
  <path d="M240-720h480q17 0 28.5 11.5T760-680q0 17-11.5 28.5T720-640H240q-17 0-28.5-11.5T200-680q0-17 11.5-28.5T240-720Zm80-120h320q17 0 28.5 11.5T680-800q0 17-11.5 28.5T640-760H320q-17 0-28.5-11.5T280-800q0-17 11.5-28.5T320-840ZM216-520l14 86q14 86 37 234l-51-320Zm257 400H234q-15 0-26.5-9.5T194-153l-66-400q-3-18 8.5-32.5T167-600h625q19 0 31 14.5t9 32.5l-6 33H216l51 320h182q3 22 9.5 42t14.5 38Zm202 21q-12-5-22.5-10.5T631-123l-29 9q-13 4-25.5-1T557-131l-8-14q-7-12-5-26t13-23l22-19q-2-13-2-26t2-26l-22-19q-11-9-13-22.5t5-25.5l9-15q7-11 19-16t25-1l29 9q11-8 21.5-13.5T675-379l6-29q3-14 13.5-22.5T719-439h16q14 0 24.5 9t13.5 23l6 28q12 5 22.5 10.5T823-355l29-9q13-4 25.5 1t19.5 16l8 14q7 12 5 26t-13 23l-22 19q2 13 2 26t-2 26l22 19q11 9 13 22.5t-5 25.5l-9 15q-7 11-19 16t-25 1l-29-9q-11 8-21.5 13.5T779-99l-6 29q-3 14-13.5 22.5T735-39h-16q-14 0-24.5-9T681-71l-6-28Zm108.5-83.5Q807-206 807-239t-23.5-56.5Q760-319 727-319t-56.5 23.5Q647-272 647-239t23.5 56.5Q694-159 727-159t56.5-23.5Z"/>
</svg>
