<svg aria-hidden="true" viewBox="0 -960 960 960" fill="currentColor">
  <path d="M680-600h80v-80h-80v80Zm0 160h80v-80h-80v80Zm0 160h80v-80h-80v80Zm0 160v-80h160v-560H480v56l-80-58q0-32 23.5-55t56.5-23h360q33 0 56.5 23.5T920-760v560q0 33-23.5 56.5T840-120H680Zm0-399ZM40-160v-319q0-20 9-37t25-28l200-143q21-15 46-15t46 15l200 143q16 11 25 28t9 37v319q0 17-11.5 28.5T560-120H360v-200h-80v200H80q-17 0-28.5-11.5T40-160Zm80-40h80v-200h240v200h80v-280L320-622 120-480v280Zm320 0v-200H200v200-200h240v200Z"/>
</svg>
