<svg aria-hidden="true" viewBox="0 -960 960 960" fill="currentColor">
  <path d="M280-640q-33 0-56.5-23.5T200-720q0-33 23.5-56.5T280-800q33 0 56.5 23.5T360-720q0 33-23.5 56.5T280-640ZM160-80q-33 0-56.5-23.5T80-160v-280q0-17 11.5-28.5T120-480h80v-30q0-38 26-64t64-26q20 0 37.5 8t30.5 22l56 62q7 8 15 15t17 13h394q17 0 28.5 11.5T880-440v280q0 33-23.5 56.5T800-80H160Zm601-480q-16 0-26-11.5T725-601q0-20-7-38t-24-35q-29-29-41.5-62.5T641-806q1-14 12-24t26-10q16 0 26 11t9 29q-1 20 6.5 38t23.5 34q29 29 42.5 63.5T799-594q0 14-11.5 24T761-560Zm-160 0q-16 0-26-11.5T565-601q0-20-7-38t-24-35q-29-29-41.5-62.5T481-806q1-14 12-24t26-10q16 0 26 11t9 29q-1 20 6.5 38t23.5 34q29 29 42.5 63.5T639-594q0 14-11.5 24T601-560Zm119 400q17 0 28.5-11.5T760-200v-160q0-17-11.5-28.5T720-400q-17 0-28.5 11.5T680-360v160q0 17 11.5 28.5T720-160Zm-160 0q17 0 28.5-11.5T600-200v-160q0-17-11.5-28.5T560-400q-17 0-28.5 11.5T520-360v160q0 17 11.5 28.5T560-160Zm-160 0q17 0 28.5-11.5T440-200v-160q0-17-11.5-28.5T400-400q-17 0-28.5 11.5T360-360v160q0 17 11.5 28.5T400-160Zm-160 0q17 0 28.5-11.5T280-200v-160q0-17-11.5-28.5T240-400q-17 0-28.5 11.5T200-360v160q0 17 11.5 28.5T240-160Z"/>
</svg>
