<svg aria-hidden="true" viewBox="0 -960 960 960" fill="currentColor">
  <path d="M278.087-656.979q-33.957 0-57.815-23.858-23.859-23.859-23.859-57.816 0-33.956 23.859-57.934 23.858-23.979 57.815-23.979 33.956 0 57.935 23.979Q360-772.609 360-738.653q0 33.957-23.978 57.816-23.979 23.858-57.935 23.858ZM160-71.869q-37.544 0-64.272-26.729Q69-125.326 69-162.87v-279.76q0-19.153 13.174-32.327t32.326-13.174h81.435v-34.065q0-39.435 26.956-66.272 26.957-26.837 66.392-26.837 21.195 0 39.652 8.718 18.456 8.717 32.413 23.674l58.152 64.63q7.718 8.718 16.435 16.435 8.717 7.717 17.717 13.717H845.5q19.152 0 32.326 13.174T891-442.63v279.76q0 37.544-26.728 64.272Q837.544-71.869 800-71.869H160Zm612.957-496.262q-17.674 0-28.511-12.576t-11.076-32.728q-.239-19.761-7.479-37.761-7.239-18-23.76-34.522-29-29-41.74-62.858-12.739-33.859-11.26-70.337 1.239-14.957 13.195-25.674 11.957-10.718 28.153-10.718 17.673 0 28.51 12.196 10.837 12.196 10.316 32.348-.761 19.522 6.739 37.402 7.5 17.88 23.261 33.641 29 29 42.619 63.859 13.62 34.859 12.381 71.337-.479 14.957-12.816 25.674-12.337 10.717-28.532 10.717Zm-167.413 0q-17.674 0-28.511-12.576t-11.076-32.728q-.24-19.761-7.479-37.761-7.239-18-23.761-34.522-29-29-41.739-62.858-12.739-33.859-11.261-70.337 1.24-14.957 13.316-25.674 12.076-10.718 28.271-10.718 17.674 0 28.511 12.196t10.316 32.348q-.761 19.522 6.739 37.402 7.5 17.88 23.261 33.641 29 29 42.619 63.859 13.62 34.859 12.381 71.337-.479 14.957-12.935 25.674-12.457 10.717-28.652 10.717ZM720-162.87q17.239 0 28.62-11.38Q760-185.63 760-202.87v-154.26q0-17.24-11.38-28.62-11.381-11.38-28.62-11.38t-28.62 11.38Q680-374.37 680-357.13v154.26q0 17.24 11.38 28.62 11.381 11.38 28.62 11.38Zm-160 0q17.239 0 28.62-11.38Q600-185.63 600-202.87v-154.26q0-17.24-11.38-28.62-11.381-11.38-28.62-11.38t-28.62 11.38Q520-374.37 520-357.13v154.26q0 17.24 11.38 28.62 11.381 11.38 28.62 11.38Zm-160 0q17.239 0 28.62-11.38Q440-185.63 440-202.87v-154.26q0-17.24-11.38-28.62-11.381-11.38-28.62-11.38t-28.62 11.38Q360-374.37 360-357.13v154.26q0 17.24 11.38 28.62 11.381 11.38 28.62 11.38Zm-160 0q17.239 0 28.62-11.38Q280-185.63 280-202.87v-154.26q0-17.24-11.38-28.62-11.381-11.38-28.62-11.38t-28.62 11.38Q200-374.37 200-357.13v154.26q0 17.24 11.38 28.62 11.381 11.38 28.62 11.38Z"/>
</svg>
