<svg aria-hidden="true" viewBox="0 -960 960 960" fill="currentColor">
  <path d="M80-200q-17 0-28.5-11.5T40-240v-520q0-17 11.5-28.5T80-800q17 0 28.5 11.5T120-760v360h320v-240q0-33 23.5-56.5T520-720h240q66 0 113 47t47 113v320q0 17-11.5 28.5T880-200q-17 0-28.5-11.5T840-240v-80H120v80q0 17-11.5 28.5T80-200Zm115-275q-35-35-35-85t35-85q35-35 85-35t85 35q35 35 35 85t-35 85q-35 35-85 35t-85-35Zm325 75h320v-160q0-33-23.5-56.5T760-640H520v240ZM308.5-531.5Q320-543 320-560t-11.5-28.5Q297-600 280-600t-28.5 11.5Q240-577 240-560t11.5 28.5Q263-520 280-520t28.5-11.5ZM280-560Zm240-80v240-240Z"/>
</svg>
