<svg aria-hidden="true" viewBox="0 -960 960 960" fill="currentColor">
  <path d="M440-449ZM241.283-111.304q-12.913 10.195-27.087 1-14.174-9.196-8.696-25.348l75.478-246.196L84.304-522.804q-13.674-9.435-8.456-25.348 5.217-15.913 21.37-15.913h243.195l77.717-257.913q2.479-8.718 8.696-12.316 6.217-3.597 13.174-3.597t13.054 3.597q6.098 3.598 8.576 12.316l77.957 257.913h243.196q16.152 0 21.369 15.913 5.218 15.913-8.456 25.348L599.022-381.848l75.717 246.196q5.479 16.152-8.576 25.348-14.054 9.195-26.967-1L440.239-262.022 241.283-111.304ZM344-294l96-74 96 74-36-122 90-64H478l-38-124-38 124H290l90 64-36 122Zm467.891 182.696L751.457-157.5 691.5-349.848l124.239-88.239h73.326q16.153 0 21.87 16.033 5.717 16.032-8.196 25.467L792.196-317.37l56 180.718q5.478 16.152-8.957 25.848-14.434 9.695-27.348-.5ZM599.587-644.065l-31.196-104.631 21.761-73.043q2.478-8.718 8.696-12.696 6.217-3.978 13.174-3.978 6.956 0 13.174 4.358 6.217 4.359 8.695 12.316l54.24 177.674h-88.544Z"/>
</svg>
