<svg aria-hidden="true" viewBox="0 -960 960 960" fill="currentColor">
  <path d="M452-160Zm-212 0v-120q0-61 28.5-114.5T348-480q-51-32-79.5-85.5T240-680v-120h-40q-17 0-28.5-11.5T160-840q0-17 11.5-28.5T200-880h560q17 0 28.5 11.5T800-840q0 17-11.5 28.5T760-800h-40v120q0 48-18 92t-51 77q-38 10-71 29t-60 47q-10-2-19.5-3.5T480-440q-66 0-113 47t-47 113v120h132q7 22 16.5 42T491-80H200q-17 0-28.5-11.5T160-120q0-17 11.5-28.5T200-160h40Zm353-407q47-47 47-113v-120H320v120q0 66 47 113t113 47q66 0 113-47ZM480-800Zm98.5 701.5Q520-157 520-240t58.5-141.5Q637-440 720-440t141.5 58.5Q920-323 920-240T861.5-98.5Q803-40 720-40T578.5-98.5ZM692-210l-41-41q-6-6-15-6t-15 6q-6 6-6 15t6 15l43 43q12 12 28 12t28-12l99-99q6-6 6-15t-6-15q-6-6-15-6t-15 6l-97 97Z"/>
</svg>
