<svg aria-hidden="true" viewBox="0 -960 960 960" fill="currentColor">
  <path d="m791-57-24-23H200q-17 0-28.5-11.5T160-120q0-17 11.5-28.5T200-160h40v-120q0-61 28.5-114.5T348-480q-32-20-54.5-48T257-590L55-792q-12-12-12-28.5T55-849q12-12 28.5-12t28.5 12l736 736q12 12 12 28t-12 28q-12 12-28.5 12T791-57ZM602-474l-60-59q45-19 71.5-59t26.5-88v-120H320v45l-45-45-80-80h565q17 0 28.5 11.5T800-840q0 17-11.5 28.5T760-800h-40v120q0 64-31 119t-87 87ZM320-160h320v-47L419-428q-45 19-72 59t-27 89v120Zm400 0Z"/>
</svg>
