<svg aria-hidden="true" viewBox="0 -960 960 960" fill="currentColor">
  <path d="M347-191.869q-53.174 0-75.206-19.881-22.033-19.88-57.794-19.88-24.522 0-40.978 9.902-16.457 9.902-39.739 19.424-21.196 8.478-39.033-4.859t-17.837-37.772q0-11.956 8.837-23.032t24.033-17.555q21.434-8.717 41.63-21.119T213-319.043q53.935 0 75.967 20 22.033 20 57.033 20 37.522 0 58.294-20 20.771-20 75.706-20t75.706 20q20.772 20 58.294 20 35 0 57.033-20 22.032-20 75.967-20 41.891 0 62.087 12.402 20.196 12.402 41.63 21.119 15.435 6.479 24.153 17.435 8.717 10.957 8.717 23.152 0 24.435-17.457 37.892-17.456 13.456-38.652 5.739-24.043-8.761-40.5-19.663-16.456-10.902-40.978-10.902-35.761 0-57.794 20-22.032 20-75.206 20-54.696 0-75.087-20-20.391-20-57.913-20t-57.913 20q-20.391 20-75.087 20ZM227.848-360.957q-24.718 0-47.435-9.239-22.717-9.239-40.196-26.717l-23.413-23.413q-12.434-12.435-12.815-30.25-.38-17.815 12.815-31.011 12.435-12.435 30.37-12.815 17.935-.381 30.891 11.815l23.413 23.413q5.522 5.522 12.305 8.163 6.782 2.641 14.065 2.641h48.565v-127.587l-17.652 13.37q-14.957 10.717-32.011 7.859-17.054-2.859-28.011-17.576-10.957-14.718-8.717-31.892 2.239-17.174 17.434-28.13l245.435-180.957q5.718-4.478 12.935-6.337 7.217-1.859 14.174-1.859t14.174 1.859q7.217 1.859 12.935 6.337l245.435 180.957q14.956 10.956 17.695 27.891 2.739 16.935-7.978 32.131-10.717 15.195-28.652 17.815-17.935 2.619-33.37-8.098l-16.652-12.37v126.587h48.565q7.283 0 14.065-2.641 6.783-2.641 12.305-8.163l23.413-23.413q12.195-12.196 30.13-12.196t31.131 13.196q12.434 12.435 12.434 30.63 0 18.196-12.434 30.631l-23.413 23.413q-17.479 17.478-40.196 26.717-22.717 9.239-47.435 9.239H227.848Zm135.739-87.413h72.826v-85.261h87.174v85.261h72.826v-190.848L480-724.587l-116.413 85.13v191.087Zm0 0h232.826-232.826Z"/>
</svg>
