<svg aria-hidden="true" viewBox="0 -960 960 960" fill="currentColor">
  <path d="M347-191.869q-53.174 0-75.206-19.881-22.033-19.88-57.794-19.88-24.522 0-40.978 9.902-16.457 9.902-39.739 19.424-21.196 8.478-39.033-4.859t-17.837-37.772q0-12.195 8.837-23.271 8.837-11.077 24.033-17.316 21.434-8.239 41.63-20.88 20.196-12.641 62.087-12.641 53.935 0 75.967 20 22.033 20 57.033 20 37.522 0 58.294-20 20.771-20 75.706-20t75.706 20q20.772 20 58.294 20 35 0 57.033-20 22.032-20 75.967-20 41.891 0 62.087 12.641 20.196 12.641 41.63 20.88 15.196 6.239 24.033 17.196 8.837 10.956 8.837 23.391 0 24.435-17.457 37.892-17.456 13.456-38.652 5.739-24.043-8.761-40.5-19.663-16.456-10.902-40.978-10.902-35.761 0-57.794 20-22.032 20-75.206 20-54.696 0-75.087-20-20.391-20-57.913-20t-57.913 20q-20.391 20-75.087 20ZM227.848-360.957q-24.718 0-47.435-9.239-22.717-9.239-40.196-26.717l-23.413-23.413q-12.195-12.196-12.695-30.131-.5-17.934 12.695-31.13 12.196-12.196 30.25-12.696 18.055-.5 31.011 11.696l23.413 23.413q5.522 5.522 12.305 8.163 6.782 2.641 14.065 2.641h48.565v-127.587l-17.652 13.37q-14.718 11.674-31.772 8.457-17.054-3.218-28.25-18.174-11.196-14.957-8.837-32.011 2.359-17.055 17.554-28.011l245.435-180.957q5.718-4.478 12.935-6.337 7.217-1.859 14.174-1.859t14.174 1.859q7.217 1.859 12.935 6.337l245.435 180.957q15.434 10.956 18.054 27.771 2.62 16.816-8.337 32.251-10.717 15.434-28.772 18.054-18.054 2.62-33.25-8.337l-16.652-12.37v126.587h48.565q7.283 0 14.065-2.641 6.783-2.641 12.305-8.163l23.413-23.413q12.195-12.196 30.25-12.076 18.054.119 31.011 13.076 12.195 12.196 12.195 30.63 0 18.435-12.195 30.631l-23.413 23.413q-17.479 17.478-40.196 26.717-22.717 9.239-47.435 9.239H227.848Zm208.565-87.413h87.174v-85.5h-87.174v85.5Z"/>
</svg>
