<svg aria-hidden="true" viewBox="0 -960 960 960" fill="currentColor">
  <path d="M347-200q-57 0-77-20t-56-20q-25 0-40.5 10.5T134-209q-20 8-37-4.5T80-249q0-11 8-21t22-16q20-8 39-21t64-13q58 0 78 20t55 20q38 0 56.5-20t77.5-20q59 0 77.5 20t56.5 20q35 0 55-20t78-20q45 0 64 13t39 21q14 6 22 16t8 21q0 23-16.5 35.5T827-208q-25-9-40.5-20.5T746-240q-36 0-56 20t-77 20q-59 0-77-20t-56-20q-38 0-56 20t-77 20ZM230-360q-24 0-46-9t-39-26l-27-27q-11-11-11.5-27.5T118-478q11-11 27.5-11.5T174-479l27 27q6 6 13.5 9t15.5 3h50v-135l-21 16q-14 10-29.5 7.5T204-568q-10-14-8-29.5t16-25.5l244-180q5-4 11.5-5.5T480-810q6 0 12.5 1.5T504-803l244 180q14 10 16.5 25.5T757-568q-10 14-26.5 16.5T700-559l-20-15v134h50q8 0 15.5-3t13.5-9l27-27q11-11 27.5-11t28.5 12q11 11 11 28t-11 28l-27 27q-17 17-39 26t-46 9H230Zm210-80h80v-80h-80v80Z"/>
</svg>
