<svg aria-hidden="true" viewBox="0 -960 960 960" fill="currentColor">
  <path d="M628.457-156.217q-8.957 0-17.033-2.979-8.076-2.978-14.794-9.695l-79.608-79.37q-11.718-11.717-11.718-29.315t11.718-29.315q11.717-11.718 29.315-11.718t29.315 11.718l52.805 52.804 172.565-172.804q11.717-11.718 29.315-11.718t29.315 11.718q11.718 11.717 11.718 29.315t-11.718 29.315l-199.369 199.37q-6.718 6.717-14.794 9.695-8.076 2.979-17.032 2.979ZM399.043-484.065q-69.587 0-118.858-49.272-49.272-49.272-49.272-118.859 0-69.587 49.272-118.739 49.271-49.152 118.858-49.152t118.859 49.152q49.272 49.152 49.272 118.739t-49.272 118.859q-49.272 49.272-118.859 49.272Zm-282.63 336.261q-19.152 0-32.326-13.174t-13.174-32.326v-75.109q0-35.152 18.435-66.065 18.434-30.913 50.108-46.87 51-26 116.794-44.359 65.793-18.358 142.793-18.358 30 0 62.207 3.598 32.207 3.597 59.207 9.597l-97.653 97.414q-23 23-22.5 56.26.5 33.261 23.5 56.261l72.892 73.131H116.413Z"/>
</svg>
