<svg aria-hidden="true" viewBox="0 -960 960 960" fill="currentColor">
  <path d="M116.413-147.804q-19.152 0-32.326-13.174t-13.174-32.326v-75.109q0-35.168 18.435-66.073 18.434-30.905 50.108-46.862 51-26 116.794-44.359 65.793-18.358 142.793-18.358 30 0 62.207 3.598 32.207 3.597 59.207 9.597l-80.044 79.805q-10.425-2-20.375-2h-20.995q-70.043 0-126.543 17T181.913-300.5q-9 5-14.5 13.641-5.5 8.642-5.5 19.642v28.413h243.783l91 91H116.413Zm512.044-8.413q-8.957 0-17.033-2.979-8.076-2.978-14.794-9.695l-79.608-79.37q-11.718-11.717-11.718-29.315t11.718-29.315q11.717-11.718 29.315-11.718t29.315 11.718l52.805 52.804 172.565-172.804q11.717-11.718 29.315-11.718t29.315 11.718q11.718 11.717 11.718 29.315t-11.718 29.315l-199.369 199.37q-6.718 6.717-14.794 9.695-8.076 2.979-17.032 2.979ZM399.043-484.065q-69.587 0-118.858-49.272-49.272-49.272-49.272-118.859 0-69.587 49.272-118.739 49.271-49.152 118.858-49.152t118.859 49.152q49.272 49.152 49.272 118.739t-49.272 118.859q-49.272 49.272-118.859 49.272Zm6.653 245.261Zm-6.661-336.262q31.813 0 54.476-22.654 22.663-22.655 22.663-54.467 0-31.813-22.655-54.357-22.654-22.543-54.467-22.543T344.576-706.5q-22.663 22.586-22.663 54.304 0 31.816 22.655 54.473 22.654 22.657 54.467 22.657Zm.008-77.13Z"/>
</svg>
