<svg aria-hidden="true" viewBox="0 -960 960 960" fill="currentColor">
  <path d="M120-160q-17 0-28.5-11.5T80-200v-72q0-33 17-62t47-44q51-26 115-44t141-18q30 0 58.5 3t55.5 9l-70 70q-11-2-21.5-2H400q-71 0-127.5 17T180-306q-9 5-14.5 14t-5.5 20v32h250l80 80H120Zm502-1q-8 0-15-2.5t-13-8.5l-82-82q-11-11-11-28t11-28q11-11 28-11t28 11l54 54 174-174q11-11 28-11t28 11q11 11 11 28t-11 28L650-172q-6 6-13 8.5t-15 2.5ZM400-480q-66 0-113-47t-47-113q0-66 47-113t113-47q66 0 113 47t47 113q0 66-47 113t-113 47Zm10 240Zm-10-320q33 0 56.5-23.5T480-640q0-33-23.5-56.5T400-720q-33 0-56.5 23.5T320-640q0 33 23.5 56.5T400-560Zm0-80Z"/>
</svg>
