<svg aria-hidden="true" viewBox="0 -960 960 960" fill="currentColor">
  <path d="M31.919-358.087q-13.723 0-22.821-9.042T0-390v-180q0-13.829 9.042-22.871 9.042-9.042 22.871-9.042 13.726 0 22.7 9.042 8.974 9.042 8.974 22.871v48.087H140V-570q0-13.829 9.042-22.871 9.042-9.042 22.871-9.042 13.725 0 22.7 9.042 8.974 9.042 8.974 22.871v180q0 13.829-8.973 22.871-8.972 9.042-22.695 9.042t-22.821-9.042Q140-376.171 140-390v-68.087H63.587V-390q0 13.829-8.973 22.871-8.972 9.042-22.695 9.042Zm310 0q-13.723 0-22.821-9.042T310-390v-148.087h-38.087q-13.829 0-22.871-9.042Q240-556.171 240-570q0-13.829 9.042-22.871 9.042-9.042 22.871-9.042h140q13.725 0 22.7 9.042 8.974 9.042 8.974 22.871 0 13.829-8.974 22.871-8.975 9.042-22.7 9.042h-38.326V-390q0 13.829-8.973 22.871-8.972 9.042-22.695 9.042Zm498.081 0q-17.813 0-29.863-12.05T798.087-400v-170q0-13.829 9.042-22.871 9.042-9.042 22.871-9.042 13.829 0 22.871 9.042 9.042 9.042 9.042 22.871v148.087h66.174q13.829 0 22.871 9.042Q960-403.829 960-390q0 13.829-9.042 22.871-9.042 9.042-22.871 9.042H840Zm-328.081 0q-13.723 0-22.821-9.042T480-390v-170q0-17.813 12.05-29.863t29.863-12.05h180q17.712 0 29.693 12.05 11.981 12.05 11.981 29.863v170q0 13.829-8.973 22.871-8.972 9.042-22.695 9.042t-22.821-9.042Q680-376.171 680-390v-148.087h-38.087v110q0 13-8.5 21.5t-21.5 8.5q-13 0-21.5-8.5t-8.5-21.5v-110h-38.326V-390q0 13.829-8.973 22.871-8.972 9.042-22.695 9.042Z"/>
</svg>
