<svg aria-hidden="true" viewBox="0 -960 960 960" fill="currentColor">
  <path d="M67.37-358.087q-13.726 0-22.7-9.042-8.974-9.042-8.974-22.871v-180q0-13.829 8.972-22.871 8.973-9.042 22.696-9.042t22.82 9.042q9.099 9.042 9.099 22.871v48.087h76.413V-570q0-13.829 8.972-22.871 8.973-9.042 22.696-9.042t22.821 9.042q9.098 9.042 9.098 22.871v180q0 13.829-9.042 22.871-9.042 9.042-22.871 9.042-13.726 0-22.7-9.042-8.974-9.042-8.974-22.871v-68.087H99.283V-390q0 13.829-9.042 22.871-9.043 9.042-22.871 9.042Zm300.956 0q-13.829 0-22.871-9.042-9.042-9.042-9.042-22.871v-148.087h-30q-13.725 0-22.7-9.042-8.974-9.042-8.974-22.871 0-13.829 8.974-22.871 8.975-9.042 22.7-9.042h123.826q13.726 0 22.7 9.042 8.974 9.042 8.974 22.871 0 13.829-8.974 22.871-8.974 9.042-22.7 9.042h-30V-390q0 13.829-9.042 22.871-9.042 9.042-22.871 9.042Zm223.348 0q-13.829 0-22.871-9.042-9.042-9.042-9.042-22.871v-148.087h-30q-13.726 0-22.7-9.042-8.974-9.042-8.974-22.871 0-13.829 8.974-22.871 8.974-9.042 22.7-9.042h123.826q13.725 0 22.7 9.042 8.974 9.042 8.974 22.871 0 13.829-8.974 22.871-8.975 9.042-22.7 9.042h-30V-390q0 13.829-9.042 22.871-9.042 9.042-22.871 9.042Zm160.962 0q-13.723 0-22.821-9.042T720.717-390v-166.413q0-19.152 13.174-32.326t32.327-13.174h96.412q24.957 0 43.316 18.478 18.358 18.478 18.358 43.435v43.587q0 24.957-18.358 43.435Q887.587-434.5 862.63-434.5h-78.326v44.5q0 13.829-8.972 22.871-8.973 9.042-22.696 9.042Zm31.668-140h76.413v-40h-76.413v40Z"/>
</svg>
