<svg aria-hidden="true" viewBox="0 -960 960 960" fill="currentColor">
  <path d="M70-360q-13 0-21.5-8.5T40-390v-180q0-13 8.5-21.5T70-600q13 0 21.5 8.5T100-570v50h80v-50q0-13 8.5-21.5T210-600q13 0 21.5 8.5T240-570v180q0 13-8.5 21.5T210-360q-13 0-21.5-8.5T180-390v-70h-80v70q0 13-8.5 21.5T70-360Zm300 0q-13 0-21.5-8.5T340-390v-150h-30q-13 0-21.5-8.5T280-570q0-13 8.5-21.5T310-600h120q13 0 21.5 8.5T460-570q0 13-8.5 21.5T430-540h-30v150q0 13-8.5 21.5T370-360Zm220 0q-13 0-21.5-8.5T560-390v-150h-30q-13 0-21.5-8.5T500-570q0-13 8.5-21.5T530-600h120q13 0 21.5 8.5T680-570q0 13-8.5 21.5T650-540h-30v150q0 13-8.5 21.5T590-360Zm160 0q-13 0-21.5-8.5T720-390v-170q0-17 11.5-28.5T760-600h100q24 0 42 18t18 42v40q0 24-18 42t-42 18h-80v50q0 13-8.5 21.5T750-360Zm30-140h80v-40h-80v40Z"/>
</svg>
