<svg aria-hidden="true" viewBox="0 -960 960 960" fill="currentColor">
  <path d="M622.5-257.5Q640-275 640-300t-17.5-42.5Q605-360 580-360t-42.5 17.5Q520-325 520-300t17.5 42.5Q555-240 580-240t42.5-17.5ZM378-258q16 0 28-12l204-204q12-12 12-28t-12-28q-12-12-28.5-12T553-530L350-327q-12 12-12 28.5t12 28.5q12 12 28 12Zm44.5-199.5Q440-475 440-500t-17.5-42.5Q405-560 380-560t-42.5 17.5Q320-525 320-500t17.5 42.5Q355-440 380-440t42.5-17.5ZM251.5-174Q160-268 160-408q0-62 28-124t70-119q42-57 91-107t91-87q8-8 18.5-11.5T480-860q11 0 21.5 3.5T520-845q42 37 91 87t91 107q42 57 70 119t28 124q0 140-91.5 234T480-80q-137 0-228.5-94ZM652-230.5Q720-301 720-408q0-73-60.5-165T480-774Q361-665 300.5-573T240-408q0 107 68 177.5T480-160q104 0 172-70.5ZM480-480Z"/>
</svg>
