<svg aria-hidden="true" viewBox="0 -960 960 960" fill="currentColor">
  <path d="M650-310q70-70 70-170t-70-170q-70-70-170-70t-170 70q-70 70-70 170t70 170q70 70 170 70t170-70Zm-226-20.5Q397-341 375-360h210q-22 19-49 29.5T480-320q-29 0-56-10.5ZM342-400q-8-14-13-29t-7-31h316q-2 16-7 31t-13 29H342Zm-20-100q2-16 7-31t13-29h276q8 14 13 29t7 31H322Zm53-100q22-19 49-29.5t56-10.5q29 0 56 10.5t49 29.5H375ZM200-120q-33 0-56.5-23.5T120-200v-560q0-33 23.5-56.5T200-840h560q33 0 56.5 23.5T840-760v560q0 33-23.5 56.5T760-120H200Z"/>
</svg>
