<svg aria-hidden="true" viewBox="0 -960 960 960" fill="currentColor">
  <path d="M720-440q17 0 28.5-11.5T760-480q0-17-11.5-28.5T720-520H600q-17 0-28.5 11.5T560-480q0 17 11.5 28.5T600-440h120Zm0-120q17 0 28.5-11.5T760-600q0-17-11.5-28.5T720-640H600q-17 0-28.5 11.5T560-600q0 17 11.5 28.5T600-560h120ZM360-440q-36 0-65 6.5T244-413q-21 13-32 29.5T201-348q0 12 9 20t22 8h256q13 0 22-8.5t9-21.5q0-17-11-33t-32-30q-22-14-51-20.5t-65-6.5Zm56.5-63.5Q440-527 440-560t-23.5-56.5Q393-640 360-640t-56.5 23.5Q280-593 280-560t23.5 56.5Q327-480 360-480t56.5-23.5ZM160-160q-33 0-56.5-23.5T80-240v-480q0-33 23.5-56.5T160-800h640q33 0 56.5 23.5T880-720v480q0 33-23.5 56.5T800-160H160Zm0-80h640v-480H160v480Zm0 0v-480 480Z"/>
</svg>
