<svg aria-hidden="true" viewBox="0 -960 960 960" fill="currentColor">
  <path d="M381-481q-41-41-41-99t41-99q41-41 99-41t99 41q41 41 41 99t-41 99q-41 41-99 41t-99-41Zm141.5-56.5Q540-555 540-580t-17.5-42.5Q505-640 480-640t-42.5 17.5Q420-605 420-580t17.5 42.5Q455-520 480-520t42.5-17.5ZM158-257q-18-11-28-29t-10-39v-310q0-21 10-39t28-29l280-172q20-12 42-12t42 12l280 172q18 11 28 29t10 39v310q0 21-10 39t-28 29L522-85q-20 12-42 12t-42-12L158-257Zm322-23q-38 0-75.5 9T333-244l147 91 147-91q-34-18-71.5-27t-75.5-9Zm-224-11q50-34 107-51.5T480-360q60 0 117 17.5T704-291l56-33v-311L480-806 200-635v311l56 33Zm224-189Z"/>
</svg>
