<svg aria-hidden="true" viewBox="0 -960 960 960" fill="currentColor">
  <path d="M160-120q-17 0-28.5-11.5T120-160q0-17 11.5-28.5T160-200h640q17 0 28.5 11.5T840-160q0 17-11.5 28.5T800-120H160Zm0-640q-17 0-28.5-11.5T120-800q0-17 11.5-28.5T160-840h640q17 0 28.5 11.5T840-800q0 17-11.5 28.5T800-760H160Zm200 480q-17 0-28.5-11.5T320-320v-120H160q-17 0-28.5-11.5T120-480q0-17 11.5-28.5T160-520h160v-120q0-17 11.5-28.5T360-680h240q17 0 28.5 11.5T640-640v120h160q17 0 28.5 11.5T840-480q0 17-11.5 28.5T800-440H640v120q0 17-11.5 28.5T600-280H360ZM131.5-611.5Q120-623 120-640t11.5-28.5Q143-680 160-680t28.5 11.5Q200-657 200-640t-11.5 28.5Q177-600 160-600t-28.5-11.5Zm0 320Q120-303 120-320t11.5-28.5Q143-360 160-360t28.5 11.5Q200-337 200-320t-11.5 28.5Q177-280 160-280t-28.5-11.5Zm640 0Q760-303 760-320t11.5-28.5Q783-360 800-360t28.5 11.5Q840-337 840-320t-11.5 28.5Q817-280 800-280t-28.5-11.5Zm0-320Q760-623 760-640t11.5-28.5Q783-680 800-680t28.5 11.5Q840-657 840-640t-11.5 28.5Q817-600 800-600t-28.5-11.5Z"/>
</svg>
