<svg aria-hidden="true" viewBox="0 -960 960 960" fill="currentColor">
  <path d="M682.5-277.5Q700-295 700-320t-17.5-42.5Q665-380 640-380t-42.5 17.5Q580-345 580-320t17.5 42.5Q615-260 640-260t42.5-17.5Zm-160-160Q540-455 540-480t-17.5-42.5Q505-540 480-540t-42.5 17.5Q420-505 420-480t17.5 42.5Q455-420 480-420t42.5-17.5Zm-160-160Q380-615 380-640t-17.5-42.5Q345-700 320-700t-42.5 17.5Q260-665 260-640t17.5 42.5Q295-580 320-580t42.5-17.5ZM200-120q-33 0-56.5-23.5T120-200v-560q0-33 23.5-56.5T200-840h560q33 0 56.5 23.5T840-760v560q0 33-23.5 56.5T760-120H200Z"/>
</svg>
