<svg aria-hidden="true" viewBox="0 -960 960 960" fill="currentColor">
  <path d="M160-160q-33 0-56.5-23.5T80-240v-480q0-33 23.5-56.5T160-800h640q33 0 56.5 23.5T880-720v480q0 33-23.5 56.5T800-160H160Zm0-80h640v-480H160v480Zm0 0v-480 480Zm148.5-251.5Q320-503 320-520t-11.5-28.5Q297-560 280-560t-28.5 11.5Q240-537 240-520t11.5 28.5Q263-480 280-480t28.5-11.5Zm160 0Q480-503 480-520t-11.5-28.5Q457-560 440-560t-28.5 11.5Q400-537 400-520t11.5 28.5Q423-480 440-480t28.5-11.5Zm160 0Q640-503 640-520t-11.5-28.5Q617-560 600-560t-28.5 11.5Q560-537 560-520t11.5 28.5Q583-480 600-480t28.5-11.5Zm0 160Q640-343 640-360t-11.5-28.5Q617-400 600-400t-28.5 11.5Q560-377 560-360t11.5 28.5Q583-320 600-320t28.5-11.5Z"/>
</svg>
