<svg aria-hidden="true" viewBox="0 -960 960 960" fill="currentColor">
  <path d="M600-32.587H432.587q-18.525 0-31.056-12.695Q389-57.978 389-76.413v-247.174q0-18.435 12.565-31.131 12.566-12.695 31.141-12.695h43.707V-480H152.587q-33 0-56.5-23.5t-23.5-56.5v-160q0-33 23.5-56.5t56.5-23.5h80v-43.524q0-18.498 12.695-31.194 12.696-12.695 31.131-12.695h487.174q18.435 0 31.131 12.695 12.695 12.696 12.695 31.131v167.174q0 18.435-12.695 31.131-12.696 12.695-31.131 12.695H276.413q-18.435 0-31.131-12.695-12.695-12.696-12.695-31.194V-720h-80v160h323.826q33 0 56.5 23.5t23.5 56.5v112.587h43.524q18.498 0 31.074 12.695 12.576 12.696 12.576 31.131v247.174q0 18.435-12.531 31.13Q618.524-32.587 600-32.587Z"/>
</svg>
