<svg aria-hidden="true" viewBox="0 -960 960 960" fill="currentColor">
  <path d="M200-120q-33 0-56.5-23.5T120-200v-560q0-33 23.5-56.5T200-840h164q20 0 31 17t3 37q-7 21-10.5 42.5T384-700q0 109 75.5 184.5T642-440q21 0 40.5-3t38.5-9l96 96q11 11 17 25.5t6 30.5v100q0 33-23.5 56.5T760-120H200Zm634-332-96-96q-21 14-45 21t-51 7q-74 0-126-52.5T464-700q0-75 52.5-127.5T644-880q75 0 127.5 52.5T824-700q0 27-8 52t-20 46l94 94q11 11 11 28t-11 28q-11 11-28 11t-28-11ZM644-600q42 0 71-29t29-71q0-42-29-71t-71-29q-42 0-71 29t-29 71q0 42 29 71t71 29ZM450-320l-66-88q-9-12-24-12t-24 12l-72 96q-8 10-2 21t18 11h400q12 0 18-11t-2-21l-99-132q-11-2-22.5-5t-22.5-7L450-320Z"/>
</svg>
