<svg aria-hidden="true" viewBox="0 -960 960 960" fill="currentColor">
  <path d="M520-384v224q0 17-11.5 28.5T480-120q-17 0-28.5-11.5T440-160v-320q0-17 11.5-28.5T480-520h320q17 0 28.5 11.5T840-480q0 17-11.5 28.5T800-440H576l252 252q11 11 11 28t-11 28q-11 11-28 11t-28-11L520-384ZM131.5-771.5Q120-783 120-800t11.5-28.5Q143-840 160-840t28.5 11.5Q200-817 200-800t-11.5 28.5Q177-760 160-760t-28.5-11.5Zm160 0Q280-783 280-800t11.5-28.5Q303-840 320-840t28.5 11.5Q360-817 360-800t-11.5 28.5Q337-760 320-760t-28.5-11.5Zm160 0Q440-783 440-800t11.5-28.5Q463-840 480-840t28.5 11.5Q520-817 520-800t-11.5 28.5Q497-760 480-760t-28.5-11.5Zm160 0Q600-783 600-800t11.5-28.5Q623-840 640-840t28.5 11.5Q680-817 680-800t-11.5 28.5Q657-760 640-760t-28.5-11.5Zm160 0Q760-783 760-800t11.5-28.5Q783-840 800-840t28.5 11.5Q840-817 840-800t-11.5 28.5Q817-760 800-760t-28.5-11.5Zm-480 640Q280-143 280-160t11.5-28.5Q303-200 320-200t28.5 11.5Q360-177 360-160t-11.5 28.5Q337-120 320-120t-28.5-11.5Zm-160-480Q120-623 120-640t11.5-28.5Q143-680 160-680t28.5 11.5Q200-657 200-640t-11.5 28.5Q177-600 160-600t-28.5-11.5Zm0 160Q120-463 120-480t11.5-28.5Q143-520 160-520t28.5 11.5Q200-497 200-480t-11.5 28.5Q177-440 160-440t-28.5-11.5Zm0 160Q120-303 120-320t11.5-28.5Q143-360 160-360t28.5 11.5Q200-337 200-320t-11.5 28.5Q177-280 160-280t-28.5-11.5Zm0 160Q120-143 120-160t11.5-28.5Q143-200 160-200t28.5 11.5Q200-177 200-160t-11.5 28.5Q177-120 160-120t-28.5-11.5Zm640-480Q760-623 760-640t11.5-28.5Q783-680 800-680t28.5 11.5Q840-657 840-640t-11.5 28.5Q817-600 800-600t-28.5-11.5Z"/>
</svg>
