<svg aria-hidden="true" viewBox="0 -960 960 960" fill="currentColor">
  <path d="m752-816 104 104q24 24 24 56t-24 56L693-437q-12 12-28.5 12T636-437q-12-12-12-28t12-28l164-163-104-104-163 163q-12 12-28.5 12T476-597q-12-12-12-28t12-28l164-163q24-24 56-24t56 24Zm69 731q-12 12-28.5 12T764-85L552-296 400-143q-24 24-56.5 24T287-143l-5 4q-11 9-24 14t-27 5H109q-14 0-19.5-12t4.5-22l92-91q-24-24-25-57.5t23-57.5l152-152L84-764q-12-12-12-28.5T84-821q12-12 28.5-12t28.5 12l680 680q12 12 12 28t-12 28ZM240-304l104 104 152-152-104-104-152 152Zm316-213ZM444-404Z"/>
</svg>
