<svg aria-hidden="true" viewBox="0 -960 960 960" fill="currentColor">
  <path d="M820.113-298.087q-25.844 0-43.935-18.058T758.087-360v-100q0-25.957 18.091-43.935t43.935-17.978q25.844 0 43.822 17.978T881.913-460v100q0 25.797-17.978 43.855-17.978 18.058-43.822 18.058ZM820-151.152q-8.957 0-15.435-6.478-6.478-6.479-6.478-15.435v-39.848q-47.674-7.478-82.565-41.532-34.892-34.055-42.609-82.642-2-8.956 4.978-15.935Q684.869-360 694.826-360q8.478 0 14.196 5.478 5.717 5.479 7.717 14.196 7.376 36.633 35.825 61.23Q781.014-254.5 820-254.5q38.674 0 67.262-24.596 28.587-24.597 35.999-61.23 2-8.717 8.064-14.196Q937.388-360 946.208-360q9.923 0 16.401 6.978 6.478 6.979 4.478 15.935-7.717 48.587-42.489 82.642-34.772 34.054-82.685 41.532v39.848q0 8.956-6.478 15.435-6.478 6.478-15.435 6.478Zm-473.631-333.87q-68.152-2.869-114.076-52.022-45.924-49.152-45.924-115.152t46.044-115.033q46.043-49.032 114.195-52.141 11.458 0 22.507 1.628 11.049 1.628 21.689 5.698-27.435 31.717-43.348 72.968-15.913 41.25-15.913 86.88 0 45.631 15.554 86.761 15.555 41.131 43.229 73.087-10.583 4.07-21.572 5.698-10.989 1.628-22.385 1.628ZM22.543-147.804v-119.609q0-32.804 15.446-61.206 15.445-28.403 43.293-44.598 34.413-20.479 76.641-35.816 42.228-15.337 94.033-22.858-39.044 29.435-59.728 71.956-20.685 42.522-20.685 92.522v119.609h-149Zm557.135-336.261q-69.352 0-118.744-49.387-49.391-49.388-49.391-118.74t49.387-118.624q49.387-49.271 118.739-49.271t118.744 49.318q49.391 49.318 49.391 118.573 0 69.354-49.387 118.742-49.387 49.389-118.739 49.389Zm-.013-91.001q31.813 0 54.476-22.654 22.663-22.655 22.663-54.467 0-31.813-22.655-54.357-22.654-22.543-54.467-22.543T525.206-706.5q-22.663 22.586-22.663 54.304 0 31.816 22.655 54.473 22.654 22.657 54.467 22.657ZM251.543-147.804v-119.604q0-36.635 18.315-67.309t50.228-46.87q51-26 116.457-44.239 65.457-18.239 143.13-18.239 13.435 0 27.446.858 14.011.859 26.924 2.098-11.435 20.152-18.054 42.881-6.62 22.728-7.902 45.88-6.913-.478-14.207-.597-7.293-.12-14.207-.12-70.804 0-125.586 17.283-54.783 17.282-90.783 35.282-10 5-15.38 14.197-5.381 9.197-5.381 19.847v27.652h289.87q14.761 28.869 38.793 52.217 24.033 23.348 53.663 38.783H251.543Zm328.13-504.392Zm0 299.131Z"/>
</svg>
