<svg aria-hidden="true" viewBox="0 -960 960 960" fill="currentColor">
  <path d="M820-298.087q-25.717 0-43.815-18.098T758.087-360v-100q0-25.957 18.098-43.935T820-521.913q25.957 0 43.935 17.978T881.913-460v100q0 25.717-17.978 43.815T820-298.087ZM346.369-485.022q-68.152-2.869-114.076-52.022-45.924-49.152-45.924-115.152t46.044-115.033q46.043-49.032 114.195-52.141 11.37 0 22.479 1.641 11.108 1.642 21.717 5.685-27.435 31.717-43.348 72.968-15.913 41.25-15.913 86.88 0 45.631 15.554 86.761 15.555 41.131 43.229 73.087-10.609 4.044-21.598 5.685-10.989 1.641-22.359 1.641ZM22.543-147.804v-119.609q0-32.804 15.446-61.206 15.445-28.403 43.293-44.598 34.413-20.479 76.641-35.816 42.228-15.337 94.033-22.858-39.044 29.435-59.728 71.956-20.685 42.522-20.685 92.522v119.609h-149Zm557.13-336.261q-69.347 0-118.739-49.392-49.391-49.391-49.391-118.739 0-69.348 49.391-118.62 49.392-49.271 118.739-49.271 69.348 0 118.74 49.271 49.391 49.272 49.391 118.62 0 69.348-49.391 118.739-49.392 49.392-118.74 49.392Zm-328.13 336.261v-119.609q0-36.63 18.315-67.304t50.228-46.87q51-26 116.457-44.239 65.457-18.239 143.13-18.239 13.435 0 27.446.858 14.011.859 26.924 2.098-11.435 20.152-18.054 42.881-6.62 22.728-7.902 45.88-3.044 27.566 3.358 58.652 6.403 31.087 20.968 54.892 14.761 28.869 38.793 52.217 24.033 23.348 53.663 38.783H251.543ZM820-151.152q-8.957 0-15.435-6.478-6.478-6.479-6.478-15.435v-39.848q-47.674-7.478-82.565-41.532-34.892-34.055-42.609-82.642-2-8.956 4.978-15.935Q684.869-360 694.826-360q8.478 0 14.196 5.478 5.717 5.479 7.717 14.196 7.478 36.674 35.913 61.25Q781.087-254.5 820-254.5q38.674 0 67.228-24.576 28.555-24.576 36.033-61.25 2-8.717 8.098-14.196Q937.457-360 946.174-360q9.957 0 16.435 6.978 6.478 6.979 4.478 15.935-7.717 48.587-42.489 82.642-34.772 34.054-82.685 41.532v39.848q0 8.956-6.478 15.435-6.478 6.478-15.435 6.478Z"/>
</svg>
