<svg aria-hidden="true" viewBox="0 -960 960 960" fill="currentColor">
  <path d="M820-300q-25 0-42.5-17.5T760-360v-100q0-25 17.5-42.5T820-520q25 0 42.5 17.5T880-460v100q0 25-17.5 42.5T820-300ZM360-480q-66 0-113-47t-47-113q0-66 47-113t113-47q14 0 27.5 2t26.5 7q-26 31-40 69.5T360-640q0 43 14 81.5t40 69.5q-13 5-26.5 7t-27.5 2ZM40-160v-111q0-34 17-63t47-44q38-20 82.5-34.5T284-435q-40 28-62 71t-22 93v111H40Zm560-320q-66 0-113-47t-47-113q0-66 47-113t113-47q66 0 113 47t47 113q0 66-47 113t-113 47ZM280-160v-111q0-34 17-63t47-44q51-26 115.5-44T600-440q12 0 23.5.5T646-438q-10 18-16.5 37.5T621-360q-4 29 3 62t23 58q15 26 37 46t49 34H280Zm540 0q-8 0-14-6t-6-14v-42q-46-7-78.5-39.5T682-339q-2-8 4.5-14.5T702-360q8 0 13 5t7 13q7 35 34 58.5t64 23.5q37 0 64-23.5t34-58.5q2-8 7.5-13t13.5-5q9 0 15 6.5t4 14.5q-7 45-39.5 77.5T840-222v42q0 8-6 14t-14 6Z"/>
</svg>
