<svg aria-hidden="true" viewBox="0 -960 960 960" fill="currentColor">
  <path d="M171.5-291.5Q160-303 160-320v-160q0-17 11.5-28.5T200-520q17 0 28.5 11.5T240-480v160q0 17-11.5 28.5T200-280q-17 0-28.5-11.5ZM360-280q-33 0-56.5-23.5T280-360v-240q0-33 23.5-56.5T360-680h80q33 0 56.5 23.5T520-600v240q0 33-23.5 56.5T440-280h-80Zm0-80h80v-240h-80v240Zm240 80q-17 0-28.5-11.5T560-320q0-17 11.5-28.5T600-360h120v-80h-80q-33 0-56.5-23.5T560-520v-80q0-33 23.5-56.5T640-680h120q17 0 28.5 11.5T800-640q0 17-11.5 28.5T760-600H640v80h80q33 0 56.5 23.5T800-440v80q0 33-23.5 56.5T720-280H600ZM171.5-611.5Q160-623 160-640t11.5-28.5Q183-680 200-680t28.5 11.5Q240-657 240-640t-11.5 28.5Q217-600 200-600t-28.5-11.5Z"/>
</svg>
