<svg aria-hidden="true" viewBox="0 -960 960 960" fill="currentColor">
  <path d="M120-240q-17 0-28.5-11.5T80-280v-80q0-66 47-113t113-47h360v-40q0-17-11.5-28.5T560-600H400q-11 0-20 5t-14 14q-6 10-15 15.5t-20 5.5q-23 0-34.5-19.5T294-616q15-29 43-46.5t63-17.5h160q50 0 85 35t35 85v160q17 0 28.5-11.5T720-440v-160q0-50 35-85t85-35q17 0 28.5 11.5T880-680q0 17-11.5 28.5T840-640t-28.5 11.5Q800-617 800-600v160q0 50-35 85t-85 35v40q0 17-11.5 28.5T640-240H120Zm40-80h440v-120H240q-33 0-56.5 23.5T160-360v40Zm440 0v-120 120Z"/>
</svg>
