<svg aria-hidden="true" viewBox="0 -960 960 960" fill="currentColor">
  <path d="M117.37-232.587q-19.153 0-32.446-13.174-13.294-13.174-13.294-32.326v-78.326q0-68.391 48.555-116.946 48.554-48.554 116.945-48.554h352.826V-560q0-15.565-10.424-25.989-10.423-10.424-25.989-10.424H397.13q-10.282 0-18.445 4.402t-13.163 12.446q-6.718 9.522-15.837 14.543-9.12 5.022-20.837 5.022-26.826 0-39.403-23.446-12.576-23.445.968-43.315 16.196-27.565 44.196-44.109 28-16.543 62.521-16.543h156.413q53.109 0 90.261 37.152 37.153 37.152 37.153 90.261v152.587q17 0 28.5-11.5t11.5-28.5v-149q0-54.544 37.032-91.457 37.033-36.913 86.555-36.913 19.152 0 31.369 12.337 12.218 12.337 12.218 30.533 0 18.674-11.261 31.25t-28.739 15.446q-15.326 1.195-25.75 12.098-10.424 10.902-10.424 26.706v149q0 54.543-38.229 92.772-38.228 38.228-92.771 38.228v38.326q0 19.152-13.174 32.326t-32.327 13.174H117.37Z"/>
</svg>
