<svg aria-hidden="true" viewBox="0 -960 960 960" fill="currentColor">
  <path d="M309-74.5Q229-109 169-169T74.5-309Q40-389 40-480t34.5-171Q109-731 169-791t140-94.5Q389-920 480-920t171 34.5Q731-851 791-791t94.5 140Q920-571 920-480t-34.5 171Q851-229 791-169T651-74.5Q571-40 480-40T309-74.5ZM480-200q117 0 198.5-81.5T760-480q0-117-81.5-198.5T480-760q-29 0-54 12.5T384-712q-28 0-55 7t-47 27q-20 20-29 47t-5 55q-23 17-35.5 42T200-480q0 29 12.5 54t35.5 42q-4 28 5 55t29 47q20 20 47 29.5t55 4.5q17 23 42 35.5t54 12.5Zm0-80q-22 0-34-18.5T420-334q-22 3-44 7.5T338-338q-16-16-11.5-38t7.5-44q-17-13-35.5-25.5T280-480q0-22 18.5-34t35.5-26q-3-22-7.5-44t11.5-38q16-16 38-11.5t44 7.5q13-17 25.5-35.5T480-680v400Zm106-54-28-28q-6-6-6-14.5t6-14.5l28-28q6-6 14-6t14 6l28 28q6 6 6 14.5t-6 14.5l-28 28q-6 6-14 6t-14-6Zm-31-245q-7-7-6-16t9-14q17-7 34-4t30 17q14 13 17.5 30.5T636-531q-4 9-13.5 10t-17.5-7l-50-51Z"/>
</svg>
