<svg aria-hidden="true" viewBox="0 -960 960 960" fill="currentColor">
  <path d="M520-360q-17 0-28.5-11.5T480-400v-10q0-13 8.5-21.5T510-440q10 0 17.5 5.5T538-420h82v-40H520q-17 0-28.5-11.5T480-500v-60q0-17 11.5-28.5T520-600h120q17 0 28.5 11.5T680-560v10q0 13-8.5 21.5T650-520q-10 0-18-5.5T622-540h-82v40h100q17 0 28.5 11.5T680-460v60q0 17-11.5 28.5T640-360H520Zm-220 0q-25 0-42.5-17.5T240-420v-10q0-13 8.5-21.5T270-460q13 0 21.5 8.5T300-430v10h60v-150q0-13 8.5-21.5T390-600q13 0 21.5 8.5T420-570v150q0 25-17.5 42.5T360-360h-60Z"/>
</svg>
