<svg aria-hidden="true" viewBox="0 -960 960 960" fill="currentColor">
  <path d="M520-358.087q-17.813 0-29.863-12.05T478.087-400v-8.087q0-13.829 9.042-22.871Q496.171-440 510-440q9.617 0 16.83 4.902 7.213 4.902 10.692 13.185h80.565V-460H520q-17.813 0-29.863-12.05t-12.05-29.863V-560q0-17.813 12.05-29.863T520-601.913h120q17.813 0 29.863 12.05T681.913-560v8.087q0 13.829-9.042 22.871Q663.829-520 650-520q-9.632 0-17.338-4.902-7.705-4.902-10.423-13.185h-80.326V-500H640q17.813 0 29.863 12.05t12.05 29.863V-400q0 17.813-12.05 29.863T640-358.087H520Zm-225.5 0q-24.203 0-41.145-17.012-16.942-17.011-16.942-41.314v-11.674q0-13.829 8.974-22.871 8.975-9.042 22.7-9.042 12.522 0 21.141 7.902 8.62 7.902 9.576 20.185v8.326h59.283V-570q0-13.829 9.042-22.871 9.042-9.042 22.871-9.042 13.829 0 22.871 9.042 9.042 9.042 9.042 22.871v153.587q0 24.303-17.012 41.314-17.011 17.012-41.314 17.012H294.5Z"/>
</svg>
