<svg aria-hidden="true" viewBox="0 -960 960 960" fill="currentColor">
  <path d="M248.087-71.913v-118.282H220q-42.717 0-72.554-29.837-29.837-29.837-29.837-72.555 0-42.717 29.837-72.554 29.837-29.837 72.554-29.837h28.087v-38.087h-84.978q-19.152 0-32.326-13.174t-13.174-32.326v-113.783q0-19.152 13.174-32.326t32.326-13.174h84.978v-38.087H220q-42.717 0-72.554-29.837-29.837-29.837-29.837-72.554t29.837-72.554q29.837-29.837 72.554-29.837h28.087v-8.087q0-13.718 9.098-22.816 9.098-9.097 22.815-9.097 13.478 0 21.739 9.695 8.261 9.696 10.174 22.218v8.087H340q42.717 0 72.554 29.837 29.837 29.837 29.837 72.554t-29.837 72.554Q382.717-675.935 340-675.935h-28.087v38.087h84.978q19.152 0 32.326 13.174t13.174 32.326v113.783q0 19.152-13.174 32.326t-32.326 13.174h-84.978v38.087H340q42.717 0 72.554 29.837 29.837 29.837 29.837 72.554 0 42.718-29.837 72.555-29.837 29.837-72.554 29.837h-28.087v118.282q0 13.717-9.098 22.815T280-40q-13.717 0-22.815-9.098t-9.098-22.815Zm400 0v-118.282H620q-42.717 0-72.554-29.837-29.837-29.837-29.837-72.555 0-42.717 29.837-72.554 29.837-29.837 72.554-29.837h28.087v-38.087h-84.978q-19.152 0-32.326-13.174t-13.174-32.326v-113.783q0-19.152 13.174-32.326t32.326-13.174h84.978v-38.087H620q-42.717 0-72.554-29.837-29.837-29.837-29.837-72.554t29.837-72.554q29.837-29.837 72.554-29.837h28.087v-8.087q0-13.718 9.098-22.816 9.098-9.097 22.815-9.097 13.478 0 21.739 9.695 8.261 9.696 10.174 22.218v8.087H740q42.717 0 72.554 29.837 29.837 29.837 29.837 72.554t-29.837 72.554Q782.717-675.935 740-675.935h-28.087v38.087h84.978q19.152 0 32.326 13.174t13.174 32.326v113.783q0 19.152-13.174 32.326t-32.326 13.174h-84.978v38.087H740q42.717 0 72.554 29.837 29.837 29.837 29.837 72.554 0 42.718-29.837 72.555-29.837 29.837-72.554 29.837h-28.087v118.282q0 13.717-9.098 22.815T680-40q-13.717 0-22.815-9.098t-9.098-22.815Z"/>
</svg>
