<svg aria-hidden="true" viewBox="0 -960 960 960" fill="currentColor">
  <path d="M160-320q-17 0-28.5-11.5T120-360v-23q0-8 3-15.5t9-13.5l68-68v-280q-17 0-28.5-11.5T160-800q0-17 11.5-28.5T200-840h167q23 0 33 21t-4 41q-18 32-27 66.5t-9 71.5q0 88 49 159t130 102q11 3 18.5 12t7.5 20q0 11-7 19t-18 8H400v234q0 17-11.5 28.5T360-46q-17 0-28.5-11.5T320-86v-234H160Zm621.5-461.5Q840-723 840-640t-58.5 141.5Q723-440 640-440t-141.5-58.5Q440-557 440-640t58.5-141.5Q557-840 640-840t141.5 58.5Zm-99 124Q700-675 700-700t-17.5-42.5Q665-760 640-760t-42.5 17.5Q580-725 580-700t17.5 42.5Q615-640 640-640t42.5-17.5Zm5 128Q710-539 727-557q5-6 3.5-13.5T721-582q-19-9-39.5-13.5T640-600q-21 0-41 4.5T559-582q-8 3-9.5 11t3.5 14q17 18 39.5 27.5T640-520q25 0 47.5-9.5Z"/>
</svg>
