<svg aria-hidden="true" viewBox="0 -960 960 960" fill="currentColor">
  <path d="M280-360q50 0 85-35t35-85q0-50-35-85t-85-35q-50 0-85 35t-35 85q0 50 35 85t85 35Zm0 127.413q-102.87 0-175.141-72.272Q32.587-377.13 32.587-480q0-103.109 72.152-175.261T280-727.413q82.674 0 145.326 46.837 62.652 46.837 86.892 116.989h315.369q9.196 0 17.533 3.359 8.337 3.358 14.293 9.315l37.565 37.326q6.957 6.957 10.196 15.413 3.239 8.457 3.239 17.413 0 8.957-2.858 16.913-2.859 7.957-9.816 14.913l-97.782 98.022q-6.957 6.956-14.913 10.196-7.957 3.239-16.913 3.239-8.957 0-16.913-2.979-7.957-2.978-14.914-9.695L685.5-400.478l-50.326 50.326q-6.956 6.956-14.913 9.815-7.957 2.859-16.913 2.859-8.957 0-17.033-2.859t-15.032-9.576l-46.261-46.5h-12.565q-25.957 74.152-89.87 118.989Q358.674-232.587 280-232.587Z"/>
</svg>
