<svg aria-hidden="true" viewBox="0 -960 960 960" fill="currentColor">
  <path d="M443.5-736.5Q467-760 500-760t56.5 23.5Q580-713 580-680t-23.5 56.5Q533-600 500-600t-56.5-23.5Q420-647 420-680t23.5-56.5ZM260-680q0-100 70-170t170-70q100 0 170 70t70 170q0 67-33 121.5T620-472v335q0 8-3 15.5t-9 13.5l-80 80q-6 6-13 8.5T500-17q-8 0-15-2.5T472-28L345-155q-5-5-8-12t-4-14q-1-7 1-14t7-13l39-52-43-57q-4-5-6-11t-2-12q0-6 2-12.5t6-11.5l43-61v-47q-54-32-87-86.5T260-680Zm80 0q0 56 34 98.5t86 56.5v125l-41 58h-.5.5l61 82-55 71 75 75v-.5.5l40-40h.5-.5v-371q52-14 86-56.5t34-98.5q0-66-47-113t-113-47q-66 0-113 47t-47 113Z"/>
</svg>
