<svg aria-hidden="true" viewBox="0 -960 960 960" fill="currentColor">
  <path d="M766-88 87-766q-12-12-11.5-28.5T88-823q12-12 28.5-12t28.5 12l678 679q12 12 12 28t-12 28q-12 12-28.5 12T766-88ZM647-320l-80-80H360q-17 0-28.5 11.5T320-360q0 17 11.5 28.5T360-320h287ZM160-200q-33 0-56.5-23.5T80-280v-400q0-33 23.5-56.5T160-760h47l560 560H160Zm108.5-371.5Q280-583 280-600t-11.5-28.5Q257-640 240-640t-28.5 11.5Q200-617 200-600t11.5 28.5Q223-560 240-560t28.5-11.5Zm360 0Q640-583 640-600t-11.5-28.5Q617-640 600-640t-28.5 11.5Q560-617 560-600t11.5 28.5Q583-560 600-560t28.5-11.5Zm120 0Q760-583 760-600t-11.5-28.5Q737-640 720-640t-28.5 11.5Q680-617 680-600t11.5 28.5Q703-560 720-560t28.5-11.5Zm-480 120Q280-463 280-480t-11.5-28.5Q257-520 240-520t-28.5 11.5Q200-497 200-480t11.5 28.5Q223-440 240-440t28.5-11.5Zm120 0Q400-463 400-480t-11.5-28.5Q377-520 360-520t-28.5 11.5Q320-497 320-480t11.5 28.5Q343-440 360-440t28.5-11.5Zm360 0Q760-463 760-480t-11.5-28.5Q737-520 720-520t-28.5 11.5Q680-497 680-480t11.5 28.5Q703-440 720-440t28.5-11.5ZM880-680v384q0 14-7 23t-18 14q-11 5-22 3t-21-12L628-452q5-5 8.5-12.5T640-480q0-17-11.5-28.5T600-520q-8 0-15.5 3.5T572-508l-64-64q5-5 8.5-12.5T520-600q0-17-11.5-28.5T480-640q-8 0-15.5 3t-12.5 8l-63-63q-10-10-11.5-21t3.5-22q5-11 14-18t23-7h382q33 0 56.5 23.5T880-680Z"/>
</svg>
