<svg aria-hidden="true" viewBox="0 -960 960 960" fill="currentColor">
  <path d="M466-54 354-166q-10-10-5-22t19-12h224q14 0 19 12t-5 22L494-54q-6 6-14 6t-14-6ZM160-280q-33 0-56.5-23.5T80-360v-400q0-33 23.5-56.5T160-840h640q33 0 56.5 23.5T880-760v400q0 33-23.5 56.5T800-280H160Zm0-80h640v-400H160v400Zm200-40h240q17 0 28.5-11.5T640-440q0-17-11.5-28.5T600-480H360q-17 0-28.5 11.5T320-440q0 17 11.5 28.5T360-400Zm-200 40v-400 400Zm108.5-291.5Q280-663 280-680t-11.5-28.5Q257-720 240-720t-28.5 11.5Q200-697 200-680t11.5 28.5Q223-640 240-640t28.5-11.5Zm120 0Q400-663 400-680t-11.5-28.5Q377-720 360-720t-28.5 11.5Q320-697 320-680t11.5 28.5Q343-640 360-640t28.5-11.5Zm120 0Q520-663 520-680t-11.5-28.5Q497-720 480-720t-28.5 11.5Q440-697 440-680t11.5 28.5Q463-640 480-640t28.5-11.5Zm120 0Q640-663 640-680t-11.5-28.5Q617-720 600-720t-28.5 11.5Q560-697 560-680t11.5 28.5Q583-640 600-640t28.5-11.5Zm120 0Q760-663 760-680t-11.5-28.5Q737-720 720-720t-28.5 11.5Q680-697 680-680t11.5 28.5Q703-640 720-640t28.5-11.5Zm-480 120Q280-543 280-560t-11.5-28.5Q257-600 240-600t-28.5 11.5Q200-577 200-560t11.5 28.5Q223-520 240-520t28.5-11.5Zm120 0Q400-543 400-560t-11.5-28.5Q377-600 360-600t-28.5 11.5Q320-577 320-560t11.5 28.5Q343-520 360-520t28.5-11.5Zm120 0Q520-543 520-560t-11.5-28.5Q497-600 480-600t-28.5 11.5Q440-577 440-560t11.5 28.5Q463-520 480-520t28.5-11.5Zm120 0Q640-543 640-560t-11.5-28.5Q617-600 600-600t-28.5 11.5Q560-577 560-560t11.5 28.5Q583-520 600-520t28.5-11.5Zm120 0Q760-543 760-560t-11.5-28.5Q737-600 720-600t-28.5 11.5Q680-577 680-560t11.5 28.5Q703-520 720-520t28.5-11.5Z"/>
</svg>
