<svg aria-hidden="true" viewBox="0 -960 960 960" fill="currentColor">
  <path d="M200-520v80h80v-80h-80Zm120 0v80h80v-80h-80Zm120 0v80h80v-80h-80ZM200-640v80h80v-80h-80Zm120 0v80h80v-80h-80Zm120 0v80h80v-80h-80Zm120 0v80h80v-80h-80Zm120 0v80h80v-80h-80ZM160-200q-33 0-56.5-23.5T80-280v-400q0-33 23.5-56.5T160-760h640q33 0 56.5 23.5T880-680v261q-26-23-56.5-37.5T760-476v-44h-80v44q-11 2-20.5 4t-19.5 6v-54h-80v80h28q-13 8-24 18.5T542-400H360q-17 0-28.5 11.5T320-360q0 17 11.5 28.5T360-320h134q-7 19-10 39t-3 41q0 11 .5 20.5T484-200H160Zm567 0H600q-17 0-28.5-11.5T560-240q0-17 11.5-28.5T600-280h127l-36-36q-11-11-11-27.5t12-28.5q11-11 28-11t28 11l104 104q12 12 12 28t-12 28L748-108q-11 11-27.5 11.5T692-108q-11-11-11-28t11-28l35-36Z"/>
</svg>
