<svg aria-hidden="true" viewBox="0 -960 960 960" fill="currentColor">
  <path d="M160-80q-33 0-56.5-23.5T80-160v-400q0-33 23.5-56.5T160-640h640q33 0 56.5 23.5T880-560v400q0 33-23.5 56.5T800-80H160Zm0-80h640v-400H160v400Zm200-40h240q17 0 28.5-11.5T640-240q0-17-11.5-28.5T600-280H360q-17 0-28.5 11.5T320-240q0 17 11.5 28.5T360-200Zm-200 40v-400 400Zm215-640h25q17 0 28.5 11.5T440-760q0 17-11.5 28.5T400-720H280q-17 0-28.5-11.5T240-760v-120q0-17 11.5-28.5T280-920q17 0 28.5 11.5T320-880v21q32-29 73-45t87-16q80 0 143 47.5T709-750q4 13-7 21.5t-27 8.5q-16 0-30-6t-20-20q-20-42-58.5-68T480-840q-30 0-57 10.5T375-800ZM268.5-451.5Q280-463 280-480t-11.5-28.5Q257-520 240-520t-28.5 11.5Q200-497 200-480t11.5 28.5Q223-440 240-440t28.5-11.5Zm120 0Q400-463 400-480t-11.5-28.5Q377-520 360-520t-28.5 11.5Q320-497 320-480t11.5 28.5Q343-440 360-440t28.5-11.5Zm120 0Q520-463 520-480t-11.5-28.5Q497-520 480-520t-28.5 11.5Q440-497 440-480t11.5 28.5Q463-440 480-440t28.5-11.5Zm120 0Q640-463 640-480t-11.5-28.5Q617-520 600-520t-28.5 11.5Q560-497 560-480t11.5 28.5Q583-440 600-440t28.5-11.5Zm120 0Q760-463 760-480t-11.5-28.5Q737-520 720-520t-28.5 11.5Q680-497 680-480t11.5 28.5Q703-440 720-440t28.5-11.5Zm-480 120Q280-343 280-360t-11.5-28.5Q257-400 240-400t-28.5 11.5Q200-377 200-360t11.5 28.5Q223-320 240-320t28.5-11.5Zm120 0Q400-343 400-360t-11.5-28.5Q377-400 360-400t-28.5 11.5Q320-377 320-360t11.5 28.5Q343-320 360-320t28.5-11.5Zm120 0Q520-343 520-360t-11.5-28.5Q497-400 480-400t-28.5 11.5Q440-377 440-360t11.5 28.5Q463-320 480-320t28.5-11.5Zm120 0Q640-343 640-360t-11.5-28.5Q617-400 600-400t-28.5 11.5Q560-377 560-360t11.5 28.5Q583-320 600-320t28.5-11.5Zm63 0Q703-320 720-320t28.5-11.5Q760-343 760-360t-11.5-28.5Q737-400 720-400t-28.5 11.5Q680-377 680-360t11.5 28.5Z"/>
</svg>
