<svg aria-hidden="true" viewBox="0 -960 960 960" fill="currentColor">
  <path d="M360-320h178q20 0 30-12.5t10-27.5q0-17-11.5-28.5T538-400H360q-17 0-28.5 11.5T320-360q0 17 11.5 28.5T360-320ZM160-200q-33 0-56.5-23.5T80-280v-400q0-33 23.5-56.5T160-760h640q33 0 56.5 23.5T880-680v178q0 20-12.5 30T840-462q-15 0-27.5-10T800-502v-178H160v400h360q17 0 28.5 11.5T560-240q0 17-11.5 28.5T520-200H160ZM674-80q-14 0-24-10t-10-24v-132q0-14 10-24t24-10h6v-40q0-33 23.5-56.5T760-400q33 0 56.5 23.5T840-320v40h6q14 0 24 10t10 24v132q0 14-10 24t-24 10H674Zm46-200h80v-40q0-17-11.5-28.5T760-360q-17 0-28.5 11.5T720-320v40ZM268.5-571.5Q280-583 280-600t-11.5-28.5Q257-640 240-640t-28.5 11.5Q200-617 200-600t11.5 28.5Q223-560 240-560t28.5-11.5Zm0 120Q280-463 280-480t-11.5-28.5Q257-520 240-520t-28.5 11.5Q200-497 200-480t11.5 28.5Q223-440 240-440t28.5-11.5Zm120-120Q400-583 400-600t-11.5-28.5Q377-640 360-640t-28.5 11.5Q320-617 320-600t11.5 28.5Q343-560 360-560t28.5-11.5Zm0 120Q400-463 400-480t-11.5-28.5Q377-520 360-520t-28.5 11.5Q320-497 320-480t11.5 28.5Q343-440 360-440t28.5-11.5Zm120-120Q520-583 520-600t-11.5-28.5Q497-640 480-640t-28.5 11.5Q440-617 440-600t11.5 28.5Q463-560 480-560t28.5-11.5Zm0 120Q520-463 520-480t-11.5-28.5Q497-520 480-520t-28.5 11.5Q440-497 440-480t11.5 28.5Q463-440 480-440t28.5-11.5Zm120-120Q640-583 640-600t-11.5-28.5Q617-640 600-640t-28.5 11.5Q560-617 560-600t11.5 28.5Q583-560 600-560t28.5-11.5Zm0 120Q640-463 640-480t-11.5-28.5Q617-520 600-520t-28.5 11.5Q560-497 560-480t11.5 28.5Q583-440 600-440t28.5-11.5Zm120-120Q760-583 760-600t-11.5-28.5Q737-640 720-640t-28.5 11.5Q680-617 680-600t11.5 28.5Q703-560 720-560t28.5-11.5Zm-57 75Q680-485 680-468t11.5 28.5Q703-428 720-428t28.5-11.5Q760-451 760-468t-11.5-28.5Q737-508 720-508t-28.5 11.5ZM480-480Z"/>
</svg>
