<svg aria-hidden="true" viewBox="0 -960 960 960" fill="currentColor">
  <path d="M320-280q-17 0-28.5-11.5T280-320q0-17 11.5-28.5T320-360h320q17 0 28.5 11.5T680-320q0 17-11.5 28.5T640-280H320ZM131.5-611.5Q120-623 120-640t11.5-28.5Q143-680 160-680t28.5 11.5Q200-657 200-640t-11.5 28.5Q177-600 160-600t-28.5-11.5Zm160 0Q280-623 280-640t11.5-28.5Q303-680 320-680t28.5 11.5Q360-657 360-640t-11.5 28.5Q337-600 320-600t-28.5-11.5Zm160 0Q440-623 440-640t11.5-28.5Q463-680 480-680t28.5 11.5Q520-657 520-640t-11.5 28.5Q497-600 480-600t-28.5-11.5Zm160 0Q600-623 600-640t11.5-28.5Q623-680 640-680t28.5 11.5Q680-657 680-640t-11.5 28.5Q657-600 640-600t-28.5-11.5Zm160 0Q760-623 760-640t11.5-28.5Q783-680 800-680t28.5 11.5Q840-657 840-640t-11.5 28.5Q817-600 800-600t-28.5-11.5Zm0 160Q760-463 760-480t11.5-28.5Q783-520 800-520t28.5 11.5Q840-497 840-480t-11.5 28.5Q817-440 800-440t-28.5-11.5Zm-160 0Q600-463 600-480t11.5-28.5Q623-520 640-520t28.5 11.5Q680-497 680-480t-11.5 28.5Q657-440 640-440t-28.5-11.5Zm-160 0Q440-463 440-480t11.5-28.5Q463-520 480-520t28.5 11.5Q520-497 520-480t-11.5 28.5Q497-440 480-440t-28.5-11.5Zm-160 0Q280-463 280-480t11.5-28.5Q303-520 320-520t28.5 11.5Q360-497 360-480t-11.5 28.5Q337-440 320-440t-28.5-11.5Zm-160 0Q120-463 120-480t11.5-28.5Q143-520 160-520t28.5 11.5Q200-497 200-480t-11.5 28.5Q177-440 160-440t-28.5-11.5Z"/>
</svg>
