<svg aria-hidden="true" viewBox="0 -960 960 960" fill="currentColor">
  <path d="M160-280v-400 400Zm0 91q-37.783 0-64.391-26.609-26.61-26.608-26.61-64.391v-400q0-37.783 26.61-64.391Q122.217-771 160-771h640q37.783 0 64.391 26.609Q891-717.783 891-680v266.739q-18.913-18.63-41.782-32.043-22.87-13.413-49.218-21.892V-680H160v400h322.565q-2.478 11.196-3.217 22.13-.739 10.935-.739 23.37t.739 23.37q.739 10.935 3.217 22.13H160Zm200-131h133.522q8.478-23 20.717-43 12.239-20 28.478-37H360q-17 0-28.5 11.5T320-360q0 17 11.5 28.5T360-320ZM200-520v80h80v-80h-80Zm120 0v80h80v-80h-80Zm120 0v80h80v-80h-80Zm120 0v80h29.435q11.761-7.761 24.402-14.022 12.641-6.261 26.163-11.261V-520h-80Zm120 0v44.478q10.717-2.239 21.054-3.358 10.337-1.12 22.055-1.12 10.043 0 18.826.88 8.782.881 18.065 2.642V-520h-80ZM200-640v80h80v-80h-80Zm120 0v80h80v-80h-80Zm120 0v80h80v-80h-80Zm120 0v80h80v-80h-80Zm120 0v80h80v-80h-80Zm36.956 451H603.109q-19.152 0-32.326-13.174T557.609-234.5q0-19.152 13.174-32.326T603.109-280h113.847l-27.391-27.391q-12.435-12.435-12.315-30.728.12-18.294 14.033-32.207Q703.957-383 723.109-383t31.826 12.674l104 103.761q13.674 13.674 13.674 32.065t-13.674 32.065l-104 103.761Q742.261-86 723.37-85.619q-18.892.38-33.044-13.772-12.435-12.435-12.435-31.109t12.435-31.109L716.956-189Z"/>
</svg>
