<svg aria-hidden="true" viewBox="0 -960 960 960" fill="currentColor">
  <path d="M123.587-112.587q-37.783 0-64.391-26.609-26.61-26.608-26.61-64.391v-512.826q0-37.783 26.61-64.391 26.608-26.609 64.391-26.609h712.826q37.783 0 64.391 26.609 26.609 26.608 26.609 64.391v512.826q0 37.783-26.609 64.391-26.608 26.609-64.391 26.609H123.587ZM340-278.087h280q8.765 0 15.339-6.478t6.574-15.315q0-8.837-6.574-15.435-6.574-6.598-15.339-6.598H340q-8.765 0-15.339 6.478t-6.574 15.315q0 8.837 6.574 15.435 6.574 6.598 15.339 6.598Zm-141.913-120h83.826v-83.826h-83.826v83.826Zm160 0h83.826v-83.826h-83.826v83.826Zm160 0h83.826v-83.826h-83.826v83.826Zm160 0h83.826v-83.826h-83.826v83.826Zm-480-160h83.826v-83.826h-83.826v83.826Zm160 0h83.826v-83.826h-83.826v83.826Zm160 0h83.826v-83.826h-83.826v83.826Zm160 0h83.826v-83.826h-83.826v83.826Z"/>
</svg>
