<svg aria-hidden="true" viewBox="0 -960 960 960" fill="currentColor">
  <path d="M600-520q-9 0-17.5 4T569-505l56 56q7-5 11-13.5t4-17.5q0-17-11.5-28.5T600-520Zm-240 40Zm167 160H360q-17 0-28.5-11.5T320-360q0-17 11.5-28.5T360-400h167v80ZM791-56 56-791q-12-12-12-28.5T56-848q12-12 28-12t28 12l735 736q12 12 12 28t-12 28q-12 12-28 12t-28-12Zm9-704q33 0 56.5 23.5T880-680v178q0 20-12.5 30T840-462q-15 0-27.5-10T800-502v-178H411q-20 0-30-12.5T371-720q0-15 10-27.5t30-12.5h389ZM160-200q-33 0-56.5-23.5T80-280v-400q0-33 23.5-56.5T160-760h40l80 80H160v400h360q17 0 28.5 11.5T560-240q0 17-11.5 28.5T520-200H160ZM674-80q-14 0-24-10t-10-24v-132q0-14 10-24t24-10h6l160 160v40H674Zm206-114-80-80v-46q0-17-11.5-28.5T760-360q-9 0-17.5 4T729-345l-28-29q11-12 26.5-19t32.5-7q33 0 56.5 23.5T840-320v40h6q14 0 24 10t10 24v52ZM211.5-571.5Q200-583 200-600t11.5-28.5Q223-640 240-640t28.5 11.5Q280-617 280-600t-11.5 28.5Q257-560 240-560t-28.5-11.5Zm0 120Q200-463 200-480t11.5-28.5Q223-520 240-520t28.5 11.5Q280-497 280-480t-11.5 28.5Q257-440 240-440t-28.5-11.5Zm120 0Q320-463 320-480t11.5-28.5Q343-520 360-520t28.5 11.5Q400-497 400-480t-11.5 28.5Q377-440 360-440t-28.5-11.5Zm297-120Q640-583 640-600t-11.5-28.5Q617-640 600-640t-28.5 11.5Q560-617 560-600t11.5 28.5Q583-560 600-560t28.5-11.5Zm120 0Q760-583 760-600t-11.5-28.5Q737-640 720-640t-28.5 11.5Q680-617 680-600t11.5 28.5Q703-560 720-560t28.5-11.5Zm-57 75Q680-485 680-468t11.5 28.5Q703-428 720-428t28.5-11.5Q760-451 760-468t-11.5-28.5Q737-508 720-508t-28.5 11.5ZM480-640q-9 0-17.5 4T449-625l56 56q7-5 11-13.5t4-17.5q0-17-11.5-28.5T480-640Zm36 81Z"/>
</svg>
