<svg aria-hidden="true" viewBox="0 -960 960 960" fill="currentColor">
  <path d="M200-520v80h80v-80h-80Zm120 0v80h80v-80h-80Zm120 0v80h80v-80h-80ZM200-640v80h80v-80h-80Zm120 0v80h80v-80h-80Zm120 0v80h80v-80h-80Zm120 0v80h80v-80h-80Zm120 0v80h80v-80h-80ZM160-189q-37.783 0-64.391-26.609-26.61-26.608-26.61-64.391v-400q0-37.783 26.61-64.391Q122.217-771 160-771h640q37.783 0 64.391 26.609Q891-717.783 891-680v266.739q-27.674-25.869-61.043-42.043-33.37-16.174-69.957-21.174V-520h-80v44.478q-11 2-20.5 4.12-9.5 2.119-19.5 6.119V-520h-80v80h29.674q-13.239 8-24.598 18.5-11.359 10.5-22.359 21.5H360q-17 0-28.5 11.5T320-360q0 17 11.5 28.5T360-320h133.522q-7.957 20.196-11.435 41.63-3.478 21.435-3.478 43.87 0 12.435.739 23.37t3.217 22.13H160Zm556.956 0H603.109q-19.152 0-32.326-13.174T557.609-234.5q0-19.152 13.174-32.326T603.109-280h113.847l-27.391-27.391q-12.435-12.435-12.315-30.728.12-18.294 14.033-32.207Q703.957-383 723.109-383t31.826 12.674l104 103.761q13.674 13.674 13.674 32.065t-13.674 32.065l-104 103.761Q742.261-86 723.37-85.619q-18.892.38-33.044-13.772-12.435-12.435-12.435-31.109t12.435-31.109L716.956-189Z"/>
</svg>
