<svg aria-hidden="true" viewBox="0 -960 960 960" fill="currentColor">
  <path d="M794-59 87-766q-12-12-11.5-28.5T88-823q12-12 28.5-12t28.5 12l706 707-57 57ZM360-320q-17 0-28.5-11.5T320-360q0-17 11.5-28.5T360-400h207l80 80H360Zm520-360v380q0 20-12.5 30T840-260q-15 0-27.5-10T800-300v-380H420q-20 0-30-12.5T380-720q0-15 10-27.5t30-12.5h380q33 0 56.5 23.5T880-680ZM160-200q-33 0-56.5-23.5T80-280v-400q0-33 23.5-56.5T160-760h47l80 80H160v400h527l80 80H160Zm213-280Zm227 0Zm-388.5-91.5Q200-583 200-600t11.5-28.5Q223-640 240-640t28.5 11.5Q280-617 280-600t-11.5 28.5Q257-560 240-560t-28.5-11.5ZM508-572l-56-56q5-5 12.5-8.5T480-640q17 0 28.5 11.5T520-600q0 8-3.5 15.5T508-572Zm63.5.5Q560-583 560-600t11.5-28.5Q583-640 600-640t28.5 11.5Q640-617 640-600t-11.5 28.5Q617-560 600-560t-28.5-11.5Zm120 0Q680-583 680-600t11.5-28.5Q703-640 720-640t28.5 11.5Q760-617 760-600t-11.5 28.5Q737-560 720-560t-28.5-11.5Zm-480 120Q200-463 200-480t11.5-28.5Q223-520 240-520t28.5 11.5Q280-497 280-480t-11.5 28.5Q257-440 240-440t-28.5-11.5Zm120 0Q320-463 320-480t11.5-28.5Q343-520 360-520t28.5 11.5Q400-497 400-480t-11.5 28.5Q377-440 360-440t-28.5-11.5ZM628-452l-56-56q5-5 12.5-8.5T600-520q17 0 28.5 11.5T640-480q0 8-3.5 15.5T628-452Zm63.5.5Q680-463 680-480t11.5-28.5Q703-520 720-520t28.5 11.5Q760-497 760-480t-11.5 28.5Q737-440 720-440t-28.5-11.5Z"/>
</svg>
