<svg aria-hidden="true" viewBox="0 -960 960 960" fill="currentColor">
  <path d="M466-54 354-166q-10-10-5-22t19-12h224q14 0 19 12t-5 22L494-54q-6 6-14 6t-14-6ZM160-280q-33 0-56.5-23.5T80-360v-400q0-33 23.5-56.5T160-840h640q33 0 56.5 23.5T880-760v400q0 33-23.5 56.5T800-280H160Zm0-80h640v-400H160v400Zm200-40h240q17 0 28.5-11.5T640-440q0-17-11.5-28.5T600-480H360q-17 0-28.5 11.5T320-440q0 17 11.5 28.5T360-400Zm-200 40v-400 400Zm40-160h80v-80h-80v80Zm120 0h80v-80h-80v80Zm120 0h80v-80h-80v80Zm120 0h80v-80h-80v80Zm120 0h80v-80h-80v80ZM200-640h80v-80h-80v80Zm120 0h80v-80h-80v80Zm120 0h80v-80h-80v80Zm120 0h80v-80h-80v80Zm120 0h80v-80h-80v80Z"/>
</svg>
