<svg aria-hidden="true" viewBox="0 -960 960 960" fill="currentColor">
  <path d="M160-80q-33 0-56.5-23.5T80-160v-400q0-33 23.5-56.5T160-640h640q33 0 56.5 23.5T880-560v400q0 33-23.5 56.5T800-80H160Zm0-80h640v-400H160v400Zm200-40h240q17 0 28.5-11.5T640-240q0-17-11.5-28.5T600-280H360q-17 0-28.5 11.5T320-240q0 17 11.5 28.5T360-200ZM200-320h80v-80h-80v80Zm120 0h80v-80h-80v80Zm120 0h80v-80h-80v80Zm120 0h80v-80h-80v80Zm120 0h80v-80h-80v80ZM200-440h80v-80h-80v80Zm120 0h80v-80h-80v80Zm120 0h80v-80h-80v80Zm120 0h80v-80h-80v80Zm120 0h80v-80h-80v80ZM160-160v-400 400Zm215-640h25q17 0 28.5 11.5T440-760q0 17-11.5 28.5T400-720H280q-17 0-28.5-11.5T240-760v-120q0-17 11.5-28.5T280-920q17 0 28.5 11.5T320-880v21q32-29 73-45t87-16q80 0 143 47.5T709-750q4 13-7 21.5t-27 8.5q-16 0-30-6t-20-20q-20-42-58.5-68T480-840q-30 0-57 10.5T375-800Z"/>
</svg>
