<svg aria-hidden="true" viewBox="0 -960 960 960" fill="currentColor">
  <path d="M160-200q-33 0-56.5-23.5T80-280v-400q0-33 23.5-56.5T160-760h640q33 0 56.5 23.5T880-680v400q0 33-23.5 56.5T800-200H160Zm0-80h640v-400H160v400Zm200-40h240q17 0 28.5-11.5T640-360q0-17-11.5-28.5T600-400H360q-17 0-28.5 11.5T320-360q0 17 11.5 28.5T360-320Zm-200 40v-400 400Zm40-160h80v-80h-80v80Zm120 0h80v-80h-80v80Zm120 0h80v-80h-80v80Zm120 0h80v-80h-80v80Zm120 0h80v-80h-80v80ZM200-560h80v-80h-80v80Zm120 0h80v-80h-80v80Zm120 0h80v-80h-80v80Zm120 0h80v-80h-80v80Zm120 0h80v-80h-80v80Z"/>
</svg>
