<svg aria-hidden="true" viewBox="0 -960 960 960" fill="currentColor">
  <path d="M120-160q-33 0-56.5-23.5T40-240v-480q0-33 23.5-56.5T120-800h720q33 0 56.5 23.5T920-720v480q0 33-23.5 56.5T840-160H120Zm0-80h720v-480H120v480Zm240-40h240q17 0 28.5-11.5T640-320q0-17-11.5-28.5T600-360H360q-17 0-28.5 11.5T320-320q0 17 11.5 28.5T360-280Zm-240 40v-480 480Zm148.5-331.5Q280-583 280-600t-11.5-28.5Q257-640 240-640t-28.5 11.5Q200-617 200-600t11.5 28.5Q223-560 240-560t28.5-11.5Zm160 0Q440-583 440-600t-11.5-28.5Q417-640 400-640t-28.5 11.5Q360-617 360-600t11.5 28.5Q383-560 400-560t28.5-11.5Zm160 0Q600-583 600-600t-11.5-28.5Q577-640 560-640t-28.5 11.5Q520-617 520-600t11.5 28.5Q543-560 560-560t28.5-11.5Zm160 0Q760-583 760-600t-11.5-28.5Q737-640 720-640t-28.5 11.5Q680-617 680-600t11.5 28.5Q703-560 720-560t28.5-11.5Zm-480 140Q280-443 280-460t-11.5-28.5Q257-500 240-500t-28.5 11.5Q200-477 200-460t11.5 28.5Q223-420 240-420t28.5-11.5Zm160 0Q440-443 440-460t-11.5-28.5Q417-500 400-500t-28.5 11.5Q360-477 360-460t11.5 28.5Q383-420 400-420t28.5-11.5Zm160 0Q600-443 600-460t-11.5-28.5Q577-500 560-500t-28.5 11.5Q520-477 520-460t11.5 28.5Q543-420 560-420t28.5-11.5Zm160 0Q760-443 760-460t-11.5-28.5Q737-500 720-500t-28.5 11.5Q680-477 680-460t11.5 28.5Q703-420 720-420t28.5-11.5Z"/>
</svg>
