<svg aria-hidden="true" viewBox="0 -960 960 960" fill="currentColor">
  <path d="M160-189q-37.783 0-64.391-26.609-26.61-26.608-26.61-64.391v-400q0-37.783 26.61-64.391Q122.217-771 160-771h640q37.783 0 64.391 26.609Q891-717.783 891-680v400q0 37.783-26.609 64.391Q837.783-189 800-189H160Zm0-91h640v-400H160v400Zm200-40h240q17 0 28.5-11.5T640-360q0-17-11.5-28.5T600-400H360q-17 0-28.5 11.5T320-360q0 17 11.5 28.5T360-320Zm-200 40v-400 400Zm40-160h80v-80h-80v80Zm120 0h80v-80h-80v80Zm120 0h80v-80h-80v80Zm120 0h80v-80h-80v80Zm120 0h80v-80h-80v80ZM200-560h80v-80h-80v80Zm120 0h80v-80h-80v80Zm120 0h80v-80h-80v80Zm120 0h80v-80h-80v80Zm120 0h80v-80h-80v80Z"/>
</svg>
