<svg aria-hidden="true" viewBox="0 -960 960 960" fill="currentColor">
  <path d="M727-200H600q-17 0-28.5-11.5T560-240q0-17 11.5-28.5T600-280h127l-36-36q-11-11-11-27.5t12-28.5q11-11 28-11t28 11l104 104q12 12 12 28t-12 28L748-108q-11 11-27.5 11.5T692-108q-11-11-11-28t11-28l35-36ZM268.5-571.5Q280-583 280-600t-11.5-28.5Q257-640 240-640t-28.5 11.5Q200-617 200-600t11.5 28.5Q223-560 240-560t28.5-11.5Zm120 0Q400-583 400-600t-11.5-28.5Q377-640 360-640t-28.5 11.5Q320-617 320-600t11.5 28.5Q343-560 360-560t28.5-11.5Zm120 0Q520-583 520-600t-11.5-28.5Q497-640 480-640t-28.5 11.5Q440-617 440-600t11.5 28.5Q463-560 480-560t28.5-11.5Zm120 0Q640-583 640-600t-11.5-28.5Q617-640 600-640t-28.5 11.5Q560-617 560-600t11.5 28.5Q583-560 600-560t28.5-11.5Zm120 0Q760-583 760-600t-11.5-28.5Q737-640 720-640t-28.5 11.5Q680-617 680-600t11.5 28.5Q703-560 720-560t28.5-11.5Zm-480 120Q280-463 280-480t-11.5-28.5Q257-520 240-520t-28.5 11.5Q200-497 200-480t11.5 28.5Q223-440 240-440t28.5-11.5Zm120 0Q400-463 400-480t-11.5-28.5Q377-520 360-520t-28.5 11.5Q320-497 320-480t11.5 28.5Q343-440 360-440t28.5-11.5Zm120 0Q520-463 520-480t-11.5-28.5Q497-520 480-520t-28.5 11.5Q440-497 440-480t11.5 28.5Q463-440 480-440t28.5-11.5ZM600-520q-17 0-28.5 11.5T560-480q0 14 8 25t22 14q11-7 22.5-13t24.5-11q3-10 2-19.5t-6-17.5q-5-8-13.5-13t-19.5-5ZM160-200q-33 0-56.5-23.5T80-280v-400q0-33 23.5-56.5T160-760h640q33 0 56.5 23.5T880-680v198q0 20-17.5 29t-35.5-1q-16-8-33-13.5t-34-8.5v-4q0-17-11.5-28.5T720-520q-17 0-28.5 11.5T680-480v4q-41 6-76 26.5T542-400H360q-17 0-28.5 11.5T320-360q0 17 11.5 28.5T360-320h134q-7 20-10 41t-3 42q0 15-10 26t-24 11H160Z"/>
</svg>
