<svg aria-hidden="true" viewBox="0 -960 960 960" fill="currentColor">
  <path d="M411-760h389q33 0 56.5 23.5T880-680v178q0 20-17.5 30.5T825-469q-16-5-32-8t-33-3q0-17-11.5-28.5T720-520q-17 0-28.5 11.5T680-480q0 4 .5 7.5t2.5 7.5q-13 5-24 12t-22 15l-12-11q2-2 11-14 2-4 3-8t1-9q0-17-11.5-28.5T600-520q-5 0-9 1t-8 3q-2 1-14 11l-64-64q2-2 11-14 2-4 3-8t1-9q0-17-11.5-28.5T480-640q-5 0-9 1t-8 3q-2 1-14 11l-66-67q-19-19-9-43.5t37-24.5ZM160-200q-33 0-56.5-23.5T80-280v-400q0-33 23.5-56.5T160-760h40l360 360H360q-17 0-28.5 11.5T320-360q0 17 11.5 28.5T360-320h204q-2 10-3 19.5t-1 20.5v40q0 17-11.5 28.5T520-200H160ZM791-56 56-791q-12-12-12-28.5T56-848q12-12 28-12t28 12l735 736q12 12 12 28t-12 28q-12 12-28 12t-28-12Zm89-138-80-80v-46q0-17-11.5-28.5T760-360q-9 0-17.5 4T729-345l-28-29q11-12 26.5-19t32.5-7q33 0 56.5 23.5T840-320v40h6q14 0 24 10t10 24v52ZM674-80q-14 0-24-10t-10-24v-132q0-14 10-24t24-10h6l160 160v40H674ZM268.5-571.5Q280-583 280-600t-11.5-28.5Q257-640 240-640t-28.5 11.5Q200-617 200-600t11.5 28.5Q223-560 240-560t28.5-11.5Zm0 120Q280-463 280-480t-11.5-28.5Q257-520 240-520t-28.5 11.5Q200-497 200-480t11.5 28.5Q223-440 240-440t28.5-11.5Zm120 0Q400-463 400-480t-11.5-28.5Q377-520 360-520t-28.5 11.5Q320-497 320-480t11.5 28.5Q343-440 360-440t28.5-11.5Zm240-120Q640-583 640-600t-11.5-28.5Q617-640 600-640t-28.5 11.5Q560-617 560-600t11.5 28.5Q583-560 600-560t28.5-11.5Zm120 0Q760-583 760-600t-11.5-28.5Q737-640 720-640t-28.5 11.5Q680-617 680-600t11.5 28.5Q703-560 720-560t28.5-11.5Z"/>
</svg>
