<svg aria-hidden="true" viewBox="0 -960 960 960" fill="currentColor">
  <path d="M71.87-271.869v-208.892q0-33.956 23.26-58.63 23.261-24.674 56.739-27.305V-677.13q0-37.538 26.732-64.269 26.731-26.732 64.269-26.732h474.26q37.538 0 64.269 26.732 26.732 26.731 26.732 64.269v110.434q33.478 2.631 56.739 27.685 23.261 25.054 23.261 59.011v208.131h-56.153l-18.282 59.76q-3.478 11.153-12.772 18.088-9.294 6.934-20.924 6.934-12.391 0-21.304-7.695-8.914-7.696-12.392-19.087l-18.282-58H231.978l-18.282 59.76q-3.478 11.153-12.772 18.088-9.294 6.934-20.924 6.934-12.391 0-21.304-7.695-8.914-7.696-12.392-19.087l-18.282-58H71.869ZM520-560h197.13v-117.13H520V-560Zm-277.13 0H440v-117.13H242.87V-560Zm-80 197.13h634.26V-480H162.87v117.13Zm634.26 0H162.87h634.26Z"/>
</svg>
