<svg aria-hidden="true" viewBox="0 -960 960 960" fill="currentColor">
  <path d="M320-760q-33 0-56.5-23.5T240-840q0-33 23.5-56.5T320-920q33 0 56.5 23.5T400-840q0 33-23.5 56.5T320-760Zm321-41q-9-9-9-21t9-21l77-77h84L683-801q-9 9-21 9t-21-9ZM360-200q-29 0-54-11t-46-29q14-11 29-23t31-23l-62-119q-9-17-13.5-36t-4.5-39v-160q0-33 23.5-56.5T320-720h120q42 0 78-15.5t64-42.5l56 56q-38 38-89 60t-109 22h-56v140h77q17 0 32.5 6.5T520-474l44 49q59-25 111-40t91-15q26 0 50 10t24 41q0 44-58 104T638-206q-9 3-18.5 4.5T600-200q-36 0-67-17t-53-43q-22 26-53 43t-67 17Zm33-136q18-11 48-28t47-25l-28-31-100 4 33 80ZM120-40q-17 0-28.5-11.5T80-80q0-17 11.5-28.5T120-120q26 0 51.5-6.5T220-147q9-5 20-5t20 5q23 14 48.5 20.5T360-120q26 0 51.5-6.5T460-147q9-5 20.5-5t19.5 5q23 14 48.5 20.5T600-120q26 0 51.5-6.5T700-147q8-5 20-5t20 5q23 14 48.5 20.5T840-120q17 0 28.5 11.5T880-80q0 17-11.5 28.5T840-40q-31 0-61-7.5T720-70q-29 15-59 22.5T600-40q-31 0-61-7.5T480-70q-29 15-59 22.5T360-40q-31 0-61-7.5T240-70q-29 15-59 22.5T120-40Z"/>
</svg>
