<svg aria-hidden="true" viewBox="0 -960 960 960" fill="currentColor">
  <path d="M320-761.913q-34.435 0-59.011-24.576T236.413-845.5q0-34.435 24.576-59.011T320-929.087q34.435 0 59.011 24.576t24.576 59.011q0 34.435-24.576 59.011T320-761.913Zm326.261-44.348q-9.478-9.478-9.478-22.315 0-12.837 9.478-22.315l71.022-71.022h89.021L690.891-806.261q-9.478 9.478-22.315 9.478-12.837 0-22.315-9.478ZM360-200.239q-29.717 0-55.794-11.239-26.076-11.239-47.793-30.435 13.761-11 28.522-22.761t30.282-22.522l-60.565-116.13q-9.239-17.478-13.739-36.957-4.5-19.478-4.5-39.717v-160q0-34.435 24.576-59.011T320-723.587h120q41.043 0 77.163-15.859 36.12-15.858 64.837-43.576L643.022-722q-39.674 39.674-91.989 62.63Q498.717-636.413 440-636.413h-52.413v132.826h70.065q19.391 0 37.163 7.457 17.772 7.456 30.207 22.13l39.935 44.696q58.521-24.522 110.402-39.403 51.88-14.88 90.641-14.88 27.196 0 52.391 10.717 25.196 10.718 25.196 43.87 0 43.283-55.011 101.848t-138.38 116.848q-12.109 4.913-24.837 7.489-12.729 2.576-25.359 2.576-35.761 0-66.761-16.402-31-16.402-53.239-41.685-22.239 25.283-53.239 41.685-31 16.402-66.761 16.402Zm34.913-141.022q17.044-10.522 44.054-25.848 27.011-15.326 43.055-23.087l-23.696-26.217-93.065 4 29.652 71.152ZM120-32.587q-18.435 0-31.01-12.695-12.577-12.696-12.577-31.131 0-18.435 12.576-31.011T120-120q25.043 0 49.706-6.5 24.664-6.5 47.664-20.022Q227.326-152 240-152t22.63 5.478q23 13.522 47.664 20.022Q334.957-120 360-120q25.043 0 49.946-6.5 24.902-6.5 47.663-20.022Q467.565-152 480.5-152q12.935 0 22.13 5.478 23 13.522 47.664 19.902 24.663 6.381 49.706 6.381 25.043 0 49.826-6.381 24.783-6.38 47.544-19.902Q706.565-152 719.88-152q13.316 0 22.511 5.478Q765.152-133 790.054-126.5 814.957-120 840-120q18.435 0 31.011 12.576t12.576 31.011q0 18.435-12.576 31.13Q858.435-32.587 840-32.587q-30.761 0-60.88-7.5-30.12-7.5-59.12-22.26-29 14.76-59.12 22.26-30.119 7.5-60.88 7.5-30.761 0-60.88-7.5-30.12-7.5-59.12-22.26-29 14.76-59.12 22.26-30.119 7.5-60.88 7.5-30.761 0-60.88-7.5-30.12-7.5-59.12-22.26-29 14.76-59.12 22.26-30.119 7.5-60.88 7.5Z"/>
</svg>
