<svg aria-hidden="true" viewBox="0 -960 960 960" fill="currentColor">
  <path d="M480-80q-83 0-141.5-58.5T280-280v-360q-33 0-56.5-23.5T200-720v-80q0-33 23.5-56.5T280-880h400q33 0 56.5 23.5T760-800v80q0 33-23.5 56.5T680-640v360q0 83-58.5 141.5T480-80ZM280-720h400v-80H280v80Zm200 560q39 0 70-22.5t43-57.5h-73q-17 0-28.5-11.5T480-280q0-17 11.5-28.5T520-320h80v-40h-80q-17 0-28.5-11.5T480-400q0-17 11.5-28.5T520-440h80v-40h-80q-17 0-28.5-11.5T480-520q0-17 11.5-28.5T520-560h80v-80H360v360q0 50 35 85t85 35ZM280-720v-80 80Z"/>
</svg>
