<svg aria-hidden="true" viewBox="0 -960 960 960" fill="currentColor">
  <path d="M65.413-156.413v-86.174l167.174 54.392 450.087-149.87 95.348 127.195q34.065 45.5 9.076 95.479-24.989 49.978-81.685 49.978h-549q-37.544 0-64.272-26.728-26.728-26.728-26.728-64.272Zm167.174-123.435-167.174-56.63v-71.609l167.174 54.391 284.37-94.391 97.934 40.044-382.304 128.195Zm560.739-138.478 79.631-35.413q25.108-11.196 39.782-33.446 14.674-22.25 14.674-49.598v-36.108q0-31.348-20.13-55.261-20.131-23.913-51.479-30.631l-70.913-15.847q-20.391-4.479-40.163.5-19.771 4.978-35.924 17.413l-34.5 27.695q-16.152 12.674-25.228 31.326Q640-579.043 640-558.413v36.826q0 20.391 9.076 38.804 9.076 18.413 24.511 31.327l26.5 21.456q19.152 16.391 44.641 19.25 25.49 2.859 48.598-7.576Zm-560.739-27.022-167.174-56.63V-554.5q0-36.348 27.087-60.924T156.413-640h114.5q21.63 0 40.902 9.576 19.272 9.576 31.707 26.728l73.021 97.109-183.956 61.239Zm293.348-208.739 100.717-39.935q26.109-10.195 41.522-33.184 15.413-22.99 15.413-51.098v-66.37q0-32.826-20.511-58.315-20.511-25.489-52.337-31.446l-92.761-18.608q-17.913-3.479-35.184 0-17.272 3.478-32.946 13.673l-49.065 32.979q-19.153 12.434-29.968 32.826Q360-853.174 360-830.304v64.195q0 22.87 10.815 43.261 10.815 20.392 29.968 32.826l41.108 27.5q19.152 12.435 41.283 14.794 22.13 2.358 42.761-6.359Z"/>
</svg>
