<svg aria-hidden="true" viewBox="0 -960 960 960" fill="currentColor">
  <path d="M160-80h560q50 0 72-44t-8-84L640-400l-200-80-96-128q-11-15-28-23.5t-36-8.5H160q-33 0-56.5 23.5T80-560v400q0 33 23.5 56.5T160-80Zm0-80v-64l80 26 361-120 119 158H160Zm80-122-80-27v-75l80 26 158-52 96 43-254 85Zm544-138 88-39q22-10 35-29.5t13-43.5v-44q0-28-17.5-50T857-654l-80-18q-18-4-35.5.5T710-656l-40 32q-14 11-22 27.5t-8 34.5v44q0 18 8 34.5t22 27.5l32 26q17 14 39.5 16.5T784-420Zm-544-22-80-27v-91h120l65 83-105 35Zm512-51-32-25v-44l40-32 80 18v44l-88 39ZM519-656l111-44q23-9 36.5-29t13.5-45v-80q0-29-18-51.5T616-933l-104-21q-16-3-31 0t-29 12l-56 38q-17 11-26.5 29t-9.5 38v74q0 20 9.5 38t26.5 29l49 33q17 11 36.5 13t37.5-6Zm-30-74-49-33v-74l57-38 103 21v80l-111 44Z"/>
</svg>
