<svg aria-hidden="true" viewBox="0 -960 960 960" fill="currentColor">
  <path d="M156.413-65.413h549q56.696 0 81.685-49.978 24.989-49.979-9.076-95.479L637.37-398.804l-202.153-82.392-91.695-122.26q-12.435-17.153-31.707-26.848Q292.543-640 270.913-640h-114.5q-37.544 0-64.272 26.728Q65.413-586.543 65.413-549v392.587q0 37.544 26.728 64.272 26.728 26.728 64.272 26.728Zm-3.826-87.174v-61.608l80 26 362.674-120.479 117.326 156.087h-560Zm80-127.261-80-27v-72.848l80 26 156.326-51.282 92.413 42.043-248.739 83.087Zm560.739-138.478 79.631-35.413q24.869-11.196 39.663-33.207 14.793-22.011 14.793-49.358v-36.587q0-31.348-20.13-55.261-20.131-23.913-51.479-30.631l-70.913-15.847q-20.391-4.479-40.163.5-19.771 4.978-35.924 17.413l-34.5 27.695q-16.152 12.674-25.228 31.326Q640-579.043 640-558.413v36.826q0 20.391 9.076 38.804 9.076 18.413 24.511 31.327l26.5 21.456q19.152 16.391 44.641 19.25 25.49 2.859 48.598-7.576Zm-560.739-27.022-80-27v-80.239h120l58.543 74.391-98.543 32.848Zm523.717-51.956-28.891-22.609v-40.174l37.131-29.848L840-573.13v38.739l-83.696 37.087ZM525.935-654.087l100.717-39.935q26.109-10.195 41.522-33.184 15.413-22.99 15.413-51.098v-66.37q0-32.826-20.511-58.315-20.511-25.489-52.337-31.446l-92.761-18.608q-17.913-3.479-35.184 0-17.272 3.478-32.946 13.673l-49.065 32.979q-19.153 12.434-29.968 32.826Q360-853.174 360-830.304v64.195q0 22.87 10.815 43.261 10.815 20.392 29.968 32.826l41.108 27.5q19.152 12.435 41.283 14.794 22.13 2.358 42.761-6.359Zm-34.783-78.304L445.5-763.239v-69.935l54.13-36.087 98.457 20.044v74.5l-106.935 42.326Z"/>
</svg>
