<svg aria-hidden="true" viewBox="0 -960 960 960" fill="currentColor">
  <path d="M80-160v-90l160 52 441-147 103 137q30 40 8 84t-72 44H160q-33 0-56.5-23.5T80-160Zm160-122L80-336v-74l160 52 276-92 102 41-378 127Zm544-138 88-39q22-10 35-29.5t13-43.5v-44q0-28-17.5-50T857-654l-80-18q-18-4-35.5.5T710-656l-40 32q-14 11-22 27.5t-8 34.5v44q0 18 8 34.5t22 27.5l32 26q17 14 39.5 16.5T784-420Zm-544-22L80-496v-64q0-33 23.5-56.5T160-640h120q19 0 36 8.5t28 23.5l79 105-183 61Zm279-214 111-44q23-9 36.5-29t13.5-45v-80q0-29-18-51.5T616-933l-104-21q-16-3-31 0t-29 12l-56 38q-17 11-26.5 29t-9.5 38v74q0 20 9.5 38t26.5 29l49 33q17 11 36.5 13t37.5-6Z"/>
</svg>
