<svg aria-hidden="true" viewBox="0 -960 960 960" fill="currentColor">
  <path d="M605.739-366.218H757.13v-72.108H605.739v72.108Zm0-155.934H757.13v-71.63H605.739v71.63ZM197.848-280q-34.48 0-59.034-24.554-24.553-24.553-24.553-59.033v-233.065q0-34.381 24.553-58.865Q163.368-680 197.848-680h158.565q35.391 0 60.446 25.326 25.054 25.327 25.054 60.892H202.87v227.564h150.434v-70.673H320q-17.813 0-29.863-12.05t-12.05-29.863q0-17.813 12.05-29.863T320-520.717h76.413q19.152 0 32.326 13.174 13.174 13.173 13.174 32.326v111.63q0 34.48-24.483 59.033Q392.946-280 358.565-280H197.848Zm364.782 0q-19.152 0-32.326-13.174T517.13-325.5v-309q0-19.152 13.174-32.326T562.63-680h199.761q34.381 0 58.865 24.483 24.483 24.484 24.483 58.865v52.826q0 24.522-16.065 42.5t-39.869 21.087q23.804 3.109 39.869 21.087t16.065 42.5v53.065q0 34.48-24.483 59.033Q796.772-280 762.391-280H562.63Z"/>
</svg>
