<svg aria-hidden="true" viewBox="0 -960 960 960" fill="currentColor">
  <path d="m196.435-593.261 127.391-70.196v238.674q-22.913 1.522-45.304 6.381-22.392 4.858-43.305 13.815v-108.282l-33.347 17.934q-16.153 8.957-34.185 3.979-18.033-4.979-27.229-21.131L61.174-649.891q-9.196-16.152-4.218-34.685 4.979-18.533 21.13-27.728l193.979-112.131q14.631-8.435 30.261-14.391 15.631-5.957 32.5-5.957 15.435 0 26.989 8.979 11.555 8.978 17.511 22.934 13.283 33.457 34.826 55.989 21.544 22.533 65.848 22.533t65.848-22.533q21.543-22.532 34.826-55.989 5.956-13.956 17.891-22.934 11.935-8.979 27.37-8.979 16.869 0 32.119 5.957 15.25 5.956 29.881 14.391l193.978 112.131q15.913 10.195 20.511 28.228 4.598 18.033-4.598 34.185l-78.282 137.804q-9.196 16.152-27.229 21.131-18.032 4.978-34.185-3.979l-33.347-17.934v172.151l-63.239 55.239q-5.87 4.631-12.544 8.229-6.674 3.598-12.826 5.119v-391.326l127.391 70.196 36.174-63.304-153.239-89q-23.283 45.891-68.587 72.858-45.304 26.968-97.913 26.968-52.609 0-97.196-27.087-44.586-27.087-68.108-73.457l-155.435 89.718 37.174 63.304ZM335-271.152q-16.283 0-31.946 5.261t-27.184 14.782l-57 48q-14.196 12.196-32.109 10.837-17.913-1.358-30.109-15.554-12.196-14.196-10.456-32.489 1.739-18.294 15.934-30.489l56-48q23.718-20.718 54.055-31.337 30.337-10.62 62.815-10.62 32.478 0 62.315 10.62 29.837 10.619 53.555 31.337l116 99q11.521 9.521 27.184 14.782 15.663 5.261 31.946 5.261 17.043 0 31.826-4.88 14.783-4.881 26.304-15.163l56-48q14.435-12.196 32.729-10.957 18.293 1.239 30.489 15.674 11.956 14.435 10.337 32.609-1.62 18.174-15.815 30.369l-56 48q-23.718 20.718-53.555 30.837-29.837 10.12-62.315 10.12-32.478 0-62.815-10.12-30.337-10.119-54.055-30.837l-116-99q-11.521-9.521-26.304-14.782-14.783-5.261-31.826-5.261Zm145-374.587Z"/>
</svg>
