<svg aria-hidden="true" viewBox="0 -960 960 960" fill="currentColor">
  <path d="M240-401v-120l-41 22q-14 8-30 3.5T145-514L65-653q-8-14-3.5-30.5T80-708l199-115q12-7 25-12t27-5q14 0 24 8.5t15 21.5q11 31 32.5 60.5T480-720q56 0 77.5-29.5T590-810q5-13 15-21.5t24-8.5q14 0 27 5t25 12l199 115q14 9 18 25.5t-4 30.5l-79 138q-8 14-24 18.5t-30-3.5l-41-22v192l-63 55q-8 7-15.5 10t-18.5 3q-6 0-14-4t-16-10l-106-91q-32-28-72-41.5T334-421q-23 0-47.5 5T240-401Zm95 121q-17 0-33.5 5.5T273-259l-57 48q-13 11-29 10t-27-14q-11-13-9.5-29.5T165-272l56-48q23-20 52.5-30.5T335-361q32 0 61 10.5t52 30.5l116 99q12 10 28.5 15.5T626-200q18 0 33.5-5t27.5-16l56-48q13-11 29.5-10t27.5 14q11 13 9.5 29.5T795-208l-56 48q-23 20-52 30t-61 10q-32 0-61.5-10T512-160l-116-99q-12-10-27.5-15.5T335-280Z"/>
</svg>
