<svg aria-hidden="true" viewBox="0 -960 960 960" fill="currentColor">
  <path d="M235.217-404.587v-108.282l-33.347 17.934q-16.153 8.957-34.185 3.979-18.033-4.979-27.229-21.131L61.174-649.891q-9.196-16.152-4.218-34.685 4.979-18.533 21.13-27.728l193.979-112.131q14.631-8.435 30.261-14.391 15.631-5.957 32.5-5.957 15.435 0 26.989 8.979 11.555 8.978 17.511 22.934 9.326 26.935 30.587 52.728 21.261 25.794 70.087 25.794 48.826 0 70.087-25.794 21.261-25.793 30.587-52.728 5.956-13.956 17.511-22.934 11.554-8.979 26.989-8.979 16.869 0 32.5 5.957 15.63 5.956 30.261 14.391l193.978 112.131q15.913 10.195 20.511 28.608 4.598 18.413-4.598 34.566l-78.282 137.043q-9.196 16.152-27.229 21.131-18.032 4.978-34.185-3.979l-33.347-17.934v172.151l-63.239 55.239q-9.674 8.435-18.25 12.033-8.577 3.598-20.055 3.598-7.435 0-16.033-4.239-8.597-4.239-18.271-11.913l-95.957-82.391q-32.956-28.718-74.271-42.935-41.316-14.218-84.229-14.218-24.435 0-50.25 5.24-25.815 5.239-49.011 15.717ZM335-271.152q-16.283 0-31.946 5.261t-27.184 14.782l-57 48q-14.196 12.196-32.109 10.837-17.913-1.358-30.109-15.554-12.196-14.196-10.456-32.489 1.739-18.294 15.934-30.489l56-48q23.718-20.718 54.055-31.337 30.337-10.62 62.815-10.62 32.478 0 62.315 10.62 29.837 10.619 53.555 31.337l116 99q11.282 9.521 27.065 14.782 15.782 5.261 32.065 5.261 17.043 0 31.946-4.88 14.902-4.881 26.184-15.163l56-48q14.435-12.196 32.729-10.957 18.293 1.239 30.489 15.674 11.956 14.435 10.337 32.609-1.62 18.174-15.815 30.369l-56 48q-23.718 20.718-53.555 30.837-29.837 10.12-62.315 10.12-32.478 0-62.815-10.12-30.337-10.119-54.055-30.837l-116-99q-11.282-9.521-26.184-14.782-14.903-5.261-31.946-5.261Z"/>
</svg>
