<svg aria-hidden="true" viewBox="0 -960 960 960" fill="currentColor">
  <path d="m644-448-56-58 122-94-230-178-94 72-56-58 101-78q22-17 49-17t49 17l230 179q31 24 31 63t-31 63l-115 89Zm115 114-58-58 49-37q11-8 24.5-8t24.5 8q16 12 16 31.5T799-366l-40 32Zm5 230L632-236l-103 80q-22 17-49 17t-49-17L161-366q-16-12-15.5-31.5T162-429q11-8 24-8t24 8l270 209 94-73-70-68h29l-4 2q-22 17-49 17.5T431-358L201-537q-31-24-31-63t31-63l2-2L84-783q-12-12-12.5-28.5T83-840q12-12 28.5-12t28.5 12l680 680q11 11 11 28t-11 28q-11 11-28 11t-28-11ZM487-606Z"/>
</svg>
