<svg aria-hidden="true" viewBox="0 -960 960 960" fill="currentColor">
  <path d="M165.5-514.5v309h149v-309h-149Zm240-240v549h149v-549h-149Zm240 320v229h149v-229h-149Zm149 320h-629q-37.537 0-64.269-26.731Q74.5-167.963 74.5-205.5v-309q0-37.537 26.731-64.269Q127.963-605.5 165.5-605.5h149v-149q0-37.537 26.731-64.269Q367.963-845.5 405.5-845.5h149q37.537 0 64.269 26.731Q645.5-792.037 645.5-754.5v229h149q37.537 0 64.269 26.731Q885.5-472.037 885.5-434.5v229q0 37.537-26.731 64.269Q832.037-114.5 794.5-114.5Z"/>
</svg>
