<svg aria-hidden="true" viewBox="0 -960 960 960" fill="currentColor">
  <path d="M120-114.5q-19.152 0-32.326-13.174T74.5-160v-400q0-19.152 13.174-32.326T120-605.5h134.5q19.152 0 32.326 13.174T300-560v400q0 19.152-13.174 32.326T254.5-114.5H120Zm291.913 0q-19.152 0-32.326-13.174T366.413-160v-640q0-19.152 13.174-32.326t32.326-13.174h136.174q19.152 0 32.326 13.174T593.587-800v640q0 19.152-13.174 32.326T548.087-114.5H411.913Zm293.587 0q-19.152 0-32.326-13.174T660-160v-320q0-19.152 13.174-32.326T705.5-525.5H840q19.152 0 32.326 13.174T885.5-480v320q0 19.152-13.174 32.326T840-114.5H705.5Z"/>
</svg>
