<svg aria-hidden="true" viewBox="0 -960 960 960" fill="currentColor">
  <path d="M120-720v-120h120q0 50-35 85t-85 35Zm40 318q-16 2-28-9.5T120-440q0-16 11.5-28t28.5-14q126-14 215-103t103-215q2-17 13.5-28.5T520-840q17 0 28.5 12t9.5 28q-14 159-126.5 271.5T160-402Zm0-161q-16 2-28-9t-12-28q0-16 11-28t28-16q60-12 102.5-54.5T316-801q4-17 16-28t28-11q17 0 28 12t9 28q-13 93-78.5 158.5T160-563Zm280 443q-17 0-28.5-12t-9.5-28q14-159 126.5-271.5T800-558q16-2 28 9.5t12 28.5q0 16-11.5 28T800-478q-126 14-215 103T482-160q-2 17-13.5 28.5T440-120Zm280 0q0-50 35-85t85-35v120H720Zm-120 0q-17 0-28-12t-9-28q13-93 78.5-158.5T800-397q16-2 28 9t12 28q0 16-11 28t-28 16q-60 12-102.5 54.5T644-159q-4 17-16 28t-28 11Z"/>
</svg>
