<svg aria-hidden="true" viewBox="0 -960 960 960" fill="currentColor">
  <path d="M111.869-724.304v-123.827h123.827q0 51.674-36.077 87.75-36.076 36.077-87.75 36.077Zm43.587 324.934q-17.434 2-30.511-10.336-13.076-12.337-13.076-30.772 0-17.435 12.576-30.75 12.577-13.316 31.011-15.794Q280.5-501.978 369.261-590.739q88.761-88.761 103.717-213.805 2.239-18.434 15.174-31.011 12.935-12.576 31.37-12.576 18.435 0 30.891 13.076 12.457 13.077 10.217 30.511-15.195 161.153-129.608 275.566Q316.609-414.565 155.456-399.37Zm0-164.826q-17.434 2.479-30.511-9.598-13.076-12.076-13.076-30.51 0-17.196 12.076-30.511 12.077-13.316 30.751-18.272 57.847-12.478 98.793-53.424 40.946-40.946 53.424-98.793 4.956-18.674 18.152-30.751 13.196-12.076 30.631-12.076 18.434 0 30.51 13.076 12.077 13.077 9.598 30.511-13.956 93.957-80.174 160.174-66.217 66.218-160.174 80.174Zm285.022 452.327q-18.435 0-31.011-13.076-12.576-13.077-10.337-30.511 15.196-161.631 129.49-275.924 114.293-114.294 275.924-129.49 17.434-2 30.511 10.576 13.076 12.577 13.076 31.251 0 17.434-12.576 30.51-12.577 13.077-31.011 15.555Q679.5-458.022 590.739-369.261 501.978-280.5 487.022-155.456q-2.239 18.434-15.174 31.011-12.935 12.576-31.37 12.576Zm283.826 0q0-51.674 36.077-87.75 36.076-36.077 87.75-36.077v123.827H724.304Zm-120 0q-18.434 0-30.51-13.076-12.077-13.077-9.598-30.511 13.956-93.957 80.174-160.174 66.217-66.218 160.174-80.174 17.434-2.479 30.511 9.598 13.076 12.076 13.076 30.75 0 17.195-12.076 30.391-12.077 13.196-30.751 18.152-57.847 12.478-98.793 53.424-40.946 40.946-53.424 98.793-4.956 18.674-18.152 30.751-13.196 12.076-30.631 12.076Z"/>
</svg>
