<svg aria-hidden="true" viewBox="0 -960 960 960" fill="currentColor">
  <path d="M396.761-664 223.87-558.913q-22.87 13.674-46.12.619-23.25-13.054-23.25-39.402 0-12.435 5.837-23.011 5.837-10.576 16.033-16.532l223.869-135.913L600-631.392l133.891-94.847q22.631-16.153 47.12-3.479 24.489 12.674 24.489 40.022 0 11.435-5.098 21.511-5.098 10.076-14.054 16.033L600-519.761 396.761-664ZM200-354.5q-19.152 0-32.326-13.174T154.5-400q0-19.152 13.174-32.326T200-445.5h560q19.152 0 32.326 13.174T805.5-400q0 19.152-13.174 32.326T760-354.5H200Zm0 165.5q-19.152 0-32.326-13.174T154.5-234.5q0-19.152 13.174-32.326T200-280h560q19.152 0 32.326 13.174T805.5-234.5q0 19.152-13.174 32.326T760-189H200Z"/>
</svg>
