<svg aria-hidden="true" viewBox="0 -960 960 960" fill="currentColor">
  <path d="M200-80q-50 0-85-35t-35-86v-126q10 3 19.5 4.5T120-321h760v241H200Zm680-553q-10-3-19.5-5t-20.5-2H80v-240h680q50 0 85 35t35 85v127ZM120-400q-17 0-28.5-10.5T80-437q0-18 14.5-30t56.5-28l167-65h522q17 0 28.5 11.5T880-520q0 31-21.5 57T801-423l-64 23H120Zm171.5-338.5Q300-747 300-760t-8.5-21.5Q283-790 270-790t-21.5 8.5Q240-773 240-760t8.5 21.5Q257-730 270-730t21.5-8.5Zm0 560Q300-187 300-200t-8.5-21.5Q283-230 270-230t-21.5 8.5Q240-213 240-200t8.5 21.5Q257-170 270-170t21.5-8.5Zm40-230Q340-417 340-430t-8.5-21.5Q323-460 310-460t-21.5 8.5Q280-443 280-430t8.5 21.5Q297-400 310-400t21.5-8.5Zm170-330Q510-747 510-760t-8.5-21.5Q493-790 480-790t-21.5 8.5Q450-773 450-760t8.5 21.5Q467-730 480-730t21.5-8.5Zm0 290Q510-457 510-470t-8.5-21.5Q493-500 480-500t-21.5 8.5Q450-483 450-470t8.5 21.5Q467-440 480-440t21.5-8.5Zm0 270Q510-187 510-200t-8.5-21.5Q493-230 480-230t-21.5 8.5Q450-213 450-200t8.5 21.5Q467-170 480-170t21.5-8.5Zm160-330Q670-517 670-530t-8.5-21.5Q653-560 640-560t-21.5 8.5Q610-543 610-530t8.5 21.5Q627-500 640-500t21.5-8.5Zm50-230Q720-747 720-760t-8.5-21.5Q703-790 690-790t-21.5 8.5Q660-773 660-760t8.5 21.5Q677-730 690-730t21.5-8.5Zm0 560Q720-187 720-200t-8.5-21.5Q703-230 690-230t-21.5 8.5Q660-213 660-200t8.5 21.5Q677-170 690-170t21.5-8.5Z"/>
</svg>
