<svg aria-hidden="true" viewBox="0 -960 960 960" fill="currentColor">
  <path d="m239-272-67 167q-8 18-23 22.5t-29-.5q-14-5-22-19t0-33l142-352v-113H109q-23 0-34.5-20t-.5-40l103-180q11-19 29-29.5t40-10.5h68q22 0 40 10.5t29 29.5l103 180q11 20-.5 40T451-600H320v113l140 352q8 19 0 33t-22 19q-14 5-29 .5T386-105l-67-167v152q0 17-11.5 28.5T279-80q-17 0-28.5-11.5T239-120v-152Zm441 32q-55 0-98-33t-57-87h-19q-23 0-40.5-16T448-415q0-36 32.5-78.5T541-556q5-41 32-71.5t67-43.5v-169q0-17 11.5-28.5T680-880q17 0 28.5 11.5T720-840v169q39 13 66 43.5t32 71.5q28 20 61 64t33 80q0 23-17.5 37.5T854-360h-20q-14 54-57 87t-97 33Zm0-80q21 0 39-10.5t29-29.5H611q11 19 29 29.5t40 10.5Z"/>
</svg>
