<svg aria-hidden="true" viewBox="0 -960 960 960" fill="currentColor">
  <path d="M380-427.087 173.826-220.913Q159.391-206.478 140-206.478t-33.826-14.435q-14.435-14.435-14.435-33.946 0-19.511 14.435-33.945l242-242q13.435-13.435 31.826-13.435t31.826 13.435L539.522-402.87l61.5-69.782-218.979-206.044-208.217 208.218Q159.391-456.043 140-456.043t-33.826-14.435q-14.435-14.435-14.435-33.826 0-19.392 14.435-33.827l242.522-242.76q12.913-12.914 31.304-13.174 18.391-.261 31.826 12.652l253.609 237.391 126.261-143.543q12.434-14.674 32.326-14.794 19.891-.119 33.804 13.555 12.674 12.434 13.294 30.206.619 17.772-11.816 31.446L730.848-482.413l121.456 113.609q15.435 13.913 15.316 34.185-.12 20.271-14.555 34.706-13.913 13.913-33.424 13.794-19.511-.12-33.945-13.272l-118.5-110.652-94.892 106.891q-12.674 14.674-32.445 15.413-19.772.739-33.685-13.174L380-427.087Z"/>
</svg>
