<svg aria-hidden="true" viewBox="0 -960 960 960" fill="currentColor">
  <path d="m770-302-60-62q40-11 65-42.5t25-73.5q0-50-35-85t-85-35H560q-17 0-28.5-11.5T520-640q0-17 11.5-28.5T560-680h120q83 0 141.5 58.5T880-480q0 57-29.5 105T770-302ZM625-449l-71-71h46q17 0 28.5 11.5T640-480q0 10-4 18t-11 13ZM820-84q-11 11-28 11t-28-11L84-764q-11-11-11-28t11-28q11-11 28-11t28 11l680 680q11 11 11 28t-11 28ZM280-280q-83 0-141.5-58.5T80-480q0-69 42-123t108-71l74 74h-24q-50 0-85 35t-35 85q0 50 35 85t85 35h120q17 0 28.5 11.5T440-320q0 17-11.5 28.5T400-280H280Zm80-160q-17 0-28.5-11.5T320-480q0-17 11.5-28.5T360-520h25l79 80H360Z"/>
</svg>
