<svg aria-hidden="true" viewBox="0 -960 960 960" fill="currentColor">
  <path d="M348.5-291.5Q360-303 360-320t-11.5-28.5Q337-360 320-360t-28.5 11.5Q280-337 280-320t11.5 28.5Q303-280 320-280t28.5-11.5Zm0-160Q360-463 360-480t-11.5-28.5Q337-520 320-520t-28.5 11.5Q280-497 280-480t11.5 28.5Q303-440 320-440t28.5-11.5Zm0-160Q360-623 360-640t-11.5-28.5Q337-680 320-680t-28.5 11.5Q280-657 280-640t11.5 28.5Q303-600 320-600t28.5-11.5ZM480-280h160q17 0 28.5-11.5T680-320q0-17-11.5-28.5T640-360H480q-17 0-28.5 11.5T440-320q0 17 11.5 28.5T480-280Zm0-160h160q17 0 28.5-11.5T680-480q0-17-11.5-28.5T640-520H480q-17 0-28.5 11.5T440-480q0 17 11.5 28.5T480-440Zm0-160h160q17 0 28.5-11.5T680-640q0-17-11.5-28.5T640-680H480q-17 0-28.5 11.5T440-640q0 17 11.5 28.5T480-600ZM200-120q-33 0-56.5-23.5T120-200v-560q0-33 23.5-56.5T200-840h560q33 0 56.5 23.5T840-760v560q0 33-23.5 56.5T760-120H200Z"/>
</svg>
