<svg aria-hidden="true" viewBox="0 -960 960 960" fill="currentColor">
  <path d="M200-200v-560 560Zm0 80q-33 0-56.5-23.5T120-200v-560q0-33 23.5-56.5T200-840h560q33 0 56.5 23.5T840-760v353q-18-11-38-18t-42-11v-324H200v560h280q0 21 3 41t10 39H200Zm120-160q17 0 28.5-11.5T360-320q0-17-11.5-28.5T320-360q-17 0-28.5 11.5T280-320q0 17 11.5 28.5T320-280Zm0-160q17 0 28.5-11.5T360-480q0-17-11.5-28.5T320-520q-17 0-28.5 11.5T280-480q0 17 11.5 28.5T320-440Zm0-160q17 0 28.5-11.5T360-640q0-17-11.5-28.5T320-680q-17 0-28.5 11.5T280-640q0 17 11.5 28.5T320-600Zm320 160q17 0 28.5-11.5T680-480q0-17-11.5-28.5T640-520H480q-17 0-28.5 11.5T440-480q0 17 11.5 28.5T480-440h160Zm0-160q17 0 28.5-11.5T680-640q0-17-11.5-28.5T640-680H480q-17 0-28.5 11.5T440-640q0 17 11.5 28.5T480-600h160ZM494-280q8-23 20-43t28-37h-62q-17 0-28.5 11.5T440-320q0 17 11.5 28.5T480-280h14Zm186 120h-80q-17 0-28.5-11.5T560-200q0-17 11.5-28.5T600-240h80v-80q0-17 11.5-28.5T720-360q17 0 28.5 11.5T760-320v80h80q17 0 28.5 11.5T880-200q0 17-11.5 28.5T840-160h-80v80q0 17-11.5 28.5T720-40q-17 0-28.5-11.5T680-80v-80Z"/>
</svg>
