<svg aria-hidden="true" viewBox="0 -960 960 960" fill="currentColor">
  <path d="M640-440q17 0 28.5-11.5T680-480q0-17-11.5-28.5T640-520H480q-17 0-28.5 11.5T440-480q0 17 11.5 28.5T480-440h160Zm0-160q17 0 28.5-11.5T680-640q0-17-11.5-28.5T640-680H480q-17 0-28.5 11.5T440-640q0 17 11.5 28.5T480-600h160Zm40 440h-80q-17 0-28.5-11.5T560-200q0-17 11.5-28.5T600-240h80v-80q0-17 11.5-28.5T720-360q17 0 28.5 11.5T760-320v80h80q17 0 28.5 11.5T880-200q0 17-11.5 28.5T840-160h-80v80q0 17-11.5 28.5T720-40q-17 0-28.5-11.5T680-80v-80ZM348.5-291.5Q360-303 360-320t-11.5-28.5Q337-360 320-360t-28.5 11.5Q280-337 280-320t11.5 28.5Q303-280 320-280t28.5-11.5Zm0-160Q360-463 360-480t-11.5-28.5Q337-520 320-520t-28.5 11.5Q280-497 280-480t11.5 28.5Q303-440 320-440t28.5-11.5Zm0-160Q360-623 360-640t-11.5-28.5Q337-680 320-680t-28.5 11.5Q280-657 280-640t11.5 28.5Q303-600 320-600t28.5-11.5ZM200-120q-33 0-56.5-23.5T120-200v-560q0-33 23.5-56.5T200-840h560q33 0 56.5 23.5T840-760v301q0 18-15.5 28t-32.5 3q-17-5-35.5-8t-36.5-3q-53 0-99 21t-79 58h-62q-17 0-28.5 11.5T440-320q0 17 11.5 28.5T480-280h14q-7 19-10.5 39t-3.5 41q0 8 .5 17t1.5 17q2 18-8.5 32T446-120H200Z"/>
</svg>
