<svg aria-hidden="true" viewBox="0 -960 960 960" fill="currentColor">
  <path d="m694-193 141-142q12-12 28.5-12t28.5 12q12 12 12 28.5T892-278L722-108q-12 12-28.5 12T665-108l-85-85q-11-12-11-28.5t12-28.5q12-12 28-12t28 12l57 57ZM348.5-451.5Q360-463 360-480t-11.5-28.5Q337-520 320-520t-28.5 11.5Q280-497 280-480t11.5 28.5Q303-440 320-440t28.5-11.5Zm0-160Q360-623 360-640t-11.5-28.5Q337-680 320-680t-28.5 11.5Q280-657 280-640t11.5 28.5Q303-600 320-600t28.5-11.5ZM640-440q17 0 28.5-11.5T680-480q0-17-11.5-28.5T640-520H480q-17 0-28.5 11.5T440-480q0 17 11.5 28.5T480-440h160Zm0-160q17 0 28.5-11.5T680-640q0-17-11.5-28.5T640-680H480q-17 0-28.5 11.5T440-640q0 17 11.5 28.5T480-600h160ZM200-120q-33 0-56.5-23.5T120-200v-560q0-33 23.5-56.5T200-840h560q33 0 56.5 23.5T840-760v275q0 16-6.5 30.5T816-429L694-306l-29-29q-23-23-56.5-23T552-335l-56 57q-12 12-18 26.5t-6 29.5q0 14 4 25.5t12 22.5q12 17 4.5 35.5T466-120H200Z"/>
</svg>
