<svg aria-hidden="true" viewBox="0 -960 960 960" fill="currentColor">
  <path d="M200-200v-560 560Zm0 80q-33 0-56.5-23.5T120-200v-560q0-33 23.5-56.5T200-840h560q33 0 56.5 23.5T840-760v301q0 17-11.5 28T800-420q-17 0-28.5-11.5T760-460v-300H200v560h240q17 0 28.5 11.5T480-160q0 17-11.5 28.5T440-120H200Zm148.5-171.5Q360-303 360-320t-11.5-28.5Q337-360 320-360t-28.5 11.5Q280-337 280-320t11.5 28.5Q303-280 320-280t28.5-11.5Zm0-160Q360-463 360-480t-11.5-28.5Q337-520 320-520t-28.5 11.5Q280-497 280-480t11.5 28.5Q303-440 320-440t28.5-11.5Zm0-160Q360-623 360-640t-11.5-28.5Q337-680 320-680t-28.5 11.5Q280-657 280-640t11.5 28.5Q303-600 320-600t28.5-11.5ZM640-440q17 0 28.5-11.5T680-480q0-17-11.5-28.5T640-520H480q-17 0-28.5 11.5T440-480q0 17 11.5 28.5T480-440h160Zm0-160q17 0 28.5-11.5T680-640q0-17-11.5-28.5T640-680H480q-17 0-28.5 11.5T440-640q0 17 11.5 28.5T480-600h160ZM451.5-291.5Q463-280 480-280h2q17 0 28.5-11.5T522-320q0-17-11.5-28.5T482-360h-2q-17 0-28.5 11.5T440-320q0 17 11.5 28.5ZM680-160h-80q-17 0-28.5-11.5T560-200q0-17 11.5-28.5T600-240h80v-80q0-17 11.5-28.5T720-360q17 0 28.5 11.5T760-320v80h80q17 0 28.5 11.5T880-200q0 17-11.5 28.5T840-160h-80v80q0 17-11.5 28.5T720-40q-17 0-28.5-11.5T680-80v-80Z"/>
</svg>
