<svg aria-hidden="true" viewBox="0 -960 960 960" fill="currentColor">
  <path d="M400-160q-33 0-56.5-23.5T320-240q0-33 23.5-56.5T400-320h400q33 0 56.5 23.5T880-240q0 33-23.5 56.5T800-160H400Zm0-240q-33 0-56.5-23.5T320-480q0-33 23.5-56.5T400-560h400q33 0 56.5 23.5T880-480q0 33-23.5 56.5T800-400H400Zm0-240q-33 0-56.5-23.5T320-720q0-33 23.5-56.5T400-800h400q33 0 56.5 23.5T880-720q0 33-23.5 56.5T800-640H400Zm-296.5-23.5Q80-687 80-720t23.5-56.5Q127-800 160-800t56.5 23.5Q240-753 240-720t-23.5 56.5Q193-640 160-640t-56.5-23.5ZM160-400q-33 0-56.5-23.5T80-480q0-33 23.5-56.5T160-560q33 0 56.5 23.5T240-480q0 33-23.5 56.5T160-400Zm0 240q-33 0-56.5-23.5T80-240q0-33 23.5-56.5T160-320q33 0 56.5 23.5T240-240q0 33-23.5 56.5T160-160Z"/>
</svg>
