<svg aria-hidden="true" viewBox="0 -960 960 960" fill="currentColor">
  <path d="m784-286-58-58q17-30 25.5-64t8.5-70q0-116-82-198t-198-82q-36 0-70 8.5T346-724l-58-58q35-21 72.5-35t79.5-19v-40q0-17 11.5-28.5T480-916q17 0 28.5 11.5T520-876v40q125 14 214.5 103.5T838-518h40q17 0 28.5 11.5T918-478q0 17-11.5 28.5T878-438h-40q-5 42-19 79.5T784-286ZM440-80v-40q-125-14-214.5-103.5T122-438H82q-17 0-28.5-11.5T42-478q0-17 11.5-28.5T82-518h40q5-42 19-79.5t35-72.5l-92-92q-11-11-11-28t11-28q11-11 28-11t28 11l679 679q12 12 12 28.5T819-82q-12 11-28.5 11.5T762-82l-90-92q-35 21-72.5 35T520-120v40q0 17-11.5 28.5T480-40q-17 0-28.5-11.5T440-80Zm40-118q36 0 70-8.5t64-25.5L234-612q-17 30-25.5 64t-8.5 70q0 116 82 198t198 82Z"/>
</svg>
