<svg aria-hidden="true" viewBox="0 -960 960 960" fill="currentColor">
  <path d="M480-80q0-137 89-238t221-119q20-3 35 12t12 35q-18 132-119 221T480-80Zm0 0q0-137-89-238T170-437q-20-3-35 12t-12 35q18 132 119 221t238 89Zm0-460q42 0 71-29t29-71q0-42-29-71t-71-29q-42 0-71 29t-29 71q0 42 29 71t71 29Zm0 180q-39 0-70.5-21.5T364-438q-5 0-9 .5t-9 .5q-52 0-89-37t-37-89q0-21 7-40.5t21-36.5q-13-17-20-36.5t-7-40.5q0-52 36.5-89t88.5-37q5 0 9 .5t9 .5q14-35 45.5-56.5T480-920q39 0 70.5 21.5T596-842q5 0 9-.5t9-.5q52 0 88.5 37t36.5 89q0 21-6.5 40.5T712-640q13 17 20 36.5t7 40.5q0 52-36.5 89T614-437q-5 0-9-.5t-9-.5q-14 35-45.5 56.5T480-360Z"/>
</svg>
