<svg aria-hidden="true" viewBox="0 -960 960 960" fill="currentColor">
  <path d="M155-195q-35-35-35-85H80q-17 0-28.5-11.5T40-320v-400q0-33 23.5-56.5T120-800h480q33 0 56.5 23.5T680-720v80h80q19 0 36 8.5t28 23.5l88 117q4 5 6 11t2 13v147q0 17-11.5 28.5T880-280h-40q0 50-35 85t-85 35q-50 0-85-35t-35-85H360q0 50-35 85t-85 35q-50 0-85-35Zm113.5-56.5Q280-263 280-280t-11.5-28.5Q257-320 240-320t-28.5 11.5Q200-297 200-280t11.5 28.5Q223-240 240-240t28.5-11.5ZM120-360h32q17-18 39-29t49-11q27 0 49 11t39 29h272v-360H120v360Zm628.5 108.5Q760-263 760-280t-11.5-28.5Q737-320 720-320t-28.5 11.5Q680-297 680-280t11.5 28.5Q703-240 720-240t28.5-11.5ZM680-440h170l-90-120h-80v120ZM360-540Z"/>
</svg>
