<svg aria-hidden="true" viewBox="0 -960 960 960" fill="currentColor">
  <path d="M728.131-688.131H231.869V-802.63q0-19.153 13.174-32.327t32.327-13.174h405.26q19.153 0 32.327 13.174t13.174 32.327v114.499Zm-13.392 238.414q18.435 0 31.011-12.531 12.576-12.532 12.576-31.056 0-18.435-12.531-31.131-12.532-12.695-31.056-12.695-18.435 0-31.13 12.695-12.696 12.696-12.696 31.131 0 18.435 12.696 31.011 12.695 12.576 31.13 12.576ZM322.87-197.13h314.26v-141.587H322.87v141.587Zm0 89.326q-37.538 0-64.269-26.731-26.732-26.732-26.732-64.269v-74.5H117.37q-19.153 0-32.327-13.174T71.87-318.804V-520q0-54.109 37.163-91.12 37.162-37.011 90.251-37.011h561.434q54.151 0 90.782 37.011 36.632 37.011 36.632 91.12v201.196q0 19.152-13.174 32.326t-32.327 13.174h-114.5v74.5q0 37.537-26.732 64.269-26.731 26.731-64.269 26.731H322.87Z"/>
</svg>
