<svg aria-hidden="true" viewBox="0 -960 960 960" fill="currentColor">
  <path d="M480-840q88 0 179 30t161 84q16 12 24 29t8 35q0 11-3.5 22.5T838-617L547-180q-12 18-30 27t-37 9q-19 0-37-9t-30-27L122-617q-7-11-10-22t-3-22q0-18 8-35t24-29q70-53 160.5-84T480-840Zm0 80q-83 0-153 28t-139 70l292 438 292-438q-69-43-138.5-70.5T480-760Zm-57.5 182.5Q440-595 440-620t-17.5-42.5Q405-680 380-680t-42.5 17.5Q320-645 320-620t17.5 42.5Q355-560 380-560t42.5-17.5Zm100 200Q540-395 540-420t-17.5-42.5Q505-480 480-480t-42.5 17.5Q420-445 420-420t17.5 42.5Q455-360 480-360t42.5-17.5ZM480-224Z"/>
</svg>
