<svg aria-hidden="true" viewBox="0 -960 960 960" fill="currentColor">
  <path d="M280-114.5q-19.152 0-32.326-13.174T234.5-160q0-19.152 13.174-32.326T280-205.5h154.5v-188.522L128.261-738.5q-6.957-7.956-11.674-20.37-4.718-12.413-4.718-23.847 0-27.109 19.153-46.261 19.152-19.153 46.261-19.153h605.434q27.109 0 46.261 19.153 19.153 19.152 19.153 47.261 0 10.434-4.718 22.847-4.717 12.414-11.674 20.37L525.5-394.022V-205.5H680q19.152 0 32.326 13.174T725.5-160q0 19.152-13.174 32.326T680-114.5H280ZM302.065-680h355.87l69.369-77.13H232.696L302.065-680Z"/>
</svg>
