<svg aria-hidden="true" viewBox="0 -960 960 960" fill="currentColor">
  <path d="m528-804 240 180q15 11 23.5 28t8.5 36v360q0 33-23.5 56.5T720-120H240q-33 0-56.5-23.5T160-200v-360q0-19 8.5-36t23.5-28l240-180q21-16 48-16t48 16Zm37 409q35-35 35-85t-35-85q-35-35-85-35t-85 35q-35 35-35 85t35 85q35 35 85 35t85-35Zm-113.5-56.5Q440-463 440-480t11.5-28.5Q463-520 480-520t28.5 11.5Q520-497 520-480t-11.5 28.5Q497-440 480-440t-28.5-11.5ZM480-240q-41 0-80 10t-74 30h308q-35-20-74-30t-80-10ZM240-560v320q52-39 113-59.5T480-320q66 0 127 20.5T720-240v-320L480-740 240-560Zm240 80Z"/>
</svg>
