<svg aria-hidden="true" viewBox="0 -960 960 960" fill="currentColor">
  <path d="M480-320q4 0 13-8l3-6q16-32 44-55t48-52q11-17 16.5-35.5T610-515q0-53-38-89t-92-36q-54 0-92.5 36T349-515q0 20 6 38.5t17 35.5q20 29 47.5 52t43.5 55l3 6q1 2 14 8Zm-35.5-154.5Q430-489 430-510t14.5-35.5Q459-560 480-560t35.5 14.5Q530-531 530-510t-14.5 35.5Q501-460 480-460t-35.5-14.5ZM320-200q-117 0-198.5-81.5T40-480q0-117 81.5-198.5T320-760h320q117 0 198.5 81.5T920-480q0 117-81.5 198.5T640-200H320Zm0-80h320q83 0 141.5-58.5T840-480q0-83-58.5-141.5T640-680H320q-83 0-141.5 58.5T120-480q0 83 58.5 141.5T320-280Zm160-200Z"/>
</svg>
