<svg aria-hidden="true" viewBox="0 -960 960 960" fill="currentColor">
  <path d="M480-65.413q0-145.13 89-248.043 89-102.914 226.5-122.587 12.674-2.24 23.087 1.739 10.413 3.978 18.489 11.934 8.076 7.957 12.055 18.37 3.978 10.413 1.739 23.087-19.674 137.5-122.707 226.5-103.032 89-248.163 89Zm105.413-105.174q57-21 100-64t64-100q-57 21-100 64t-64 100ZM480-65.413q0-145.13-89-248.043-89-102.914-226.5-122.587-11.913-2.24-22.549 1.739-10.636 3.978-18.908 11.934-7.956 7.957-12.054 18.37t-1.859 23.087q19.674 137.5 122.707 226.5 103.032 89 248.163 89ZM374.587-170.587q-57-21-100-64t-64-100q57 21 100 64t64 100Zm241.326-350q19.296 0 33.007-13.711 13.71-13.71 13.71-33.006 0-14-7.5-24.859-7.5-10.859-19.683-16.859l-35.534-17q-4.239 22.239-14.859 40.978-10.619 18.74-27.858 32.74l32.478 23.478q5.239 4 11.739 6.119 6.5 2.12 14.5 2.12Zm-16-144.391 35.534-17q12.183-6 19.303-17.195 7.12-11.195 7.12-24.425 0-19.337-13.359-33.076t-32.592-13.739q-8.098 0-14.171 2.046-6.074 2.046-12.148 6.139l-33.404 23.532q17.239 14 28.358 32.239 11.12 18.239 15.359 41.479Zm-161.391-94.196q10.239-4 20.316-6.12 10.077-2.119 21.162-2.119 11 0 21.239 2.119 10.239 2.12 20.239 6.12l5.239-44.478q2-18.479-12.707-31.598-14.707-13.12-33.978-13.12t-33.891 13.177q-14.619 13.177-12.619 31.421l5 44.598Zm41.449 151.522q16.072 0 27.094-10.873 11.022-10.873 11.022-26.946t-11.022-27.094q-11.022-11.022-27.094-11.022-16.073 0-26.946 11.022-10.873 11.021-10.873 27.094t10.873 26.946q10.873 10.873 26.946 10.873Zm.041 165.022q19.227 0 33.966-13.12t12.739-31.598l-5.239-44.478q-10 4-20.239 6.119-10.239 2.12-21.239 2.12t-21.12-2.12q-10.119-2.119-20.358-6.119l-5 44.598q-2 18.244 12.631 31.421 14.632 13.177 33.859 13.177ZM360.326-664.978q4.239-23.24 14.859-41.479 10.619-18.239 27.619-32.239l-32.239-23.478q-5.239-4.239-11.832-6.239-6.593-2-14.707-2-19.271 0-32.964 13.7-13.692 13.7-13.692 33.03 0 13.226 7.5 24.346 7.5 11.119 19.978 17.359l35.478 17Zm-16.245 143.152q8.098 0 14.171-1.5 6.074-1.5 12.313-6.5l33.239-22.478q-17.239-14-28.239-32.24-11-18.239-15.239-41.478l-35.478 17q-12.478 6.239-19.478 17.371-7 11.131-7 24.287 1 19.227 13.739 32.382 12.739 13.156 31.972 13.156ZM480-355.217q-40.463 0-73.145-22.218-32.681-22.217-47.159-58.652-5 0-9.221.5t-9.497.5q-53.875 0-92.209-38.324t-38.334-92.185q0-21.752 7.358-42.089 7.359-20.337 21.837-37.815-13.478-17.478-20.837-37.756-7.358-20.277-7.358-42.114 0-53.875 37.842-92.209 37.843-38.334 91.756-38.334 5.184 0 9.423.5 4.24.5 9.24.5 14.478-36.435 47.153-58.653 32.675-22.217 73.131-22.217 40.455 0 73.27 22.217 32.815 22.218 47.168 58.653 5.126 0 9.365-.5t9.239-.5q53.89 0 91.717 38.324 37.826 38.324 37.826 92.185 0 21.752-6.858 42.089-6.859 20.337-21.098 37.815 13.239 17.478 20.598 37.755 7.358 20.278 7.358 42.115 0 53.875-37.826 92.209-37.827 38.334-91.717 38.334-5 0-9.221-.5t-9.497-.5q-14.239 36.435-46.994 58.652-32.756 22.218-73.31 22.218Zm0-412.196Zm76.196 28.717Zm1 186.392ZM480-523.587Zm-76.196-28.717Zm-1-186.392Zm-28.217 568.109Zm210.826 0Z"/>
</svg>
