<svg aria-hidden="true" viewBox="0 -960 960 960" fill="currentColor">
  <path d="M145.174-144.174Q132.5-156.848 132.5-176t12.674-31.826l379.608-379.609q-17.521-44.152-2.967-97.869 14.555-53.718 57.598-94.761 52.522-52.522 120.272-63.076 67.75-10.555 111.38 33.076 43.631 43.63 33.076 111.38-10.554 67.75-63.076 120.272-41.043 43.043-94.761 57.598-53.717 14.554-97.869-2.967L544.652-480l272.174 272.174Q829.5-195.152 829.5-176t-12.674 31.826q-13.435 13.435-31.706 13.435-18.272 0-31.946-13.435L481-414.348 208.826-144.174q-13.674 13.435-31.946 13.435-18.271 0-31.706-13.435Zm144.804-315.674L171.413-578.413q-48.348-48.348-54.652-110.62-6.305-62.271 26.565-117.663 10.717-17.478 31.554-19.239 20.837-1.761 36.316 14.478L425.63-595.5 289.978-459.848Z"/>
</svg>
