<svg aria-hidden="true" viewBox="0 -960 960 960" fill="currentColor">
  <path d="M480-138.022q-21.63 0-42.022-10.195-20.391-10.196-34.065-30.826L120.217-605.587q-21.63-32.826-15.174-71.87 6.457-39.043 37.044-59.195 75.717-51 160.956-81.239 85.24-30.24 176.957-30.24t176.957 29.74q85.239 29.739 160.956 81.5 29.826 20.152 36.663 59.315 6.837 39.163-14.793 71.989L556.087-179.043q-13.674 20.63-34.065 30.826Q501.63-138.022 480-138.022ZM377.13-557.37q25.957 0 43.816-17.978 17.858-17.978 17.858-43.935 0-25.956-17.858-43.934-17.859-17.979-43.816-17.979-25.956 0-43.934 17.979-17.979 17.978-17.979 43.934 0 25.957 17.979 43.935 17.978 17.978 43.934 17.978ZM480-361.913q25.957 0 43.935-17.859 17.978-17.858 17.978-43.815 0-25.957-17.978-43.935T480-485.5q-25.957 0-43.935 17.978t-17.978 43.935q0 25.957 17.978 43.815 17.978 17.859 43.935 17.859Z"/>
</svg>
