<svg aria-hidden="true" viewBox="0 -960 960 960" fill="currentColor">
  <path d="M240-80q-33 0-56.5-23.5T160-160v-640q0-33 23.5-56.5T240-880h480q33 0 56.5 23.5T800-800v640q0 33-23.5 56.5T720-80H240Zm0-80h480v-640H240v640Zm381.5-98.5Q680-317 680-400t-58.5-141.5Q563-600 480-600t-141.5 58.5Q280-483 280-400t58.5 141.5Q397-200 480-200t141.5-58.5ZM480-268q-26 0-50.5-9.5T386-306l188-188q19 19 28.5 43.5T612-400q0 55-38.5 93.5T480-268ZM320-680q17 0 28.5-11.5T360-720q0-17-11.5-28.5T320-760q-17 0-28.5 11.5T280-720q0 17 11.5 28.5T320-680Zm148.5-11.5Q480-703 480-720t-11.5-28.5Q457-760 440-760t-28.5 11.5Q400-737 400-720t11.5 28.5Q423-680 440-680t28.5-11.5ZM240-160v-640 640Z"/>
</svg>
