<svg aria-hidden="true" viewBox="0 -960 960 960" fill="currentColor">
  <path d="m480-320 20.5-17.5q20.5-17.5 44.5-45t44.5-61Q610-477 610-510q0-54-38-92t-92-38q-54 0-92 38t-38 92q0 33 20.5 66.5t44.5 61q24 27.5 44.5 45L480-320Zm0-160q-17 0-28.5-11.5T440-520q0-17 11.5-28.5T480-560q17 0 28.5 11.5T520-520q0 17-11.5 28.5T480-480ZM320-192.109q-120.298 0-204.094-83.807-83.798-83.807-83.798-204.12 0-120.312 83.798-204.084Q199.702-767.891 320-767.891h320q120.297 0 204.094 83.807t83.797 204.12q0 120.312-83.797 204.084Q760.297-192.109 640-192.109H320Z"/>
</svg>
