<svg aria-hidden="true" viewBox="0 -960 960 960" fill="currentColor">
  <path d="M480-65.413q0-145.13 89-248.043 89-102.914 226.5-122.587 23.826-3.718 41.457 13.793 17.63 17.511 13.913 41.337-19.674 137.5-122.707 226.5-103.032 89-248.163 89Zm0 0q0-145.13-89-248.043-89-102.914-226.5-122.587-23.826-3.718-41.457 13.793-17.63 17.511-13.913 41.337 19.674 137.5 122.707 226.5 103.032 89 248.163 89Zm0-482q41.043 0 69.565-28.522t28.522-69.565q0-41.044-28.522-69.565-28.522-28.522-69.565-28.522t-69.565 28.522q-28.522 28.521-28.522 69.565 0 41.043 28.522 69.565T480-547.413Zm0 192.196q-40.463 0-73.145-22.218-32.681-22.217-47.159-58.652-5 0-9.221.5t-9.497.5q-53.875 0-92.209-38.324t-38.334-92.185q0-21.752 7.358-42.089 7.359-20.337 21.837-37.815-13.478-17.478-20.837-37.756-7.358-20.277-7.358-42.114 0-53.875 37.842-92.209 37.843-38.334 91.756-38.334 5.184 0 9.423.5 4.24.5 9.24.5 14.478-36.435 47.153-58.653 32.675-22.217 73.131-22.217 40.455 0 73.27 22.217 32.815 22.218 47.168 58.653 5.126 0 9.365-.5t9.239-.5q53.89 0 91.717 38.324 37.826 38.324 37.826 92.185 0 21.752-6.858 42.089-6.859 20.337-21.098 37.815 13.239 17.478 20.598 37.755 7.358 20.278 7.358 42.115 0 53.875-37.826 92.209-37.827 38.334-91.717 38.334-5 0-9.221-.5t-9.497-.5q-14.239 36.435-46.994 58.652-32.756 22.218-73.31 22.218Z"/>
</svg>
