<svg aria-hidden="true" viewBox="0 -960 960 960" fill="currentColor">
  <path d="M480-220q54 0 97.5-28.5T643-323q-16-14-32-29.5T579-385q-6 38-33.5 61.5T480-300q-42 0-71-29t-29-71q0-42 29.5-70.5T481-500q-12-18-23-36.5T437-574q-59 15-98 63t-39 111q0 75 52.5 127.5T480-220ZM160-80q-33 0-56.5-23.5T80-160v-480q0-33 23.5-56.5T160-720h126l50-54q11-12 26.5-19t32.5-7h15q-5 19-7.5 39t-2.5 41h-5l-73 80H160v480h640v-165q20-18 40-37.5t40-39.5v242q0 33-23.5 56.5T800-80H160Zm320-320Zm240-560q-95 0-167.5 66.5T480-714q0 98 73.5 183T693-385q6 5 12.5 7.5T720-375q8 0 15-2.5t12-7.5q66-61 139.5-146T960-714q0-113-72.5-179.5T720-960Zm0 493q-104-98-132-158t-28-89q0-81 50.5-123.5T720-880q59 0 109.5 42.5T880-714q0 29-28 89T720-467Zm0-189-49 37q-6 5-12 .5t-4-11.5l19-61-52-41q-5-5-2.5-11.5t9.5-6.5h62l19-60q2-7 10-7t10 7l19 60h62q7 0 9.5 6.5T818-732l-52 41 19 61q2 7-4 11.5t-12-.5l-49-37Zm0-18Z"/>
</svg>
