<svg aria-hidden="true" viewBox="0 -960 960 960" fill="currentColor">
  <path d="M480-144q-19 0-37-9t-30-27L125-613q-19-29-13.5-63.5T144-729q75-51 160-81t176-30q91 0 176 29.5T816-729q26 18 32 52.5T835-613L547-180q-12 18-30 27t-37 9Zm0-80 292-438q-65-45-139-71.5T480-760q-79 0-152.5 26.5T188-662l292 438ZM380-560q25 0 42.5-17.5T440-620q0-25-17.5-42.5T380-680q-25 0-42.5 17.5T320-620q0 25 17.5 42.5T380-560Zm100 200q25 0 42.5-17.5T540-420q0-25-17.5-42.5T480-480q-25 0-42.5 17.5T420-420q0 25 17.5 42.5T480-360Zm0-132Z"/>
</svg>
