<svg aria-hidden="true" viewBox="0 -960 960 960" fill="currentColor">
  <path d="M240-80q-33 0-56.5-23.5T160-160v-400q0-33 23.5-56.5T240-640h40v-80q0-83 58.5-141.5T480-920q83 0 141.5 58.5T680-720v80h40q33 0 56.5 23.5T800-560v6q0 17-13.5 28t-31.5 8q-8-1-17-1.5t-18-.5q-116 0-198 82t-82 198q0 30 6.5 58t17.5 54q8 17-1.5 32.5T436-80H240Zm338.5-18.5Q520-157 520-240t58.5-141.5Q637-440 720-440t141.5 58.5Q920-323 920-240T861.5-98.5Q803-40 720-40T578.5-98.5ZM360-640h240v-80q0-50-35-85t-85-35q-50 0-85 35t-35 85v80Zm402.5 382.5Q780-275 780-300t-17.5-42.5Q745-360 720-360t-42.5 17.5Q660-325 660-300t17.5 42.5Q695-240 720-240t42.5-17.5ZM776-134q26-14 43-39-23-14-48-20.5t-51-6.5q-26 0-51 6.5T621-173q17 25 43 39t56 14q30 0 56-14Z"/>
</svg>
