<svg aria-hidden="true" viewBox="0 -960 960 960" fill="currentColor">
  <path d="M240-160h480v-400H240v400Zm296.5-143.5Q560-327 560-360t-23.5-56.5Q513-440 480-440t-56.5 23.5Q400-393 400-360t23.5 56.5Q447-280 480-280t56.5-23.5ZM240-160v-400 400Zm0 80q-33 0-56.5-23.5T160-160v-400q0-33 23.5-56.5T240-640h280v-80q0-83 58.5-141.5T720-920q71 0 124 43t70 108q5 17-6.5 33T880-720q-17 0-28-7t-16-23q-11-38-42.5-64T720-840q-50 0-85 35t-35 85v80h120q33 0 56.5 23.5T800-560v400q0 33-23.5 56.5T720-80H240Z"/>
</svg>
