<svg aria-hidden="true" viewBox="0 -960 960 960" fill="currentColor">
  <path d="M360-640h240v-80q0-50-35-85t-85-35q-50 0-85 35t-35 85v80ZM490-80H240q-33 0-56.5-23.5T160-160v-400q0-33 23.5-56.5T240-640h40v-80q0-83 58.5-141.5T480-920q83 0 141.5 58.5T680-720v80h40q33 0 56.5 23.5T800-560v52q-18-6-37.5-9t-42.5-3v-40H240v400h212q8 24 16 41.5T490-80Zm230 40q-83 0-141.5-58.5T520-240q0-83 58.5-141.5T720-440q83 0 141.5 58.5T920-240q0 83-58.5 141.5T720-40Zm20-208v-92q0-8-6-14t-14-6q-8 0-14 6t-6 14v91q0 8 3 15.5t9 13.5l60 60q6 6 14 6t14-6q6-6 6-14t-6-14l-60-60ZM240-560v400-400Z"/>
</svg>
