<svg aria-hidden="true" viewBox="0 -960 960 960" fill="currentColor">
  <path d="M239.761-280q-18.435 0-30.391-13.076-11.957-13.076-9.479-30.511 15.435-102.239 94.533-171.12 79.098-68.88 185.576-68.88t185.576 68.88q79.098 68.881 94.533 171.12 2.478 17.435-9.598 30.511T719.761-280q-16.957 0-30.272-11.957-13.315-11.956-18.272-30.63-14.717-66.13-67.782-109.978T480-476.413q-70.37 0-123.435 43.848t-67.782 109.978q-4.957 18.674-18.392 30.63Q256.957-280 239.761-280Zm-163.587 0q-18.435 0-30.892-13.076-12.456-13.076-10.217-30.511 8.478-84.717 46.315-158.435 37.837-73.717 97.294-128.315 59.456-54.598 136.913-85.837Q393.043-727.413 480-727.413q86.957 0 164.413 31.239 77.457 31.239 136.913 85.837Q840.783-555.739 879-482.022q38.218 73.718 45.935 158.435 2.239 17.435-10.217 30.511Q902.261-280 883.587-280q-17.435 0-30.511-12.576t-15.554-31.011q-16.196-134.565-117.337-225.489Q619.043-640 480-640t-240.185 90.924q-101.141 90.924-117.337 225.489-2.478 18.435-15.174 31.011Q94.609-280 76.174-280Z"/>
</svg>
