<svg aria-hidden="true" viewBox="0 -960 960 960" fill="currentColor">
  <path d="M240-280q-17 0-28-12t-9-28q14-102 92.5-171T480-560q106 0 184.5 69T757-320q2 16-9 28t-28 12q-16 0-28-11t-16-28q-14-69-68.5-115T480-480q-73 0-127.5 46T284-319q-4 17-16 28t-28 11Zm-160 0q-17 0-28.5-12T42-320q8-84 45-157t95.5-127q58.5-54 135-85T480-720q86 0 162.5 31t135 85q58.5 54 96 127T918-320q2 16-9.5 28T880-280q-16 0-28-11.5T838-320q-15-136-116.5-228T480-640q-140 0-241.5 92T122-320q-2 17-13.5 28.5T80-280Z"/>
</svg>
