<svg aria-hidden="true" viewBox="0 -960 960 960" fill="currentColor">
  <path d="M480-278.087q18.524 0 31.056-12.696 12.531-12.695 12.531-31.13v-114.5h114.5q18.435 0 31.13-12.531 12.696-12.532 12.696-31.056t-12.696-31.056q-12.695-12.531-31.13-12.531h-114.5v-114.5q0-18.435-12.531-31.13-12.532-12.696-31.056-12.696t-31.056 12.696q-12.531 12.695-12.531 31.13v114.5h-114.5q-18.435 0-31.13 12.531-12.696 12.532-12.696 31.056t12.696 31.056q12.695 12.531 31.13 12.531h114.5v114.5q0 18.435 12.531 31.13 12.532 12.696 31.056 12.696Zm0 206.218q-84.647 0-159.095-32.098-74.449-32.098-129.644-87.294-55.196-55.195-87.294-129.65-32.098-74.455-32.098-159.109 0-84.654 32.098-159.089t87.294-129.63q55.195-55.196 129.65-87.294 74.455-32.098 159.109-32.098 84.654 0 159.089 32.098t129.63 87.294q55.196 55.195 87.294 129.644Q888.131-564.647 888.131-480v317.13q0 37.538-26.732 64.27-26.731 26.73-64.269 26.73H480Z"/>
</svg>
