<svg aria-hidden="true" viewBox="0 -960 960 960" fill="currentColor">
  <path d="M104.695-601.435v-82.869h91.001v82.869h-91.001Zm171.001 171v-91h82.869v91h-82.869Zm0-333.869v-91.001h82.869v91.001h-82.869Zm162.869 162.869v-82.869h91v82.869h-91Zm-242.869 496.74q-37.783 0-64.392-26.609-26.609-26.609-26.609-64.392v-280.239q0-19.152 13.174-32.326t32.326-13.174q19.153 0 32.327 13.174t13.174 32.326v280.239h568.608v-568.608H484.065q-19.152 0-32.326-13.174t-13.174-32.327q0-19.152 13.174-32.326t32.326-13.174h280.239q37.783 0 64.392 26.609 26.609 26.609 26.609 64.392v568.608q0 37.783-26.609 64.392-26.609 26.609-64.392 26.609H195.696Zm-91.001-659.609q0-37.783 26.609-64.392 26.609-26.609 64.392-26.609v91.001h-91.001Zm333.87 333.869v-91h91q0 37.783-26.608 64.392-26.609 26.608-64.392 26.608Z"/>
</svg>
