<svg aria-hidden="true" viewBox="0 -960 960 960" fill="currentColor">
  <path d="M162.63-501.239q0 69.326 44.631 120.087 44.63 50.761 113 56.043h.239l-25.87-25.869q-10.282-12.913-9.086-30.511 1.195-17.598 12.913-29.315 12.913-12.913 31.945-13.033 19.033-.12 31.946 12.794l100.891 100.891q6.718 6.717 9.816 14.913 3.097 8.196 3.097 17.152 0 8.957-3.097 17.152-3.098 8.196-9.816 14.913L360.435-143.696q-12.913 12.674-31.946 12.794-19.032.12-31.945-12.794-12.196-12.195-12.555-30.391-.359-18.196 10.641-31.348l27.392-27.391q-106.674-5.043-178.413-82.793-71.74-77.751-71.74-184.62 0-111.152 75.62-189.402 75.62-78.25 186.054-78.25h107.174q19.236 0 32.249 13.173 13.012 13.174 13.012 32.385t-13.012 32.207q-13.013 12.996-32.249 12.996H333.543q-72.13 0-121.521 51.521-49.392 51.522-49.392 124.37Zm680.24 268.413H611.239q-19.236 0-32.248-13.174-13.013-13.174-13.013-32.385t13.013-32.206q13.012-12.996 32.248-12.996H842.87q19.236 0 32.248 13.174 13.013 13.174 13.013 32.385t-13.013 32.206q-13.012 12.996-32.248 12.996Zm0-222.152H611.239q-19.236 0-32.248-13.174-13.013-13.174-13.013-32.385t13.013-32.207q13.012-12.995 32.248-12.995H842.87q19.236 0 32.248 13.174 13.013 13.174 13.013 32.385t-13.013 32.206q-13.012 12.996-32.248 12.996Zm0-222.152H611.239q-19.236 0-32.248-13.174-13.013-13.174-13.013-32.385t13.013-32.207q13.012-12.995 32.248-12.995H842.87q19.236 0 32.248 13.173 13.013 13.174 13.013 32.385t-13.013 32.207q-13.012 12.996-32.248 12.996Z"/>
</svg>
