<svg aria-hidden="true" viewBox="0 -960 960 960" fill="currentColor">
  <path d="M451.5-611.5Q440-623 440-640t11.5-28.5Q463-680 480-680t28.5 11.5Q520-657 520-640t-11.5 28.5Q497-600 480-600t-28.5-11.5Zm-160 160Q280-463 280-480t11.5-28.5Q303-520 320-520t28.5 11.5Q360-497 360-480t-11.5 28.5Q337-440 320-440t-28.5-11.5Zm160 0Q440-463 440-480t11.5-28.5Q463-520 480-520t28.5 11.5Q520-497 520-480t-11.5 28.5Q497-440 480-440t-28.5-11.5Zm-320-320Q120-783 120-800t11.5-28.5Q143-840 160-840t28.5 11.5Q200-817 200-800t-11.5 28.5Q177-760 160-760t-28.5-11.5Zm160 0Q280-783 280-800t11.5-28.5Q303-840 320-840t28.5 11.5Q360-817 360-800t-11.5 28.5Q337-760 320-760t-28.5-11.5Zm-160 160Q120-623 120-640t11.5-28.5Q143-680 160-680t28.5 11.5Q200-657 200-640t-11.5 28.5Q177-600 160-600t-28.5-11.5ZM200-120q-33 0-56.5-23.5T120-200v-280q0-17 11.5-28.5T160-520q17 0 28.5 11.5T200-480v280h560v-560H480q-17 0-28.5-11.5T440-800q0-17 11.5-28.5T480-840h280q33 0 56.5 23.5T840-760v560q0 33-23.5 56.5T760-120H200Z"/>
</svg>
