<svg aria-hidden="true" viewBox="0 -960 960 960" fill="currentColor">
  <path d="M280-120q-33 0-56.5-23.5T200-200v-440q0-33 23.5-56.5T280-720h80v-100q0-25 17.5-42.5T420-880h120q25 0 42.5 17.5T600-820v100h80q33 0 56.5 23.5T760-640v440q0 33-23.5 56.5T680-120q0 17-11.5 28.5T640-80q-17 0-28.5-11.5T600-120H360q0 17-11.5 28.5T320-80q-17 0-28.5-11.5T280-120Zm0-80h400v-440H280v440Zm70-40q13 0 21.5-8.5T380-270v-300q0-13-8.5-21.5T350-600q-13 0-21.5 8.5T320-570v300q0 13 8.5 21.5T350-240Zm130 0q13 0 21.5-8.5T510-270v-300q0-13-8.5-21.5T480-600q-13 0-21.5 8.5T450-570v300q0 13 8.5 21.5T480-240Zm130 0q13 0 21.5-8.5T640-270v-300q0-13-8.5-21.5T610-600q-13 0-21.5 8.5T580-570v300q0 13 8.5 21.5T610-240ZM480-420Zm-60-300h120v-100H420v100Z"/>
</svg>
