<svg aria-hidden="true" viewBox="0 -960 960 960" fill="currentColor">
  <path d="m763-69-68-67q-45 34-99.5 53T480-64q0-60 19-115t53-100l-65-65q-49 3-78-28.5T380-451l-1-1q-12 9-25 13.5t-30 4.5q-42 0-71-29t-29-71q0-16 4.5-30t12.5-26L83-748q-12-12-11.5-28T84-804q12-12 28.5-12t28.5 12l679 679q12 12 12 28t-12 28q-12 12-28.5 12T763-69Zm37-190L675-384q27-14 56-23.5t60-14.5q11-2 19.5 1.5T826-410q7 7 10.5 15.5T838-375q-5 31-14.5 60T800-259ZM636-434q-3 0-6-.5t-6-.5l-99-99q25-12 40-36t15-54q0-42-29-71t-71-29q-30 0-54 15t-36 40L264-795q13-9 28-14t32-5q17 0 30.5 4.5T380-796v-8q0-42 29-71t71-29q42 0 71 29t29 71v8q12-9 25.5-13.5T636-814q42 0 71 29t29 71q0 30-16 54t-42 36q26 12 42 36t16 54q0 42-29 71t-71 29ZM480-64q0-137-89-238T170-421q-10-2-19 1.5T135-409q-7 7-10.5 15.5T123-374q18 132 119 221t238 89Z"/>
</svg>
