<svg aria-hidden="true" viewBox="0 -960 960 960" fill="currentColor">
  <path d="m770.891-60.152-63.695-62.696q-46.674 34.957-104.163 54.196Q545.544-49.412 480-49.412q0-64.783 19.239-122.653 19.239-57.87 54.196-104.544l-67.631-67.63q-46.13 1.087-74.174-28.859-28.043-29.945-29.239-74.554l-3.869-3.87q-11.761 8.283-24.402 12.305-12.642 4.021-28.685 4.021-42.603 0-72.019-29.416Q224-494.028 224-536.63q0-15.305 4.141-28.696 4.142-13.391 11.424-25.152L74.231-755.813q-12.557-12.557-12.037-29.24.52-16.683 13.016-29.196 12.495-12.512 29.675-12.512t29.658 12.478l695.74 695.74q12.478 12.521 12.478 29.217 0 16.696-12.503 29.174-12.504 12.478-29.696 12.478t-29.671-12.478Zm-185.478-94.435q16-6 30.761-13.38 14.761-7.381 28.761-17.142l-29-29q-9.761 14-17.141 28.821-7.381 14.821-13.381 30.701Zm229.892-97.717L682.891-384.717q27.528-13.186 55.547-24.017t58.301-12.788q12.674-2.239 23.087 1.739 10.413 3.979 18.489 11.935 8.077 7.957 12.055 18.37 3.978 10.413 1.739 23.087-2.717 30.282-13.133 58.382-10.415 28.099-23.671 55.705ZM641.978-435.196q-2.76 0-5.163-.38-2.402-.381-5.163-.381L523.804-543.805q23.913-11.091 38.261-33.273 14.348-22.183 14.348-50.509 0-38.987-26.92-65.906-26.919-26.92-65.906-26.92-28.326 0-50.509 14.348-22.182 14.348-33.273 38.261L265.913-801.696q12.919-8.773 27.826-13.647 14.907-4.875 31.801-4.875 16.895 0 30.754 4.381 13.858 4.38 25.858 13.859v-8q0-42.603 29.416-72.019 29.416-29.416 72.019-29.416 42.603 0 72.019 29.385 29.416 29.385 29.416 71.943v8.107q12-9.479 25.978-13.859 13.978-4.381 30.978-4.381 42.603 0 72.019 29.417 29.416 29.416 29.416 72.018 0 30.479-16.478 54.598-16.478 24.12-42.717 36.598 26.239 12.478 42.717 36.478 16.478 24 16.478 54.498 0 42.698-29.416 72.057-29.416 29.358-72.019 29.358Zm-56.565 280.609ZM480-49.413q0-145.13-89-248.043-89-102.914-226.5-122.587-11.913-2.24-22.549 1.739-10.636 3.978-18.908 11.934-7.956 7.957-12.054 18.37t-1.859 23.087q19.674 137.5 122.707 226.5 103.032 89 248.163 89ZM374.587-154.587q-57-21-100-64t-64-100q57 21 100 64t64 100Zm0 0Z"/>
</svg>
