<svg aria-hidden="true" viewBox="0 -960 960 960" fill="currentColor">
  <path d="M400-480q-66 0-113-47t-47-113q0-66 47-113t113-47q66 0 113 47t47 113q0 66-47 113t-113 47ZM120-160q-17 0-28.5-11.5T80-200v-72q0-33 17-62t47-44q51-26 115-44t141-18h14q6 0 12 2-8 18-13.5 37.5T404-360q-5 36-3 60.5t11 59.5q6 21 16 41.5t22 38.5H120Zm560-80q33 0 56.5-23.5T760-320q0-33-23.5-56.5T680-400q-33 0-56.5 23.5T600-320q0 33 23.5 56.5T680-240Zm-52 60q-12-5-22.5-10.5T584-204l-43 13q-7 2-13-.5t-10-8.5l-24-40q-4-6-2.5-13t7.5-12l33-29q-2-14-2-26t2-26l-33-29q-6-5-7.5-12t2.5-13l24-40q4-6 10-8.5t13-.5l43 13q11-8 21.5-13.5T628-460l9-44q2-7 7-11.5t12-4.5h48q7 0 12 4.5t7 11.5l9 44q12 5 22.5 11t21.5 15l42-15q7-3 13.5 0t10.5 9l24 42q4 6 3 13t-7 12l-34 29q2 12 2 25t-2 25l33 29q6 5 7.5 12t-2.5 13l-24 40q-4 6-10 8.5t-13 .5l-43-13q-11 8-21.5 13.5T732-180l-9 44q-2 7-7 11.5t-12 4.5h-48q-7 0-12-4.5t-7-11.5l-9-44Z"/>
</svg>
