<svg aria-hidden="true" viewBox="0 -960 960 960" fill="currentColor">
  <path d="M400-484.065q-69.587 0-118.859-49.272-49.272-49.272-49.272-118.859 0-69.587 49.272-118.739T400-820.087q69.587 0 118.859 49.152 49.272 49.152 49.272 118.739t-49.272 118.859Q469.587-484.065 400-484.065ZM117.37-147.804q-19.153 0-32.327-13.174T71.87-193.304v-75.109q0-36.587 19.272-67.261 19.272-30.674 49.272-45.674 51-26 116.793-44.359Q323-444.065 400-444.065h16.033q8.032 0 14.989 2-8.478 18-16.131 42.043-7.652 24.044-10.413 46.957-4.282 33.609-2.761 57.272 1.522 23.663 9.805 56.989 6.239 24.826 18.63 48.315 12.392 23.489 26.066 42.685H117.37Zm569.326-89.566q32.043 0 55.065-23.141t23.022-55.185q0-32.043-23.022-55.065-23.022-23.021-55.065-23.021-32.044 0-55.185 23.021-23.141 23.022-23.141 55.065 0 32.044 23.141 55.185 23.141 23.141 55.185 23.141Zm-55.348 64.305q-11.044-4.522-21.065-9.902-10.022-5.381-20.305-12.663l-42.043 12.761q-7.957 2.478-15.033-.5-7.076-2.979-11.315-9.935l-24.478-40.718q-4.479-6.956-2.859-15.152 1.62-8.196 8.337-13.913l32.283-28.043q-2.24-12.805-2.12-24.446.12-11.641 2.12-24.446l-32.283-28.282q-6.717-5.718-8.337-13.794t2.859-15.032l24.478-40.957q4.239-6.956 11.315-9.815 7.076-2.859 15.033-.381l42.043 12.761q10.283-7.282 20.305-12.663 10.021-5.38 21.065-9.902l8.761-42.804q2.239-7.957 8.076-13.174 5.837-5.218 13.793-5.218h49.196q7.957 0 13.794 5.218 5.837 5.217 8.076 13.174l8.761 42.804q11.043 4.522 21.184 10.283 10.142 5.761 20.424 14.282l40.805-14.521q7.956-3.479 15.532-.12t12.055 10.315l24.239 42.718q4.239 6.956 3.119 15.032-1.119 8.076-7.837 13.794l-33.043 28.282q2.239 11.044 2.119 23.446-.119 12.402-2.119 23.446l32.282 28.043q6.718 5.717 8.337 13.913 1.62 8.196-2.858 15.152l-24.479 40.718q-4.239 6.956-11.315 9.935-7.076 2.978-15.032.5l-41.805-12.761q-10.282 7.282-20.424 12.663-10.141 5.38-21.184 9.902l-8.761 42.804q-2.239 7.957-8.076 13.174-5.837 5.218-13.794 5.218h-49.196q-7.956 0-13.793-5.218-5.837-5.217-8.076-13.174l-8.761-42.804Z"/>
</svg>
