<svg aria-hidden="true" viewBox="0 -960 960 960" fill="currentColor">
  <path d="M570.413-121.826 360-195.63l-183.13 71.282q-23.827 9.435-44.414-5.337-20.587-14.771-20.587-40.315v-560q0-15.63 9.055-27.783 9.054-12.152 24.446-17.869l185.043-62.761q14.674-4.718 29.587-4.978 14.913-.261 29.587 5.217L600-764.37l183.13-71.282q23.827-9.435 44.414 5.337 20.587 14.771 20.587 40.315v560q0 15.63-9.055 27.783-9.054 12.152-24.446 17.869l-185.043 62.761q-14.674 4.718-29.587 4.978-14.913.261-29.587-5.217ZM560-221.348v-461.304l-160-56v461.304l160 56Zm80 0 117.13-38.804v-467.544L640-682.652v461.304Zm-437.13-10.956L320-277.348v-461.304l-117.13 38.804v467.544ZM640-682.652v461.304-461.304Zm-320-56v461.304-461.304Z"/>
</svg>
