<svg aria-hidden="true" viewBox="0 -960 960 960" fill="currentColor">
  <path d="M681.674-116.413v-398.283q0-22.657-9.696-41.915-9.695-19.259-27.608-31.693L399.283-765.348q2.152-32.717 26.967-55.478 24.815-22.761 59.011-22.761h349q37.537 0 64.269 26.731 26.731 26.732 26.731 64.269v545.174q0 37.537-26.731 64.269-26.732 26.731-64.269 26.731H681.674Zm0-163.587h80v-80h-80v80Zm0-160h80v-80h-80v80Zm0-160h80v-80h-80v80ZM34.261-161.913v-313.261q0-22.745 10.195-42.079 10.196-19.334 28.348-32.008l192.826-137.5q23.971-16.913 52.507-16.913 28.537 0 52.407 16.913l192.586 137.5q18.139 12.578 28.341 32.017 10.203 19.44 10.203 42.07v313.261q0 19.152-13.174 32.326t-32.326 13.174H398.087v-247.174h-160v247.174H79.761q-19.152 0-32.326-13.174T34.26-161.913Z"/>
</svg>
