<svg aria-hidden="true" viewBox="0 -960 960 960" fill="currentColor">
  <path d="M200-120q-33 0-56.5-23.5T120-200v-560q0-33 23.5-56.5T200-840h560q33 0 56.5 23.5T840-760v560q0 33-23.5 56.5T760-120H200Zm0-80h560v-560H200v560Zm0-560v560-560Zm148.5 148.5Q360-623 360-640t-11.5-28.5Q337-680 320-680t-28.5 11.5Q280-657 280-640t11.5 28.5Q303-600 320-600t28.5-11.5ZM480-600q17 0 28.5-11.5T520-640q0-17-11.5-28.5T480-680q-17 0-28.5 11.5T440-640q0 17 11.5 28.5T480-600Zm188.5-11.5Q680-623 680-640t-11.5-28.5Q657-680 640-680t-28.5 11.5Q600-657 600-640t11.5 28.5Q623-600 640-600t28.5-11.5Zm0 160Q680-463 680-480t-11.5-28.5Q657-520 640-520t-28.5 11.5Q600-497 600-480t11.5 28.5Q623-440 640-440t28.5-11.5ZM480-440q17 0 28.5-11.5T520-480q0-17-11.5-28.5T480-520q-17 0-28.5 11.5T440-480q0 17 11.5 28.5T480-440Zm-131.5-11.5Q360-463 360-480t-11.5-28.5Q337-520 320-520t-28.5 11.5Q280-497 280-480t11.5 28.5Q303-440 320-440t28.5-11.5Z"/>
</svg>
