<svg aria-hidden="true" viewBox="0 -960 960 960" fill="currentColor">
  <path d="M160-160q-33 0-56.5-23.5T80-240v-480q0-33 23.5-56.5T160-800h640q33 0 56.5 23.5T880-720v174L639-305l-58-58q-23-23-57-23t-57 23l-55 55q-23 23-23 57t23 57l34 34H160Zm320-360L212-688q-17-11-34.5-1T160-659q0 9 4 16.5t12 12.5l283 177q10 6 21 6t21-6l283-177q8-5 12-12.5t4-16.5q0-20-17.5-30t-34.5 1L480-520Zm158 328 198-198q11-11 28-11t28 11q11 11 11 28t-11 28L666-108q-12 12-28 12t-28-12L496-222q-11-11-11-28t11-28q11-11 28-11t28 11l86 86Z"/>
</svg>
