<svg aria-hidden="true" viewBox="0 -960 960 960" fill="currentColor">
  <path d="M540-160H280q-33 0-56.5-23.5T200-240v-260q0-142 99-241t241-99q142 0 241 99t99 241q0 142-99 241t-241 99Zm0-80q108 0 184-76t76-184q0-108-76-184t-184-76q-108 0-184 76t-76 184v260h260Zm99-161q41-41 41-99t-41-99q-41-41-99-41t-99 41q-41 41-41 99t41 99q41 41 99 41t99-41Zm-141.5-56.5Q480-475 480-500t17.5-42.5Q515-560 540-560t42.5 17.5Q600-525 600-500t-17.5 42.5Q565-440 540-440t-42.5-17.5ZM120-160q-17 0-28.5-11.5T80-200v-120q0-17 11.5-28.5T120-360q17 0 28.5 11.5T160-320v120q0 17-11.5 28.5T120-160Zm420-340Z"/>
</svg>
