<svg aria-hidden="true" viewBox="0 -960 960 960" fill="currentColor">
  <path d="M721.652-123.304q-8.717 8.717-23.032 2.739-14.316-5.978-14.316-17.935v-153.217l-91.565 91.565q-7.31 7.239-17.753 7.239-10.442 0-17.682-7.295-7.239-7.296-7.239-17.718t7.239-17.661l117-116.881-119-118.88q-7.239-7.31-7.239-17.752 0-10.443 7.296-17.682 7.295-7.24 17.717-7.24 10.422 0 17.661 7.24l91.805 91.804v-151.935q0-11.837 14.315-17.755 14.315-5.919 23.032 2.799l94.457 94.456q6.956 6.957 10.315 15.382 3.359 8.426 3.359 17.413 0 8.988-3.359 16.944-3.359 7.957-10.315 14.913l-71.174 70.174 71.174 70.174q6.956 6.957 10.315 14.87 3.359 7.913 3.359 16.956 0 8.998-2.859 17.434-2.859 8.436-9.815 15.392l-93.696 94.457Zm11.044-289.913 43.608-41.37-43.608-43.608v84.978Zm0 206 43.608-43.37-43.608-41.608v84.978Zm-454.37 96.304q-68.269 0-116.884-48.616-48.616-48.615-48.616-116.884t48.616-116.884q48.615-48.616 116.884-48.616 21.315 0 39.385 4.783 18.071 4.782 35.115 14.347v-335.304q0-37.538 26.731-64.269 26.732-26.731 64.269-26.731h80q35.392 0 60.446 25.054 25.054 25.055 25.054 60.446t-25.054 60.446q-25.054 25.054-60.446 25.054h-80v401.674q0 68.269-48.615 116.884-48.616 48.616-116.885 48.616Z"/>
</svg>
