<svg aria-hidden="true" viewBox="0 -960 960 960" fill="currentColor">
  <path d="M550.957-653.109h100q13 0 21.5-8.5t8.5-21.5q0-13-8.5-21.5t-21.5-8.5h-100q-13 0-21.5 8.5t-8.5 21.5q0 13 8.5 21.5t21.5 8.5ZM121.435-30.435q-37.783 0-64.392-26.608-26.608-26.61-26.608-64.392v-315.217q0-37.783 26.608-64.392 26.61-26.608 64.392-26.608h475.217q37.783 0 64.392 26.608 26.608 26.609 26.608 64.392v315.217q0 37.783-26.608 64.392-26.609 26.608-64.392 26.608H121.435Zm626.217-361.913v-44.304q0-40.87-19.695-75.022-19.696-34.152-52.609-53.826h6.087q48.804-.239 82.967-34.501 34.163-34.261 34.163-83.206t-34.302-83.228q-34.303-34.282-83.306-34.282h-20q-13 0-21.5 8.5t-8.5 21.5q0 13 8.5 21.5t21.5 8.5h20q24.003 0 40.806 16.81 16.802 16.811 16.802 40.826 0 24.016-16.802 40.798Q704.96-625.5 680.957-625.5h-20q-13 0-21.5 8.5t-8.5 21.5q0 13.073 8.5 21.537 8.5 8.463 21.5 8.463l-30-18.435q-8.718-2.239-16.953-2.978-8.236-.739-17.352-.739h-25.695v-7.848q0-13-8.5-21.5t-21.5-8.5h-20q-24.004 0-40.807-16.811-16.802-16.811-16.802-40.826t16.802-40.798q16.803-16.782 40.807-16.782h20q13 0 21.5-8.5t8.5-21.5q0-13-8.5-21.5t-21.5-8.5h-20q-49.004 0-83.307 34.302-34.302 34.303-34.302 83.306 0 30.087 13.685 54.511 13.684 24.424 36.01 40.946H272.348v-250.913q0-37.783 26.608-64.392 26.609-26.608 64.392-26.608h475.217q37.783 0 64.392 26.608 26.608 26.609 26.608 64.392v355.217q0 37.783-26.608 64.392-26.609 26.608-64.392 26.608h-90.913Zm-315.13 130.065q9.761-5.76 9.761-16.76 0-11-9.761-16.761l-103.913-64.957q-9.522-5.761-19.544-.489-10.022 5.271-10.022 16.772v130.869q0 11.501 10.022 16.773 10.022 5.271 19.544-.49l103.913-64.957Z"/>
</svg>
