<svg aria-hidden="true" viewBox="0 -960 960 960" fill="currentColor">
  <path d="M714-130q-8 8-21 2.5T680-144v-158l-93 93q-7 7-17 7t-17-7q-7-7-7-17t7-17l117-117-119-119q-7-7-7-17t7-17q7-7 17-7t17 7l93 93v-156q0-11 13-16.5t21 2.5l99 99q6 6 9 13.5t3 15.5q0 8-3 15t-9 13l-75 74 75 74q6 6 9 13t3 15q0 8-2.5 15.5T812-229l-98 99Zm12-288 46-44-46-46v90Zm0 206 46-46-46-44v90Zm-446 92q-66 0-113-47t-47-113q0-66 47-113t113-47q23 0 42.5 5.5T360-418v-342q0-33 23.5-56.5T440-840h80q33 0 56.5 23.5T600-760q0 33-23.5 56.5T520-680h-80v400q0 66-47 113t-113 47Z"/>
</svg>
