<svg aria-hidden="true" viewBox="0 -960 960 960" fill="currentColor">
  <path d="m445.5-628.5-91-91v-38.587q0-37.543 26.728-64.272 26.729-26.728 64.272-26.728h80q35.391 0 60.446 25.054Q611-798.978 611-763.587t-25.054 60.446q-25.055 25.054-60.446 25.054h-80v49.587Zm406.565 401.304L594.63-482.391q-7.239-7.239-7.358-16.837-.12-9.598 7.358-17.076 7.24-7.24 16.957-7.24t16.957 7.24l92.804 92.804v-153.696q0-11.956 14.315-17.815 14.315-5.859 23.033 2.859l94.217 93.456q6.957 6.957 10.315 15.033 3.359 8.076 3.359 17.033 0 8.956-2.859 16.913-2.858 7.956-9.815 14.913l-71.935 71.934 70.174 68.174q7.957 7.957 11.196 15.413 3.239 7.457 3.239 18.413 0 11.24-3.5 19.598-3.5 8.359-11.022 14.076ZM771.5-423.5l43.37-43.13-43.37-41.848v84.978ZM760.174-82.804 631.283-211.696l-4.805 5.044q-5.804 5.804-15.804 4.652-10-1.152-15.804-6.957-6.566-6.565-8.598-16.565-2.033-10 4.532-16.565l5.044-5.043L445.5-397.478V-274.5q0 67.674-48.674 115.631Q348.152-110.913 280-110.913q-68.152 0-116.826-48.674Q114.5-208.261 114.5-276.413q0-68.152 48.674-116.826 48.674-48.674 117.304-48.674 20.131 0 38.794 4.783 18.663 4.782 35.228 14.347v-65.695L82.804-760.174q-11.717-11.717-11.717-29.315t11.717-29.315Q94.522-830.522 112-830.522t29.196 11.718l677.608 677.608q11.718 11.718 11.718 29.196t-11.718 29.196q-11.717 11.717-29.315 11.717t-29.315-11.717Z"/>
</svg>
