<svg aria-hidden="true" viewBox="0 -960 960 960" fill="currentColor">
  <path d="m440-634-80-80v-46q0-33 23.5-56.5T440-840h80q33 0 56.5 23.5T600-760q0 33-23.5 56.5T520-680h-80v46Zm408 408L592-480q-7-7-7-16t7-16q7-7 16-7t16 7l94 94v-158q0-11 13-16.5t21 2.5l99 98q6 6 9 13t3 15q0 8-2.5 15t-8.5 13l-76 76 74 72q7 7 10 13.5t3 16.5q0 11-3.5 19T848-226Zm-82-192 46-46-46-44v90Zm-2 334L632-216l-6 6q-7 7-17 8t-17-6q-8-8-8-18t8-18l6-6-158-158v128q0 66-47 113t-113 47q-66 0-113-47t-47-113q0-66 47-113t113-47q23 0 42.5 5.5T360-418v-70L84-764q-11-11-11-28t11-28q11-11 28-11t28 11l680 680q11 11 11 28t-11 28q-11 11-28 11t-28-11Z"/>
</svg>
