<svg aria-hidden="true" viewBox="0 -960 960 960" fill="currentColor">
  <path d="M160-120q-17 0-28.5-11.5T120-160q0-17 11.5-28.5T160-200h40v-600q0-17 11.5-28.5T240-840h320q17 0 28.5 11.5T600-800h120q17 0 28.5 11.5T760-760v560h40q17 0 28.5 11.5T840-160q0 17-11.5 28.5T800-120h-80q-17 0-28.5-11.5T680-160v-560h-80v560q0 17-11.5 28.5T560-120H160Zm120-640v560-560Zm188.5 251.5Q457-520 440-520t-28.5 11.5Q400-497 400-480t11.5 28.5Q423-440 440-440t28.5-11.5Q480-463 480-480t-11.5-28.5ZM280-200h240v-560H280v560Z"/>
</svg>
