<svg aria-hidden="true" viewBox="0 -960 960 960" fill="currentColor">
  <path d="M402.391-360q-17.717 0-30.054-12.337T360-402.391v-155.218q0-17.717 12.337-30.054T402.391-600h155.218q17.717 0 30.054 12.337T600-557.609v155.218q0 17.717-12.337 30.054T557.609-360H402.391Zm-5.982 251.718q-17.713 0-29.811-12.05-12.098-12.05-12.098-29.863v-41.674h-71.63q-37.783 0-64.392-26.609-26.609-26.609-26.609-64.392v-71.63h-41.678q-17.713 0-29.811-12.05-12.098-12.05-12.098-29.863 0-17.711 12.05-29.693 12.05-11.981 29.863-11.981h41.674v-83.826h-41.678q-17.713 0-29.811-11.983-12.098-11.982-12.098-29.695t12.05-29.811q12.05-12.098 29.863-12.098h41.674v-71.63q0-37.783 26.609-64.392 26.609-26.609 64.392-26.609h71.63v-41.678q0-17.713 12.05-29.811 12.05-12.098 29.863-12.098 17.711 0 29.693 12.05 11.981 12.05 11.981 29.863v41.674h83.826v-41.678q0-17.713 11.983-29.811 11.982-12.098 29.695-12.098t29.811 12.05q12.098 12.05 12.098 29.863v41.674h71.63q37.783 0 64.392 26.609 26.609 26.609 26.609 64.392v71.63h41.678q17.713 0 29.811 12.05 12.098 12.05 12.098 29.863 0 17.711-12.05 29.693-12.05 11.981-29.863 11.981h-41.674v83.826h41.678q17.713 0 29.811 11.983 12.098 11.982 12.098 29.695t-12.05 29.811q-12.05 12.098-29.863 12.098h-41.674v71.63q0 37.783-26.609 64.392-26.609 26.609-64.392 26.609H605.5v41.678q0 17.713-12.05 29.811-12.05 12.098-29.863 12.098-17.711 0-29.693-12.05-11.981-12.05-11.981-29.863v-41.674h-83.826v41.678q0 17.713-11.983 29.811-11.982 12.098-29.695 12.098ZM282.87-282.87h394.26v-394.26H282.87v394.26ZM440-440h80v-80h-80v80Zm40-40Z"/>
</svg>
