<svg aria-hidden="true" viewBox="0 -960 960 960" fill="currentColor">
  <path d="M281.5-121.5Q200-203 200-320v-320q0-117 81.5-198.5T480-920q117 0 198.5 81.5T760-640v320q0 117-81.5 198.5T480-40q-117 0-198.5-81.5Zm241-536Q540-675 540-700t-17.5-42.5Q505-760 480-760t-42.5 17.5Q420-725 420-700t17.5 42.5Q455-640 480-640t42.5-17.5Zm-134 166Q400-503 400-520t-11.5-28.5Q377-560 360-560t-28.5 11.5Q320-537 320-520t11.5 28.5Q343-480 360-480t28.5-11.5Zm120 0Q520-503 520-520t-11.5-28.5Q497-560 480-560t-28.5 11.5Q440-537 440-520t11.5 28.5Q463-480 480-480t28.5-11.5Zm120 0Q640-503 640-520t-11.5-28.5Q617-560 600-560t-28.5 11.5Q560-537 560-520t11.5 28.5Q583-480 600-480t28.5-11.5Zm-240 120Q400-383 400-400t-11.5-28.5Q377-440 360-440t-28.5 11.5Q320-417 320-400t11.5 28.5Q343-360 360-360t28.5-11.5Zm240 0Q640-383 640-400t-11.5-28.5Q617-440 600-440t-28.5 11.5Q560-417 560-400t11.5 28.5Q583-360 600-360t28.5-11.5Zm-120 0Q520-383 520-400t-11.5-28.5Q497-440 480-440t-28.5 11.5Q440-417 440-400t11.5 28.5Q463-360 480-360t28.5-11.5Zm-120 120Q400-263 400-280t-11.5-28.5Q377-320 360-320t-28.5 11.5Q320-297 320-280t11.5 28.5Q343-240 360-240t28.5-11.5Zm240 0Q640-263 640-280t-11.5-28.5Q617-320 600-320t-28.5 11.5Q560-297 560-280t11.5 28.5Q583-240 600-240t28.5-11.5Zm-120 0Q520-263 520-280t-11.5-28.5Q497-320 480-320t-28.5 11.5Q440-297 440-280t11.5 28.5Q463-240 480-240t28.5-11.5Z"/>
</svg>
