<svg aria-hidden="true" viewBox="0 -960 960 960" fill="currentColor">
  <path d="M480-389q-53.826 0-91.457-37.63-37.63-37.631-37.63-91.457v-238.326q0-53.826 37.63-91.457Q426.174-885.5 480-885.5q53.826 0 91.457 37.63 37.63 37.631 37.63 91.457v238.326q0 53.826-37.63 91.457Q533.826-389 480-389Zm0 283.587q-18.435 0-31.011-12.576T436.413-149v-81.13q-96.109-12.478-163.022-79.391-66.913-66.914-82.109-160.783-3.478-18.913 9.837-33.348 13.316-14.435 35.229-14.435 14.956 0 26.674 11.098 11.717 11.098 15.195 27.293 13.957 71.196 70.153 118.914 56.195 47.717 131.63 47.717t131.63-47.717q56.196-47.718 70.153-118.914 3.478-16.195 15.576-27.293 12.098-11.098 27.293-11.098 21.153 0 34.348 14.435 13.196 14.435 9.718 33.348-15.196 93.869-82.109 160.783-66.913 66.913-163.022 79.391V-149q0 18.435-12.576 31.011T480-105.413Z"/>
</svg>
