<svg aria-hidden="true" viewBox="0 -960 960 960" fill="currentColor">
  <path d="m724.826-358.413-63.739-63.739q8.044-13.565 13.707-27.891 5.663-14.327 8.424-29.653 3.478-16.195 15.576-27.293 12.097-11.098 27.293-11.098 21.152 0 34.348 14.435 13.196 14.435 9.717 33.348-5 31.043-16.641 58.945-11.641 27.903-28.685 52.946ZM603.239-481.522l-83.717-83.957v-190.934q0-16.043-11.022-27.065-11.022-11.022-27.304-11.022-16.283 0-27.185 11.022-10.902 11.022-10.902 27.065v114.761L354.261-730.5v-37.631q3.109-48.565 39.543-82.967 36.435-34.402 87.392-34.402 53.826 0 91.576 37.63 37.75 37.631 37.75 91.457v238.326q0 10.522-2.261 19.522-2.261 9-5.022 17.043ZM481.196-603.565ZM761.609-87.109 84-764.717q-11.717-11.718-11.717-29.196T84-823.109q11.717-11.717 29.196-11.717 17.478 0 29.195 11.717L820-145.5q11.717 11.717 11.717 29.196 0 17.478-11.717 29.195-11.717 11.718-29.196 11.718-17.478 0-29.195-11.718Zm-324-61.891v-80.369q-96.109-13.239-163.022-80.152-66.913-66.914-82.109-160.783-3.478-18.913 9.837-33.348 13.315-14.435 35.228-14.435 14.957 0 26.674 11.098 11.718 11.098 15.196 27.293 13.957 71.196 70.152 118.914 56.196 47.717 131.631 47.717 36.152 0 68.565-11.696 32.413-11.695 58.37-32.609l62.5 62.501q-30.435 25.391-67.207 42.706-36.772 17.315-78.641 22.794V-149q0 18.435-12.576 31.011-12.577 12.576-31.011 12.576-18.435 0-31.011-12.576T437.609-149Z"/>
</svg>
