<svg aria-hidden="true" viewBox="0 -960 960 960" fill="currentColor">
  <path d="M315-435q-35-35-35-85v-240q0-50 35-85t85-35q50 0 85 35t35 85v240q0 50-35 85t-85 35q-50 0-85-35Zm113.5-56.5Q440-503 440-520v-240q0-17-11.5-28.5T400-800q-17 0-28.5 11.5T360-760v240q0 17 11.5 28.5T400-480q17 0 28.5-11.5ZM680-160q8 0 14-6t6-14q0-8-6-14t-14-6q-8 0-14 6t-6 14q0 8 6 14t14 6Zm14-86q6-6 6-14v-120q0-8-6-14t-14-6q-8 0-14 6t-6 14v120q0 8 6 14t14 6q8 0 14-6ZM538.5-138.5Q480-197 480-280t58.5-141.5Q597-480 680-480t141.5 58.5Q880-363 880-280t-58.5 141.5Q763-80 680-80t-141.5-58.5ZM400-640Zm-40 480v-83q-92-13-157.5-78T123-479q-2-17 9-29t28-12q17 0 28.5 11.5T204-480q15 75 72.5 117T409-321q13 0 22 8t9 20v133q0 17-11.5 28.5T400-120q-17 0-28.5-11.5T360-160Z"/>
</svg>
