<svg aria-hidden="true" viewBox="0 -960 960 960" fill="currentColor">
  <path d="M479.972-389q-53.798 0-91.429-37.65-37.63-37.651-37.63-91.437v-238.326q0-53.786 37.658-91.437 37.659-37.65 91.457-37.65 53.798 0 91.429 37.65 37.63 37.651 37.63 91.437v238.326q0 53.786-37.658 91.437Q533.77-389 479.972-389ZM480-637.37Zm0 531.957q-18.524 0-31.056-12.531-12.531-12.531-12.531-31.056v-80.369q-96.109-13.239-163.022-80.152-66.913-66.914-82.109-160.783-3.478-18.913 9.837-33.348 13.316-14.435 35.229-14.435 14.93 0 26.66 11.098 11.731 11.098 15.209 27.293 13.957 71.196 70.101 118.914Q404.461-313.065 480-313.065q75.539 0 131.682-47.717 56.144-47.718 70.101-118.914 3.478-16.195 15.576-27.293 12.098-11.098 27.293-11.098 21.153 0 34.348 14.435 13.196 14.435 9.718 33.348-15.196 93.869-82.109 160.783-66.913 66.913-163.022 80.152V-149q0 18.525-12.531 31.056-12.532 12.531-31.056 12.531ZM480-480q16.187 0 27.137-10.95t10.95-27.137v-238.326q0-16.187-10.95-27.137T480-794.5q-16.187 0-27.137 10.95t-10.95 27.137v238.326q0 16.187 10.95 27.137T480-480Z"/>
</svg>
