<svg aria-hidden="true" viewBox="0 -960 960 960" fill="currentColor">
  <path d="m710-362-58-58q9-15 15.5-31t9.5-33q3-15 14.5-25.5T717-520q19 0 31 13t9 30q-5 32-17 60.5T710-362ZM592-482 360-714v-46q0-50 35-85t85-35q50 0 85 35t35 85v240q0 11-2.5 20t-5.5 18ZM764-84 84-764q-11-11-11-28t11-28q11-11 28-11t28 11l680 680q11 11 11 28t-11 28q-11 11-28 11t-28-11Zm-324-76v-84q-93-12-158-77t-79-156q-3-17 9-30t32-13q14 0 25 10.5t14 25.5q13 70 68 117t129 47q34 0 64.5-10.5T600-360l57 57q-29 23-63.5 38.5T520-244v84q0 17-11.5 28.5T480-120q-17 0-28.5-11.5T440-160Z"/>
</svg>
