<svg aria-hidden="true" viewBox="0 -960 960 960" fill="currentColor">
  <path d="M160-160q-33 0-56.5-23.5T80-240v-480q0-33 23.5-56.5T160-800h640q33 0 56.5 23.5T880-720v480q0 33-23.5 56.5T800-160H160Zm80-120h320q17 0 28.5-11.5T600-320v-320q0-17-11.5-28.5T560-680H240q-17 0-28.5 11.5T200-640v320q0 17 11.5 28.5T240-280Zm508.5-11.5Q760-303 760-320t-11.5-28.5Q737-360 720-360t-28.5 11.5Q680-337 680-320t11.5 28.5Q703-280 720-280t28.5-11.5ZM280-360v-240h240v240H280Zm468.5-91.5Q760-463 760-480t-11.5-28.5Q737-520 720-520t-28.5 11.5Q680-497 680-480t11.5 28.5Q703-440 720-440t28.5-11.5Zm0-160Q760-623 760-640t-11.5-28.5Q737-680 720-680t-28.5 11.5Q680-657 680-640t11.5 28.5Q703-600 720-600t28.5-11.5Z"/>
</svg>
