<svg aria-hidden="true" viewBox="0 -960 960 960" fill="currentColor">
  <path d="M402.891-108.674q-12.913 10.196-26.967.5-14.055-9.695-8.576-25.848l29.956-95.826-76.109-54.391q-13.674-10.196-8.195-25.728 5.478-15.533 21.63-15.533h93.305l28-91.375-140.805-83.429q-19.246-11.784-29.938-31.066-10.692-19.282-10.692-43.717v-228.5q0-37.538 26.731-64.269 26.732-26.731 64.269-26.731h229q37.537 0 64.269 26.731 26.731 26.731 26.731 64.269v228.5q0 24.435-10.692 43.717t-29.938 31.066l-140.805 83.429 28 91.375h93.305q16.152 0 21.63 15.533 5.479 15.532-8.195 25.728l-76.109 54.391 29.956 95.826q5.479 16.153-8.576 25.848-14.054 9.696-26.967-.5L480-167.065l-77.109 58.391Zm-40.978-698.739v231.608L440-529v-278.413h-78.087Zm236.174 0H520V-529l78.087-46.805v-231.608ZM480-656.326Zm-40-12Zm80 0Z"/>
</svg>
