<svg aria-hidden="true" viewBox="0 -960 960 960" fill="currentColor">
  <path d="M403.13-108.674q-12.913 10.196-27.087.5-14.174-9.695-8.456-25.848l29.956-95.826-76.348-54.391q-13.674-9.435-8.076-25.348 5.598-15.913 21.75-15.913h93.305l28-91.283-141.044-83.521q-19.195-11.718-29.793-31.033-10.598-19.315-10.598-43.75v-228.5q0-37.544 26.728-64.272 26.729-26.728 64.272-26.728h229q37.544 0 64.272 26.728 26.728 26.728 26.728 64.272v228.5q0 24.435-10.717 43.75-10.718 19.315-29.913 31.033l-140.805 83.521 28 91.283h93.066q16.152 0 21.75 15.913 5.598 15.913-8.076 25.348l-76.348 54.391 30.195 95.826q5.718 16.153-8.456 25.848-14.174 9.696-27.087-.5l-77.109-58.391-77.109 58.391ZM480.239-505l40-24v-238.413q0-17-11.5-28.5t-28.5-11.5q-17 0-28.5 11.5t-11.5 28.5V-529l40 24Z"/>
</svg>
