<svg aria-hidden="true" viewBox="0 -960 960 960" fill="currentColor">
  <path d="M240-80v-172q-57-52-88.5-121.5T120-520q0-150 105-255t255-105q125 0 221.5 73.5T827-615l52 205q5 19-7 34.5T840-360h-80v120q0 33-23.5 56.5T680-160h-80v80H240Zm240-600q-17 0-28.5 11.5T440-640v200q0 17 11.5 28.5T480-400q17 0 28.5-11.5T520-440v-200q0-17-11.5-28.5T480-680Zm120 40q-17 0-28.5 11.5T560-600v100q0 17 11.5 28.5T600-460q17 0 28.5-11.5T640-500v-100q0-17-11.5-28.5T600-640Zm-240 0q-17 0-28.5 11.5T320-600v80q0 17 11.5 28.5T360-480q17 0 28.5-11.5T400-520v-80q0-17-11.5-28.5T360-640Z"/>
</svg>
