<svg aria-hidden="true" viewBox="0 -960 960 960" fill="currentColor">
  <path d="M508.5-411.5Q520-423 520-440v-200q0-17-11.5-28.5T480-680q-17 0-28.5 11.5T440-640v200q0 17 11.5 28.5T480-400q17 0 28.5-11.5Zm120-60Q640-483 640-500v-100q0-17-11.5-28.5T600-640q-17 0-28.5 11.5T560-600v100q0 17 11.5 28.5T600-460q17 0 28.5-11.5Zm-240-20Q400-503 400-520v-80q0-17-11.5-28.5T360-640q-17 0-28.5 11.5T320-600v80q0 17 11.5 28.5T360-480q17 0 28.5-11.5ZM240-252q-57-52-88.5-121.5T120-520q0-150 105-255t255-105q125 0 221.5 73.5T827-615l52 205q5 19-7 34.5T840-360h-80v120q0 33-23.5 56.5T680-160h-80v40q0 17-11.5 28.5T560-80q-17 0-28.5-11.5T520-120v-80q0-17 11.5-28.5T560-240h120v-160q0-17 11.5-28.5T720-440h68l-38-155q-23-91-98-148t-172-57q-116 0-198 81t-82 197q0 60 24.5 114t69.5 96l26 24v168q0 17-11.5 28.5T280-80q-17 0-28.5-11.5T240-120v-132Zm254-188Z"/>
</svg>
