<svg aria-hidden="true" viewBox="0 -960 960 960" fill="currentColor">
  <path d="m428-434-88-86h20q17 0 28.5-11.5T400-560q0-17-11.5-28.5T360-600H240q-17 0-28.5 11.5T200-560v120q0 17 11.5 28.5T240-400q17 0 28.5-11.5T280-440v-28l120 120q5 5 12.5 8t15.5 3q8 0 15.5-3t12.5-9l125-126q11-11 11-27t-12-28q-11-11-28-11t-28 11l-96 96ZM160-160q-33 0-56.5-23.5T80-240v-480q0-33 23.5-56.5T160-800h480q33 0 56.5 23.5T720-720v180l126-126q9-9 21.5-4.5T880-652v344q0 14-12.5 18.5T846-294L720-420v180q0 33-23.5 56.5T640-160H160Zm0-80h480v-480H160v480Zm0 0v-480 480Z"/>
</svg>
