<svg aria-hidden="true" viewBox="0 -960 960 960" fill="currentColor">
  <path d="m428.717-434-88-86h20q17 0 28.5-11.5t11.5-28.5q0-17-11.5-28.5t-28.5-11.5H246.218q-19.153 0-32.327 13.174T200.717-554.5V-440q0 17 11.5 28.5t28.5 11.5q17 0 28.5-11.5t11.5-28.5v-28l115.935 115.935q5.957 5.956 14.533 9.435 8.576 3.478 17.532 3.478 8.957 0 17.413-3.359 8.457-3.359 14.414-10.315L581.717-475q11-11 11-27t-12-28q-11-11-28-11t-28 11l-96 96ZM162.87-151.869q-37.783 0-64.392-26.609Q71.87-205.087 71.87-242.87v-474.26q0-37.783 26.61-64.392 26.608-26.609 64.391-26.609h474.26q37.783 0 64.392 26.609 26.609 26.609 26.609 64.392V-540L849.11-660.978q10.435-10.435 24.728-5.098 14.294 5.337 14.294 21.25v329.652q0 15.913-14.294 21.25-14.293 5.337-24.728-5.098L728.131-420v177.13q0 37.783-26.609 64.392-26.609 26.609-64.392 26.609H162.87Z"/>
</svg>
