<svg aria-hidden="true" viewBox="0 -960 960 960" fill="currentColor">
  <path d="M382-160H240q-17 0-28.5-11.5T200-200q0-17 11.5-28.5T240-240h142l-16-16q-11-11-11-28t11-28q11-11 28-11t28 11l84 84q12 12 12 28t-12 28l-84 84q-11 11-28 11t-28-11q-11-11-11-28t11-28l16-16ZM280-434q48-23 98.5-34.5T480-480q51 0 101.5 11.5T680-434v-366H280v366Zm320 274q-17 0-28.5-11.5T560-200q0-17 11.5-28.5T600-240h120q17 0 28.5 11.5T760-200q0 17-11.5 28.5T720-160H600ZM480-400Zm-85-155q-35-35-35-85t35-85q35-35 85-35t85 35q35 35 35 85t-35 85q-35 35-85 35t-85-35Zm113.5-56.5Q520-623 520-640t-11.5-28.5Q497-680 480-680t-28.5 11.5Q440-657 440-640t11.5 28.5Q463-600 480-600t28.5-11.5ZM480-640ZM240-280q-17 0-28.5-11.5T200-320v-480q0-33 23.5-56.5T280-880h400q33 0 56.5 23.5T760-800v124q18 7 29 22t11 34v80q0 19-11 34t-29 22v164q0 17-11.5 28.5T720-280q-17 0-28.5-11.5T680-320v-22q-40-29-90.5-43.5T480-400q-59 0-109.5 14.5T280-342v22q0 17-11.5 28.5T240-280Z"/>
</svg>
