<svg aria-hidden="true" viewBox="0 -960 960 960" fill="currentColor">
  <path d="M240-160v-640 640ZM637-40q-26 0-49-10.5T548-80L369-294q-10-12-9-27.5t12-26.5l19-20q18-18 44-22.5t49 7.5l116 58v-355h80q66 0 113 47t47 113v320q0 66-47 113T680-40h-43ZM240-80q-33 0-56.5-23.5T160-160v-640q0-33 23.5-56.5T240-880h360q33 0 56.5 23.5T680-800v120h-80v-120H240v640h241l67 80H240Zm208.5-611.5Q460-703 460-720t-11.5-28.5Q437-760 420-760t-28.5 11.5Q380-737 380-720t11.5 28.5Q403-680 420-680t28.5-11.5ZM637-120h43q33 0 56.5-23t23.5-57v-320q0-33-23.5-56.5T680-600v340q0 23-19 34.5t-39 1.5l-155-77 139 167q6 7 14 10.5t17 3.5Z"/>
</svg>
