<svg aria-hidden="true" viewBox="0 -960 960 960" fill="currentColor">
  <path d="M792-56 56-792q-11-11-11-28t11-28q11-11 28-11t28 11l736 736q11 11 11 28t-11 28q-11 11-28 11t-28-11ZM508.5-731.5Q520-743 520-760t-11.5-28.5Q497-800 480-800t-28.5 11.5Q440-777 440-760t11.5 28.5Q463-720 480-720t28.5-11.5ZM280-40q-33 0-56.5-23.5T200-120v-640l560 560v80q0 33-23.5 56.5T680-40H280Zm480-800v124q18 7 29 22t11 34v80q0 19-11 34t-29 22v115q0 27-24.5 37.5T692-380L222-851q-5-5-7-10t-2-10q0-17 18.5-33t48.5-16h400q33 0 56.5 23.5T760-840Z"/>
</svg>
