<svg aria-hidden="true" viewBox="0 -960 960 960" fill="currentColor">
  <path d="M320-120q-33 0-56.5-23.5T240-200v-560q0-33 23.5-56.5T320-840h320q33 0 56.5 23.5T720-760v560q0 33-23.5 56.5T640-120H320Zm188.5-531.5Q520-663 520-680t-11.5-28.5Q497-720 480-720t-28.5 11.5Q440-697 440-680t11.5 28.5Q463-640 480-640t28.5-11.5ZM0-400v-160q0-17 11.5-28.5T40-600q17 0 28.5 11.5T80-560v160q0 17-11.5 28.5T40-360q-17 0-28.5-11.5T0-400Zm120 80v-320q0-17 11.5-28.5T160-680q17 0 28.5 11.5T200-640v320q0 17-11.5 28.5T160-280q-17 0-28.5-11.5T120-320Zm760-80v-160q0-17 11.5-28.5T920-600q17 0 28.5 11.5T960-560v160q0 17-11.5 28.5T920-360q-17 0-28.5-11.5T880-400Zm-120 80v-320q0-17 11.5-28.5T800-680q17 0 28.5 11.5T840-640v320q0 17-11.5 28.5T800-280q-17 0-28.5-11.5T760-320Z"/>
</svg>
