<svg aria-hidden="true" viewBox="0 -960 960 960" fill="currentColor">
  <path d="M268.5-451.5Q280-463 280-480t-11.5-28.5Q257-520 240-520t-28.5 11.5Q200-497 200-480t11.5 28.5Q223-440 240-440t28.5-11.5Zm160 0Q440-463 440-480t-11.5-28.5Q417-520 400-520t-28.5 11.5Q360-497 360-480t11.5 28.5Q383-440 400-440t28.5-11.5Zm160 0Q600-463 600-480t-11.5-28.5Q577-520 560-520t-28.5 11.5Q520-497 520-480t11.5 28.5Q543-440 560-440t28.5-11.5Zm160 0Q760-463 760-480t-11.5-28.5Q737-520 720-520t-28.5 11.5Q680-497 680-480t11.5 28.5Q703-440 720-440t28.5-11.5ZM120-200q-33 0-56.5-23.5T40-280v-400q0-33 23.5-56.5T120-760h124q7-18 22-29t34-11h80q19 0 34 11t22 29h404q33 0 56.5 23.5T920-680v400q0 33-23.5 56.5T840-200H120Zm720-80v-400H120v400h720ZM120-680v400-400Z"/>
</svg>
