<svg aria-hidden="true" viewBox="0 -960 960 960" fill="currentColor">
  <path d="M847-56q-12 11-28 11.5T791-56l-33-33q-8 5-17.5 7T720-80H464l138-165-57-57-161 193q-11 14-27.5 21.5T322-80h-42q-50 0-85-35t-35-85v-320q0-34 17.5-62t45.5-43L56-792q-11-11-11.5-27.5T56-848q11-11 28-11t28 11l736 736q12 12 11.5 28T847-56Zm-47-216L280-792v-8q0-33 23.5-56.5T360-880h360q33 0 56.5 23.5T800-800v528ZM568.5-691.5Q580-703 580-720t-11.5-28.5Q557-760 540-760t-28.5 11.5Q500-737 500-720t11.5 28.5Q523-680 540-680t28.5-11.5ZM320-260l178-89-178-179v268Z"/>
</svg>
