<svg aria-hidden="true" viewBox="0 -960 960 960" fill="currentColor">
  <path d="M280-40q-33 0-56.5-23.5T200-120v-720q0-33 23.5-56.5T280-920h400q33 0 56.5 23.5T760-840v80q0 17-11.5 28.5T720-720h-61q-17 0-32 6.5T601-695l-14 15q-61 0-104 38.5T440-540v160q0 58 41 99t99 41h140q17 0 28.5 11.5T760-200v80q0 33-23.5 56.5T680-40H280Zm228.5-691.5Q520-743 520-760t-11.5-28.5Q497-800 480-800t-28.5 11.5Q440-777 440-760t11.5 28.5Q463-720 480-720t28.5-11.5ZM580-320q-25 0-42.5-17.5T520-380v-160q0-25 17.5-42.5T580-600h40l28-28q6-6 13.5-9t15.5-3h46q8 0 15.5 3t13.5 9l28 28h40q25 0 42.5 17.5T880-540v160q0 25-17.5 42.5T820-320H580Zm169.5-90.5Q770-431 770-460t-20.5-49.5Q729-530 700-530t-49.5 20.5Q630-489 630-460t20.5 49.5Q671-390 700-390t49.5-20.5Z"/>
</svg>
