<svg aria-hidden="true" viewBox="0 -960 960 960" fill="currentColor">
  <path d="M320-40q-17 0-28.5-11.5T280-80q0-17 11.5-28.5T320-120q17 0 28.5 11.5T360-80q0 17-11.5 28.5T320-40Zm131.5-11.5Q440-63 440-80t11.5-28.5Q463-120 480-120t28.5 11.5Q520-97 520-80t-11.5 28.5Q497-40 480-40t-28.5-11.5Zm160 0Q600-63 600-80t11.5-28.5Q623-120 640-120t28.5 11.5Q680-97 680-80t-11.5 28.5Q657-40 640-40t-28.5-11.5Zm-103-680Q520-743 520-760t-11.5-28.5Q497-800 480-800t-28.5 11.5Q440-777 440-760t11.5 28.5Q463-720 480-720t28.5-11.5ZM720-840v82q17 3 28.5 16.5T760-711v62q0 17-11.5 30.5T720-602v322q0 33-23.5 56.5T640-200H320q-33 0-56.5-23.5T240-280v-560q0-33 23.5-56.5T320-920h320q33 0 56.5 23.5T720-840Z"/>
</svg>
