<svg aria-hidden="true" viewBox="0 -960 960 960" fill="currentColor">
  <path d="M760-840v124q18 7 29 22t11 34v80q0 19-11 34t-29 22v444q0 17-11.5 28.5T720-40q-17 0-28.5-11.5T680-80v-760H280v280q0 17-11.5 28.5T240-520q-17 0-28.5-11.5T200-560v-280q0-33 23.5-56.5T280-920h400q33 0 56.5 23.5T760-840ZM508.5-731.5Q520-743 520-760t-11.5-28.5Q497-800 480-800t-28.5 11.5Q440-777 440-760t11.5 28.5Q463-720 480-720t28.5-11.5ZM680-80v-760 760ZM211.5-51.5Q200-63 200-80t11.5-28.5Q223-120 240-120t28.5 11.5Q280-97 280-80t-11.5 28.5Q257-40 240-40t-28.5-11.5Zm68-127.5Q261-190 240-195q-17-5-28.5-16.5T200-240q0-17 12-28.5t28-8.5q37 6 70.5 23.5T370-210q26 26 43.5 59.5T437-80q3 16-8.5 28T400-40q-17 0-28.5-11.5T355-80q-5-21-16-39.5T313-153q-15-15-33.5-26Zm61-148.5Q293-351 240-358q-17-2-28.5-13.5T200-400q0-17 12-28.5t29-9.5q69 7 131 36.5T483-323q49 49 77.5 111T597-81q2 17-9 29t-28 12q-17 0-29-11.5T517-80q-7-53-30-100.5T426-266q-38-38-85.5-61.5Z"/>
</svg>
