<svg aria-hidden="true" viewBox="0 -960 960 960" fill="currentColor">
  <path d="M280-120v-720 201-1 520Zm228.5-611.5Q520-743 520-760t-11.5-28.5Q497-800 480-800t-28.5 11.5Q440-777 440-760t11.5 28.5Q463-720 480-720t28.5-11.5ZM280-40q-33 0-56.5-23.5T200-120v-720q0-33 23.5-56.5T280-920h400q33 0 56.5 23.5T760-840v159q0 17-11.5 28.5T720-641q-17 0-28.5-11.5T680-681v-159H280v720h81q17 0 28.5 11.5T401-80q0 17-11.5 28.5T361-40h-81Zm380 0q-109 0-185.5-77.5T400-304q2-104 77-179t179-77q109-2 186.5 74.5T920-300v180q0 33-23.5 56.5T840-40H660Zm127.5-132.5Q840-225 840-300t-52.5-127.5Q735-480 660-480t-127.5 52.5Q480-375 480-300t52.5 127.5Q585-120 660-120t127.5-52.5ZM630-270h-55q-13 0-21.5-8.5T545-300q0-13 8.5-21.5T575-330h55v-60q0-13 8.5-21.5T660-420q13 0 21.5 8.5T690-390v60h55q13 0 21.5 8.5T775-300q0 13-8.5 21.5T745-270h-55v60q0 13-8.5 21.5T660-180q-13 0-21.5-8.5T630-210v-60Z"/>
</svg>
