<svg aria-hidden="true" viewBox="0 -960 960 960" fill="currentColor">
  <path d="M320-305q-1 51 14.5 104t46.5 95q16 21 6 43.5T354-40h-74q-33 0-56.5-23.5T200-120v-720q0-33 23.5-56.5T280-920h400q33 0 56.5 23.5T760-840v167q0 18-14.5 29.5T713-636q-14-2-29-3t-29-1q-136 2-234.5 100T320-305ZM660-40q-109 0-185.5-77.5T400-304q2-104 77-179t179-77q109-2 186.5 74.5T920-300v180q0 33-23.5 56.5T840-40H660Zm-30-230h-55q-13 0-21.5-8.5T545-300q0-13 8.5-21.5T575-330h55v-60q0-13 8.5-21.5T660-420q13 0 21.5 8.5T690-390v60h55q13 0 21.5 8.5T775-300q0 13-8.5 21.5T745-270h-55v60q0 13-8.5 21.5T660-180q-13 0-21.5-8.5T630-210v-60ZM508.5-731.5Q520-743 520-760t-11.5-28.5Q497-800 480-800t-28.5 11.5Q440-777 440-760t11.5 28.5Q463-720 480-720t28.5-11.5Zm279 559Q840-225 840-300t-52.5-127.5Q735-480 660-480t-127.5 52.5Q480-375 480-300t52.5 127.5Q585-120 660-120t127.5-52.5Z"/>
</svg>
