<svg aria-hidden="true" viewBox="0 -960 960 960" fill="currentColor">
  <path d="M720-160v-268 39-411 640ZM323-40h-43q-66 0-113-47t-47-113v-320q0-66 47-113t113-47h80v355l116-58q23-12 49-7.5t44 22.5l19 20q11 11 12 26.5t-9 27.5L412-80q-17 19-40 29.5T323-40Zm397-40H412l67-80h241v-640H360v120h-80v-120q0-33 23.5-56.5T360-880h360q33 0 56.5 23.5T800-800v640q0 33-23.5 56.5T720-80ZM568.5-691.5Q580-703 580-720t-11.5-28.5Q557-760 540-760t-28.5 11.5Q500-737 500-720t11.5 28.5Q523-680 540-680t28.5-11.5ZM323-120q9 0 17-3.5t14-10.5l139-167-155 77q-20 10-39-1.5T280-260v-340q-33 0-56.5 23.5T200-520v320q0 34 23.5 57t56.5 23h43Z"/>
</svg>
