<svg aria-hidden="true" viewBox="0 -960 960 960" fill="currentColor">
  <path d="M280-40q-33 0-56.5-23.5T200-120v-720q0-33 23.5-56.5T280-920h400q33 0 56.5 23.5T760-840v124q18 7 29 22t11 34v80q0 19-11 34t-29 22v404q0 33-23.5 56.5T680-40H280Zm0-80h400v-720H280v720Zm0 0v-720 720Zm80-200h240q17 0 28.5-11.5T640-360v-67q0-5-4-9t-9-6q-12-4-19.5-14t-7.5-24q0-14 7.5-24t19.5-14q6-2 9.5-6t3.5-9v-67q0-17-11.5-28.5T600-640H360q-17 0-28.5 11.5T320-600v67q0 5 4 9t9 6q12 4 19.5 14t7.5 24q0 14-7.5 24T333-442q-6 2-9.5 6t-3.5 9v67q0 17 11.5 28.5T360-320Zm106-66q-6-6-6-14t6-14q6-6 14-6t14 6q6 6 6 14t-6 14q-6 6-14 6t-14-6Zm0-80q-6-6-6-14t6-14q6-6 14-6t14 6q6 6 6 14t-6 14q-6 6-14 6t-14-6Zm0-80q-6-6-6-14t6-14q6-6 14-6t14 6q6 6 6 14t-6 14q-6 6-14 6t-14-6Z"/>
</svg>
