<svg aria-hidden="true" viewBox="0 -960 960 960" fill="currentColor">
  <path d="M280-120v-720 720Zm400 0v-80 80Zm-80-240h200v-120H600v120Zm240 80H600l-46 46q-5 5-11 5.5t-11-1.5q-5-2-8.5-6.5T520-248v-272q0-17 11.5-28.5T560-560h280q17 0 28.5 11.5T880-520v200q0 17-11.5 28.5T840-280ZM280-40q-33 0-56.5-23.5T200-120v-720q0-33 23.5-56.5T280-920h400q33 0 56.5 23.5T760-840v160q0 17-11.5 28.5T720-640q-17 0-28.5-11.5T680-680v-160H280v720h400v-40q0-17 11.5-28.5T720-200q17 0 28.5 11.5T760-160v40q0 33-23.5 56.5T680-40H280Zm228.5-691.5Q520-743 520-760t-11.5-28.5Q497-800 480-800t-28.5 11.5Q440-777 440-760t11.5 28.5Q463-720 480-720t28.5-11.5ZM600-360v-120 120Z"/>
</svg>
