<svg aria-hidden="true" viewBox="0 -960 960 960" fill="currentColor">
  <path d="m800-272-80-80v-448H360v88l-80-80v-8q0-33 23.5-56.5T360-880h360q33 0 56.5 23.5T800-800v528Zm47 216q-12 11-28 11.5T791-56l-33-33q-8 5-17.5 7T720-80H412l67-80h208L574-274 412-80q-17 19-40 29.5T323-40h-43q-66 0-113-47t-47-113v-320q0-42 20-77t53-57L56-792q-11-11-11.5-27.5T56-848q11-11 28-11t28 11l736 736q12 12 11.5 28T847-56ZM540-576Zm28.5-115.5Q580-703 580-720t-11.5-28.5Q557-760 540-760t-28.5 11.5Q500-737 500-720t11.5 28.5Q523-680 540-680t28.5-11.5ZM687-160Zm-407 40h43q9 0 17-3.5t14-10.5l138-168-212 107v-373l-27-27q-23 8-38 28.5T200-520v320q0 34 23.5 57t56.5 23Zm80-205 107-54-107-109v163Z"/>
</svg>
