<svg aria-hidden="true" viewBox="0 -960 960 960" fill="currentColor">
  <path d="M320-120q-33 0-56.5-23.5T240-200v-560q0-33 23.5-56.5T320-840h320q33 0 56.5 23.5T720-760v560q0 33-23.5 56.5T640-120H320Zm320-80v-560H320v560h320ZM508.5-651.5Q520-663 520-680t-11.5-28.5Q497-720 480-720t-28.5 11.5Q440-697 440-680t11.5 28.5Q463-640 480-640t28.5-11.5ZM0-320v-200q0-17 11.5-28.5T40-560q17 0 28.5 11.5T80-520v200q0 17-11.5 28.5T40-280q-17 0-28.5-11.5T0-320Zm120-120v-200q0-17 11.5-28.5T160-680q17 0 28.5 11.5T200-640v200q0 17-11.5 28.5T160-400q-17 0-28.5-11.5T120-440Zm760 0v-200q0-17 11.5-28.5T920-680q17 0 28.5 11.5T960-640v200q0 17-11.5 28.5T920-400q-17 0-28.5-11.5T880-440ZM760-320v-200q0-17 11.5-28.5T800-560q17 0 28.5 11.5T840-520v200q0 17-11.5 28.5T800-280q-17 0-28.5-11.5T760-320ZM320-200v-560 560Z"/>
</svg>
