<svg aria-hidden="true" viewBox="0 -960 960 960" fill="currentColor">
  <path d="M791.479-480q0 84.674-32.098 159.109t-87.294 129.63q-55.196 55.196-129.511 87.294T383.587-71.869q-32.957 0-69.511-6.598-36.554-6.598-69.272-18.316-13.913-5.956-22.826-17.891-8.913-11.935-8.913-27.326 0-9.717 3.859-18.435 3.858-8.717 11.098-14.435 71.239-61.391 109.337-140.097Q375.456-393.674 375.456-480q.479-86.326-37.619-165.033Q299.739-723.739 228.5-785.13q-7.239-5.718-11.098-14.435-3.859-8.718-3.859-18.435 0-15.391 9.033-27.326t22.946-17.892q32.717-11.717 69.152-18.315 36.435-6.598 69.391-6.598 84.674 0 158.99 32.098 74.315 32.098 129.391 87.294 55.076 55.195 87.174 129.63Q791.718-564.674 791.479-480Z"/>
</svg>
