<svg aria-hidden="true" viewBox="0 -960 960 960" fill="currentColor">
  <path d="M482-682q-18 0-35 5t-31 19l-58-58q14-14 38-25.5t44-14.5v-44q0-17 11.5-28.5T480-840q17 0 28.5 11.5T520-800v42q35 7 64 26t49 48q9 14 2 28.5T612-634q-15 6-30.5 2T555-649q-14-16-32-24.5t-41-8.5ZM764-84 608-240q-15 15-41 24.5T520-204v44q0 17-11.5 28.5T480-120q-17 0-28.5-11.5T440-160v-46q-45-11-78.5-37.5T308-310q-8-16-.5-32.5T332-366q16-6 31.5.5T387-344q15 28 40.5 46t60.5 18q18 0 33-4.5t29-13.5L84-764q-11-11-11-28t11-28q11-11 28-11t28 11l680 680q11 11 11 28t-11 28q-11 11-28 11t-28-11Z"/>
</svg>
