<svg aria-hidden="true" viewBox="0 -960 960 960" fill="currentColor">
  <path d="M600-320h120q17 0 28.5-11.5T760-360v-240q0-17-11.5-28.5T720-640H600q-17 0-28.5 11.5T560-600v240q0 17 11.5 28.5T600-320Zm40-80v-160h40v160h-40Zm-280 80h120q17 0 28.5-11.5T520-360v-240q0-17-11.5-28.5T480-640H360q-17 0-28.5 11.5T320-600v240q0 17 11.5 28.5T360-320Zm40-80v-160h40v160h-40Zm-160 80q17 0 28.5-11.5T280-360v-240q0-17-11.5-28.5T240-640q-17 0-28.5 11.5T200-600v240q0 17 11.5 28.5T240-320Zm-80 171q-37.538 0-64.269-26.731Q69-202.462 69-240v-480q0-37.538 26.731-64.269Q122.462-811 160-811h640q37.538 0 64.269 26.731Q891-757.538 891-720v480q0 37.538-26.731 64.269Q837.538-149 800-149H160Z"/>
</svg>
