<svg aria-hidden="true" viewBox="0 -960 960 960" fill="currentColor">
  <path d="M640-160q-17 0-28.5-11.5T600-200q0-17 11.5-28.5T640-240h240q17 0 28.5 11.5T920-200q0 17-11.5 28.5T880-160H640Zm-75-355q35-35 35-85t-35-85q-35-35-85-35t-85 35q-35 35-35 85t35 85q35 35 85 35t85-35Zm-159-71q-6-6-6-14t6-14q6-6 14-6t14 6q6 6 6 14t-6 14q-6 6-14 6t-14-6Zm60 0q-6-6-6-14t6-14q6-6 14-6t14 6q6 6 6 14t-6 14q-6 6-14 6t-14-6Zm60 0q-6-6-6-14t6-14q6-6 14-6t14 6q6 6 6 14t-6 14q-6 6-14 6t-14-6ZM200-120q-33 0-56.5-23.5T120-200v-560q0-33 23.5-56.5T200-840h560q33 0 56.5 23.5T840-760v334q-20-7-40-10.5t-40-3.5q-100 0-170 70t-70 170q0 20 3.5 40t10.5 40H200Z"/>
</svg>
