<svg aria-hidden="true" viewBox="0 -960 960 960" fill="currentColor">
  <path d="M340-520q25 0 42.5-17.5T400-580q0-25-17.5-42.5T340-640q-25 0-42.5 17.5T280-580q0 25 17.5 42.5T340-520Zm416-352q20-20 36.5-34t45.5-14q37 0 59.5 25.5T920-837q0 15-6 30t-18 27L784-668q-12 12-28 12t-28-12L616-780q-13-13-18.5-28t-5.5-30q0-32 23-57t59-25q28 0 44 13t38 35ZM480-260q58 0 107.5-27.5T666-364q7-11-.5-23.5T644-400H316q-14 0-21.5 12.5T294-364q29 49 79 76.5T480-260ZM324-111.5Q251-143 197-197t-85.5-127Q80-397 80-480t31.5-156Q143-709 197-763t127-85.5Q397-880 480-880q10 0 19.5.5T519-878q-5 17-7.5 34.5T509-807q0 53 20.5 98.5T585-629q-11 8-18 21t-7 28q0 25 17.5 42.5T620-520q23 0 39.5-15t19.5-37q18 6 37.5 9t39.5 3q29 0 57-7t53-19q7 26 10.5 52t3.5 54q0 83-31.5 156T763-197q-54 54-127 85.5T480-80q-83 0-156-31.5Z"/>
</svg>
