<svg aria-hidden="true" viewBox="0 -960 960 960" fill="currentColor">
  <path d="M195-235q-35-35-35-85h-40q-17 0-28.5-11.5T80-360v-80q0-66 47-113t113-47h80q33 0 56.5 23.5T400-520v120h140l140-174v-106h-80q-17 0-28.5-11.5T560-720q0-17 11.5-28.5T600-760h80q33 0 56.5 23.5T760-680v106q0 14-4.5 26.5T743-524L604-350q-11 14-28 22t-35 8H400q0 50-35 85t-85 35q-50 0-85-35Zm113.5-56.5Q320-303 320-320h-80q0 17 11.5 28.5T280-280q17 0 28.5-11.5ZM360-640H240q-17 0-28.5-11.5T200-680q0-17 11.5-28.5T240-720h120q17 0 28.5 11.5T400-680q0 17-11.5 28.5T360-640Zm315 405q-35-35-35-85t35-85q35-35 85-35t85 35q35 35 35 85t-35 85q-35 35-85 35t-85-35Zm113.5-56.5Q800-303 800-320t-11.5-28.5Q777-360 760-360t-28.5 11.5Q720-337 720-320t11.5 28.5Q743-280 760-280t28.5-11.5Z"/>
</svg>
