<svg aria-hidden="true" viewBox="0 -960 960 960" fill="currentColor">
  <path d="M360-160q-19 0-36-8.5T296-192L116-432q-16-21-16-48t16-48l180-240q11-15 28-23.5t36-8.5h440q33 0 56.5 23.5T880-720v480q0 33-23.5 56.5T800-160H360Zm0-80h440v-480H360L180-480l180 240Zm68.5-211.5Q440-463 440-480t-11.5-28.5Q417-520 400-520t-28.5 11.5Q360-497 360-480t11.5 28.5Q383-440 400-440t28.5-11.5Zm140 0Q580-463 580-480t-11.5-28.5Q557-520 540-520t-28.5 11.5Q500-497 500-480t11.5 28.5Q523-440 540-440t28.5-11.5Zm140 0Q720-463 720-480t-11.5-28.5Q697-520 680-520t-28.5 11.5Q640-497 640-480t11.5 28.5Q663-440 680-440t28.5-11.5ZM490-480Z"/>
</svg>
