<svg aria-hidden="true" viewBox="0 -960 960 960" fill="currentColor">
  <path d="M160-240q-33 0-56.5-23.5T80-320v-320q0-33 23.5-56.5T160-720h320q33 0 56.5 23.5T560-640v320q0 33-23.5 56.5T480-240H160Zm491.5-11.5Q640-263 640-280t11.5-28.5Q663-320 680-320t28.5 11.5Q720-297 720-280t-11.5 28.5Q697-240 680-240t-28.5-11.5Zm160 0Q800-263 800-280t11.5-28.5Q823-320 840-320t28.5 11.5Q880-297 880-280t-11.5 28.5Q857-240 840-240t-28.5-11.5Zm0-200Q800-463 800-480t11.5-28.5Q823-520 840-520t28.5 11.5Q880-497 880-480t-11.5 28.5Q857-440 840-440t-28.5-11.5Zm0-200Q800-663 800-680t11.5-28.5Q823-720 840-720t28.5 11.5Q880-697 880-680t-11.5 28.5Q857-640 840-640t-28.5-11.5Zm-160 0Q640-663 640-680t11.5-28.5Q663-720 680-720t28.5 11.5Q720-697 720-680t-11.5 28.5Q697-640 680-640t-28.5-11.5Z"/>
</svg>
