<svg aria-hidden="true" viewBox="0 -960 960 960" fill="currentColor">
  <path d="M428-284q-5-4-7-10-14-42-34-70t-40-54q-20-26-33.5-54T300-540q0-58 41-99t99-41q58 0 99 41t41 99q0 40-13.5 68T533-418q-20 26-40 54t-34 70q-2 6-7 10t-12 4q-7 0-12-4Zm47.5-220.5Q490-519 490-540t-14.5-35.5Q461-590 440-590t-35.5 14.5Q390-561 390-540t14.5 35.5Q419-490 440-490t35.5-14.5ZM440-120q-150 0-255-105T80-480q0-75 28.5-140.5t77-114q48.5-48.5 114-77T440-840q75 0 140.5 28.5t114 77q48.5 48.5 77 114T800-480v8l25-25q11-12 27.5-12t28.5 11q12 12 12 28.5T881-441l-93 93q-12 12-28 12t-28-12l-94-94q-12-12-11.5-28t12.5-28q12-11 28-11.5t28 11.5l25 25v-7q0-116-82-198t-198-82q-116 0-198 82t-82 198q1 116 82.5 198T440-200q47 0 88.5-14t76.5-40q14-10 30.5-10t27.5 11q12 12 12 29t-14 28q-46 36-102 56t-119 20Z"/>
</svg>
