<svg aria-hidden="true" viewBox="0 -960 960 960" fill="currentColor">
  <path d="M326.457-396.891q-37.783 0-64.392-26.609-26.609-26.609-26.609-64.391v-307.087q0-37.783 26.609-64.392 26.609-26.608 64.392-26.608h307.086q37.783 0 64.392 26.608 26.609 26.609 26.609 64.392v307.087q0 37.782-26.609 64.391-26.609 26.609-64.392 26.609H326.457Zm0-91h307.086v-307.087H326.457v307.087Zm307.086 252.435v-91.001h91.001v91.001h-91.001Zm-398.087 0v-91.001h91.001v91.001h-91.001ZM434.5-74.022v-91h91v91h-91ZM480-641.435ZM633.543-74.022v-91h91.001q0 37.783-26.609 64.392-26.609 26.608-64.392 26.608Zm-307.086 0q-37.783 0-64.392-26.608-26.609-26.609-26.609-64.392h91.001v91Z"/>
</svg>
