<svg aria-hidden="true" viewBox="0 -960 960 960" fill="currentColor">
  <path d="M480-240q-33 0-56.5-23.5T400-320v-320q0-33 23.5-56.5T480-720h320q33 0 56.5 23.5T880-640v320q0 33-23.5 56.5T800-240H480ZM251.5-651.5Q240-663 240-680t11.5-28.5Q263-720 280-720t28.5 11.5Q320-697 320-680t-11.5 28.5Q297-640 280-640t-28.5-11.5ZM120-640q-17 0-28.5-11.5T80-680q0-17 11.5-28.5T120-720q17 0 28.5 11.5T160-680q0 17-11.5 28.5T120-640Zm0 200q-17 0-28.5-11.5T80-480q0-17 11.5-28.5T120-520q17 0 28.5 11.5T160-480q0 17-11.5 28.5T120-440Zm0 200q-17 0-28.5-11.5T80-280q0-17 11.5-28.5T120-320q17 0 28.5 11.5T160-280q0 17-11.5 28.5T120-240Zm131.5-11.5Q240-263 240-280t11.5-28.5Q263-320 280-320t28.5 11.5Q320-297 320-280t-11.5 28.5Q297-240 280-240t-28.5-11.5Z"/>
</svg>
