<svg aria-hidden="true" viewBox="0 -960 960 960" fill="currentColor">
  <path d="M326.457-74.022q-37.783 0-64.392-26.608-26.609-26.609-26.609-64.392v-307.087q0-37.782 26.609-64.391 26.609-26.609 64.392-26.609h307.086q37.783 0 64.392 26.609 26.609 26.609 26.609 64.391v307.087q0 37.783-26.609 64.392-26.609 26.608-64.392 26.608H326.457Zm-91.001-559.521v-91.001h91.001v91.001h-91.001Zm398.087 0v-91.001h91.001v91.001h-91.001ZM434.5-794.978v-91h91v91h-91Zm-199.044 0q0-37.783 26.609-64.392 26.609-26.608 64.392-26.608v91h-91.001Zm398.087 0v-91q37.783 0 64.392 26.608 26.609 26.609 26.609 64.392h-91.001Z"/>
</svg>
