<svg aria-hidden="true" viewBox="0 -960 960 960" fill="currentColor">
  <path d="M320-80q-33 0-56.5-23.5T240-160v-320q0-33 23.5-56.5T320-560h320q33 0 56.5 23.5T720-480v320q0 33-23.5 56.5T640-80H320Zm320-400H320v320h320v-320Zm11.5-171.5Q640-663 640-680t11.5-28.5Q663-720 680-720t28.5 11.5Q720-697 720-680t-11.5 28.5Q697-640 680-640t-28.5-11.5Zm0-160Q640-823 640-840t11.5-28.5Q663-880 680-880t28.5 11.5Q720-857 720-840t-11.5 28.5Q697-800 680-800t-28.5-11.5Zm-200 0Q440-823 440-840t11.5-28.5Q463-880 480-880t28.5 11.5Q520-857 520-840t-11.5 28.5Q497-800 480-800t-28.5-11.5Zm-200 0Q240-823 240-840t11.5-28.5Q263-880 280-880t28.5 11.5Q320-857 320-840t-11.5 28.5Q297-800 280-800t-28.5-11.5Zm0 160Q240-663 240-680t11.5-28.5Q263-720 280-720t28.5 11.5Q320-697 320-680t-11.5 28.5Q297-640 280-640t-28.5-11.5ZM480-320Z"/>
</svg>
