<svg aria-hidden="true" viewBox="0 -960 960 960" fill="currentColor">
  <path d="M396.891-633.543q0-37.783 26.609-64.392 26.609-26.609 64.391-26.609h307.087q37.783 0 64.392 26.609 26.608 26.609 26.608 64.392v307.086q0 37.783-26.608 64.392-26.609 26.609-64.392 26.609H487.891q-37.782 0-64.391-26.609-26.609-26.609-26.609-64.392v-307.086ZM235.456-235.456v-91.001h91.001v91.001h-91.001Zm0-398.087v-91.001h91.001v91.001h-91.001ZM74.022-434.5v-91h91v91h-91Zm0 108.043h91v91.001q-37.783 0-64.392-26.609-26.608-26.609-26.608-64.392Zm0-307.086q0-37.783 26.608-64.392 26.609-26.609 64.392-26.609v91.001h-91Z"/>
</svg>
