<svg aria-hidden="true" viewBox="0 -960 960 960" fill="currentColor">
  <path d="M320-400q-33 0-56.5-23.5T240-480v-320q0-33 23.5-56.5T320-880h320q33 0 56.5 23.5T720-800v320q0 33-23.5 56.5T640-400H320Zm-68.5 148.5Q240-263 240-280t11.5-28.5Q263-320 280-320t28.5 11.5Q320-297 320-280t-11.5 28.5Q297-240 280-240t-28.5-11.5Zm0 160Q240-103 240-120t11.5-28.5Q263-160 280-160t28.5 11.5Q320-137 320-120t-11.5 28.5Q297-80 280-80t-28.5-11.5Zm200 0Q440-103 440-120t11.5-28.5Q463-160 480-160t28.5 11.5Q520-137 520-120t-11.5 28.5Q497-80 480-80t-28.5-11.5Zm200 0Q640-103 640-120t11.5-28.5Q663-160 680-160t28.5 11.5Q720-137 720-120t-11.5 28.5Q697-80 680-80t-28.5-11.5Zm0-160Q640-263 640-280t11.5-28.5Q663-320 680-320t28.5 11.5Q720-297 720-280t-11.5 28.5Q697-240 680-240t-28.5-11.5Z"/>
</svg>
