<svg aria-hidden="true" viewBox="0 -960 960 960" fill="currentColor">
  <path d="m823-344 37-39-37-37-38 38 38 38Zm-4 88L696-378l85-85q9-9 20-13t22-4q12 0 23 4.5t20 13.5l37 37q9 9 13 20t4 22q0 11-4 22.5T903-340l-84 84Zm2.5 214Q805-42 793-54l-88-88-10 10q-6 6-13.5 9t-15.5 3h-66q-17 0-28.5-11.5T560-160v-66q0-8 3-15.5t9-13.5l10-9L53-793q-12-12-12-28.5T53-850q12-12 28.5-12t28.5 12l740 740q12 12 12 28t-12 28q-12 12-28.5 12ZM160-160q-33 0-56.5-23.5T80-240v-480q0-33 23.5-56.5T160-800l422 422-79 79q-11 11-17 25.5t-6 30.5v43q0 17-11.5 28.5T440-160H160Zm479-275L274-800h80l64 130q7 14 20 22t28 8q30 0 46.5-25.5T515-718l-41-82h90l65 130q7 14 20 22t28 8q30 0 46-25.5t2-52.5l-41-82h116q33 0 56.5 23.5T880-720v128q0 17-13 27.5t-30 7.5q-10-1-20-1t-20 2q-20 3-39 12t-34 24l-85 85Z"/>
</svg>
