<svg aria-hidden="true" viewBox="0 -960 960 960" fill="currentColor">
  <path d="M106.326-265.37Q93.891-277.565 94.011-296q.12-18.435 12.315-30.63l183.761-184q36.196-36.196 87.63-36.196 51.435 0 87.631 36.196l46 46q11.043 11.043 25.869 11.043t25.87-11.043l171.782-171.783h-54.152q-18.434 0-31.011-12.576Q637.13-661.565 637.13-680t12.576-31.011q12.577-12.576 31.011-12.576h158.087q19.153 0 32.326 13.174 13.174 13.174 13.174 32.326V-520q0 18.435-12.576 31.011t-31.011 12.576q-18.434 0-31.011-12.576Q797.13-501.565 797.13-520v-54.152L624.348-402.37q-36.196 36.196-87.631 36.196-51.434 0-87.63-36.196l-47-47q-10.044-10.043-25.25-10.043-15.207 0-25.25 10.043l-184 184q-12.196 12.196-30.63 12.196-18.435 0-30.631-12.196Z"/>
</svg>
