<svg aria-hidden="true" viewBox="0 -960 960 960" fill="currentColor">
  <path d="M162.87-191.869q-37.783 0-64.392-26.37-26.609-26.37-26.609-63.913V-757.13q0-37.783 26.61-64.392 26.608-26.609 64.391-26.609l80 160h120l-80-160h80l80 160h120l-80-160h80l80 160h120l-80-160h114.26q37.783 0 64.392 26.609 26.609 26.609 26.609 64.392v160H162.87v314.26h311.391v91.001H162.87Zm602.413-265.392 94.13 92.609-198.348 199.109q-6.717 6.717-15.054 10.195-8.337 3.479-17.533 3.479H577.13q-9.147 0-16.008-6.861-6.861-6.861-6.861-16.009v-51.348q0-9.196 3.739-17.913t9.696-14.674l197.587-198.587Zm123.13 64.37-93.37-93.37 28.24-28.239q13.674-13.674 32.706-13.674 19.033 0 31.946 13.674l28.717 29.478q12.913 13.594 12.913 32.286 0 18.693-12.913 31.606l-28.239 28.239Z"/>
</svg>
