<svg aria-hidden="true" viewBox="0 -960 960 960" fill="currentColor">
  <path d="M162.87-191.869q-37.783 0-64.392-26.37-26.609-26.37-26.609-63.913V-757.13q0-37.783 26.61-64.392 26.608-26.609 64.391-26.609l80 160h120l-80-160h80l80 160h120l-80-160h80l80 160h120l-80-160h114.26q37.783 0 64.392 26.609 26.609 26.609 26.609 64.392v160H162.87v314.26h314.26v91.001H162.87Zm561.717-261.153 47.304 47.066-148.782 147.799v40.309h40.317L812.217-365.63l46.305 46.304-154.261 154.022q-6.683 6.717-15.037 10.076-8.354 3.359-17.55 3.359H580q-9.148 0-16.009-6.861-6.861-6.861-6.861-16.009v-91.674q0-9.196 3.359-17.55 3.359-8.354 10.076-15.037l154.022-154.022Zm133.935 133.696L724.587-453.022l58.239-58.239q12.913-12.913 32.065-12.913 19.152 0 31.826 12.913l69.805 69.805q12.913 12.674 12.913 31.826t-12.913 32.065l-58 58.239Z"/>
</svg>
