<svg aria-hidden="true" viewBox="0 -960 960 960" fill="currentColor">
  <path d="M320-760v-40q0-33 23.5-56.5T400-880h160q33 0 56.5 23.5T640-800v40h120q33 0 56.5 23.5T840-680v40H120v-40q0-33 23.5-56.5T200-760h120ZM200-120q-33 0-56.5-23.5T120-200v-360h160v80q0 33 23.5 56.5T360-400h240q33 0 56.5-23.5T680-480v-80h160v360q0 33-23.5 56.5T760-120H200Zm148.5-131.5Q360-263 360-280t-11.5-28.5Q337-320 320-320t-28.5 11.5Q280-297 280-280t11.5 28.5Q303-240 320-240t28.5-11.5Zm160 0Q520-263 520-280t-11.5-28.5Q497-320 480-320t-28.5 11.5Q440-297 440-280t11.5 28.5Q463-240 480-240t28.5-11.5Zm160 0Q680-263 680-280t-11.5-28.5Q657-320 640-320t-28.5 11.5Q600-297 600-280t11.5 28.5Q623-240 640-240t28.5-11.5ZM360-480v-80h240v80H360Zm40-280h160v-40H400v40Z"/>
</svg>
