<svg aria-hidden="true" viewBox="0 -960 960 960" fill="currentColor">
  <path d="M486-560q-71-40-112-112-4-7-5.5-13.5T367-700q0-8 1.5-14.5T374-728q40-72 111.5-112T640-880q83 0 154 40t112 112q4 7 5.5 13.5T913-700q0 8-1.5 14.5T906-672q-40 72-111.5 112T640-520q-83 0-154-40Zm225-69q29-29 29-71t-29-71q-29-29-71-29t-71 29q-29 29-29 71t29 71q29 29 71 29t71-29Zm-113.5-28.5Q580-675 580-700t17.5-42.5Q615-760 640-760t42.5 17.5Q700-725 700-700t-17.5 42.5Q665-640 640-640t-42.5-17.5ZM313-40q-24 0-46-9t-39-26L52-252q-11-11-11.5-27.5T51-308l6-6q14-14 34-19t40 0l69 20v-327q0-17 11.5-28.5T240-680q17 0 28.5 11.5T280-640v280h40v-120q0-17 11.5-28.5T360-520q17 0 28.5 11.5T400-480v120h40v-80q0-17 11.5-28.5T480-480q17 0 28.5 11.5T520-440v80h40q0-17 11.5-28.5T600-400q17 0 28.5 11.5T640-360v160q0 66-47 113T480-40H313Z"/>
</svg>
