<svg aria-hidden="true" viewBox="0 -960 960 960" fill="currentColor">
  <path d="M379-466 164-251q-12 12-28.5 11.5T107-252q-11-12-11.5-28t11.5-28l244-244q12-12 28-12t28 12l132 132 116-130q-51-60-120-95t-152-35q-60 0-115 19t-101 54q-15 11-32.5 10.5T107-611q-11-15-7.5-32.5T118-672q57-42 124-65t141-23q98 0 181 39.5T709-610l85-97q12-14 29.5-13.5T853-709q11 11 11.5 27T854-654l-95 108q28 44 46.5 94T833-346q3 18-7 32t-30 14q-19 0-29-10t-15-31q-8-38-20.5-73.5T701-482L571-336q-11 13-28.5 13.5T513-334L379-466Z"/>
</svg>
