<svg aria-hidden="true" viewBox="0 -960 960 960" fill="currentColor">
  <path d="M379-457.869 168.304-247.413q-13.434 13.435-32.206 13.054-18.772-.38-32.207-13.815Q91.217-261.609 90.837-280q-.38-18.391 13.054-31.826l243.283-243.283q13.435-13.435 31.826-13.435t31.826 13.435l127.696 127.696 112.891-126.652q-51-59.044-118.924-92.489Q464.565-680 383.478-680q-58.565 0-112.608 18.283-54.044 18.282-99.566 51.847-16.913 11.957-36.684 11.337-19.772-.619-31.207-16.293-13.152-18.109-8.098-37.881 5.055-19.772 22.685-32.206 57-41.044 124-63.566Q309-771 383.478-771q98.479 0 182.794 39.38 84.315 39.381 146.793 109.902l74.239-84.804q13.435-15.435 33.087-15.174 19.652.261 33.326 12.935 12.674 12.435 13.294 30.587.619 18.152-11.815 31.826l-85.913 97.718q27.522 42.565 46.022 91.489 18.5 48.923 27.978 103.728 3.956 20.63-7.598 37.022Q824.131-300 801.978-300q-21.63 0-33.304-10.837-11.674-10.837-17.391-35.185-7.522-35.369-19.185-68.478-11.663-33.109-28.228-62.478L574.826-331.935q-12.674 14.674-32.565 15.294-19.891.619-33.565-13.055L379-457.869Z"/>
</svg>
