<svg aria-hidden="true" viewBox="0 -960 960 960" fill="currentColor">
  <path d="M320-760v-40q0-33 23.5-56.5T400-880h160q33 0 56.5 23.5T640-800v40h120q33 0 56.5 23.5T840-680v480q0 33-23.5 56.5T760-120H200q-33 0-56.5-23.5T120-200v-480q0-33 23.5-56.5T200-760h120ZM200-200h560v-360h-80v80q0 33-23.5 56.5T600-400H360q-33 0-56.5-23.5T280-480v-80h-80v360Zm91.5-51.5Q280-263 280-280t11.5-28.5Q303-320 320-320t28.5 11.5Q360-297 360-280t-11.5 28.5Q337-240 320-240t-28.5-11.5Zm160 0Q440-263 440-280t11.5-28.5Q463-320 480-320t28.5 11.5Q520-297 520-280t-11.5 28.5Q497-240 480-240t-28.5-11.5Zm160 0Q600-263 600-280t11.5-28.5Q623-320 640-320t28.5 11.5Q680-297 680-280t-11.5 28.5Q657-240 640-240t-28.5-11.5ZM360-480h240v-80H360v80ZM200-640h560v-40H200v40Zm200-120h160v-40H400v40Z"/>
</svg>
