<svg aria-hidden="true" viewBox="0 -960 960 960" fill="currentColor">
  <path d="m760.174-82.804-677.37-677.37q-11.717-11.717-11.717-29.315t11.717-29.315Q94.522-830.522 112-830.522t29.196 11.718l677.608 677.608q11.718 11.718 11.718 29.196t-11.718 29.196q-11.717 11.717-29.315 11.717t-29.315-11.717ZM565.5-513.283l-91-91v-153.804q0-37.543 26.728-64.272 26.729-26.728 64.272-26.728h80q35.391 0 60.446 25.054Q731-798.978 731-763.587t-25.054 60.446q-25.055 25.054-60.446 25.054h-80v164.804ZM400-110.913q-68.152 0-116.826-48.674Q234.5-208.261 234.5-276.413q0-68.152 48.674-116.826Q331.848-441.913 400-441.913q21.326 0 39.391 4.783 18.065 4.782 35.109 14.347V-485.5l91 91v118.087q0 68.152-48.674 116.826Q468.152-110.913 400-110.913Z"/>
</svg>
