<svg aria-hidden="true" viewBox="0 -960 960 960" fill="currentColor">
  <path d="M349-309q-29-29-29-71t29-71q29-29 71-29 17 0 32 5t28 15v-200q0-8 6-14t14-6h120q8 0 14 6t6 14v40q0 8-6 14t-14 6H520v220q0 42-29 71t-71 29q-42 0-71-29Zm499.5-15Q817-251 763-197t-127 85.5Q563-80 480-80q-76 0-144.5-27t-122-74.5Q160-229 126-293.5T83-434q-2-19 9-29.5t26-12.5q15-2 29 6.5t16 29.5q15 121 105.5 201T480-159q134 0 227-93t93-227q0-134-93-227t-227-93q-89 0-161.5 43.5T204-640h76q17 0 28.5 11.5T320-600q0 17-11.5 28.5T280-560H120q-17 0-28.5-11.5T80-600v-160q0-17 11.5-28.5T120-800q17 0 28.5 11.5T160-760v40q55-73 138-116.5T480-880q83 0 156 31.5T763-763q54 54 85.5 127T880-480q0 83-31.5 156Z"/>
</svg>
