<svg aria-hidden="true" viewBox="0 -960 960 960" fill="currentColor">
  <path d="M367-167q-47-47-47-113t47-113q47-47 113-47 23 0 42.5 5.5T560-418v-382q0-17 11.5-28.5T600-840h160q17 0 28.5 11.5T800-800v80q0 17-11.5 28.5T760-680H640v400q0 66-47 113t-113 47q-66 0-113-47Zm-87-473h-80q-17 0-28.5-11.5T160-680q0-17 11.5-28.5T200-720h80v-80q0-17 11.5-28.5T320-840q17 0 28.5 11.5T360-800v80h80q17 0 28.5 11.5T480-680q0 17-11.5 28.5T440-640h-80v80q0 17-11.5 28.5T320-520q-17 0-28.5-11.5T280-560v-80Z"/>
</svg>
