<svg aria-hidden="true" viewBox="0 -960 960 960" fill="currentColor">
  <path d="M440-82v-40q-125-14-214.5-103.5T122-440H82q-17 0-28.5-11.5T42-480q0-17 11.5-28.5T82-520h40q14-125 103.5-214.5T440-838v-40q0-17 11.5-28.5T480-918q17 0 28.5 11.5T520-878v40q125 14 214.5 103.5T838-520h40q17 0 28.5 11.5T918-480q0 17-11.5 28.5T878-440h-40q-14 125-103.5 214.5T520-122v40q0 17-11.5 28.5T480-42q-17 0-28.5-11.5T440-82Zm238-200q82-82 82-198t-82-198q-82-82-198-82t-198 82q-82 82-82 198t82 198q82 82 198 82t198-82Zm-311-85q-47-47-47-113t47-113q47-47 113-47t113 47q47 47 47 113t-47 113q-47 47-113 47t-113-47Z"/>
</svg>
