<svg aria-hidden="true" viewBox="0 -960 960 960" fill="currentColor">
  <path d="m752-320-72-72 88-88-288-288-88 88-72-72 102-102q12-12 27-18.5t31-6.5q16 0 30.5 6t26.5 18l319 319q24 23 24 55.5T856-424L752-320ZM642-208 536-104q-12 11-26.5 17T480-81q-15 0-29.5-5.5T424-104L105-423q-12-12-18-26.5T81-479q0-15 6-29.5t18-26.5l103-104L84-764q-11-11-11.5-27.5T84-820q11-11 28-11t28 11l681 681q11 11 11 27t-11 27q-11 11-27.5 11T766-85L642-208ZM193-479l287 287 90-88-57-57-5 5q-12 12-28 12t-28-12L333-451q-12-12-12-28t12-28l5-5-56-56-89 89Zm431 31L448-624l4-4q12-12 28-12t28 12l120 120q12 12 12 28t-12 28l-4 4Z"/>
</svg>
