<svg aria-hidden="true" viewBox="0 -960 960 960" fill="currentColor">
  <path d="M840-240q-17 0-28.5-11.5T800-280v-240q0-17 11.5-28.5T840-560q17 0 28.5 11.5T880-520v240q0 17-11.5 28.5T840-240Zm0 160q-17 0-28.5-11.5T800-120q0-17 11.5-28.5T840-160q17 0 28.5 11.5T880-120q0 17-11.5 28.5T840-80Zm-360 0q-15 0-29.5-6T424-104L104-424q-12-12-18-26.5T80-480q0-15 6-29.5t18-26.5l320-320q12-12 26.5-18t29.5-6q15 0 29.5 6t26.5 18l184 184v144L480-768 192-480l288 288 240-240v144L536-104q-12 12-26.5 18T480-80Zm-28-252L332-452q-12-12-12-28t12-28l120-120q12-12 28-12t28 12l120 120q12 12 12 28t-12 28L508-332q-12 12-28 12t-28-12Z"/>
</svg>
