<svg aria-hidden="true" viewBox="0 -960 960 960" fill="currentColor">
  <path d="M314.5-268.521q-102.391 0-173.946-72.153Q69-412.826 69-515.456v-87.414q0-103.108 71.315-175.858 71.315-72.751 174.185-72.751 52.391 0 88.946 37.153Q440-777.174 440-724.304q0 52.391-36.554 88.945-36.555 36.555-88.946 36.555v77.608q52.152 0 88.587 36.555 36.435 36.554 36.913 88.945v240q0 19.153-13.174 32.327T394.5-110.195q-19.152 0-32.326-13.174T349-155.696v-118.391q-8.805 3.283-16.87 4.424-8.065 1.142-17.63 1.142Zm331 0q-9.565 0-17.63-1.142-8.065-1.141-16.87-4.424v118.391q0 9.196-3.478 17.653-3.478 8.456-9.696 14.674-6.217 6.217-14.674 9.695-8.456 3.479-17.652 3.479-19.152 0-32.326-13.174T520-155.696v-240q.478-52.391 36.913-88.945 36.435-36.555 88.587-36.555v-77.608q-52.391 0-88.946-36.555Q520-671.913 520-724.304q0-52.87 36.554-90.022 36.555-37.153 88.946-37.153 102.87 0 174.185 72.751Q891-705.978 891-602.87v87.414q0 102.63-71.554 174.782-71.555 72.153-173.946 72.153Z"/>
</svg>
