<svg aria-hidden="true" viewBox="0 -960 960 960" fill="currentColor">
  <path d="M120-680q-17 0-28.5-11.5T80-720v-40q0-17 11.5-28.5T120-800q17 0 28.5 11.5T160-760v40q0 17-11.5 28.5T120-680Zm0 520q-17 0-28.5-11.5T80-200v-40q0-17 11.5-28.5T120-280q17 0 28.5 11.5T160-240v40q0 17-11.5 28.5T120-160Zm142-462q-12-12-12.5-28t11.5-28l29-29q12-12 28.5-11.5T347-706q12 12 12 28.5T347-649l-29 28q-12 12-28 11.5T262-622Zm28 368-29-28q-12-12-11.5-28.5T262-339q12-12 28.5-12t28.5 12l28 29q12 12 12 28t-12 28q-12 12-28.5 12T290-254Zm70-186q-17 0-28.5-11.5T320-480q0-17 11.5-28.5T360-520h200l-48-64q-10-14-8-30t16-26q14-10 30-8t26 16l96 128q15 20 4 42t-36 22H360Zm460 240q-25 0-42.5-17.5T760-260v-440q0-25 17.5-42.5T820-760q25 0 42.5 17.5T880-700v440q0 25-17.5 42.5T820-200ZM80-320v-80q33 0 56.5-23.5T160-480q0-33-23.5-56.5T80-560v-80q66 0 113 47t47 113q0 66-47 113T80-320Z"/>
</svg>
