<svg aria-hidden="true" viewBox="0 -960 960 960" fill="currentColor">
  <path d="M480-80q-83 0-141.5-58.5T280-280v-400q0-83 58.5-141.5T480-880q83 0 141.5 58.5T680-680v200H560q-33 0-56.5 23.5T480-400q-33 0-56.5 23.5T400-320q0 32 23.5 55t56.5 25v160Zm80 0v-23q0-52 50-75t110-23q60 0 110 23t50 75v23H560Zm103.5-183.5Q640-287 640-320t23.5-56.5Q687-400 720-400t56.5 23.5Q800-353 800-320t-23.5 56.5Q753-240 720-240t-56.5-23.5Zm-212-28Q440-303 440-320t11.5-28.5Q463-360 480-360t28.5 11.5Q520-337 520-320t-11.5 28.5Q497-280 480-280t-28.5-11.5Zm85-292Q560-607 560-640t-23.5-56.5Q513-720 480-720t-56.5 23.5Q400-673 400-640t23.5 56.5Q447-560 480-560t56.5-23.5Z"/>
</svg>
