<svg aria-hidden="true" viewBox="0 -960 960 960" fill="currentColor">
  <path d="M522.5-297.5Q540-315 540-340t-17.5-42.5Q505-400 480-400t-42.5 17.5Q420-365 420-340t17.5 42.5Q455-280 480-280t42.5-17.5ZM360-80q-77 0-124-40t-73-100q-26-61-34.5-130T120-479q0-102 15.5-176.5T192-781q41-50 110-74.5T480-880q109 0 178 24.5T768-781q41 51 56.5 125.5T840-479q0 60-8.5 129T797-220q-26 60-73 100T600-80H360Zm-1-80h240q54 0 85-35t48-86q17-51 22-105.5t5-92.5q0-85-10-145.5T708-724q-30-39-84.5-57.5T479-800q-90 0-144.5 18.5T250-724q-31 39-41 99.5T199-479q0 38 5 92.5T226-281q17 51 48 86t85 35Zm120-320Z"/>
</svg>
