<svg aria-hidden="true" viewBox="0 -960 960 960" fill="currentColor">
  <path d="M360-80q-33 0-56.5-23.5T280-160h160v-163q-104-15-172-93.5T200-600q0-117 81.5-198.5T480-880q117 0 198.5 81.5T760-600q0 105-68 183.5T520-323v163h160q0 33-23.5 56.5T600-80H360Zm261.5-378.5Q680-517 680-600t-58.5-141.5Q563-800 480-800t-141.5 58.5Q280-683 280-600t58.5 141.5Q397-400 480-400t141.5-58.5Zm-198-85Q400-567 400-600t23.5-56.5Q447-680 480-680t56.5 23.5Q560-633 560-600t-23.5 56.5Q513-520 480-520t-56.5-23.5Z"/>
</svg>
