<svg aria-hidden="true" viewBox="0 -960 960 960" fill="currentColor">
  <path d="M328.5-411.5Q340-423 340-440t-11.5-28.5Q317-480 300-480t-28.5 11.5Q260-457 260-440t11.5 28.5Q283-400 300-400t28.5-11.5ZM420-400q17 0 28.5-11.5T460-440q0-17-11.5-28.5T420-480q-17 0-28.5 11.5T380-440q0 17 11.5 28.5T420-400Zm120 0q17 0 28.5-11.5T580-440q0-17-11.5-28.5T540-480q-17 0-28.5 11.5T500-440q0 17 11.5 28.5T540-400Zm148.5-11.5Q700-423 700-440t-11.5-28.5Q677-480 660-480t-28.5 11.5Q620-457 620-440t11.5 28.5Q643-400 660-400t28.5-11.5Zm-349 303q-65.5-28.5-114-77t-77-114Q120-365 120-440q0-138 91.5-240.5T440-798v-122q0-17 11.5-28.5T480-960q17 0 28.5 11.5T520-920v122q137 15 228.5 117.5T840-440q0 75-28.5 140.5t-77 114q-48.5 48.5-114 77T480-80q-75 0-140.5-28.5Zm339-133Q760-323 760-440t-81.5-198.5Q597-720 480-720t-198.5 81.5Q200-557 200-440t81.5 198.5Q363-160 480-160t198.5-81.5ZM480-440Z"/>
</svg>
