<svg aria-hidden="true" viewBox="0 -960 960 960" fill="currentColor">
  <path d="M423.5-543.5Q400-567 400-600t23.5-56.5Q447-680 480-680t56.5 23.5Q560-633 560-600t-23.5 56.5Q513-520 480-520t-56.5-23.5ZM280-80q0-33 23.5-56.5T360-160h80q0-63-30.5-117T326-366q-60-39-93-101t-33-133q0-117 81.5-198.5T480-880q117 0 198.5 81.5T760-600q0 72-34 134t-94 101q-53 34-82.5 88T520-160h80q33 0 56.5 23.5T680-80H280Zm341.5-378.5Q680-517 680-600t-58.5-141.5Q563-800 480-800t-141.5 58.5Q280-683 280-600t58.5 141.5Q397-400 480-400t141.5-58.5Z"/>
</svg>
