<svg aria-hidden="true" viewBox="0 -960 960 960" fill="currentColor">
  <path d="M777.5-497.5Q760-515 760-540v-240q0-25 17.5-42.5T820-840q25 0 42.5 17.5T880-780v240q0 25-17.5 42.5T820-480q-25 0-42.5-17.5ZM287-527q-47-47-47-113t47-113q47-47 113-47t113 47q47 47 47 113t-47 113q-47 47-113 47t-113-47ZM80-160v-112q0-34 17-62.5t47-43.5q60-30 124.5-46T400-440q67 0 131.5 16T656-378q30 15 47 43.5t17 62.5v112H80Zm80-80h480v-32q0-11-5-20t-15-14q-51-26-106.5-40T400-360q-58 0-113.5 14T180-306q-10 5-15 14t-5 20v32Zm296.5-343.5Q480-607 480-640t-23.5-56.5Q433-720 400-720t-56.5 23.5Q320-673 320-640t23.5 56.5Q367-560 400-560t56.5-23.5ZM400-640Zm0 400Z"/>
</svg>
