<svg aria-hidden="true" viewBox="0 -960 960 960" fill="currentColor">
  <path d="M480-440q17 0 28.5-11.5T520-480q0-17-11.5-28.5T480-520q-17 0-28.5 11.5T440-480q0 17 11.5 28.5T480-440Zm120 0q17 0 28.5-11.5T640-480q0-17-11.5-28.5T600-520q-17 0-28.5 11.5T560-480q0 17 11.5 28.5T600-440Zm-240 0q17 0 28.5-11.5T400-480q0-17-11.5-28.5T360-520q-17 0-28.5 11.5T320-480q0 17 11.5 28.5T360-440Zm120 120q17 0 28.5-11.5T520-360q0-17-11.5-28.5T480-400q-17 0-28.5 11.5T440-360q0 17 11.5 28.5T480-320Zm120 0q17 0 28.5-11.5T640-360q0-17-11.5-28.5T600-400q-17 0-28.5 11.5T560-360q0 17 11.5 28.5T600-320Zm-240 0q17 0 28.5-11.5T400-360q0-17-11.5-28.5T360-400q-17 0-28.5 11.5T320-360q0 17 11.5 28.5T360-320Zm120-240q17 0 28.5-11.5T520-600q0-17-11.5-28.5T480-640q-17 0-28.5 11.5T440-600q0 17 11.5 28.5T480-560Zm120 0q17 0 28.5-11.5T640-600q0-17-11.5-28.5T600-640q-17 0-28.5 11.5T560-600q0 17 11.5 28.5T600-560Zm-240 0q17 0 28.5-11.5T400-600q0-17-11.5-28.5T360-640q-17 0-28.5 11.5T320-600q0 17 11.5 28.5T360-560Zm-36 448.5Q251-143 197-197t-85.5-127Q80-397 80-480t31.5-156Q143-709 197-763t127-85.5Q397-880 480-880t156 31.5Q709-817 763-763t85.5 127Q880-563 880-480t-31.5 156Q817-251 763-197t-127 85.5Q563-80 480-80t-156-31.5Z"/>
</svg>
