<svg aria-hidden="true" viewBox="0 -960 960 960" fill="currentColor">
  <path d="M663.5-263.5Q640-287 640-320t23.5-56.5Q687-400 720-400t56.5 23.5Q800-353 800-320t-23.5 56.5Q753-240 720-240t-56.5-23.5ZM560-80v-23q0-44 44-70.5T720-200q72 0 116 26.5t44 70.5v23H560Zm-23.5-503.5Q560-607 560-640t-23.5-56.5Q513-720 480-720t-56.5 23.5Q400-673 400-640t23.5 56.5Q447-560 480-560t56.5-23.5ZM480-480Zm-80 160q0 33 23.5 56.5T480-240q33 0 56.5-23.5T560-320q0-33-23.5-56.5T480-400q-33 0-56.5 23.5T400-320Zm51.5 28.5Q440-303 440-320t11.5-28.5Q463-360 480-360t28.5 11.5Q520-337 520-320t-11.5 28.5Q497-280 480-280t-28.5-11.5ZM280-680q0-85 57.5-142.5T480-880q85 0 142.5 57.5T680-680v160q0 17-11.5 28.5T640-480q-17 0-28.5-11.5T600-520v-160q0-51-36-85.5T480-800q-48 0-84 34.5T360-680v400q0 42 27 75t66 42q14 3 23.5 14t9.5 25q0 20-15 32t-35 7q-68-15-112-68.5T280-280v-400Z"/>
</svg>
