<svg aria-hidden="true" viewBox="0 -960 960 960" fill="currentColor">
  <path d="M320-120q-83 0-141.5-58.5T120-320v-320q0-83 58.5-141.5T320-840h320q83 0 141.5 58.5T840-640v320q0 83-58.5 141.5T640-120H320Zm0-80h320q50 0 85-35t35-85v-320q0-50-35-85t-85-35H320q-50 0-85 35t-35 85v320q0 50 35 85t85 35Zm287.5-132.5Q660-385 660-460t-52.5-127.5Q555-640 480-640t-127.5 52.5Q300-535 300-460t52.5 127.5Q405-280 480-280t127.5-52.5ZM480-360q-42 0-71-29t-29-71q0-42 29-71t71-29q42 0 71 29t29 71q0 42-29 71t-71 29Zm0-300q17 0 28.5-11.5T520-700q0-17-11.5-28.5T480-740q-17 0-28.5 11.5T440-700q0 17 11.5 28.5T480-660Zm0 200Z"/>
</svg>
