<svg aria-hidden="true" viewBox="0 -960 960 960" fill="currentColor">
  <path d="M194.261-64.695q-37.783 0-64.392-26.61-26.609-26.608-26.609-64.391h186.935q-90.891-51.543-146.282-140.369-55.392-88.826-55.392-200.587 0-81.152 30.957-152.305 30.957-71.152 84.011-124.206 53.054-53.055 124.207-84.011Q398.848-888.131 480-888.131t152.304 30.957q71.153 30.956 124.207 84.011 53.054 53.054 84.011 124.206 30.957 71.153 30.957 152.305 0 111.761-55.392 200.587-55.391 88.826-146.282 140.369H856.74q0 37.783-26.609 64.392-26.609 26.609-64.392 26.609H194.261Zm91.282-296.001h158.935v-44.739h-90.13l-.761-1.761q16.891-16.891 30.033-29.532 13.141-12.642 21.858-21.359 18-18.478 27.62-36.478 9.619-18 9.619-37.957 0-29.391-21.695-50.587-21.696-21.195-58.174-21.195-39.478 0-57.652 21.597-18.174 21.598-22.37 35.468l44.261 17.913q1.239-3.913 8.717-16.196 7.479-12.282 26.044-12.282 20.608 0 25.348 11.304 4.739 11.304 4.739 15.5 0 9.196-4.196 18.772-4.196 9.576-20.391 26.815-9.479 10.239-33.142 33.304-23.663 23.066-48.663 47.587v43.826Zm289.892 5q46.913 0 73.967-36.054 27.055-36.054 27.055-88.25t-27.555-88.25q-27.554-36.054-73.467-36.054-46.913 0-73.848 36.054-26.935 36.054-26.935 88.25t26.935 88.25q26.935 36.054 73.848 36.054Zm0-46.739q-25.044 0-37.924-22.424Q524.63-447.283 524.63-480q0-25.435 11-51.5t39.805-26.065q28.804 0 39.924 26.065 11.119 26.065 11.119 51.5 0 32.717-12.88 55.141-12.881 22.424-38.163 22.424Z"/>
</svg>
