<svg aria-hidden="true" viewBox="0 -960 960 960" fill="currentColor">
  <path d="M367-167q-47-47-47-113t47-113q47-47 113-47t113 47q47 47 47 113t-47 113q-47 47-113 47t-113-47Zm169.5-56.5Q560-247 560-280t-23.5-56.5Q513-360 480-360t-56.5 23.5Q400-313 400-280t23.5 56.5Q447-200 480-200t56.5-23.5ZM480-760q-94 0-176.5 31T153-643q-14 11-31 11t-30-11q-12-11-12-28t13-28q78-66 177-103.5T480-840q111 0 210 37.5T867-698q13 11 12.5 27.5T867-643q-13 11-29.5 11T807-643q-68-55-150.5-86T480-760Zm0 200q-51 0-96.5 15T300-504q-14 10-31 9.5T239-507q-12-11-12-27t13-26q51-38 111.5-59T480-640q68 0 128 21t111 59q13 10 13.5 26T721-507q-12 12-29 12.5t-31-9.5q-38-26-84-41t-97-15Zm0 280Z"/>
</svg>
