<svg aria-hidden="true" viewBox="0 -960 960 960" fill="currentColor">
  <path d="m398-551-86 152q-5 8-2 16t11 13q8 4 15.5 2t12.5-10l95-168q1-2 3-10v-19q0-8-6.5-14t-14.5-6H312q-8 0-14 6t-6 14q0 8 6.5 14.5T313-554h83l2 3Zm246.5 156.5Q670-429 670-480t-26-85.5Q618-600 574-600q-45 0-70.5 34.5T478-480q0 51 25.5 85.5T574-360q45 0 70.5-34.5ZM574-401q-26 0-39-23.5T522-480q0-24 11-51.5t41-27.5q30 0 41 27.5t11 51.5q0 32-13 55.5T574-401ZM480-80q-83 0-156-31.5T197-197q-54-54-85.5-127T80-480q0-83 31.5-156T197-763q54-54 127-85.5T480-880q83 0 156 31.5T763-763q54 54 85.5 127T880-480q0 83-31.5 156T763-197q-54 54-127 85.5T480-80Zm0-80q134 0 227-93t93-227q0-134-93-227t-227-93q-134 0-227 93t-93 227q0 134 93 227t227 93Zm0-320Z"/>
</svg>
