<svg aria-hidden="true" viewBox="0 -960 960 960" fill="currentColor">
  <path d="M520-473v-127q0-17-11.5-28.5T480-640q-17 0-28.5 11.5T440-600v143q0 8 3 15.5t9 13.5l101 101q12 12 28.5 12t28.5-12q11-12 11-28.5T610-383l-90-90Zm-11.5-258.5Q520-743 520-760t-11.5-28.5Q497-800 480-800t-28.5 11.5Q440-777 440-760t11.5 28.5Q463-720 480-720t28.5-11.5Zm223 280Q743-440 760-440t28.5-11.5Q800-463 800-480t-11.5-28.5Q777-520 760-520t-28.5 11.5Q720-497 720-480t11.5 28.5Zm-280 223Q440-217 440-200t11.5 28.5Q463-160 480-160t28.5-11.5Q520-183 520-200t-11.5-28.5Q497-240 480-240t-28.5 11.5Zm-223-280Q217-520 200-520t-28.5 11.5Q160-497 160-480t11.5 28.5Q183-440 200-440t28.5-11.5Q240-463 240-480t-11.5-28.5ZM480-80q-83 0-156-31.5T197-197q-54-54-85.5-127T80-480q0-83 31.5-156T197-763q54-54 127-85.5T480-880q83 0 156 31.5T763-763q54 54 85.5 127T880-480q0 83-31.5 156T763-197q-54 54-127 85.5T480-80Z"/>
</svg>
