<svg aria-hidden="true" viewBox="0 -960 960 960" fill="currentColor">
  <path d="M479.283-162.87q20.043 0 39.347-2.641 19.305-2.641 38.348-7.402-18.565-27.522-28.728-59.685-10.163-32.163-10.163-65.967 0-18.522 3.141-35.783 3.142-17.261 8.142-34.022-26.24-14.956-40.479-44.293T474.652-480q0-52.196 26.935-88.25t73.848-36.054q38.239 0 63.815 25.26 25.576 25.261 33.772 65.544 17-5.761 34.88-8.641 17.881-2.881 36.881-2.881 12.608 0 24.597 1.261 11.99 1.261 23.837 5.304Q786.5-577.783 759-628.728q-27.5-50.946-69.522-88.511-42.022-37.565-95.826-58.728-53.804-21.163-114.369-21.163-65.522 0-123.424 24.76-57.902 24.761-101.044 67.903-43.141 43.141-67.902 101.043Q162.152-545.522 162.152-480t24.761 123.424q24.761 57.902 67.902 101.043 43.142 43.142 101.044 67.903 57.902 24.76 123.424 24.76Zm69.478-249.478q14.239-24 33.739-44.38 19.5-20.381 43.5-34.62-2.478-22.761-13.478-44.489-11-21.728-37.087-21.728-28.805 0-39.805 26.065t-11 51.5q0 22.043 5.783 39.848 5.783 17.804 18.348 27.804ZM744.783-71.869q-29.718 0-58.435-7.5-28.718-7.5-54.196-22.979-36.478 15.479-75.195 22.979-38.718 7.5-77.674 7.5-84.674 0-159.109-32.098t-129.631-87.294q-55.195-55.195-87.293-129.63Q71.152-395.326 71.152-480t32.098-159.109q32.098-74.435 87.293-129.63 55.196-55.196 129.631-87.294t159.109-32.098q85.195 0 160.271 32.62t130.653 88.598q55.576 55.978 87.032 131.456 31.457 75.479 30.174 160.674 39.674 32.718 61.87 78.511 22.196 45.794 22.196 97.707 0 94.63-66.033 160.663-66.033 66.033-160.663 66.033Zm0-91.001q56.326 0 96.011-39.684 39.684-39.685 39.684-96.011 0-56.326-39.684-95.891-39.685-39.566-96.011-39.566-56.326 0-96.011 39.566-39.685 39.565-39.685 95.891 0 56.326 39.685 96.011 39.685 39.684 96.011 39.684ZM337.565-355.217l-42.022-22.631 96.479-171.239-2-3h-104.24v-46.978h163.131v46.63L337.565-355.217Z"/>
</svg>
