<svg aria-hidden="true" viewBox="0 -960 960 960" fill="currentColor">
  <path d="M621.5-258.5Q680-317 680-400v-160q0-83-58.5-141.5T480-760q-83 0-141.5 58.5T280-560v160q0 83 58.5 141.5T480-200q83 0 141.5-58.5ZM395-315q-35-35-35-85v-160q0-50 35-85t85-35q50 0 85 35t35 85v160q0 50-35 85t-85 35q-50 0-85-35Zm113.5-256.5Q520-583 520-600t-11.5-28.5Q497-640 480-640t-28.5 11.5Q440-617 440-600t11.5 28.5Q463-560 480-560t28.5-11.5ZM200-40q-33 0-56.5-23.5T120-120v-720q0-33 23.5-56.5T200-920h560q33 0 56.5 23.5T840-840v720q0 33-23.5 56.5T760-40H200Z"/>
</svg>
