<svg aria-hidden="true" viewBox="0 -960 960 960" fill="currentColor">
  <path d="M285.543-360.696h158.935v-44.739h-90.13l-.761-1.761q16.891-16.891 30.033-29.532 13.141-12.642 21.858-21.359 18-18.478 27.62-36.478 9.619-18 9.619-37.957 0-29.391-21.695-50.587-21.696-21.195-58.174-21.195-39.478 0-57.652 21.597-18.174 21.598-22.37 35.468l44.261 17.913q1.239-3.913 8.717-16.196 7.479-12.282 26.044-12.282 20.608 0 25.348 11.304 4.739 11.304 4.739 15.5 0 9.196-4.196 18.772-4.196 9.576-20.391 26.815-9.479 10.239-33.142 33.304-23.663 23.066-48.663 47.587v43.826Zm289.892 5q46.913 0 73.967-36.054 27.055-36.054 27.055-88.25t-27.555-88.25q-27.554-36.054-73.467-36.054-46.913 0-73.848 36.054-26.935 36.054-26.935 88.25t26.935 88.25q26.935 36.054 73.848 36.054Zm0-46.739q-25.044 0-37.924-22.424Q524.63-447.283 524.63-480q0-25.435 11-51.5t39.805-26.065q28.804 0 39.924 26.065 11.119 26.065 11.119 51.5 0 32.717-12.88 55.141-12.881 22.424-38.163 22.424ZM480-71.869q-84.913 0-159.348-32.098-74.435-32.098-129.511-87.174-55.076-55.076-87.174-129.511Q71.869-395.087 71.869-480q0-84.913 32.098-159.348 32.098-74.435 87.174-129.511 55.076-55.076 129.511-87.174Q395.087-888.131 480-888.131q84.913 0 159.348 32.098 74.435 32.098 129.511 87.174 55.076 55.076 87.174 129.511Q888.131-564.913 888.131-480q0 84.913-32.098 159.348-32.098 74.435-87.174 129.511-55.076 55.076-129.511 87.174Q564.913-71.869 480-71.869Z"/>
</svg>
