<svg aria-hidden="true" viewBox="0 -960 960 960" fill="currentColor">
  <path d="M452-166q-30-11-44.5-40.5T404-268q5-14 37.5-79.5t72-145.5q39.5-80 77-155.5T644-756q5-8 12-10.5t16 .5q8 3 12 10t2 16q-8 35-28 117.5T616.5-453q-21.5 87-39 157.5T556-214q-12 32-42 46t-62 2Zm463-390q-17 17-40 17.5T834-552q-22-17-46-34t-50-30l28-121q41 20 76 42t70 51q21 17 21 43.5T915-556Zm-871 0q-19-19-17.5-45T48-644q87-73 198-114.5T480-800q24 0 47 2t47 5l-58 115q-12-2-19.5-2H480q-100 0-190 33t-165 95q-19 15-41.5 14T44-556Zm701 171q-14 15-33 16t-33-5l30-121q9 5 16 10t15 10q22 15 23 42.5T745-385Zm-530 0q-20-20-17.5-47t22.5-43q51-38 109.5-59T457-559l-65 132q-25 8-51 20.5T294-380q-21 14-42 12.5T215-385Z"/>
</svg>
