<svg aria-hidden="true" viewBox="0 -960 960 960" fill="currentColor">
  <path d="M121-121q-41-41-41-99t41-99q41-41 99-41 18 0 35 4.5t32 12.5l153-153v-110q-44-13-72-49.5T340-740q0-58 41-99t99-41q58 0 99 41t41 99q0 48-28 84.5T520-606v110l154 153q15-8 31.5-12.5T740-360q58 0 99 41t41 99q0 58-41 99t-99 41q-58 0-99-41t-41-99q0-18 4.5-35t12.5-32L480-424 343-287q8 15 12.5 32t4.5 35q0 58-41 99t-99 41q-58 0-99-41Zm661.5-56.5Q800-195 800-220t-17.5-42.5Q765-280 740-280t-42.5 17.5Q680-245 680-220t17.5 42.5Q715-160 740-160t42.5-17.5Zm-260-520Q540-715 540-740t-17.5-42.5Q505-800 480-800t-42.5 17.5Q420-765 420-740t17.5 42.5Q455-680 480-680t42.5-17.5Zm-260 520Q280-195 280-220t-17.5-42.5Q245-280 220-280t-42.5 17.5Q160-245 160-220t17.5 42.5Q195-160 220-160t42.5-17.5Z"/>
</svg>
