<svg aria-hidden="true" viewBox="0 -960 960 960" fill="currentColor">
  <path d="M368.652-349.413q23.566-17.043 52.272-26.326 28.706-9.283 59.076-9.283t59.076 9.283q28.706 9.283 52.272 26.326L830.13-596.087q-77.282-57.804-165.956-87.391Q575.5-713.065 480-713.065t-184.174 29.587q-88.674 29.587-165.956 87.391l238.782 246.674ZM480-122.891q-9.435 0-17.63-3.217-8.196-3.218-15.153-10.413L31.109-567.217Q17.913-581.13 18.413-600.38q.5-19.25 14.174-31.685 93.043-84.283 207.707-128.142Q354.957-804.065 480-804.065q126.043 0 240.587 43.858 114.543 43.859 206.826 128.142 13.674 12.435 14.174 31.685t-12.696 33.163L512.783-136.521q-6.957 7.195-15.153 10.413-8.195 3.217-17.63 3.217Z"/>
</svg>
