<svg aria-hidden="true" viewBox="0 -960 960 960" fill="currentColor">
  <path d="M450.087-163.13q-30.478-11.24-45.337-42.294-14.859-31.054-3.38-63.772 5-14 37.26-79.141Q470.891-413.478 510.511-493q39.619-79.522 77.239-154.543 37.62-75.022 53.62-107.022 5.239-8.718 12.836-12.055 7.598-3.337 17.794.142 8.957 3.478 13.196 10.956 4.239 7.479 2 17.435-8 35-27.761 117.261t-40.902 168.902q-21.142 86.641-38.403 157.022-17.26 70.38-21.5 81.619-12.956 33.435-44.63 47.794-31.674 14.359-63.913 2.359Zm462.761-390.479q-17.957 17.957-42.75 18.576-24.794.62-44.468-14.337-20.087-15.565-42.054-30.891Q761.609-595.587 738-607.63l29.435-128.892q39.565 19.044 74.087 40.924 34.521 21.881 68.565 49.924 21.717 17.478 21.837 45.174.119 27.696-19.076 46.891Zm-866.457 0q-19.956-19.956-18.576-47.271 1.38-27.316 22.098-44.794 87-72.522 197.283-113.424Q357.478-800 480-800q24 0 46.761 1.88 22.761 1.881 45.326 4.881l-62.065 122.174q-9.848-1.522-16.152-1.522H480q-97.37 0-185.456 31.924-88.087 31.924-160.935 91.293-20.435 15.957-44.848 14.718-24.413-1.239-42.37-18.957Zm696.696 170.522q-13.761 14.761-31.685 16.359-17.924 1.598-31.206-2.968l30.478-124.347q8.043 4.521 14.206 8.923 6.163 4.403 13.207 8.924 22.717 15.718 23.837 44.055 1.119 28.337-18.837 49.054Zm-525.935.239q-20.717-20.717-18.456-48.674 2.261-27.956 23.217-44.435 49.565-36.804 107.348-57.684 57.782-20.881 124.869-25.12l-70.978 143.24q-20.456 6.565-41.674 16.793-21.217 10.228-38.391 21.598-21.478 14.239-44.989 12.978-23.511-1.261-40.946-18.696Z"/>
</svg>
