<svg aria-hidden="true" viewBox="0 -960 960 960" fill="currentColor">
  <path d="M284.957-171h262.13q19.152 0 32.326 13.174t13.174 32.326q0 19.152-13.174 32.326T547.087-80H175.565q-30.632 0-42.544-27.848-11.912-27.848 9.718-49.478l659.935-659.935q21.63-21.63 49.478-9.718Q880-815.067 880-784.435V-525.5q0 19.152-13.174 32.326T834.5-480q-19.152 0-32.326-13.174T789-525.5v-149.543L284.957-171Zm421.63 91q-14 0-24-10t-10-24v-132q0-14 10-24t24-10h6v-40q0-33 23.5-56.5t56.5-23.5q33 0 56.5 23.5t23.5 56.5v40h6q14 0 24 10t10 24v132q0 14-10 24t-24 10h-172Zm46-200h80v-40q0-17-11.5-28.5t-28.5-11.5q-17 0-28.5 11.5t-11.5 28.5v40ZM537.478-422.522Z"/>
</svg>
