<svg aria-hidden="true" viewBox="0 -960 960 960" fill="currentColor">
  <path d="M120-160q-17 0-28.5-11.5T80-200q0-17 11.5-28.5T120-240h720q17 0 28.5 11.5T880-200q0 17-11.5 28.5T840-160H120Zm51.5-171.5Q160-343 160-360v-240q0-17 11.5-28.5T200-640q17 0 28.5 11.5T240-600v240q0 17-11.5 28.5T200-320q-17 0-28.5-11.5Zm160 0Q320-343 320-360v-400q0-17 11.5-28.5T360-800q17 0 28.5 11.5T400-760v400q0 17-11.5 28.5T360-320q-17 0-28.5-11.5Zm160 0Q480-343 480-360v-400q0-17 11.5-28.5T520-800q17 0 28.5 11.5T560-760v400q0 17-11.5 28.5T520-320q-17 0-28.5-11.5ZM795-340q-14 8-30.5 3.5T740-355L620-565q-8-14-3.5-30.5T635-620q14-8 30.5-3.5T690-605l120 210q8 14 3.5 30.5T795-340Z"/>
</svg>
