<svg aria-hidden="true" viewBox="0 -960 960 960" fill="currentColor">
  <path d="M165.5-110.913q-37.543 0-64.272-26.728Q74.5-164.37 74.5-201.913V-824.37q0-7.956 6.837-10.815 6.837-2.859 12.554 2.62l33.37 33.13q6.717 6.717 15.913 6.598 9.196-.12 15.913-6.837l35.13-35.891q6.718-6.718 15.913-6.718 9.196 0 15.913 6.718l35.892 35.891q6.717 6.717 15.913 6.717 9.195 0 15.913-6.717l35.891-35.891q6.718-6.718 15.913-6.718 9.196 0 15.913 6.718l35.131 35.891q6.717 6.717 15.913 6.598 9.195-.12 15.913-6.837l35.652-35.413q6.717-6.957 15.913-6.957 9.196 0 15.913 6.957l35.652 35.413q6.718 6.717 15.913 6.837 9.196.119 15.913-6.598l35.131-35.891q6.717-6.718 15.913-6.718 9.195 0 15.913 6.718l35.891 35.891q6.718 6.717 15.913 6.717 9.196 0 15.913-6.717l35.892-35.891q6.717-6.718 15.913-6.718 9.195 0 15.913 6.718l35.13 35.891q6.717 6.717 15.913 6.837 9.196.119 15.913-6.598l33.37-33.13q5.717-5.479 12.554-2.62 6.837 2.859 6.837 10.815v622.457q0 37.543-26.728 64.272-26.729 26.728-64.272 26.728h-629Zm0-91h270.913v-240H165.5v240Zm358.087 0H794.5v-76.174H523.587v76.174Zm0-163.587H794.5v-76.413H523.587v76.413ZM165.5-529.087h629v-112.826h-629v112.826Z"/>
</svg>
