<svg aria-hidden="true" viewBox="0 -960 960 960" fill="currentColor">
  <path d="M482-80q-33 0-63.5-4.5T356-100q21-11 37.5-28t28.5-38q8-13 13-32t5-42q0-63-37-106.5T300-400q-24-39-63-59.5T160-480q-21 0-41.5 4.5T80-462q-3-80 23.5-152T179-742q49-56 116-92t145-44q16-2 22.5 8t-.5 26q-42 93-34.5 189t53 175.5Q526-400 605-346t181 64q17 2 22.5 12.5T804-246q-57 80-141.5 123T482-80Zm-202-80H160q-50 0-85-34.5T40-280q0-50 35-85t85-35q39 0 69.5 22.5T272-320h8q33 0 56.5 23.5T360-240q0 33-23.5 56.5T280-160Z"/>
</svg>
