<svg aria-hidden="true" viewBox="0 -960 960 960" fill="currentColor">
  <path d="M255.935-147.565q-19.153 0-32.326-13.174-13.174-13.174-13.174-32.326t13.174-32.326q13.173-13.174 32.326-13.174h34.5v-166.457L95.978-696.804q-15.674-22.87-2.364-46.74 13.309-23.869 40.645-23.869h403.34q27.336 0 40.771 23.869 13.434 23.87-2.24 46.74L381.435-405.022v166.457h34.5q19.152 0 32.326 13.174t13.174 32.326q0 19.152-13.174 32.326t-32.326 13.174h-160Zm7-454.348h145.999l51.696-74.5H211.479l51.456 74.5Zm398.926 454.348q-53.057 0-90.209-37.152T534.5-274.978q0-53.109 37.152-90.142 37.152-37.032 90.174-37.032 9.546 0 18.572 1.261t17.771 5.543v-281.065q0-37.544 26.687-64.272 26.688-26.728 64.231-26.728h54.5q28.109 0 47.761 19.652T911-700q0 28.109-19.602 47.761-19.603 19.652-47.811 19.652H789.15v357.609q0 53.109-37.116 90.261-37.116 37.152-90.173 37.152Z"/>
</svg>
