<svg aria-hidden="true" viewBox="0 -960 960 960" fill="currentColor">
  <path d="M480.804-71.152q-33.956 0-65.532-4.74-31.576-4.738-63.576-15.977 24.587-12.435 43.239-31.827 18.652-19.391 30.652-44.217 7.283-13.478 11.804-31.761 4.522-18.283 4.522-40.326 0-62.043-35.565-104.587-35.565-42.543-99.413-53.5-23.761-41.152-63.837-62.489-40.076-21.337-80.946-21.337-25.543 0-49.033 5.935-23.489 5.935-41.967 16.848-3.478-77.848 21.946-151.044 25.423-73.196 74.782-131.587 49.359-58.391 119.109-96.783 69.75-38.391 154.924-46.869 20.305-2.239 28.718 10.63 8.413 12.87-.022 33.413-41.283 94.435-34.62 188.403Q442.652-559 486.957-482.25q44.304 76.75 121.869 128.717 77.565 51.968 179.087 62.924 21.783 2.718 28.957 16.565 7.174 13.848-5.218 30.435-58.434 82.392-144.728 127.424-86.294 45.033-186.12 45.033ZM280-158.087H160q-50.957 0-86.435-34.978T38.087-280q0-50.957 35.478-86.435T160-401.913q39.478 0 70.098 22.5 30.619 22.5 43.098 57.5H280q33.957 0 57.935 23.978T361.913-240q0 33.957-23.978 57.935T280-158.087Z"/>
</svg>
