<svg aria-hidden="true" viewBox="0 -960 960 960" fill="currentColor">
  <path d="M239.522-147.565q-19.152 0-32.326-13.174t-13.174-32.326q0-19.152 13.174-32.326t32.326-13.174h34.5v-166.457L79.565-696.804q-15.674-22.87-2.358-46.74 13.315-23.869 40.663-23.869h403.543q27.348 0 40.663 23.869 13.315 23.87-2.359 46.74L365.022-405.022v166.457h34.5q19.152 0 32.326 13.174t13.174 32.326q0 19.152-13.174 32.326t-32.326 13.174h-160Zm7-454.348h145.999l51.696-74.5H195.066l51.456 74.5ZM645.5-147.565q-53.109 0-90.261-37.152-37.152-37.152-37.152-90.261 0-53.109 37.152-90.142 37.152-37.032 90.261-37.032 9.565 0 18.609 1.261 9.043 1.261 17.804 5.543v-281.065q0-37.544 26.728-64.272 26.729-26.728 64.272-26.728h54.5q28.109 0 47.642 19.652 19.532 19.652 19.532 47.761t-19.532 47.761q-19.533 19.652-47.642 19.652h-54.5v357.609q0 53.109-37.152 90.261-37.152 37.152-90.261 37.152Z"/>
</svg>
