<svg aria-hidden="true" viewBox="0 -960 960 960" fill="currentColor">
  <path d="M555.696-71.87q-83.674 0-158.109-32.217T267.576-191.88Q212-247.456 179.902-321.891 147.804-396.326 147.804-480q0-84.435 32.098-158.489Q212-712.544 267.576-768.12q55.576-55.576 130.011-87.793 74.435-32.218 158.109-32.218 44.239 0 88.347 10.337 44.109 10.337 85.935 29.49 16.87 8.434 17.631 22.445.761 14.011-15.631 26.163-77.195 56.435-122.674 139.12Q563.826-577.891 563.826-480q0 97.891 45.478 180.576 45.479 82.685 122.674 139.12 16.392 11.913 15.631 26.043-.761 14.131-17.631 22.565-41.826 19.153-85.935 29.49-44.108 10.337-88.347 10.337Z"/>
</svg>
