<svg aria-hidden="true" viewBox="0 -960 960 960" fill="currentColor">
  <path d="M480.804-71.152q-33.956 0-65.532-4.74-31.576-4.738-63.576-15.977 24.587-12.435 43.239-31.827 18.652-19.391 30.652-44.217 14 3 28.467 4.38 14.468 1.381 29.468 1.381 50.369 0 99.934-16.163 49.566-16.163 85.522-47.207-86.239-29.478-152.761-84.5-66.521-55.021-108.304-127.565-41.783-72.543-56.424-157.826-14.641-85.283 1.881-174.283-88.044 34.153-139.392 116.783t-51.826 171q-25.543 0-49.033 5.935-23.489 5.935-41.967 16.848-3.478-77.848 21.946-151.044 25.423-73.196 74.782-131.587 49.359-58.391 119.109-96.783 69.75-38.391 154.924-46.869 20.305-2.239 28.718 10.63 8.413 12.87-.022 33.413-41.283 94.435-34.62 188.403Q442.652-559 486.957-482.25q44.304 76.75 121.869 128.717 77.565 51.968 179.087 62.924 21.783 2.718 28.957 16.565 7.174 13.848-5.218 30.435-58.434 82.392-144.728 127.424-86.294 45.033-186.12 45.033ZM280-158.087H160q-50.957 0-86.435-34.978t-35.478-86.944q0-50.948 35.526-86.426 35.527-35.478 86.279-35.478 39.586 0 70.206 22.5 30.619 22.5 43.098 57.5H280q33.957 0 57.935 23.978T361.913-240q0 33.957-23.978 57.935T280-158.087Zm135.565-307.717Z"/>
</svg>
