<svg aria-hidden="true" viewBox="0 -960 960 960" fill="currentColor">
  <path d="m660-413 140 140v-367q0-56-34-98t-86-56v-46q0-17-11.5-28.5T640-880h-40q-17 0-28.5 11.5T560-840v40H400v-40q0-17-11.5-28.5T360-880h-40q-17 0-28.5 11.5T280-840v46l313 314h27q17 0 28.5 11.5T660-440v27ZM763-84 663-184h112l25 24q0 33-23.5 56.5T720-80H240q-33 0-56.5-23.5T160-160v-480q0-33 12.5-62t34.5-51l39 39v113L84-763q-11-11-11-27.5T84-819q12-12 28.5-12t28.5 12l678 679q11 11 11.5 27.5T819-84q-11 11-28 11t-28-11ZM447-400l-80-80h-27q-17 0-28.5 11.5T300-440q0 17 11.5 28.5T340-400h107Z"/>
</svg>
