<svg aria-hidden="true" viewBox="0 -960 960 960" fill="currentColor">
  <path d="M280-114.5q-19.152 0-32.326-13.174T234.5-160q0-19.152 13.174-32.326T280-205.5h154.5v-188.522L334.129-510.914 74.913-770.652q-11.718-11.718-11.718-28.935 0-17.218 11.718-29.696 12.478-12.478 29.696-12.478 17.217 0 29.695 12.478l695.74 695.74q12.478 12.478 12.478 29.315 0 16.837-12.478 29.315-12.479 12.478-29.696 12.478-17.217 0-29.696-12.478L525.5-319.304V-205.5h152.87q19.152 0 31.826 13.174T722.87-160q0 19.152-13.174 32.326T677.37-114.5H280Zm-45.522-733.631h548.239q27.109 0 46.261 19.653 19.153 19.652 19.153 46.761 0 12.434-4.218 23.108-4.217 10.674-12.174 20.109L601.805-480.804 402.37-680h255.565l69.369-77.13H325.479l-91.001-91.001Z"/>
</svg>
