<svg aria-hidden="true" viewBox="0 -960 960 960" fill="currentColor">
  <path d="M800-274 434-640h166v-80q0-50-34.5-85T481-840q-50 0-84 34.5T363-720v9l-73-73q22-61 75-98.5T481-920q83 0 141 58.5T680-720v80h40q33 0 56.5 23.5T800-560v286ZM240-80q-33 0-56.5-23.5T160-160v-400q0-26 14.5-46.5T212-636L56-792q-11-11-11-28t11-28q11-11 28-11t28 11l736 736q11 11 11 28t-11 28q-11 11-28 11t-28-11l-34-34q-9 5-18 7.5T720-80H240Zm184-342q-11 11-17 25.5t-6 31.5q0 33 23.5 56.5T481-285q17 0 31.5-6t25.5-17L424-422Z"/>
</svg>
