<svg aria-hidden="true" viewBox="0 -960 960 960" fill="currentColor">
  <path d="m865-210-73-73 40-397H450l-4-35q-2-18 9.5-31.5T485-760h155v-120q0-17 11.5-28.5T680-920q17 0 28.5 11.5T720-880v120h156q18 0 30 13t10 31l-51 506ZM625-449ZM791-57 55-792q-12-12-12-28.5T55-849q12-12 28.5-12t28.5 12l736 736q12 12 12 28t-12 28q-12 12-28.5 12T791-57ZM80-200q-17 0-28.5-11.5T40-240q0-17 11.5-28.5T80-280h520q17 0 28.5 11.5T640-240q0 17-11.5 28.5T600-200H80Zm0 160q-17 0-28.5-11.5T40-80q0-17 11.5-28.5T80-120h520q17 0 28.5 11.5T640-80q0 17-11.5 28.5T600-40H80Zm282-559v80q-5 0-11-.5t-11-.5q-59 0-111.5 20T147-440h374l80 80H89q-19 0-31.5-14.5T49-408q10-51 39-87.5t69-60q40-23.5 87.5-34T340-600q5 0 11 .5t11 .5Zm-22 159Z"/>
</svg>
