<svg aria-hidden="true" viewBox="0 -960 960 960" fill="currentColor">
  <path d="m760-315-80-80v-245H435l-80-80v-100q0-25 17.5-42.5T415-880h125q25 0 42.5 17.5T600-820v100h80q33 0 56.5 23.5T760-640v325ZM640-435l-60-60v-75q0-13 8.5-21.5T610-600q13 0 21.5 8.5T640-570v135ZM415-720h125v-100H415v100ZM320-80q-17 0-28.5-11.5T280-120q-33 0-56.5-23.5T200-200v-440q0-24 12.5-44.5T248-713l73 73h-41v440h400v-81l80 80v1q0 33-23.5 56.5T680-120q0 17-11.5 28.5T640-80q-17 0-28.5-11.5T600-120H360q0 17-11.5 28.5T320-80Zm30-160q-13 0-21.5-8.5T320-270v-311h60v311q0 13-8.5 21.5T350-240Zm130 0q-13 0-21.5-8.5T450-270v-241l60 61v180q0 13-8.5 21.5T480-240Zm130 0q-13 0-21.5-8.5T580-270v-110l60 60v50q0 13-8.5 21.5T610-240Zm-52-278Zm-94 134ZM791-57 55-792q-12-12-12-28.5T55-849q12-12 28.5-12t28.5 12l736 736q12 12 12 28t-12 28q-12 12-28.5 12T791-57Z"/>
</svg>
