<svg aria-hidden="true" viewBox="0 -960 960 960" fill="currentColor">
  <path d="M415-720h125v-100H415v100ZM320-80q-17 0-28.5-11.5T280-120q-33 0-56.5-23.5T200-200v-440q0-24 12.5-44.5T248-713l513 513h-1q0 33-23.5 56.5T680-120q0 17-11.5 28.5T640-80q-17 0-28.5-11.5T600-120H360q0 17-11.5 28.5T320-80Zm471 23L55-792q-12-12-12-28.5T55-849q12-12 28.5-12t28.5 12l736 736q12 12 12 28t-12 28q-12 12-28.5 12T791-57Zm-31-258L640-435v-135q0-13-8.5-21.5T610-600q-13 0-21.5 8.5T580-570v75L355-720v-100q0-25 17.5-42.5T415-880h125q25 0 42.5 17.5T600-820v100h80q33 0 56.5 23.5T760-640v325Zm-410 75q13 0 21.5-8.5T380-270v-311h-60v311q0 13 8.5 21.5T350-240Zm130 0q13 0 21.5-8.5T510-270v-180l-60-61v241q0 13 8.5 21.5T480-240Zm130 0q13 0 21.5-8.5T640-270v-50l-60-60v110q0 13 8.5 21.5T610-240Z"/>
</svg>
