<svg aria-hidden="true" viewBox="0 -960 960 960" fill="currentColor">
  <path d="m793.63-52.935-67.065-66.304h48.022q0 18.435-12.531 31.13Q749.525-75.413 731-75.413q-18.524 0-31.056-12.696-12.531-12.695-12.531-31.13v-39.152L55-790.804q-12.478-12.51-11.978-29.712.5-17.201 13.003-29.68 12.504-12.478 29.696-12.478t29.67 12.478l737.631 738.631Q865.5-99.043 865.5-82.348q0 16.696-12.478 29.174-12.478 12.478-29.696 12.598-17.217.12-29.696-12.359Zm-19.043-255.608-89.696-89.935-117.478-117.479V-680q0-84.913 60.772-144.25t146.402-59.337v575.044ZM491-592.37l-87.413-87.174V-840q0-18.524 12.696-31.056 12.695-12.531 31.13-12.531t31.011 12.531Q491-858.524 491-840v247.63ZM363.587-719.544l-87.174-87.413v-36.63q1.674-17.957 14.25-28.978 12.576-11.022 29.337-11.022 18.524 0 31.056 12.531 12.531 12.532 12.531 31.056v120.456ZM236.413-846.957l-36.869-36.63q15.567 0 26.218 10.489t10.651 26.141Zm40 726.957v-321.696q-52.674-14-90.044-58.367Q149-544.43 149-603.587v-212l87.413 87.413v124.587h40v-84.587l83.826 83.826v.761H361l96.935 96.935q-17.435 23.717-41.772 40.456-24.337 16.74-52.576 24.5V-120q0 18.524-12.531 31.056Q338.524-76.413 320-76.413t-31.056-12.531Q276.413-101.476 276.413-120Z"/>
</svg>
