<svg aria-hidden="true" viewBox="0 -960 960 960" fill="currentColor">
  <path d="m791-57-63-62h32q0 17-11.5 28.5T720-79q-17 0-28.5-11.5T680-119v-48L55-792q-12-12-11.5-28.5T56-849q12-12 28.5-12t28.5 12l735 736q12 12 12 28t-12 28q-12 12-28.5 12T791-57Zm-31-258-83-83-117-117v-165q0-83 58.5-141.5T760-880v565ZM480-595l-80-80v-165q0-17 11.5-28.5T440-880q17 0 28.5 11.5T480-840v245ZM360-715l-80-80v-45q0-17 11.5-28.5T320-880q17 0 28.5 11.5T360-840v125ZM240-835l-45-45q19 0 32 13t13 32Zm40 715v-326q-51-14-85.5-56T160-600v-201l80 80v121h40v-81l80 80v1h1l90 90q-16 23-39.5 39.5T360-446v326q0 17-11.5 28.5T320-80q-17 0-28.5-11.5T280-120Z"/>
</svg>
