<svg aria-hidden="true" viewBox="0 -960 960 960" fill="currentColor">
  <path d="M240-67.087q-33 0-56.5-23.5t-23.5-56.5q0-33 23.5-56.5t56.5-23.5q33 0 56.5 23.5t23.5 56.5q0 33-23.5 56.5t-56.5 23.5Zm452.913-316.826L476.609-599.978l176.413-207.848q20.83-23.937 46.867-36.425 26.037-12.489 55.198-12.489 58.299 0 98.9 40.601 40.6 40.601 40.6 98.9 0 19.152-13.174 32.326t-32.326 13.174q-19.152 0-32.326-13.174t-13.174-32.326q0-20.658-13.94-34.579t-34.448-13.921q-8.916 0-16.601 3.402-7.685 3.402-14.206 10.685l-31.479 35.717v332.022Zm-87.174 25.826 63.892 64.652Q657.196-281 641.044-274.043q-16.153 6.956-35.305 6.956H291.022q-29.572 0-41.515-26.228-11.942-26.228 7.21-48.859l113.739-133.935L78.739-767.065Q66.261-778.783 66.641-796q.38-17.218 12.098-29.696 12.446-12.478 29.56-12.478 17.114 0 29.592 12.478l692.392 692.153q12.478 12.478 12.098 29.195Q842-87.63 829.522-75.152q-12.478 11.717-29.315 12.098-16.837.38-29.316-12.098L487.717-358.087h118.022Zm47.174 291q-33 0-56.5-23.5t-23.5-56.5q0-33 23.5-56.5t56.5-23.5q33 0 56.5 23.5t23.5 56.5q0 33-23.5 56.5t-56.5 23.5ZM437.196-639.63 252.152-824.674q34.196-15.913 72.304-23.989 38.109-8.077 76.261-8.077 47.153 0 92.446 12.196 45.294 12.196 87.924 36.109L437.196-639.63Z"/>
</svg>
