<svg aria-hidden="true" viewBox="0 -960 960 960" fill="currentColor">
  <path d="M240-80q-33 0-56.5-23.5T160-160q0-33 23.5-56.5T240-240q33 0 56.5 23.5T320-160q0 33-23.5 56.5T240-80Zm440-313L479-594l169-199q20-23 45-35t53-12q56 0 95 39t39 95q0 17-11.5 28.5T840-666q-17 0-28.5-11.5T800-706q0-23-15.5-38.5T746-760q-10 0-19 4t-16 12l-31 35v316Zm-80 33 56 57q-11 11-25 17t-31 6H297q-26 0-36.5-23t6.5-43l108-127L84-763q-12-11-11.5-27.5T84-819q12-12 28.5-12t28.5 12l679 679q12 12 11.5 28T819-84q-12 11-28 11.5T763-84L487-360h113Zm40 280q-33 0-56.5-23.5T560-160q0-33 23.5-56.5T640-240q33 0 56.5 23.5T720-160q0 33-23.5 56.5T640-80ZM436-637 261-812q33-14 68-21t71-7q45 0 88.5 11t83.5 33L436-637Z"/>
</svg>
