<svg aria-hidden="true" viewBox="0 -960 960 960" fill="currentColor">
  <path d="M320-200v20q0 25-17.5 42.5T260-120q-25 0-42.5-17.5T200-180v-62q-18-20-29-44.5T160-340v-347L55-792q-12-12-12-28.5T55-849q12-12 28.5-12t28.5 12l736 736q12 12 12 28t-12 28q-12 12-28.5 12T791-57L652-195h114v12q0 26-18.5 44.5T703-120q-26 0-44.5-18.5T640-183v-17H320Zm0-80h247L367-480H240v120q0 33 23.5 56.5T320-280Zm469-6-69-69v-125H595l-80-80h205v-120H395l-80-80h391q-15-17-64.5-28.5T482-800q-71 0-115.5 6T296-779l-61-61q39-20 99.5-30T480-880q172 0 246 37t74 123v380q0 14-3 27.5t-8 26.5Zm-449-34q25 0 42.5-17.5T400-380q0-25-17.5-42.5T340-440q-25 0-42.5 17.5T280-380q0 25 17.5 42.5T340-320ZM240-560h47l-47-47v47Zm75-200h391-391Zm52 280Zm228 0Z"/>
</svg>
