<svg aria-hidden="true" viewBox="0 -960 960 960" fill="currentColor">
  <path d="M480-80q-33 0-56.5-23.5T400-160h160q0 33-23.5 56.5T480-80ZM240-280v-280q0-83 50-147.5T420-792v-28q0-25 17.5-42.5T480-880q25 0 42.5 17.5T540-820v28q18 5 35 11.5t32 16.5q-28 35-42.5 77T550-600q0 82 46.5 149T720-355v75h40q17 0 28.5 11.5T800-240q0 17-11.5 28.5T760-200H200q-17 0-28.5-11.5T160-240q0-17 11.5-28.5T200-280h40Zm520-280h-80q-17 0-28.5-11.5T640-600q0-17 11.5-28.5T680-640h80v-80q0-17 11.5-28.5T800-760q17 0 28.5 11.5T840-720v80h80q17 0 28.5 11.5T960-600q0 17-11.5 28.5T920-560h-80v80q0 17-11.5 28.5T800-440q-17 0-28.5-11.5T760-480v-80Z"/>
</svg>
