<svg aria-hidden="true" viewBox="0 -960 960 960" fill="currentColor">
  <path d="M646-200H200q-17 0-28.5-11.5T160-240q0-17 11.5-28.5T200-280h40v-280q0-33 8.5-65t25.5-61l60 60q-7 16-10.5 32.5T320-560v280h248L84-764q-11-11-11-28t11-28q11-11 28-11t28 11l680 680q11 11 11.5 27.5T820-84q-11 11-28 11t-28-11L646-200Zm74-154-80-80v-126q0-66-47-113t-113-47q-26 0-50 8t-44 24l-58-58q20-16 43-28t49-18v-28q0-25 17.5-42.5T480-880q25 0 42.5 17.5T540-820v28q80 20 130 84.5T720-560v206Zm-276-50Zm36 324q-33 0-56.5-23.5T400-160h160q0 33-23.5 56.5T480-80Zm33-481Z"/>
</svg>
