<svg aria-hidden="true" viewBox="0 -960 960 960" fill="currentColor">
  <path d="M160-120q-17 0-28.5-11.5T120-160q0-17 11.5-28.5T160-200h40v-240h-40q-17 0-28.5-11.5T120-480q0-17 11.5-28.5T160-520h40v-240h-40q-17 0-28.5-11.5T120-800q0-17 11.5-28.5T160-840h640q17 0 28.5 11.5T840-800q0 17-11.5 28.5T800-760h-40v240h40q17 0 28.5 11.5T840-480q0 17-11.5 28.5T800-440h-40v240h40q17 0 28.5 11.5T840-160q0 17-11.5 28.5T800-120H160Zm320-200q50 0 85-34.5t35-83.5q0-32-13.5-54T531-562l-21-23q-12-14-30-14t-30 14l-20 23q-42 48-56 70t-14 54q0 49 35 83.5t85 34.5Z"/>
</svg>
