<svg aria-hidden="true" viewBox="0 -960 960 960" fill="currentColor">
  <path d="M157.37-111.869q-19.153 0-32.327-13.174t-13.174-32.327q0-19.152 13.174-32.326t32.327-13.174h32.825V-434.5H157.37q-19.153 0-32.327-13.174T111.869-480q0-19.152 13.174-32.326T157.37-525.5h32.825v-231.63H157.37q-19.153 0-32.327-13.174t-13.174-32.326q0-19.153 13.174-32.327t32.327-13.174h645.021q19.153 0 32.327 13.174 13.173 13.174 13.173 32.327 0 19.152-13.173 32.326-13.174 13.174-32.327 13.174h-32.586v231.63h32.825q19.153 0 32.327 13.174T848.131-480q0 19.152-13.174 32.326T802.63-434.5h-32.825v231.63h32.586q19.153 0 32.327 13.174 13.173 13.174 13.173 32.326 0 19.153-13.173 32.327-13.174 13.174-32.327 13.174H157.37ZM480-323.109q49.043 0 83.326-33.782 34.283-33.783 34.283-81.826 0-31.283-13.142-52.566-13.141-21.282-54.184-68.565l-19.326-21.087q-12.479-14.478-31.077-14.478-18.597 0-31.076 14.478l-18.326 21.087q-41.043 47.283-54.565 68.565-13.522 21.283-13.522 52.566 0 48.043 34.283 81.826 34.283 33.782 83.326 33.782Z"/>
</svg>
