<svg aria-hidden="true" viewBox="0 -960 960 960" fill="currentColor">
  <path d="M440-300q0-23-15.5-45.5t-34.5-47q-19-24.5-34.5-51T340-500q0-58 41-99t99-41q58 0 99 41t41 99q0 30-15.5 56.5t-34.5 51q-19 24.5-34.5 47T520-300h-80Zm40 100q-17 0-28.5-11.5T440-240v-20h80v20q0 17-11.5 28.5T480-200Zm260-20q-8-8-8.5-20t7.5-21q38-45 59.5-100.5T820-480q0-63-21.5-118.5T739-699q-8-9-7.5-21t8.5-20q10-10 23.5-9.5T785-739q45 53 70 119t25 140q0 74-25 140t-70 119q-8 10-21.5 10.5T740-220Zm-565-1q-45-53-70-119T80-480q0-74 25-140t70-119q8-10 21.5-10.5T220-740q8 8 8.5 20t-7.5 21q-38 45-59.5 100.5T140-480q0 63 21.5 118.5T221-261q8 9 7.5 21t-8.5 20q-10 10-23.5 9.5T175-221Zm481-83q-8-8-9-19.5t7-20.5q22-28 34-63t12-73q0-38-12-73t-34-63q-8-9-7-20.5t9-19.5q10-10 22.5-9.5T699-655q29 36 45 80.5t16 94.5q0 50-16 94.5T699-305q-8 10-20.5 10.5T656-304Zm-395-1q-29-36-45-80.5T200-480q0-50 16-94.5t45-80.5q8-10 21-10t23 10q8 8 8.5 19t-7.5 20q-22 28-34 63t-12 73q0 38 12 73t34 63q8 9 7 20.5t-9 19.5q-10 10-22.5 9.5T261-305Z"/>
</svg>
