<svg aria-hidden="true" viewBox="0 -960 960 960" fill="currentColor">
  <path d="M438.565-295.696q0-23.717-16.098-47.054-16.097-23.337-35.695-48.674t-35.696-52.913q-16.098-27.576-16.098-58.533 0-60.152 42.555-102.706Q420.087-648.131 480-648.131q60.152 0 102.587 42.555 42.435 42.554 42.435 102.706 0 30.957-16.098 58.533t-35.696 52.913q-19.598 25.337-35.695 48.674-16.098 23.337-16.098 47.054h-82.87ZM480-191.869q-17.717 0-29.576-11.859-11.859-11.859-11.859-29.576v-20.718h82.87v20.718q0 17.478-11.859 29.456-11.859 11.979-29.576 11.979Zm274.587-14.022q-8.956-8.957-9.456-22.033t8.217-23.271Q793.022-298.587 815-356.717 836.979-414.848 836.979-480T815-603.283q-21.978-58.13-61.652-105.522-8.717-10.195-8.217-23.391.5-13.196 9.456-22.152 11.196-11.196 26.37-10.696 15.174.5 24.13 11.935 46.674 55.63 72.99 125.218Q904.392-558.304 904.392-480q0 78.304-26.315 147.891-26.316 69.588-72.99 125.218-8.956 11.435-24.13 11.815-15.174.381-26.37-10.815Zm-599.196-1q-46.674-55.63-72.99-125.218Q56.087-401.696 56.087-480q0-78.304 26.316-147.891 26.315-69.588 72.989-125.218 8.956-11.435 24.13-11.815 15.174-.381 26.37 10.815 8.957 8.957 9.457 22.033t-8.218 23.271q-39.674 47.392-61.772 105.522Q123.26-545.152 123.26-480t22.098 123.283q22.098 58.13 61.772 105.522 8.718 10.195 8.098 23.391-.62 13.196-9.576 22.152-11.196 11.196-26.25 10.696-15.055-.5-24.011-11.935Zm507.305-90.891q-8.718-8.718-9.837-21.533-1.12-12.815 7.598-23.25 21.521-28.239 33.521-63.598 12-35.359 12-73.837t-12-73.837q-12-35.359-33.521-63.598-8.718-10.435-7.718-23.13 1-12.696 9.957-21.653 11.195-11.195 25.369-10.695t23.131 11.935q29.478 37.434 45.837 83.489 16.359 46.054 16.359 97.489t-16.359 97.489q-16.359 46.055-45.837 83.489-8.957 11.435-23.131 11.935t-25.369-10.695Zm-413.414-1.24q-29.478-37.434-45.837-83.489-16.358-46.054-16.358-97.489t16.358-97.489q16.359-46.055 45.837-83.489 8.957-11.435 23.631-11.435t25.869 11.195q8.718 8.718 9.337 21.033.62 12.315-8.097 22.75-21.522 28.239-33.642 63.598-12.119 35.359-12.119 73.837t12.119 73.837q12.12 35.359 33.642 63.598 8.717 10.435 7.717 23.13-1 12.696-9.957 21.653-11.195 11.195-25.369 10.695t-23.131-11.935Z"/>
</svg>
