<svg aria-hidden="true" viewBox="0 -960 960 960" fill="currentColor">
  <path d="M434.5-240.218v-112.608q0-19.152 13.174-32.207 13.174-13.054 32.326-13.054t32.326 13.174q13.174 13.174 13.174 32.326l-1 111.369 34.674-34.673q13.674-13.674 32.826-13.674t32.826 13.674q13.674 13.674 13.674 32.826t-13.674 32.826L512.065-97.478Q498.391-83.804 480-83.804t-32.065-13.674L334.174-211.239Q320.5-224.913 321-243.565t14.174-32.326q13.674-13.674 32.326-13.674t32.326 13.674l34.674 35.673ZM241.218-434.5l34.673 33.913q13.674 13.435 13.674 32.587t-13.674 32.826Q262.217-321.5 243.065-321.5t-32.826-13.674L97.478-447.935Q83.804-461.609 83.804-480t13.674-32.065l112.761-112.761q13.674-13.674 32.326-13.674t32.326 13.674q13.674 13.674 13.674 32.326t-13.674 32.326L240.218-525.5h112.369q19.152 0 32.326 13.174T398.087-480q0 19.152-13.174 32.326T352.587-434.5H241.218Zm478.564 0H607.174q-19.152 0-32.207-13.174-13.054-13.174-13.054-32.326t13.174-32.326q13.174-13.174 32.326-13.174l111.369 1-34.673-34.674Q670.435-572.848 670.435-592t13.674-32.826q13.674-13.674 32.826-13.674t32.826 13.674l112.761 112.761q13.674 13.674 13.674 32.065t-13.674 32.065L748.761-334.174Q735.087-320.5 716.935-321t-31.826-14.174q-13.674-13.674-13.674-32.326t13.674-32.326l34.673-34.674ZM434.5-719.782l-35.674 35.673Q385.152-670.435 367-670.435t-31.826-13.674Q321.5-697.783 321.5-716.435t13.674-32.326l112.761-113.761q13.674-13.674 32.065-13.674t32.065 13.674l113.761 113.761q13.674 13.674 13.674 31.826t-13.674 31.826q-13.674 13.674-32.326 13.674t-32.326-13.674L525.5-719.782v112.369q0 19.152-13.174 32.326T480-561.913q-19.152 0-32.326-13.174T434.5-607.413v-112.369Z"/>
</svg>
