<svg aria-hidden="true" viewBox="0 -960 960 960" fill="currentColor">
  <path d="M440-234v-126q0-17 11.5-28.5T480-400q17 0 28.5 11.5T520-360l-1 125 44-44q12-12 29-12t29 12q12 12 12 29t-12 29L508-108q-12 12-28 12t-28-12L338-222q-12-12-11.5-28.5T339-279q12-12 28.5-12t28.5 12l44 45ZM235-440l44 43q12 12 12 29t-12 29q-12 12-29 12t-29-12L108-452q-12-12-12-28t12-28l113-113q12-12 28.5-12t28.5 12q12 12 12 28.5T278-564l-44 44h126q17 0 28.5 11.5T400-480q0 17-11.5 28.5T360-440H235Zm491 0H600q-17 0-28.5-11.5T560-480q0-17 11.5-28.5T600-520l125 1-44-44q-12-12-12-29t12-29q12-12 29-12t29 12l113 113q12 12 12 28t-12 28L738-338q-12 12-28 11.5T682-339q-12-12-12-28.5t12-28.5l44-44ZM440-726l-45 45q-12 12-28 12t-28-12q-12-12-12-28.5t12-28.5l113-114q12-12 28-12t28 12l114 114q12 12 12 28t-12 28q-12 12-28.5 12T565-682l-45-44v126q0 17-11.5 28.5T480-560q-17 0-28.5-11.5T440-600v-126Z"/>
</svg>
