<svg aria-hidden="true" viewBox="0 -960 960 960" fill="currentColor">
  <path d="m763-84-37-36H200q-33 0-56.5-23.5T120-200v-526l-37-37q-12-12-12-28.5T83-820q12-12 28.5-12t28.5 12l680 680q12 12 12 28t-12 28q-12 12-28.5 12T763-84ZM200-200h446L451-395l-35 35q-11 11-28 11t-28-11q-11-11-11-28t11-28l35-35-195-195v446Zm114-560-80-80h206q17 0 28.5 11.5T480-800q0 17-11.5 28.5T440-760H314Zm251 251-56-56 195-195H600q-17 0-28.5-11.5T560-800q0-17 11.5-28.5T600-840h200q17 0 28.5 11.5T840-800v200q0 17-11.5 28.5T800-560q-17 0-28.5-11.5T760-600v-104L565-509Zm275 275-80-80v-126q0-17 11.5-28.5T800-480q17 0 28.5 11.5T840-440v206Z"/>
</svg>
