<svg aria-hidden="true" viewBox="0 -960 960 960" fill="currentColor">
  <path d="m691-235-17-17q-9-9-21.5-9t-21.5 9q-9 9-9 21t9 21l39 39q9 9 21 9t21-9l97-95q9-9 9-21.5t-9-21.5q-9-9-21.5-9t-21.5 9l-75 74Zm-11-365q17 0 28.5-11.5T720-640q0-17-11.5-28.5T680-680H280q-17 0-28.5 11.5T240-640q0 17 11.5 28.5T280-600h400Zm40 560q-83 0-141.5-58.5T520-240q0-83 58.5-141.5T720-440q83 0 141.5 58.5T920-240q0 83-58.5 141.5T720-40ZM200-840h560q33 0 56.5 23.5T840-760v267q-28-14-58.5-20.5T720-520H280q-17 0-28.5 11.5T240-480q0 17 11.5 28.5T280-440h244q-17 17-31.5 37T467-360H280q-17 0-28.5 11.5T240-320q0 17 11.5 28.5T280-280h163q-2 10-2.5 19.5T440-240q0 42 11.5 80.5T486-86q-5 1-10.5-1.5T466-94l-32-32q-6-6-14-6t-14 6l-32 32q-6 6-14 6t-14-6l-32-32q-6-6-14-6t-14 6l-32 32q-6 6-14 6t-14-6l-32-32q-6-6-14-6t-14 6l-32 32-14 9v-675q0-33 23.5-56.5T200-840Z"/>
</svg>
