<svg aria-hidden="true" viewBox="0 -960 960 960" fill="currentColor">
  <path d="M176.565-44.804q-14.478-9.479-17.978-26.65-3.5-17.172 5.978-31.742l154.652-237.217q-63-29-106.239-85.576-43.239-56.576-54.717-128.815-3.479-19.631 11.06-35.163 14.538-15.533 36.636-15.533h468.086q22.098 0 36.636 15.533 14.539 15.532 11.06 35.163-11.478 72.239-54.717 128.815-43.239 56.576-106.239 85.576l19.413 30.261q-21.957 9.522-36.772 20.598-14.815 11.076-30.576 29.554l-36.652-56.5q-11.913 2-36.196 2h-17.841q-8.92 0-18.355-2l-74.456 114.587h197.217q13.239-36.239 44.098-58.12 30.859-21.88 69.434-21.88 50.757 0 86.286 35.478 35.53 35.478 35.53 86.435t-35.53 86.435q-35.529 35.478-86.286 35.478-38.575 0-69.434-21.88-30.859-21.88-44.098-58.12H275.196l-39.761 61.283q-9.478 14.717-26.818 18.217-17.339 3.5-32.052-6.217ZM640-121.913q16.187 0 27.137-10.95T678.087-160q0-16.187-10.95-27.137T640-198.087q-16.187 0-27.137 10.95T601.913-160q0 16.187 10.95 27.137T640-121.913ZM353.555-647.891q-9.816 0-15.675-6.522-5.858-6.522-5.858-17.392.239-19.282-6.522-35.184-6.761-15.902-22.326-34.229-17.957-22.239-25.935-43.554-7.978-21.315-5.978-48.033 1-7.717 7.217-13.195 6.218-5.479 14.901-5.479 9.768 0 15.738 6.522 5.97 6.522 5.97 17.392 0 19.356 6.522 34.841 6.521 15.485 22.087 33.811 18.478 23.478 26.076 44.674 7.598 21.195 5.598 47.674-1.091 7.689-7.09 13.181-5.999 5.493-14.725 5.493Zm104.248 0q-9.76 0-15.618-6.522-5.859-6.522-5.859-17.392 1-19.278-5.641-35.182-6.642-15.904-22.207-34.231-18.956-21.478-26.815-43.173-7.859-21.696-5.859-48.414 1.091-7.689 7.09-13.181 5.999-5.493 14.724-5.493 9.817 0 15.795 6.522t5.978 17.392q0 19.356 6.522 34.841T448-758.913q17.717 22.717 25.815 44.293 8.098 21.576 6.098 48.055-1 7.717-7.217 13.195-6.218 5.479-14.893 5.479Zm104.6 0q-9.816 0-15.675-6.522-5.858-6.522-5.858-17.392 1-19.278-5.761-35.182-6.761-15.904-22.326-34.231-18.957-21.478-26.816-43.173-7.858-21.696-5.858-48.414 1.09-7.689 7.089-13.181 5.999-5.493 14.725-5.493 9.816 0 15.795 6.522 5.978 6.522 5.978 17.392 0 19.356 6.522 34.841 6.521 15.485 22.086 33.811 17.718 22.717 25.816 44.293 8.098 21.576 6.098 48.055-1.091 7.689-7.09 13.181-5.999 5.493-14.725 5.493Z"/>
</svg>
