<svg aria-hidden="true" viewBox="0 -960 960 960" fill="currentColor">
  <path d="M178-46q-14-9-17.5-25.5T166-102l158-242q-63-29-106-84.5T164-556q-3-17 9.5-30.5T205-600h470q19 0 31.5 13.5T716-556q-11 72-54 127.5T556-344l23 36q-21 10-34.5 20T515-260l-40-62q-10 2-35 2h-18q-9 0-17-2l-79 122h202q13-36 43.5-58t68.5-22q50 0 85 35t35 85q0 50-35 85t-85 35q-38 0-68.5-22T528-120H274l-40 62q-9 14-25.5 17.5T178-46Zm462-74q17 0 28.5-11.5T680-160q0-17-11.5-28.5T640-200q-17 0-28.5 11.5T600-160q0 17 11.5 28.5T640-120ZM440-400q60 0 109.5-33t74.5-87H256q26 54 75 87t109 33Zm-82-240q-9 0-14.5-6t-5.5-16q0-20-7-36.5T307-735q-17-22-24.5-42t-5.5-46q1-7 6.5-12t13.5-5q9 0 14.5 6t5.5 16q0 20 7 36t24 36q18 23 25 43t5 46q-1 7-6.5 12t-13.5 5Zm100 0q-9 0-14.5-6t-5.5-16q1-20-6-36.5T408-735q-18-21-25.5-41.5T377-823q1-7 6.5-12t13.5-5q9 0 14.5 6t5.5 16q0 20 7 36t24 36q17 22 24.5 42.5T478-657q-1 7-6.5 12t-13.5 5Zm100 0q-9 0-14.5-6t-5.5-16q1-20-6-36.5T508-735q-18-21-25.5-41.5T477-823q1-7 6.5-12t13.5-5q9 0 14.5 6t5.5 16q0 20 7 36t24 36q17 22 24.5 42.5T578-657q-1 7-6.5 12t-13.5 5ZM440-400Z"/>
</svg>
