<svg aria-hidden="true" viewBox="0 -960 960 960" fill="currentColor">
  <path d="M668.5-691.5Q680-703 680-720t-11.5-28.5Q657-760 640-760t-28.5 11.5Q600-737 600-720t11.5 28.5Q623-680 640-680t28.5-11.5Zm-160 0Q520-703 520-720t-11.5-28.5Q497-760 480-760t-28.5 11.5Q440-737 440-720t11.5 28.5Q463-680 480-680t28.5-11.5Zm-160 0Q360-703 360-720t-11.5-28.5Q337-760 320-760t-28.5 11.5Q280-737 280-720t11.5 28.5Q303-680 320-680t28.5-11.5ZM200-560v360h560v-360H200Zm240 160h80q17 0 28.5-11.5T560-440q0-17-11.5-28.5T520-480h-80q-17 0-28.5 11.5T400-440q0 17 11.5 28.5T440-400ZM200-120q-33 0-56.5-23.5T120-200v-560q0-33 23.5-56.5T200-840h560q33 0 56.5 23.5T840-760v560q0 33-23.5 56.5T760-120H200Zm280-440Zm0 0Z"/>
</svg>
