<svg aria-hidden="true" viewBox="0 -960 960 960" fill="currentColor">
  <path d="M200-120q-33 0-56.5-23.5T120-200v-560q0-33 23.5-56.5T200-840h560q33 0 56.5 23.5T840-760v560q0 33-23.5 56.5T760-120H200Zm0-360v280h560v-280h-80v200H280v-200h-80Zm160 120h240v-120H360v120ZM200-560h560v-200H200v200Zm91.5-91.5Q280-663 280-680t11.5-28.5Q303-720 320-720t28.5 11.5Q360-697 360-680t-11.5 28.5Q337-640 320-640t-28.5-11.5Zm160 0Q440-663 440-680t11.5-28.5Q463-720 480-720t28.5 11.5Q520-697 520-680t-11.5 28.5Q497-640 480-640t-28.5-11.5Zm160 0Q600-663 600-680t11.5-28.5Q623-720 640-720t28.5 11.5Q680-697 680-680t-11.5 28.5Q657-640 640-640t-28.5-11.5Z"/>
</svg>
