<svg aria-hidden="true" viewBox="0 -960 960 960" fill="currentColor">
  <path d="M311.5-571.5Q300-583 300-600t11.5-28.5Q323-640 340-640t28.5 11.5Q380-617 380-600t-11.5 28.5Q357-560 340-560t-28.5-11.5Zm280 0Q580-583 580-600t11.5-28.5Q603-640 620-640t28.5 11.5Q660-617 660-600t-11.5 28.5Q637-560 620-560t-28.5-11.5ZM480-80q-134 0-227-93t-93-227v-200q0-122 96-201t224-79q128 0 224 79t96 201v400q0 17-11.5 28.5T760-160h-40q-50 0-85-35t-35-85v-2q0-20-12.5-30T560-322q-15 0-27.5 10T520-282v2q0 48 21 89t56 68q15 11 10.5 27T588-80H480Zm0-320q95 0 167.5-55.5T720-600q0-35-12-65.5T674-720q-64 2-109 48t-45 112q0 17-11.5 28.5T480-520q-17 0-28.5-11.5T440-560q0-66-45-111t-109-48q-22 24-34 54t-12 65q0 89 72.5 144.5T480-400Z"/>
</svg>
