<svg aria-hidden="true" viewBox="0 -960 960 960" fill="currentColor">
  <path d="M120-160q-33 0-56.5-23.5T40-240v-560q0-33 23.5-56.5T120-880h240q33 0 56.5 23.5T440-800v160q0 17-11.5 28.5T400-600h-80q-50 0-85 35t-35 85q0 50 35 85t85 35h80q17 0 28.5 11.5T440-320v80q0 33-23.5 56.5T360-160H120Zm141.5-548.5Q270-717 270-730t-8.5-21.5Q253-760 240-760t-21.5 8.5Q210-743 210-730t8.5 21.5Q227-700 240-700t21.5-8.5Zm30 257Q280-463 280-480t11.5-28.5Q303-520 320-520t28.5 11.5Q360-497 360-480t-11.5 28.5Q337-440 320-440t-28.5-11.5Zm160 0Q440-463 440-480t11.5-28.5Q463-520 480-520t28.5 11.5Q520-497 520-480t-11.5 28.5Q497-440 480-440t-28.5-11.5ZM600-80q-33 0-56.5-23.5T520-160v-160q0-17 11.5-28.5T560-360h80q50 0 85-35t35-85q0-50-35-85t-85-35h-80q-17 0-28.5-11.5T520-640v-80q0-33 23.5-56.5T600-800h240q33 0 56.5 23.5T920-720v560q0 33-23.5 56.5T840-80H600Zm11.5-371.5Q600-463 600-480t11.5-28.5Q623-520 640-520t28.5 11.5Q680-497 680-480t-11.5 28.5Q657-440 640-440t-28.5-11.5Zm130-177Q750-637 750-650t-8.5-21.5Q733-680 720-680t-21.5 8.5Q690-663 690-650t8.5 21.5Q707-620 720-620t21.5-8.5Z"/>
</svg>
