<svg aria-hidden="true" viewBox="0 -960 960 960" fill="currentColor">
  <path d="M348.5-611.5Q360-623 360-640t-11.5-28.5Q337-680 320-680t-28.5 11.5Q280-657 280-640t11.5 28.5Q303-600 320-600t28.5-11.5Zm160 0Q520-623 520-640t-11.5-28.5Q497-680 480-680t-28.5 11.5Q440-657 440-640t11.5 28.5Q463-600 480-600t28.5-11.5Zm160 0Q680-623 680-640t-11.5-28.5Q657-680 640-680t-28.5 11.5Q600-657 600-640t11.5 28.5Q623-600 640-600t28.5-11.5ZM200-120q-33 0-56.5-23.5T120-200v-560q0-33 23.5-56.5T200-840h560q33 0 56.5 23.5T840-760v560q0 33-23.5 56.5T760-120H200Z"/>
</svg>
