<svg aria-hidden="true" viewBox="0 -960 960 960" fill="currentColor">
  <path d="M160-160q-33 0-56.5-23.5T80-240v-480q0-33 23.5-56.5T160-800h640q33 0 56.5 23.5T880-720v480q0 33-23.5 56.5T800-160h-6q-26 0-47-9t-38-26L556-348q-21 14-45.5 21t-50.5 7q-75 0-127.5-52.5T280-500q0-75 52.5-127.5T460-680q75 0 127.5 52.5T640-500q0 27-7 51t-21 45l164 164h24v-480H160v480h373q20 0 30 12.5t10 27.5q0 15-10 27.5T533-160H160Zm371-269q29-29 29-71t-29-71q-29-29-71-29t-71 29q-29 29-29 71t29 71q29 29 71 29t71-29ZM160-240v-480 480Z"/>
</svg>
