<svg aria-hidden="true" viewBox="0 -960 960 960" fill="currentColor">
  <path d="M103.5-423.5Q80-447 80-480t23.5-56.5Q127-560 160-560t56.5 23.5Q240-513 240-480t-23.5 56.5Q193-400 160-400t-56.5-23.5Zm75-38Q186-469 186-480t-7.5-18.5Q171-506 160-506t-18.5 7.5Q134-491 134-480t7.5 18.5Q149-454 160-454t18.5-7.5Zm139 38Q294-447 294-480t23.5-56.5Q341-560 374-560t56.5 23.5Q454-513 454-480t-23.5 56.5Q407-400 374-400t-56.5-23.5Zm75-38Q400-469 400-480t-7.5-18.5Q385-506 374-506t-18.5 7.5Q348-491 348-480t7.5 18.5Q363-454 374-454t18.5-7.5Zm137 38Q506-447 506-480t23.5-56.5Q553-560 586-560t56.5 23.5Q666-513 666-480t-23.5 56.5Q619-400 586-400t-56.5-23.5Zm75-38Q612-469 612-480t-7.5-18.5Q597-506 586-506t-18.5 7.5Q560-491 560-480t7.5 18.5Q575-454 586-454t18.5-7.5Zm139 38Q720-447 720-480t23.5-56.5Q767-560 800-560t56.5 23.5Q880-513 880-480t-23.5 56.5Q833-400 800-400t-56.5-23.5Z"/>
</svg>
