<svg aria-hidden="true" viewBox="0 -960 960 960" fill="currentColor">
  <path d="M603.5-193.5Q560-237 560-300t43.5-106.5Q647-450 710-450t106.5 43.5Q860-363 860-300t-43.5 106.5Q773-150 710-150t-106.5-43.5ZM440-260H200q-17 0-28.5-11.5T160-300q0-17 11.5-28.5T200-340h240q17 0 28.5 11.5T480-300q0 17-11.5 28.5T440-260ZM143.5-553.5Q100-597 100-660t43.5-106.5Q187-810 250-810t106.5 43.5Q400-723 400-660t-43.5 106.5Q313-510 250-510t-106.5-43.5ZM760-620H520q-17 0-28.5-11.5T480-660q0-17 11.5-28.5T520-700h240q17 0 28.5 11.5T800-660q0 17-11.5 28.5T760-620Z"/>
</svg>
