<svg aria-hidden="true" viewBox="0 -960 960 960" fill="currentColor">
  <path d="M162.87-151.869q-37.783 0-64.392-26.609Q71.87-205.087 71.87-242.87v-474.26q0-37.783 26.61-64.392 26.608-26.609 64.391-26.609h634.26q37.783 0 64.392 26.609 26.609 26.609 26.609 64.392v474.26q0 37.783-26.609 64.392-26.609 26.609-64.392 26.609H162.87Zm0-91.001h634.26v-474.26H162.87v474.26Zm0 0v-474.26 474.26Zm299.76-74.5q25.522 0 49.283-6.76 23.761-6.761 45.283-20.283l63.021 63.261q11.718 11.717 29.196 11.717t29.196-11.717q11.717-11.718 11.717-29.315 0-17.598-11.717-29.316l-63.022-63.021q13.761-21.522 20.402-45.283 6.641-23.761 6.641-49.283 0-75-52.5-127.5t-127.5-52.5q-75 0-127.5 52.5t-52.5 127.5q0 75 52.5 127.5t127.5 52.5Zm.048-83.826q-40.374 0-68.417-27.876-28.043-27.877-28.043-68.25 0-40.374 28.043-68.417t68.417-28.043q40.373 0 68.25 28.043 27.876 28.043 27.876 68.417 0 40.373-27.876 68.25-27.877 27.876-68.25 27.876Z"/>
</svg>
