<svg aria-hidden="true" viewBox="0 -960 960 960" fill="currentColor">
  <path d="M398-111.869q-27.717 0-52.696-11.859-24.978-11.859-42.695-33.337L35.239-482.522 63.63-510.63q21.392-21.87 51.457-24.751 30.065-2.88 54.652 14.511l107.152 74.783v-402.044q0-18.195 12.457-30.652 12.456-12.456 30.652-12.456t30.652 12.456q12.457 12.457 12.457 30.652v480q0 27.297-24.37 40.377-24.369 13.08-47.239-2.833l-48.239-34 127.326 152.696q5.491 6.442 12.812 10.123 7.321 3.681 15.558 3.681h286.065q31.718 0 54.304-22.587 22.587-22.587 22.587-54.304v-283.109q0-18.196 12.457-30.652 12.456-12.457 30.652-12.457t30.652 12.457q12.457 12.456 12.457 30.652v283.109q0 67.435-47.837 115.272t-115.272 47.837H398Zm40.565-320v-256.526q0-18.17 12.457-30.627 12.456-12.457 30.652-12.457t30.652 12.457q12.457 12.457 12.457 30.627v256.526h-86.218Zm161.674 0v-208.609q0-18.196 12.457-30.652 12.456-12.457 30.652-12.457T674-671.13q12.457 12.456 12.457 30.652v208.609h-86.218Zm-97.152 78.565Z"/>
</svg>
