<svg aria-hidden="true" viewBox="0 -960 960 960" fill="currentColor">
  <path d="M320-120q-17 0-28.5-11.5T280-160v-40H120q-17 0-28.5-11.5T80-240v-280q0-17 11.5-28.5T120-560h168l-42-120H120q-17 0-28.5-11.5T80-720q0-17 11.5-28.5T120-760h140q19 0 34.5 11t21.5 29l80 227q2 6 3 13t1 14v306q0 17-11.5 28.5T360-120h-40ZM220-320q25 0 42.5-17.5T280-380q0-25-17.5-42.5T220-440q-25 0-42.5 17.5T160-380q0 25 17.5 42.5T220-320Zm396-404q-26 26-26 64 0 13 8.5 21.5T620-630q13 0 21.5-8.5T650-660t8.5-21.5Q667-690 680-690t21.5 8.5Q710-673 710-660t8.5 21.5Q727-630 740-630t21.5-8.5Q770-647 770-660q0-38-26-64t-64-26q-38 0-64 26Zm14 204h100q13 0 21.5-8.5T760-550q0-13-8.5-21.5T730-580H630q-13 0-21.5 8.5T600-550q0 13 8.5 21.5T630-520Zm21.5 388.5Q640-143 640-160v-240h-89q-14 0-25-8t-14-22l-44-178q-3-14-5-27t-2-27q0-88 62.5-153T680-880q94 0 156.5 65T899-662q0 14-2 27t-5 27l-44 178q-3 14-14 22t-25 8h-89v240q0 17-11.5 28.5T680-120q-17 0-28.5-11.5Z"/>
</svg>
