<svg aria-hidden="true" viewBox="0 -960 960 960" fill="currentColor">
  <path d="M479.996-71.87q-33.67 0-57.866-24.198-24.195-24.199-24.195-57.867v-77.934H190.217q-27.348 0-40.663-23.87-13.315-23.87 2.359-46.739l113.021-169.391h-2.521q-23.283-3.348-33.228-26.522-9.946-23.174 5.489-45.087l208.022-296.935q6.956-9.435 16.913-14.413 9.956-4.979 20.391-4.979 10.435 0 20.391 4.979 9.957 4.978 16.913 14.413l208.022 296.935q15.435 21.913 5.489 45.087-9.945 23.174-33.228 26.522h-2.521l113.021 169.391q15.674 22.869 2.359 46.739-13.315 23.87-40.663 23.87H562.065v77.934q0 33.668-24.2 57.867-24.2 24.199-57.869 24.199Zm-204.496-251h160-76 241-76 160-409Zm0 0h409l-160-240h76L480-734.978 359.5-562.87h76l-160 240Z"/>
</svg>
