<svg aria-hidden="true" viewBox="0 -960 960 960" fill="currentColor">
  <path d="M241.435-396.652q46.326.478 84.891 25.761 38.565 25.282 56.848 68.608l10.956 25.631H422q40.087 0 67.011 28.304 26.924 28.305 26.924 67.631 0 40.087-27.805 68.01Q460.326-84.783 420-84.783H240q-64.326 0-110.13-45.684-45.805-45.685-45.805-110.25 0-65.326 45.805-110.631 45.804-45.304 111.565-45.304Zm210.956-449.805q-15.847 99.957 12.435 195.413 28.283 95.457 99.522 166.696t166.576 99.163q95.337 27.924 195.054 13.75-26 145.109-137.271 239.522Q677.435-37.5 530.848-35.217q-3.826 0-7.772-.359t-7.772-.837q37.5-23.13 59.065-61.424 21.566-38.293 21.566-82.88 0-66.805-42.381-115.348-42.38-48.544-107.184-58.065-31.283-56.522-86.185-89.522-54.902-33-120.185-33-33.435 0-65.25 9.076-31.815 9.076-59.294 26.989-.239-1.674-.239-3.228v-3.228q1.522-148.109 96.294-260.142 94.772-112.033 240.88-139.272Z"/>
</svg>
