<svg aria-hidden="true" viewBox="0 -960 960 960" fill="currentColor">
  <path d="M504-465Zm20 385H420l20-12.5q20-12.5 43.5-28t43.5-28l20-12.5q81-6 149.5-49T805-325q-86-8-163-43.5T504-465q-61-61-97-138t-43-163q-77 43-120.5 118.5T200-484v12l-12 5.5q-12 5.5-26.5 11.5T135-443.5l-12 5.5q-2-11-2.5-23t-.5-23q0-126 76-235t199-145q11-3 20-1t17 8q8 6 11.5 14.5T446-823q-6 85 24.5 163.5T561-521q61 61 137.5 90T860-407q11-1 20.5 3.5T895-391q5 8 7 17t-2 20q-43 125-142 199.5T524-80Zm-284-80h180q25 0 42.5-17.5T480-220q0-25-17-42.5T422-280h-52l-20-48q-14-33-44-52.5T240-400q-50 0-85 34.5T120-280q0 50 35 85t85 35Zm0 80q-83 0-141.5-58.5T40-280q0-83 58.5-141.5T240-480q60 0 109.5 32.5T423-360q57 2 97 42.5t40 97.5q0 58-41 99t-99 41H240Z"/>
</svg>
