<svg aria-hidden="true" viewBox="0 -960 960 960" fill="currentColor">
  <path d="M120-194.5q-19.152 0-32.326-13.174T74.5-240q0-19.152 13.174-32.326T120-285.5h720q19.152 0 32.326 13.174T885.5-240q0 19.152-13.174 32.326T840-194.5H120ZM95.456-455.326q-11.717-6.478-15.076-19.196-3.358-12.717 3.12-24.435l17.565-31.13H66.413q-13.717 0-22.815-9.098T34.5-562q0-13.717 9.098-22.815t22.815-9.098h34.652l-17.326-29.13q-6.478-11.718-3.24-24.435 3.24-12.718 14.957-19.196 11.718-6.478 24.435-3.239 12.718 3.239 19.196 14.956l17.326 29.37 17.326-29.37q6.478-11.717 19.196-14.956 12.717-3.239 24.435 3.239 11.717 6.478 14.956 19.196 3.239 12.717-3.239 24.435l-17.565 29.13h34.891q13.717 0 22.696 9.098 8.978 9.098 8.978 22.815t-8.978 22.815q-8.979 9.098-22.696 9.098h-34.891l17.565 31.13q6.478 11.718 3.239 24.435-3.239 12.718-14.956 19.196-11.718 6.478-24.435 3.12-12.718-3.359-19.196-15.077l-17.326-31.13-17.326 31.13q-6.478 11.718-19.196 15.077-12.717 3.358-24.435-3.12Zm323.587 0q-11.717-6.478-15.076-19.196-3.358-12.717 3.12-24.435l17.565-31.13H390q-13.717 0-22.815-9.098T358.087-562q0-13.717 9.098-22.815T390-593.913h34.652l-17.326-29.13q-6.478-11.718-3.239-24.435 3.239-12.718 14.956-19.196 11.718-6.478 24.435-3.239 12.718 3.239 19.196 14.956L480-625.587l17.326-29.37q6.478-11.717 19.196-14.956 12.717-3.239 24.435 3.239 11.717 6.478 14.956 19.196 3.239 12.717-3.239 24.435l-17.326 29.13H570q13.717 0 22.815 9.098T601.913-562q0 13.717-9.098 22.815T570-530.087h-34.652l17.565 31.13q6.478 11.718 3.12 24.435-3.359 12.718-15.076 19.196-11.718 6.478-24.435 3.12-12.718-3.359-19.196-15.077L480-498.413l-17.326 31.13q-6.478 11.718-19.196 15.077-12.717 3.358-24.435-3.12Zm323.827 0q-11.718-6.478-15.076-19.196-3.359-12.717 3.119-24.435l17.565-31.13h-34.891q-13.717 0-22.696-9.098-8.978-9.098-8.978-22.815t8.978-22.815q8.979-9.098 22.696-9.098h34.891l-17.565-29.13q-6.478-11.718-3.239-24.435 3.239-12.718 14.956-19.196 11.718-6.478 24.435-3.239 12.718 3.239 19.196 14.956l17.326 29.37 17.326-29.37q6.478-11.717 19.196-14.956 12.717-3.239 24.435 3.239 11.717 6.478 14.956 19.196 3.239 12.717-3.239 24.435l-17.326 29.13h34.652q13.717 0 22.815 9.098T925.5-562q0 13.717-9.098 22.815t-22.815 9.098h-34.652l17.565 31.13q6.478 11.718 3.12 24.435-3.359 12.718-15.076 19.196-11.718 6.478-24.435 3.12-12.718-3.359-19.196-15.077l-17.326-31.13-17.326 31.13q-6.478 11.718-19.076 15.077-12.598 3.358-24.315-3.12Z"/>
</svg>
