<svg aria-hidden="true" viewBox="0 -960 960 960" fill="currentColor">
  <path d="M370-220h220q13 0 21.5-8.5T620-250q0-13-8.5-21.5T590-280H370q-13 0-21.5 8.5T340-250q0 13 8.5 21.5T370-220Zm251.5-178.5Q680-457 680-540t-58.5-141.5Q563-740 480-740t-141.5 58.5Q280-623 280-540t58.5 141.5Q397-340 480-340t141.5-58.5ZM480-407q-8-11-17-36.5T451-510h58q-3 41-12 66.5T480-407Zm-72-13q-24-15-41-38t-23-52h47q2 25 6 47.5t11 42.5Zm144 0q7-20 11-42.5t6-47.5h47q-6 29-23 52t-41 38ZM344-570q6-29 23-52t41-38q-7 20-11 42.5t-6 47.5h-47Zm107 0q3-41 12-66.5t17-36.5q8 11 17 36.5t12 66.5h-58Zm118 0q-2-25-6-47.5T552-660q24 15 41 38t23 52h-47ZM200-80q-17 0-28.5-11.5T160-120v-720q0-17 11.5-28.5T200-880h520q33 0 56.5 23.5T800-800v640q0 33-23.5 56.5T720-80H200Z"/>
</svg>
