<svg aria-hidden="true" viewBox="0 -960 960 960" fill="currentColor">
  <path d="M160-440q-50 0-85-35t-35-85q0-50 35-85t85-35q50 0 85 35t35 85q0 50-35 85t-85 35Zm555-35q-35-35-35-85t35-85q35-35 85-35t85 35q35 35 35 85t-35 85q-35 35-85 35t-85-35Zm-115-85q0 9-1 18t-4 18q-4 11-16.5 13.5T556-518L438-636q-9-9-7-21.5t13-17.5q9-3 18-4t18-1q50 0 85 35t35 85ZM120-200q-17 0-28.5-11.5T80-240q0-17 11.5-28.5T120-280h448L84-764q-11-11-11-28t11-28q11-11 28-11t28 11l680 680q11 11 11 28t-11 28q-11 11-28 11t-28-11L648-200H120Z"/>
</svg>
