<svg aria-hidden="true" viewBox="0 -960 960 960" fill="currentColor">
  <path d="M555-435q-35-35-35-85t35-85q35-35 85-35t85 35q35 35 35 85t-35 85q-35 35-85 35t-85-35ZM440-160q-17 0-28.5-11.5T400-200v-36q0-21 10-40t28-30q45-27 95.5-40.5T640-360q56 0 106.5 13.5T842-306q18 11 28 30t10 40v36q0 17-11.5 28.5T840-160H440Zm46-80h308q-35-20-74-30t-80-10q-41 0-80 10t-74 30Zm182.5-251.5Q680-503 680-520t-11.5-28.5Q657-560 640-560t-28.5 11.5Q600-537 600-520t11.5 28.5Q623-480 640-480t28.5-11.5ZM640-520Zm0 280ZM400-400H160q-17 0-28.5-11.5T120-440q0-17 11.5-28.5T160-480h240q17 0 28.5 11.5T440-440q0 17-11.5 28.5T400-400Zm160-320H160q-17 0-28.5-11.5T120-760q0-17 11.5-28.5T160-800h400q17 0 28.5 11.5T600-760q0 17-11.5 28.5T560-720ZM444-560H160q-17 0-28.5-11.5T120-600q0-17 11.5-28.5T160-640h320q-14 17-22.5 37T444-560Z"/>
</svg>
