<svg aria-hidden="true" viewBox="0 -960 960 960" fill="currentColor">
  <path d="M560-440q50 0 85-35t35-85q0-50-35-85t-85-35q-50 0-85 35t-35 85q0 50 35 85t85 35ZM280-320q-33 0-56.5-23.5T200-400v-320q0-33 23.5-56.5T280-800h560q33 0 56.5 23.5T920-720v320q0 33-23.5 56.5T840-320H280ZM120-160q-33 0-56.5-23.5T40-240v-400q0-17 11.5-28.5T80-680q17 0 28.5 11.5T120-640v400h640q17 0 28.5 11.5T800-200q0 17-11.5 28.5T760-160H120Zm160-480q33 0 56.5-23.5T360-720h-80v80Zm560 0v-80h-80q0 33 23.5 56.5T840-640ZM280-400h80q0-33-23.5-56.5T280-480v80Zm480 0h80v-80q-33 0-56.5 23.5T760-400Z"/>
</svg>
