<svg aria-hidden="true" viewBox="0 -960 960 960" fill="currentColor">
  <path d="M538.5-138.5Q480-197 480-280t58.5-141.5Q597-480 680-480t141.5 58.5Q880-363 880-280t-58.5 141.5Q763-80 680-80t-141.5-58.5ZM700-288v-92q0-8-6-14t-14-6q-8 0-14 6t-6 14v91q0 8 3 15.5t9 13.5l61 61q6 6 14 6t14-6q6-6 6-14t-6-14l-61-61ZM200-120q-33 0-56.5-23.5T120-200v-560q0-33 23.5-56.5T200-840h167q11-35 43-57.5t70-22.5q40 0 71.5 22.5T594-840h166q33 0 56.5 23.5T840-760v160q0 17-11.5 28.5T800-560q-17 0-28.5-11.5T760-600v-160h-80v80q0 17-11.5 28.5T640-640H320q-17 0-28.5-11.5T280-680v-80h-80v560h180q17 0 28.5 11.5T420-160q0 17-11.5 28.5T380-120H200Zm308.5-651.5Q520-783 520-800t-11.5-28.5Q497-840 480-840t-28.5 11.5Q440-817 440-800t11.5 28.5Q463-760 480-760t28.5-11.5Z"/>
</svg>
