<svg aria-hidden="true" viewBox="0 -960 960 960" fill="currentColor">
  <path d="M32.587-193.304v-75.109q0-36.224 18.742-66.589 18.743-30.365 49.801-46.346 62.718-31.239 127.664-46.978 64.947-15.739 131.923-15.739 67.435 0 132.392 15.619 64.956 15.62 127.195 46.859 31.059 15.947 49.802 46.245 18.742 30.299 18.742 66.929v75.109q0 19.152-13.174 32.326t-32.326 13.174H78.087q-19.152 0-32.326-13.174t-13.174-32.326Zm718.218 45.5q9.956-7.957 15.793-19.86 5.837-11.903 5.837-26.64v-81.392q0-44.956-24.261-86.652-24.261-41.695-69.978-74.282 48.369 6.478 91.456 20.619t81.131 34.424q36.956 20 56.793 47.204 19.837 27.204 19.837 59.405v81.674q0 19.152-13.174 32.326t-32.326 13.174H750.805ZM360.717-484.065q-67.913 0-115.989-48.076-48.076-48.077-48.076-115.99t48.076-115.989q48.076-48.076 115.989-48.076 67.913 0 115.99 48.076 48.076 48.076 48.076 115.989 0 67.913-48.076 115.99-48.077 48.076-115.99 48.076Zm411.718-164.068q0 67.676-48.183 115.872t-115.844 48.196q-11.277 0-28.038-2.62-16.761-2.619-28.718-6.098 27.479-32.478 42.098-72.399 14.62-39.921 14.62-82.913t-14.62-82.949Q579.131-771 551.652-803.479q14.239-5.239 28.239-6.978 14-1.739 28.366-1.739 67.723 0 115.951 48.194 48.227 48.193 48.227 115.869ZM123.587-238.804h474.261v-28.413q0-10.768-5.5-19.578-5.5-8.81-14.5-13.705Q525.283-326.543 471-339.804q-54.283-13.261-110.283-13.261-55.521 0-110.282 13.261-54.761 13.261-106.848 39.304-9 4.895-14.5 13.705t-5.5 19.578v28.413Zm237.092-332.675q31.604 0 54.147-22.505 22.544-22.505 22.544-54.109 0-31.603-22.506-54.146-22.505-22.544-54.109-22.544-31.603 0-54.146 22.506-22.544 22.505-22.544 54.108 0 31.604 22.506 54.147 22.505 22.543 54.108 22.543Zm.038 332.675Zm0-409.327Z"/>
</svg>
