<svg aria-hidden="true" viewBox="0 -960 960 960" fill="currentColor">
  <path d="M32.587-193.304v-75.109q0-36.152 18.695-66.565 18.696-30.413 49.848-46.37 62.718-31.239 127.674-46.978 64.957-15.739 131.913-15.739 67.435 0 132.392 15.619 64.956 15.62 127.195 46.859 31.153 15.957 49.848 46.25 18.696 30.294 18.696 66.924v75.109q0 19.152-13.174 32.326t-32.326 13.174H78.087q-19.152 0-32.326-13.174t-13.174-32.326Zm718.218 45.5q9.956-7.957 15.793-19.891 5.837-11.935 5.837-26.609v-81.392q0-44.956-24.261-86.652-24.261-41.695-69.978-74.282 48.369 6.478 91.456 20.619t81.131 34.424q36.956 20 56.793 47.25 19.837 27.25 19.837 59.359v81.674q0 19.152-13.174 32.326t-32.326 13.174H750.805ZM360.717-484.065q-67.913 0-115.989-48.076-48.076-48.077-48.076-115.99t48.076-115.989q48.076-48.076 115.989-48.076 67.913 0 115.99 48.076 48.076 48.076 48.076 115.989 0 67.913-48.076 115.99-48.077 48.076-115.99 48.076Zm411.718-164.066q0 67.674-48.196 115.87-48.195 48.196-115.869 48.196-11.239 0-28-2.62-16.761-2.619-28.718-6.098 27.479-32.478 42.098-72.435 14.62-39.956 14.62-82.913 0-42.956-14.62-82.913-14.619-39.956-42.098-72.435 14.239-5.239 28.239-6.978 14-1.739 28.479-1.739 67.674 0 115.869 48.196 48.196 48.195 48.196 115.869Z"/>
</svg>
