<svg aria-hidden="true" viewBox="0 -960 960 960" fill="currentColor">
  <path d="M480-240q-56 0-107 17.5T280-170v10h400v-10q-42-35-93-52.5T480-240Zm-280 34q54-53 125.5-83.5T480-320q83 0 154.5 30.5T760-206v-514H200v514Zm181-235q-41-41-41-99t41-99q41-41 99-41t99 41q41 41 41 99t-41 99q-41 41-99 41t-99-41Zm141.5-56.5Q540-515 540-540t-17.5-42.5Q505-600 480-600t-42.5 17.5Q420-565 420-540t17.5 42.5Q455-480 480-480t42.5-17.5ZM200-80q-33 0-56.5-23.5T120-160v-560q0-33 23.5-56.5T200-800h40v-40q0-17 11.5-28.5T280-880q17 0 28.5 11.5T320-840v40h320v-40q0-17 11.5-28.5T680-880q17 0 28.5 11.5T720-840v40h40q33 0 56.5 23.5T840-720v560q0 33-23.5 56.5T760-80H200Zm280-460Zm0 380h200-400 200Z"/>
</svg>
