<svg aria-hidden="true" viewBox="0 -960 960 960" fill="currentColor">
  <path d="M162.87-111.869q-37.783 0-64.392-26.609Q71.87-165.087 71.87-202.87v-474.26q0-37.783 26.61-64.392 26.608-26.609 64.391-26.609h118.826l50.478-52.326q12.435-12.956 29.609-20.315 17.174-7.359 35.608-7.359H562.61q18.434 0 35.608 7.359 17.174 7.359 29.609 20.315l50.478 52.326H797.13q37.783 0 64.392 26.609 26.609 26.609 26.609 64.392v474.26q0 37.783-26.609 64.392-26.609 26.609-64.392 26.609H520V-241.37q78.478-12 132.359-67 53.88-55 63.641-123.282 3-18.239-8.88-31.978-11.881-13.74-30.881-13.74-14.478 0-25.359 10.24Q640-456.891 636-442.413q-11.239 51.565-54.739 86.989Q537.761-320 480-320q-57.522 0-101.022-34.924-43.5-34.924-54.978-87.489-4-14.478-14.88-24.717-10.881-10.24-25.359-10.24-19 0-30.881 13.74Q241-449.891 244-431.652q10 68.282 64 123.282t132 67v129.501H162.87ZM480-397.37q33 0 56.5-23.5t23.5-56.5v-160q0-33-23.5-56.5t-56.5-23.5q-33 0-56.5 23.5t-23.5 56.5v160q0 33 23.5 56.5t56.5 23.5Z"/>
</svg>
