<svg aria-hidden="true" viewBox="0 -960 960 960" fill="currentColor">
  <path d="M480-153q-15 0-30-6t-27-18L57-543q-24-24-23.5-57.5T59-654q90-72 198-109t223-37q115 0 223 37t198 109q25 20 25.5 53.5T903-543L537-177q-12 12-27 18t-30 6Zm0-81 364-364q-79-60-172-91t-192-31q-99 0-192 31t-172 91l364 364Zm0-126q17 0 28.5-11.5T520-400v-120q0-17-11.5-28.5T480-560q-17 0-28.5 11.5T440-520v120q0 17 11.5 28.5T480-360Zm0-240q17 0 28.5-11.5T520-640q0-17-11.5-28.5T480-680q-17 0-28.5 11.5T440-640q0 17 11.5 28.5T480-600Zm0 366Z"/>
</svg>
