<svg aria-hidden="true" viewBox="0 -960 960 960" fill="currentColor">
  <path d="M162.87-111.869q-37.783 0-64.392-26.609Q71.87-165.087 71.87-202.87v-474.26q0-37.783 26.61-64.392 26.608-26.609 64.391-26.609h118.826l50.478-52.326q12.435-12.956 29.609-20.315 17.174-7.359 35.608-7.359H562.61q18.434 0 35.608 7.359 17.174 7.359 29.609 20.315l50.478 52.326H797.13q37.783 0 64.392 26.609 26.609 26.609 26.609 64.392v474.26q0 37.783-26.609 64.392-26.609 26.609-64.392 26.609H645.5q-19.152 0-32.326-13.174T600-157.37q0-19.152 13.174-32.326T645.5-202.87h151.63v-474.26H638.717l-75.63-80H397.63l-77.065 80H162.87v474.26H314.5q19.152 0 32.326 13.174T360-157.37q0 19.153-13.174 32.327T314.5-111.869H162.87ZM480-320q-58 0-101.5-34.804-43.5-34.805-54.5-87.609-3.963-14.394-14.862-24.675-10.899-10.282-25.377-10.282-18.887 0-30.824 13.716Q241-449.939 244-431.652q15.522 74.043 68.641 126.543 53.12 52.5 127.359 63.739v89.501q0 17 11.5 28.5t28.5 11.5q17 0 28.5-11.5t11.5-28.5v-89.501q74.239-11.239 127.359-63.739 53.119-52.5 68.641-126.543 3-18.287-8.937-32.002-11.937-13.716-30.824-13.716-14.478 0-25.377 10.282-10.899 10.281-14.862 24.675-11 51.804-54.5 87.109Q538-320 480-320Zm0-77.37q33 0 56.5-23.5t23.5-56.5v-160q0-33-23.5-56.5t-56.5-23.5q-33 0-56.5 23.5t-23.5 56.5v160q0 33 23.5 56.5t56.5 23.5Zm-317.13 194.5h634.26-634.26Z"/>
</svg>
