<svg aria-hidden="true" viewBox="0 -960 960 960" fill="currentColor">
  <path d="m130.043-130.043 699.153-699.153q16.152-16.152 37.163-7.576 21.011 8.576 21.011 31.446v320q-21.392-10.195-44.142-16.054-22.75-5.859-46.858-8.141v-158.305L291.413-162.87h194.348q4.565 24.87 13.848 47.62 9.282 22.75 21.521 43.38H153.913q-22.87 0-31.446-21.01-8.576-21.011 7.576-37.163Zm161.37-32.827L796.37-667.826 543.891-415.348 291.413-162.87Zm419.935 81.762q-11.044-4.522-21.065-9.902-10.022-5.38-20.305-12.663l-27.804 8.76q-13.956 4.24-27.533-1-13.576-5.239-21.054-17.434l-8.478-14.957q-7.479-12.956-5.239-28.033 2.239-15.076 13.956-24.793l21.044-18.044q-2-11.043-2-24.565 0-13.521 2-24.565l-21.044-18.283q-11.717-9.717-13.956-24.173-2.24-14.457 5.239-27.414l9.478-15.956q7.478-11.957 20.435-17.315 12.956-5.359 26.913-1.12l28.043 8.761q10.283-7.283 20.305-12.544 10.021-5.26 21.065-9.782l5.761-27.804q3.239-14.957 14.576-24.174 11.337-9.218 26.293-9.218h17.435q14.957 0 26.294 9.598t14.576 24.554l5.761 27.044q11.043 4.522 21.065 9.782 10.022 5.261 20.304 12.544l27.805-8.522q13.956-4.239 27.293 1t20.815 17.196l8.718 14.956q7.717 12.957 5.358 28.033-2.358 15.076-14.076 24.794l-21.043 18.043q2 11.044 2 24.565 0 13.522-2 24.565l21.043 18.044q11.718 9.717 14.076 24.413 2.359 14.696-5.358 27.652l-9.239 15.718q-7.479 12.195-20.674 17.315-13.196 5.12-27.153.88l-27.565-8.521q-10.282 7.282-20.304 12.663-10.022 5.38-21.065 9.902l-5.761 27.804q-3.239 14.957-14.576 24.174-11.337 9.217-26.294 9.217h-17.435q-15.195 0-26.413-9.597-11.217-9.598-14.456-24.555l-5.761-27.043Zm55.348-64.305q32.043 0 55.065-23.141t23.022-55.185q0-32.043-23.022-55.065t-55.065-23.022q-32.044 0-55.185 23.022-23.141 23.022-23.141 55.065 0 32.044 23.141 55.185 23.141 23.141 55.185 23.141Z"/>
</svg>
