<svg aria-hidden="true" viewBox="0 -960 960 960" fill="currentColor">
  <path d="M423-177 61-539q-12-12-18-27t-6-30q0-17 7-32.5T65-656q82-71 195-107.5T480-800q107 0 220 36.5T895-656q14 12 21 27.5t7 32.5q0 15-6 30t-18 27L537-177q-12 12-27 18t-30 6q-15 0-30-6t-27-18Zm17-223q0 17 11.5 28.5T480-360q17 0 28.5-11.5T520-400v-120q0-17-11.5-28.5T480-560q-17 0-28.5 11.5T440-520v120Zm68.5-211.5Q520-623 520-640t-11.5-28.5Q497-680 480-680t-28.5 11.5Q440-657 440-640t11.5 28.5Q463-600 480-600t28.5-11.5Z"/>
</svg>
