<svg aria-hidden="true" viewBox="0 -960 960 960" fill="currentColor">
  <path d="M160-120q-33 0-56.5-23.5T80-200v-480q0-33 23.5-56.5T160-760h126l50-54q11-12 26.5-19t32.5-7h170q17 0 32.5 7t26.5 19l50 54h126q33 0 56.5 23.5T880-680v480q0 33-23.5 56.5T800-120H640q-17 0-28.5-11.5T600-160q0-17 11.5-28.5T640-200h160v-480H638l-73-80H395l-73 80H160v480h160q17 0 28.5 11.5T360-160q0 17-11.5 28.5T320-120H160Zm320-200q-58 0-101.5-36T324-446q-4-14-15-24t-25-10q-19 0-31 13.5t-9 31.5q16 75 69 127.5T440-244v84q0 17 11.5 28.5T480-120q17 0 28.5-11.5T520-160v-84q74-11 127-63.5T716-435q3-18-9-31.5T676-480q-14 0-25 10t-15 24q-11 53-54.5 89.5T480-320Zm0-80q33 0 56.5-23.5T560-480v-160q0-33-23.5-56.5T480-720q-33 0-56.5 23.5T400-640v160q0 33 23.5 56.5T480-400ZM160-200h640-640Z"/>
</svg>
