<svg aria-hidden="true" viewBox="0 -960 960 960" fill="currentColor">
  <path d="M160-120q-33 0-56.5-23.5T80-200v-480q0-33 23.5-56.5T160-760h126l50-54q11-12 26.5-19t32.5-7h170q17 0 32.5 7t26.5 19l50 54h126q33 0 56.5 23.5T880-680v480q0 33-23.5 56.5T800-120H520v-124q78-12 132-67t64-124q3-18-9-31.5T676-480q-14 0-25 10t-15 24q-11 53-54.5 89.5T480-320q-58 0-101.5-36T324-446q-4-14-15-24t-25-10q-19 0-31 13.5t-9 31.5q10 69 64 124t132 67v124H160Zm320-280q33 0 56.5-23.5T560-480v-160q0-33-23.5-56.5T480-720q-33 0-56.5 23.5T400-640v160q0 33 23.5 56.5T480-400Z"/>
</svg>
