<svg aria-hidden="true" viewBox="0 -960 960 960" fill="currentColor">
  <path d="M770.652-74.913 697-147.804H197.37q-19.153 0-32.327-13.174t-13.174-32.326v-75.109q0-36.224 18.743-66.589 18.742-30.365 49.801-46.346 44.761-22.761 91.022-36.761 46.261-14 94.261-21.239L74.152-770.652q-12.478-12.479-12.098-29.316.38-16.837 12.884-29.315 12.504-12.478 29.696-12.478t29.67 12.478l695.74 695.74q12.478 12.587 12.478 29.369 0 16.783-12.503 29.261-12.504 12.478-29.696 12.478t-29.671-12.478ZM242.87-238.804H606L492.218-352.587q-3.435-.239-6.109-.358-2.674-.12-6.109-.12-55.522 0-110.283 13.261-54.76 13.261-106.847 39.304-9 4.895-14.5 13.705t-5.5 19.578v28.413Zm496.717-142.783q29.957 14.717 48.033 43.696 18.076 28.978 20.032 63.174L671.5-410.87q17.761 6.761 34.698 13.616 16.936 6.854 33.389 15.667Zm-168-129.196-68.326-68.326q23.717-7.326 38.793-27.587t15.076-45.5q0-31.718-22.657-54.304-22.657-22.587-54.473-22.587-25.239 0-45.5 14.956-20.261 14.957-27.587 38.674l-68.326-68.326q23.717-36.152 60.828-56.228 37.112-20.076 80.585-20.076 69.587 0 118.859 49.152 49.272 49.152 49.272 118.84 0 43.29-20.196 80.443-20.196 37.152-56.348 60.869ZM606-238.804H242.87 606ZM455.087-627.283Z"/>
</svg>
