<svg aria-hidden="true" viewBox="0 -960 960 960" fill="currentColor">
  <path d="m760.413-83.326-78.608-77.608q-5.044 6.565-11.499 9.847-6.454 3.283-14.523 3.283H78.804q-19.152 0-32.326-13.174t-13.174-32.326v-75.109q0-36.224 18.743-66.589 18.742-30.365 49.801-46.346 62.239-31.239 126.712-46.978 64.474-15.739 130.962-15.739 10.848 0 20.956.5 10.109.5 19.957 1.261l-43.196-43.435h-6.565q-63.131-2.631-108.098-47.718t-47.598-107.978V-648L83.043-759.696q-12.478-12.587-11.978-29.369.5-16.783 12.978-29.261 12.479-12.478 29.768-12.478t29.863 12.478l676.369 676.369q12.479 12.587 12.479 29.37t-12.479 29.261q-12.478 12.478-29.767 12.478t-29.863-12.478Zm5.805-326.957q-17.814 0-29.864-12.05t-12.05-29.863v-76.174h-76.173q-17.813 0-29.863-12.05t-12.05-29.863q0-17.813 12.05-29.863t29.863-12.05h76.173v-76.174q0-17.813 12.05-29.863t29.864-12.05q17.813 0 29.863 12.05t12.05 29.863v76.174h76.173q17.813 0 29.863 12.05 12.051 12.05 12.051 29.863t-12.051 29.863q-12.05 12.05-29.863 12.05h-76.173v76.174q0 17.813-12.05 29.863t-29.863 12.05ZM505.674-570.087l-70.457-70.457q1.196-2.195 2.272-5.228 1.076-3.033 1.076-6.424 0-31.718-22.657-54.304-22.657-22.587-54.473-22.587-3.392 0-6.185.837-2.794.837-5.228 2.272l-70.457-70.218q16.913-11.587 38.361-17.739 21.448-6.152 43.509-6.152 69.587 0 118.859 49.152 49.271 49.152 49.271 118.739 0 22.065-6.271 43.87-6.272 21.804-17.62 38.239Zm-381.37 331.283H597.37v-6.566l-81.457-81.695q-37.761-12.522-76.761-19.261-39-6.739-77.717-6.739-55.522 0-110.283 13.38-54.761 13.381-106.848 39.185-9 4.895-14.5 13.705t-5.5 19.578v28.413Zm310.913-401.74Zm-74.26 287.479Z"/>
</svg>
