<svg aria-hidden="true" viewBox="0 -960 960 960" fill="currentColor">
  <path d="M480-240ZM224-378q62-31 126-46.5T480-440q4 0 7-.5t7 .5q17 4 25.5 19t3.5 32q-5 17-19.5 23.5T472-360q-54-3-107.5 12.5T260-306q-9 5-14.5 14t-5.5 20v32h266q20 0 30 12.5t10 27.5q0 15-10 27.5T506-160H240q-33 0-56.5-23.5T160-240v-32q0-34 17.5-62.5T224-378Zm143-149q-47-47-47-113t47-113q47-47 113-47t113 47q47 47 47 113t-47 113q-47 47-113 47t-113-47Zm169.5-56.5Q560-607 560-640t-23.5-56.5Q513-720 480-720t-56.5 23.5Q400-673 400-640t23.5 56.5Q447-560 480-560t56.5-23.5ZM480-640Zm236 248q20-20 36.5-34t45.5-14q37 0 59.5 25.5T880-357q0 15-6 30t-18 27L744-188q-12 12-28 12t-28-12L576-300q-13-13-18.5-28t-5.5-30q0-32 23-57t59-25q28 0 44 13t38 35Z"/>
</svg>
