<svg aria-hidden="true" viewBox="0 -960 960 960" fill="currentColor">
  <path d="m760.413-83.326-78.608-77.608q-5.044 6.565-11.499 9.847-6.454 3.283-14.523 3.283H78.804q-19.152 0-32.326-13.174t-13.174-32.326v-75.109q0-36.224 18.743-66.589 18.742-30.365 49.801-46.346 62.239-31.239 126.712-46.978 64.474-15.739 130.962-15.739 10.848 0 20.956.5 10.109.5 19.957 1.261l-43.196-43.435h-6.565q-63.131-2.631-108.098-47.718t-47.598-107.978V-648L83.043-759.696q-12.478-12.587-11.978-29.369.5-16.783 12.978-29.261 12.479-12.478 29.768-12.478t29.863 12.478l676.369 676.369q12.479 12.587 12.479 29.37t-12.479 29.261q-12.478 12.478-29.767 12.478t-29.863-12.478Zm5.805-326.957q-17.814 0-29.864-12.05t-12.05-29.863v-76.174h-76.173q-17.813 0-29.863-12.05t-12.05-29.863q0-17.813 12.05-29.863t29.863-12.05h76.173v-76.174q0-17.813 12.05-29.863t29.864-12.05q17.813 0 29.863 12.05t12.05 29.863v76.174h76.173q17.813 0 29.863 12.05 12.051 12.05 12.051 29.863t-12.051 29.863q-12.05 12.05-29.863 12.05h-76.173v76.174q0 17.813-12.05 29.863t-29.863 12.05ZM505.674-570.087 279.565-796.196q16.913-11.587 38.361-17.739 21.448-6.152 43.509-6.152 69.587 0 118.859 49.152 49.271 49.152 49.271 118.739 0 22.065-6.271 43.87-6.272 21.804-17.62 38.239Z"/>
</svg>
