<svg aria-hidden="true" viewBox="0 -960 960 960" fill="currentColor">
  <path d="M197.37-147.804q-19.153 0-32.327-13.174t-13.174-32.326v-75.109q0-36.152 18.696-66.565 18.696-30.413 49.848-46.37 44.761-22.761 91.022-36.761 46.261-14 94.261-21.239L74.152-770.652q-12.478-12.479-12.098-29.316.38-16.837 12.859-29.315 12.478-12.478 29.696-12.478 17.217 0 29.695 12.478l695.74 695.74q12.478 12.478 12.478 29.315 0 16.837-12.478 29.315-12.479 12.478-29.696 12.478-17.217 0-29.696-12.478L697-147.804H197.37Zm610.282-126.913L671.5-410.87q17.761 6.761 34.663 13.642 16.902 6.88 33.424 15.641 29.957 14.717 48.033 43.696 18.076 28.978 20.032 63.174ZM571.587-510.783l-233-233q23.717-36.152 60.869-56.228 37.153-20.076 80.544-20.076 69.587 0 118.859 49.152 49.272 49.152 49.272 118.739 0 43.391-20.196 80.544-20.196 37.152-56.348 60.869Z"/>
</svg>
