<svg aria-hidden="true" viewBox="0 -960 960 960" fill="currentColor">
  <path d="M766.218-410.283q-17.814 0-29.864-12.05t-12.05-29.863v-76.174h-76.173q-17.813 0-29.863-12.05t-12.05-29.863q0-17.813 12.05-29.863t29.863-12.05h76.173v-76.174q0-17.813 12.05-29.863t29.864-12.05q17.813 0 29.863 12.05t12.05 29.863v76.174h76.173q17.813 0 29.863 12.05 12.051 12.05 12.051 29.863t-12.051 29.863q-12.05 12.05-29.863 12.05h-76.173v76.174q0 17.813-12.05 29.863t-29.863 12.05Zm-404.783-73.782q-69.587 0-118.859-49.272-49.272-49.272-49.272-118.859 0-69.587 49.272-118.739t118.859-49.152q69.587 0 118.859 49.152 49.271 49.152 49.271 118.739t-49.271 118.859q-49.272 49.272-118.859 49.272ZM78.805-147.804q-19.153 0-32.327-13.174t-13.174-32.326v-75.109q0-36.224 18.743-66.589 18.742-30.365 49.801-46.346 62.717-31.239 127.664-46.978t131.923-15.739q67.435 0 132.391 15.619 64.957 15.62 127.196 46.859 31.059 15.947 49.801 46.245 18.742 30.299 18.742 66.929v75.109q0 19.152-13.174 32.326-13.173 13.174-32.326 13.174H78.805Zm45.499-91h474.261v-28.413q0-10.768-5.5-19.578-5.5-8.81-14.5-13.705Q526-326.543 471.717-339.804q-54.282-13.261-110.282-13.261-55.522 0-110.283 13.261T144.304-300.5q-9 4.895-14.5 13.705t-5.5 19.578v28.413Zm237.122-336.262q31.813 0 54.476-22.654 22.663-22.655 22.663-54.467 0-31.813-22.654-54.357-22.655-22.543-54.468-22.543-31.813 0-54.476 22.587-22.663 22.586-22.663 54.304 0 31.816 22.655 54.473t54.467 22.657Zm.009-77.13Zm0 299.131Z"/>
</svg>
