<svg aria-hidden="true" viewBox="0 -960 960 960" fill="currentColor">
  <path d="M192-492 92-592q-12-12-12-28t12-28l100-100q12-12 28-12t28 12l100 100q12 12 12 28t-12 28L248-492q-12 12-28 12t-28-12ZM400-80q-17 0-28.5-11.5T360-120v-160q-50-4-99-11t-98-18q-17-4-27.5-19t-5.5-32q5-17 20.5-25t32.5-4q73 17 147.5 23t149.5 6q75 0 149.5-6T777-389q17-4 32.5 4t20.5 25q5 17-5.5 32T797-309q-49 11-98 18t-99 11v160q0 17-11.5 28.5T560-80H400ZM220-576l44-44-44-44-44 44 44 44Zm175-139q-35-35-35-85t35-85q35-35 85-35t85 35q35 35 35 85t-35 85q-35 35-85 35t-85-35Zm28.5 291.5Q400-447 400-480t23.5-56.5Q447-560 480-560t56.5 23.5Q560-513 560-480t-23.5 56.5Q513-400 480-400t-56.5-23.5Zm85-348Q520-783 520-800t-11.5-28.5Q497-840 480-840t-28.5 11.5Q440-817 440-800t11.5 28.5Q463-760 480-760t28.5-11.5ZM671-500l-46-80q-5-9-5-20t5-20l46-80q5-10 14-15t20-5h90q11 0 20 5t14 15l46 80q5 9 5 20t-5 20l-46 80q-5 10-14 15t-20 5h-90q-11 0-20-5t-14-15Zm57-60h44l22-40-22-40h-44l-22 40 22 40Zm-508-60Zm260-180Zm270 200Z"/>
</svg>
