<svg aria-hidden="true" viewBox="0 -960 960 960" fill="currentColor">
  <path d="M687.413-528.37q-18.435 0-31.13-12.695-12.696-12.696-12.696-31.131 0-18.435 12.696-31.011 12.695-12.576 31.13-12.576h160q18.435 0 31.011 12.576T891-572.196q0 18.435-12.576 31.131-12.576 12.695-31.011 12.695h-160Zm-326.696 44.305q-69.587 0-118.858-49.272-49.272-49.272-49.272-118.859 0-69.587 49.272-118.739 49.271-49.152 118.858-49.152t118.859 49.152q49.272 49.152 49.272 118.739t-49.272 118.859q-49.272 49.272-118.859 49.272ZM78.087-147.804q-19.152 0-32.326-13.174t-13.174-32.326v-75.109q0-36.152 18.695-66.565 18.696-30.413 49.848-46.37 62.718-31.239 127.674-46.978 64.957-15.739 131.913-15.739 67.435 0 132.392 15.619 64.956 15.62 127.195 46.859 31.153 15.957 49.848 46.25 18.696 30.294 18.696 66.924v75.109q0 19.152-13.174 32.326t-32.326 13.174H78.087Z"/>
</svg>
