<svg aria-hidden="true" viewBox="0 -960 960 960" fill="currentColor">
  <path d="M720-520h-80q-17 0-28.5-11.5T600-560q0-17 11.5-28.5T640-600h80v-80q0-17 11.5-28.5T760-720q17 0 28.5 11.5T800-680v80h80q17 0 28.5 11.5T920-560q0 17-11.5 28.5T880-520h-80v80q0 17-11.5 28.5T760-400q-17 0-28.5-11.5T720-440v-80Zm-473-7q-47-47-47-113t47-113q47-47 113-47t113 47q47 47 47 113t-47 113q-47 47-113 47t-113-47ZM40-240v-32q0-34 17.5-62.5T104-378q62-31 126-46.5T360-440q66 0 130 15.5T616-378q29 15 46.5 43.5T680-272v32q0 33-23.5 56.5T600-160H120q-33 0-56.5-23.5T40-240Z"/>
</svg>
