<svg aria-hidden="true" viewBox="0 -960 960 960" fill="currentColor">
  <path d="M760-400q-17 0-28.5-11.5T720-440v-80h-80q-17 0-28.5-11.5T600-560q0-17 11.5-28.5T640-600h80v-80q0-17 11.5-28.5T760-720q17 0 28.5 11.5T800-680v80h80q17 0 28.5 11.5T920-560q0 17-11.5 28.5T880-520h-80v80q0 17-11.5 28.5T760-400Zm-400-80q-66 0-113-47t-47-113q0-66 47-113t113-47q66 0 113 47t47 113q0 66-47 113t-113 47ZM80-160q-17 0-28.5-11.5T40-200v-72q0-34 17.5-62.5T104-378q62-31 126-46.5T360-440q66 0 130 15.5T616-378q29 15 46.5 43.5T680-272v72q0 17-11.5 28.5T640-160H80Z"/>
</svg>
