<svg aria-hidden="true" viewBox="0 -960 960 960" fill="currentColor">
  <path d="M440-484.065q-69.354 0-118.742-49.387-49.389-49.388-49.389-118.74t49.388-118.624q49.387-49.271 118.739-49.271t118.624 49.318q49.271 49.318 49.271 118.573 0 69.354-49.318 118.742Q509.255-484.065 440-484.065ZM855.283-40.587l-93.065-93.304q-20.761 11.761-44.532 19.283-23.77 7.521-50.512 7.521-77.292 0-131.396-54.104-54.104-54.104-54.104-131.396 0-77.292 54.104-131.396 54.104-54.104 131.396-54.104 77.292 0 131.396 54.104 54.104 54.104 54.104 131.396 0 26.656-7.402 50.35-7.402 23.694-19.163 44.455l93.065 93.304q12.913 12.913 13.033 31.945.119 19.033-12.794 31.946t-32.185 12.913q-19.271 0-31.945-12.913Zm-188.166-157.5q39.666 0 67.111-27.388 27.446-27.389 27.446-67.055 0-39.665-27.388-67.111-27.389-27.446-67.055-27.446-39.666 0-67.111 27.389-27.446 27.388-27.446 67.054t27.389 67.111q27.388 27.446 67.054 27.446ZM202.87-147.804q-37.783 0-64.392-26.609-26.609-26.609-26.609-64.391v-28.609q0-36.204 18.144-67.083 18.143-30.88 50.161-46.852 51.239-26.239 119.065-44.239 67.826-18 150.848-18-23.587 32.674-35.761 70.978-12.174 38.304-12.174 79.305 0 38.474 10.859 75.389t31.815 70.111H202.87Z"/>
</svg>
