<svg aria-hidden="true" viewBox="0 -960 960 960" fill="currentColor">
  <path d="M480-240Zm-320 40v-72q0-34 17.5-62.5T224-378q62-31 126-46.5T480-440q37 0 73 4.5t72 14.5l-67 68q-20-3-39-5t-39-2q-56 0-111 13.5T260-306q-9 5-14.5 14t-5.5 20v32h240v80H200q-17 0-28.5-11.5T160-200Zm400 40v-50q0-16 6.5-30.5T584-266l197-197q9-9 20-13t22-4q12 0 23 4.5t20 13.5l37 37q8 9 12.5 20t4.5 22q0 11-4 22.5T903-340L706-143q-11 11-25.5 17t-30.5 6h-50q-17 0-28.5-11.5T560-160Zm300-223-37-37 37 37ZM620-180h38l121-122-18-19-19-18-122 121v38Zm141-141-19-18 37 37-18-19ZM367-527q-47-47-47-113t47-113q47-47 113-47t113 47q47 47 47 113t-47 113q-47 47-113 47t-113-47Zm169.5-56.5Q560-607 560-640t-23.5-56.5Q513-720 480-720t-56.5 23.5Q400-673 400-640t23.5 56.5Q447-560 480-560t56.5-23.5ZM480-640Z"/>
</svg>
