<svg aria-hidden="true" viewBox="0 -960 960 960" fill="currentColor">
  <path d="M480-240q-56 0-107 17.5T280-170v10h400v-10q-42-35-93-52.5T480-240Zm129-59q60 21 111 59v-560H240v560q51-38 111-59t129-21q69 0 129 21ZM437.5-497.5Q420-515 420-540t17.5-42.5Q455-600 480-600t42.5 17.5Q540-565 540-540t-17.5 42.5Q505-480 480-480t-42.5-17.5ZM240-80q-33 0-56.5-23.5T160-160v-640q0-33 23.5-56.5T240-880h480q33 0 56.5 23.5T800-800v640q0 33-23.5 56.5T720-80H240Zm339-361q41-41 41-99t-41-99q-41-41-99-41t-99 41q-41 41-41 99t41 99q41 41 99 41t99-41Zm-99-99Z"/>
</svg>
