<svg aria-hidden="true" viewBox="0 -960 960 960" fill="currentColor">
  <path d="M706.5-84.5Q700-86 694-88q-62-25-98-83t-36-127v-77q0-11 5.5-21t16.5-15l120-60q8-5 18-5t18 5l120 60q11 5 16.5 15t5.5 21v77q0 69-36 127t-98 83q-6 2-12.5 3.5T720-83q-7 0-13.5-1.5ZM240-160q-33 0-56.5-23.5T160-240v-32q0-34 17.5-62.5T224-378q50-25 103-40t108-20q19-2 32 11t13 32v97q0 22 3 43.5t9 42.5q5 20-6 36t-30 16H240Zm127-367q-47-47-47-113t47-113q47-47 113-47t113 47q47 47 47 113t-47 113q-47 47-113 47t-113-47Z"/>
</svg>
