<svg aria-hidden="true" viewBox="0 -960 960 960" fill="currentColor">
  <path d="m780-523-56 55q-11 11-27.5 11.5T668-468q-11-11-11-28t11-28l55-56-55-55q-11-11-11-27.5t11-28.5q12-12 28.5-12t28.5 12l55 55 55-56q11-12 27.5-12t28.5 12q12 12 12 28.5T891-635l-55 55 56 56q12 12 11.5 28T891-468q-12 11-28 11.5T835-468l-55-55Zm-533-4q-47-47-47-113t47-113q47-47 113-47t113 47q47 47 47 113t-47 113q-47 47-113 47t-113-47ZM40-240v-32q0-34 17.5-62.5T104-378q62-31 126-46.5T360-440q66 0 130 15.5T616-378q29 15 46.5 43.5T680-272v32q0 33-23.5 56.5T600-160H120q-33 0-56.5-23.5T40-240Zm80 0h480v-32q0-11-5.5-20T580-306q-54-27-109-40.5T360-360q-56 0-111 13.5T140-306q-9 5-14.5 14t-5.5 20v32Zm296.5-343.5Q440-607 440-640t-23.5-56.5Q393-720 360-720t-56.5 23.5Q280-673 280-640t23.5 56.5Q327-560 360-560t56.5-23.5ZM360-640Zm0 400Z"/>
</svg>
