<svg aria-hidden="true" viewBox="0 -960 960 960" fill="currentColor">
  <path d="M771.5-531.5Q760-543 760-560t11.5-28.5Q783-600 800-600t28.5 11.5Q840-577 840-560t-11.5 28.5Q817-520 800-520t-28.5-11.5Zm0-120Q760-663 760-680v-120q0-17 11.5-28.5T800-840q17 0 28.5 11.5T840-800v120q0 17-11.5 28.5T800-640q-17 0-28.5-11.5ZM247-527q-47-47-47-113t47-113q47-47 113-47t113 47q47 47 47 113t-47 113q-47 47-113 47t-113-47ZM40-240v-32q0-34 17.5-62.5T104-378q62-31 126-46.5T360-440q66 0 130 15.5T616-378q29 15 46.5 43.5T680-272v32q0 33-23.5 56.5T600-160H120q-33 0-56.5-23.5T40-240Z"/>
</svg>
