<svg aria-hidden="true" viewBox="0 -960 960 960" fill="currentColor">
  <path d="M483.587-112.587q-91.674 0-161.109-58.098-69.435-58.097-82.587-148.293-74.869-14.718-122.88-72.272Q69-448.804 69-523.913q0-85.707 60.388-145.082 60.389-59.375 146.068-59.375h100q7.761 0 13.403-5.641 5.641-5.641 5.641-13.402 0-7.761-5.641-13.402-5.642-5.642-13.403-5.642h-60q-18.931 0-31.737-12.802-12.806-12.803-12.806-31.729 0-18.925 12.806-31.741 12.806-12.815 31.737-12.815h60q45.415 0 76.773 31.344 31.358 31.345 31.358 76.74 0 45.395-31.358 76.906-31.358 31.511-76.773 31.511h-100q-48.904 0-83.136 33.275-34.233 33.274-34.233 81.23 0 39.147 23 70.81 23 31.663 60.283 43.424 16.478-84.044 81.021-138.305 64.544-54.261 150.587-54.261 20.478 0 39.696 2.859 19.217 2.859 38.456 9.337-50.282 22.196-80.706 67.435Q440-478 440-423.239q0 29.531 8.424 57.679 8.424 28.147 26.032 50.19 5 5.957 12.479 7.913 7.478 1.957 14.361-2.804 8.03-4.761 9.367-13.978Q512-333.457 507-341.413q-12.14-16.473-17.776-36.606-5.637-20.133-5.637-41.742 0-60.008 41.487-101.199 41.487-41.192 101.187-41.192 58.898 0 100.025 41.131 41.127 41.132 41.127 99.021 0 24.998-8.978 48.434-8.978 23.436-26.696 41.153l119.783 106.891q12.425 11.485 20.191 25.58 7.765 14.094 7.765 30.572 0 25.116-20.935 40.95-20.934 15.833-48.847 15.833H483.587Zm194.5-82.391q18.435 0 31.13-12.696 12.696-12.696 12.696-31.13 0-18.435-12.696-31.011-12.695-12.576-31.13-12.576t-31.011 12.531Q634.5-257.329 634.5-238.804q0 18.434 12.531 31.13 12.531 12.696 31.056 12.696Z"/>
</svg>
