<svg aria-hidden="true" viewBox="0 -960 960 960" fill="currentColor">
  <path d="M781-480q0 22-5.5 42.5T759-398q-8 14-25 14.5T705-395q-12-12-12.5-28.5T697-457q2-5 3-11t1-12q0-6-1-12t-3-11q-5-17-4.5-33.5T705-565q12-12 28.5-12t24.5 14q11 19 17 39.5t6 43.5Zm140 0q0 50-16 96.5T859-298q-10 13-26.5 13.5T804-296q-11-11-11.5-28t9.5-31q19-27 29-59t10-66q0-34-10-66t-29-59q-10-14-9.5-31t11.5-28q12-12 28.5-11.5T859-662q30 39 46 85.5t16 96.5ZM280-40q-33 0-56.5-23.5T200-120v-720q0-33 23.5-56.5T280-920h400q33 0 56.5 23.5T760-840v160h-80v-40H280v480h400v-40h80v160q0 33-23.5 56.5T680-40H280Z"/>
</svg>
