<svg aria-hidden="true" viewBox="0 -960 960 960" fill="currentColor">
  <path d="M195.696-104.695q-37.783 0-64.392-26.609-26.609-26.609-26.609-64.392V-525.5H434.5q37.537 0 64.269 26.731Q525.5-472.037 525.5-434.5v329.805H195.696Zm-91.001-496.74v-82.869h91.001v82.869h-91.001Zm0-162.869q0-37.783 26.609-64.392 26.609-26.609 64.392-26.609v91.001h-91.001Zm92.435 567.652h237.131q13.913 0 20.391-12.554 6.478-12.555-2.239-23.99l-60.891-83.174q-5.957-9.434-17.945-9.434t-18.838 9.434l-59.522 78.522-39.043-51.804q-6.957-9.196-18.392-8.815-11.434.38-18.391 9.576l-41.413 55.695q-8.717 11.435-2.119 23.99 6.597 12.554 21.271 12.554Zm78.566-567.652v-91.001h82.869v91.001h-82.869Zm162.869 0v-91.001h82.87v91.001h-82.87Zm162.87 659.609v-91.001h82.869v91.001h-82.869Zm0-659.609v-91.001h82.869v91.001h-82.869Zm162.869 659.609v-91.001h91.001q0 37.783-26.609 64.392-26.609 26.609-64.392 26.609Zm0-171.001v-82.869h91.001v82.869h-91.001Zm0-162.869v-82.87h91.001v82.87h-91.001Zm0-162.87v-82.869h91.001v82.869h-91.001Zm0-162.869v-91.001q37.783 0 64.392 26.609 26.609 26.609 26.609 64.392h-91.001Z"/>
</svg>
