<svg aria-hidden="true" viewBox="0 -960 960 960" fill="currentColor">
  <path d="M200-120q-33 0-56.5-23.5T120-200v-320h320q33 0 56.5 23.5T520-440v320H200Zm-80-480v-80h80v80h-80Zm0-160q0-33 23.5-56.5T200-840v80h-80Zm80 560h240q12 0 18-11t-2-21l-64-87q-5-8-15.5-8t-16.5 8l-60 79-40-53q-6-8-16-7.5t-16 8.5l-45 60q-8 10-2 21t19 11Zm80-560v-80h80v80h-80Zm160 0v-80h80v80h-80Zm160 640v-80h80v80h-80Zm0-640v-80h80v80h-80Zm160 640v-80h80q0 33-23.5 56.5T760-120Zm0-160v-80h80v80h-80Zm0-160v-80h80v80h-80Zm0-160v-80h80v80h-80Zm0-160v-80q33 0 56.5 23.5T840-760h-80Z"/>
</svg>
