<svg aria-hidden="true" viewBox="0 -960 960 960" fill="currentColor">
  <path d="M200-120q-33 0-56.5-23.5T120-200v-480h480q33 0 56.5 23.5T680-600v480H200Zm40-120h320q12 0 18-11t-2-21l-96-127q-6-8-16-8t-16 8l-88 119-48-65q-6-8-16-8t-16 8l-56 73q-8 10-2.5 21t18.5 11ZM120-760q0-33 23.5-56.5T200-840v80h-80Zm320 0v-80h80v80h-80Zm320 0v-80q33 0 56.5 23.5T840-760h-80Zm-480 0v-80h80v80h-80Zm480 320v-80h80v80h-80Zm0 320v-80h80q0 33-23.5 56.5T760-120Zm0-480v-80h80v80h-80Zm0 320v-80h80v80h-80ZM600-760v-80h80v80h-80Z"/>
</svg>
