<svg aria-hidden="true" viewBox="0 -960 960 960" fill="currentColor">
  <path d="M195.696-104.695q-37.783 0-64.392-26.49-26.609-26.489-26.609-64.271v-488.848h488.609q37.538 0 64.269 26.731 26.731 26.731 26.731 64.269v488.609H195.696Zm40.956-135.783h315.935q13.913 0 20.63-12.555 6.718-12.554-2.239-23.989l-92.652-122.456q-6.883-9.196-18.355-9.196-11.471 0-18.428 9.196l-87.761 118.282-46.804-63.326q-6.717-9.435-18.272-9.315-11.554.12-18.511 9.315l-51.695 67.5q-8.957 11.435-2.744 23.989 6.212 12.555 20.896 12.555ZM104.695-764.304q0-37.783 26.609-64.392 26.609-26.609 64.392-26.609v91.001h-91.001Zm333.87 0v-91.001h82.87v91.001h-82.87Zm325.739 0v-91.001q37.783 0 64.392 26.609 26.609 26.609 26.609 64.392h-91.001Zm-488.608 0v-91.001h82.869v91.001h-82.869Zm488.608 325.739v-82.87h91.001v82.87h-91.001Zm0 333.87v-91.001h91.001q0 37.783-26.609 64.392-26.609 26.609-64.392 26.609Zm0-496.74v-82.869h91.001v82.869h-91.001Zm0 325.739v-82.869h91.001v82.869h-91.001ZM601.435-764.304v-91.001h82.869v91.001h-82.869Z"/>
</svg>
