<svg aria-hidden="true" viewBox="0 -960 960 960" fill="currentColor">
  <path d="M194-200h240q12 0 18-11t-2-21l-64-87q-6-8-16-8t-16 8l-44 58q-6 8-16 8t-16-8l-24-32q-6-8-16-7.5t-16 8.5l-45 60q-8 10-1.5 21t18.5 11Zm6 80q-33 0-56.5-23.5T120-200v-240q0-33 23.5-56.5T200-520h240q33 0 56.5 23.5T520-440v240q0 33-23.5 56.5T440-120H200Zm-68.5-651.5Q120-783 120-800t11.5-28.5Q143-840 160-840t28.5 11.5Q200-817 200-800t-11.5 28.5Q177-760 160-760t-28.5-11.5Zm160 0Q280-783 280-800t11.5-28.5Q303-840 320-840t28.5 11.5Q360-817 360-800t-11.5 28.5Q337-760 320-760t-28.5-11.5Zm160 0Q440-783 440-800t11.5-28.5Q463-840 480-840t28.5 11.5Q520-817 520-800t-11.5 28.5Q497-760 480-760t-28.5-11.5Zm160 0Q600-783 600-800t11.5-28.5Q623-840 640-840t28.5 11.5Q680-817 680-800t-11.5 28.5Q657-760 640-760t-28.5-11.5Zm160 0Q760-783 760-800t11.5-28.5Q783-840 800-840t28.5 11.5Q840-817 840-800t-11.5 28.5Q817-760 800-760t-28.5-11.5Zm-160 640Q600-143 600-160t11.5-28.5Q623-200 640-200t28.5 11.5Q680-177 680-160t-11.5 28.5Q657-120 640-120t-28.5-11.5Zm-480-480Q120-623 120-640t11.5-28.5Q143-680 160-680t28.5 11.5Q200-657 200-640t-11.5 28.5Q177-600 160-600t-28.5-11.5Zm640 0Q760-623 760-640t11.5-28.5Q783-680 800-680t28.5 11.5Q840-657 840-640t-11.5 28.5Q817-600 800-600t-28.5-11.5Zm0 160Q760-463 760-480t11.5-28.5Q783-520 800-520t28.5 11.5Q840-497 840-480t-11.5 28.5Q817-440 800-440t-28.5-11.5Zm0 160Q760-303 760-320t11.5-28.5Q783-360 800-360t28.5 11.5Q840-337 840-320t-11.5 28.5Q817-280 800-280t-28.5-11.5Zm0 160Q760-143 760-160t11.5-28.5Q783-200 800-200t28.5 11.5Q840-177 840-160t-11.5 28.5Q817-120 800-120t-28.5-11.5Z"/>
</svg>
