<svg aria-hidden="true" viewBox="0 -960 960 960" fill="currentColor">
  <path d="M581-520q17 0 28.5-11.5T621-560v-10l10 4q15 6 30.5 3t23.5-17q9-15 6-32t-20-24l-10-4 10-4q17-7 19.5-24.5T685-700q-9-15-24-17.5t-30 3.5l-10 4v-10q0-17-11.5-28.5T581-760q-17 0-28.5 11.5T541-720v10l-10-4q-15-6-30-3.5T477-700q-8 14-5.5 31.5T491-644l10 4-10 4q-17 7-20 24t6 32q8 14 23.5 17t30.5-3l10-4v10q0 17 11.5 28.5T581-520Zm0-80q-17 0-28.5-11.5T541-640q0-17 11.5-28.5T581-680q17 0 28.5 11.5T621-640q0 17-11.5 28.5T581-600Zm0 200q34 0 63-12.5t52-34.5q18-17 31-39.5t18-48.5q2-10-4.5-17.5T724-558q-26 4-49.5 16T633-513q-23 22-36.5 51T581-400Zm0 0q-2-33-15.5-62T529-513q-18-17-41.5-29T438-558q-10-2-16.5 5.5T417-535q5 26 18 48.5t31 39.5q23 22 52 34.5t63 12.5ZM228-85q-33 5-59.5-15.5T138-154L85-591q-4-33 16-59t53-30l46-6v326q0 66 47 113t113 47h372q-6 24-24 41.5T664-138L228-85Zm132-195q-33 0-56.5-23.5T280-360v-440q0-33 23.5-56.5T360-880h440q33 0 56.5 23.5T880-800v440q0 33-23.5 56.5T800-280H360Z"/>
</svg>
