<svg aria-hidden="true" viewBox="0 -960 960 960" fill="currentColor">
  <path d="M410-358.087q-13.829 0-22.871-9.042-9.042-9.042-9.042-22.871v-180q0-13.829 9.042-22.871 9.042-9.042 22.871-9.042 13.829 0 22.871 9.042 9.042 9.042 9.042 22.871v48.087h76.174V-570q0-13.829 9.042-22.871 9.042-9.042 22.871-9.042 13.829 0 22.871 9.042 9.042 9.042 9.042 22.871v180q0 13.829-9.042 22.871-9.042 9.042-22.871 9.042-13.829 0-22.871-9.042-9.042-9.042-9.042-22.871v-68.087h-76.174V-390q0 13.829-9.042 22.871-9.042 9.042-22.871 9.042Zm-260 0q-13.829 0-22.871-9.042-9.042-9.042-9.042-22.871v-170q0-17.813 12.05-29.863T160-601.913h98.087q26.152 0 44.989 18.837 18.837 18.837 18.837 44.989V-500q0 25.913-18.837 44.75t-44.989 18.837h-76.174V-390q0 13.829-9.042 22.871-9.042 9.042-22.871 9.042ZM181.913-500h76.174v-38.087h-76.174V-500ZM690-358.087q-13.829 0-22.871-9.042-9.042-9.042-9.042-22.871v-170q0-17.813 12.05-29.863T700-601.913h98.087q26.152 0 44.989 18.837 18.837 18.837 18.837 44.989V-500q0 25.913-18.837 44.75t-44.989 18.837h-76.174V-390q0 13.829-9.042 22.871-9.042 9.042-22.871 9.042ZM721.913-500h76.174v-38.087h-76.174V-500Z"/>
</svg>
