<svg aria-hidden="true" viewBox="0 -960 960 960" fill="currentColor">
  <path d="M410-360q-13 0-21.5-8.5T380-390v-180q0-13 8.5-21.5T410-600q13 0 21.5 8.5T440-570v50h80v-50q0-13 8.5-21.5T550-600q13 0 21.5 8.5T580-570v180q0 13-8.5 21.5T550-360q-13 0-21.5-8.5T520-390v-70h-80v70q0 13-8.5 21.5T410-360Zm-260 0q-13 0-21.5-8.5T120-390v-170q0-17 11.5-28.5T160-600h100q24 0 42 18t18 42v40q0 24-18 42t-42 18h-80v50q0 13-8.5 21.5T150-360Zm30-140h80v-40h-80v40Zm510 140q-13 0-21.5-8.5T660-390v-170q0-17 11.5-28.5T700-600h100q24 0 42 18t18 42v40q0 24-18 42t-42 18h-80v50q0 13-8.5 21.5T690-360Zm30-140h80v-40h-80v40Z"/>
</svg>
