<svg aria-hidden="true" viewBox="0 -960 960 960" fill="currentColor">
  <path d="M481-276Zm90 190-189-74H160q-17 0-28.5-11.5T120-200v-120q0-83 58.5-141.5T320-520h429q38 0 64.5 26t26.5 64q0 31-19 55.5T773-342l-93 27v155q0 21-9.5 38T645-94q-16 11-35 13.5T571-86Zm-83-194H375q-7 0-10.5 4t-4.5 9q-1 5 1.5 9.5t8.5 6.5l230 91v-120H488Zm-288 40h84q-2-6-3-12t-1-13q0-39 28-67t67-28h163l214-59q5-2 7-5t1-7q-1-4-3.5-6.5T749-440H320q-50 0-85 35t-35 85v80Zm281-36ZM287-607q-47-47-47-113t47-113q47-47 113-47t113 47q47 47 47 113t-47 113q-47 47-113 47t-113-47Zm169.5-56.5Q480-687 480-720t-23.5-56.5Q433-800 400-800t-56.5 23.5Q320-753 320-720t23.5 56.5Q367-640 400-640t56.5-23.5ZM400-720Z"/>
</svg>
