<svg aria-hidden="true" viewBox="0 -960 960 960" fill="currentColor">
  <path d="M320-120v-160h80v160h-80Zm0-280v-160h80v160h-80Zm0-280v-160h80v160h-80ZM80-120l100-720h80L160-120H80Zm598.5-3q-5.5-3-8.5-9l-4-9q-23-48-64-82.5T532-302q-17-26-25-55t-8-59q0-78 57-130.5T692-599q78 0 133 56t55 135q0 29-8 56t-24 50q-29 44-70.5 78.5T714-141l-4 9q-3 6-8.5 9t-11.5 3q-6 0-11.5-3Zm68-230.5Q770-377 770-410t-23.5-56.5Q723-490 690-490t-56.5 23.5Q610-443 610-410t23.5 56.5Q657-330 690-330t56.5-23.5ZM494-599l-34-241h80l26 187q-20 11-38 24t-34 30Z"/>
</svg>
