<svg aria-hidden="true" viewBox="0 -960 960 960" fill="currentColor">
  <path d="M635-675q-35-35-35-85t35-85q35-35 85-35t85 35q35 35 35 85t-35 85q-35 35-85 35t-85-35Zm-111-45H120q-17 0-28.5-11.5T80-760q0-17 11.5-28.5T120-800h404q-2 10-3 19.5t-1 20.5q0 11 1 20.5t3 19.5Zm-4 560q-17 0-28.5-11.5T480-200q0-17 11.5-28.5T520-240h280v-337q24-11 44-27t36-36v400q0 33-23.5 56.5T800-160H520ZM231.5-91.5Q220-103 220-120v-160H103q-23 0-34-20t0-40l71-126v-94h-20q-17 0-28.5-11.5T80-600q0-17 11.5-28.5T120-640h280q17 0 28.5 11.5T440-600q0 17-11.5 28.5T400-560h-20v94l71 126q11 20 0 40t-34 20H300v160q0 17-11.5 28.5T260-80q-17 0-28.5-11.5Z"/>
</svg>
