<svg aria-hidden="true" viewBox="0 -960 960 960" fill="currentColor">
  <path d="M142-540h68q13 0 21.5 8.5T240-510q0 13-8.5 21.5T210-480H80q-17 0-28.5-11.5T40-520v-130q0-13 8.5-21.5T70-680q13 0 21.5 8.5T100-650v68l98-98q9-9 21-9t21 9q9 9 9 21t-9 21l-98 98Zm278-278-98 98q-9 9-21 9t-21-9q-9-9-9-21t9-21l98-98h-68q-13 0-21.5-8.5T280-890q0-13 8.5-21.5T310-920h130q17 0 28.5 11.5T480-880v130q0 13-8.5 21.5T450-720q-13 0-21.5-8.5T420-750v-68ZM593-40q-24 0-46-9t-39-26L332-252q-11-11-12-27.5t11-28.5l3-3q16-16 37.5-21.5t42.5.5l66 19v-327q0-17 11.5-28.5T520-680q17 0 28.5 11.5T560-640v380q0 20-16 32t-35 7l-46-13 102 102q5 5 12.5 8.5T593-120h167q33 0 56.5-23.5T840-200v-160q0-17 11.5-28.5T880-400q17 0 28.5 11.5T920-360v160q0 66-47 113T760-40H593Zm52-480q17 0 28.5 11.5T685-480v160h-80v-160q0-17 11.5-28.5T645-520Zm120 40q17 0 28.5 11.5T805-440v120h-80v-120q0-17 11.5-28.5T765-480Zm-63 240Z"/>
</svg>
