<svg aria-hidden="true" viewBox="0 -960 960 960" fill="currentColor">
  <path d="M170.435-566.956 83-480.283q-10.196 9.435-24.109 9.816-13.913.38-24.108-9.816-10.196-10.195-10.196-24.108T34.782-528.5l86.674-87.435H64.739q-14.674 0-24.49-9.815-9.814-9.815-9.814-24.489 0-14.674 9.815-24.489 9.815-9.816 24.489-9.816h128.804q19.153 0 32.327 13.174 13.173 13.174 13.173 32.327v128.804q0 14.674-9.815 24.489-9.815 9.815-24.489 9.815-14.674 0-24.489-9.815-9.815-9.815-9.815-24.489v-56.717Zm222.087-222.609H450q14.674 0 24.489 9.815 9.815 9.815 9.815 24.489 0 14.674-9.815 24.489-9.815 9.815-24.489 9.815H321.196q-19.153 0-32.326-13.173-13.174-13.174-13.174-32.327v-128.804q0-14.674 9.815-24.489 9.815-9.815 24.489-9.815 14.674 0 24.489 9.815 9.815 9.815 9.815 24.489v57.478l86.913-87.435q10.196-10.195 23.989-10.195 13.794 0 23.99 10.195 10.195 10.196 10.195 24.49 0 14.293-10.195 24.489l-86.674 86.674Zm185.891 759.13q-24.479 0-47.196-9.239T491.26-66.39L307.369-253.196q-10.043-10.043-10.804-24.75-.761-14.706 9.804-25.75l2.283-2.282q18.391-19.826 43.956-26.522 25.566-6.696 50.631 1.217l61.456 18.522v-325.804q0-18.196 12.457-30.652 12.456-12.457 30.652-12.457t30.652 12.457q12.457 12.456 12.457 30.652v377.369q0 23.109-18.511 36.663-18.511 13.555-40.62 7.12l-39.065-11.326 99.848 101.043q4.761 4.761 11.663 7.903 6.902 3.141 14.185 3.141h188.044q31.804 0 54.347-22.544 22.544-22.543 22.544-54.347v-167.414q0-18.195 12.456-30.652 12.457-12.456 30.653-12.456 18.195 0 30.652 12.456 12.456 12.457 12.456 30.652v167.414q0 67.434-47.837 115.272-47.837 47.836-115.271 47.836H578.413Zm59.891-493.63q18.196 0 30.652 12.456 12.457 12.457 12.457 30.652v165.501h-86.218v-165.501q0-18.195 12.457-30.652 12.457-12.456 30.652-12.456Zm126.218 40q18.195 0 30.652 12.456 12.456 12.457 12.456 30.652v125.501h-86.217v-125.501q0-18.195 12.457-30.652 12.456-12.456 30.652-12.456Zm-63.718 247.652Z"/>
</svg>
