<svg aria-hidden="true" viewBox="0 -960 960 960" fill="currentColor">
  <path d="M400-640v-200h360q33 0 56.5 23.5T840-760v120H400ZM200-120q-33 0-56.5-23.5T120-200v-360h200v440H200Zm-80-520v-120q0-33 23.5-56.5T200-840h120v200H120Zm372 532L388-212q-6-6-8.5-13t-2.5-15q0-8 2.5-15t8.5-13l105-105q11-11 27-11t28 12q11 11 11 27.5T548-316l-34 36h86q33 0 56.5-23.5T680-360v-88l-37 37q-11 11-27 11t-28-12q-11-11-11-28t11-28l104-104q6-6 13-8.5t15-2.5q8 0 15 2.5t13 8.5l105 105q11 11 11 27t-12 28q-11 11-28 11t-28-11l-36-36v88q0 66-47 113t-113 47h-86l35 36q11 12 11 28t-12 28q-11 11-28 11t-28-11Z"/>
</svg>
