<svg aria-hidden="true" viewBox="0 -960 960 960" fill="currentColor">
  <path d="M400-640v-214.587h349q37.782 0 64.391 26.608Q840-801.37 840-763.587V-640H400ZM196.413-120q-37.783 0-64.392-26.609-26.608-26.609-26.608-64.391v-349H320v440H196.413Zm-91-520v-123.587q0-37.783 26.608-64.392 26.609-26.608 64.392-26.608H320V-640H105.413Zm383.478 531.522-99.695-99.696q-6.718-6.717-9.696-14.793-2.978-8.076-2.978-17.033t2.978-17.033q2.978-8.076 9.696-14.793l100.695-100.696q11.718-11.717 28.435-11.598 16.717.12 29.196 12.598 11.717 11.718 11.717 28.935t-11.717 29.696l-29.457 30.978H600q32.043 0 55.065-23.022T678.087-360v-83.696l-31.978 32.218q-11.718 11.717-28.435 11.598-16.717-.12-29.196-12.598-11.717-11.718-11.717-29.316 0-17.597 11.717-29.315l99.696-99.695q6.717-6.718 14.793-9.696 8.076-2.978 17.033-2.978t17.033 2.978q8.076 2.978 14.793 9.696l100.696 100.695q11.717 11.718 11.598 28.435-.12 16.717-12.598 29.196-11.718 11.717-29.316 11.717-17.597 0-29.315-11.717l-30.978-31.218V-360q0 66.957-47.478 114.435Q666.957-198.087 600-198.087h-81.935l30.457 31.217q11.717 12.479 11.598 29.196-.12 16.717-12.598 29.196-11.718 11.717-29.316 11.717-17.597 0-29.315-11.717Z"/>
</svg>
