<svg aria-hidden="true" viewBox="0 -960 960 960" fill="currentColor">
  <path d="M240-80q-33 0-56.5-23.5T160-160v-640q0-33 23.5-56.5T240-880h287q16 0 30.5 6t25.5 17l194 194q11 11 17 25.5t6 30.5v447q0 33-23.5 56.5T720-80H240Zm280-560q0 17 11.5 28.5T560-600h160L520-800v160Zm-62 360q18 0 35.5-4.5T526-298l70 70q11 11 28 11t28-11q11-11 11-28t-11-28l-70-70q9-15 13.5-32.5T600-422q0-58-41-98t-99-40q-58 0-99 41t-41 99q0 58 40 99t98 41Zm-40.5-97.5Q400-395 400-420t17.5-42.5Q435-480 460-480t42.5 17.5Q520-445 520-420t-17.5 42.5Q485-360 460-360t-42.5-17.5Z"/>
</svg>
