<svg aria-hidden="true" viewBox="0 -960 960 960" fill="currentColor">
  <path d="M484.5-553.5Q499-568 499-589t-14.5-35.5Q470-639 449-639t-35.5 14.5Q399-610 399-589t14.5 35.5Q428-539 449-539t35.5-14.5ZM822-80q-42 0-113-35t-152-95q-19 5-38.5 7.5T479-200q-117 0-198-81t-81-198q0-20 3-40t8-39q-59-81-94.5-151.5T81-822q0-27 15-42.5t41-15.5q23 0 56.5 13t90.5 45q14 8 18.5 24.5T299-767q-8 14-24 18.5t-30-3.5q-19-11-37-19t-38-17q18 38 38.5 74t43.5 71q38-54 97-85t130-31q117 0 198.5 81.5T759-479q0 71-31.5 130T642-252q35 23 71.5 44t74.5 38q-8-19-16.5-37T752-244q-8-14-3.5-30.5T767-299q14-8 30.5-3.5T822-284q34 60 46 91.5t12 54.5q0 29-16 43.5T822-80ZM577.5-370.5Q589-382 589-399t-11.5-28.5Q566-439 549-439t-28.5 11.5Q509-416 509-399t11.5 28.5Q532-359 549-359t28.5-11.5Zm43-137Q629-516 629-529t-8.5-21.5Q612-559 599-559t-21.5 8.5Q569-542 569-529t8.5 21.5Q586-499 599-499t21.5-8.5Z"/>
</svg>
