<svg aria-hidden="true" viewBox="0 -960 960 960" fill="currentColor">
  <path d="M452-160q6 20 16.5 41.5T490-80H200q-33 0-56.5-23.5T120-160v-640q0-33 23.5-56.5T200-880h480q33 0 56.5 23.5T760-800v284q-18-2-40-2t-40 2v-284H480v245q0 12-10 17.5t-20-.5l-70-42-70 42q-10 6-20 .5T280-555v-245h-80v640h252ZM720-40q-83 0-141.5-58.5T520-240q0-83 58.5-141.5T720-440q83 0 141.5 58.5T920-240q0 83-58.5 141.5T720-40Zm-19-119 102-64q10-6 10-17t-10-17l-102-64q-10-6-20.5-.5T670-304v128q0 12 10.5 17.5t20.5-.5ZM280-800h200-200Zm172 0H200h480-240 12Z"/>
</svg>
