<svg aria-hidden="true" viewBox="0 -960 960 960" fill="currentColor">
  <path d="M382.239-229.674q-22.869 14.674-46.62 1.739-23.75-12.934-23.75-40.282V-530.87L78.979-763.761Q67.26-775.478 67.26-793.076t11.717-29.315q11.718-11.718 29.315-11.718 17.598 0 29.316 11.718L822.39-137.609q11.718 11.718 11.718 28.935 0 17.218-12.479 29.696-12.478 11.717-29.315 11.598Q775.478-67.5 763-79.978L522.87-319.87l-140.631 90.195Zm284.848-182.261L311.869-767.152v-7.435l403.022 256.043q21.392 12.674 21.011 38.164-.38 25.489-21.771 38.924l-47.044 29.521Z"/>
</svg>
