<svg aria-hidden="true" viewBox="0 -960 960 960" fill="currentColor">
  <path d="m667.087-411.935-65.13-66.13-290.088-289.087v-7.435l403.022 256.043q21.392 12.674 21.011 38.044-.38 25.37-21.771 39.044l-47.044 29.521ZM382.239-229.674q-22.869 14.674-46.62 1.739-23.75-12.934-23.75-40.282V-530.87L78.979-763.761Q67.26-775.478 67.26-793.076t11.717-29.315q11.718-11.718 29.315-11.718 17.598 0 29.316 11.718L822.39-137.609q12.479 12.479 12.098 29.316-.38 16.837-12.859 29.315-12.478 11.717-29.695 11.217-17.218-.5-28.935-12.217L522.87-319.87l-140.631 90.195ZM400-442.978ZM400-346l58.652-37.848L400-442.978V-346Zm201.957-132.065Z"/>
</svg>
