<svg aria-hidden="true" viewBox="0 -960 960 960" fill="currentColor">
  <path d="M280-800v245q0 12 10 17.5t20-.5l70-42 70 42q10 6 20 .5t10-17.5v-245H280ZM720-40q-83 0-141.5-58.5T520-240q0-83 58.5-141.5T720-440q83 0 141.5 58.5T920-240q0 83-58.5 141.5T720-40Zm-19-119 102-64q10-6 10-17t-10-17l-102-64q-10-6-20.5-.5T670-304v128q0 12 10.5 17.5t20.5-.5Zm-261-81.268Q440-197 453.5-156.5T490-80H200q-33 0-56.5-23.5T120-160v-640q0-33 23.5-56.5T200-880h480q33 0 56.5 23.5T760-800v282q-10.064-1-20.128-1.5t-20.128-.5Q603-520 521.5-438.495 440-356.991 440-240.268Z"/>
</svg>
