<svg aria-hidden="true" viewBox="0 -960 960 960" fill="currentColor">
  <path d="M177-219q-45-53-71-119.5T80-480q0-83 31.5-156T197-763q54-54 127-85.5T480-880q83 0 156 31.5T763-763q54 54 85.5 127T880-480q0 75-26 142t-71 120q-11 12-27 12t-28-12q-11-11-11.5-27.5T727-275q34-42 53.5-94T800-480q0-134-93-227t-227-93q-134 0-227 93t-93 227q0 59 19.5 110.5T234-276q11 13 10.5 29.5T232-218q-12 12-28 11.5T177-219Zm113-114q-23-31-36.5-68T240-480q0-100 70-170t170-70q100 0 170 70t70 170q0 42-13.5 80T670-332q-10 13-26.5 13T614-332q-11-11-11.5-27t9.5-31q14-20 21-42.5t7-47.5q0-66-47-113t-113-47q-66 0-113 47t-47 113q0 26 7.5 48t20.5 42q10 15 9 31.5T345-331q-12 12-28.5 11.5T290-333ZM480-80q-17 0-28.5-11.5T440-120v-291q-18-11-29-28.5T400-480q0-33 23.5-56.5T480-560q33 0 56.5 23.5T560-480q0 23-11 41t-29 28v291q0 17-11.5 28.5T480-80Z"/>
</svg>
