<svg aria-hidden="true" viewBox="0 -960 960 960" fill="currentColor">
  <path d="M164.326-211.348q-45.957-54.674-72.435-123.085T65.413-480q0-86.034 32.576-161.702 32.576-75.668 88.609-131.7 56.032-56.033 131.718-88.609 75.686-32.576 161.739-32.576 86.054 0 161.684 32.576 75.631 32.576 131.663 88.609 56.033 56.032 88.609 131.7Q894.587-566.034 894.587-480q0 77.06-26.478 145.899-26.478 68.84-72.435 123.514-11.717 13.196-29.272 13.315-17.554.12-30.677-13.003-12.029-12.029-12.529-29.964t11.217-32.37q34.239-42.717 53.62-95.315 19.38-52.598 19.38-112.076 0-136.87-95.272-232.141Q616.87-807.413 480-807.413t-232.141 95.272Q152.587-616.87 152.587-480q0 59.478 19.5 111.743 19.5 52.264 54.5 94.887 11.717 14.435 11.18 32.251-.536 17.815-13.419 30.771-13.174 13.196-30.74 12.696-17.565-.5-29.282-13.696Zm115.869-116.63q-23.717-31.957-37.456-70.253Q229-436.528 229-480q0-104.583 73.2-177.792Q375.4-731 479.972-731q104.572 0 177.8 73.208Q731-584.583 731-480q0 43.435-13.739 82.511-13.739 39.076-37.456 70.272-10.718 13.956-28.772 14.076-18.055.119-31.961-13.787-11.768-11.768-12.507-29.322-.739-17.554 9.979-34.228 13.521-19.894 20.282-42.274 6.761-22.381 6.761-47.248 0-67.48-48.044-115.533-48.045-48.054-115.511-48.054-67.467 0-115.543 48.054Q316.413-547.48 316.413-480q0 25.522 7.244 47.522t19.799 42q10.718 16.674 9.626 34.608-1.092 17.935-13.104 29.892-13.196 13.196-31.13 12.576-17.935-.62-28.653-14.576ZM480-65.413q-18.524 0-31.056-12.531Q436.413-90.475 436.413-109v-295.543q-19.435-11.718-31.631-31.011-12.195-19.294-12.195-44.43 0-36.064 25.688-61.747 25.688-25.682 61.761-25.682 36.073 0 61.725 25.682 25.652 25.683 25.652 61.747 0 25.136-12.195 44.81-12.196 19.674-31.631 30.631V-109q0 18.525-12.531 31.056Q498.524-65.413 480-65.413Z"/>
</svg>
