<svg aria-hidden="true" viewBox="0 -960 960 960" fill="currentColor">
  <path d="M480-400q-33 0-56.5-23.5T400-480q0-33 23.5-56.5T480-560q33 0 56.5 23.5T560-480q0 33-23.5 56.5T480-400Zm0-240q-17 0-28.5-11.5T440-680v-120q0-17 11.5-28.5T480-840q17 0 28.5 11.5T520-800v120q0 17-11.5 28.5T480-640Zm0 520q-17 0-28.5-11.5T440-160v-120q0-17 11.5-28.5T480-320q17 0 28.5 11.5T520-280v120q0 17-11.5 28.5T480-120Zm200-320q-17 0-28.5-11.5T640-480q0-17 11.5-28.5T680-520h120q17 0 28.5 11.5T840-480q0 17-11.5 28.5T800-440H680Zm-520 0q-17 0-28.5-11.5T120-480q0-17 11.5-28.5T160-520h120q17 0 28.5 11.5T320-480q0 17-11.5 28.5T280-440H160Z"/>
</svg>
