<svg aria-hidden="true" viewBox="0 -960 960 960" fill="currentColor">
  <path d="M423.5-423.5Q400-447 400-480t23.5-56.5Q447-560 480-560t56.5 23.5Q560-513 560-480t-23.5 56.5Q513-400 480-400t-56.5-23.5ZM440-680v-120q0-17 11.5-28.5T480-840q17 0 28.5 11.5T520-800v120q0 17-11.5 28.5T480-640q-17 0-28.5-11.5T440-680Zm0 520v-120q0-17 11.5-28.5T480-320q17 0 28.5 11.5T520-280v120q0 17-11.5 28.5T480-120q-17 0-28.5-11.5T440-160Zm240-360h120q17 0 28.5 11.5T840-480q0 17-11.5 28.5T800-440H680q-17 0-28.5-11.5T640-480q0-17 11.5-28.5T680-520Zm-520 0h120q17 0 28.5 11.5T320-480q0 17-11.5 28.5T280-440H160q-17 0-28.5-11.5T120-480q0-17 11.5-28.5T160-520Z"/>
</svg>
