<svg aria-hidden="true" viewBox="0 -960 960 960" fill="currentColor">
  <path d="M467-85q-6-1-12-3-135-45-215-166.5T160-516v-189q0-25 14.5-45t37.5-29l240-90q14-5 28-5t28 5l240 90q23 9 37.5 29t14.5 45v189q0 63-16.5 122.5T736-280L618-398q11-19 16.5-39.5T640-480q0-66-47-113t-113-47q-66 0-113 47t-47 113q0 66 47 113t113 47q21 0 41.5-5.5T560-342l129 128q-38 45-83.5 76.5T505-88q-6 2-12 3t-13 1q-7 0-13-1Zm-43.5-338.5Q400-447 400-480t23.5-56.5Q447-560 480-560t56.5 23.5Q560-513 560-480t-23.5 56.5Q513-400 480-400t-56.5-23.5Z"/>
</svg>
