<svg aria-hidden="true" viewBox="0 -960 960 960" fill="currentColor">
  <path d="M467-85q-6-1-12-3-135-45-215-166.5T160-516v-189q0-25 14.5-45t37.5-29l240-90q14-5 28-5t28 5l240 90q23 9 37.5 29t14.5 45v105q0 17-11.5 28.5T760-560q-17 0-28.5-11.5T720-600v-105l-240-90-240 90v189q0 121 68 220t172 132q16-5 31.5-12t30.5-16q14-8 30.5-6t26.5 16q10 14 6.5 30T588-127q-20 12-40 21.5T505-88q-6 2-12 3t-13 1q-7 0-13-1Zm344.5-6.5Q800-103 800-120t11.5-28.5Q823-160 840-160t28.5 11.5Q880-137 880-120t-11.5 28.5Q857-80 840-80t-28.5-11.5ZM800-280v-160q0-17 11.5-28.5T840-480q17 0 28.5 11.5T880-440v160q0 17-11.5 28.5T840-240q-17 0-28.5-11.5T800-280ZM480-480Zm56.5 56.5Q560-447 560-480t-23.5-56.5Q513-560 480-560t-56.5 23.5Q400-513 400-480t23.5 56.5Q447-400 480-400t56.5-23.5ZM480-320q-66 0-113-47t-47-113q0-66 47-113t113-47q66 0 113 47t47 113q0 22-5.5 42.5T618-398l90 90q12 12 12 28.5T708-251q-12 12-28 12t-28-12l-92-91q-18 11-38.5 16.5T480-320Z"/>
</svg>
