<svg aria-hidden="true" viewBox="0 -960 960 960" fill="currentColor">
  <path d="M160-516v-189q0-25 14.5-45t37.5-29l240-90q14-5 28-5t28 5l240 90q23 9 37.5 29t14.5 45v145q-33 0-56.5 23.5T720-480v184L618-398q11-19 16.5-39.5T640-480q0-66-47-113t-113-47q-66 0-113 47t-47 113q0 66 47 113t113 47q21 0 41.5-5.5T560-342l128 128q-39 43-79 73.5T516-91q-9 3-18 4.5T480-85q-9 0-18.5-1.5T443-91q-125-45-204-164t-79-261Zm376.5 92.5Q560-447 560-480t-23.5-56.5Q513-560 480-560t-56.5 23.5Q400-513 400-480t23.5 56.5Q447-400 480-400t56.5-23.5Zm275 332Q800-103 800-120t11.5-28.5Q823-160 840-160t28.5 11.5Q880-137 880-120t-11.5 28.5Q857-80 840-80t-28.5-11.5ZM800-280v-160q0-17 11.5-28.5T840-480q17 0 28.5 11.5T880-440v160q0 17-11.5 28.5T840-240q-17 0-28.5-11.5T800-280Z"/>
</svg>
