<svg aria-hidden="true" viewBox="0 -960 960 960" fill="currentColor">
  <path d="m814-260-58-58q21-35 32.5-76t11.5-86q0-134-93-227t-227-93q-45 0-85.5 11.5T318-756l-58-58q48-32 103.5-49T480-880q83 0 156 31.5T763-763q54 54 85.5 127T880-480q0 61-17 116.5T814-260ZM763-84 325-521q-2 10-3.5 20t-1.5 21q0 26 7.5 48t20.5 42q10 15 9 31.5T345-331q-12 12-28.5 11.5T290-333q-23-31-36.5-68T240-480q0-28 6-54t17-49l-59-59q-21 36-32.5 76.5T160-480q0 59 19.5 110.5T234-276q11 13 10.5 29.5T232-218q-12 12-28 11.5T177-219q-45-53-71-119.5T80-480q0-62 17-117t49-103l-63-63q-11-11-11-28t12-29q11-11 28-11t29 11l679 680q11 11 11 28t-11 28q-12 12-29 12t-28-12Zm-66-293-62-62q2-10 3.5-20t1.5-21q0-66-47-113t-113-47q-11 0-21 1.5t-20 3.5l-62-62q23-11 49-17t54-6q100 0 170 70t70 170q0 28-6 54t-17 49Z"/>
</svg>
