<svg aria-hidden="true" viewBox="0 -960 960 960" fill="currentColor">
  <path d="M408.37-549.717h263.26q19.152 0 32.326-13.174t13.174-32.326v-36.413q0-19.152-13.174-32.326T671.63-677.13H408.37q-19.152 0-32.326 13.174T362.87-631.63v36.413q0 19.152 13.174 32.326t32.326 13.174Zm-205.5 437.848q-37.783 0-64.392-26.609-26.609-26.609-26.609-64.392v-554.26q0-37.783 26.609-64.392 26.609-26.609 64.392-26.609h554.26q37.783 0 64.392 26.609 26.609 26.609 26.609 64.392v554.26q0 37.783-26.609 64.392-26.609 26.609-64.392 26.609H202.87Z"/>
</svg>
