<svg aria-hidden="true" viewBox="0 -960 960 960" fill="currentColor">
  <path d="M347.022-154.261h265.956l38.804-155.217H308.218l38.804 155.217Zm0 91q-31.826 0-55.935-19.39-24.109-19.392-32.065-49.979l-44.283-176.848h530.522L700.978-132.63q-7.956 30.587-32.065 49.978-24.109 19.392-55.935 19.392H347.022ZM200.717-400.477h558.326v-72.826H200.717v72.826ZM264.5-896.413q91.63 12.913 153.565 83.163T480-647.652Q480-743 541.935-813.25 603.87-883.5 695.5-896.413q14.152-2.479 24.826 7.956 10.674 10.435 8.196 24.826-11.196 81.87-67.511 139.805T525.5-652.131v87.827h279.044q19.152 0 32.326 13.174 13.174 13.173 13.174 32.326v118.326q0 37.782-26.489 64.391-26.49 26.609-63.077 26.609H199.522q-36.826 0-63.316-26.609-26.489-26.609-26.489-64.391v-118.326q0-19.153 13.174-32.326 13.174-13.174 32.326-13.174H434.5v-87.587q-79.435-13.761-135.631-71.816-56.195-58.054-67.391-139.924-2.478-14.391 8.196-24.826t24.826-7.956Z"/>
</svg>
