<svg aria-hidden="true" viewBox="0 -960 960 960" fill="currentColor">
  <path d="M369-239.522 258.217-350.304q-12.435-12.435-19.391-29.087-6.957-16.652-6.957-34.805V-597.13q0-37.783 26.609-64.511 26.609-26.729 64.392-26.729h37.847l-45.5 45.261V-802.63q0-19.153 13.174-32.327t32.326-13.174q19.153 0 32.327 13.174t13.174 32.327v114.499h147.564V-802.63q0-19.153 13.174-32.327t32.327-13.174q19.152 0 32.326 13.174t13.174 32.327v159.521l-45.5-45.261h37.847q37.783 0 64.392 26.729 26.609 26.728 26.609 64.511v182.934q0 18.153-6.957 34.805-6.956 16.652-19.391 29.087L591-239.522v82.152q0 19.153-13.174 32.327T545.5-111.869h-131q-19.152 0-32.326-13.174T369-157.37v-82.152Z"/>
</svg>
