<svg aria-hidden="true" viewBox="0 -960 960 960" fill="currentColor">
  <path d="M480-440q-19.152 0-32.326-13.174T434.5-485.5v-317.13q0-19.153 13.174-32.327T480-848.131q19.152 0 32.326 13.174T525.5-802.63v317.13q0 19.152-13.174 32.326T480-440Zm0 328.131q-76.435 0-143.489-29.098-67.055-29.098-116.75-78.794-49.696-49.695-78.794-116.75Q111.869-403.565 111.869-480q0-68.522 24.163-131.522 24.163-63 69.968-114.239 12.435-14.152 31.945-14.63 19.511-.479 33.425 13.195 12.673 12.435 12.032 31.207t-12.598 33.685q-32.847 38.043-50.391 84.63Q202.87-531.087 202.87-480q0 115.804 80.663 196.467Q364.196-202.87 480-202.87q115.804 0 196.467-80.663Q757.13-364.196 757.13-480q0-50.848-18.043-98.435-18.044-47.587-50.891-85.63-11.957-14.152-12.098-32.424-.141-18.272 12.532-30.707 13.914-13.674 33.425-13.195 19.51.478 31.945 14.63 45.805 51.239 69.968 114.239 24.163 63 24.163 131.522 0 76.435-29.098 143.489-29.098 67.055-78.794 116.75-49.695 49.696-116.75 78.794Q556.435-111.869 480-111.869Z"/>
</svg>
