<svg aria-hidden="true" viewBox="0 -960 960 960" fill="currentColor">
  <path d="M324-111.5Q251-143 197-197t-85.5-127Q80-397 80-480t31.5-156Q143-709 197-763t127-85.5Q397-880 480-880t156 31.5Q709-817 763-763t85.5 127Q880-563 880-480t-31.5 156Q817-251 763-197t-127 85.5Q563-80 480-80t-156-31.5ZM707-253q93-93 93-227t-93-227q-93-93-227-93t-227 93q-93 93-93 227t93 227q93 93 227 93t227-93Zm-57-57q70-70 70-170 0-35-9-66.5T685-606q-12-20-28.5-22.5T626-623q-14 8-19.5 23t5.5 30q14 19 21 42t7 48q0 66-47 113t-113 47q-66 0-113-47t-47-113q0-25 7-47.5t20-41.5q10-15 5-29.5T334-621q-13-8-29.5-6T275-606q-18 27-26.5 59t-8.5 67q0 100 70 170t170 70q100 0 170-70ZM451.5-708.5Q440-697 440-680v160q0 17 11.5 28.5T480-480q17 0 28.5-11.5T520-520v-160q0-17-11.5-28.5T480-720q-17 0-28.5 11.5ZM480-480Z"/>
</svg>
