<svg aria-hidden="true" viewBox="0 -960 960 960" fill="currentColor">
  <path d="M720-600v145q0 16-5.5 30.5T698-399l-12 11-366-366v-46q0-17 11.5-28.5T360-840q17 0 28.5 11.5T400-800v120h160v-120q0-17 11.5-28.5T600-840q17 0 28.5 11.5T640-800v160l-40-40h40q33 0 56.5 23.5T720-600ZM420-120q-17 0-28.5-11.5T380-160v-80L263-357q-11-11-17-25.5t-6-30.5v-187q0-24 11-45t32-32v112L84-764q-11-11-11-28t11-28q11-11 28-11t28 11l680 680q11 11 11 28t-11 28q-11 11-28 11t-28-11L594-254l-14 14v80q0 17-11.5 28.5T540-120H420Z"/>
</svg>
