<svg aria-hidden="true" viewBox="0 -960 960 960" fill="currentColor">
  <path d="M728.131-596.891v144.043q0 18.152-6.457 34.685-6.456 16.533-19.13 29.207l-9.131 8.369-378.196-378.196v-43.847q0-19.153 13.174-32.327t32.326-13.174q19.153 0 32.327 13.174t13.174 32.327v114.499h147.564V-802.63q0-19.153 13.174-32.327t32.327-13.174q19.152 0 32.326 13.174t13.174 32.327v159.76l-45.5-45.261h37.847q37.783 0 64.392 26.729 26.609 26.728 26.609 64.511ZM414.5-111.869q-19.152 0-32.326-13.174T369-157.37v-82.152L258.217-350.304q-12.674-12.674-19.511-29.207-6.837-16.532-6.837-34.685V-597.37q0-26.152 11.837-49.065 11.837-22.913 34.75-35.348v117.022L82.566-760.174q-11.718-11.717-11.718-29.315t11.717-29.315Q94.283-830.522 112-830.522t29.435 11.718l677.369 677.369q11.718 11.718 11.718 29.315 0 17.598-11.718 29.316-11.717 11.717-29.434 11.717-17.718 0-29.435-11.717L602.37-240.37 591-229v71.63q0 19.153-13.174 32.327T545.5-111.869h-131Z"/>
</svg>
