<svg aria-hidden="true" viewBox="0 -960 960 960" fill="currentColor">
  <path d="M480-280q83 0 141.5-58T680-480q0-8-.5-16t-2.5-16q-11 47-49 77.5T539-404q-60 0-101-41t-41-101q0-46 26-82.5t68-51.5h-11q-84 0-142 58.5T280-480q0 84 58 142t142 58Zm41-220 59-43 58 43-23-68 59-43-72 1-22-70-22 70-73-1 59 43-23 68ZM346-160H240q-33 0-56.5-23.5T160-240v-106l-76-77q-24-23-24-57t24-57l76-77v-106q0-33 23.5-56.5T240-800h106l77-76q23-24 57-24t57 24l77 76h106q33 0 56.5 23.5T800-720v106l76 77q24 23 24 57t-24 57l-76 77v106q0 33-23.5 56.5T720-160H614l-77 76q-23 24-56.5 23.5T423-84l-77-76Zm134-320Zm0 340 100-100h140v-140l100-100-100-100v-140H580L480-820 380-720H240v140L140-480l100 100v140h140l100 100Z"/>
</svg>
