<svg aria-hidden="true" viewBox="0 -960 960 960" fill="currentColor">
  <path d="M480.067-283.109q81.737 0 139.161-57.133 57.424-57.133 57.424-139.878 0-7.88-.5-15.641t-2.261-15.761q-11 46.522-48.356 76.424-37.356 29.902-87.492 29.902-58.804 0-99.326-40.402-40.521-40.402-40.521-99.206 0-45.522 25.761-81.305 25.76-35.782 66.804-50.543h-10.838q-82.488 0-139.651 57.424-57.163 57.424-57.163 139.161 0 82.723 57.118 139.84 57.117 57.118 139.84 57.118Zm40.216-216.413 58.077-42.351 57.094 42.351-22.641-66.974 58.078-42.352-71.043.761-21.522-68.565-21.761 68.565-71.804-.761 58.282 42.283-22.76 67.043ZM344.804-157.37H248.37q-37.538 0-64.269-26.731-26.731-26.731-26.731-64.269v-96.434l-69.305-70.305Q60.717-441.456 60.717-480q0-38.544 27.348-64.891l69.305-70.259v-96.719q0-37.538 26.731-64.269 26.731-26.732 64.269-26.732h96.434l70.305-69.543q26.347-27.348 64.891-27.348 38.544 0 64.891 27.348l70.259 69.543h96.719q37.538 0 64.269 26.732 26.732 26.731 26.732 64.269v96.719l69.543 70.259q27.348 26.347 27.348 64.891 0 38.544-27.348 64.891l-69.543 70.305v96.434q0 37.538-26.732 64.269-26.731 26.731-64.269 26.731H615.15l-70.259 69.305Q518.544-60.717 480.5-61.217q-38.044-.5-65.391-26.848l-70.305-69.305Zm135.435-322.869ZM480-151.718l96.624-96.553h135.274v-135.175L808.521-480l-96.623-96.624v-135.274H576.624L480-808.521l-96.554 96.623H248.271v135.274L151.718-480l96.652 96.652v134.978h134.978L480-151.718Z"/>
</svg>
