<svg aria-hidden="true" viewBox="0 -960 960 960" fill="currentColor">
  <path d="M388.5-291.5Q400-303 400-320t-11.5-28.5Q377-360 360-360t-28.5 11.5Q320-337 320-320t11.5 28.5Q343-280 360-280t28.5-11.5Zm120 0Q520-303 520-320t-11.5-28.5Q497-360 480-360t-28.5 11.5Q440-337 440-320t11.5 28.5Q463-280 480-280t28.5-11.5Zm120 0Q640-303 640-320t-11.5-28.5Q617-360 600-360t-28.5 11.5Q560-337 560-320t11.5 28.5Q583-280 600-280t28.5-11.5ZM437-513l-56-57q-12-12-28.5-12T324-570q-12 12-12 28.5t12 28.5l85 85q12 12 28.5 12t28.5-12l169-170q11-12 11.5-28.5T635-655q-12-12-28-12t-28 12L437-513Zm43 433q-83 0-156-31.5T197-197q-54-54-85.5-127T80-480q0-83 31.5-156T197-763q54-54 127-85.5T480-880q83 0 156 31.5T763-763q54 54 85.5 127T880-480q0 83-31.5 156T763-197q-54 54-127 85.5T480-80Zm0-80q134 0 227-93t93-227q0-134-93-227t-227-93q-134 0-227 93t-93 227q0 134 93 227t227 93Zm0-320Z"/>
</svg>
