<svg aria-hidden="true" viewBox="0 -960 960 960" fill="currentColor">
  <path d="m735-77 46-46-178-178-46 46q-37 37-37 89t37 89q37 37 89 37t89-37Zm102-102 46-46q37-37 37-89t-37-89q-37-37-89-37t-89 37l-46 46 178 178ZM280-600h400v-80H280v80Zm221.5-198.5Q510-807 510-820t-8.5-21.5Q493-850 480-850t-21.5 8.5Q450-833 450-820t8.5 21.5Q467-790 480-790t21.5-8.5ZM445-120H200q-33 0-56.5-23.5T120-200v-560q0-33 23.5-56.5T200-840h168q13-36 43.5-58t68.5-22q38 0 68.5 22t43.5 58h168q33 0 56.5 23.5T840-760v245q-42-10-83.5-1.5T680-485v-35H280v80h349l-80 80H280v80h195q-23 35-31.5 76.5T445-120Z"/>
</svg>
