<svg aria-hidden="true" viewBox="0 -960 960 960" fill="currentColor">
  <path d="M200-120q-33 0-56.5-23.5T120-200v-560q0-33 23.5-56.5T200-840h560q33 0 56.5 23.5T840-760v560q0 33-23.5 56.5T760-120H200Zm0-80h560v-480H200v480Zm133.5-124.5Q269-369 240-440q29-71 93.5-115.5T480-600q82 0 146.5 44.5T720-440q-29 71-93.5 115.5T480-280q-82 0-146.5-44.5Zm104-73Q420-415 420-440t17.5-42.5Q455-500 480-500t42.5 17.5Q540-465 540-440t-17.5 42.5Q505-380 480-380t-42.5-17.5ZM551-369q29-29 29-71t-29-71q-29-29-71-29t-71 29q-29 29-29 71t29 71q29 29 71 29t71-29Z"/>
</svg>
