<svg aria-hidden="true" viewBox="0 -960 960 960" fill="currentColor">
  <path d="M320-360v160h320v-6L486-360H320Zm474 80h46q17 0 28.5-11.5T880-320v-200q0-51-34.5-85.5T760-640H434l360 360Zm-74-180q-17 0-28.5-11.5T680-500q0-17 11.5-28.5T720-540q17 0 28.5 11.5T760-500q0 17-11.5 28.5T720-460Zm0-220H394L234-840h446q17 0 28.5 11.5T720-800v120ZM240-280H120q-17 0-28.5-11.5T80-320v-200q0-51 35-85.5t85-34.5h6L83-763q-12-12-12-28t13-29q11-11 28-11t29 11l679 680q12 12 12 28t-12 28q-12 12-28.5 12T763-84L663-184l57-56v40q0 33-23.5 56.5T640-120H320q-33 0-56.5-23.5T240-200v-80Z"/>
</svg>
