<svg aria-hidden="true" viewBox="0 -960 960 960" fill="currentColor">
  <path d="M240-280H120q-17 0-28.5-11.5T80-320v-200q0-51 35-85.5t85-34.5h6L83-763q-12-12-12-28t13-29q11-11 28-11t29 11l679 680q12 12 12 28t-12 28q-12 12-28.5 12T763-84L663-184l57-56v40q0 33-23.5 56.5T640-120H320q-33 0-56.5-23.5T240-200v-80Zm80-80v160h320v-6L486-360H320Zm474 80-80-80h86v-160q0-17-11.5-28.5T760-560H514l-80-80h326q51 0 85.5 34.5T880-520v200q0 17-11.5 28.5T840-280h-46ZM640-640v-120H314l-80-80h446q17 0 28.5 11.5T720-800v160h-80ZM160-360h80v-80h166L286-560h-86q-17 0-28.5 11.5T160-520v160Zm560-100q17 0 28.5-11.5T760-500q0-17-11.5-28.5T720-540q-17 0-28.5 11.5T680-500q0 17 11.5 28.5T720-460ZM200-560h86-126 40Zm560 0h40-286 246Z"/>
</svg>
