<svg aria-hidden="true" viewBox="0 -960 960 960" fill="currentColor">
  <path d="M231.869-273.304H117.37q-19.153 0-32.327-13.174T71.87-318.804V-520q0-52.435 35-88.728 35-36.294 85.718-38.685h5.043L73.913-770.891q-12.478-12.479-12.359-29.196.12-16.718 13.359-29.957 11.717-11.717 29.336-11.717t30.055 11.717l695.979 696.74q12.478 12.478 12.359 29.195-.12 16.718-12.623 29.196-12.504 12.478-29.696 12.478t-29.671-12.478L668.739-176.826l59.392-58.63v36.652q0 37.537-26.732 64.269-26.731 26.731-64.269 26.731H322.87q-37.538 0-64.269-26.731-26.732-26.732-26.732-64.269v-74.5Zm91.001-65.413v141.587h314.26v-10.783L506.087-338.717H322.87Zm485.717 64.695-90.522-90.282h79.065V-520q0-15.565-10.304-26.348-10.304-10.782-25.869-10.782H525.479l-91.001-91.001h326.239q54.151 0 90.782 37.011 36.632 37.011 36.632 91.12v201.196q0 17.239-11.62 30.293-11.62 13.055-30.533 14.489h-37.391ZM637.13-648.131V-757.13H325.479l-91.24-91.001H682.63q19.153 0 32.327 13.174t13.174 32.327v154.499H637.13ZM162.87-364.304h68.999v-65.413h183.218L287.913-557.13h-88.63q-15.476 0-25.945 10.782Q162.87-535.565 162.87-520v155.696ZM720-452.587q17.813 0 29.863-12.05t12.05-29.863q0-17.813-12.05-29.863T720-536.413q-17.813 0-29.863 12.05t-12.05 29.863q0 17.813 12.05 29.863T720-452.587ZM199.283-557.13h88.63H162.87h36.413Zm561.674 0h36.173-271.651 235.478Z"/>
</svg>
