<svg aria-hidden="true" viewBox="0 -960 960 960" fill="currentColor">
  <path d="M240-160v-120H120q-17 0-28.5-11.5T80-320v-200q0-51 35-85.5t85-34.5h560q40 0 70.5 22.5T873-560H200q-17 0-28.5 11.5T160-520v160h80v-40q0-17 11.5-28.5T280-440h360v80H320v160h320v80H280q-17 0-28.5-11.5T240-160Zm0-480v-120q0-33 23.5-56.5T320-840h320q33 0 56.5 23.5T720-760v120h-80v-120H320v120h-80Zm520 520q-17 0-28.5-11.5T720-160q0-17 11.5-28.5T760-200q17 0 28.5 11.5T800-160q0 17-11.5 28.5T760-120Zm-40-200v-120q0-17 11.5-28.5T760-480q17 0 28.5 11.5T800-440v120q0 17-11.5 28.5T760-280q-17 0-28.5-11.5T720-320ZM160-560h713-713Z"/>
</svg>
