<svg aria-hidden="true" viewBox="0 -960 960 960" fill="currentColor">
  <path d="M760-120q-17 0-28.5-11.5T720-160q0-17 11.5-28.5T760-200q17 0 28.5 11.5T800-160q0 17-11.5 28.5T760-120Zm0-160q-17 0-28.5-11.5T720-320v-120q0-17 11.5-28.5T760-480q17 0 28.5 11.5T800-440v120q0 17-11.5 28.5T760-280ZM280-120q-17 0-28.5-11.5T240-160v-120H120q-17 0-28.5-11.5T80-320v-200q0-51 35-85.5t85-34.5h560q40 0 70.5 22.5T873-560H720q-33 0-56.5 23.5T640-480v120H320v160h320v80H280Zm-40-560v-80q0-33 23.5-56.5T320-840h320q33 0 56.5 23.5T720-760v80H240Z"/>
</svg>
