<svg aria-hidden="true" viewBox="0 -960 960 960" fill="currentColor">
  <path d="M637.13-648.131V-757.13H322.87v108.999h-91.001V-802.63q0-19.153 13.174-32.327t32.327-13.174h405.26q19.153 0 32.327 13.174t13.174 32.327v154.499H637.13ZM162.87-557.13h634.26-634.26Zm551.869 107.413q18.435 0 31.011-12.531 12.576-12.532 12.576-31.056 0-18.435-12.531-31.131-12.532-12.695-31.056-12.695-18.435 0-31.13 12.695-12.696 12.696-12.696 31.131 0 18.435 12.696 31.011 12.695 12.576 31.13 12.576ZM322.87-197.13h314.26v-141.587H322.87v141.587Zm0 89.326q-37.538 0-64.269-26.731-26.732-26.732-26.732-64.269v-74.5H117.37q-19.153 0-32.327-13.174T71.87-318.804V-520q0-54.109 37.163-91.12 37.162-37.011 90.251-37.011h561.434q54.151 0 90.782 37.011 36.632 37.011 36.632 91.12v201.196q0 19.152-13.174 32.326t-32.327 13.174h-114.5v74.5q0 37.537-26.732 64.269-26.731 26.731-64.269 26.731H322.87Zm474.26-256.5V-520q0-15.565-10.304-26.348-10.304-10.782-25.869-10.782H199.283q-15.476 0-25.945 10.782Q162.87-535.565 162.87-520v155.696h68.999v-65.413h496.262v65.413h68.999Z"/>
</svg>
