<svg aria-hidden="true" viewBox="0 -960 960 960" fill="currentColor">
  <path d="M322.87-338.717v141.587h314.26v-10.783L506.087-338.717H322.87Zm485.717 64.695h37.391q18.913-1.434 30.533-14.489 11.62-13.054 11.62-30.293V-520q0-54.109-36.632-91.12-36.631-37.011-90.782-37.011H434.478l374.109 374.109Zm-81.413-185.739q-17.813 0-29.863-12.05t-12.05-29.863q0-17.813 12.05-29.863t29.863-12.05q17.813 0 29.863 12.05t12.05 29.863q0 17.813-12.05 29.863t-29.863 12.05Zm.957-228.37H394.478l-160.239-160H682.63q19.153 0 32.327 13.174t13.174 32.327v114.499ZM231.869-273.304H117.37q-19.153 0-32.327-13.174T71.87-318.804V-520q0-52.435 35-88.728 35-36.294 85.718-38.685h5.043L73.913-770.891q-12.478-12.479-12.359-29.196.12-16.718 13.359-29.957 11.717-11.717 29.336-11.717t30.055 11.717l695.979 696.74q12.478 12.478 12.359 29.195-.12 16.718-12.623 29.196-12.504 12.478-29.696 12.478t-29.671-12.478L668.739-176.826l59.392-58.63v36.652q0 37.537-26.732 64.269-26.731 26.731-64.269 26.731H322.87q-37.538 0-64.269-26.731-26.732-26.732-26.732-64.269v-74.5Z"/>
</svg>
