<svg aria-hidden="true" viewBox="0 -960 960 960" fill="currentColor">
  <path d="M825.587-21.217 21.217-826.065l58.63-58.631 804.85 804.848-59.109 58.63ZM888.131-260l-160-160v70.587L479.522-598.022v-5.565q0-31.326-22.305-53.391-22.304-22.065-53.63-22.544-1.522 0-2.402.5-.881.5-2.402.261l-129.37-129.37H637.13q37.783 0 64.392 26.609 26.609 26.609 26.609 64.392V-540l160-160v440ZM162.87-151.869q-37.783 0-64.392-26.609Q71.87-205.087 71.87-242.87v-474.26q0-36.109 24.696-62.359t60.326-28.163l570.761 570.761q-1.913 35.63-28.043 60.326-26.131 24.696-62.479 24.696H431.587v-130.848q36.043-5.718 67.087-23.457 31.043-17.739 54.087-46.739l-41.478-41.717Q492-367.913 462.62-352.696q-29.381 15.218-62.62 15.218-58.087 0-98.391-40.424-40.305-40.424-40.305-98.511h-57.717q0 72.609 46.348 127.174 46.348 54.565 118.478 66.522v130.848H162.87ZM320-527.043v50.63q0 33 23.5 56.5t56.5 23.5q10.478 0 20.076-3t19.076-8.478L320-527.043Z"/>
</svg>
