<svg aria-hidden="true" viewBox="0 -960 960 960" fill="currentColor">
  <path d="M398.783-678.522q1.601 0 2.402-.5.801-.5 2.402-.5 31.326.479 53.63 22.544 22.305 22.065 22.305 53.391v5.804l-80.739-80.739ZM888.131-260l-160-160v70.587l-91.001-91V-717.13H360.413l-91-91.001H637.13q37.783 0 64.392 26.609 26.609 26.609 26.609 64.392V-540l160-160v440ZM637.13-151.869H162.87q-37.783 0-64.392-26.609Q71.87-205.087 71.87-242.87v-474.26q0-36.109 24.696-62.359t60.326-28.163l90.522 90.522H162.87v474.26h205.543v-39.847q-72.13-11.957-118.478-66.522-46.348-54.565-46.348-127.174h57.717q0 58.087 40.251 98.511 40.251 40.424 98.445 40.424 33.239 0 62.62-15.218 29.38-15.217 48.663-41.934l41.478 41.717q-23.044 29-54.087 46.739-31.044 17.739-67.087 23.457v39.847H637.13v-84.543l90.522 90.522q-1.913 35.63-28.043 60.326-26.131 24.696-62.479 24.696Zm247.566 72.021-59.109 58.63L439.152-407.89q-9.478 5.478-19.016 8.478-9.538 3-20.136 3-33 0-56.5-23.5t-23.5-56.5v-50.63L21.217-826.065l58.63-58.631 804.85 804.848ZM383.522-463.522Zm115.63-115.63ZM368.413-242.87h63.174-63.174Z"/>
</svg>
