<svg aria-hidden="true" viewBox="0 -960 960 960" fill="currentColor">
  <path d="M308.5-331.5Q320-343 320-360t-11.5-28.5Q297-400 280-400t-28.5 11.5Q240-377 240-360t11.5 28.5Q263-320 280-320t28.5-11.5Zm0-120Q320-463 320-480v-120q0-17-11.5-28.5T280-640q-17 0-28.5 11.5T240-600v120q0 17 11.5 28.5T280-440q17 0 28.5-11.5ZM440-360h240q17 0 28.5-11.5T720-400q0-17-11.5-28.5T680-440H440q-17 0-28.5 11.5T400-400q0 17 11.5 28.5T440-360Zm0-160h240q17 0 28.5-11.5T720-560q0-17-11.5-28.5T680-600H440q-17 0-28.5 11.5T400-560q0 17 11.5 28.5T440-520ZM160-160q-33 0-56.5-23.5T80-240v-480q0-33 23.5-56.5T160-800h640q33 0 56.5 23.5T880-720v480q0 33-23.5 56.5T800-160H160Zm0-80h640v-480H160v480Zm0 0v-480 480Z"/>
</svg>
