<svg aria-hidden="true" viewBox="0 -960 960 960" fill="currentColor">
  <path d="M223.5-103.5Q200-127 200-160t23.5-56.5Q247-240 280-240t56.5 23.5Q360-193 360-160t-23.5 56.5Q313-80 280-80t-56.5-23.5Zm400 0Q600-127 600-160t23.5-56.5Q647-240 680-240t56.5 23.5Q760-193 760-160t-23.5 56.5Q713-80 680-80t-56.5-23.5ZM120-800H80q-17 0-28.5-11.5T40-840q0-17 11.5-28.5T80-880h66q11 0 21 6t15 17l159 337h280l145-260q5-10 14-15t20-5q23 0 34.5 19.5t.5 39.5L692-482q-11 20-29.5 31T622-440H324l-44 80h440q17 0 28.5 11.5T760-320q0 17-11.5 28.5T720-280H280q-45 0-68.5-39t-1.5-79l54-98-144-304Zm331.5 208.5Q440-603 440-620t11.5-28.5Q463-660 480-660t28.5 11.5Q520-637 520-620t-11.5 28.5Q497-580 480-580t-28.5-11.5Zm0-140Q440-743 440-760v-120q0-17 11.5-28.5T480-920q17 0 28.5 11.5T520-880v120q0 17-11.5 28.5T480-720q-17 0-28.5-11.5Z"/>
</svg>
