<svg aria-hidden="true" viewBox="0 -960 960 960" fill="currentColor">
  <path d="M405.5-717.13h149v-40h-149v40Zm240-40v40H680q101.993 0 173.388 71.395 71.395 71.395 71.395 173.387 0 100.718-69.642 171.555Q785.5-229.956 685.5-227.804v74.022q0 19.152-13.174 32.326T640-108.282q-19.152 0-32.326-13.174T594.5-153.782v-73.783h-229v73.783q0 19.152-13.174 32.326T320-108.282q-19.152 0-32.326-13.174T274.5-153.782v-74.022q-100-2.152-169.641-72.989-69.642-70.837-69.642-171.555 0-101.992 71.395-173.387T280-717.13h34.5v-40q0-37.783 26.609-64.392 26.608-26.609 64.391-26.609h149q37.783 0 64.391 26.609Q645.5-794.913 645.5-757.13Z"/>
</svg>
