<svg aria-hidden="true" viewBox="0 -960 960 960" fill="currentColor">
  <path d="M120-680q-17 0-28.5-11.5T80-720v-120q0-17 11.5-28.5T120-880h120q17 0 28.5 11.5T280-840q0 17-11.5 28.5T240-800h-80v80q0 17-11.5 28.5T120-680Zm0 600q-17 0-28.5-11.5T80-120v-120q0-17 11.5-28.5T120-280q17 0 28.5 11.5T160-240v80h80q17 0 28.5 11.5T280-120q0 17-11.5 28.5T240-80H120Zm600 0q-17 0-28.5-11.5T680-120q0-17 11.5-28.5T720-160h80v-80q0-17 11.5-28.5T840-280q17 0 28.5 11.5T880-240v120q0 17-11.5 28.5T840-80H720Zm120-600q-17 0-28.5-11.5T800-720v-80h-80q-17 0-28.5-11.5T680-840q0-17 11.5-28.5T720-880h120q17 0 28.5 11.5T880-840v120q0 17-11.5 28.5T840-680ZM700-260h60v60h-60v-60Zm0-120h60v60h-60v-60Zm-60 60h60v60h-60v-60Zm-60 60h60v60h-60v-60Zm-60-60h60v60h-60v-60Zm120-120h60v60h-60v-60Zm-60 60h60v60h-60v-60Zm-60-60h60v60h-60v-60Zm240-320v240H520v-240h240ZM440-440v240H200v-240h240Zm0-320v240H200v-240h240Zm-60 500v-120H260v120h120Zm0-320v-120H260v120h120Zm320 0v-120H580v120h120Z"/>
</svg>
