<svg aria-hidden="true" viewBox="0 -960 960 960" fill="currentColor">
  <path d="M117.37-676.413q-19.153 0-32.327-13.174T71.87-721.913V-842.63q0-19.153 13.174-32.327t32.327-13.174h120.717q19.152 0 32.326 13.174t13.174 32.327q0 19.152-13.174 32.326t-32.326 13.174H162.87v75.217q0 19.152-13.174 32.326t-32.326 13.174Zm0 604.544q-19.153 0-32.327-13.174T71.87-117.37v-120.717q0-19.152 13.174-32.326t32.327-13.174q19.152 0 32.326 13.174t13.174 32.326v75.217h75.217q19.152 0 32.326 13.174t13.174 32.326q0 19.153-13.174 32.327T238.087-71.87H117.37Zm604.543 0q-19.152 0-32.326-13.174t-13.174-32.327q0-19.152 13.174-32.326t32.326-13.174h75.217v-75.217q0-19.152 13.174-32.326t32.326-13.174q19.153 0 32.327 13.174t13.174 32.326v120.717q0 19.153-13.174 32.327T842.63-71.87H721.913ZM842.63-676.413q-19.152 0-32.326-13.174t-13.174-32.326v-75.217h-75.217q-19.152 0-32.326-13.174t-13.174-32.326q0-19.153 13.174-32.327t32.326-13.174H842.63q19.153 0 32.327 13.174t13.174 32.327v120.717q0 19.152-13.174 32.326t-32.327 13.174ZM700-260h60v60h-60v-60Zm0-120h60v60h-60v-60Zm-60 60h60v60h-60v-60Zm-60 60h60v60h-60v-60Zm-60-60h60v60h-60v-60Zm120-120h60v60h-60v-60Zm-60 60h60v60h-60v-60Zm-60-60h60v60h-60v-60Zm240-320v240H520v-240h240ZM440-440v240H200v-240h240Zm0-320v240H200v-240h240Zm-63.587 496.413v-112.826H263.587v112.826h112.826Zm0-320v-112.826H263.587v112.826h112.826Zm320 0v-112.826H583.587v112.826h112.826Z"/>
</svg>
