<svg aria-hidden="true" viewBox="0 -960 960 960" fill="currentColor">
  <path d="M200-520q-33 0-56.5-23.5T120-600v-160q0-33 23.5-56.5T200-840h160q33 0 56.5 23.5T440-760v160q0 33-23.5 56.5T360-520H200Zm0-80h160v-160H200v160Zm0 480q-33 0-56.5-23.5T120-200v-160q0-33 23.5-56.5T200-440h160q33 0 56.5 23.5T440-360v160q0 33-23.5 56.5T360-120H200Zm0-80h160v-160H200v160Zm400-320q-33 0-56.5-23.5T520-600v-160q0-33 23.5-56.5T600-840h160q33 0 56.5 23.5T840-760v160q0 33-23.5 56.5T760-520H600Zm0-80h160v-160H600v160Zm180 480q-8 0-14-6t-6-14v-40q0-8 6-14t14-6h40q8 0 14 6t6 14v40q0 8-6 14t-14 6h-40ZM540-360q-8 0-14-6t-6-14v-40q0-8 6-14t14-6h40q8 0 14 6t6 14v40q0 8-6 14t-14 6h-40Zm80 80q-8 0-14-6t-6-14v-40q0-8 6-14t14-6h40q8 0 14 6t6 14v40q0 8-6 14t-14 6h-40Zm-80 80q-8 0-14-6t-6-14v-40q0-8 6-14t14-6h40q8 0 14 6t6 14v40q0 8-6 14t-14 6h-40Zm80 80q-8 0-14-6t-6-14v-40q0-8 6-14t14-6h40q8 0 14 6t6 14v40q0 8-6 14t-14 6h-40Zm80-80q-8 0-14-6t-6-14v-40q0-8 6-14t14-6h40q8 0 14 6t6 14v40q0 8-6 14t-14 6h-40Zm0-160q-8 0-14-6t-6-14v-40q0-8 6-14t14-6h40q8 0 14 6t6 14v40q0 8-6 14t-14 6h-40Zm80 80q-8 0-14-6t-6-14v-40q0-8 6-14t14-6h40q8 0 14 6t6 14v40q0 8-6 14t-14 6h-40Z"/>
</svg>
