<svg aria-hidden="true" viewBox="0 -960 960 960" fill="currentColor">
  <path d="M200-520q-37.544 0-64.272-26.728Q109-573.457 109-611v-149q0-37.544 26.728-64.272Q162.456-851 200-851h149q37.543 0 64.272 26.728Q440-797.544 440-760v149q0 37.543-26.728 64.272Q386.543-520 349-520H200Zm0-91h149v-149H200v149Zm0 502q-37.544 0-64.272-26.728Q109-162.456 109-200v-149q0-37.543 26.728-64.272Q162.456-440 200-440h149q37.543 0 64.272 26.728Q440-386.543 440-349v149q0 37.544-26.728 64.272Q386.543-109 349-109H200Zm0-91h149v-149H200v149Zm411-320q-37.543 0-64.272-26.728Q520-573.457 520-611v-149q0-37.544 26.728-64.272Q573.457-851 611-851h149q37.544 0 64.272 26.728Q851-797.544 851-760v149q0 37.543-26.728 64.272Q797.544-520 760-520H611Zm0-91h149v-149H611v149Zm180.239 502q-9.434 0-16.152-6.717-6.717-6.718-6.717-16.152v-36.892q0-9.434 6.717-16.271 6.718-6.837 16.152-6.837h36.892q9.434 0 16.152 6.837Q851-178.195 851-168.761v36.892q0 9.434-6.717 16.152Q837.565-109 828.131-109h-36.892ZM542.87-357.37q-9.435 0-16.153-6.717Q520-370.804 520-380.239v-36.891q0-9.435 6.717-16.153Q533.435-440 542.87-440h36.891q9.435 0 16.152 6.717 6.717 6.718 6.717 16.153v36.891q0 9.435-6.717 16.152-6.717 6.717-16.152 6.717H542.87Zm82.869 82.87q-9.435 0-16.152-6.717-6.717-6.718-6.717-16.153v-36.891q0-9.435 6.717-16.272 6.717-6.837 16.152-6.837h36.891q9.435 0 16.153 6.837 6.717 6.837 6.717 16.272v36.891q0 9.435-6.717 16.153-6.718 6.717-16.153 6.717h-36.891Zm-82.869 82.631q-9.435 0-16.153-6.718Q520-205.304 520-214.739v-36.891q0-9.435 6.717-16.152 6.718-6.718 16.153-6.718h36.891q9.435 0 16.152 6.718 6.717 6.717 6.717 16.152v36.891q0 9.435-6.717 16.152-6.717 6.718-16.152 6.718H542.87ZM625.739-109q-9.435 0-16.152-6.717-6.717-6.718-6.717-16.152v-36.892q0-9.434 6.717-16.271 6.717-6.837 16.152-6.837h36.891q9.435 0 16.153 6.837 6.717 6.837 6.717 16.271v36.892q0 9.434-6.717 16.152Q672.065-109 662.63-109h-36.891Zm82.631-82.869q-9.435 0-16.152-6.718-6.718-6.717-6.718-16.152v-36.891q0-9.435 6.718-16.152 6.717-6.718 16.152-6.718h36.891q9.435 0 16.152 6.718 6.718 6.717 6.718 16.152v36.891q0 9.435-6.718 16.152-6.717 6.718-16.152 6.718H708.37Zm0-165.501q-9.435 0-16.152-6.717-6.718-6.717-6.718-16.152v-36.891q0-9.435 6.718-16.153Q698.935-440 708.37-440h36.891q9.435 0 16.152 6.717 6.718 6.718 6.718 16.153v36.891q0 9.435-6.718 16.152-6.717 6.717-16.152 6.717H708.37Zm82.869 82.87q-9.434 0-16.152-6.717-6.717-6.718-6.717-16.153v-36.891q0-9.435 6.717-16.272 6.718-6.837 16.152-6.837h36.892q9.434 0 16.152 6.837Q851-343.696 851-334.261v36.891q0 9.435-6.717 16.153-6.718 6.717-16.152 6.717h-36.892Z"/>
</svg>
