<svg aria-hidden="true" viewBox="0 -960 960 960" fill="currentColor">
  <path d="m835-69-97-96q-20 14-44.5 21t-50.5 7q-75 0-127.5-52.5T463-317q0-75 52.5-127.5T643-497q75 0 127.5 52.5T823-317q0 26-7 50.5T795-221l96 96q12 12 12.5 28T892-69q-12 12-28.5 12T835-69ZM643-217q42 0 71-29t29-71q0-42-29-71t-71-29q-42 0-71 29t-29 71q0 42 29 71t71 29ZM70-258q-13-9-15.5-24.5T60-312l151-242q11-17 30.5-18.5T275-559l85 99 127-207q11-19 33.5-19t34.5 18l74 111q-23 1-43.5 5.5T545-539l-22-33-123 200q-11 17-31 19t-34-14l-85-99-122 197q-9 15-26.5 18.5T70-258Zm662-279q-19-8-39.5-13t-42.5-6l182-288q9-14 26-18t31 7q13 9 16 24.5t-5 29.5L732-537Z"/>
</svg>
