<svg aria-hidden="true" viewBox="0 -960 960 960" fill="currentColor">
  <path d="m813.652-235.957-64.891-64.891q13.652-13.13 25.141-28.043 11.489-14.913 20.576-31.326-38.674-4.283-75.945-14.652-37.272-10.37-71.38-27.587L400.217-649.392q-17.287-33.92-27.502-70.666-10.215-36.746-13.737-75.181-16.14 8.977-31.07 20.401-14.93 11.425-28.06 25.077l-63.652-63.891q31.326-31.609 67.315-55.294 35.989-23.684 73.206-37.967 25.826-10.631 48.87 4.663 23.043 15.293 23.239 43.315-.608 81.848 29.168 157.279 29.777 75.431 88.354 133.83 58.087 58.326 133.054 87.489 74.968 29.163 157.576 29.033 30.065.434 45.316 21.902 15.25 21.467 4.576 48.337-14.24 40.326-37.924 77.054-23.685 36.728-55.294 68.054ZM754.891-58.152l-84.782-84.022q-34.479 13.239-70.835 20.098-36.357 6.859-75.274 6.859-84.994 0-159.365-32.379-74.37-32.379-129.515-87.524-55.145-55.145-87.524-129.515Q115.217-439.006 115.217-524q0-38.957 6.859-75.174 6.859-36.217 20.098-70.696l-84.022-84.021q-12.478-12.511-11.978-29.712.5-17.202 13.003-29.68 12.504-12.478 29.696-12.478t29.67 12.478l695.74 696.74q12.478 12.521 12.478 29.217 0 16.696-12.503 29.174-12.504 12.478-29.696 12.478t-29.671-12.478ZM524-206.218q18.565 0 36.891-2.26 18.326-2.261 36.131-6.544l-191.261-191.5-190.739-190.5q-4.283 18.566-6.544 36.564-2.26 17.998-2.26 36.458 0 132.609 92.586 225.196Q391.391-206.218 524-206.218ZM405.761-406.522Zm118.543-118.782Z"/>
</svg>
