<svg aria-hidden="true" viewBox="0 -960 960 960" fill="currentColor">
  <path d="M813.652-235.957 236.196-813.652q31.326-31.609 67.315-55.413 35.989-23.805 73.206-37.848 25.826-10.87 48.87 4.543 23.043 15.413 23.239 43.435-.608 81.848 29.174 157.315 29.783 75.468 88.348 133.794 58.087 58.326 133.054 87.489 74.968 29.163 157.576 29.033 27.783.434 44.555 20.761 16.771 20.326 7.619 44.152-16.522 44.891-40.206 82-23.685 37.108-55.294 68.434ZM754.891-58.152l-84.782-84.022q-34.479 13.239-70.815 20.098-36.337 6.859-75.294 6.859-84.957 0-159.294-32.359-74.336-32.359-129.554-87.576-55.217-55.218-87.576-129.554Q115.217-439.043 115.217-524q0-38.957 6.859-75.174 6.859-36.217 20.098-70.696l-84.022-84.021q-12.478-12.479-11.978-29.696.5-17.218 12.978-29.696 12.478-12.478 29.696-12.478 17.217 0 29.695 12.478l695.74 696.74q12.478 12.478 12.478 29.195 0 16.718-12.478 29.196-12.478 12.478-29.696 12.478-17.217 0-29.696-12.478Z"/>
</svg>
