<svg aria-hidden="true" viewBox="0 -960 960 960" fill="currentColor">
  <path d="m806-235-57-57q17-16 31-34.5t25-38.5q-48-5-94-18t-88-35L416-625q-22-42-35-87.5T364-806q-20 11-38.5 25T291-750l-56-56q33-34 71.5-59t80.5-40q22-8 40.5 5.5T445-863q-3 84 27.5 161.5T563-564q60 60 137 90t162 27q26-1 38.5 17t3.5 42q-14 42-39 81t-59 72ZM747-67l-80-79q-34 13-69.5 19.5T524-120q-84 0-157.5-32t-128-86.5Q184-293 152-366.5T120-524q0-38 6.5-73.5T146-667l-79-79q-12-12-11.5-28.5T68-803q12-12 28.5-12t28.5 12l679 680q12 12 12 28t-12 28q-12 12-28.5 12T747-67ZM524-200q20 0 40-2.5t39-7.5L406-407 210-603q-5 20-7.5 39.5T200-524q0 135 94.5 229.5T524-200ZM406-407Zm114-114Z"/>
</svg>
