<svg aria-hidden="true" viewBox="0 -960 960 960" fill="currentColor">
  <path d="M128-80q-14 0-19-12t5-22l46-46h480l46 46q10 10 5 22t-19 12H128Zm410.5-458.5Q480-597 480-680t58.5-141.5Q597-880 680-880t141.5 58.5Q880-763 880-680t-58.5 141.5Q763-480 680-480t-141.5-58.5ZM694-646q6-6 6-14v-120q0-8-6-14t-14-6q-8 0-14 6t-6 14v120q0 8 6 14t14 6q8 0 14-6Zm-14 86q8 0 14-6t6-14q0-8-6-14t-14-6q-8 0-14 6t-6 14q0 8 6 14t14 6ZM200-200l40-40h-20q-58 0-99-41t-41-99v-260q0-122 96-201t224-79q13 0 25.5.5T451-917q18 2 24 20.5t-8 32.5q-26 31-43 67.5T402-720H177q-9 19-13 39t-4 41v40h252q13 43 38.5 79.5T512-457q35 27 77.5 41.5T677-400q19 0 31 13t10 30q-8 51-47.5 84T580-240h-20l40 40H200Zm242.5-177.5Q460-395 460-420t-17.5-42.5Q425-480 400-480t-42.5 17.5Q340-445 340-420t17.5 42.5Q375-360 400-360t42.5-17.5Z"/>
</svg>
