<svg aria-hidden="true" viewBox="0 -960 960 960" fill="currentColor">
  <path d="M178-720h234-234Zm21 640q-11 0-18.5-6T170-101q-3-9 0-18.5t12-15.5l38-25q-58 0-99-41t-41-99v-380q0-88 79.5-124T400-840q17 0 28.5 11.5T440-800q0 17-10.5 28.5T402-760q-96 0-150 11.5T178-720h182q17 0 28.5 11.5T400-680q0 17-11.5 28.5T360-640H160v120h321q17 0 28 11.5t11 28.5q0 17-11.5 28.5T480-440H160v140q0 25 17.5 42.5T220-240h360q25 0 42.5-17.5T640-300v-59q0-17 11.5-28.5T680-399q17 0 28.5 11.5T720-359v59q0 58-41 99t-99 41l38 25q9 6 12 15.5t0 18.5q-3 9-10.5 15T601-80H199Zm481-400q-83 0-141.5-58.5T480-680q0-82 58-141t142-59q83 0 141.5 58.5T880-680q0 83-58.5 141.5T680-480Zm14-166q6-6 6-14v-120q0-8-6-14t-14-6q-8 0-14 6t-6 14v120q0 8 6 14t14 6q8 0 14-6Zm-14 86q8 0 14-6t6-14q0-8-6-14t-14-6q-8 0-14 6t-6 14q0 8 6 14t14 6ZM442.5-297.5Q460-315 460-340t-17.5-42.5Q425-400 400-400t-42.5 17.5Q340-365 340-340t17.5 42.5Q375-280 400-280t42.5-17.5ZM640-440H160h480Z"/>
</svg>
