<svg aria-hidden="true" viewBox="0 -960 960 960" fill="currentColor">
  <path d="M400-280q25 0 42.5-17.5T460-340q0-25-17.5-42.5T400-400q-25 0-42.5 17.5T340-340q0 25 17.5 42.5T400-280ZM80-300v-380q0-81 78.5-120.5T400-840h66q-20 48-24.5 98.5T452-640H160v120h364q40 40 90 60t106 20v140q0 59-40.5 99.5T580-160l65 43q12 8 8 22.5T634-80H166q-15 0-19-14.5t8-22.5l65-43q-59 0-99.5-40.5T80-300Zm640-220q-83 0-141.5-58.5T520-720q0-83 58.5-141.5T720-920q83 0 141.5 58.5T920-720q0 83-58.5 141.5T720-520Zm0-160q8 0 14-6t6-14v-120q0-8-6-14t-14-6q-8 0-14 6t-6 14v120q0 8 6 14t14 6Zm0 80q8 0 14-6t6-14q0-8-6-14t-14-6q-8 0-14 6t-6 14q0 8 6 14t14 6Z"/>
</svg>
