<svg aria-hidden="true" viewBox="0 -960 960 960" fill="currentColor">
  <path d="M680-480q-83 0-141.5-58.5T480-680q0-82 58-141t142-59q83 0 141.5 58.5T880-680q0 83-58.5 141.5T680-480Zm14-166q6-6 6-14v-120q0-8-6-14t-14-6q-8 0-14 6t-6 14v120q0 8 6 14t14 6q8 0 14-6ZM442.5-297.5Q460-315 460-340t-17.5-42.5Q425-400 400-400t-42.5 17.5Q340-365 340-340t17.5 42.5Q375-280 400-280t42.5-17.5ZM199-80q-11 0-18.5-6T170-101q-3-9 0-18.5t12-15.5l38-25q-58 0-99-41t-41-99v-380q0-72 66.5-110T362-837q29-2 45 22.5t5 53.5q-6 20-9 41.5t-3 42.5q0 15-9.5 26T366-640H160v120h260q14 0 27 6.5t22 17.5q17 20 37 35.5t43 27.5q32 17 66.5 25.5T686-400q14 0 24 8.5t10 22.5v69q0 58-41 99t-99 41l38 25q9 6 12 15.5t0 18.5q-3 9-10.5 15T601-80H199Zm481-480q8 0 14-6t6-14q0-8-6-14t-14-6q-8 0-14 6t-6 14q0 8 6 14t14 6Z"/>
</svg>
