<svg aria-hidden="true" viewBox="0 -960 960 960" fill="currentColor">
  <path d="M338-204q-15 8-30.5 2.5T284-222l-60-120q-8-15-2.5-30.5T242-396q15-8 30.5-2.5T296-378l60 120q8 15 2.5 30.5T338-204Zm360 0q-15 8-30.5 2.5T644-222L464-582q-8-15-2.5-30.5T482-636q15-8 30.5-2.5T536-618l180 360q8 15 2.5 30.5T698-204Zm-216.5-7.5Q470-223 470-240t11.5-28.5Q493-280 510-280t28.5 11.5Q550-257 550-240t-11.5 28.5Q527-200 510-200t-28.5-11.5ZM898-204q-15 8-30.5 2.5T844-222l-20-40q-8-15-2.5-30.5T842-316q15-8 30.5-2.5T896-298l20 40q8 15 2.5 30.5T898-204ZM458-324q-15 8-30.5 2.5T404-342L224-702q-8-15-2.5-30.5T242-756q15-8 30.5-2.5T296-738l180 360q8 15 2.5 30.5T458-324Zm313.5-47.5Q760-383 760-400t11.5-28.5Q783-440 800-440t28.5 11.5Q840-417 840-400t-11.5 28.5Q817-360 800-360t-28.5-11.5Zm-600-80Q160-463 160-480t11.5-28.5Q183-520 200-520t28.5 11.5Q240-497 240-480t-11.5 28.5Q217-440 200-440t-28.5-11.5ZM758-484q-15 8-30.5 2.5T704-502L604-702q-8-15-2.5-30.5T622-756q15-8 30.5-2.5T676-738l100 200q8 15 2.5 30.5T758-484Zm-600-80q-15 8-30.5 2.5T104-582L44-702q-8-15-2.5-30.5T62-756q15-8 30.5-2.5T116-738l60 120q8 15 2.5 30.5T158-564Zm263.5-127.5Q410-703 410-720t11.5-28.5Q433-760 450-760t28.5 11.5Q490-737 490-720t-11.5 28.5Q467-680 450-680t-28.5-11.5Z"/>
</svg>
