<svg aria-hidden="true" viewBox="0 -960 960 960" fill="currentColor">
  <path d="M163.587-152.587q-37.783 0-64.391-26.609-26.61-26.608-26.61-64.391v-169.435q0-17.445 7.218-33.255 7.218-15.81 19.174-28.006l173.609-175.761v-197.369h414.826v197.369L861.544-474q12.372 12.512 19.121 29.006 6.748 16.494 6.748 34.407v167q0 37.783-26.609 64.391-26.608 26.609-64.391 26.609H163.587Zm82.283-342h468.499L596.413-613.5v-142.913H363.587V-613.5L245.87-494.587Zm-82.283 251h632.826v-160H163.587v160Zm221.826-49.848v-63.587h189.174v63.587H385.413Z"/>
</svg>
