<svg aria-hidden="true" viewBox="0 -960 960 960" fill="currentColor">
  <path d="M262.87-400h56.739q9.195 0 17.532-3.739t14.294-9.696l222.602-220.603Q580-640 580-649t-6-15l-70-70q-6-6-15-6t-15 6L253.435-511.435q-5.957 5.957-9.696 14.294T240-479.609v56.979q0 9.195 6.861 15.913Q253.722-400 262.87-400ZM420-400h260q17 0 28.5-11.5T720-440q0-17-11.5-28.5T680-480H500l-80 80ZM231.869-231.869l-82.434 82.434q-21.631 21.631-49.598 9.771-27.968-11.86-27.968-42.358V-797.13q0-37.783 26.61-64.392 26.608-26.609 64.391-26.609h634.26q37.783 0 64.392 26.609 26.609 26.609 26.609 64.392v474.26q0 37.783-26.609 64.392-26.609 26.609-64.392 26.609H231.869Zm-34-91.001H797.13v-474.26H162.87v508.499l34.999-34.239Zm-34.999 0v-474.26 474.26Z"/>
</svg>
