<svg aria-hidden="true" viewBox="0 -960 960 960" fill="currentColor">
  <path d="m741.37-388.761-21.087-85.587L698.196-388q-.478 2.196-1.076 2.891-.598.696-1.555 1.413l-97.956-96.956-20.718-82.87q-4.239-15.956 4.859-27.174 9.098-11.217 26.055-11.217 9.717 0 18.076 6.859 8.358 6.858 10.598 15.576l24.043 95.891 22.283-88.848q3-12.239 13.619-20.859 10.62-8.619 23.859-8.619 12.239 0 23.239 8.619 11 8.62 14 20.859l22.283 88.848 24.282-95.891q2.239-8.718 10.837-15.576 8.598-6.859 19.076-6.859 16.196 0 25.174 11.217 8.978 11.218 4.739 27.174l-44 174.761q-3.239 12.718-14.337 21.696-11.097 8.978-25.054 8.978-12.957 0-24.435-8.978-11.478-8.978-14.717-21.696Zm-490.044 14.239-28.522-63.565h-40.891V-390q0 13.717-9.098 22.815T150-358.087q-13.717 0-22.815-9.098T118.087-390v-166.413q0-19.152 13.174-32.326t32.326-13.174H260q24.957 0 43.435 18.478T321.913-540v40q0 18.478-9.5 32.859-9.5 14.38-26.261 23.858l18.761 43.805q7.239 17.717-.5 29.554t-26.935 11.837q-7.717 0-15.195-4.859-7.479-4.858-10.957-11.576Zm-69.413-123.565h76.174v-40h-76.174v40ZM789.37-53.37l-736-736L112-848l736 736-58.63 58.63ZM361.913-397.478l31.283-127.413 50.391 50.391 60 60h-74l-8.565 34.978q-2.239 8.718-10.598 15.076-8.359 6.359-17.837 6.359-16.957 0-25.935-11.598-8.978-11.598-4.739-27.793Z"/>
</svg>
