<svg aria-hidden="true" viewBox="0 -960 960 960" fill="currentColor">
  <path d="m360.913-397.478 39-155q5.239-20.718 24.337-35.076 19.098-14.359 40.815-14.359 20.718 0 39.196 14.359 18.478 14.358 23.717 35.076l39 154.282q4.24 16.435-4.858 28.272-9.098 11.837-27.294 11.837-9.478 0-17.576-6.859-8.098-6.858-10.337-15.576L498.87-414.5h-69.283l-9.565 34.978q-2.239 8.718-10.598 15.076-8.359 6.359-17.837 6.359-16.957 0-25.935-11.598-8.978-11.598-4.739-27.793Zm82.674-77.022h39.761l-11.196-45.022h-17.369L443.587-474.5Zm177.065 85.739-43.761-174.761q-4.239-15.956 4.74-27.174 8.978-11.217 25.934-11.217 9.479 0 18.077 6.478 8.597 6.478 10.837 15.957l24.043 95.891 22.283-88.848q3-12.239 13.619-20.859 10.62-8.619 23.859-8.619 12.239 0 23.239 8.619 11 8.62 14 20.859l22.283 88.848 24.282-95.891q2.239-9.479 10.837-15.957 8.598-6.478 19.076-6.478 16.957 0 25.555 11.217 8.597 11.218 4.358 27.174l-44 174.761q-3.239 12.718-14.337 21.696-11.097 8.978-25.054 8.978-12.957 0-24.435-8.978-11.478-8.978-14.717-21.696l-21.087-85.587-21.087 85.587q-3.239 12.718-14.337 21.696-11.098 8.978-25.054 8.978-12.957 0-24.435-8.978-11.479-8.978-14.718-21.696Zm-369.326 14.239-28.522-63.565h-40.891V-390q0 13.717-9.098 22.815T150-358.087q-13.717 0-22.815-9.098T118.087-390v-166.413q0-19.152 13.174-32.326t32.326-13.174H260q24.957 0 43.435 18.478T321.913-540v40q0 18.478-9.5 32.859-9.5 14.38-26.261 23.858l18.761 43.805q7.239 17.717-.5 29.554t-26.935 11.837q-7.717 0-15.195-4.859-7.479-4.858-10.957-11.576Zm-69.413-123.565h76.174v-40h-76.174v40Z"/>
</svg>
