<svg aria-hidden="true" viewBox="0 -960 960 960" fill="currentColor">
  <path d="m359-397 39-155q5-20 23.5-34t39.5-14q20 0 38 14t23 34l39 155q4 15-4.5 26T531-360q-9 0-16.5-6.5T505-381l-9-39h-70l-11 40q-2 8-10 14t-17 6q-16 0-24.5-11t-4.5-26Zm81-83h40l-10-40h-20l-10 40Zm173 91-44-175q-4-15 4.5-25.5T598-600q9 0 17 6t10 15l25 99 23-91q3-12 13.5-20.5T710-600q12 0 23 8.5t14 20.5l23 91 25-99q2-9 10-15t18-6q16 0 24 10.5t4 25.5l-44 175q-3 12-13.5 20.5T770-360q-12 0-23-8.5T733-389l-23-93-23 93q-3 12-13.5 20.5T650-360q-12 0-23-8.5T613-389Zm-360 14-29-65h-44v50q0 13-8.5 21.5T150-360q-13 0-21.5-8.5T120-390v-170q0-17 11.5-28.5T160-600h100q24 0 42 18t18 42v40q0 18-9.5 32.5T284-444l19 45q7 17-.5 28T277-360q-7 0-14-4.5T253-375Zm-73-125h80v-40h-80v40Z"/>
</svg>
