<svg aria-hidden="true" viewBox="0 -960 960 960" fill="currentColor">
  <path d="m733-389-23-93-24 94v.5-.5l-97-96-20-80q-4-15 4.5-25.5T598-600q9 0 17 6.5t10 14.5l25 99 23-91q3-12 13.5-20.5T710-600q12 0 23 8.5t14 20.5l23 91 25-99q2-8 10-14.5t18-6.5q15 0 23.5 10.5T851-564l-44 175q-3 12-13.5 20.5T770-360q-12 0-23-8.5T733-389Zm-480 14-29-65h-44v50q0 13-8.5 21.5T150-360q-13 0-21.5-8.5T120-390v-170q0-17 11.5-28.5T160-600h100q24 0 42 18t18 42v40q0 18-9.5 32.5T284-444l19 45q7 17-.5 28T277-360q-7 0-14-4.5T253-375Zm-73-125h80v-40h-80v40ZM792-56 56-792l56-56 736 736-56 56ZM360-397l32-131 48 48 60 60h-74l-10 40q-2 8-10 14t-17 6q-16 0-24.5-11t-4.5-26Z"/>
</svg>
