<svg aria-hidden="true" viewBox="0 -960 960 960" fill="currentColor">
  <path d="m268-348 104-104q12-12 12-28t-12-28L268-612q-11-11-28-11t-28 11q-11 11-11 28t11 28l36 36H120q-17 0-28.5 11.5T80-480q0 17 11.5 28.5T120-440h128l-36 36q-11 11-11 28t11 28q11 11 28 11t28-11Zm420.5-303.5Q700-663 700-680t-11.5-28.5Q677-720 660-720t-28.5 11.5Q620-697 620-680t11.5 28.5Q643-640 660-640t28.5-11.5ZM520-200h280v-560H520v560Zm-360 80q-33 0-56.5-23.5T80-200v-120q0-17 11.5-28.5T120-360q17 0 28.5 11.5T160-320v120h280v-560H160v120q0 17-11.5 28.5T120-600q-17 0-28.5-11.5T80-640v-120q0-33 23.5-56.5T160-840h640q33 0 56.5 23.5T880-760v560q0 33-23.5 56.5T800-120H160Zm280-640v560-560Z"/>
</svg>
