<svg aria-hidden="true" viewBox="0 -960 960 960" fill="currentColor">
  <path d="M200-71.391q-53.587 0-91.098-37.511-37.51-37.511-37.51-91.098 0-41.152 23.217-73.565t59.891-46.609v-319.652q-36.674-14.196-59.891-46.609Q71.39-718.848 71.39-760q0-53.587 37.511-91.098 37.511-37.511 91.098-37.511 41.152 0 73.565 23.218 32.413 23.217 46.609 59.891h116.065l-35.674-35.674q-12.913-12.913-12.793-31.565.119-18.652 13.032-32.326 13.674-13.674 32.207-13.555 18.533.12 32.207 13.555l113.239 113Q592.13-778.391 592.13-760t-13.674 32.065l-114 113.761q-6.718 6.718-14.794 10.076-8.076 3.359-16.652 2.979-8.576-.381-17.033-3.859-8.456-3.478-15.174-10.196-12.913-13.674-13.293-31.946-.381-18.271 13.293-31.945l35.435-35.435H320.174q-9.717 26-29.196 45.478-19.478 19.479-45.478 29.196v319.652q36.674 14.196 59.891 46.609 23.218 32.413 23.218 73.565 0 53.587-37.511 91.098-37.511 37.51-91.098 37.51ZM760-888.61q53.587 0 91.098 37.511 37.511 37.511 37.511 91.098 0 53.587-37.511 91.098-37.511 37.511-91.098 37.511-53.587 0-91.098-37.511-37.511-37.511-37.511-91.098 0-53.587 37.511-91.098Q706.413-888.61 760-888.61ZM616.957-458.5l87.108 86.87L791.696-284 605.674-97.739Q593-85.065 576.587-78.229q-16.413 6.838-34.804 6.838h-92.457q-19.152 0-32.326-13.174t-13.174-32.326v-92.457q0-18.152 7.218-34.685 7.217-16.532 19.891-29.206L616.957-458.5Zm217.739 132.261L658.435-502.261 687-530.065q27.348-27.348 65.391-27.109 38.044.239 64.392 27.587l45.956 46.717q25.87 26.587 25.87 63.892 0 37.304-26.348 63.652l-27.565 29.087Z"/>
</svg>
