<svg aria-hidden="true" viewBox="0 -960 960 960" fill="currentColor">
  <path d="M200-80q-50 0-85-35t-35-85q0-39 22.5-69.5T160-313v-334q-35-13-57.5-43.5T80-760q0-50 35-85t85-35q39 0 69.5 22.5T313-800h134l-45-45q-11-11-11-27.5t11-28.5q12-12 28.5-12t28.5 12l113 113q12 12 12 28t-12 28L458-618q-6 6-13 9t-14.5 2.5q-7.5-.5-15-3.5t-13.5-9q-11-12-11.5-28t11.5-28l45-45H313q-9 26-28 45t-45 28v334q35 13 57.5 43.5T320-200q0 50-35 85t-85 35Zm560-800q50 0 85 35t35 85q0 50-35 85t-85 35q-50 0-85-35t-35-85q0-50 35-85t85-35ZM616-464l84 84 85 85-192 192q-11 11-25.5 17T537-80h-97q-17 0-28.5-11.5T400-120v-97q0-16 6.5-30.5T424-273l192-191Zm212 127L657-508l30-29q24-24 57.5-24t56.5 24l56 57q23 23 23 56t-23 56l-29 31Z"/>
</svg>
