<svg aria-hidden="true" viewBox="0 -960 960 960" fill="currentColor">
  <path d="M200-71.391q-53.587 0-91.098-37.511-37.51-37.511-37.51-91.098 0-41.152 23.217-73.565t59.891-46.609v-319.652q-36.674-14.196-59.891-46.609Q71.39-718.848 71.39-760q0-53.587 37.511-91.098 37.511-37.511 91.098-37.511 41.152 0 73.565 23.218 32.413 23.217 46.609 59.891h116.065l-35.674-35.674q-12.913-12.913-12.793-31.565.119-18.652 13.032-32.326 13.674-13.674 32.207-13.555 18.533.12 32.207 13.555l113.239 113Q592.13-778.391 592.13-760t-13.674 32.065l-114 113.761q-6.718 6.718-14.794 10.076-8.076 3.359-16.652 2.979-8.576-.381-17.033-3.859-8.456-3.478-15.174-10.196-12.913-13.674-13.293-31.946-.381-18.271 13.293-31.945l35.435-35.435H320.174q-9.717 26-29.196 45.478-19.478 19.479-45.478 29.196v319.652q36.674 14.196 59.891 46.609 23.218 32.413 23.218 73.565 0 53.587-37.511 91.098-37.511 37.51-91.098 37.51ZM760-888.61q53.587 0 91.098 37.511 37.511 37.511 37.511 91.098 0 53.587-37.511 91.098-37.511 37.511-91.098 37.511-53.587 0-91.098-37.511-37.511-37.511-37.511-91.098 0-53.587 37.511-91.098Q706.413-888.61 760-888.61ZM200-162.391q16.043 0 26.826-10.903 10.783-10.902 10.783-26.706 0-16.043-10.783-26.826-10.783-10.783-26.826-10.783-15.804 0-26.706 10.783-10.903 10.783-10.903 26.826 0 15.804 10.903 26.706 10.902 10.903 26.706 10.903Zm0-560q16.043 0 26.826-10.903 10.783-10.902 10.783-26.706 0-16.043-10.783-26.826-10.783-10.783-26.826-10.783-15.804 0-26.706 10.783-10.903 10.783-10.903 26.826 0 15.804 10.903 26.706 10.902 10.903 26.706 10.903Zm560 0q16.043 0 26.826-10.903 10.783-10.902 10.783-26.706 0-16.043-10.783-26.826-10.783-10.783-26.826-10.783-15.804 0-26.706 10.783-10.903 10.783-10.903 26.826 0 15.804 10.903 26.706 10.902 10.903 26.706 10.903ZM200-200Zm0-560Zm560 0ZM625.826-468.652l61.783 60.783-197.326 196.608v53.652h52.652l198.087-197.608 61.065 60.304L605.913-98.5q-12.674 12.674-29.087 19.891-16.413 7.218-34.804 7.218h-92.457q-19.152 0-32.326-13.174t-13.174-32.326v-92.457q0-18.152 6.837-34.685 6.837-16.532 19.511-29.206l195.413-195.413Zm176.261 173.739L625.826-468.652l61.413-61.413q27.348-27.348 65.392-27.109 38.043.239 64.391 27.587l45.956 46.717q25.87 26.587 25.87 63.892 0 37.304-26.348 63.652l-60.413 60.413Z"/>
</svg>
