<svg aria-hidden="true" viewBox="0 -960 960 960" fill="currentColor">
  <path d="M240-160q-33 0-56.5-23.5T160-240v-32q0-34 17.5-62.5T224-378q62-31 126-46.5T480-440q11 0 21.5.5T523-438q16 2 26.5 13.5T560-397q0 17-13.5 28.5T516-359q-9-1-18-1h-18q-56 0-111 13.5T260-306q-9 5-14.5 14t-5.5 20v32h280q17 0 28.5 11.5T560-200q0 17-11.5 28.5T520-160H240Zm0-80h320-320Zm127-287q-47-47-47-113t47-113q47-47 113-47t113 47q47 47 47 113t-47 113q-47 47-113 47t-113-47Zm169.5-56.5Q560-607 560-640t-23.5-56.5Q513-720 480-720t-56.5 23.5Q400-673 400-640t23.5 56.5Q447-560 480-560t56.5-23.5ZM480-640Zm240 440h-40q-17 0-28.5-11.5T640-240v-160q0-17 11.5-28.5T680-440h151q17 0 26 14t1 29l-58 117h28q17 0 25.5 15t.5 30L739-33q-4 7-11.5 5T720-38v-162Z"/>
</svg>
