<svg aria-hidden="true" viewBox="0 -960 960 960" fill="currentColor">
  <path d="M770.978-370.066Q759.5-381.544 759-399.022t10.978-31.957q30.761-38 48.142-85.38 17.38-47.381 17.38-100.62 0-51.761-17.141-98.402t-47.663-84.641q-11.239-14.478-11.239-31.837t12.478-29.837q14.239-14.239 33.859-14.239 19.619 0 31.858 14.478 42 51 65.881 113.239 23.88 62.239 23.88 131.239 0 69.957-24.119 132.435-24.12 62.478-66.598 113.718-12.239 14.478-31.859 14.739-19.619.261-33.859-13.979ZM639.826-502.653q-10.761-11-12.261-28.38t8.022-34.859q6.522-11.521 9.783-24.424 3.26-12.902 3.26-26.184 0-13.283-3.26-26.066-3.261-12.782-9.544-24.065-9.522-17.478-8.022-34.978t12.5-28.5q14.718-14.717 35.316-14.217 20.598.5 31.598 16.456 16.282 24.522 25.565 52.424 9.282 27.902 9.282 58.946 0 31.282-9.641 59.304-9.641 28.022-25.924 52.543-11 15.718-31.478 16.218t-35.196-14.218ZM360.717-448.37q-69.587 0-118.858-49.272-49.272-49.271-49.272-118.858t49.272-118.859q49.271-49.272 118.858-49.272t118.859 49.272q49.272 49.272 49.272 118.859 0 69.587-49.152 118.858-49.152 49.272-118.979 49.272ZM78.087-112.348q-19.152 0-32.326-13.174t-13.174-32.326v-74.869q0-36.587 19.272-67.261 19.271-30.674 49.271-45.674 51-26 116.794-44.359 65.793-18.359 142.793-18.359t142.794 18.12q65.793 18.119 116.793 44.119 30 15 49.272 45.913 19.272 30.914 19.272 67.501v74.869q0 19.152-13.174 32.326t-32.326 13.174H78.087Z"/>
</svg>
