<svg aria-hidden="true" viewBox="0 -960 960 960" fill="currentColor">
  <path d="M770.978-370.066Q759.5-381.544 759-399.052q-.5-17.508 10.978-31.927 30.776-37.931 48.149-85.346Q835.5-563.74 835.5-616.979q0-51.659-17.141-98.351t-47.663-84.692q-11.239-14.478-11.239-31.837t12.478-29.837q14.126-14.239 33.802-14.239 19.676 0 31.915 14.478 42 51 65.881 113.239 23.88 62.239 23.88 131.239 0 69.957-24.119 132.435-24.12 62.478-66.598 113.718-12.239 14.478-31.859 14.739-19.619.261-33.859-13.979ZM639.826-502.653q-10.812-10.942-12.286-28.351-1.475-17.409 8.047-34.888 6.522-11.458 9.783-24.349 3.26-12.891 3.26-26.259 0-13.265-3.26-26.057-3.261-12.791-9.544-24.074-9.522-17.478-8.022-34.978t12.5-28.5q14.718-14.717 35.316-14.217 20.598.5 31.598 16.456 16.282 24.522 25.565 52.424 9.282 27.902 9.282 59.065 0 31.163-9.612 59.165-9.612 28.001-25.953 52.563-11 15.718-31.478 16.218t-35.196-14.218ZM360.837-448.37q-69.707 0-118.978-49.272-49.272-49.271-49.272-118.858t49.272-118.859q49.271-49.272 118.858-49.272t118.859 49.272q49.272 49.272 49.272 118.859 0 69.587-49.152 118.858-49.152 49.272-118.859 49.272ZM78.087-112.348q-19.152 0-32.326-13.174t-13.174-32.326v-74.869q0-36.587 19.272-67.261 19.271-30.674 49.271-45.674 51-26 116.794-44.359 65.793-18.359 142.793-18.359t142.794 18.12q65.793 18.119 116.793 44.119 30 15 49.272 45.913 19.272 30.914 19.272 67.501v74.869q0 19.152-13.174 32.326t-32.326 13.174H78.087Zm45.5-91h474.261v-28.174q0-11-5.5-19.641-5.5-8.641-14.5-13.641-36-18-92.022-35.283-56.022-17.283-125.109-17.283-69.087 0-125.108 17.403-56.022 17.402-92.022 35.215-9 4.948-14.5 13.589t-5.5 19.641v28.174ZM360.709-539.37q31.813 0 54.476-22.655 22.663-22.654 22.663-54.467t-22.655-54.476q-22.654-22.663-54.467-22.663t-54.476 22.655q-22.663 22.654-22.663 54.467t22.655 54.476q22.654 22.663 54.467 22.663Zm.008-77.13Zm0 413.152Z"/>
</svg>
