<svg aria-hidden="true" viewBox="0 -960 960 960" fill="currentColor">
  <path d="M765-355q-11-11-11.5-28t10.5-31q31-38 48.5-85.5T830-600q0-52-17.5-99T764-784q-11-14-11-31t12-29q14-14 33.5-14t31.5 14q42 51 66 113t24 131q0 69-24 131t-66 113q-12 14-31.5 14.5T765-355ZM636-484q-11-11-12.5-28.5T632-547q7-12 10.5-25.5T646-600q0-14-3.5-27.5T632-653q-10-17-8.5-34.5T636-716q14-14 34-13.5t31 15.5q17 25 27 53.5t10 60.5q0 32-10 60.5T701-486q-11 15-31 15.5T636-484Zm-276 44q-66 0-113-47t-47-113q0-66 47-113t113-47q66 0 113 47t47 113q0 66-47 113t-113 47ZM80-120q-17 0-28.5-11.5T40-160v-72q0-33 17-62t47-44q51-26 115-44t141-18q77 0 141 18t115 44q30 15 47 44t17 62v72q0 17-11.5 28.5T640-120H80Zm40-80h480v-32q0-11-5.5-20T580-266q-36-18-92.5-36T360-320q-71 0-127.5 18T140-266q-9 5-14.5 14t-5.5 20v32Zm240-320q33 0 56.5-23.5T440-600q0-33-23.5-56.5T360-680q-33 0-56.5 23.5T280-600q0 33 23.5 56.5T360-520Zm0-80Zm0 400Z"/>
</svg>
