<svg aria-hidden="true" viewBox="0 -960 960 960" fill="currentColor">
  <path d="M351-602q7 5 14.5 2.5T378-609l79-130-59-98q-12-20-34.5-20T329-837l-88 146q-5 7-2.5 14.5T248-664l103 62Zm404 282-78-131q-4-8-2-15.5t9-11.5l104-60q7-4 14.5-2t12.5 9l54 90q11 17 11.5 38.5T872-364q-10 20-29.5 32T800-320h-45ZM606-74 494-186q-6-6-6-14t6-14l112-112q10-10 22-5t12 19v32h190l-58 116q-11 20-30 32t-42 12h-60v32q0 14-12 19t-22-5Zm-353-46q-20 0-36.5-10.5T192-158q-8-16-7.5-33.5T194-224l34-56h152q8 0 14 6t6 14v120q0 8-6 14t-14 6H253Zm-99-114L89-364q-9-18-8.5-38.5T92-441l16-27-27-16q-11-7-9-20.5T87-521l153-38q8-2 15 2t9 12l38 154q2 7-.5 12.5t-7 9q-4.5 3.5-10.5 4t-12-3.5l-27-17-91 152Zm521-347-153-38q-13-3-14.5-16.5T517-656l27-16-125-208h141q21 0 39.5 10.5T629-841l52 87 26-16q6-4 12-3.5t10.5 4q4.5 3.5 7 9t.5 12.5l-38 153q-2 8-9 12t-15 2Z"/>
</svg>
