<svg aria-hidden="true" viewBox="0 -960 960 960" fill="currentColor">
  <path d="M346.456-605.826q7.957 5.478 16.772 2.619 8.815-2.858 14.294-10.815l79-130-59.957-99.913q-12.478-20.239-35.217-20.239-22.739 0-34.978 20.239l-88.24 146.478q-5.478 7.957-2.739 16.772 2.739 8.815 10.696 14.294l100.369 60.565ZM760.022-317.37l-78-131.239q-4.718-8.717-2.359-17.532 2.359-8.816 10.315-13.533l101.609-58.565q7.957-4.718 16.652-2.239 8.696 2.478 14.174 10.435l53.761 89.521q11 17.479 11.62 39.098.619 21.62-8.62 39.337-10.239 20.478-30.098 32.598-19.858 12.119-43.098 12.119h-45.956Zm-155.935 246L495.913-179.304q-6.956-6.957-6.956-16.033t6.956-16.033l108.174-107.934q11.435-11.435 25.109-5.478 13.674 5.956 13.674 21.869v26.261h193.587L777.261-158.5q-11 20.478-30.478 32.598-19.479 12.12-42.718 12.12H642.87v26.26q0 15.913-13.674 21.75t-25.109-5.597Zm-355.391-42.412q-20.24 0-36.979-10.62T186.739-152.5q-8-16.239-7.62-33.978.381-17.739 9.62-33.218l34.717-56.956h152.24q9.434 0 16.152 6.717 6.717 6.718 6.717 16.153v117.13q0 9.435-6.717 16.152-6.718 6.718-16.152 6.718h-127ZM148.022-229.696 81.826-362.087q-9.478-18.478-8.74-39.217.74-20.739 11.74-39.218l16.478-27.717-22.217-12.891q-12.913-7.957-10.555-23.49 2.36-15.532 17.272-19.01l147.261-36.566q9.435-2.239 17.391 2.479 7.957 4.717 10.196 13.913l36.565 147.782q2 7.239-4.206 13.098-6.207 5.859-13.696 9.717-7.489 3.859-13.25 4.718t-3.391-2.424l-21.978-13.891-92.674 155.108ZM675.957-583.87l-147.261-36.565q-14.913-3.478-16.652-18.891-1.74-15.413 10.934-23.37l22.218-13.13-127.392-211.826h143.631q21.478 0 40.098 10.619 18.619 10.62 30.097 29.098l52.957 88.674 21.217-12.891q2.174-.413 8.294.924 6.119 1.337 12.413 4.478 6.293 3.141 10.946 7.804 4.652 4.663 2.652 11.903l-36.565 147.021q-2.24 9.196-10.196 13.794-7.957 4.598-17.391 2.358Z"/>
</svg>
