<svg aria-hidden="true" viewBox="0 -960 960 960" fill="currentColor">
  <path d="M280-40q-33 0-56.5-23.5T200-120v-720q0-33 23.5-56.5T280-920h400q33 0 56.5 23.5T760-840v720q0 33-23.5 56.5T680-40H280Zm0-120v40h400v-40H280Zm0-640h400v-40H280v40Zm200 480q-54 0-105 15.5T280-260v20h400v-20q-44-29-95-44.5T480-320Zm0-80q54 0 104.5 12.5T680-352v-368H280v368q45-23 95.5-35.5T480-400Zm85-75q35-35 35-85t-35-85q-35-35-85-35t-85 35q-35 35-35 85t35 85q35 35 85 35t85-35Zm-113.5-56.5Q440-543 440-560t11.5-28.5Q463-600 480-600t28.5 11.5Q520-577 520-560t-11.5 28.5Q497-520 480-520t-28.5-11.5ZM480-240h200-400 200Zm0-320Zm0-240Zm0 640Z"/>
</svg>
