<svg aria-hidden="true" viewBox="0 -960 960 960" fill="currentColor">
  <path d="M320-40q-33 0-56.5-23.5T240-120v-720q0-33 23.5-56.5T320-920h320q33 0 56.5 23.5T720-840v720q0 33-23.5 56.5T640-40H320Zm245-555q35-35 35-85t-35-85q-35-35-85-35t-85 35q-35 35-35 85t35 85q35 35 85 35t85-35Zm-113.5-56.5Q440-663 440-680t11.5-28.5Q463-720 480-720t28.5 11.5Q520-697 520-680t-11.5 28.5Q497-640 480-640t-28.5-11.5Zm-23 240Q440-423 440-440t-11.5-28.5Q417-480 400-480t-28.5 11.5Q360-457 360-440t11.5 28.5Q383-400 400-400t28.5-11.5Zm160 0Q600-423 600-440t-11.5-28.5Q577-480 560-480t-28.5 11.5Q520-457 520-440t11.5 28.5Q543-400 560-400t28.5-11.5Zm-160 120Q440-303 440-320t-11.5-28.5Q417-360 400-360t-28.5 11.5Q360-337 360-320t11.5 28.5Q383-280 400-280t28.5-11.5Zm160 0Q600-303 600-320t-11.5-28.5Q577-360 560-360t-28.5 11.5Q520-337 520-320t11.5 28.5Q543-280 560-280t28.5-11.5Zm-160 120Q440-183 440-200t-11.5-28.5Q417-240 400-240t-28.5 11.5Q360-217 360-200t11.5 28.5Q383-160 400-160t28.5-11.5Zm160 0Q600-183 600-200t-11.5-28.5Q577-240 560-240t-28.5 11.5Q520-217 520-200t11.5 28.5Q543-160 560-160t28.5-11.5Z"/>
</svg>
