<svg aria-hidden="true" viewBox="0 -960 960 960" fill="currentColor">
  <path d="M480-320q75 0 127.5-52.5T660-500q0-75-52.5-127.5T480-680q-75 0-127.5 52.5T300-500q0 75 52.5 127.5T480-320Zm.042-77.022q-42.89 0-72.955-30.023-30.065-30.023-30.065-72.913t30.023-72.955q30.023-30.065 72.913-30.065t72.955 30.023q30.065 30.023 30.065 72.913t-30.023 72.955q-30.023 30.065-72.913 30.065ZM480-192.587q-140.674 0-257.228-74.815-116.555-74.815-176.75-201.25-3.43-5.658-4.574-14.144-1.144-8.487-1.144-17.204t1.144-17.204q1.143-8.486 4.574-14.144 60.195-126.435 176.75-201.25Q339.326-807.413 480-807.413t257.228 74.815q116.555 74.815 176.75 201.25 3.431 5.658 4.574 14.144 1.144 8.487 1.144 17.204t-1.144 17.204q-1.143 8.486-4.574 14.144-60.195 126.435-176.75 201.25Q620.674-192.587 480-192.587ZM480-500Zm.021 220q112.74 0 207.001-59.62Q781.283-399.239 831.283-500q-50-100.761-144.283-160.38Q592.718-720 479.979-720q-112.74 0-207.001 59.62Q178.717-600.761 128.717-500q50 100.761 144.283 160.38Q367.282-280 480.021-280Z"/>
</svg>
