<svg aria-hidden="true" viewBox="0 -960 960 960" fill="currentColor">
  <path d="M678.087-281.913V-400q0-17.717 12.098-29.815 12.098-12.098 29.815-12.098t29.815 11.598q12.098 11.598 12.098 29.315v157.413q0 19.152-13.174 32.326t-32.326 13.174H278.304l29.892 29.891q12.478 12.479 12.978 30.196.5 17.717-11.978 30.196-12.479 12.478-29.576 12.597-17.098.12-28.816-11.597l-101.608-101.37Q136.522-220.848 136.522-240t12.674-31.826l100.608-100.37q12.479-12.478 29.696-12.478 17.217 0 29.696 12.478 12.478 12.479 12.478 29.696 0 17.217-12.478 29.696l-30.892 30.891h399.783ZM281.913-678.087V-560q0 17.717-12.098 29.815-12.098 12.098-29.815 12.098t-29.815-11.598Q198.087-541.283 198.087-559v-157.413q0-19.152 13.174-32.326t32.326-13.174h438.109l-29.892-29.891Q639.326-804.283 638.826-822q-.5-17.717 11.978-30.196 12.479-12.478 29.576-12.598 17.098-.119 28.816 11.598l101.608 101.37q12.674 12.674 12.674 31.826t-12.674 31.826l-100.608 100.37q-12.479 12.478-29.696 12.478-17.217 0-29.696-12.478-12.478-12.479-12.478-29.696 0-17.217 12.478-29.696l30.892-30.891H281.913Z"/>
</svg>
