<svg aria-hidden="true" viewBox="0 -960 960 960" fill="currentColor">
  <path d="M460-540v150q0 13 8.5 21.5T490-360q13 0 21.5-8.5T520-389v-181q0-13-8.5-21.5T490-600h-60q-13 0-21.5 8.5T400-570q0 13 8.5 21.5T429-540h31ZM120-40q-33 0-56.5-23.5T40-120v-720q0-33 23.5-56.5T120-920h720q33 0 56.5 23.5T920-840v720q0 33-23.5 56.5T840-40H120Zm560-240H274l34-34q12-12 12-28.5T308-371q-12-12-28.5-12T251-371L148-268q-11 11-11 28t11 28l104 104q11 11 27.5 11t28.5-12q12-12 11.5-29T307-167l-33-33h446q17 0 28.5-11.5T760-240v-161q0-17-11.5-28T720-440q-17 0-28.5 11.5T680-400v120ZM280-680h406l-34 34q-12 12-12 28.5t12 28.5q12 12 28.5 12t28.5-12l103-103q11-11 11-28t-11-28L708-852q-11-11-27.5-11T652-851q-12 12-11.5 29t12.5 29l33 33H240q-17 0-28.5 11.5T200-720v161q0 17 11.5 28t28.5 11q17 0 28.5-11.5T280-560v-120Z"/>
</svg>
