<svg aria-hidden="true" viewBox="0 -960 960 960" fill="currentColor">
  <path d="M457.848-538.087h-27.652q-12.957 0-21.935-9.02-8.978-9.02-8.978-22.815 0-13.795 9.042-22.893t22.871-9.098h58.326q13.829 0 22.871 9.042 9.042 9.042 9.042 22.871v181q0 12.957-9.02 21.935-9.02 8.978-22.815 8.978-13.796 0-22.774-9.042-8.978-9.042-8.978-22.871v-148.087Zm220.239 256.174V-400q0-17.813 12.05-29.863T720-441.913q17.813 0 29.863 11.539 12.05 11.54 12.05 29.374v157.413q0 19.152-13.174 32.326t-32.326 13.174H278.304l29.892 29.891q12.441 12.499 12.96 30.206.518 17.707-11.96 30.186-12.479 12.478-29.576 12.597-17.098.12-28.816-11.597l-101.608-101.37Q136.522-220.848 136.522-240t12.674-31.826l100.608-100.37q12.51-12.478 29.712-12.478 17.201 0 29.68 12.503 12.478 12.504 12.478 29.696t-12.478 29.671l-30.892 30.891h399.783ZM281.913-678.087V-560q0 17.813-12.05 29.863T240-518.087q-17.813 0-29.863-11.539-12.05-11.54-12.05-29.374v-157.413q0-19.152 13.174-32.326t32.326-13.174h438.109l-29.892-29.891q-12.441-12.499-12.96-30.206-.518-17.707 11.96-30.186 12.479-12.478 29.576-12.598 17.098-.119 28.816 11.598l101.608 101.37q12.674 12.674 12.674 31.826t-12.674 31.826l-100.608 100.37q-12.51 12.478-29.712 12.478-17.201 0-29.68-12.503-12.478-12.504-12.478-29.696t12.478-29.671l30.892-30.891H281.913Z"/>
</svg>
