<svg aria-hidden="true" viewBox="0 -960 960 960" fill="currentColor">
  <path d="M457.848-538.087V-390q0 13.717 8.978 22.815t22.696 9.098q13.956 0 22.935-8.978 8.978-8.978 8.978-21.935v-181q0-13.717-9.098-22.815t-22.815-9.098h-58.326q-13.718 0-22.816 9.098-9.097 9.098-9.097 22.815 0 13.957 8.978 22.935 8.978 8.978 21.935 8.978h27.652ZM127.413-36.413q-37.782 0-64.391-26.609-26.609-26.608-26.609-64.391v-705.174q0-37.783 26.609-64.391 26.608-26.609 64.391-26.609h705.174q37.783 0 64.391 26.609 26.609 26.608 26.609 64.391v705.174q0 37.782-26.609 64.391-26.608 26.609-64.391 26.609H127.413Zm550.674-245.5H278.304l30.892-30.891q12.478-12.479 12.478-29.696 0-17.217-12.478-29.696-12.479-12.478-29.696-12.478-17.217 0-29.696 12.478l-100.608 100.37Q136.522-259.152 136.522-240t12.674 31.826l101.608 101.37q11.718 11.717 28.816 11.597 17.097-.119 29.576-12.597 12.478-12.479 11.978-30.196-.5-17.717-12.978-30.196l-29.892-29.891h438.109q19.152 0 32.326-13.174t13.174-32.326V-401q0-17.717-12.098-29.315-12.098-11.598-29.815-11.598t-29.815 12.098Q678.087-417.717 678.087-400v118.087ZM281.913-678.087h399.783l-30.892 30.891q-12.478 12.479-12.478 29.696 0 17.217 12.478 29.696 12.479 12.478 29.696 12.478 17.217 0 29.696-12.478l100.608-100.37q12.674-12.674 12.674-31.826t-12.674-31.826l-101.608-101.37q-11.718-11.717-28.816-11.598-17.097.12-29.576 12.598-12.478 12.479-11.978 30.196.5 17.717 12.978 30.196l29.892 29.891H243.587q-19.152 0-32.326 13.174t-13.174 32.326V-559q0 17.717 12.098 29.315 12.098 11.598 29.815 11.598t29.815-12.098q12.098-12.098 12.098-29.815v-118.087Z"/>
</svg>
