<svg aria-hidden="true" viewBox="0 -960 960 960" fill="currentColor">
  <path d="M680-280v-120q0-17 11.5-28.5T720-440q17 0 28.5 11t11.5 28v161q0 17-11.5 28.5T720-200H274l33 33q12 12 12.5 29T308-109q-12 12-28.5 12T252-108L148-212q-11-11-11-28t11-28l103-103q12-12 28.5-12t28.5 12q12 12 12 28.5T308-314l-34 34h406ZM280-680v120q0 17-11.5 28.5T240-520q-17 0-28.5-11T200-559v-161q0-17 11.5-28.5T240-760h446l-33-33q-12-12-12.5-29t11.5-29q12-12 28.5-12t27.5 11l104 104q11 11 11 28t-11 28L709-589q-12 12-28.5 12T652-589q-12-12-12-28.5t12-28.5l34-34H280Z"/>
</svg>
