<svg aria-hidden="true" viewBox="0 -960 960 960" fill="currentColor">
  <path d="m792-282-58-56 26-26v-232L596-760H364l-26 26-56-58 25-25q11-11 25.5-17t30.5-6h234q16 0 30.5 6t25.5 17l164 164q11 11 17 25.5t6 30.5v233q0 16-5.5 30T818-309l-26 27ZM520-552v-88q0-17-11.5-28.5T480-680q-17 0-28.5 11.5T440-640v8l80 80ZM363-120q-16 0-30.5-6.5T307-144L143-309q-11-11-17-25.5t-6-30.5v-232q0-16 6-30.5t17-25.5l25-25L56-792q-11-11-11.5-27.5T56-848q11-11 28-11t28 11l736 736q11 11 11 28t-11 28q-11 11-28 11t-28-11L678-170l-24 25q-11 12-26 18.5t-32 6.5H363Zm173-416ZM364-200h232l26-26-396-396-26 26v232l164 164Zm116-80q-17 0-28.5-11.5T440-320q0-17 11.5-28.5T480-360q17 0 28.5 11.5T520-320q0 17-11.5 28.5T480-280Zm-56-144Z"/>
</svg>
