<svg aria-hidden="true" viewBox="0 -960 960 960" fill="currentColor">
  <path d="M120-440v-80h80v80h-80Zm0-160v-80h80v80h-80Zm160-160v-80h80v80h-80Zm160 640v-80h80v80h-80Zm0-640v-80h80v80h-80Zm160 640v-80h80v80h-80Zm160-160v-80h80v80h-80Zm0-160v-80h80v80h-80Zm40-160q-17 0-28.5-11.5T760-640v-120H640q-17 0-28.5-11.5T600-800q0-17 11.5-28.5T640-840h120q33 0 56.5 23.5T840-760v120q0 17-11.5 28.5T800-600ZM200-120q-33 0-56.5-23.5T120-200v-120q0-17 11.5-28.5T160-360q17 0 28.5 11.5T200-320v120h120q17 0 28.5 11.5T360-160q0 17-11.5 28.5T320-120H200Zm560 0v-80h80q0 33-23.5 56.5T760-120ZM120-760q0-33 23.5-56.5T200-840v80h-80Z"/>
</svg>
