<svg aria-hidden="true" viewBox="0 -960 960 960" fill="currentColor">
  <path d="M171.5-171.5Q160-183 160-200v-560q0-17 11.5-28.5T200-800q17 0 28.5 11.5T240-760v560q0 17-11.5 28.5T200-160q-17 0-28.5-11.5Zm280 0Q440-183 440-200v-80q0-17 11.5-28.5T480-320q17 0 28.5 11.5T520-280v80q0 17-11.5 28.5T480-160q-17 0-28.5-11.5Zm280 0Q720-183 720-200v-560q0-17 11.5-28.5T760-800q17 0 28.5 11.5T800-760v560q0 17-11.5 28.5T760-160q-17 0-28.5-11.5Zm-280-240Q440-423 440-440v-80q0-17 11.5-28.5T480-560q17 0 28.5 11.5T520-520v80q0 17-11.5 28.5T480-400q-17 0-28.5-11.5Zm0-240Q440-663 440-680v-80q0-17 11.5-28.5T480-800q17 0 28.5 11.5T520-760v80q0 17-11.5 28.5T480-640q-17 0-28.5-11.5Z"/>
</svg>
