<svg aria-hidden="true" viewBox="0 -960 960 960" fill="currentColor">
  <path d="M360-475.217q35.152 0 59.967-24.816 24.816-24.815 24.816-59.967t-24.816-59.967Q395.152-644.783 360-644.783t-59.967 24.816Q275.217-595.152 275.217-560t24.816 59.967q24.815 24.816 59.967 24.816Zm240 0q35.152 0 59.967-24.816 24.816-24.815 24.816-59.967t-24.816-59.967Q635.152-644.783 600-644.783t-59.967 24.816Q515.217-595.152 515.217-560t24.816 59.967q24.815 24.816 59.967 24.816Zm-235.696 360V-282.87h71.392l1.195 167.653h-72.587Zm157.848 0 2.152-167.653h71.392v167.653h-73.544Zm-315.934 0q-37.783 0-64.392-26.609-26.609-26.609-26.609-64.392V-600q0-101.913 71.435-173.348Q258.087-844.783 360-844.783h240q101.913 0 173.348 71.435Q844.783-701.913 844.783-600v393.782q0 37.783-26.609 64.392-26.609 26.609-64.392 26.609h-74.26l4.782-165.261q0-37.783-26.608-64.392-26.609-26.609-64.392-26.609H366.696q-37.783 0-64.392 26.609-26.608 26.609-26.608 64.392l3.108 165.261h-72.586Z"/>
</svg>
