<svg aria-hidden="true" viewBox="0 -960 960 960" fill="currentColor">
  <path d="M200-120q-17 0-28.5-11.5T160-160v-160q0-33 23.5-56.5T240-400h480q33 0 56.5 23.5T800-320v160q0 17-11.5 28.5T760-120H200Zm160-320q-83 0-141.5-58.5T160-640q0-83 58.5-141.5T360-840h240q83 0 141.5 58.5T800-640q0 83-58.5 141.5T600-440H360Zm28.5-171.5Q400-623 400-640t-11.5-28.5Q377-680 360-680t-28.5 11.5Q320-657 320-640t11.5 28.5Q343-600 360-600t28.5-11.5Zm240 0Q640-623 640-640t-11.5-28.5Q617-680 600-680t-28.5 11.5Q560-657 560-640t11.5 28.5Q583-600 600-600t28.5-11.5Z"/>
</svg>
