<svg aria-hidden="true" viewBox="0 -960 960 960" fill="currentColor">
  <path d="M416.5-503.5Q440-527 440-560t-23.5-56.5Q393-640 360-640t-56.5 23.5Q280-593 280-560t23.5 56.5Q327-480 360-480t56.5-23.5Zm240 0Q680-527 680-560t-23.5-56.5Q633-640 600-640t-56.5 23.5Q520-593 520-560t23.5 56.5Q567-480 600-480t56.5-23.5ZM360-120v-160h80v160h-80Zm160 0v-160h80v160h-80Zm-320 0q-33 0-56.5-23.5T120-200v-400q0-100 70-170t170-70h240q100 0 170 70t70 170v400q0 33-23.5 56.5T760-120h-80v-160q0-33-23.5-56.5T600-360H360q-33 0-56.5 23.5T280-280v160h-80Z"/>
</svg>
