<svg aria-hidden="true" viewBox="0 -960 960 960" fill="currentColor">
  <path d="m245-474-93-40q-20-8-23.5-29t11.5-36l126-126q14-14 33-20t39-2l52 11q-53 63-84.5 114.5T245-474Zm588-390q8 0 16 4t14 10q6 6 10 14t4 16q4 93-39.5 193T715-448q-54 54-104 86.5T493-300q-13 5-26.5 5T443-305L318-430q-10-10-10-23.5t5-26.5q29-67 61.5-117.5T461-702q79-79 179-122.5T833-864ZM579-566q23 23 56.5 23t56.5-23q23-23 23-56.5T692-679q-23-23-56.5-23T579-679q-23 23-23 56.5t23 56.5Zm-92 334q76-29 128-60.5T730-377l10 52q4 20-2 39.5T718-252L592-126q-15 15-36 11t-29-24l-40-93Zm-325-86q34.83-35 85.085-35.5 50.255-.5 85.085 34.5Q367-284 367-234t-35 85q-25 25-83.5 43T87-74q14-103 32-161.093 18-58.092 43-82.907Z"/>
</svg>
