<svg aria-hidden="true" viewBox="0 -960 960 960" fill="currentColor">
  <path d="m239.978-478.065-93.717-40.479q-22.631-9.434-26.609-33.184-3.978-23.751 12.935-40.664l123.848-123.847q16.152-16.153 37.782-22.87 21.631-6.717 44.261-2.239l53.196 11Q336.043-664 302.989-609.511q-33.054 54.489-63.011 131.446Zm601.87-400.044q9.196 0 18.033 4.239 8.837 4.239 15.793 11.196 6.957 6.956 11.196 15.793t4.239 18.033q2.565 95.391-40.815 195.989-43.381 100.598-121.424 178.641-54.239 54.24-104.359 87.218-50.119 32.978-123.141 65.565-14.674 6.196-30.207 5.718-15.533-.479-26.489-11.435L320.152-431.674q-10.956-10.956-11.554-26.37-.598-15.413 5.598-30.326 31.869-71.304 64.967-122.043 33.098-50.739 87.815-105.457 78.044-78.043 178.761-121.424 100.718-43.38 196.109-40.815Zm-254.478 303.5q22.521 22.522 55.304 22.522t55.304-22.522q22.522-22.522 22.522-55.185 0-32.663-22.522-55.184-22.521-22.522-55.304-22.522t-55.304 22.522q-22.522 22.521-22.522 55.184t22.522 55.185Zm-96.305 347.392q76.957-29.957 131.826-62.892 54.87-32.934 121.218-88.565l10.239 53.196q4.478 22.63-2.239 44.641t-22.87 38.163L605.392-118.826q-16.913 16.913-40.783 12.554-23.87-4.358-33.305-26.989l-40.239-93.956Zm-339.348-90.275q37.222-37.421 90.346-37.802 53.125-.38 90.346 37.052 37.221 37.432 37.221 90.241 0 52.808-37.391 90.24-26.937 26.834-90.277 46.092-63.34 19.257-168.593 32.256 13.044-105.24 32.239-168.285 19.196-63.045 46.109-89.794Z"/>
</svg>
