<svg aria-hidden="true" viewBox="0 -960 960 960" fill="currentColor">
  <path d="M284.478-519.631q12.805-25.369 26.37-48.978 13.565-23.609 29.891-47.456l-52.652-10.522-76.109 76.348 72.5 30.608Zm483.196-265.913q-70 3.196-146.75 41.718-76.75 38.522-140.076 101.848-41.761 41.76-73.804 88.445-32.044 46.685-49.718 90.12l111.848 111.326q43.435-17.674 90.239-49.598 46.805-31.924 88.565-73.685 63.326-63.326 101.729-139.815 38.402-76.489 41.837-146.489.239-4.717-1.381-9.315-1.619-4.598-5.098-8.076-3.478-3.479-8.076-5.098-4.598-1.62-9.315-1.381ZM554.609-549.37q-22.522-22.521-22.522-55.304t22.522-55.304q22.522-22.522 55.565-22.522 33.044 0 55.565 22.522 22.522 22.521 22.522 55.304t-22.522 55.304q-22.521 22.522-55.565 22.522-33.043 0-55.565-22.522Zm-28.978 269.892 30.608 73.5 76.109-76.109-10.283-52.891q-23.847 16.326-47.456 29.511-23.609 13.184-48.978 25.989Zm355.065-545.957q7.044 116.696-37.554 222.75Q798.544-496.63 704.5-402.587l-1.195 1.196-1.196 1.195 20.239 99.718q4.478 22.63-2.359 44.38-6.837 21.75-22.989 37.903L573.392-94.587q-16.913 16.913-40.903 12.935-23.989-3.978-33.185-26.609l-62.913-147.543-174.587-174.587-147.543-62.913q-22.63-9.196-27.109-33.066-4.478-23.869 12.435-40.782l124.087-124.087q16.152-16.153 38.043-22.75 21.892-6.598 44.522-2.12l99.957 20.239q.478-.478.956-1.076.478-.598.957-1.076 94.521-94.522 200.456-139Q714.5-881.5 831.196-874.696q9.196.761 18.033 4.62 8.837 3.858 15.793 10.815 6.957 6.956 10.935 15.793 3.978 8.837 4.739 18.033ZM147.195-319.804q37.392-37.392 90.642-37.892 53.25-.5 90.641 36.892 37.392 37.391 36.892 90.641-.5 53.25-37.892 90.642-26.913 26.913-90.196 46.228Q174-73.978 68.847-60.934q13.044-105.153 32.24-168.555 19.195-63.402 46.108-90.315Zm64.892 63.891q-9.522 9.522-18.565 33.391-9.044 23.87-13.044 49.196 25.326-4 49.196-12.783 23.869-8.782 33.391-18.304 11.044-11.043 11.804-26.25.761-15.206-10.282-26.25-11.044-11.043-26.25-10.543-15.207.5-26.25 11.543Z"/>
</svg>
