<svg aria-hidden="true" viewBox="0 -960 960 960" fill="currentColor">
  <path d="M200-200v-560q0-33 23.5-56.5T280-840h240q23 0 40.5 11t28.5 29h91q33 0 56.5 23.5T760-720v120q0 17-11.5 28.5T720-560q-17 0-28.5-11.5T680-600v-120h-80v187q-73 35-116.5 103.5T440-280q0 42 13 83.5t37 76.5H160q-17 0-28.5-11.5T120-160q0-17 11.5-28.5T160-200h40Zm240-240q17 0 28.5-11.5T480-480q0-17-11.5-28.5T440-520q-17 0-28.5 11.5T400-480q0 17 11.5 28.5T440-440ZM680-80l-12-60q-12-5-22.5-11T625-165l-58 20-40-69 45-40q-2-15-2-25.5t2-25.5l-45-40 40-69 58 20q10-8 20.5-14.5T668-420l12-60h80l12 60q12 5 22.5 11t20.5 14l58-20 40 69-45 40q2 15 2 25.5t-2 25.5l45 40-40 69-58-19q-10 8-20.5 14T772-140l-12 60h-80Zm40-120q33 0 56.5-23.5T800-280q0-33-23.5-56.5T720-360q-33 0-56.5 23.5T640-280q0 33 23.5 56.5T720-200Z"/>
</svg>
