<svg aria-hidden="true" viewBox="0 -960 960 960" fill="currentColor">
  <path d="m270.195-167.652 1.914-191.044q-88-15.913-144-84.25T72.109-600q0-102.152 71.673-173.826Q215.456-845.5 317.609-845.5q88.717 0 157.054 56t84.25 144l153.021-2.631-32.173-32.173q-12.674-12.674-12.674-31.446 0-18.772 13.434-32.207 12.674-12.674 31.827-12.674 19.152 0 31.826 12.674l109.261 109.261q6.717 6.718 9.815 14.913 3.098 8.196 3.098 17.153 0 8.956-3.098 17.152-3.098 8.195-9.815 14.913L744.174-461.304Q731.5-448.63 712.728-448.63q-18.772 0-32.207-12.674-13.434-13.435-13.434-32.207t13.434-32.206l31.413-31.413-158.325 2.63q-31.153 0-54.587-20.315-23.435-20.315-28.913-51.228-8.761-56.087-52.087-92.272Q374.696-754.5 317.609-754.5q-63.848 0-109.174 45.326Q163.109-663.848 163.109-600q0 57.087 36.185 100.413 36.184 43.326 92.271 52.087 30.913 5.478 51.229 28.913 20.315 23.435 20.315 54.587l-1.913 197.782q-.479 18.914-13.413 31.848-12.935 12.935-32.207 12.935t-32.565-13.413q-13.294-13.413-12.816-32.804Z"/>
</svg>
