<svg aria-hidden="true" viewBox="0 -960 960 960" fill="currentColor">
  <path d="M480-760.957q-18.524 0-31.056-12.531-12.531-12.531-12.531-31.056 0-18.524 12.531-31.055 12.532-12.532 31.056-12.532h162.391q85.631 0 145.685 60.055 60.055 60.054 60.055 145.685V-480q0 18.524-12.532 31.056-12.531 12.531-31.055 12.531-18.525 0-31.056-12.531-12.531-12.532-12.531-31.056v-162.391q0-49.403-34.582-83.984-34.581-34.582-83.984-34.582H480Zm-324.544 0q-18.524 0-31.055-12.531-12.532-12.531-12.532-31.056 0-18.524 12.532-31.055 12.531-12.532 31.055-12.532 18.525 0 31.056 12.532 12.531 12.531 12.531 31.055 0 18.525-12.531 31.056-12.531 12.531-31.056 12.531Zm162.392 0q-18.525 0-31.056-12.531-12.531-12.531-12.531-31.056 0-18.524 12.531-31.055 12.531-12.532 31.056-12.532 18.524 0 31.056 12.532 12.531 12.531 12.531 31.055 0 18.525-12.531 31.056-12.532 12.531-31.056 12.531ZM155.456-598.804q-18.524 0-31.055-12.532-12.532-12.531-12.532-31.055 0-18.525 12.532-31.056 12.531-12.531 31.055-12.531 18.525 0 31.056 12.531 12.531 12.531 12.531 31.056 0 18.524-12.531 31.055-12.531 12.532-31.056 12.532Zm0 162.391q-18.524 0-31.055-12.531-12.532-12.532-12.532-31.056t12.532-31.056q12.531-12.531 31.055-12.531 18.525 0 31.056 12.531 12.531 12.532 12.531 31.056t-12.531 31.056q-12.531 12.531-31.056 12.531Zm0 162.152q-18.524 0-31.055-12.531-12.532-12.531-12.532-31.056 0-18.524 12.532-31.056 12.531-12.531 31.055-12.531 18.525 0 31.056 12.531 12.531 12.532 12.531 31.056 0 18.525-12.531 31.056-12.531 12.531-31.056 12.531Zm649.088 0q-18.525 0-31.056-12.531-12.531-12.531-12.531-31.056 0-18.524 12.531-31.056 12.531-12.531 31.056-12.531 18.524 0 31.055 12.531 12.532 12.532 12.532 31.056 0 18.525-12.532 31.056-12.531 12.531-31.055 12.531ZM155.456-111.869q-18.524 0-31.055-12.532-12.532-12.531-12.532-31.055 0-18.525 12.532-31.056 12.531-12.531 31.055-12.531 18.525 0 31.056 12.531 12.531 12.531 12.531 31.056 0 18.524-12.531 31.055-12.531 12.532-31.056 12.532Zm162.392 0q-18.525 0-31.056-12.532-12.531-12.531-12.531-31.055 0-18.525 12.531-31.056 12.531-12.531 31.056-12.531 18.524 0 31.056 12.531 12.531 12.531 12.531 31.056 0 18.524-12.531 31.055-12.532 12.532-31.056 12.532Zm162.152 0q-18.524 0-31.056-12.532-12.531-12.531-12.531-31.055 0-18.525 12.531-31.056 12.532-12.531 31.056-12.531t31.056 12.531q12.531 12.531 12.531 31.056 0 18.524-12.531 31.055-12.532 12.532-31.056 12.532Zm162.391 0q-18.524 0-31.055-12.532-12.532-12.531-12.532-31.055 0-18.525 12.532-31.056 12.531-12.531 31.055-12.531 18.525 0 31.056 12.531 12.531 12.531 12.531 31.056 0 18.524-12.531 31.055-12.531 12.532-31.056 12.532Zm162.153 0q-18.525 0-31.056-12.532-12.531-12.531-12.531-31.055 0-18.525 12.531-31.056 12.531-12.531 31.056-12.531 18.524 0 31.055 12.531 12.532 12.531 12.532 31.056 0 18.524-12.532 31.055-12.531 12.532-31.055 12.532Z"/>
</svg>
