<svg aria-hidden="true" viewBox="0 -960 960 960" fill="currentColor">
  <path d="M202.391-101.587q-37.782 0-64.391-26.608-26.609-26.609-26.609-64.392v-160q0-37.783 26.609-64.391 26.609-26.609 64.391-26.609h394.5V-554.5q0-19.152 13.174-32.326T642.391-600q19.153 0 32.327 13.174 13.173 13.174 13.173 32.326v110.913h74.5q37.783 0 64.392 26.609 26.609 26.608 26.609 64.391v160q0 37.783-26.609 64.392-26.609 26.608-64.392 26.608h-560Zm120-171q0-17-11.5-28.5t-28.5-11.5q-17 0-28.5 11.5t-11.5 28.5q0 17 11.5 28.5t28.5 11.5q17 0 28.5-11.5t11.5-28.5Zm140 0q0-17-11.5-28.5t-28.5-11.5q-17 0-28.5 11.5t-11.5 28.5q0 17 11.5 28.5t28.5 11.5q17 0 28.5-11.5t11.5-28.5Zm100 40q17 0 28.5-11.5t11.5-28.5q0-17-11.5-28.5t-28.5-11.5q-17 0-28.5 11.5t-11.5 28.5q0 17 11.5 28.5t28.5 11.5Zm80-431q-10.282 0-19.163 2-8.88 2-17.641 5.522-16.717 6.761-34.054 5.521-17.337-1.239-29.816-13.717-12.478-12.478-11.978-29.837t14.978-25.837q21.367-13.23 46.294-20.354 24.927-7.124 51.38-7.124 26.454 0 51.381 7.124t46.293 20.354q14.479 8.478 14.859 25.837.38 17.359-12.098 29.837-12.478 12.478-29.956 13.837-17.479 1.359-34.196-5.641-8-3.761-17.265-5.642-9.265-1.88-19.018-1.88Zm-.04-143.826q-39.438 0-75.297 11.739-35.858 11.739-66.097 33.5-14.499 10.239-31.587 9.239-17.087-1-28.805-12.717-12.478-12.479-12.359-29.435.12-16.957 13.837-27.435 41.24-32 92.316-50.239Q585.435-891 642.511-891t108.272 18.358q51.195 18.359 92.435 50.598 13.478 10.456 13.478 27.185 0 16.728-12.478 29.207-11.718 11.717-28.806 12.717-17.087 1-31.586-9.239-30.239-21.761-66.138-33.5t-75.337-11.739Z"/>
</svg>
