<svg aria-hidden="true" viewBox="0 -960 960 960" fill="currentColor">
  <path d="M806-268 600-474v-86q0-17 11.5-28.5T640-600q17 0 28.5 11.5T680-560v120h80q33 0 56.5 23.5T840-360v78q0 14-12 19t-22-5Zm-606 68h446L486-360H200v160Zm0 80q-33 0-56.5-23.5T120-200v-160q0-33 23.5-56.5T200-440h206L83-763q-12-12-12-28.5T83-820q12-12 28.5-12t28.5 12l680 680q12 12 12 28t-12 28q-12 12-28.5 12T763-84l-37-36H200Zm51.5-131.5Q240-263 240-280t11.5-28.5Q263-320 280-320t28.5 11.5Q320-297 320-280t-11.5 28.5Q297-240 280-240t-28.5-11.5Zm140 0Q380-263 380-280t11.5-28.5Q403-320 420-320t28.5 11.5Q460-297 460-280t-11.5 28.5Q437-240 420-240t-28.5-11.5Zm140 0Q520-263 520-280t11.5-28.5Q543-320 560-320t28.5 11.5Q600-297 600-280t-11.5 28.5Q577-240 560-240t-28.5-11.5ZM200-200v-160 160Zm440-460q-11 0-20 2t-18 6q-16 7-32.5 6T541-659q-12-12-11.5-29t14.5-25q21-13 45.5-20t50.5-7q27 0 51 7t45 20q14 8 14.5 25T739-659q-12 12-29 13t-33-6q-8-4-17.5-6t-19.5-2Zm-74.5-128.5Q530-777 500-755q-14 10-30.5 9T442-758q-12-12-12-28t13-26q41-32 91-50t106-18q56 0 106 18t91 50q13 10 13 26t-12 28q-11 11-27.5 12t-30.5-9q-30-22-65.5-33.5T640-800q-39 0-74.5 11.5Z"/>
</svg>
