<svg aria-hidden="true" viewBox="0 -960 960 960" fill="currentColor">
  <path d="M198.087-120q-33.957 0-57.815-23.978-23.859-23.979-23.859-57.935 0-33.957 23.859-57.815 23.858-23.859 57.815-23.859 33.956 0 57.935 23.859Q280-235.87 280-201.913q0 33.956-23.978 57.935Q232.043-120 198.087-120ZM739-120q-25.435 0-44.13-17.957-18.696-17.956-22.174-44.63-10.479-96.804-52.74-181.967-42.26-85.163-108.163-150.946-65.902-65.783-150.945-108.163-85.044-42.38-181.848-52.859-26.674-3.478-44.63-22.554-17.957-19.076-17.957-45.511 0-26.674 18.576-44.25T179-804.174q123.478 10.717 231.957 63.076 108.478 52.359 191.337 135.217 82.858 82.859 135.217 191.337 52.359 108.479 63.076 231.957 2.478 25.435-15.837 44.011Q766.435-120 739-120Zm-243.587 0q-24.435 0-44.131-17.576-19.695-17.576-25.413-45.011-18.478-93.174-86.206-160.783-67.728-67.608-160.902-86.086-27.435-5.718-44.891-25.914-17.457-20.195-17.457-45.63 0-27.435 19.076-44.511 19.076-17.076 43.511-13.598 147.043 20.718 251.424 125.098 104.38 104.381 125.098 251.424 3.478 24.435-14.479 43.511Q523.087-120 495.413-120Z"/>
</svg>
