<svg aria-hidden="true" viewBox="0 -960 960 960" fill="currentColor">
  <path d="m563-386-52-177q-4-14 4.5-25.5T538-600q10 0 17.5 6t10.5 15l34 116 34-116q3-9 10.5-15t17.5-6q14 0 22.5 11.5T689-563l-52 177q-4 13-13.5 19.5T600-360q-14 0-23.5-6T563-386ZM70-360q-13 0-21.5-8.5T40-390v-170q0-17 11.5-28.5T80-600h100q25 0 42.5 17.5T240-540v40q0 18-10.5 33T204-444l20 46q6 14-2.5 26T198-360q-8 0-15-4.5T173-377l-27-63h-46v50q0 13-8.5 21.5T70-360Zm30-140h80v-40h-80v40Zm650 140q-13 0-21.5-8.5T720-390v-170q0-17 11.5-28.5T760-600h100q25 0 42.5 17.5T920-540v40q0 25-17.5 42.5T860-440h-80v50q0 13-8.5 21.5T750-360Zm30-140h80v-40h-80v40ZM310-360q-13 0-21.5-8.5T280-390q0-13 8.5-21.5T310-420h90v-30h-80q-17 0-28.5-11.5T280-490v-70q0-17 11.5-28.5T320-600h110q13 0 21.5 8.5T460-570q0 13-8.5 21.5T430-540h-90v30h80q17 0 28.5 11.5T460-470v70q0 17-11.5 28.5T420-360H310Z"/>
</svg>
