<svg aria-hidden="true" viewBox="0 -960 960 960" fill="currentColor">
  <path d="m559.413-385.522-52-177q-4.239-14.717 4.757-27.054 8.995-12.337 23.812-12.337 10.583 0 18.681 6.41T566-579.478l32.087 109.782 32.326-109.782q3.188-9.615 11.158-16.025 7.969-6.41 18.596-6.41 14.876 0 23.974 12.337T689-562.522l-52 177q-4.239 13.957-14.098 20.696-9.859 6.739-24.815 6.739-14.957 0-24.696-6.359-9.739-6.358-13.978-21.076ZM70-358.087q-13.829 0-22.871-9.042-9.042-9.042-9.042-22.871v-166.413q0-19.152 13.174-32.326t32.326-13.174h94.5q27.152 0 45.489 18.337 18.337 18.337 18.337 45.489v36.174q0 19.435-10.38 34.674-10.381 15.239-25.142 23.956l19.283 44.566q6.717 15.434-2.261 28.032t-25.382 12.598q-8.748 0-15.988-4.859-7.239-4.858-10.717-13.337l-26.522-61.804h-42.891V-390q0 13.829-9.042 22.871-9.042 9.042-22.871 9.042Zm31.913-143.826h76.174v-36.174h-76.174v36.174ZM750-358.087q-13.829 0-22.871-9.042-9.042-9.042-9.042-22.871v-166.413q0-19.152 13.174-32.326t32.326-13.174h94.5q27.152 0 45.489 18.337 18.337 18.337 18.337 45.489v36.174q0 26.913-18.337 45.37-18.337 18.456-45.489 18.456h-76.174V-390q0 13.829-9.042 22.871-9.042 9.042-22.871 9.042Zm31.913-143.826h76.174v-36.174h-76.174v36.174ZM310-358.087q-13.829 0-22.871-9.042-9.042-9.042-9.042-22.871 0-13.829 9.042-22.871 9.042-9.042 22.871-9.042h88.087v-26.174h-74.5q-19.152 0-32.326-13.174t-13.174-32.326v-62.826q0-19.152 13.174-32.326t32.326-13.174H430q13.829 0 22.871 9.042 9.042 9.042 9.042 22.871 0 13.829-9.042 22.871-9.042 9.042-22.871 9.042h-88.087v26.174h74.5q19.152 0 32.326 13.174t13.174 32.326v62.826q0 19.152-13.174 32.326t-32.326 13.174H310Z"/>
</svg>
