<svg aria-hidden="true" viewBox="0 -960 960 960" fill="currentColor">
  <path d="M360-120q-38 0-68.5-22T248-200h-48q-50 0-85-35t-35-85v-160q0-33 23.5-56.5T160-560h160v-120H120q-17 0-28.5-11.5T80-720q0-17 11.5-28.5T120-760h480q33 0 56.5 23.5T680-680v400h86l-14-14q-12-12-11.5-28t11.5-28q12-12 28.5-12.5T809-351l83 83q12 12 12 28t-12 28l-84 84q-11 11-28 11t-28-11q-11-11-11-28t11-28l16-16H472q-12 36-43 58t-69 22Zm40-440h200v-120H400v120Zm-11.5 348.5Q400-223 400-240t-11.5-28.5Q377-280 360-280t-28.5 11.5Q320-257 320-240t11.5 28.5Q343-200 360-200t28.5-11.5ZM248-280q13-36 43.5-58t68.5-22q38 0 69 22t43 58h128v-200H160v160q0 17 11.5 28.5T200-280h48Zm0-200h-88 440-352Z"/>
</svg>
