<svg aria-hidden="true" viewBox="0 -960 960 960" fill="currentColor">
  <path d="M152.978-414.5q-13.913 0-20.13-12.174-6.218-12.174 1.739-23.609L398.5-830.152q9.435-13.913 25.467-8.696Q440-833.63 440-816.478v379.108q0 9.435-6.717 16.153-6.718 6.717-16.153 6.717H152.978Zm353.435-29.913q11.717-40.348 20.859-98.228 9.141-57.881 9.141-117.359 0-56.761-8.402-117.043-8.402-60.283-19.402-105.196-5.718-21.544 4.434-30.337 10.153-8.794 28.74.598 56.195 26.913 109.674 75.369 53.478 48.457 95.478 111.435 42 62.978 69.38 136.315 27.381 73.337 30.859 150.772.239 9.435-6.956 16.511-7.196 7.076-16.631 7.076h-295.5q-12.957 0-19.435-8.598-6.478-8.598-2.239-21.315Zm-52.652 210.609q-20 15.521-43.881 24.543-23.88 9.022-49.88 9.022-26 0-49.88-9.022-23.881-9.022-43.881-24.543-12-8.761-26.359-8.761-14.358 0-26.119 8.761-10.435 8.717-22.25 14.934-11.815 6.218-24.25 11.218-23.761-17.718-42.142-41.935-18.38-24.217-31.14-53.174Q84.455-325 97.075-342.5q12.62-17.5 38.62-17.5h688.608q26 0 38.62 17.5 12.62 17.5 3.098 39.739-12.761 28.957-31.141 53.174-18.381 24.217-42.142 41.935-12.435-5-24.25-11.218-11.815-6.217-22.25-14.934-11.761-8.761-26.119-8.761-14.359 0-26.359 8.761-20 15.521-43.881 24.543-23.88 9.022-49.88 9.022-26 0-49.88-9.022-23.881-9.022-43.881-24.543-12-8.761-26.239-8.761t-26.239 8.761ZM120-32.587q30.761 0 60.88-7.5 30.12-7.5 59.12-22.26 29 14.76 59.12 22.26 30.119 7.5 60.88 7.5 30.761 0 60.88-7.5 30.12-7.5 59.12-22.26 29 14.76 59.12 22.26 30.119 7.5 60.88 7.5 30.761 0 60.88-7.5 30.12-7.5 59.12-22.26 29 14.76 59.12 22.26 30.119 7.5 60.88 7.5 18.435 0 31.011-12.695 12.576-12.696 12.576-31.131 0-18.435-12.576-31.011T840-120q-25.043 0-49.946-6.5-24.902-6.5-47.663-20.022Q733.196-152 719.88-152q-13.315 0-22.51 5.478Q674.609-133 649.826-126.62q-24.783 6.381-49.826 6.381t-49.706-6.381Q525.63-133 502.63-146.522 493.435-152 480.5-152q-12.935 0-22.891 5.478Q434.848-133 409.946-126.5 385.043-120 360-120t-49.706-6.5q-24.664-6.5-47.664-20.022Q252.674-152 240-152t-22.63 5.478q-23 13.522-47.664 20.022Q145.043-120 120-120q-18.435 0-31.01 12.576-12.577 12.576-12.577 31.011t12.576 31.13Q101.565-32.587 120-32.587Z"/>
</svg>
