<svg aria-hidden="true" viewBox="0 -960 960 960" fill="currentColor">
  <path d="M158-420q-12 0-17.5-10.5T142-451l262-377q8-12 22-7.5t14 19.5v376q0 8-6 14t-14 6H158Zm352-28q11-37 20.5-95t9.5-117q0-57-9-118t-20-104q-5-17 3-24t23 0q55 25 108 72.5t95 110q42 62.5 69.5 135T840-440q0 8-6 14t-14 6H530q-12 0-18-8t-2-20Zm-56 213q-20 16-44 25.5t-50 9.5q-26 0-50-9.5T266-235q-12-9-26-9t-26 9q-9 8-19.5 13.5T173-211q-24-17-42.5-40.5T99-303q-10-22 2.5-39.5T140-360h680q26 0 38.5 17.5T861-303q-13 28-31.5 51.5T787-211q-11-5-21.5-10.5T746-235q-12-9-26-9t-26 9q-20 16-44 25.5t-50 9.5q-26 0-50-9.5T506-235q-12-9-26-9t-26 9ZM120-40q31 0 61-7.5T240-70q29 15 59 22.5t61 7.5q31 0 61-7.5T480-70q29 15 59 22.5t61 7.5q31 0 61-7.5T720-70q29 15 59 22.5t61 7.5q17 0 28.5-11.5T880-80q0-17-11.5-28.5T840-120q-26 0-51.5-6.5T740-147q-8-5-20-5t-20 5q-23 14-48.5 20.5T600-120q-26 0-51.5-6.5T500-147q-8-5-19.5-5t-20.5 5q-23 14-48.5 20.5T360-120q-26 0-51.5-6.5T260-147q-9-5-20-5t-20 5q-23 14-48.5 20.5T120-120q-17 0-28.5 11.5T80-80q0 17 11.5 28.5T120-40Z"/>
</svg>
