<svg aria-hidden="true" viewBox="0 -960 960 960" fill="currentColor">
  <path d="M171.5-491.5Q160-503 160-520t11.5-28.5Q183-560 200-560t28.5 11.5Q240-537 240-520t-11.5 28.5Q217-480 200-480t-28.5-11.5Zm180 0Q340-503 340-520t11.5-28.5Q363-560 380-560t28.5 11.5Q420-537 420-520t-11.5 28.5Q397-480 380-480t-28.5-11.5Zm200 0Q540-503 540-520t11.5-28.5Q563-560 580-560t28.5 11.5Q620-537 620-520t-11.5 28.5Q597-480 580-480t-28.5-11.5Zm180 0Q720-503 720-520t11.5-28.5Q743-560 760-560t28.5 11.5Q800-537 800-520t-11.5 28.5Q777-480 760-480t-28.5-11.5Zm-470-110Q250-613 250-630t11.5-28.5Q273-670 290-670t28.5 11.5Q330-647 330-630t-11.5 28.5Q307-590 290-590t-28.5-11.5Zm380 0Q630-613 630-630t11.5-28.5Q653-670 670-670t28.5 11.5Q710-647 710-630t-11.5 28.5Q687-590 670-590t-28.5-11.5Zm-190-10Q440-623 440-640t11.5-28.5Q463-680 480-680t28.5 11.5Q520-657 520-640t-11.5 28.5Q497-600 480-600t-28.5-11.5Zm-100-100Q340-723 340-740t11.5-28.5Q363-780 380-780t28.5 11.5Q420-757 420-740t-11.5 28.5Q397-700 380-700t-28.5-11.5Zm200 0Q540-723 540-740t11.5-28.5Q563-780 580-780t28.5 11.5Q620-757 620-740t-11.5 28.5Q597-700 580-700t-28.5-11.5Zm-100-100Q440-823 440-840t11.5-28.5Q463-880 480-880t28.5 11.5Q520-857 520-840t-11.5 28.5Q497-800 480-800t-28.5-11.5ZM266-160q-88-80-103-204-2-18 10-31t31-13h552q18 0 30.5 13t10.5 31q-14 124-102.5 204T480-80q-126 0-214-80Z"/>
</svg>
