<svg aria-hidden="true" viewBox="0 -960 960 960" fill="currentColor">
  <path d="M200-120q-33 0-56.5-23.5T120-200v-560q0-33 23.5-56.5T200-840h447q16 0 30.5 6t25.5 17l114 114q11 11 17 25.5t6 30.5v183l-80 80v-263L647-760H200v560h376l-80 80H200Zm280-120q50 0 85-35t35-85q0-50-35-85t-85-35q-50 0-85 35t-35 85q0 50 35 85t85 35ZM280-560h280q17 0 28.5-11.5T600-600v-80q0-17-11.5-28.5T560-720H280q-17 0-28.5 11.5T240-680v80q0 17 11.5 28.5T280-560Zm590 321L683-52q-6 6-13.5 9T654-40h-34q-8 0-14-6t-6-14v-34q0-8 3-15.5t9-13.5l188-187 70 71Zm26-27-71-70 34-34q6-6 14.5-6t14.5 6l42 42q6 6 6 14t-6 14l-34 34Zm-696 66v-560 560Z"/>
</svg>
