<svg aria-hidden="true" viewBox="0 -960 960 960" fill="currentColor">
  <path d="M202.87-111.869q-37.538 0-64.269-26.732-26.732-26.731-26.732-64.269v-554.26q0-37.538 26.732-64.269 26.731-26.732 64.269-26.732h442.934q18.211 0 34.714 6.837 16.504 6.837 29.178 19.511l112.087 112.087q12.674 12.674 19.511 29.178 6.837 16.503 6.837 34.714v166.26l-91.001 91v-257.26L645.804-757.13H202.87v554.26h368.586l-91 91.001H202.87ZM480-242.87q50 0 85-35t35-85q0-50-35-85t-85-35q-50 0-85 35t-35 85q0 50 35 85t85 35ZM288.37-557.13h269q19.152 0 32.326-13.174t13.174-32.326v-69q0-19.152-13.174-32.326T557.37-717.13h-269q-19.152 0-32.326 13.174T242.87-671.63v69q0 19.152 13.174 32.326t32.326 13.174Zm586.413 320.76L684.674-46.26q-6.717 6.717-15.054 10.195-8.337 3.478-17.533 3.478h-36.631q-9.147 0-16.008-6.86-6.861-6.862-6.861-16.01v-36.63q0-9.196 3.478-17.533 3.478-8.337 10.196-15.054L797.13-314.783l77.653 78.413Zm26.239-27-78.413-77.652 33.761-34q7.434-7.435 17.967-7.435 10.533 0 17.967 7.435l42.718 42.718q7.435 7.434 7.435 17.587 0 10.152-7.435 17.587l-34 33.76Zm-698.152 60.5v-554.26 554.26Z"/>
</svg>
