<svg aria-hidden="true" viewBox="0 -960 960 960" fill="currentColor">
  <path d="M147.652-79.283q-29.587 0-48.478-20.51Q80.283-120.304 83-147.653q8.717-92.131 39.5-157.696t74.206-110.087q43.424-44.522 95.348-70.022 51.924-25.5 102.446-35.978v-112.587q-99.609-13.478-174.739-54.021-75.131-40.544-110.891-97.587-21.153-32.109.347-63.598 21.5-31.489 66.044-31.489h609.478q44.544 0 66.163 31.489 21.62 31.489.468 63.598-35.761 57.043-111.011 97.706-75.25 40.663-174.859 53.902v112.587q50.761 10.478 102.565 35.978 51.805 25.5 95.229 70.022 43.423 44.522 74.206 110.087T877-147.652q2.717 27.348-16.174 47.858-18.891 20.511-48.478 20.511H690.522q-19.152 0-32.326-13.174-13.174-13.173-13.174-32.326 0-18.195 12.217-31.25 12.218-13.054 31.37-14.25h93.956q-19.196-142.674-109.674-206.13-90.478-63.456-193.13-63.456t-192.772 63.456q-90.119 63.456-109.554 206.13h93.956q19.152 1.196 31.37 14.25 12.217 13.055 12.217 31.25 0 19.153-13.174 32.326-13.174 13.174-32.326 13.174H147.652ZM480-715.717q82.63 0 151.598-21.87 68.967-21.869 106.423-55.717H221.979q37.456 33.848 106.423 55.717 68.968 21.87 151.598 21.87Zm-3.587 636.434q-33.478 0-57.457-23.978-23.978-23.978-23.978-57.456 0-17.24 6.5-31.598 6.5-14.359 17.978-25.598 19.044-19.044 60.087-39.826 41.044-20.783 98.131-42.304 25.108-9.435 35.924 1.26 10.815 10.696 1.38 35.805-22.282 57.087-42.424 98.75-20.141 41.663-39.184 60.706-11.24 11.479-25.479 17.859-14.239 6.38-31.478 6.38ZM480-715.717Z"/>
</svg>
