<svg aria-hidden="true" viewBox="0 -960 960 960" fill="currentColor">
  <path d="M140-80q-26 0-42.5-18T83-140q8-95 39.5-162t76-112q44.5-45 97.5-70.5T400-520v-120q-102-13-180-54.5T106-794q-19-29 2.5-57.5T170-880h620q40 0 61.5 28.5T854-794q-36 58-114 99.5T560-640v120q51 10 104 35.5t97.5 70.5q44.5 45 76 112T877-140q2 24-14.5 42T820-80H680q-17 0-28.5-11.5T640-120q0-17 11.5-28.5T680-160h115q-18-152-113.5-220T480-448q-106 0-201.5 68T165-160h115q17 0 28.5 11.5T320-120q0 17-11.5 28.5T280-80H140Zm340 0q-33 0-56.5-23.5T400-160q0-17 6.5-31t17.5-25q20-20 62-41.5T587-301q22-8 31.5 1.5T620-268q-23 59-43.5 101.5T536-104q-11 11-25 17.5T480-80Z"/>
</svg>
