<svg aria-hidden="true" viewBox="0 -960 960 960" fill="currentColor">
  <path d="M704-480 178-670q-16-6-23-21t-1-31q6-16 21-23t31-1l586 214q20 8 34 28t14 44v220q0 33-23.5 56.5T760-160H200q-33 0-56.5-23.5T120-240v-160q0-33 23.5-56.5T200-480h504Zm56 240v-160H200v160h560Zm-320-40h240q17 0 28.5-11.5T720-320q0-17-11.5-28.5T680-360H440q-17 0-28.5 11.5T400-320q0 17 11.5 28.5T440-280Zm-131.5-11.5Q320-303 320-320t-11.5-28.5Q297-360 280-360t-28.5 11.5Q240-337 240-320t11.5 28.5Q263-280 280-280t28.5-11.5ZM200-240v-160 160Z"/>
</svg>
