<svg aria-hidden="true" viewBox="0 -960 960 960" fill="currentColor">
  <path d="M240-800v200-200 640-9.5 9.5-640Zm0 720q-33 0-56.5-23.5T160-160v-640q0-33 23.5-56.5T240-880h287q16 0 30.5 6t25.5 17l194 194q11 11 17 25.5t6 30.5v141q-19-7-39-10.5t-41-3.5v-120H600q-33 0-56.5-23.5T520-680v-120H240v640h254q8 23 20 43t28 37H240Zm480-103-56 55q-11 11-27.5 11.5T608-128q-11-11-11-28t11-28l56-56-56-56q-11-11-11-28t11-28q11-11 28-11t28 11l56 56 56-56q11-11 27.5-11.5T832-352q11 11 11 28t-11 28l-55 56 55 56q11 11 11.5 27.5T832-128q-11 11-28 11t-28-11l-56-55Z"/>
</svg>
