<svg aria-hidden="true" viewBox="0 -960 960 960" fill="currentColor">
  <path d="M567-167q-47-47-47-113t47-113q47-47 113-47t113 47q47 47 47 113t-47 113q-47 47-113 47t-113-47Zm169.5-56.5Q760-247 760-280t-23.5-56.5Q713-360 680-360t-56.5 23.5Q600-313 600-280t23.5 56.5Q647-200 680-200t56.5-23.5ZM167-287q-47-47-47-113t47-113q47-47 113-47t113 47q47 47 47 113t-47 113q-47 47-113 47t-113-47Zm169.5-56.5Q360-367 360-400t-23.5-56.5Q313-480 280-480t-56.5 23.5Q200-433 200-400t23.5 56.5Q247-320 280-320t56.5-23.5ZM327-607q-47-47-47-113t47-113q47-47 113-47t113 47q47 47 47 113t-47 113q-47 47-113 47t-113-47Zm169.5-56.5Q520-687 520-720t-23.5-56.5Q473-800 440-800t-56.5 23.5Q360-753 360-720t23.5 56.5Q407-640 440-640t56.5-23.5ZM680-280ZM280-400Zm160-320Z"/>
</svg>
