<svg aria-hidden="true" viewBox="0 -960 960 960" fill="currentColor">
  <path d="M620-360h100q17 0 28.5-11.5T760-400v-160q0-17-11.5-28.5T720-600H620q-17 0-28.5 11.5T580-560v160q0 17 11.5 28.5T620-360Zm20-60h60v-120h-60v120Zm-400 60h110q13 0 21.5-8.5T380-390q0-13-8.5-21.5T350-420h-90v-40h80q17 0 28.5-11.5T380-500v-60q0-17-11.5-28.5T340-600H230q-13 0-21.5 8.5T200-570q0 13 8.5 21.5T230-540h90v40h-80q-17 0-28.5 11.5T200-460v60q0 17 11.5 28.5T240-360Zm-80 200q-33 0-56.5-23.5T80-240v-480q0-33 23.5-56.5T160-800h120v-40q0-17 11.5-28.5T320-880q17 0 28.5 11.5T360-840v40h240v-40q0-17 11.5-28.5T640-880q17 0 28.5 11.5T680-840v40h120q33 0 56.5 23.5T880-720v480q0 33-23.5 56.5T800-160H160Zm341.5-368.5Q510-537 510-550t-8.5-21.5Q493-580 480-580t-21.5 8.5Q450-563 450-550t8.5 21.5Q467-520 480-520t21.5-8.5Zm0 140Q510-397 510-410t-8.5-21.5Q493-440 480-440t-21.5 8.5Q450-423 450-410t8.5 21.5Q467-380 480-380t21.5-8.5Zm0-280Q510-677 510-690t-8.5-21.5Q493-720 480-720t-21.5 8.5Q450-703 450-690t8.5 21.5Q467-660 480-660t21.5-8.5Zm0 420Q510-257 510-270t-8.5-21.5Q493-300 480-300t-21.5 8.5Q450-283 450-270t8.5 21.5Q467-240 480-240t21.5-8.5Z"/>
</svg>
