<svg aria-hidden="true" viewBox="0 -960 960 960" fill="currentColor">
  <path d="M634-600q-14 0-24-10t-10-24v-132q0-14 10-24t24-10h6v-40q0-33 23.5-56.5T720-920q33 0 56.5 23.5T800-840v40h6q14 0 24 10t10 24v132q0 14-10 24t-24 10H634Zm46-200h80v-40q0-17-11.5-28.5T720-880q-17 0-28.5 11.5T680-840v40ZM441-129l-77-77q-11-11-11-28t11-28q11-11 28-11t28 11L590-92q12 12 7 28t-22 19q-14 2-27.5 2.5T520-42q-99 0-186.5-38T181-183q-65-65-103-152.5T40-522q0-17 11.5-28.5T80-562q17 0 28.5 11.5T120-522q0 72 24.5 137T212-268q43 52 102 88.5T441-129Zm277-365 56-56 44 44q23 23 23 54t-23 54L644-224q-23 23-54 23t-54-23L222-538q-23-23-23-54t23-54l174-174q23-23 54-23t54 23l44 44-54 58-44-44-170 170 310 310 170-170-42-42Zm-198-28Z"/>
</svg>
