<svg aria-hidden="true" viewBox="0 -960 960 960" fill="currentColor">
  <path d="M211.5-691.5Q200-703 200-720v-80q0-33 23.5-56.5T280-880h80q17 0 28.5 11.5T400-840q0 17-11.5 28.5T360-800h-80v80q0 17-11.5 28.5T240-680q-17 0-28.5-11.5ZM280-80q-33 0-56.5-23.5T200-160v-80q0-17 11.5-28.5T240-280q17 0 28.5 11.5T280-240v80h80q17 0 28.5 11.5T400-120q0 17-11.5 28.5T360-80h-80Zm411.5-611.5Q680-703 680-720v-80h-80q-17 0-28.5-11.5T560-840q0-17 11.5-28.5T600-880h80q33 0 56.5 23.5T760-800v80q0 17-11.5 28.5T720-680q-17 0-28.5-11.5ZM600-80q-17 0-28.5-11.5T560-120q0-17 11.5-28.5T600-160h80v-80q0-17 11.5-28.5T720-280q17 0 28.5 11.5T760-240v80q0 33-23.5 56.5T680-80h-80Z"/>
</svg>
