<svg aria-hidden="true" viewBox="0 -960 960 960" fill="currentColor">
  <path d="M324-111.5Q251-143 197-197t-85.5-127Q80-397 80-480t31.5-156Q143-709 197-763t127-85.5Q397-880 480-880t156 31.5Q709-817 763-763t85.5 127Q880-563 880-480t-31.5 156Q817-251 763-197t-127 85.5Q563-80 480-80t-156-31.5ZM440-164v-120q-60-12-102-54t-54-102H164q12 109 89.5 185T440-164Zm80 0q109-12 186.5-89.5T796-440H676q-12 60-54 102t-102 54v120ZM164-520h116l97-97q11-11 25.5-17t30.5-6h94q16 0 30.5 6t25.5 17l97 97h116q-15-121-105-200.5T480-800q-121 0-211 79.5T164-520Z"/>
</svg>
