<svg aria-hidden="true" viewBox="0 -960 960 960" fill="currentColor">
  <path d="M570-390q70-70 70-170t-70-170q-70-70-170-70t-170 70q-70 70-70 170t70 170q70 70 170 70t170-70ZM358-532l-57-56q-12-12-28-12t-28 12q-12 12-12.5 28t11.5 28l85 85q12 12 28.5 12t28.5-12l170-169q12-12 12-28.5T556-673q-12-12-28.5-12T499-673L358-532Zm42 292q-134 0-227-93T80-560q0-134 93-227t227-93q134 0 227 93t93 227q0 56-17.5 105.5T653-364l199 199q12 12 12 28.5T852-108q-12 12-28.5 12T795-108L596-307q-41 32-90.5 49.5T400-240Zm0-320Z"/>
</svg>
