<svg aria-hidden="true" viewBox="0 -960 960 960" fill="currentColor">
  <path d="M400-320q100 0 170-70t70-170q0-100-70-170t-170-70q-100 0-170 70t-70 170q0 100 70 170t170 70Zm-28.5-131.5Q360-463 360-480v-200q0-17 11.5-28.5T400-720q17 0 28.5 11.5T440-680v200q0 17-11.5 28.5T400-440q-17 0-28.5-11.5Zm-140 0Q220-463 220-480v-120q0-17 11.5-28.5T260-640q17 0 28.5 11.5T300-600v120q0 17-11.5 28.5T260-440q-17 0-28.5-11.5Zm280 0Q500-463 500-480v-80q0-17 11.5-28.5T540-600q17 0 28.5 11.5T580-560v80q0 17-11.5 28.5T540-440q-17 0-28.5-11.5ZM400-240q-134 0-227-93T80-560q0-134 93-227t227-93q134 0 227 93t93 227q0 56-17.5 106T653-363l199 199q11 11 11 28t-11 28q-11 11-28 11t-28-11L597-307q-41 32-91 49.5T400-240Z"/>
</svg>
