<svg aria-hidden="true" viewBox="0 -960 960 960" fill="currentColor">
  <path d="M200.957-111.869q-36.749 0-62.918-26.17-26.17-26.169-26.17-62.918h89.088v89.088Zm-89.088-169.088V-360h89.088v79.043h-89.088Zm0-159.043v-80h89.088v80h-89.088Zm0-160v-79.043h89.088V-600h-89.088Zm0-159.043q0-36.749 26.17-62.918 26.169-26.17 62.918-26.17v89.088h-89.088Zm169.088 647.174v-89.088H360v89.088h-79.043Zm0-647.174v-89.088H360v89.088h-79.043ZM440-111.869v-89.088h80v89.088h-80Zm0-647.174v-89.088h80v89.088h-80Zm160 647.174v-89.088h79.043v89.088H600Zm0-647.174v-89.088h79.043v89.088H600Zm159.043 647.174v-89.088h89.088q0 36.827-26.17 62.957-26.169 26.131-62.918 26.131Zm0-169.088V-360h89.088v79.043h-89.088Zm0-159.043v-80h89.088v80h-89.088Zm0-160v-79.043h89.088V-600h-89.088Zm0-159.043v-89.088q36.749 0 62.918 26.17 26.17 26.169 26.17 62.918h-89.088Z"/>
</svg>
