<svg aria-hidden="true" viewBox="0 -960 960 960" fill="currentColor">
  <path d="M200-120q-33 0-56.5-23.5T120-200h80v80Zm-80-640q0-33 23.5-56.5T200-840v80h-80Zm160 640v-80h80v80h-80Zm0-640v-80h80v80h-80Zm160 640v-80h80v80h-80Zm0-640v-80h80v80h-80Zm160 640v-80h80v80h-80Zm0-640v-80h80v80h-80Zm160 640v-80h80q0 33-23.5 56.5T760-120Zm0-640v-80q33 0 56.5 23.5T840-760h-80ZM320-280q-17 0-28.5-11.5T280-320v-320q0-17 11.5-28.5T320-680h320q17 0 28.5 11.5T680-640v320q0 17-11.5 28.5T640-280H320Zm40-80h240v-240H360v240Zm-240 80v-80h80v80h-80Zm0-160v-80h80v80h-80Zm0-160v-80h80v80h-80Zm640 320v-80h80v80h-80Zm0-160v-80h80v80h-80Zm0-160v-80h80v80h-80Z"/>
</svg>
