<svg aria-hidden="true" viewBox="0 -960 960 960" fill="currentColor">
  <path d="M439-480ZM240-80h79q17 0 28.5-11.5T359-120q0-17-11.5-28.5T319-160h-79v-437l202-203 197 203v94q0 17 11.5 28t28.5 11q17 0 28.5-11.5T719-504v-92q1-16-5-30.5T697-653L499-856q-12-12-26.5-18t-30.5-6q-15 0-30 6t-26 18L183-653q-11 11-17 25t-6 31v437q0 35 22.5 57.5T240-80Zm200-519q-25 0-41.5-17.5T380-659q2-25 18.5-42.5T440-719q25 0 41 17.5t19 42.5q-3 25-19 42.5T440-599Zm80 519q-51 0-85.5-34.5T400-200q0-48 33-82.5t81-36.5q16-36 49.5-58.5T637-400q47 0 85.5 26.5T773-300q45 0 76 32.5t31 77.5q0 45-28.5 77.5T780-80H520Zm0-80h250q12 0 21-8.5t9-21.5q0-12-9-21t-21-9h-57l-17-57q-5-20-21-31.5T639-320q-17 0-31.5 10T586-285l-20 45h-46q-17 0-28.5 11.5T480-200q0 17 11.5 28.5T520-160Zm120 0Z"/>
</svg>
