<svg aria-hidden="true" viewBox="0 -960 960 960" fill="currentColor">
  <path d="M520-80v-160l160-40-160-40v-160l400 200L520-80Zm-320-31.869q-36.348 0-62.239-25.892-25.892-25.891-25.892-62.239v-156.304q45.609 0 79.218-29.424 33.608-29.424 33.608-74.272 0-44.848-33.608-74.272-33.609-29.424-79.218-29.424V-720q0-36.348 25.892-62.239 25.891-25.892 62.239-25.892h153.065q2.631-43.434 33.305-72.554 30.673-29.12 73.63-29.12 42.957 0 73.63 29.12 30.674 29.12 33.305 72.554H720q36.348 0 62.239 25.892 25.892 25.891 25.892 62.239v293.826L440-610v383.957q-37.609 7.761-60.772 37.022-23.163 29.26-22.924 77.152H200Z"/>
</svg>
