<svg aria-hidden="true" viewBox="0 -960 960 960" fill="currentColor">
  <path d="M480-392.587q-36.109 0-61.761-25.652T392.587-480q0-36.109 25.652-61.761T480-567.413q36.109 0 61.761 25.652T567.413-480q0 36.109-25.652 61.761T480-392.587ZM157.565-219.348q-43.196-53.913-67.674-120.206Q65.413-405.848 65.413-480q0-75.152 24.478-141.065t67.674-119.587q11.717-13.957 29.533-14.196 17.815-.239 31.011 12.957 11.956 11.956 13.076 29.891 1.119 17.935-10.598 33.37-32 41.717-50 91.815t-18 106.815q0 56.717 17.5 106.815t49.5 91.815q11.717 15.435 11.217 33.251-.5 17.815-13.456 30.771-12.957 12.957-30.511 12.457-17.555-.5-29.272-14.457Zm116.63-116.63q-21.478-30.957-33.337-67.272Q229-439.565 229-480t11.858-77.511q11.859-37.076 33.337-67.272 9.718-14.195 27.772-14.695 18.055-.5 32.011 13.456 11.718 11.718 12.457 29.652.739 17.935-8.739 34.848-10.522 18-15.903 38.5-5.38 20.5-5.38 43.022t5.38 43.022q5.381 20.5 15.903 38.5 9.478 16.913 8.358 35.228-1.119 18.315-13.076 30.272-13.196 13.196-31.13 12.196-17.935-1-27.653-15.196Zm352.066 2.239q-11.717-11.717-12.576-29.772-.859-18.054 8.619-34.967 10.522-18 15.903-38.5 5.38-20.5 5.38-43.022t-5.38-43.022q-5.381-20.5-15.903-38.5-9.478-16.913-8.358-35.228 1.119-18.315 13.076-30.272 13.196-13.196 31.13-12.576 17.935.62 27.653 14.815 21.478 30.196 33.337 67.272Q731-520.435 731-480q0 40.435-11.858 76.75-11.859 36.315-33.337 67.272-9.718 14.196-28.033 14.815-18.315.62-31.511-12.576Zm116.391 116.391q-11.956-11.956-13.456-30.271-1.5-18.316 10.217-33.751 32-41.956 50-92.054t18-106.576q0-56.478-17.5-106.576-17.5-50.098-49.5-92.054-11.717-15.435-11.217-33.251.5-17.815 13.456-30.771 12.957-12.957 30.511-12.457 17.555.5 29.272 14.457 43.196 53.913 67.674 119.826Q894.587-554.913 894.587-480q0 74.152-24.478 140.446-24.478 66.293-67.674 120.206-11.717 13.957-29.272 14.457-17.554.5-30.511-12.457Z"/>
</svg>
