<svg aria-hidden="true" viewBox="0 -960 960 960" fill="currentColor">
  <path d="M168.5-405.5Q177-369 194-337q8 15 4.5 32T181-279q-14 10-30 5.5T127-293q-23-42-35-89t-12-98q0-51 12-98.5t35-89.5q8-15 24-19t30 6q14 9 17.5 26t-4.5 32q-17 32-25.5 68.5T160-480q0 38 8.5 74.5ZM310-310q-70-70-70-170t70-170q70-70 170-70t170 70q70 70 70 170t-70 170q-70 70-170 70t-170-70Zm283-57q47-47 47-113t-47-113q-47-47-113-47t-113 47q-47 47-47 113t47 113q47 47 113 47t113-47Zm198.5-187.5Q783-591 766-623q-8-15-5-32t17-26q14-10 30.5-6t24.5 19q23 42 35 89.5t12 98.5q0 51-12 98t-35 89q-8 15-24.5 19.5T778-279q-14-9-17-26t5-32q17-32 25.5-68.5T800-480q0-38-8.5-74.5ZM480-480Z"/>
</svg>
