<svg aria-hidden="true" viewBox="0 -960 960 960" fill="currentColor">
  <path d="M480-400q-33 0-56.5-23.5T400-480q0-33 23.5-56.5T480-560q33 0 56.5 23.5T560-480q0 33-23.5 56.5T480-400ZM170-227q-42-52-66-116.5T80-480q0-73 24-137t66-116q11-13 27.5-13t28.5 12q11 11 12 27.5T228-676q-32 41-50 90.5T160-480q0 56 17.5 105.5T227-284q11 14 10.5 30.5T225-225q-12 12-28 11.5T170-227Zm114-114q-21-30-32.5-65T240-480q0-39 11.5-75t32.5-65q9-13 25.5-13.5T339-621q11 11 11.5 27.5T342-562q-11 18-16.5 38.5T320-480q0 23 5.5 43.5T342-398q9 15 8 32t-12 28q-12 12-28.5 11T284-341Zm337 2q-11-11-11.5-27.5T618-398q11-18 16.5-38.5T640-480q0-23-5.5-43.5T618-562q-9-15-8-32t12-28q12-12 28.5-11.5T676-620q21 29 32.5 65t11.5 75q0 39-11.5 74T676-341q-9 13-26 13.5T621-339Zm114 114q-11-11-12.5-28t9.5-31q32-41 50-90.5T800-480q0-56-17.5-105.5T733-676q-11-14-10.5-30.5T735-735q12-12 28-11.5t27 13.5q42 52 66 116t24 137q0 72-24 136.5T790-227q-11 13-27 13.5T735-225Z"/>
</svg>
