<svg aria-hidden="true" viewBox="0 -960 960 960" fill="currentColor">
  <path d="m770.652-74.913-448.761-448q-2.478 10.478-3.978 20.956-1.5 10.479-1.5 21.957 0 22.522 5.38 43.022 5.381 20.5 15.903 38.5 9.478 16.913 8.358 35.228-1.119 18.315-13.076 30.272-13.196 13.196-31.13 12.196-17.935-1-27.653-15.196-21.478-30.957-33.337-67.272Q229-439.565 229-480q0-29.913 6.717-57.826 6.718-27.913 18.913-52.587l-56.608-56.37q-21.718 36.957-33.577 78.653-11.858 41.695-11.858 88.13 0 56.717 17.5 106.815t49.5 91.815q11.717 15.435 11.217 33.251-.5 17.815-13.456 30.771-12.957 12.957-30.511 12.457-17.555-.5-29.272-14.457-43.196-53.913-67.674-120.206Q65.413-405.848 65.413-480q0-64.63 18.456-122.261 18.457-57.63 51.131-107.544l-60.848-60.847q-11.717-11.718-11.717-29.316 0-17.597 12.478-30.076 11.717-11.717 29.315-11.717t30.076 11.717l695.74 696.501q11.717 11.717 11.717 29.315t-11.717 29.315q-12.479 12.478-30.076 12.478-17.598 0-29.316-12.478ZM827.87-254.5l-63.5-63.5q20.521-36.239 31.782-76.739 11.261-40.5 11.261-85.261 0-56.478-17.5-106.576-17.5-50.098-49.5-92.054-11.717-15.435-11.217-33.251.5-17.815 13.456-30.771 12.957-12.957 30.511-12.457 17.555.5 29.272 14.457 43.196 53.913 67.674 119.826Q894.587-554.913 894.587-480q0 62.435-17.739 119.25T827.87-254.5ZM708-374.37l-68.696-68.695q1.761-9.044 3.022-17.968T643.587-480q0-22.522-5.38-43.022-5.381-20.5-15.903-38.5-9.478-16.913-8.358-35.228 1.119-18.315 13.076-30.272 13.196-13.196 31.13-12.576 17.935.62 27.653 14.815 21.478 30.196 33.337 67.272Q731-520.435 731-480q0 28.717-6 55.315t-17 50.315Z"/>
</svg>
