<svg aria-hidden="true" viewBox="0 -960 960 960" fill="currentColor">
  <path d="M480-520q-50 0-85-35t-35-85q0-50 35-85t85-35q50 0 85 35t35 85q0 50-35 85t-85 35ZM280-280q-17 0-28.5-11.5T240-320v-36q0-21 10.5-39.5T279-425q45-26 95-40.5T480-480q56 0 106 14.5t95 40.5q18 11 28.5 29.5T720-356v36q0 17-11.5 28.5T680-280H280Zm370-606q7-16 22-22t30 2q63 33 113 82.5T900-712q9 16 5 33.5T885-653q-15 8-31 1.5T830-673q-28-51-68-90.5T671-831q-15-8-21.5-23.5t.5-31.5Zm-343 1q8 15 1 31t-22 24q-50 28-89 67.5T130-673q-8 15-24 21.5T75-653q-16-8-20-25.5t5-33.5q33-60 81-107.5T249-900q16-9 33-5t25 20ZM75-307q15-8 31-1t24 22q27 48 65 87t86 66q16 9 23.5 25t.5 32q-7 16-24 20.5T248-59q-60-32-107.5-80.5T60-248q-9-16-5-33.5T75-307Zm808 3q16 7 21 23t-3 32q-33 60-81 108T712-60q-16 9-33.5 5T653-75q-8-15-1-31t23-25q48-26 86-63.5t65-84.5q9-16 25-24t32-1Z"/>
</svg>
