<svg aria-hidden="true" viewBox="0 -960 960 960" fill="currentColor">
  <path d="M480-520q-50.957 0-86.674-35.717-35.717-35.718-35.717-86.674 0-50.957 35.717-86.674 35.717-35.718 86.674-35.718 50.957 0 86.674 35.718 35.717 35.717 35.717 86.674 0 50.956-35.717 86.674Q530.957-520 480-520Zm0-84.783q16.043 0 26.826-10.902 10.783-10.902 10.783-26.706 0-16.044-10.783-26.826Q496.043-680 480-680q-15.804 0-26.706 10.783-10.903 10.782-10.903 26.826 0 15.804 10.903 26.706 10.902 10.902 26.706 10.902ZM283.109-277.609q-19.152 0-32.326-13.174t-13.174-32.326V-356q0-21.478 10.858-40.696 10.859-19.217 29.337-30.456 45.718-26.718 96.316-40.978 50.597-14.261 105.88-14.261 55.761 0 106.12 14.38 50.358 14.381 96.076 40.859 18.478 11.239 29.337 30.337 10.858 19.098 10.858 40.815v32.891q0 19.152-13.174 32.326t-32.326 13.174H283.109Zm196.891-120q-37.891 0-74.141 8.805-36.25 8.804-69.098 26.413h286.478Q590.391-380 554.141-388.804q-36.25-8.805-74.141-8.805Zm170.717-486.956q7.957-18.392 25.707-24.511 17.75-6.12 35.141 3.315 59.413 31.804 106.902 78.674 47.49 46.869 81.055 105.522 10.435 18.152 5.956 37.924-4.478 19.771-22.63 28.967-16.913 8.957-35.185 1.978-18.272-6.978-27.707-23.891-26.087-46.456-62.978-82.967-36.891-36.511-83.348-62.598-16.673-9.435-23.652-27.087-6.978-17.652.739-35.326Zm-345.869 1.478q8.717 17.391.88 35.544-7.837 18.152-24.75 28.065-44.739 25.848-80.032 61.522-35.294 35.673-61.141 80.412-9.674 16.914-27.827 24.25-18.152 7.337-35.304-1.38-18.391-8.717-22.87-28.728-4.478-20.011 6.196-38.403 31.804-56.652 77.533-101.641 45.728-44.989 102.38-77.032 17.674-10.196 36.946-5.479 19.271 4.718 27.989 22.87ZM76.913-305.804q17.152-8.957 35.305-1.12 18.152 7.837 27.826 24.75 25.087 43.457 59.739 78.989 34.652 35.533 78.108 60.62 17.674 10.434 25.892 28.587 8.217 18.152.26 36.304-7.956 18.391-27.467 23.37-19.511 4.978-37.424-4.696-56.413-30.804-101.522-76.554-45.108-45.75-76.913-102.163-10.913-18.392-6.554-38.642 4.359-20.25 22.75-29.445Zm804.652 2.521q18.392 7.718 23.631 26.468 5.239 18.75-4.435 37.141-31.804 56.652-77.174 102.261Q778.218-91.804 721.565-60q-18.391 10.674-38.521 6.315-20.131-4.358-28.848-22.75-8.718-17.152-.881-35.424t25.511-28.706q43.217-24.326 77.75-58.359t59.619-76.489q10.674-17.674 28.827-26.63 18.152-8.957 36.543-1.24ZM480-642.391Zm0 280h143.239-286.478H480Z"/>
</svg>
