<svg aria-hidden="true" viewBox="0 -960 960 960" fill="currentColor">
  <path d="M763-84 325-521q-2 10-3.5 20t-1.5 21q0 23 5.5 43.5T342-398q9 15 8 32t-12 28q-12 12-28.5 11T284-341q-21-30-32.5-65T240-480q0-28 6-54t17-49l-59-59q-21 36-32.5 76.5T160-480q0 56 17.5 105.5T227-284q11 14 10.5 30.5T225-225q-12 12-28 11.5T170-227q-42-52-66-116.5T80-480q0-62 17.5-117T146-700l-63-63q-11-11-11-28t12-29q11-11 28-11t29 11l679 680q11 11 11 28t-11 28q-12 12-29 12t-28-12Zm51-176-58-58q21-36 32.5-76.5T800-480q0-56-17.5-105.5T733-676q-11-14-10.5-30.5T735-735q12-12 28-11.5t27 13.5q42 52 66 116t24 137q0 61-17.5 116.5T814-260ZM697-377l-62-62q2-10 3.5-20t1.5-21q0-23-5.5-43.5T618-562q-9-15-8-32t12-28q12-12 28.5-11.5T676-620q21 29 32.5 65t11.5 75q0 28-6 54t-17 49Z"/>
</svg>
