<svg aria-hidden="true" viewBox="0 -960 960 960" fill="currentColor">
  <path d="m356-522 21 21q9 9 21 9t21-9q9-9 9-21t-9-21l-21-21 22-23q8-9 8-21t-9-21q-9-9-21-9t-21 9l-21 21-23-22q-9-8-21-8t-21 9q-8 8-8.5 20.5T290-587l22 23-21 21q-9 9-9 21t9 21q8 8 20.5 8.5T333-500l23-22Zm248 0 23 22q9 8 21 8t21-9q9-9 9-21t-9-21l-21-21 22-23q8-9 8-21t-9-21q-8-8-20.5-8.5T627-630l-23 22-21-21q-9-9-21-9t-21 9q-8 8-8.5 20.5T540-587l22 23-21 21q-9 9-9 21t9 21q9 9 21 9t21-9l21-21ZM324-111.5Q251-143 197-197t-85.5-127Q80-397 80-480t31.5-156Q143-709 197-763t127-85.5Q397-880 480-880t156 31.5Q709-817 763-763t85.5 127Q880-563 880-480t-31.5 156Q817-251 763-197t-127 85.5Q563-80 480-80t-156-31.5ZM480-420q-57 0-106.5 28T294-316q-6 12 1 24t21 12h328q14 0 21-12t1-24q-30-48-79-76t-107-28Z"/>
</svg>
