<svg aria-hidden="true" viewBox="0 -960 960 960" fill="currentColor">
  <path d="M480-420q-54 0-101.5 23.5T302-328q-11 16-3 32t26 16q8 0 14.5-3.5T351-294q23-31 57-48.5t72-17.5q38 0 72 17.5t57 48.5q4 7 10.5 10.5T634-280q18 0 26-16.5t-3-33.5q-29-44-76.5-67T480-420Zm140-100q25 0 42.5-17.5T680-580q0-25-17.5-42.5T620-640q-25 0-42.5 17.5T560-580q0 25 17.5 42.5T620-520Zm-280 0q25 0 42.5-17.5T400-580q0-25-17.5-42.5T340-640q-25 0-42.5 17.5T280-580q0 25 17.5 42.5T340-520Zm-16 408.5Q251-143 197-197t-85.5-127Q80-397 80-480t31.5-156Q143-709 197-763t127-85.5Q397-880 480-880t156 31.5Q709-817 763-763t85.5 127Q880-563 880-480t-31.5 156Q817-251 763-197t-127 85.5Q563-80 480-80t-156-31.5ZM480-480Zm227 227q93-93 93-227t-93-227q-93-93-227-93t-227 93q-93 93-93 227t93 227q93 93 227 93t227-93Z"/>
</svg>
