<svg aria-hidden="true" viewBox="0 -960 960 960" fill="currentColor">
  <path d="M620-520q25 0 42.5-17.5T680-580q0-25-17.5-42.5T620-640q-25 0-42.5 17.5T560-580q0 25 17.5 42.5T620-520Zm-280 0q25 0 42.5-17.5T400-580q0-25-17.5-42.5T340-640q-25 0-42.5 17.5T280-580q0 25 17.5 42.5T340-520Zm50 180h180q13 0 21.5-8.5T600-370q0-13-8.5-21.5T570-400H390q-13 0-21.5 8.5T360-370q0 13 8.5 21.5T390-340Zm-66 228.5Q251-143 197-197t-85.5-127Q80-397 80-480t31.5-156Q143-709 197-763t127-85.5Q397-880 480-880t156 31.5Q709-817 763-763t85.5 127Q880-563 880-480t-31.5 156Q817-251 763-197t-127 85.5Q563-80 480-80t-156-31.5Z"/>
</svg>
