<svg aria-hidden="true" viewBox="0 -960 960 960" fill="currentColor">
  <path d="m480-338 46 46q6 6 14 6t14-6l46-46 18 18q9 9 21 9t21-9q9-9 9-21t-9-21l-46-46q-6-6-14-6t-14 6l-46 46-46-46q-6-6-14-6t-14 6l-46 46-46-46q-6-6-14-6t-14 6l-46 46q-9 9-9 21t9 21q9 9 21 9t21-9l18-18 46 46q6 6 14 6t14-6l46-46ZM339-560l-52 38q-10 8-12.5 20t5.5 22q8 10 20 12.5t22-5.5l97-71q8-6 8-16t-8-16l-97-71q-10-8-22-5.5T280-640q-8 10-6 22t13 20l52 38Zm282 0 52-38q10-8 12.5-20t-5.5-22q-8-10-20-12.5t-22 5.5l-97 71q-8 6-8 16t8 16l97 71q10 8 22 5.5t20-12.5q8-10 6-22t-13-20l-52-38ZM324-111.5Q251-143 197-197t-85.5-127Q80-397 80-480t31.5-156Q143-709 197-763t127-85.5Q397-880 480-880t156 31.5Q709-817 763-763t85.5 127Q880-563 880-480t-31.5 156Q817-251 763-197t-127 85.5Q563-80 480-80t-156-31.5ZM480-480Zm227 227q93-93 93-227t-93-227q-93-93-227-93t-227 93q-93 93-93 227t93 227q93 93 227 93t227-93Z"/>
</svg>
