<svg aria-hidden="true" viewBox="0 -960 960 960" fill="currentColor">
  <path d="M390-340h180q13 0 21.5-8.5T600-370q0-13-8.5-21.5T570-400H390q-13 0-21.5 8.5T360-370q0 13 8.5 21.5T390-340Zm-66 228.5Q251-143 197-197t-85.5-127Q80-397 80-480t31.5-156Q143-709 197-763t127-85.5Q397-880 480-880t156 31.5Q709-817 763-763t85.5 127Q880-563 880-480t-31.5 156Q817-251 763-197t-127 85.5Q563-80 480-80t-156-31.5ZM480-480Zm227 227q93-93 93-227t-93-227q-93-93-227-93t-227 93q-93 93-93 227t93 227q93 93 227 93t227-93ZM340-620q-23 0-44 9t-37 26q-10 11-10 24.5t11 20.5q10 7 22 5t22-10q8-7 17-10.5t19-3.5q10 0 19 4t17 10q10 8 22 9.5t22-5.5q11-7 11-20.5T421-585q-16-17-37-26t-44-9Zm280 0q-23 0-45 9t-38 26q-10 11-9 24t12 21q10 7 22 5.5t22-9.5q8-6 17-10t19-4q11 0 20 4t17 10q10 8 21.5 9.5T700-540q11-7 11-20.5T701-585q-16-17-37-26t-44-9Z"/>
</svg>
