<svg aria-hidden="true" viewBox="0 -960 960 960" fill="currentColor">
  <path d="M480-260q53 0 100.5-23t76.5-67q11-17 3-33.5T634-400q-8 0-14.5 3.5T609-386q-23 31-57 48.5T480-320q-38 0-72-17.5T351-386q-5-7-11.5-10.5T325-400q-18 0-26 16t3 32q29 45 76.5 68.5T480-260Zm140-260q25 0 42.5-17.5T680-580q0-25-17.5-42.5T620-640q-25 0-42.5 17.5T560-580q0 25 17.5 42.5T620-520Zm-280 0q25 0 42.5-17.5T400-580q0-25-17.5-42.5T340-640q-25 0-42.5 17.5T280-580q0 25 17.5 42.5T340-520Zm-16 408.5Q251-143 197-197t-85.5-127Q80-397 80-480t31.5-156Q143-709 197-763t127-85.5Q397-880 480-880t156 31.5Q709-817 763-763t85.5 127Q880-563 880-480t-31.5 156Q817-251 763-197t-127 85.5Q563-80 480-80t-156-31.5Z"/>
</svg>
