<svg aria-hidden="true" viewBox="0 -960 960 960" fill="currentColor">
  <path d="M480-260q34 0 64-12.5t56-35.5q9-8 9-21t-9-21q-9-8-21.5-8t-22.5 8q-17 13-36 21t-40 8q-21 0-40-8t-36-21q-10-8-22.5-8t-21.5 8q-9 8-9 21t9 21q26 22 56 35t64 13ZM324-111.5Q251-143 197-197t-85.5-127Q80-397 80-480t31.5-156Q143-709 197-763t127-85.5Q397-880 480-880t156 31.5Q709-817 763-763t85.5 127Q880-563 880-480t-31.5 156Q817-251 763-197t-127 85.5Q563-80 480-80t-156-31.5ZM480-480Zm227 227q93-93 93-227t-93-227q-93-93-227-93t-227 93q-93 93-93 227t93 227q93 93 227 93t227-93ZM340-480q32 0 57.5-20t39.5-49q5-13 .5-25.5T420-590q-11-3-22 2.5T382-571q-7 13-17.5 22t-24.5 9q-14 0-25-9.5T298-572q-5-11-16-16t-22-2q-13 3-17.5 15.5T244-549q12 30 38 49.5t58 19.5Zm280 0q32 0 57.5-20t39.5-49q5-13 .5-25.5T700-590q-11-3-22 2.5T662-571q-7 13-17.5 22t-24.5 9q-14 0-25-9.5T578-572q-5-11-16-16t-22-2q-13 3-17.5 15.5T524-549q12 30 38 49.5t58 19.5Z"/>
</svg>
