<svg aria-hidden="true" viewBox="0 -960 960 960" fill="currentColor">
  <path d="M125.5-360q-37.537 0-64.269-26.731Q34.5-413.463 34.5-451v-349q0-37.538 26.731-64.269Q87.963-891 125.5-891h709q37.537 0 64.269 26.731Q925.5-837.538 925.5-800v349q0 37.537-26.731 64.269Q872.037-360 834.5-360h-709Zm0-91h709v-349h-709v349Zm27.978 236.413q-15.152 1.239-25.826-8.554-10.674-9.794-11.913-24.946-1.239-15.152 8.684-25.738t25.099-11.762l659-34q15.152-1.239 25.826 8.435 10.674 9.674 11.913 24.826 1.239 15.152-8.684 25.851t-25.099 11.888l-659 34ZM150-104.5q-15.152 0-25.326-10.174Q114.5-124.848 114.5-140q0-15.152 10.174-25.326Q134.848-175.5 150-175.5h660q15.152 0 25.326 10.174Q845.5-155.152 845.5-140q0 15.152-10.174 25.326Q825.152-104.5 810-104.5H150ZM125.5-451v-349 349ZM169-599.239q27.87 26.717 88.055 60.109 60.184 33.391 155.575 33.391 104.957 0 167.381-39.555 62.424-39.554 86.728-64.184 5.717 28.369 28.804 50.076 23.087 21.706 57.739 29.706 16.153 4.435 28.685-6.619Q794.5-547.37 794.5-564.479v-121.282q0-17.109-12.533-28.163-12.532-11.054-28.685-6.62-34.652 8.24-57.858 29.446-23.207 21.207-28.924 49.815-25.022-25.109-86.968-64.543-61.945-39.435-166.902-39.435-95.391 0-155.575 33.772Q196.87-677.718 169-651q-10.869 10.435-10.869 25.88 0 15.446 10.869 25.881Z"/>
</svg>
