<svg aria-hidden="true" viewBox="0 -960 960 960" fill="currentColor">
  <path d="M600-40H360q-17 0-28.5-11.5T320-80v-480q0-17 11.5-28.5T360-600h240q17 0 28.5 11.5T640-560v480q0 17-11.5 28.5T600-40ZM480-390q21 0 35.5-14.5T530-440q0-21-14.5-35.5T480-490q-21 0-35.5 14.5T430-440q0 21 14.5 35.5T480-390Zm0-330q-32 0-60 9t-52 25q-14 9-30.5 8T310-690q-12-12-11-28t14-26q35-26 77-41t90-15q48 0 90 15t77 41q13 10 14 26t-11 28q-11 11-27 12t-30-8q-24-16-52.5-25t-60.5-9Zm0-160q-64 0-120.5 20.5T257-802q-14 11-31 11t-29-12q-12-12-11-29.5t15-28.5q57-46 128-72.5T480-960q81 0 152.5 27.5T761-857q13 11 13 27t-12 28q-12 12-28.5 11.5T703-802q-46-37-102.5-57.5T480-880Zm-80 760h160v-400H400v400Zm0 0h160-160Z"/>
</svg>
