<svg aria-hidden="true" viewBox="0 -960 960 960" fill="currentColor">
  <path d="m480-175.869-88.174 87.934Q379.152-75.26 360-75.38q-19.152-.12-31.826-12.794Q315.5-100.848 315.5-120t12.674-31.826L434.5-258.152v-126.5q-27.239-13.196-43.62-39.033Q374.5-449.522 374.5-480q0-44.152 30.674-74.826Q435.848-585.5 480-585.5q44.152 0 74.826 30.674Q585.5-524.152 585.5-480q0 30.478-16.38 56.315-16.381 25.837-43.62 39.033v126.5l106.326 106.326Q644.5-139.152 644.5-120t-12.674 31.826Q619.152-75.5 600-75.38q-19.152.12-31.826-12.555L480-175.869Zm-.034-506.044q-74.683 0-130.662 47.978-55.978 47.978-68.183 121.375-2.034 15.082-14.534 23.821t-28.5 8.739q-17 0-28-12.429t-9-29.332q14.239-104.717 93.598-172.435 79.358-67.717 185.195-67.717 105.837 0 185.316 67.717 79.478 67.718 93.687 172.334 2.03 17.101-8.97 29.482-11 12.38-28 12.38-16 0-28.5-8.739t-14.534-23.821q-12.205-73.397-68.218-121.375-56.012-47.978-130.695-47.978Zm.053-160q-140.736 0-243.291 94.393-102.554 94.393-116.63 234.979-2.011 15.063-14.011 23.802-12 8.739-28 8.739-17 0-28.5-12.429t-9.5-29.332q7.239-85.478 44.478-158.337 37.239-72.859 96.478-126.717 59.24-53.859 136.359-84.479 77.12-30.619 162.508-30.619 86.394 0 163.243 30.665 76.85 30.665 136.12 84.454 59.27 53.789 96.439 126.681 37.169 72.892 44.201 158.352 2 16.903-9.5 29.332-11.5 12.429-28.5 12.429-16 0-28-8.739t-14.01-23.802Q825.829-653.127 723.292-747.52q-102.536-94.393-243.273-94.393Z"/>
</svg>
