<svg aria-hidden="true" viewBox="0 -960 960 960" fill="currentColor">
  <path d="M751.522-632.783q-5.957 0-11.935-3.358-5.978-3.359-8.696-10.316l-25.545-55.02-55.02-25.545q-6.956-2.717-10.315-8.696-3.359-5.978-3.359-11.934 0-5.957 3.359-12.055t10.315-8.815l55.044-25.283 25.521-55.282q2.718-6.957 8.696-10.196t11.935-3.239q5.957 0 12.054 3.239 6.098 3.239 8.816 10.196l25.521 55.282 55.044 25.283q6.956 2.717 10.315 8.815 3.359 6.098 3.359 12.055 0 5.956-3.359 11.934-3.359 5.979-10.315 8.696l-55.02 25.545-25.545 55.02q-2.718 6.957-8.816 10.316-6.097 3.358-12.054 3.358Zm79.753 293.196q-5.077 0-10.154-3t-7.838-8l-14-30-30-14q-3-1.761-11-18.008 0-5.077 3-10.154t8-7.838l30-14 14-30q1.761-3 18.008-11 5.077 0 10.154 3t7.838 8l14 30 30 14q3 1.761 11 18.008 0 5.077-3 10.154t-8 7.838l-30 14-14 30q-1.761 3-18.008 11ZM333.37-69q-16.914 0-29.468-11.435-12.554-11.434-15.033-28.347l-7.521-56.131q-6.566-2.442-12.72-6.512-6.155-4.07-10.258-8.14L206.717-157q-15.913 7.718-32.326 2-16.413-5.717-25.369-21.391l-65.913-114.87q-8.957-14.913-4.972-31.936 3.984-17.024 17.645-27.238l44.131-32.848v-26.021l-44.13-32.848Q82.12-452.366 78.136-469.39q-3.984-17.023 4.973-31.936l65.913-114.87q8.956-15.674 25.369-21.391 16.413-5.717 32.326 2l51.653 22.565q4.103-4.136 10.258-8.273 6.154-4.136 12.72-6.618l7.521-55.891q2.479-17.153 15.033-28.468 12.554-11.315 29.468-11.315h133.826q17.036 0 29.529 11.315 12.493 11.315 14.971 28.468l7.522 55.891q6.565 2.482 12.72 6.618 6.154 4.137 10.258 8.273l51.652-22.565q15.913-7.717 32.326-2t25.37 21.391l65.913 114.87q8.956 14.913 4.972 31.936-3.985 17.024-17.646 27.238l-44.131 32.848v26.021l44.131 32.848q13.661 10.214 17.646 27.238 3.984 17.023-4.972 31.936l-65.913 114.87q-8.957 15.674-25.37 21.391-16.413 5.718-32.326-2l-51.652-22.565q-4.104 4.07-10.258 8.14-6.155 4.07-12.72 6.512l-7.522 56.131q-2.478 16.913-14.971 28.347Q484.232-69 467.196-69H333.37Zm66.955-205.022q50.914 0 86.512-35.689t35.598-86.674q0-50.985-35.64-86.582-35.64-35.598-86.555-35.598-50.914 0-86.512 35.64t-35.598 86.554q0 50.915 35.64 86.632 35.64 35.717 86.555 35.717Zm-.042-80q-17.718 0-29.935-12.337-12.218-12.337-12.218-30.054t12.218-29.935q12.217-12.217 29.935-12.217 17.717 0 29.934 12.217 12.218 12.218 12.218 29.935t-12.218 30.054Q418-354.022 400.283-354.022Zm-30 197.609h60l8-72q29-8 49.5-20.5t40.5-33.5l66 30 28-50-58-44q8.239-23 8.239-50t-8.239-50l58-44-28-50-66 30q-20-21-40.5-33.5t-49.5-20.5l-8-72h-60l-8 72q-29 8-49.5 20.5t-40.5 33.5l-66-30-28 50 58 44q-8.24 23-8.62 50-.38 27 8.62 50l-58 44 28 50 66-30q20 21 40.5 33.5t49.5 20.5l8 72Zm30-240Z"/>
</svg>
