<svg aria-hidden="true" viewBox="0 -960 960 960" fill="currentColor">
  <path d="M806-480 652-636q-11-11-11.5-27.5T652-692q11-11 28-11t28 11l184 184q6 6 8.5 13t2.5 15q0 8-2.5 15t-8.5 13L708-268q-11 11-27.5 11.5T652-268q-11-11-11-28t11-28l154-156Zm-652 0 154 156q11 11 11.5 27.5T308-268q-11 11-28 11t-28-11L68-452q-6-6-8.5-13T57-480q0-8 2.5-15t8.5-13l184-184q11-11 27.5-11.5T308-692q11 11 11 28t-11 28L154-480Zm137.5 28.5Q280-463 280-480t11.5-28.5Q303-520 320-520t28.5 11.5Q360-497 360-480t-11.5 28.5Q337-440 320-440t-28.5-11.5Zm160 0Q440-463 440-480t11.5-28.5Q463-520 480-520t28.5 11.5Q520-497 520-480t-11.5 28.5Q497-440 480-440t-28.5-11.5Zm160 0Q600-463 600-480t11.5-28.5Q623-520 640-520t28.5 11.5Q680-497 680-480t-11.5 28.5Q657-440 640-440t-28.5-11.5Z"/>
</svg>
