<svg aria-hidden="true" viewBox="0 -960 960 960" fill="currentColor">
  <path d="M440-464 284-308q-11 11-28 11t-28-11q-11-11-11-28t11-28l196-196-196-196q-11-11-11-28t11-28q11-11 28-11t28 11l156 156v-247q0-18 12-29.5t28-11.5q8 0 15 3t13 9l172 172q6 6 8.5 13t2.5 15q0 8-2.5 15t-8.5 13L536-560l144 144q6 6 8.5 13t2.5 15q0 8-2.5 15t-8.5 13L508-188q-6 6-13 9t-15 3q-16 0-28-11.5T440-217v-247Zm80 150 76-74-76-76v150Zm0-342 76-76-76-74v150ZM291.5-11.5Q280-23 280-40t11.5-28.5Q303-80 320-80t28.5 11.5Q360-57 360-40t-11.5 28.5Q337 0 320 0t-28.5-11.5Zm160 0Q440-23 440-40t11.5-28.5Q463-80 480-80t28.5 11.5Q520-57 520-40t-11.5 28.5Q497 0 480 0t-28.5-11.5Zm160 0Q600-23 600-40t11.5-28.5Q623-80 640-80t28.5 11.5Q680-57 680-40t-11.5 28.5Q657 0 640 0t-28.5-11.5Z"/>
</svg>
