<svg aria-hidden="true" viewBox="0 -960 960 960" fill="currentColor">
  <path d="M316.191 14.587q-18.213 0-30.55-12.32t-12.337-30.533q0-18.212 12.32-30.549 12.321-12.337 30.533-12.337 18.213 0 30.549 12.32 12.337 12.32 12.337 30.533 0 18.212-12.32 30.55-12.32 12.336-30.532 12.336Zm163.826 0q-18.213 0-30.55-12.32T437.13-28.266q0-18.212 12.321-30.549 12.32-12.337 30.532-12.337 18.213 0 30.55 12.32t12.337 30.533q0 18.212-12.321 30.55-12.32 12.336-30.532 12.336Zm163.826 0q-18.213 0-30.549-12.32-12.337-12.32-12.337-30.533 0-18.212 12.32-30.549t30.532-12.337q18.213 0 30.55 12.32t12.337 30.533q0 18.212-12.32 30.55-12.321 12.336-30.533 12.336ZM479.972-394.5q-53.798 0-91.429-37.65-37.63-37.651-37.63-91.437v-238.326q0-53.786 37.658-91.437Q426.23-891 480.028-891q53.798 0 91.429 37.65 37.63 37.651 37.63 91.437v238.326q0 53.786-37.658 91.437-37.659 37.65-91.457 37.65ZM480-110.913q-18.524 0-31.056-12.531-12.531-12.531-12.531-31.056v-81.13q-96.109-12.479-163.022-79.392t-82.109-160.782q-3.478-18.913 9.837-33.348 13.316-14.435 35.229-14.435 14.93 0 26.66 11.098 11.731 11.098 15.209 27.293Q292.174-414 348.318-366.283 404.461-318.565 480-318.565q75.539 0 131.682-47.718Q667.826-414 681.783-485.196q3.478-16.195 15.576-27.293 12.098-11.098 27.293-11.098 21.153 0 34.348 14.435 13.196 14.435 9.718 33.348-15.196 93.869-82.109 160.782-66.913 66.913-163.022 79.392v81.13q0 18.525-12.531 31.056-12.532 12.531-31.056 12.531Z"/>
</svg>
