<svg aria-hidden="true" viewBox="0 -960 960 960" fill="currentColor">
  <path d="m480-184-92 92q-11 11-28 11t-28-11q-11-11-11-28t11-28l108-108v-132q-27-12-43.5-37T380-480q0-42 29-71t71-29q42 0 71 29t29 71q0 30-16.5 55T520-388v132l108 108q11 11 11 28t-11 28q-11 11-28 11t-28-11l-92-92Zm0-496q-74 0-129.5 47.5T283-512q-2 15-14.5 23.5T240-480q-17 0-28-12.5t-9-29.5q14-104 93-171t184-67q105 0 184 67t93 171q2 17-9 29.5T720-480q-16 0-28.5-8.5T677-512q-12-73-67.5-120.5T480-680Zm0-160q-140 0-242 94T122-512q-2 15-14 23.5T80-480q-17 0-28.5-12.5T42-522q7-85 44-157.5t96-126q59-53.5 136-84T480-920q86 0 162.5 30.5t135.5 84q59 53.5 96 126T918-522q2 17-9.5 29.5T880-480q-16 0-28-8.5T838-512q-14-140-116-234t-242-94Z"/>
</svg>
