<svg aria-hidden="true" viewBox="0 -960 960 960" fill="currentColor">
  <path d="M423.5-823.5Q400-847 400-880t23.5-56.5Q447-960 480-960t56.5 23.5Q560-913 560-880t-23.5 56.5Q513-800 480-800t-56.5-23.5ZM360-240v-440q-49-4-99-11t-98-18q-17-4-27.5-19t-5.5-32q5-17 21-25t34-4q70 15 145.5 22t149.5 7q74 0 149.5-7T775-789q18-4 34 4t21 25q5 17-5.5 32T797-709q-48 11-98 18t-99 11v440q0 17-11.5 28.5T560-200q-17 0-28.5-11.5T520-240v-200h-80v200q0 17-11.5 28.5T400-200q-17 0-28.5-11.5T360-240ZM291.5-11.5Q280-23 280-40t11.5-28.5Q303-80 320-80t28.5 11.5Q360-57 360-40t-11.5 28.5Q337 0 320 0t-28.5-11.5Zm160 0Q440-23 440-40t11.5-28.5Q463-80 480-80t28.5 11.5Q520-57 520-40t-11.5 28.5Q497 0 480 0t-28.5-11.5Zm160 0Q600-23 600-40t11.5-28.5Q623-80 640-80t28.5 11.5Q680-57 680-40t-11.5 28.5Q657 0 640 0t-28.5-11.5Z"/>
</svg>
