<svg aria-hidden="true" viewBox="0 -960 960 960" fill="currentColor">
  <path d="M291.5-11.5Q280-23 280-40t11.5-28.5Q303-80 320-80t28.5 11.5Q360-57 360-40t-11.5 28.5Q337 0 320 0t-28.5-11.5ZM480 0q-17 0-28.5-11.5T440-40q0-17 11.5-28.5T480-80q17 0 28.5 11.5T520-40q0 17-11.5 28.5T480 0Zm131.5-11.5Q600-23 600-40t11.5-28.5Q623-80 640-80t28.5 11.5Q680-57 680-40t-11.5 28.5Q657 0 640 0t-28.5-11.5ZM395-435q-35-35-35-85v-240q0-50 35-85t85-35q50 0 85 35t35 85v240q0 50-35 85t-85 35q-50 0-85-35Zm85-205Zm-40 480v-84q-92-12-157.5-77T203-479q-2-17 9-29t28-12q17 0 28.5 11.5T284-480q14 70 69.5 115T480-320q72 0 127-45.5T676-480q4-17 15.5-28.5T720-520q17 0 28 12t9 29q-14 91-79 157t-158 78v84q0 17-11.5 28.5T480-120q-17 0-28.5-11.5T440-160Zm68.5-331.5Q520-503 520-520v-240q0-17-11.5-28.5T480-800q-17 0-28.5 11.5T440-760v240q0 17 11.5 28.5T480-480q17 0 28.5-11.5Z"/>
</svg>
