<svg aria-hidden="true" viewBox="0 -960 960 960" fill="currentColor">
  <path d="M160-38.087q-17.813 0-29.863-12.05T118.087-80v-126.804q-35-12.479-57.5-43.098-22.5-30.62-22.5-70.098v-78.087h243.826V-320q0 39.478-22.5 70.098-22.5 30.619-57.5 43.098V-79q0 17.834-12.05 29.373-12.05 11.54-29.863 11.54Zm320 0q-17.813 0-29.863-12.05T438.087-80v-126.804q-35-12.479-57.5-43.098-22.5-30.62-22.5-70.098v-78.087h243.826V-320q0 39.478-22.5 70.098-22.5 30.619-57.5 43.098V-79q0 17.834-12.05 29.373-12.05 11.54-29.863 11.54Zm320 0q-17.813 0-29.863-12.05T758.087-80v-126.804q-35-12.479-57.5-43.098-22.5-30.62-22.5-70.098v-78.087h243.826V-320q0 39.478-22.5 70.098-22.5 30.619-57.5 43.098V-79q0 17.834-12.05 29.373-12.05 11.54-29.863 11.54ZM38.087-481.913v-194.5q0-19.152 13.174-32.326t32.326-13.174h34.5V-880q0-17.813 12.05-29.863T160-921.913q17.813 0 29.863 12.05T201.913-880v158.087h34.5q19.152 0 32.326 13.174t13.174 32.326v194.5H38.087Zm320 0v-194.5q0-19.152 13.174-32.326t32.326-13.174h34.5V-880q0-17.813 12.05-29.863T480-921.913q17.813 0 29.863 12.05T521.913-880v158.087h34.5q19.152 0 32.326 13.174t13.174 32.326v194.5H358.087Zm320 0v-194.5q0-19.152 13.174-32.326t32.326-13.174h34.5V-880q0-17.813 12.05-29.863T800-921.913q17.813 0 29.863 12.05T841.913-880v158.087h34.5q19.152 0 32.326 13.174t13.174 32.326v194.5H678.087Z"/>
</svg>
