<svg aria-hidden="true" viewBox="0 -960 960 960" fill="currentColor">
  <path d="M160-280q-33 0-56.5-23.5T80-360v-240q0-33 23.5-56.5T160-680h640q33 0 56.5 23.5T880-600v240q0 33-23.5 56.5T800-280H160Zm0-80h640v-240H160v240Zm80-80h160q17 0 28.5-11.5T440-480q0-17-11.5-28.5T400-520H240q-17 0-28.5 11.5T200-480q0 17 11.5 28.5T240-440Zm348.5-11.5Q600-463 600-480t-11.5-28.5Q577-520 560-520t-28.5 11.5Q520-497 520-480t11.5 28.5Q543-440 560-440t28.5-11.5Zm120 0Q720-463 720-480t-11.5-28.5Q697-520 680-520t-28.5 11.5Q640-497 640-480t11.5 28.5Q663-440 680-440t28.5-11.5ZM160-360v-240 240Z"/>
</svg>
