<svg aria-hidden="true" viewBox="0 -960 960 960" fill="currentColor">
  <path d="M751.522-632.783q-5.957 0-11.935-3.358-5.978-3.359-8.696-10.316L705.37-701.5l-55.044-25.522q-6.956-2.717-10.315-8.696-3.359-5.978-3.359-11.934 0-5.957 3.359-12.055t10.315-8.815l55.044-25.283 25.521-55.282q2.718-6.957 8.696-10.196t11.935-3.239q5.957 0 12.054 3.239 6.098 3.239 8.816 10.196l25.521 55.282 55.044 25.283q6.956 2.717 10.315 8.815 3.359 6.098 3.359 12.055 0 5.956-3.359 11.934-3.359 5.979-10.315 8.696L797.913-701.5l-25.521 55.043q-2.718 6.957-8.816 10.316-6.097 3.358-12.054 3.358Zm79.761 293.196q-5 0-10.12-3-5.119-3-7.88-8l-14-30-30-14q-3-1.761-11-18 0-5 3-10.119 3-5.12 8-7.881l30-14 14-30q1.761-3 18-11 5 0 10.119 3 5.12 3 7.881 8l14 30 30 14q3 1.761 11 18 0 5-3 10.12-3 5.119-8 7.88l-30 14-14 30q-1.761 3-18 11ZM333.37-69q-16.914 0-29.468-11.435-12.554-11.434-15.033-28.347l-7.521-56.131q-6.566-2.522-12.75-6.565-6.185-4.043-10.228-8.087L206.717-157q-15.913 6.957-32.326 1.62t-25.369-21.011l-65.913-114.87q-8.718-15.674-5.36-32.326 3.36-16.652 18.034-26.848l44.13-32.848v-26.021l-44.13-32.848Q81.108-452.348 77.75-469q-3.359-16.652 5.359-32.326l65.913-114.87q8.956-15.674 25.369-21.011t32.326 1.62l51.653 22.565q4.043-4.043 10.228-8.206 6.184-4.163 12.75-6.685l7.521-55.891q2.479-17.153 15.033-28.468 12.554-11.315 29.468-11.315h133.826q17.152 0 29.587 11.315 12.435 11.315 14.913 28.468l7.522 55.891q6.565 2.522 12.749 6.685 6.185 4.163 10.229 8.206l51.652-22.565q15.913-6.957 32.326-1.62t25.37 21.011l65.913 114.87q8.717 15.674 5.358 32.326-3.358 16.652-18.032 26.848l-44.131 32.848v26.021l44.131 32.848q14.674 10.196 18.032 26.848 3.359 16.652-5.358 32.326l-65.913 114.87q-8.957 15.674-25.37 21.011T593.848-157l-51.652-22.565q-4.044 4.044-10.229 8.087-6.184 4.043-12.749 6.565l-7.522 56.131q-2.478 16.913-14.913 28.347Q484.348-69 467.196-69H333.37Zm66.913-205.022q50.956 0 86.554-35.717t35.598-86.674q0-50.957-35.598-86.554-35.598-35.598-86.554-35.598-50.957 0-86.555 35.598-35.598 35.597-35.598 86.554t35.598 86.674q35.598 35.717 86.555 35.717Zm0-122.391Z"/>
</svg>
