<svg aria-hidden="true" viewBox="0 -960 960 960" fill="currentColor">
  <path d="M480-482.63q-19.152 0-32.326-13.174T434.5-528.131V-840q0-19.152 13.174-32.326T480-885.5q19.152 0 32.326 13.174T525.5-840v311.869q0 19.153-13.174 32.327T480-482.63Zm0 288.13q-137.109 0-232.62-95.511T151.869-522.63q0-68.24 26.805-129.74 26.804-61.5 76.934-108.065 12.674-13.152 31.066-11.989 18.391 1.163 31.543 13.598 14.153 13.196 14.153 32.206 0 19.011-13.957 32.642-35.13 33.043-55.337 77.011Q242.87-573 242.87-522.63q0 98.804 69.163 167.967Q381.196-285.5 480-285.5q98.804 0 167.967-69.163 69.163-69.163 69.163-167.967 0-51.087-20.684-95.772-20.685-44.685-57.25-78.446-14.435-13.152-14.957-32.163-.522-19.011 13.724-32.259 13.059-12.143 31.211-14.067 18.152-1.924 30.826 10.75 52.565 49.043 80.348 111.159 27.783 62.116 27.783 130.798 0 137.108-95.511 232.619T480-194.5ZM316.43 0q-18.213 0-30.669-12.32-12.457-12.32-12.457-30.533 0-18.212 12.457-30.669 12.456-12.456 30.669-12.456 18.212 0 30.532 12.456 12.321 12.457 12.321 30.67 0 18.212-12.321 30.532Q334.642 0 316.43 0ZM480 0q-17.957 0-30.294-12.32-12.336-12.32-12.336-30.533 0-18.212 12.336-30.669 12.337-12.456 30.414-12.456 18.076 0 30.413 12.456 12.337 12.457 12.337 30.67 0 18.212-12.325 30.532T480 0Zm164.082 0q-18.212 0-30.549-12.32t-12.337-30.533q0-18.212 12.32-30.669 12.32-12.456 30.533-12.456 18.212 0 30.549 12.456 12.337 12.457 12.337 30.67 0 18.212-12.32 30.532T644.082 0Z"/>
</svg>
