<svg aria-hidden="true" viewBox="0 -960 960 960" fill="currentColor">
  <path d="M680-80v-400q16 0 31 2.5t29 7.5v380q-14 5-29 7.5T680-80Zm-100-28v-344q14-8 28.5-14.5T640-476v392q-17-3-31.5-9.5T580-108Zm200 0v-344q45 26 72.5 71T880-280q0 56-27.5 101T780-108Zm-240-30q-28-27-44-63.5T480-280q0-42 16-79t44-64v285Zm-56 58h-79q-15 0-26-10t-13-25l-12-93q-13-5-24.5-12T307-235l-87 36q-14 6-28 1.5T170-215L96-344q-8-13-5-28t15-24l75-57q-1-7-1-13.5v-27q0-6.5 1-13.5l-75-57q-12-9-15-24t5-28l74-129q8-13 22-17.5t28 1.5l87 36q11-8 22.5-15t24.5-12l12-93q2-15 13-25t26-10h150q15 0 26 10t13 25l12 93q13 5 24.5 12t22.5 15l87-36q14-6 28-1.5t22 17.5l74 129q8 13 5 28t-15 24l-46 35q-30-15-62-23t-66-8q-20 0-38.5 3.5T604-548q-19-33-51.5-52.5T482-620q-58 0-99 41t-41 99q0 38 18.5 70t50.5 51q-6 20-8.5 41.5T400-275q1 56 22.5 106.5T484-80Z"/>
</svg>
