<svg aria-hidden="true" viewBox="0 -960 960 960" fill="currentColor">
  <path d="M570-82q-19 5-34.5-6.5T520-120v-200q0-20 15.5-31.5T571-358q37 10 74 14t75 4q38 0 75.5-4t74.5-14q19-5 34.5 6.5T920-320v200q0 20-15.5 31.5T870-82q-37-10-74.5-14t-75.5-4q-38 0-75.5 4T570-82Zm-130 2h-35q-15 0-26-10t-13-25l-12-93q-13-5-24.5-12T307-235l-87 36q-14 6-28 1.5T170-215L96-344q-8-13-5-28t15-24l75-57q-1-7-1-13.5v-27q0-6.5 1-13.5l-75-57q-12-9-15-24t5-28l74-129q8-13 22-17.5t28 1.5l87 36q11-8 23-15t24-12l12-93q2-15 13-25t26-10h150q15 0 26 10t13 25l12 93q13 5 24.5 12t22.5 15l87-36q14-6 28-1.5t22 17.5l74 129q8 13 5 28t-15 24l-75 57q1 7 1 13.5v33.5q0 10-2 20H616q3-10 4.5-19.5T622-480q0-58-41-99t-99-41q-59 0-99.5 41T342-480q0 48 27.5 84t70.5 50v266Z"/>
</svg>
