<svg aria-hidden="true" viewBox="0 -960 960 960" fill="currentColor">
  <path d="M325-111.5q-73-31.5-127.5-86t-86-127.5Q80-398 80-480.5t31.5-155q31.5-72.5 86-127t127.5-86Q398-880 480.5-880t155 31.5q72.5 31.5 127 86t86 127Q880-563 880-480.5T848.5-325q-31.5 73-86 127.5t-127 86Q563-80 480.5-80T325-111.5ZM480-480Zm-137.5 22.5Q360-475 360-500t-17.5-42.5Q325-560 300-560t-42.5 17.5Q240-525 240-500t17.5 42.5Q275-440 300-440t42.5-17.5Zm360 0Q720-475 720-500t-17.5-42.5Q685-560 660-560t-42.5 17.5Q600-525 600-500t17.5 42.5Q635-440 660-440t42.5-17.5Zm-300 180Q420-295 420-320t-17.5-42.5Q385-380 360-380t-42.5 17.5Q300-345 300-320t17.5 42.5Q335-260 360-260t42.5-17.5Zm240 0Q660-295 660-320t-17.5-42.5Q625-380 600-380t-42.5 17.5Q540-345 540-320t17.5 42.5Q575-260 600-260t42.5-17.5ZM420-600h120q26 0 43-17t17-43q0-26-17-43t-43-17H420q-26 0-43 17t-17 43q0 26 17 43t43 17Zm60 440q133 0 226.5-93.5T800-480q0-133-93.5-226.5T480-800q-133 0-226.5 93.5T160-480q0 133 93.5 226.5T480-160Z"/>
</svg>
