<svg aria-hidden="true" viewBox="0 -960 960 960" fill="currentColor">
  <path d="m311.869-191.869-120-240V-641q0-17 11.381-28 11.38-11 28.38-11h.239v-121.435q0-37.783 26.609-64.391 26.609-26.609 64.392-26.609h314.26q37.783 0 64.392 26.609 26.609 26.608 26.609 64.391V-680q17 0 28.5 11t11.5 28v209.131l-120 240v78.804q0 19.152-13.174 32.326T602.63-67.565H357.37q-19.153 0-32.327-13.174t-13.174-32.326v-78.804ZM322.87-680h74.26v-58.13q0-9.435 6.718-15.653Q410.565-760 420-760q9.435 0 16.152 6.717 6.718 6.718 6.718 16.153V-680h74.26v-58.13q0-9.435 6.718-15.653Q530.565-760 540-760q9.435 0 16.152 6.717 6.718 6.718 6.718 16.153V-680h74.26v-121.435H322.87V-680Zm80 521.435h154.26V-214.5l120-240V-589H282.87v134.5l120 240v55.935ZM480-373.782Z"/>
</svg>
