<svg aria-hidden="true" viewBox="0 -960 960 960" fill="currentColor">
  <path d="M480-480q-17 0-28.5-11.5T440-520v-320q0-17 11.5-28.5T480-880q17 0 28.5 11.5T520-840v320q0 17-11.5 28.5T480-480Zm0 280q-134 0-227-93t-93-227q0-68 28-129.5T269-759q11-11 27-9t27 13q12 12 12 28.5T322-699q-38 34-60 80t-22 99q0 100 70 170t170 70q100 0 170-70t70-170q0-53-22-99t-60-80q-13-11-14-27.5t11-28.5q11-11 27-14t27 8q54 50 82.5 111.5T800-520q0 134-93 227t-227 93ZM320 0q-17 0-28.5-11.5T280-40q0-17 11.5-28.5T320-80q17 0 28.5 11.5T360-40q0 17-11.5 28.5T320 0Zm160 0q-17 0-28.5-11.5T440-40q0-17 11.5-28.5T480-80q17 0 28.5 11.5T520-40q0 17-11.5 28.5T480 0Zm160 0q-17 0-28.5-11.5T600-40q0-17 11.5-28.5T640-80q17 0 28.5 11.5T680-40q0 17-11.5 28.5T640 0Z"/>
</svg>
