<svg aria-hidden="true" viewBox="0 -960 960 960" fill="currentColor">
  <path d="M160-40q-17 0-28.5-11.5T120-80v-128q-35-12-57.5-42.5T40-320v-80h240v80q0 39-22.5 69.5T200-208v129q0 17-11.5 28T160-40Zm320 0q-17 0-28.5-11.5T440-80v-128q-35-12-57.5-42.5T360-320v-80h240v80q0 39-22.5 69.5T520-208v129q0 17-11.5 28T480-40Zm320 0q-17 0-28.5-11.5T760-80v-128q-35-12-57.5-42.5T680-320v-80h240v80q0 39-22.5 69.5T840-208v129q0 17-11.5 28T800-40ZM40-480v-200q0-17 11.5-28.5T80-720h40v-160q0-17 11.5-28.5T160-920q17 0 28.5 11.5T200-880v160h40q17 0 28.5 11.5T280-680v200H40Zm320 0v-200q0-17 11.5-28.5T400-720h40v-160q0-17 11.5-28.5T480-920q17 0 28.5 11.5T520-880v160h40q17 0 28.5 11.5T600-680v200H360Zm320 0v-200q0-17 11.5-28.5T720-720h40v-160q0-17 11.5-28.5T800-920q17 0 28.5 11.5T840-880v160h40q17 0 28.5 11.5T920-680v200H680Z"/>
</svg>
