<svg aria-hidden="true" viewBox="0 -960 960 960" fill="currentColor">
  <path d="M602.63-32.587H357.37q-19.338 0-32.419-13.081-13.082-13.081-13.082-32.419v-480q0-19.337 13.082-32.419 13.081-13.081 32.419-13.081h245.26q19.338 0 32.419 13.081 13.082 13.082 13.082 32.419v480q0 19.338-13.082 32.419-13.081 13.081-32.419 13.081Zm-122.63-350q21 0 35.5-14.5t14.5-35.5q0-21-14.5-35.5t-35.5-14.5q-21 0-35.5 14.5t-14.5 35.5q0 21 14.5 35.5t35.5 14.5ZM480-720q-32 0-60 9t-52 25q-14 9-30.5 8T310-690q-12-12-11-28t14-26q35-26 77-41t90-15q48 0 90 15t77 41q13 10 14 26t-11 28q-11 11-27 12t-30-8q-24-16-52.5-25t-60.5-9Zm0-160q-64 0-120.5 20.5T257-802q-14 11-31 11t-29-12q-12-12-11-29.5t15-28.5q57-46 128-72.5T480-960q81 0 152.5 27.5T761-857q13 11 13 27t-12 28q-12 12-28.5 11.5T703-802q-46-37-102.5-57.5T480-880Zm-77.13 756.413h154.26v-389H402.87v389Zm0 0h154.26-154.26Z"/>
</svg>
