<svg aria-hidden="true" viewBox="0 -960 960 960" fill="currentColor">
  <path d="M459-80q-11 0-20.5-6.5T423-103q-16-26-43.5-41.5T320-160q-34 0-61.5 16T214-102q-6 10-15.5 16T178-80h-18q-17 0-28.5-11.5T120-120v-680h-1q-17 0-28-11.5T80-840q0-17 11.5-28.5T120-880h720q17 0 28.5 11.5T880-840q0 17-11.5 28.5T840-800v680q0 17-11.5 28.5T800-80h-20q-11 0-21-6.5T743-103q-17-26-44-41.5T640-160q-34 0-61 15.5T535-103q-6 10-15.5 16.5T499-80h-40ZM200-199q17-13 37-22t43-14v-565h-80v601Zm160-35q22 5 42 14t38 22v-602h-80v566Zm160 36q17-14 37-22.5t43-13.5v-566h-80v602Zm240 0v-602h-80v566q22 5 42 13.5t38 22.5ZM280-800h-80 80Zm160 0h-80 80Zm160 0h-80 80Zm160 0h-80 80Zm-240 0h-80 80Z"/>
</svg>
