<svg aria-hidden="true" viewBox="0 -960 960 960" fill="currentColor">
  <path d="M162.87-71.87q-37.783 0-64.392-26.608Q71.87-125.087 71.87-162.87v-474.26q0-37.783 26.61-64.392 26.608-26.609 64.391-26.609h68.999v-68.999q0-37.783 26.609-64.392 26.609-26.609 64.392-26.609h474.26q37.783 0 64.392 26.609 26.609 26.609 26.609 64.392v474.26q0 37.783-26.609 64.392-26.609 26.609-64.392 26.609h-68.999v68.999q0 37.783-26.609 64.392-26.61 26.608-64.393 26.608H162.87Zm160-251h474.26v-474.26H322.87v474.26Z"/>
</svg>
