<svg aria-hidden="true" viewBox="0 -960 960 960" fill="currentColor">
  <path d="M600-360ZM400-80q-33 0-56.5-23.5T320-160v-40q0-17 11.5-28.5T360-240q17 0 28.5 11.5T400-200v40h400v-400h-40q-17 0-28.5-11.5T720-600q0-17 11.5-28.5T760-640h40q33 0 56.5 23.5T880-560v400q0 33-23.5 56.5T800-80H400ZM161.5-401.5Q80-483 80-600t81.5-198.5Q243-880 360-880t198.5 81.5Q640-717 640-600t-81.5 198.5Q477-320 360-320t-198.5-81.5Zm340-57Q560-517 560-600t-58.5-141.5Q443-800 360-800t-141.5 58.5Q160-683 160-600t58.5 141.5Q277-400 360-400t141.5-58.5ZM360-600Z"/>
</svg>
