<svg aria-hidden="true" viewBox="0 -960 960 960" fill="currentColor">
  <path d="M680-160q17 0 28.5-11.5T720-200q0-17-11.5-28.5T680-240q-17 0-28.5 11.5T640-200q0 17 11.5 28.5T680-160Zm28.5-571.5Q720-743 720-760t-11.5-28.5Q697-800 680-800t-28.5 11.5Q640-777 640-760t11.5 28.5Q663-720 680-720t28.5-11.5ZM680-640q-24 0-45-8.5T598-672L330-516q-6 3-12.5 4t-13.5-1q-16-4-31.5-5.5T240-520q-32 0-63.5 7.5T116-491q-6 3-12.5 2T92-495q-5-5-6.5-11.5T87-521q13-36 45-57.5t68-21.5q24 0 45 8.5t37 23.5l281-164q-2-7-2.5-13.5T560-760q0-50 35-85t85-35q50 0 85 35t35 85q0 50-35 85t-85 35Zm0 560q-50 0-85-35t-35-85q0-6 3-28l-30-18q-12-8-16.5-21.5T520-293q8-12 21.5-16.5T567-306l31 18q16-15 37-23.5t45-8.5q50 0 85 35t35 85q0 50-35 85t-85 35ZM98.5-98.5Q40-157 40-240t58.5-141.5Q157-440 240-440t141.5 58.5Q440-323 440-240T381.5-98.5Q323-40 240-40T98.5-98.5ZM240-212l56 57q6 6 14 6t14-6q6-6 6-14.5t-6-14.5l-56-56 57-57q6-6 6-14t-6-14q-6-6-14-6t-14 6l-57 57-57-57q-6-6-14-6t-14 6q-6 6-6 14t6 14l57 57-57 57q-6 6-6 14t6 14q6 6 14 6t14-6l57-57Zm440 12Zm0-560Z"/>
</svg>
