<svg aria-hidden="true" viewBox="0 -960 960 960" fill="currentColor">
  <path d="m675-228 58 58q-47 37-101 59.5T519-82v-80q42-6 81.5-23t74.5-43Zm204-212q-8 62-30.5 115.5T789-228l-56-56q26-33 42-72.5t22-83.5h82Zm-90-292q38 44 61.5 98T879-520h-82q-6-45-22-84.5T733-676l56-56ZM439-878v80q-120 17-199 107t-79 211q0 120 79 210t199 108v80q-153-18-255.5-131.5T81-480q0-155 102.5-268T439-878Zm80 0q59 5 113 27.5T733-790l-56 58q-36-27-76-44t-82-22v-80Zm-27.5 635q5.5-3 8.5-9l4-9q26-48 65-82t69-79q15-23 23.5-50t8.5-56q0-79-55-135t-133-57q-77-1-133 53t-59 131q-2 32 6.5 61t25.5 53q30 45 70 78.5t64 82.5l4 9q3 6 8.5 9t11.5 3q6 0 11.5-3Zm-68-230.5Q400-497 400-530t23.5-56.5Q447-610 480-610t56.5 23.5Q560-563 560-530t-23.5 56.5Q513-450 480-450t-56.5-23.5Z"/>
</svg>
