<svg aria-hidden="true" viewBox="0 -960 960 960" fill="currentColor">
  <path d="M200-120q-33 0-56.5-23.5T120-200v-560q0-33 23.5-56.5T200-840h560q33 0 56.5 23.5T840-760v560q0 33-23.5 56.5T760-120H200Zm0-80h560v-560H200v560Zm0-560v560-560Zm280 480q17 0 28.5-11.5T520-320q0-17-11.5-28.5T480-360q-17 0-28.5 11.5T440-320q0 17 11.5 28.5T480-280Zm-131.5-11.5Q360-303 360-320t-11.5-28.5Q337-360 320-360t-28.5 11.5Q280-337 280-320t11.5 28.5Q303-280 320-280t28.5-11.5ZM640-280q17 0 28.5-11.5T680-320q0-17-11.5-28.5T640-360q-17 0-28.5 11.5T600-320q0 17 11.5 28.5T640-280Z"/>
</svg>
