<svg aria-hidden="true" viewBox="0 -960 960 960" fill="currentColor">
  <path d="M400-520h160q33 0 56.5-23.5T640-600q0-33-23.5-56.5T560-680H400q-33 0-56.5 23.5T320-600q0 33 23.5 56.5T400-520Zm131.5-51.5Q520-583 520-600t11.5-28.5Q543-640 560-640t28.5 11.5Q600-617 600-600t-11.5 28.5Q577-560 560-560t-28.5-11.5ZM400-320h160q33 0 56.5-23.5T640-400q0-33-23.5-56.5T560-480H400q-33 0-56.5 23.5T320-400q0 33 23.5 56.5T400-320Zm-28.5-51.5Q360-383 360-400t11.5-28.5Q383-440 400-440t28.5 11.5Q440-417 440-400t-11.5 28.5Q417-360 400-360t-28.5-11.5ZM467-85q-6-1-12-3-135-45-215-166.5T160-516v-189q0-25 14.5-45t37.5-29l240-90q14-5 28-5t28 5l240 90q23 9 37.5 29t14.5 45v189q0 140-80 261.5T505-88q-6 2-12 3t-13 1q-7 0-13-1Z"/>
</svg>
