<svg aria-hidden="true" viewBox="0 -960 960 960" fill="currentColor">
  <path d="M480-164q104-33 172-132t68-220v-189l-240-90-240 90v189q0 121 68 220t172 132Zm0-316Zm29.5 187.5Q522-305 522-322t-12.5-29.5Q497-364 480-364t-29.5 12.5Q438-339 438-322t12.5 29.5Q463-280 480-280t29.5-12.5ZM481-404q12 0 21.5-9t9.5-21q1-7 3-13.5t6-12.5q7-10 15.5-18t16.5-16q17-17 29.5-38t12.5-46q0-45-34.5-73.5T480-680q-32 0-59 15t-43 42q-6 11-1.5 22t16.5 16q11 5 22-.5t19-14.5q9-11 20.5-16.5T480-622q22 0 38.5 13t16.5 33q0 17-10.5 31.5T501-518q-11 11-22 21.5T460-473q-5 8-7 18t-2 20q0 13 8.5 22t21.5 9ZM467-85q-6-1-12-3-135-45-215-166.5T160-516v-189q0-25 14.5-45t37.5-29l240-90q14-5 28-5t28 5l240 90q23 9 37.5 29t14.5 45v189q0 140-80 261.5T505-88q-6 2-12 3t-13 1q-7 0-13-1Z"/>
</svg>
