<svg aria-hidden="true" viewBox="0 -960 960 960" fill="currentColor">
  <path d="M852-108q-12 12-28.5 12T795-108l-94-95q-3 1-21 3-33 0-56.5-23.5T600-280q0-33 23.5-56.5T680-360q33 0 56.5 23.5T760-280q0 3-3 21l95 95q12 12 12 28t-12 28ZM160-516v-189q0-25 14.5-45t37.5-29l240-90q14-5 28-5t28 5l240 90q23 9 37.5 29t14.5 45v68q0 23-18 35.5t-40 7.5q-15-3-30.5-4.5T680-600q-134 0-227 93t-93 227q0 32 6.5 63.5T385-156q5 12-4.5 20.5T361-133q-94-63-147.5-166.5T160-516Zm280 236q0-100 70-170t170-70q100 0 170 70t70 170q0 17-11.5 28.5T880-240q-17 0-28.5-11.5T840-280q0-66-47-113t-113-47q-66 0-113 47t-47 113q0 66 47 113t113 47q17 0 28.5 11.5T720-80q0 17-11.5 28.5T680-40q-100 0-170-70t-70-170Z"/>
</svg>
