<svg aria-hidden="true" viewBox="0 -960 960 960" fill="currentColor">
  <path d="M120-40q-33 0-56.5-23.5T40-120v-720q0-33 23.5-56.5T120-920h720q33 0 56.5 23.5T920-840v720q0 33-23.5 56.5T840-40H120Zm247-497 56-56-179-179q-11-11-28-11t-28 11q-11 11-11 28t11 28l179 179Zm233 377h160q17 0 28.5-11.5T800-200v-160q0-17-11.5-28.5T760-400q-17 0-28.5 11.5T720-360v62L594-424l-57 57 127 127h-64q-17 0-28.5 11.5T560-200q0 17 11.5 28.5T600-160Zm-412-28q11 11 28 11t28-11l476-476v64q0 17 11.5 28.5T760-560q17 0 28.5-11.5T800-600v-160q0-17-11.5-28.5T760-800H600q-17 0-28.5 11.5T560-760q0 17 11.5 28.5T600-720h64L188-244q-11 11-11 28t11 28Z"/>
</svg>
