<svg aria-hidden="true" viewBox="0 -960 960 960" fill="currentColor">
  <path d="M120-36.413q-34.435 0-59.01-24.576Q36.412-85.565 36.412-120v-720q0-34.674 24.576-59.13Q85.565-923.587 120-923.587h720q34.674 0 59.13 24.457 24.457 24.456 24.457 59.13v720q0 34.435-24.457 59.01Q874.674-36.412 840-36.412H120ZM364.37-534.37l61.26-61.26-179-179q-12.195-12.196-30.63-12.196t-30.63 12.196q-12.196 12.195-12.196 30.63t12.196 30.63l179 179ZM600-156.413h158.087q19.152 0 32.326-13.174t13.174-32.326V-360q0-18.435-12.576-31.011T760-403.587q-18.435 0-31.011 12.576T716.413-360v53.152L595.63-427.63l-62.26 62.26 121.782 121.783H600q-18.435 0-31.011 12.576T556.413-200q0 18.435 12.576 31.011T600-156.413ZM185.37-185.37q12.195 12.196 30.63 12.196t30.63-12.196l469.783-469.782V-600q0 18.435 12.576 31.011T760-556.413q18.435 0 31.011-12.576T803.587-600v-158.087q0-19.152-13.174-32.326t-32.326-13.174H600q-18.435 0-31.011 12.576T556.413-760q0 18.435 12.576 31.011T600-716.413h55.152L185.37-246.63q-12.196 12.195-12.196 30.63t12.196 30.63Z"/>
</svg>
