<svg aria-hidden="true" viewBox="0 -960 960 960" fill="currentColor">
  <path d="m364.37-534.37-179-179q-12.196-12.195-12.196-30.63t12.196-30.63q12.195-12.196 30.63-12.196t30.63 12.196l179 179-61.26 61.26ZM600-156.413q-18.435 0-31.011-12.576T556.413-200q0-18.435 12.576-31.011T600-243.587h55.152L533.37-365.37l62.26-62.26 120.783 120.782V-360q0-18.435 12.576-31.011T760-403.587q18.435 0 31.011 12.576T803.587-360v158.087q0 19.152-13.174 32.326t-32.326 13.174H600ZM185.37-185.37q-12.196-12.195-12.196-30.63t12.196-30.63l469.782-469.783H600q-18.435 0-31.011-12.576T556.413-760q0-18.435 12.576-31.011T600-803.587h158.087q19.152 0 32.326 13.174t13.174 32.326V-600q0 18.435-12.576 31.011T760-556.413q-18.435 0-31.011-12.576T716.413-600v-55.152L246.63-185.37q-12.195 12.196-30.63 12.196t-30.63-12.196Z"/>
</svg>
