<svg aria-hidden="true" viewBox="0 -960 960 960" fill="currentColor">
  <path d="M367-537 188-716q-11-11-11-28t11-28q11-11 28-11t28 11l179 179-56 56Zm233 377q-17 0-28.5-11.5T560-200q0-17 11.5-28.5T600-240h64L536-368l57-57 127 127v-62q0-17 11.5-28.5T760-400q17 0 28.5 11.5T800-360v160q0 17-11.5 28.5T760-160H600Zm-412-28q-11-11-11-28t11-28l476-476h-64q-17 0-28.5-11.5T560-760q0-17 11.5-28.5T600-800h160q17 0 28.5 11.5T800-760v160q0 17-11.5 28.5T760-560q-17 0-28.5-11.5T720-600v-64L244-188q-11 11-28 11t-28-11Z"/>
</svg>
