<svg aria-hidden="true" viewBox="0 -960 960 960" fill="currentColor">
  <path d="M720-160h-80q-17 0-28.5-11.5T600-200q0-17 11.5-28.5T640-240h80v-80q0-17 11.5-28.5T760-360q17 0 28.5 11.5T800-320v80h80q17 0 28.5 11.5T920-200q0 17-11.5 28.5T880-160h-80v80q0 17-11.5 28.5T760-40q-17 0-28.5-11.5T720-80v-80ZM399-840q-17 0-28-11.5T360-880q0-17 11.5-28.5T400-920h160q17 0 28.5 11.5T600-880q0 17-11.5 28.5T560-840H399Zm177 486-10-16q-6-10-17-10t-17 10l-81 139q-5 10 0 19t16 11q14 2 27 1t26-3q1-43 15.5-81.5T576-354Zm29-29q24-20 53.5-34t61.5-20l-2-25q-1-8-6.5-13t-13.5-5H584q-11 0-17.5 10t-.5 20l39 67ZM480-80q-75 0-140.5-28.5T225-186q-49-49-77-114.5T120-440q0-74 28.5-139.5T226-694q49-49 114.5-77.5T480-800q63 0 120 21t104 59l30-30q11-11 27.5-11.5T790-750q11 11 11.5 27.5T791-694l-29 30q38 49 59 109.5T840-427q-14-5-35.5-9t-44.5-4q0-116-82-198t-198-82q-117 0-198.5 81.5T200-440q0 117 81.5 198.5T480-160q11 0 21-.5t21-2.5q3 20 9.5 39.5T548-86q-17 3-34 4.5T480-80Zm35-440h162q11 0 16.5-8.5T695-546q-18-37-49-66.5T580-659q-7-3-14-.5t-11 9.5l-58 100q-6 10 .5 20t17.5 10Zm-87 10 82-142q5-8 .5-17T496-680q-40-3-80 9t-75 35q-6 5-7.5 12t2.5 14l58 100q6 10 17 10t17-10Zm-52 110q11 0 17.5-10t.5-20l-82-142q-5-9-15-9.5t-16 7.5q-23 33-33.5 74.5T242-418q1 8 6.5 13t13.5 5h114Zm87 70q6-10-.5-20T445-360H282q-10 0-15.5 8.5T265-334q18 36 49 65.5t66 46.5q7 3 14 1t11-9l58-100Z"/>
</svg>
