<svg aria-hidden="true" viewBox="0 -960 960 960" fill="currentColor">
  <path d="M720-160h-80q-17 0-28.5-11.5T600-200q0-17 11.5-28.5T640-240h80v-80q0-17 11.5-28.5T760-360q17 0 28.5 11.5T800-320v80h80q17 0 28.5 11.5T920-200q0 17-11.5 28.5T880-160h-80v80q0 17-11.5 28.5T760-40q-17 0-28.5-11.5T720-80v-80ZM480-440Zm87-9 38 65q-8 7-15.5 14.5T576-354l-9-16q-6-10-17.5-10T532-370L430-192q-5 9-1 18.5t15 11.5q20 3 39.5 2.5T522-162q3 20 9.5 39.5T547-86q-17 3-33.5 4.5T480-80q-75 0-140.5-28.5T225-186q-49-49-77-114.5T120-440q0-74 28.5-139.5T226-694q49-49 114.5-77.5T480-800q63 0 120 21t104 59l30-30q11-11 27.5-11t28.5 12q11 11 11 27.5T790-694l-28 30q38 50 58.5 110T839-427q-20-5-41-9t-42-4v-20q0-8-6-14t-14-6H584q-11 0-17 10t0 21ZM399-840q-17 0-28-11.5T360-880q0-17 11.5-28.5T400-920h160q17 0 28.5 11.5T600-880q0 17-11.5 28.5T560-840H399Zm116 320h204q11 0 17-8.5t2-18.5q-17-46-55-85.5T601-692q-7-3-14.5-1t-11.5 9l-78 134q-6 10 .5 20t17.5 10Zm-88 10 103-178q5-9 1-18t-15-11q-51-6-102 5.5T321-671q-6 5-8 12.5t2 14.5l78 134q6 10 17 10t17-10Zm-52 110q11 0 17.5-10t.5-20L291-607q-5-9-15.5-9.5T258-609q-29 41-45 90.5T202-418q1 8 6.5 13t13.5 5h153Zm88 70q6-10-.5-20T445-360H241q-11 0-17 8.5t-2 18.5q17 46 55 85.5t82 59.5q7 3 14.5 1t11.5-9l78-134Z"/>
</svg>
