<svg aria-hidden="true" viewBox="0 -960 960 960" fill="currentColor">
  <path d="M87-556q26-140 135.5-232T480-880q74 0 139.5 24T737-788q-14 26-22.5 44.5T703-709q-44-42-101-66.5T480-800q-101 0-181 56.5T183-599q-27-1-52.5 10T87-556ZM480-80q-148 0-257.5-92T87-404q17 22 42.5 33.5T183-360q36 88 116 144t181 56q133 0 226.5-93.5T800-480q0-17-1.5-34t-5.5-34q11 4 22.5 6t24.5 2q9 0 18-1t17-3q2 16 3.5 31.5T880-480q0 83-31.5 156T763-197q-54 54-127 85.5T480-80ZM336-581l-22 22q-9 9-8.5 21t9.5 21q9 9 21 9t21-9l35-35q12-12 12-28t-12-28l-36-36q-8-8-21-8t-21 8q-9 9-9 21t9 21l22 21Zm504-19q-33 0-56.5-23.5T760-680q0-36 22-71t41-64q3-5 7.5-7t9.5-2q5 0 9.5 2t7.5 7q19 29 41 64t22 71q0 33-23.5 56.5T840-600Zm-215 19 21-21q9-9 9-21t-9-21q-9-9-21-9t-21 9l-36 36q-12 12-12 28t12 28l36 36q9 9 21.5 8.5T647-517q9-9 9-21.5t-9-21.5l-22-21ZM480-480ZM325-280q7 0 14.5-4t11.5-10q22-30 55-48t74-18q41 0 74 18t55 48q4 6 11 10t14 4q18 0 26.5-16t-3.5-34q-26-39-73-64.5T480-420q-26 0-51 5.5T382-398l-142-82q0-16-8-30t-22-22q-22-12-45.5-5.5T128-510q-12 22-5.5 45.5T150-428q14 8 30 8t30-8l118 68q-8 8-14 16l-12 16q-11 17-2.5 32.5T325-280Z"/>
</svg>
