<svg aria-hidden="true" viewBox="0 -960 960 960" fill="currentColor">
  <path d="M714.522-114.369q-12.674 12.674-31.326 12.935-18.652.26-32.326-13.174-12.913-12.674-12.913-31.827 0-19.152 12.913-32.065l51.934-51.935-52.174-52.173q-12.913-12.913-12.793-31.946.12-19.033 13.033-31.946t31.945-12.913q19.033 0 31.946 12.913l51.935 52.174L818.87-346.5q12.913-12.913 31.565-13.174 18.652-.261 32.326 13.413 12.674 12.674 12.674 31.826 0 19.153-12.674 31.827l-51.413 52.173 51.413 52.174q12.674 12.674 13.054 31.326.381 18.653-13.293 32.327-12.674 12.674-31.826 12.793-19.152.12-31.826-12.554l-52.174-51.413-52.174 51.413Zm-532.5 42.5q-30.587 0-42.402-27.968-11.816-27.967 9.815-49.598l660.369-660.369q21.631-21.631 49.598-9.816 27.968 11.816 27.968 42.403v327.847q-26.718-15.76-57.837-23.38-31.12-7.62-62.837-7.62-103.87 0-176.902 73.033-73.033 73.033-73.033 176.902 0 45.044 14.402 84.305 14.402 39.261 42.728 74.26H182.022Z"/>
</svg>
