<svg aria-hidden="true" viewBox="0 -960 960 960" fill="currentColor">
  <path d="M200-40q-17 0-28.5-11.5T160-80q0-17 11.5-28.5T200-120h160v-40H120q-17 0-28.5-11.5T80-200q0-17 11.5-28.5T120-240h240v-40H80q-17 0-28.5-11.5T40-320q0-17 11.5-28.5T80-360h280v-40H160q-17 0-28.5-11.5T120-440q0-17 11.5-28.5T160-480h244l-34-60q-12-21-9.5-44.5T380-625l4-3q11-11 25.5-12t26.5 8l236 176q23 17 35.5 42t12.5 54v200q0 50-35 85t-85 35H200Zm70-493-14-10q-14-10-16.5-26t7.5-30q10-14 26-16t30 8l1 1q-5 18-3.5 36.5T308-533h-38Zm50-112-57-42q-14-10-16-26t8-30q10-14 26-16t30 8l72 55q-17 6-34.5 18.5T320-645Zm459 269q-4-38-22.5-71.5T708-504L524-641 303-807q-14-10-16-26t8-30q10-14 26-16.5t30 7.5l224 169 24-33-160-120q-14-10-16.5-26t7.5-30q10-14 26-16t30 8l196 146 9-69q3-24 19-41t39-21l6-1q15-2 27 6t17 22l84 283q8 27 3 55t-22 51l-85 113Z"/>
</svg>
