<svg aria-hidden="true" viewBox="0 -960 960 960" fill="currentColor">
  <path d="m149.435-149.435 660.369-660.369q21.631-21.631 49.598-9.816 27.968 11.816 27.968 42.403v331.108q-20.392-12.434-43.142-20.13-22.75-7.696-47.858-11.217v-190.37L291.413-162.87h228.696q6.565 25.87 18.206 48.62 11.641 22.75 27.12 42.38H182.022q-30.587 0-42.402-27.967-11.816-27.967 9.815-49.598Zm566.978-33.108h-74.5q-19.152 0-32.326-13.174t-13.174-32.326q0-19.152 13.174-32.326t32.326-13.174h74.5v-74.5q0-19.152 13.174-32.326t32.326-13.174q19.152 0 32.326 13.174t13.174 32.326v74.5h74.5q19.152 0 32.326 13.174t13.174 32.326q0 19.152-13.174 32.326t-32.326 13.174h-74.5v74.5q0 19.152-13.174 32.326t-32.326 13.174q-19.152 0-32.326-13.174t-13.174-32.326v-74.5Zm-425 19.673L796.37-667.826 667.044-538.5 550.109-421.565 430.196-301.652 291.413-162.87Z"/>
</svg>
