<svg aria-hidden="true" viewBox="0 -960 960 960" fill="currentColor">
  <path d="M480-122.891q-9.435 0-17.63-3.217-8.196-3.218-15.153-10.413L31.109-567.217Q17.913-581.37 18.533-600.5q.62-19.13 14.293-31.565 92.283-84.044 207.207-128.022Q354.957-804.065 480-804.065t239.967 43.978q114.924 43.978 207.207 128.022 13.674 12.435 14.293 31.565.62 19.13-12.576 33.283L512.783-136.521q-6.957 7.195-15.153 10.413-8.195 3.217-17.63 3.217Zm0-112.305 349.891-360.652q-76.13-57.608-165.424-87.413Q575.174-713.065 480-713.065t-184.467 29.804q-89.294 29.805-165.424 87.413L480-235.196Z"/>
</svg>
