<svg aria-hidden="true" viewBox="0 -960 960 960" fill="currentColor">
  <path d="m760-183-56 55q-11 11-27.5 11.5T648-128q-11-11-11-28t11-28l56-56-56-56q-11-11-11-28t11-28q11-11 28-11t28 11l56 56 56-56q11-11 27.5-11.5T872-352q11 11 11 28t-11 28l-55 56 55 56q11 11 11.5 27.5T872-128q-11 11-28 11t-28-11l-56-55Zm-612 35 663-663q19-19 43.5-8.5T879-782v330q-18-11-38-17.5T799-480v-206L273-160h257q8 23 20 43t27 37H177q-27 0-37.5-24.5T148-148Zm125-12 526-526-137.5 137.5-121 121L417-304 273-160Z"/>
</svg>
