<svg aria-hidden="true" viewBox="0 -960 960 960" fill="currentColor">
  <path d="m148-148 664-664q19-19 43.5-8.5T880-783v303q0 17-11.5 28.5T840-440q-17 0-28.5-11.5T800-480v-207L273-160h207q17 0 28.5 11.5T520-120q0 17-11.5 28.5T480-80H177q-27 0-37.5-24.5T148-148Zm463.5 56.5Q600-103 600-120v-200q0-17 11.5-28.5T640-360q17 0 28.5 11.5T680-320v200q0 17-11.5 28.5T640-80q-17 0-28.5-11.5Zm160 0Q760-103 760-120v-200q0-17 11.5-28.5T800-360q17 0 28.5 11.5T840-320v200q0 17-11.5 28.5T800-80q-17 0-28.5-11.5ZM537-424Z"/>
</svg>
