<svg aria-hidden="true" viewBox="0 -960 960 960" fill="currentColor">
  <path d="M72-248q-17-3-26-16.5T40-294q3-17 16.5-26t30.5-6l197 37q17 3 26.5 18t4.5 32q-5 15-17.5 23.5T269-210L72-248Zm1-165q-16-5-24-19t-3-30q5-17 18.5-25t29.5-3l232 63q16 5 24.5 19t3.5 30q-5 16-19.5 24.5T304-350L73-413Zm37 342q-17-2-28-14.5T73-115q2-17 14.5-27.5T117-151l345 31q29 3 53-13.5t32-44.5l51-185q2-6 1.5-13t-3.5-13l-55-130-3 68q-1 22-19.5 33.5t-38.5.5L190-568q-15-8-20-24t3-30q8-15 24-20t30 3l234 122 3-70q1-18 9-32t21-23q13-10 28.5-14t32.5 2q8 3 14 8.5t9 13.5l92 212q8 19 9 39t-4 40l-51 185q-16 56-63.5 89T455-40L110-71Zm174-680q13-11 29-9t27 15l80 97q-5 8-8 17t-5 18l-108-56-21-25q-11-13-9.5-29.5T284-751Zm112-125q14-10 30-7t26 17l104 151q-22-5-44 0t-42 16l-84-122q-10-14-7-30t17-25Zm200-40q16-7 31-.5t22 21.5l101 244 46-52q11-12 26-18t32-5q14 2 27 7.5t21 14.5q8 9 12 20t0 23l-66 219q-6 20-18 36.5T801-378l-66 44q5-23 4-47t-9-47l26-16q6-4 9.5-9.5T771-466l41-134-88 97-149-361q-6-15 0-30.5t21-21.5ZM443-288Zm281-215Z"/>
</svg>
