<svg aria-hidden="true" viewBox="0 -960 960 960" fill="currentColor">
  <path d="m742.87-155.348-52.174 51.413Q678.022-91.261 659.37-91q-18.653.261-32.327-13.174Q614.13-116.848 614.13-136t12.913-32.065L678.978-220l-52.174-52.174q-12.913-12.913-12.793-31.946.119-19.032 13.032-31.945 12.914-12.913 31.946-12.913 19.033 0 31.946 12.913l51.935 52.174 52.173-52.174q12.914-12.913 31.566-13.174 18.652-.261 32.326 13.413 12.674 12.674 12.674 31.826t-12.674 31.826L807.522-220l51.413 52.174q12.674 12.674 13.054 31.326.381 18.652-13.293 32.326Q846.022-91.5 826.87-91.38q-19.153.12-31.827-12.555l-52.173-51.413Zm-292.783 22.414L32.152-566.413q-13.196-13.674-12.837-32.967.359-19.294 14.555-31.729 91.326-84.761 206.826-128.858 115.5-44.098 239.304-44.098 122.239 0 239.685 44.217Q837.13-715.63 927.37-631.109q13.956 12.435 14.315 31.229.358 18.793-12.837 32.467L821.326-457.022q-18.435-5.956-38.108-9.435-19.674-3.478-40.348-3.478-103.87 0-176.903 72.652Q492.935-324.63 492.935-220q0 23.304 4.554 45.131 4.554 21.826 12.424 41.935Q498.196-120.5 480-120.5q-18.196 0-29.913-12.434Z"/>
</svg>
