<svg aria-hidden="true" viewBox="0 -960 960 960" fill="currentColor">
  <path d="M480-122.891q-9.435 0-17.63-3.217-8.196-3.218-15.153-10.413L31.87-566.456q-13.196-14.153-12.957-33.664.24-19.51 13.913-31.945 92.283-83.283 207.207-127.642Q354.957-804.065 480-804.065t239.967 44.358q114.924 44.359 207.207 127.642 13.913 12.435 14.152 30.75.239 18.315-10.804 30.793l-9.087 9.087q-27.522-34.087-69.141-55.369-41.62-21.283-90.142-21.283-83.239 0-141.739 58.381-58.5 58.38-58.5 141.619 0 50.435 23.076 93.011 23.076 42.576 60.989 70.098L512.783-136.521q-6.957 7.195-15.153 10.413-8.195 3.217-17.63 3.217ZM763.63-282.5q-14.717 0-23.815-10.098t-7.098-22.815q3.24-23.239 14.24-40.098 11-16.859 36.521-42.619 20.761-20.761 27-31.381 6.239-10.619 6.239-25.902 0-17.761-13.282-30.424-13.283-12.663-35.326-12.663-14 0-27.022 6.261-13.022 6.261-22.543 17.783-9.718 11.717-20.935 15.837-11.218 4.119-22.696-.881-12.717-5.239-17.456-17.076-4.74-11.837 1.739-22.315 17-27.239 44.978-43.218 27.978-15.978 63.696-15.978 49.478 0 81.554 29.12 32.076 29.119 32.076 75.554 0 23-10.478 41.478-10.478 18.479-39.435 47.435-15.804 15.804-22.946 26.304-7.141 10.5-9.619 23.022-3.478 14.718-13.076 23.696-9.598 8.978-22.316 8.978Zm-1 131.587q-17.956 0-30.934-12.859-12.979-12.858-12.979-30.815 0-17.956 12.979-30.935Q744.674-238.5 762.63-238.5q17.957 0 30.816 12.978 12.858 12.979 12.858 30.935 0 17.957-12.858 30.815-12.859 12.859-30.816 12.859Z"/>
</svg>
