<svg aria-hidden="true" viewBox="0 -960 960 960" fill="currentColor">
  <path d="m766.696-165.782-52.174 51.413q-12.674 12.674-31.326 12.935-18.652.26-32.326-13.174-12.913-12.674-12.913-31.827 0-19.152 12.913-32.065l51.934-51.935-52.174-52.173q-12.913-12.913-12.793-31.946.12-19.033 13.033-31.946t31.945-12.913q19.033 0 31.946 12.913l51.935 52.174L818.87-346.5q12.674-12.674 31.445-13.054 18.772-.381 32.446 13.293 12.674 12.674 12.674 31.826 0 19.153-12.674 31.827l-51.413 52.173 51.413 52.174q12.674 12.674 13.054 31.326.381 18.653-13.293 32.327-12.674 12.674-31.826 12.793-19.152.12-31.826-12.554l-52.174-51.413Zm-617.261 16.347 660.369-660.369q21.631-21.631 49.598-9.816 27.968 11.816 27.968 42.403v327.847q-20.631-11.956-43.381-18.815-22.75-6.858-47.619-9.902v-189.739L291.413-162.87h235.478q7.044 25.87 19.044 48.62 12 22.75 27.956 42.38H182.022q-30.587 0-42.402-27.967-11.816-27.967 9.815-49.598Zm141.978-13.435L796.37-667.826 667.478-538.935 551.022-422.478 430.75-302.206 291.413-162.87Z"/>
</svg>
