<svg aria-hidden="true" viewBox="0 -960 960 960" fill="currentColor">
  <path d="M807.783-34.195 769.87-71.87H182.022q-30.587 0-42.402-27.968-11.816-27.967 9.815-49.598L421.13-421.37 113.239-728.5q-12.478-11.718-12.098-28.935.38-17.217 12.098-29.696 12.478-12.478 29.696-12.478 17.217 0 29.695 12.478L867.174-92.587q12.478 12.478 12.098 29.196-.381 16.717-12.859 29.196-12.478 11.717-29.315 12.097-16.837.38-29.315-12.097Zm80.348-150.674L536-536.239l274.804-274.565q21.631-21.631 49.479-9.696t27.848 42.522v593.109Z"/>
</svg>
