<svg aria-hidden="true" viewBox="0 -960 960 960" fill="currentColor">
  <path d="M480-137q-8 0-15-2.5t-13-8.5L29-571q-12-12-12-29t12-28q93-84 209-128t242-44q126 0 242 44t209 128q12 11 12 28t-12 29l-11 11q-28-36-69.5-58T760-640q-83 0-141.5 58.5T560-440q0 49 22 90.5t58 69.5L508-148q-6 6-13 8.5t-15 2.5Zm281-151q-14 0-22.5-9.5T732-319q3-23 14-39.5t37-42.5q21-21 27-31.5t6-26.5q0-18-14-31.5T765-504q-14 0-27.5 6.5T714-479q-9 11-19.5 15t-21.5-1q-12-5-16.5-16t1.5-21q17-27 44.5-42.5T765-560q49 0 80 29t31 74q0 23-10 41t-38 46q-17 17-24.5 27.5T794-319q-3 14-12 22.5t-21 8.5Zm-1 128q-17 0-29.5-12.5T718-202q0-17 12.5-29.5T760-244q17 0 29.5 12.5T802-202q0 17-12.5 29.5T760-160Z"/>
</svg>
