<svg aria-hidden="true" viewBox="0 -960 960 960" fill="currentColor">
  <path d="M743.587-161.913q-27.292 0-46.396-19.104t-19.104-46.396V-740q0-27.292 19.104-46.396t46.396-19.104q27.292 0 46.396 19.104T809.087-740v512.587q0 27.292-19.104 46.396t-46.396 19.104Zm-487.184 0q-13.186 0-25.142-4.978-11.957-4.979-21.174-14.196-9.218-9.217-14.196-21.223-4.978-12.006-4.978-25.103V-340q0-27.292 19.104-46.396t46.396-19.104q27.292 0 46.396 19.104T321.913-340v112.587q0 13.097-4.978 25.103-4.978 12.006-14.076 21.223-9.098 9.217-21.185 14.196-12.086 4.978-25.271 4.978Zm243.597 0q-27.292 0-46.396-19.104T434.5-227.413V-540q0-27.292 19.104-46.396T500-605.5q27.292 0 46.396 19.104T565.5-540v312.587q0 27.292-19.104 46.396T500-161.913Z"/>
</svg>
