<svg aria-hidden="true" viewBox="0 -960 960 960" fill="currentColor">
  <path d="m688.544-388.043-53.066-53.066q20.805-25.521 31.707-55.804 10.902-30.283 10.902-63.087 0-39.522-15.761-75.283-15.761-35.76-43.522-63.521l52.066-52.066q38.478 38.479 59.837 87.316Q752.065-614.717 752.065-560q0 48-16.88 91.739-16.881 43.739-46.641 80.218ZM570.5-506.087 426.087-650.5q12.478-7.239 25.956-11.12 13.479-3.88 27.957-3.88 44.152 0 74.826 30.674Q585.5-604.152 585.5-560q0 14.478-3.88 27.957-3.881 13.478-11.12 25.956Zm217.391 216.391L735.587-342q39.522-45.239 59.641-101.62Q815.348-500 815.348-560q0-66.717-24.978-128.696-24.979-61.978-72.457-109.217l52.065-52.305q56.674 58.957 87.892 133.631Q889.087-641.913 889.087-560q0 74.957-25.859 144.533-25.858 69.576-75.337 125.771Zm12.196 243.979L525.5-320.304V-114.5h-91v-296.804L281.913-563.13v5.043q.478 39.044 16.12 74.207 15.641 35.163 43.163 62.684L289.13-369.13q-38.717-38.479-59.956-87.316Q207.935-505.283 207.935-560q0-17.717 2.119-34.315 2.12-16.598 7.359-34.076l-50.283-50.283q-11 29.239-16.739 58.717-5.739 29.479-5.739 59.957 0 66.717 24.978 128.576 24.979 61.859 72.457 109.337l-52.305 52.305q-56.195-59.196-87.532-133.751Q70.913-478.087 70.913-560q0-45.674 9.859-89.728 9.858-44.055 29.815-85.25l-64.87-65.109 58.631-59.392 755.131 755.131-59.392 58.63Z"/>
</svg>
