<svg aria-hidden="true" viewBox="0 -960 960 960" fill="currentColor">
  <path d="M842.63-243.587q-18.434 0-31.13-12.696-12.696-12.695-12.696-31.13V-520q0-18.524 12.696-31.056 12.696-12.531 31.13-12.531 18.435 0 31.011 12.531 12.577 12.532 12.577 31.056v232.587q0 18.435-12.532 31.13-12.531 12.696-31.056 12.696Zm0 165.5q-19.152 0-32.326-13.174t-13.174-32.326q0-19.152 13.174-32.326t32.326-13.174q19.153 0 32.327 13.174t13.174 32.326q0 19.152-13.174 32.326T842.63-78.087ZM181.783-80q-30.632 0-42.545-27.848-11.912-27.848 9.719-49.478l659.934-659.935q21.631-21.63 49.479-9.718 27.848 11.912 27.848 42.544v140.848h-76.413q-37.538 0-64.269 26.731-26.732 26.732-26.732 64.269V-80H181.783Z"/>
</svg>
