<svg aria-hidden="true" viewBox="0 -960 960 960" fill="currentColor">
  <path d="M717.13-171v91H71.63l814.588-814.587v251H784.217v-19.695L291.935-171H717.13Zm125.5-72.587q-18.434 0-31.13-12.696-12.696-12.695-12.696-31.13V-520q0-18.435 12.696-31.011t31.13-12.576q18.435 0 31.011 12.576 12.577 12.576 12.577 31.011v232.587q0 18.435-12.577 31.13-12.576 12.696-31.011 12.696Zm0 165.5q-19.152 0-32.326-13.174t-13.174-32.326q0-19.152 13.174-32.326t32.326-13.174q19.153 0 32.327 13.174t13.174 32.326q0 19.152-13.174 32.326T842.63-78.087Z"/>
</svg>
