<svg aria-hidden="true" viewBox="0 -960 960 960" fill="currentColor">
  <path d="M480-477Zm260 314-56 55q-11 11-27.5 11.5T628-108q-11-11-11-28t11-28l56-56-56-56q-11-11-11-28t11-28q11-11 28-11t28 11l56 56 56-56q11-11 27.5-11.5T852-332q11 11 11 28t-11 28l-55 56 55 56q11 11 11.5 27.5T852-108q-11 11-28 11t-28-11l-56-55Zm-288 15L30-570q-12-12-12-29.5T31-628q93-85 208.5-128.5T480-800q122 0 241 43.5T930-628q13 11 13 28t-12 29L812-452q-17-5-35-8t-37-3q-8 0-16.5.5T707-461l137-137q-79-60-172-91t-192-31q-99 0-192 31t-172 91l364 364 19-19q-1 8-1.5 16.5T497-220q0 19 3 37t8 35q-11 11-28 11t-28-11Z"/>
</svg>
