<svg aria-hidden="true" viewBox="0 -960 960 960" fill="currentColor">
  <path d="M348.5-211.5Q360-223 360-240t-11.5-28.5Q337-280 320-280t-28.5 11.5Q280-257 280-240t11.5 28.5Q303-200 320-200t28.5-11.5Zm0-160Q360-383 360-400v-80q0-17-11.5-28.5T320-520q-17 0-28.5 11.5T280-480v80q0 17 11.5 28.5T320-360q17 0 28.5-11.5Zm160 160Q520-223 520-240v-80q0-17-11.5-28.5T480-360q-17 0-28.5 11.5T440-320v80q0 17 11.5 28.5T480-200q17 0 28.5-11.5Zm0-240Q520-463 520-480t-11.5-28.5Q497-520 480-520t-28.5 11.5Q440-497 440-480t11.5 28.5Q463-440 480-440t28.5-11.5Zm160 240Q680-223 680-240t-11.5-28.5Q657-280 640-280t-28.5 11.5Q600-257 600-240t11.5 28.5Q623-200 640-200t28.5-11.5Zm0-160Q680-383 680-400v-80q0-17-11.5-28.5T640-520q-17 0-28.5 11.5T600-480v80q0 17 11.5 28.5T640-360q17 0 28.5-11.5ZM240-80q-33 0-56.5-23.5T160-160v-447q0-16 6-30.5t17-25.5l194-194q11-11 25.5-17t30.5-6h287q33 0 56.5 23.5T800-800v640q0 33-23.5 56.5T720-80H240Z"/>
</svg>
