<svg aria-hidden="true" viewBox="0 -960 960 960" fill="currentColor">
  <path d="M578.5-98.5Q520-157 520-240t58.5-141.5Q637-440 720-440t141.5 58.5Q920-323 920-240T861.5-98.5Q803-40 720-40T578.5-98.5ZM760-252v72q0 8 6 14t14 6q8 0 14-6t6-14v-100q0-17-11.5-28.5T760-320H660q-8 0-14 6t-6 14q0 8 6 14t14 6h72l-98 97q-6 6-6 14.5t6 14.5q6 6 14.5 6t14.5-6l97-98ZM400-560q0-33 23.5-56.5T480-640q17 0 28.5-11.5T520-680q0-17-11.5-28.5T480-720q-66 0-113 47t-47 113v80q0 17 11.5 28.5T360-440q17 0 28.5-11.5T400-480v-80ZM160-120q-33 0-56.5-23.5T80-200v-80q0-33 23.5-56.5T160-360h40v-200q0-117 81.5-198.5T480-840q117 0 198.5 81.5T760-560v14q0 11-8.5 19t-20.5 7q-58-2-112.5 19T522-438q-38 38-60 88.5T440-240q0 19 2.5 37t7.5 36q5 17-5.5 32T417-120H160Z"/>
</svg>
