<svg aria-hidden="true" viewBox="0 -960 960 960" fill="currentColor">
  <path d="M467-360Zm-24 80ZM160-120q-33 0-56.5-23.5T80-200v-80q0-33 23.5-56.5T160-360h40v-200q0-117 81.5-198.5T480-840q117 0 198.5 81.5T760-560v3q0 17-11.5 28.5T720-517q-17 0-28.5-11.5T680-557v-3q0-83-58.5-141.5T480-760q-83 0-141.5 58.5T280-560v200h147q17 0 28.5 11.5T467-320q0 17-11.5 28.5T427-280H160v80h267q17 0 28.5 11.5T467-160q0 17-11.5 28.5T427-120H160Zm418.5 21.5Q520-157 520-240t58.5-141.5Q637-440 720-440t141.5 58.5Q920-323 920-240T861.5-98.5Q803-40 720-40T578.5-98.5ZM400-560q0-33 23.5-56.5T480-640q17 0 28.5-11.5T520-680q0-17-11.5-28.5T480-720q-66 0-113 47t-47 113v80q0 17 11.5 28.5T360-440q17 0 28.5-11.5T400-480v-80Zm335.5 432.5Q743-135 743-146t-7.5-18.5Q728-172 717-172t-18.5 7.5Q691-157 691-146t7.5 18.5Q706-120 717-120t18.5-7.5ZM729-197q5-5 5-13t6-16q6-8 14-16 14-12 22-23t8-31q0-29-19-46.5T716-360q-19 0-35 9.5T655-325q-4 6-1 12.5t10 9.5q6 3 12.5 0t10.5-8q5-7 12.5-11t16.5-4q15 0 23.5 7.5T748-296q0 11-6 18.5T728-262q-6 6-12.5 12T704-236q-3 6-4.5 12t-1.5 14q0 8 5 13t13 5q8 0 13-5Z"/>
</svg>
