<svg aria-hidden="true" viewBox="0 -960 960 960" fill="currentColor">
  <path d="M709.565-224.934q-19.152 0-32.326-13.174t-13.174-32.327v-419.13q0-19.153 13.174-32.327t32.326-13.174q19.153 0 32.327 13.174t13.174 32.327v419.13q0 19.153-13.174 32.327t-32.327 13.174Zm-434.022-46.74q-22.63 15.674-46.619 2.239-23.99-13.434-23.99-40.782v-339.566q0-27.348 23.87-40.782 23.87-13.435 46.739 2.239l255.174 170.782Q551.109-503.87 551.109-480q0 23.87-20.392 37.544L275.543-271.674ZM295.935-480Zm0 84.5L423.804-480l-127.869-84.5v169Z"/>
</svg>
