<svg aria-hidden="true" viewBox="0 -960 960 960" fill="currentColor">
  <path d="M250.435-224.934q-19.153 0-32.327-13.174t-13.174-32.327v-419.13q0-19.153 13.174-32.327t32.327-13.174q19.152 0 32.326 13.174t13.174 32.327v419.13q0 19.153-13.174 32.327t-32.326 13.174Zm434.022-46.74L429.283-442.456Q408.891-456.13 408.891-480q0-23.87 20.392-37.544l255.174-170.782q22.869-15.674 46.739-2.239 23.87 13.434 23.87 40.782v339.566q0 27.348-23.99 40.782-23.989 13.435-46.619-2.239ZM664.065-480Zm0 84.5v-169L536.196-480l127.869 84.5Z"/>
</svg>
