<svg aria-hidden="true" viewBox="0 -960 960 960" fill="currentColor">
  <path d="M530-450q-13 0-21.5-8.5T500-480q0-13 8.5-21.5T530-510q13 0 21.5 8.5T560-480q0 13-8.5 21.5T530-450Zm-200 0q-13 0-21.5-8.5T300-480q0-13 8.5-21.5T330-510q13 0 21.5 8.5T360-480q0 13-8.5 21.5T330-450Zm300 0q-13 0-21.5-8.5T600-480q0-13 8.5-21.5T630-510q13 0 21.5 8.5T660-480q0 13-8.5 21.5T630-450Zm-200 0q-13 0-21.5-8.5T400-480q0-13 8.5-21.5T430-510q13 0 21.5 8.5T460-480q0 13-8.5 21.5T430-450ZM123.587-192.587q-37.783 0-64.391-26.609-26.61-26.608-26.61-64.391v-392.826q0-37.783 26.61-64.391 26.608-26.609 64.391-26.609h712.826q37.783 0 64.391 26.609 26.609 26.608 26.609 64.391v392.826q0 37.783-26.609 64.391-26.608 26.609-64.391 26.609H123.587Zm120-91h472.826v-392.826H243.587v392.826Z"/>
</svg>
