<svg aria-hidden="true" viewBox="0 -960 960 960" fill="currentColor">
  <path d="M720-189v-131h63.587v131H720Zm-581.913 0q-27.391 0-46.446-19.054-19.054-19.055-19.054-46.446t19.054-46.446Q110.696-320 138.087-320H680v131H138.087Zm613.826-171q-13.717 0-22.815-9.098T720-391.913v-19.609q0-39-23-59.739Q674-492 642-492h-62q-57.435 0-97.511-40.076-40.076-40.076-40.076-97.511 0-48.717 28.859-85.054 28.858-36.337 73.337-48.055 13.956-3.478 24.674 6Q580-747.218 580-731.022q0 10.239-7.739 18.718-7.739 8.478-19.457 13.956-20.521 8.239-33.663 26.239-13.141 18-13.141 42.522 0 32 22 53t52 21h62q57.913 0 99.75 37.196 41.837 37.195 41.837 92.391v34.087q0 13.717-8.978 22.815Q765.63-360 751.913-360Zm71.674 171v-131h63.826v131h-63.826ZM855.5-360q-13.717 0-22.815-9.098t-9.098-22.815V-450q0-59.283-36.783-104.043-36.782-44.761-93.826-55.479-14.717-3.478-22.054-12.195-7.337-8.718-7.337-20.435 0-14.761 6.717-24.098 6.718-9.337 21.674-15.533 20.044-8.478 32.826-27 12.783-18.521 12.783-40.804 0-23.761-14.022-42.522-14.021-18.761-35.543-27-10.957-4.478-17.696-12.576-6.739-8.098-6.739-17.576 0-16.957 11.717-26.935 11.718-9.978 26.435-5.739 42.957 12.478 71.316 48.935 28.358 36.456 28.358 83.413 0 30.435-11.478 54.652-11.478 24.218-30.435 43.022 55.522 23.848 91.718 79.163 36.195 55.315 36.195 122.75v58.087q0 13.717-9.098 22.815Q869.218-360 855.5-360Z"/>
</svg>
