<svg aria-hidden="true" viewBox="0 -960 960 960" fill="currentColor">
  <path d="M762.37-314.5 720-356.87v-88.63h63.587v131H762.37ZM680-396.87l-48.63-48.63H680v48.63Zm143.587 82.37v-131h63.826v131h-63.826ZM765.913-74.913 526.565-314.5H138.087q-27.391 0-46.446-19.054Q72.587-352.609 72.587-380t19.054-46.446q19.055-19.054 46.446-19.054h257.478L80.891-760.174q-11.717-11.717-11.717-29.315t11.717-29.315q11.718-11.718 29.315-11.718 17.598 0 29.316 11.718l685.022 685.261q11.717 11.717 11.717 29.315t-11.717 29.315q-11.718 11.718-29.316 11.718t-29.315-11.718Zm-14-410.587q-13.717 0-22.815-9.098T720-517.413v-19.609q0-39-23-59.739-23-20.739-55-20.739h-62q-57.435 0-97.511-40.076-40.076-40.076-40.076-97.511 0-47.957 29.098-84.794 29.098-36.837 73.054-48.554 13.478-4.239 24.457 5.5Q580-873.196 580-856.479q0 9.718-7.478 18.555-7.479 8.837-19.435 13.793-20.283 8.24-33.685 26.381Q506-779.609 506-755.087q0 32 22 53t52 21h62q57.913 0 99.75 37.196 41.837 37.195 41.837 92.391v34.087q0 13.717-8.978 22.815-8.979 9.098-22.696 9.098Zm103.587 0q-13.717 0-22.815-9.098t-9.098-22.815V-575.5q0-59.283-37.283-104.044-37.282-44.76-94.326-55.478-12.195-2.478-20.293-11.696-8.098-9.217-8.098-22.695 0-12.239 6.837-21.957 6.837-9.717 21.554-15.913 14.805-6 25.468-17.282 10.663-11.283 15.663-26.087 4.478-11.718 12.456-18.076 7.979-6.359 17.457-6.359 16.956 0 27.054 11.598 10.098 11.598 5.859 26.315-5.239 17.478-14.598 32.478-9.359 15-21.837 27.283 55.522 23.848 91.718 79.163 36.195 55.315 36.195 122.75v58.087q0 13.717-9.098 22.815-9.097 9.098-22.815 9.098Z"/>
</svg>
