<svg aria-hidden="true" viewBox="0 -960 960 960" fill="currentColor">
  <path d="m754-320-34-34v-86h60v120h-26Zm-74-74-46-46h46v46Zm140 74v-120h60v120h-60ZM764-84 528-320H140q-25 0-42.5-17.5T80-380q0-25 17.5-42.5T140-440h268L84-764q-11-11-11-28t11-28q11-11 28-11t28 11l680 680q11 11 11 28t-11 28q-11 11-28 11t-28-11Zm-14-396q-13 0-21.5-8.5T720-510v-22q0-39-23-59.5T642-612h-62q-56 0-95-39t-39-95q0-47 28.5-83t71.5-47q13-4 23.5 5.5T580-845q0 9-7 17t-18 12q-21 8-35 26.5T506-746q0 32 22 53t52 21h62q56 0 97 36t41 90v36q0 13-8.5 21.5T750-480Zm100 0q-13 0-21.5-8.5T820-510v-60q0-60-38-105t-96-55q-11-2-18.5-10.5T660-762q0-12 6-21t20-14q16-6 27.5-18t16.5-28q4-11 11.5-17t16.5-6q16 0 25.5 11t5.5 25q-5 17-14 32t-21 28q56 26 91 80t35 120v60q0 13-8.5 21.5T850-480Z"/>
</svg>
