<svg aria-hidden="true" viewBox="0 -960 960 960" fill="currentColor">
  <path d="m240-240-92 92q-19 19-43.5 8.5T80-177v-623q0-33 23.5-56.5T160-880h640q33 0 56.5 23.5T880-800v480q0 33-23.5 56.5T800-240H240Zm108.5-291.5Q360-543 360-560t-11.5-28.5Q337-600 320-600t-28.5 11.5Q280-577 280-560t11.5 28.5Q303-520 320-520t28.5-11.5Zm160 0Q520-543 520-560t-11.5-28.5Q497-600 480-600t-28.5 11.5Q440-577 440-560t11.5 28.5Q463-520 480-520t28.5-11.5Zm160 0Q680-543 680-560t-11.5-28.5Q657-600 640-600t-28.5 11.5Q600-577 600-560t11.5 28.5Q623-520 640-520t28.5-11.5Z"/>
</svg>
