<svg aria-hidden="true" viewBox="0 -960 960 960" fill="currentColor">
  <path d="M171.5-211.5Q160-223 160-240t11.5-28.5Q183-280 200-280t28.5 11.5Q240-257 240-240t-11.5 28.5Q217-200 200-200t-28.5-11.5Zm180 0Q340-223 340-240t11.5-28.5Q363-280 380-280t28.5 11.5Q420-257 420-240t-11.5 28.5Q397-200 380-200t-28.5-11.5Zm180 0Q520-223 520-240t11.5-28.5Q543-280 560-280t28.5 11.5Q600-257 600-240t-11.5 28.5Q577-200 560-200t-28.5-11.5Zm180 0Q700-223 700-240t11.5-28.5Q723-280 740-280t28.5 11.5Q780-257 780-240t-11.5 28.5Q757-200 740-200t-28.5-11.5Zm-620-160Q80-383 80-400t11.5-28.5Q103-440 120-440t28.5 11.5Q160-417 160-400t-11.5 28.5Q137-360 120-360t-28.5-11.5Zm180 0Q260-383 260-400t11.5-28.5Q283-440 300-440t28.5 11.5Q340-417 340-400t-11.5 28.5Q317-360 300-360t-28.5-11.5Zm180 0Q440-383 440-400t11.5-28.5Q463-440 480-440t28.5 11.5Q520-417 520-400t-11.5 28.5Q497-360 480-360t-28.5-11.5Zm180 0Q620-383 620-400t11.5-28.5Q643-440 660-440t28.5 11.5Q700-417 700-400t-11.5 28.5Q677-360 660-360t-28.5-11.5Zm180 0Q800-383 800-400t11.5-28.5Q823-440 840-440t28.5 11.5Q880-417 880-400t-11.5 28.5Q857-360 840-360t-28.5-11.5Zm-640-160Q160-543 160-560t11.5-28.5Q183-600 200-600t28.5 11.5Q240-577 240-560t-11.5 28.5Q217-520 200-520t-28.5-11.5Zm180 0Q340-543 340-560t11.5-28.5Q363-600 380-600t28.5 11.5Q420-577 420-560t-11.5 28.5Q397-520 380-520t-28.5-11.5Zm180 0Q520-543 520-560t11.5-28.5Q543-600 560-600t28.5 11.5Q600-577 600-560t-11.5 28.5Q577-520 560-520t-28.5-11.5Zm180 0Q700-543 700-560t11.5-28.5Q723-600 740-600t28.5 11.5Q780-577 780-560t-11.5 28.5Q757-520 740-520t-28.5-11.5Zm-620-160Q80-703 80-720t11.5-28.5Q103-760 120-760t28.5 11.5Q160-737 160-720t-11.5 28.5Q137-680 120-680t-28.5-11.5Zm180 0Q260-703 260-720t11.5-28.5Q283-760 300-760t28.5 11.5Q340-737 340-720t-11.5 28.5Q317-680 300-680t-28.5-11.5Zm180 0Q440-703 440-720t11.5-28.5Q463-760 480-760t28.5 11.5Q520-737 520-720t-11.5 28.5Q497-680 480-680t-28.5-11.5Zm180 0Q620-703 620-720t11.5-28.5Q643-760 660-760t28.5 11.5Q700-737 700-720t-11.5 28.5Q677-680 660-680t-28.5-11.5Zm180 0Q800-703 800-720t11.5-28.5Q823-760 840-760t28.5 11.5Q880-737 880-720t-11.5 28.5Q857-680 840-680t-28.5-11.5Z"/>
</svg>
