<svg aria-hidden="true" viewBox="0 -960 960 960" fill="currentColor">
  <path d="M580.5-660.5Q560-681 560-710t20.5-49.5Q601-780 630-780t49.5 20.5Q700-739 700-710t-20.5 49.5Q659-640 630-640t-49.5-20.5Zm203-3Q760-687 760-720t23.5-56.5Q807-800 840-800t56.5 23.5Q920-753 920-720t-23.5 56.5Q873-640 840-640t-56.5-23.5Zm-126-154Q640-835 640-860t17.5-42.5Q675-920 700-920t42.5 17.5Q760-885 760-860t-17.5 42.5Q725-800 700-800t-42.5-17.5ZM240-80q-66 0-113-47T80-240v-216q0-31 14.5-57.5T135-557l306-199q11-7 23-5.5t21 10.5q20 20 23.5 47.5T497-652l-45 72h308q17 0 28.5 11.5T800-540q0 17-11.5 28.5T760-500H380q-23 0-35-20.5t1-40.5l39-63-207 134q-9 5-13.5 14t-4.5 20v216q0 33 23.5 56.5T240-160h480q17 0 28.5 11.5T760-120q0 17-11.5 28.5T720-80H240Zm600-280H520q-17 0-28.5-11.5T480-400q0-17 11.5-28.5T520-440h320q17 0 28.5 11.5T880-400q0 17-11.5 28.5T840-360Zm-40 140H520q-17 0-28.5-11.5T480-260q0-17 11.5-28.5T520-300h280q17 0 28.5 11.5T840-260q0 17-11.5 28.5T800-220ZM320-330Z"/>
</svg>
