<svg aria-hidden="true" viewBox="0 -960 960 960" fill="currentColor">
  <path d="M240-840q0 17-11.5 28.5T200-800h-40q-17 0-28.5-11.5T120-840q0-17 11.5-28.5T160-880h40q17 0 28.5 11.5T240-840ZM178-80h262v-160H112l-13 64q-8 38 16.5 67T178-80Zm123-620q12 12 12 28.5T301-643l-28 28q-11 11-27.5 11T217-615q-12-12-12-28.5t12-28.5l28-28q11-11 27.5-11t28.5 11ZM128-320h312v-160H226q-29 0-51.5 18T147-416l-19 96Zm352-360q-83 0-141.5-58.5T280-880h400q0 83-58.5 141.5T480-680Zm0 40q17 0 28.5 11.5T520-600v40q0 17-11.5 28.5T480-520q-17 0-28.5-11.5T440-560v-40q0-17 11.5-28.5T480-640Zm40 560h262q38 0 62.5-29t16.5-67l-13-64H520v160Zm0-240h312l-19-96q-5-28-27.5-46T734-480H520v160Zm139-380q11-11 28-11t28 11l28 28q12 12 12.5 28T744-616q-12 12-28.5 12T687-616l-28-28q-11-12-11.5-28t11.5-28Zm181-140q0 17-11.5 28.5T800-800h-40q-17 0-28.5-11.5T720-840q0-17 11.5-28.5T760-880h40q17 0 28.5 11.5T840-840Z"/>
</svg>
