<svg aria-hidden="true" viewBox="0 -960 960 960" fill="currentColor">
  <path d="m99-176 48-240q5-28 27.5-46t51.5-18h508q29 0 51.5 18t27.5 46l48 240q8 38-16.5 67T782-80H178q-38 0-62.5-29T99-176Zm141-664q0 17-11.5 28.5T200-800h-40q-17 0-28.5-11.5T120-840q0-17 11.5-28.5T160-880h40q17 0 28.5 11.5T240-840Zm-62 680h262v-80H194l-16 80Zm123-540q12 12 12 28.5T301-643l-28 28q-11 11-27.5 11T217-615q-12-12-12-28.5t12-28.5l28-28q11-11 27.5-11t28.5 11Zm-91 380h230v-80H226l-16 80Zm270-360q-83 0-141.5-58.5T280-880h80q0 50 35 85t85 35q50 0 85-35t35-85h80q0 83-58.5 141.5T480-680Zm0-200Zm0 240q17 0 28.5 11.5T520-600v40q0 17-11.5 28.5T480-520q-17 0-28.5-11.5T440-560v-40q0-17 11.5-28.5T480-640Zm40 480h262l-16-80H520v80Zm0-160h230l-16-80H520v80Zm139-380q11-11 28-11t28 11l28 28q12 12 12.5 28T744-616q-12 12-28.5 12T687-616l-28-28q-11-12-11.5-28t11.5-28Zm181-140q0 17-11.5 28.5T800-800h-40q-17 0-28.5-11.5T720-840q0-17 11.5-28.5T760-880h40q17 0 28.5 11.5T840-840Z"/>
</svg>
