<svg aria-hidden="true" viewBox="0 -960 960 960" fill="currentColor">
  <path d="M95.891-184.37 141.5-411.935q5.956-32.065 31.326-52.456 25.37-20.392 58.196-20.392h497.956q32.826 0 58.196 20.392Q812.544-444 818.5-411.935l45.609 227.565q8.956 43.022-18.772 76.087-27.728 33.066-70.989 33.066H185.652q-43.261 0-70.989-33.066-27.728-33.065-18.772-76.087Zm143.392-669.261q0 19.152-13.174 32.326t-32.327 13.174h-40q-19.152 0-32.326-13.174t-13.174-32.326q0-19.152 13.174-32.326t32.326-13.174h40q19.153 0 32.327 13.174t13.174 32.326Zm-53.631 687.413h251.239v-70.673H199.739l-14.087 70.673Zm121.566-549.326q13.673 13.674 13.793 32.446.12 18.772-13.554 32.446l-28.239 28q-12.674 12.674-31.327 12.793-18.652.12-32.326-12.554-13.674-13.674-13.793-32.446-.12-18.772 13.554-32.446l28.239-28q12.674-12.674 31.326-12.793 18.653-.12 32.327 12.554Zm-90.283 392.435h219.956v-70.673H231.022l-14.087 70.673ZM480-698.413q-83.478 0-142.098-58.62-58.619-58.62-58.619-142.098h91q0 45.696 32.011 77.707 32.01 32.01 77.706 32.01 45.696 0 77.706-32.01 32.011-32.011 32.011-77.707h91q0 83.478-58.619 142.098-58.62 58.62-142.098 58.62Zm0-200.718Zm0 241.913q19.152 0 32.326 13.174t13.174 32.326v40q0 19.153-13.174 32.327-13.174 13.173-32.326 13.173t-32.326-13.173Q434.5-552.565 434.5-571.718v-40q0-19.152 13.174-32.326T480-657.218Zm43.109 491h251.239l-14.087-70.673H523.109v70.673Zm0-156.891h219.956l-14.087-70.673H523.109v70.673Zm129.673-392.196q12.674-12.674 31.827-12.674 19.152 0 31.826 12.674l28.239 28q13.674 13.674 14.174 31.946.5 18.272-13.174 31.946-13.674 13.674-32.565 13.674-18.892 0-32.566-13.674l-28-28.239q-12.674-13.674-12.934-31.946-.261-18.272 13.173-31.707Zm198.936-138.326q0 19.152-13.174 32.326t-32.326 13.174h-40q-19.153 0-32.327-13.174t-13.174-32.326q0-19.152 13.174-32.326t32.327-13.174h40q19.152 0 32.326 13.174t13.174 32.326Z"/>
</svg>
