<svg aria-hidden="true" viewBox="0 -960 960 960" fill="currentColor">
  <path d="M451.5-588.5Q440-577 440-560v80q0 17 11.5 28.5T480-440q17 0 28.5-11.5T520-480v-80q0-17-11.5-28.5T480-600q-17 0-28.5 11.5Zm-103 377Q337-200 320-200h-80q-17 0-28.5-11.5T200-240q0-17 11.5-28.5T240-280h80q17 0 28.5 11.5T360-240q0 17-11.5 28.5Zm400 0Q737-200 720-200h-80q-17 0-28.5-11.5T600-240q0-17 11.5-28.5T640-280h80q17 0 28.5 11.5T760-240q0 17-11.5 28.5ZM280-440q33 0 56.5-23.5T360-520q0-33-23.5-56.5T280-600q-33 0-56.5 23.5T200-520q0 33 23.5 56.5T280-440Zm400 0q33 0 56.5-23.5T760-520q0-33-23.5-56.5T680-600q-33 0-56.5 23.5T600-520q0 33 23.5 56.5T680-440ZM160-320q-33 0-56.5-23.5T80-400v-240q0-33 23.5-56.5T160-720h640q33 0 56.5 23.5T880-640v240q0 33-23.5 56.5T800-320H160Zm0-80h640v-240H160v240Zm320-120Z"/>
</svg>
