<svg aria-hidden="true" viewBox="0 -960 960 960" fill="currentColor">
  <path d="M80-160v-590q0-10 4-18t12-14l160-120q11-8 24-8t24 8l160 120q8 6 12 14t4 18v70h360q17 0 28.5 11.5T880-640v480q0 17-11.5 28.5T840-120H120q-17 0-28.5-11.5T80-160Zm80-40h80v-80h-80v80Zm0-160h80v-80h-80v80Zm0-160h80v-80h-80v80Zm0-160h80v-80h-80v80Zm160 0h80v-80h-80v80Zm0 480h480v-400H320v400Zm280-320h80q17 0 28.5 11.5T720-480q0 17-11.5 28.5T680-440h-80q-17 0-28.5-11.5T560-480q0-17 11.5-28.5T600-520Zm0 160h80q17 0 28.5 11.5T720-320q0 17-11.5 28.5T680-280h-80q-17 0-28.5-11.5T560-320q0-17 11.5-28.5T600-360Zm-131.5-91.5Q457-440 440-440t-28.5-11.5Q400-463 400-480t11.5-28.5Q423-520 440-520t28.5 11.5Q480-497 480-480t-11.5 28.5Zm-57 160Q400-303 400-320t11.5-28.5Q423-360 440-360t28.5 11.5Q480-337 480-320t-11.5 28.5Q457-280 440-280t-28.5-11.5Z"/>
</svg>
