<svg aria-hidden="true" viewBox="0 -960 960 960" fill="currentColor">
  <path d="M324-111.5Q251-143 197-197t-85.5-127Q80-397 80-480t31.5-156Q143-709 197-763t127-85.5Q397-880 480-880t156 31.5Q709-817 763-763t85.5 127Q880-563 880-480t-31.5 156Q817-251 763-197t-127 85.5Q563-80 480-80t-156-31.5ZM480-160l-28-28q-6-6-9-13t-3-15v-224q-33 0-56.5-23.5T360-520v-40L235-685q-35 42-55 94t-20 111q0 134 93 227t227 93Zm40-2q119-15 199.5-105T800-480q0-133-93.5-226.5T480-800q-44 0-84.5 11.5T320-757v77h142q18 0 34.5 8t27.5 22l56 70h60q17 0 28.5 11.5T680-540v42q0 9-2.5 17t-7.5 16L520-240v78Z"/>
</svg>
