<svg aria-hidden="true" viewBox="0 -960 960 960" fill="currentColor">
  <path d="M511.63-124.087q2.239 21.631-13.456 36.446-15.696 14.815-36.326 10.859-166.109-26.957-267.511-133.424Q92.935-316.674 76.304-499.13q-2.717-22.152 12.337-37.446 15.055-15.293 37.446-11.815 183 25 277.815 136.935 94.815 111.934 107.728 287.369Zm-65.739-726.957q13.196-18.913 34.729-18.652 21.532.261 34.728 19.174 45.717 64.196 80.293 140.631 34.577 76.434 41.816 127.673-41.153 18.24-89.75 57.305-48.598 39.065-66.468 64.174-18.065-25.826-68.804-66.174-50.739-40.348-87.892-55.305 8.718-52.869 42.533-129.489 33.815-76.619 78.815-139.337Zm390.783 302.653q21.63-2.478 36.304 11.935 14.674 14.413 12.718 36.565-11.109 157.174-90.011 256.239-78.902 99.065-194.772 140.261-2-63.631-17.663-142.207t-48.511-134.098q43.479-65.521 125.228-111.369 81.75-45.848 176.707-57.326Z"/>
</svg>
