<svg aria-hidden="true" viewBox="0 -960 960 960" fill="currentColor">
  <path d="M641-666q0-60 20-115.5T719-885q11-14 29-17t30 9q11 11 11.5 27.5T779-835q-28 37-43 80t-15 89q0 46 15 89.5t43 80.5q11 14 10.5 30.5T778-438q-12 12-30 9t-29-17q-37-48-57.5-104T641-666Zm160-1q0-29 8.5-56.5T834-775q9-14 26.5-16t29.5 10q11 11 12.5 28t-6.5 31q-7 13-11 27t-4 28q0 15 3.5 29t10.5 27q8 14 7 31t-12 28q-12 12-29 10t-27-16q-16-24-24.5-52t-8.5-57ZM400-440q-66 0-113-47t-47-113q0-66 47-113t113-47q66 0 113 47t47 113q0 66-47 113t-113 47ZM160-120q-33 0-56.5-23.5T80-200v-32q0-33 17-62t47-44q51-26 115-44t141-18q77 0 141 18t115 44q30 15 47 44t17 62v32q0 33-23.5 56.5T640-120H160Z"/>
</svg>
