<svg aria-hidden="true" viewBox="0 -960 960 960" fill="currentColor">
  <path d="M665-665q-47-46-75.5-107T561-884q0-15 11.5-25.5T601-920q15 0 27 11.5t14 28.5q7 45 27 86t52 73q32 32 73 52.5t86 27.5q17 2 28.5 13.5T920-601q0 17-10 28.5T885-561q-52 0-113-29t-107-75Zm112-112q-26-26-41-55.5T721-887q0-14 12-23.5t29-9.5q14 0 24.5 10.5T803-882q5 14 12 26t18 23q11 11 23 17.5t26 11.5q17 6 27.5 17t10.5 25q0 17-9.5 29T887-721q-25 0-54.5-15T777-777ZM400-440q-66 0-113-47t-47-113q0-66 47-113t113-47q66 0 113 47t47 113q0 66-47 113t-113 47ZM160-120q-33 0-56.5-23.5T80-200v-32q0-33 17-62t47-44q51-26 115-44t141-18q77 0 141 18t115 44q30 15 47 44t17 62v32q0 33-23.5 56.5T640-120H160Zm0-80h480v-32q0-11-5.5-20T620-266q-36-18-92.5-36T400-320q-71 0-127.5 18T180-266q-9 5-14.5 14t-5.5 20v32Zm240-320q33 0 56.5-23.5T480-600q0-33-23.5-56.5T400-680q-33 0-56.5 23.5T320-600q0 33 23.5 56.5T400-520Zm0-80Zm0 400Z"/>
</svg>
