<svg aria-hidden="true" viewBox="0 -960 960 960" fill="currentColor">
  <path d="M665-665q46 46 107 75t113 29q15 0 25-11.5t10-28.5q0-15-11.5-26.5T880-641q-45-7-86-27.5T721-721q-32-32-52-73t-27-86q-2-17-14-28.5T601-920q-17 0-28.5 10.5T561-884q0 51 28.5 112T665-665Zm112-112q26 26 55.5 41t54.5 15q14 0 23.5-12t9.5-29q0-14-10.5-25T882-804q-14-5-26-11.5T833-833q-11-11-18-23t-12-26q-6-17-16.5-27.5T762-920q-17 0-29 9.5T721-887q0 25 15 54.5t41 55.5ZM400-440q-66 0-113-47t-47-113q0-66 47-113t113-47q66 0 113 47t47 113q0 66-47 113t-113 47ZM160-120q-33 0-56.5-23.5T80-200v-32q0-33 17-62t47-44q51-26 115-44t141-18q77 0 141 18t115 44q30 15 47 44t17 62v32q0 33-23.5 56.5T640-120H160Z"/>
</svg>
