<svg aria-hidden="true" viewBox="0 -960 960 960" fill="currentColor">
  <path d="M640.283-675.924q0-59.881 19.509-115.631 19.51-55.75 56.578-103.967 11.956-16.152 31.63-19.391 19.674-3.239 32.797 9.883 12.029 12.03 12.529 29.965.5 17.934-11.217 34.087-26.565 36.521-40.489 78.565-13.924 42.043-13.924 86.608 0 44.566 14.043 86.99 14.044 42.423 40.609 78.945 11.717 16.152 11.177 34.177-.539 18.024-12.416 30.041-13.196 13.195-32.989 9.956-19.794-3.239-31.75-19.391-36.283-48.718-56.185-104.837-19.902-56.12-19.902-116Zm164.543-.606q0-27.601 7.902-53.905 7.902-26.304 22.468-49.348 9.478-16.152 29.13-18.75 19.652-2.598 33.565 11.315 11.479 11.479 13.457 28.359 1.978 16.881-6.022 31.359-6.553 12.014-10.298 24.953-3.745 12.938-3.506 25.982.239 13.804 3.261 26.847 3.022 13.044 9.543 25.087 8 14.479 6.402 31.359-1.597 16.88-13.076 28.359-13.674 13.913-32.945 11.195-19.272-2.717-29.511-18.869-14.805-23.044-22.587-49.693-7.783-26.649-7.783-54.25ZM395.217-448.37q-69.587 0-118.859-49.272-49.271-49.271-49.271-118.858t49.271-118.859q49.272-49.272 118.859-49.272 69.587 0 118.859 49.272 49.272 49.272 49.272 118.859 0 69.587-49.272 118.858-49.272 49.272-118.859 49.272Zm-237.13 336.022q-37.538 0-64.269-26.731-26.731-26.731-26.731-64.269v-29.369q0-35.255 18.554-66.237 18.554-30.981 49.989-46.698 52.913-26.718 118.707-44.718 65.793-18 141-18 75.206 0 141.119 17.761 65.914 17.761 118.348 44.478 31.435 15.718 49.99 46.99 18.554 31.271 18.554 66.424v29.369q0 37.538-26.731 64.269-26.732 26.731-64.269 26.731H158.087Zm0-91h474.261v-28.174q0-10.728-5.381-19.505-5.38-8.777-14.619-13.777-37.435-18.479-93.457-35.522-56.022-17.044-123.674-17.044-66.934 0-122.956 16.924-56.022 16.924-94.174 35.642-9.239 5-14.62 13.777-5.38 8.777-5.38 19.505v28.174ZM395.209-539.37q31.813 0 54.476-22.655 22.663-22.654 22.663-54.467t-22.655-54.476q-22.654-22.663-54.467-22.663t-54.476 22.655q-22.663 22.654-22.663 54.467t22.654 54.476q22.655 22.663 54.468 22.663Zm.008-77.13Zm0 413.152Z"/>
</svg>
