<svg aria-hidden="true" viewBox="0 -960 960 960" fill="currentColor">
  <path d="M640.283-675.805q0-60 19.521-115.739 19.522-55.739 56.566-103.978 11.956-16.152 31.63-19.391 19.674-3.239 32.87 9.956 11.956 11.957 12.456 29.892.5 17.934-11.217 34.087-26.565 36.521-40.489 78.565-13.924 42.043-13.924 86.608 0 44.566 14.043 86.99 14.044 42.423 40.609 78.945 11.717 16.152 11.217 34.207-.5 18.054-12.456 30.011-13.196 13.195-32.989 9.956-19.794-3.239-31.75-19.391-36.283-48.718-56.185-104.837-19.902-56.12-19.902-115.881Zm164.543-.76q0-27.566 7.902-53.87t22.468-49.348q9.478-16.152 29.13-18.75 19.652-2.598 33.565 11.315 11.479 11.479 13.457 28.359 1.978 16.881-6.022 31.359-6.521 12.043-10.282 24.967t-3.522 25.968q.239 13.804 3.261 26.847 3.022 13.044 9.543 25.087 8 14.479 6.402 31.359-1.597 16.88-13.076 28.359-13.674 13.913-32.945 11.195-19.272-2.717-29.511-18.869-14.805-23.044-22.587-49.728-7.783-26.685-7.783-54.25ZM395.217-448.37q-69.587 0-118.859-49.272-49.271-49.271-49.271-118.858t49.271-118.859q49.272-49.272 118.859-49.272 69.587 0 118.859 49.272 49.272 49.272 49.272 118.859 0 69.587-49.152 118.858-49.153 49.272-118.979 49.272Zm-237.13 336.022q-37.544 0-64.272-26.728-26.728-26.728-26.728-64.272v-29.369q0-36.587 19.272-67.261 19.271-30.674 49.271-45.674 51-26 116.794-44.359 65.793-18.359 142.793-18.359t142.794 18.12q65.793 18.119 116.793 44.119 30 15 49.272 45.913 19.272 30.914 19.272 67.501v29.369q0 37.544-26.728 64.272-26.729 26.728-64.272 26.728H158.087Z"/>
</svg>
