<svg aria-hidden="true" viewBox="0 -960 960 960" fill="currentColor">
  <path d="M669.304-669.065q46.479 46.478 107.359 75.478 60.881 29 112.641 29 16.196 0 27.153-12.457 10.956-12.456 10.956-30.652 0-16.674-12.456-29.369-12.457-12.696-30.892-15.414-43.565-7.239-82.891-27.021-39.326-19.783-70.369-50.826-31.283-31.283-50.685-70.848t-26.641-82.891q-2.718-18.435-15.914-30.892-13.195-12.456-29.869-12.456-18.196 0-30.652 11.456-12.457 11.457-12.457 27.653 0 51 28.739 111.88 28.739 60.88 75.978 107.359Zm114.392-114.631q25.282 25.283 53.587 39.805 28.304 14.521 52.347 14.521 15.914 0 26.848-12.837 10.935-12.837 10.935-31.272 0-14.956-10.261-26.673-10.261-11.718-27.021-17.479-13.044-4.521-24.087-10.782-11.044-6.261-21.087-16.305-10.283-10.282-16.924-21.326-6.641-11.043-11.163-23.847-5.761-16.761-17.218-27.142-11.456-10.38-26.173-10.38-18.435 0-31.392 10.935-12.956 10.934-12.717 27.087.239 24.043 14.761 52.347 14.521 28.305 39.565 53.348ZM395.217-448.37q-69.587 0-118.859-49.272-49.271-49.271-49.271-118.858t49.271-118.859q49.272-49.272 118.859-49.272 69.587 0 118.859 49.272 49.272 49.272 49.272 118.859 0 69.587-49.152 118.858-49.153 49.272-118.979 49.272Zm-237.13 336.022q-37.544 0-64.272-26.728-26.728-26.728-26.728-64.272v-29.369q0-36.587 19.272-67.261 19.271-30.674 49.271-45.674 51-26 116.794-44.359 65.793-18.359 142.793-18.359t142.794 18.12q65.793 18.119 116.793 44.119 30 15 49.272 45.913 19.272 30.914 19.272 67.501v29.369q0 37.544-26.728 64.272-26.729 26.728-64.272 26.728H158.087Z"/>
</svg>
