<svg aria-hidden="true" viewBox="0 -960 960 960" fill="currentColor">
  <path d="M669.304-669.065q-47.239-46.479-75.978-107.394-28.739-60.916-28.739-111.845 0-16.296 12.457-27.702 12.456-11.407 30.652-11.407 16.563 0 29.814 12.456 13.251 12.457 15.969 30.892 7.239 43.326 26.641 82.891 19.402 39.565 50.685 70.848 31.043 31.043 70.369 50.826 39.326 19.782 82.891 27.021 18.435 2.718 30.892 15.448 12.456 12.73 12.456 29.335 0 18.196-10.956 30.652-10.957 12.457-27.153 12.457-51.857 0-112.689-29-60.832-29-107.311-75.478Zm114.392-114.631q-25.112-24.976-39.6-53.314-14.487-28.338-14.726-52.381-.239-16.153 12.74-27.087 12.98-10.935 31.369-10.935 14.717 0 26.173 10.38 11.457 10.381 17.218 27.142 4.522 12.804 11.163 23.847 6.641 11.044 16.924 21.326 10.043 10.044 21.087 16.305 11.043 6.261 24.087 10.782 16.76 5.761 27.021 17.479 10.261 11.717 10.261 26.752 0 18.256-10.877 31.143-10.876 12.887-26.906 12.887-24.003 0-52.327-14.521-28.325-14.522-53.607-39.805ZM395.337-448.37q-69.707 0-118.979-49.272-49.271-49.271-49.271-118.858t49.271-118.859q49.272-49.272 118.859-49.272 69.587 0 118.859 49.272 49.272 49.272 49.272 118.859 0 69.587-49.152 118.858-49.153 49.272-118.859 49.272Zm-237.25 336.022q-37.538 0-64.269-26.731-26.731-26.731-26.731-64.269v-29.369q0-36.587 19.272-67.261 19.271-30.674 49.271-45.674 51-26 116.794-44.359 65.793-18.359 142.793-18.359t142.794 18.12q65.793 18.119 116.793 44.119 30 15 49.272 45.913 19.272 30.914 19.272 67.501v29.369q0 37.538-26.731 64.269-26.732 26.731-64.269 26.731H158.087Zm0-91h474.261v-28.174q0-11-5.5-19.641-5.5-8.641-14.5-13.641-36-18-92.022-35.283-56.022-17.283-125.109-17.283-69.087 0-125.108 17.403-56.022 17.402-92.022 35.215-9 4.948-14.5 13.589t-5.5 19.641v28.174ZM395.209-539.37q31.813 0 54.476-22.655 22.663-22.654 22.663-54.467t-22.655-54.476q-22.654-22.663-54.467-22.663t-54.476 22.655q-22.663 22.654-22.663 54.467t22.654 54.476q22.655 22.663 54.468 22.663Zm.008-77.13Zm0 413.152Z"/>
</svg>
