<svg aria-hidden="true" viewBox="0 -960 960 960" fill="currentColor">
  <path d="M251.5-411.5Q240-423 240-440t11.5-28.5Q263-480 280-480t28.5 11.5Q320-457 320-440t-11.5 28.5Q297-400 280-400t-28.5-11.5ZM880-800v498q0 17-11.5 28.5T840-262q-15 0-27.5-10T800-302v-498H291q-20 0-30-12.5T251-840q0-15 10-27.5t30-12.5h509q33 0 56.5 23.5T880-800ZM680-520H571q-20 0-30-12.5T531-560q0-15 10-27.5t30-12.5h109q17 0 28.5 11.5T720-560q0 17-11.5 28.5T680-520ZM240-240l-92 92q-19 19-43.5 8.5T80-177v-591l-24-24q-11-11-11-28t11-28q11-11 28-11t28 11l736 736q11 11 11.5 27.5T848-56q-11 11-28 11t-28-11L606-240H240Zm297-297Zm-285.5 5.5Q240-543 240-560t11.5-28.5Q263-600 280-600t28.5 11.5Q320-577 320-560t-11.5 28.5Q297-520 280-520t-28.5-11.5ZM680-640H440q-17 0-28.5-11.5T400-680q0-17 11.5-28.5T440-720h240q17 0 28.5 11.5T720-680q0 17-11.5 28.5T680-640ZM344-504ZM160-688v413l46-45h322L160-688Z"/>
</svg>
