<svg aria-hidden="true" viewBox="0 -960 960 960" fill="currentColor">
  <path d="M557.13-65.413H402.87q-37.783 0-64.392-26.609-26.609-26.608-26.609-64.391v-314.022q0-37.782 26.609-64.391 26.609-26.609 64.392-26.609h154.26q37.783 0 64.392 26.609 26.609 26.609 26.609 64.391v314.022q0 37.783-26.609 64.392-26.609 26.608-64.392 26.608Zm0-91v-314.022H402.87v314.022h154.26Zm0 0H402.87h154.26ZM309.166-648.834q-13.123-13.123-12.883-30.938.239-17.815 15.195-28.532 37-26.761 79.827-41.022t88.641-14.261q45.815 0 88.695 14.261 42.881 14.261 79.881 41.022 14.956 10.717 15.576 28.152.619 17.435-13.417 31.471-11.877 11.877-30.311 12.877-18.435 1-35.109-9.239-23.044-15.566-49.971-23.468-26.927-7.902-55.272-7.902-28.344 0-55.29 7.902-26.945 7.902-49.989 23.468-16.674 10.239-35.109 9.239-18.434-1-30.464-13.03ZM195.297-766.703q-13.123-13.123-12.504-30.438.62-17.316 13.816-28.272 60.717-49.761 132.934-75.881Q401.761-927.413 480-927.413q78.239 0 150.457 26.119 72.217 26.12 132.934 75.881 13.196 10.956 13.816 28.272.619 17.315-12.504 30.438-12.029 12.029-30.083 13.268-18.055 1.239-33.49-10.478-47.76-37.044-104.39-56.565Q540.11-840 480.033-840q-60.076 0-116.859 19.522-56.783 19.521-104.544 56.565-15.434 11.717-33.369 10.478-17.935-1.239-29.964-13.268Z"/>
</svg>
