<svg aria-hidden="true" viewBox="0 -960 960 960" fill="currentColor">
  <path d="M308.5-411.5Q320-423 320-440t-11.5-28.5Q297-480 280-480t-28.5 11.5Q240-457 240-440t11.5 28.5Q263-400 280-400t28.5-11.5Zm0-120Q320-543 320-560t-11.5-28.5Q297-600 280-600t-28.5 11.5Q240-577 240-560t11.5 28.5Q263-520 280-520t28.5-11.5Zm0-120Q320-663 320-680t-11.5-28.5Q297-720 280-720t-28.5 11.5Q240-697 240-680t11.5 28.5Q263-640 280-640t28.5-11.5ZM440-400h120q17 0 28.5-11.5T600-440q0-17-11.5-28.5T560-480H440q-17 0-28.5 11.5T400-440q0 17 11.5 28.5T440-400Zm0-120h240q17 0 28.5-11.5T720-560q0-17-11.5-28.5T680-600H440q-17 0-28.5 11.5T400-560q0 17 11.5 28.5T440-520Zm0-120h240q17 0 28.5-11.5T720-680q0-17-11.5-28.5T680-720H440q-17 0-28.5 11.5T400-680q0 17 11.5 28.5T440-640ZM240-240l-92 92q-19 19-43.5 8.5T80-177v-623q0-33 23.5-56.5T160-880h640q33 0 56.5 23.5T880-800v480q0 33-23.5 56.5T800-240H240Z"/>
</svg>
