<svg aria-hidden="true" viewBox="0 -960 960 960" fill="currentColor">
  <path d="M680-80H280q-33 0-56.5-23.5T200-160v-640q0-33 23.5-56.5T280-880h400q33 0 56.5 23.5T760-800v640q0 33-23.5 56.5T680-80Zm0-80v-640H280v640h400ZM536.5-623.5Q560-647 560-680t-23.5-56.5Q513-760 480-760t-56.5 23.5Q400-713 400-680t23.5 56.5Q447-600 480-600t56.5-23.5ZM593-247q47-47 47-113t-47-113q-47-47-113-47t-113 47q-47 47-47 113t47 113q47 47 113 47t113-47Zm-169.5-56.5Q400-327 400-360t23.5-56.5Q447-440 480-440t56.5 23.5Q560-393 560-360t-23.5 56.5Q513-280 480-280t-56.5-23.5ZM280-800v640-640Z"/>
</svg>
