<svg aria-hidden="true" viewBox="0 -960 960 960" fill="currentColor">
  <path d="M557.13-65.413H402.87q-37.783 0-64.392-26.609-26.609-26.608-26.609-64.391v-314.022q0-37.782 26.609-64.391 26.609-26.609 64.392-26.609h154.26q37.783 0 64.392 26.609 26.609 26.609 26.609 64.391v314.022q0 37.783-26.609 64.392-26.609 26.608-64.392 26.608ZM309.239-648.76q-13.196-13.196-12.956-31.011.239-17.815 15.195-28.532 37-26.761 79.881-41.022 42.88-14.261 88.641-14.261t88.641 14.261q42.881 14.261 79.881 41.022 14.956 10.717 15.576 28.152.619 17.435-13.337 31.391-11.957 11.957-30.391 12.957-18.435 1-35.109-9.239-23.044-15.566-49.989-23.468-26.946-7.902-55.272-7.902-28.326 0-55.272 7.902-26.945 7.902-49.989 23.468-16.674 10.239-35.109 9.239-18.434-1-30.391-12.957ZM195.37-766.63q-13.196-13.196-12.577-30.511.62-17.316 13.816-28.272 60.717-49.761 132.934-75.881Q401.761-927.413 480-927.413q78.239 0 150.457 26.119 72.217 26.12 132.934 75.881 13.196 10.956 13.816 28.272.619 17.315-12.577 30.511-11.956 11.956-30.01 13.195-18.055 1.239-33.49-10.478-47.76-37.044-104.424-56.565Q540.043-840 480-840q-60.043 0-116.826 19.522-56.783 19.521-104.544 56.565-15.434 11.717-33.369 10.478-17.935-1.239-29.891-13.195Z"/>
</svg>
