<svg aria-hidden="true" viewBox="0 -960 960 960" fill="currentColor">
  <path d="M280-400q-17 0-28.5-11.5T240-440q0-17 11.5-28.5T280-480q17 0 28.5 11.5T320-440q0 17-11.5 28.5T280-400Zm548 154-74-74h46v-480H274l-80-80h606q33 0 56.5 23.5T880-800v480q0 26-14.5 45.5T828-246ZM554-520l-80-80h206q17 0 28.5 11.5T720-560q0 17-11.5 28.5T680-520H554ZM240-240l-92 92q-19 19-43.5 8.5T80-177v-591l-24-24q-11-11-11-28t11-28q11-11 28-11t28 11l736 736q11 11 11.5 27.5T848-56q-11 11-28 11t-28-11L606-240H240Zm274-320Zm-234 40q-17 0-28.5-11.5T240-560q0-17 11.5-28.5T280-600q17 0 28.5 11.5T320-560q0 17-11.5 28.5T280-520Zm154-120-34-34v-6q0-17 11.5-28.5T440-720h240q17 0 28.5 11.5T720-680q0 17-11.5 28.5T680-640H434Zm-90 136ZM160-688v413l46-45h322L160-688Z"/>
</svg>
