<svg aria-hidden="true" viewBox="0 -960 960 960" fill="currentColor">
  <path d="M560-80H400q-33 0-56.5-23.5T320-160v-320q0-33 23.5-56.5T400-560h160q33 0 56.5 23.5T640-480v320q0 33-23.5 56.5T560-80ZM309-649q-12-12-12-28.5t14-26.5q37-27 80-41.5t89-14.5q46 0 89 14.5t80 41.5q14 10 14.5 26T651-649q-11 11-28 12t-32-9q-24-17-52.5-25.5T480-680q-30 0-58.5 8.5T369-646q-15 10-32 9t-28-12ZM198-764q-12-12-11.5-28t12.5-26q60-50 131.5-76T480-920q78 0 149.5 26T761-818q12 10 12.5 26T762-764q-11 11-27.5 12T704-762q-48-38-105.5-58T480-840q-61 0-118.5 20T256-762q-14 11-30.5 10T198-764Z"/>
</svg>
