<svg aria-hidden="true" viewBox="0 -960 960 960" fill="currentColor">
  <path d="M480-440q66 0 113-47t47-113q0-66-47-113t-113-47q-66 0-113 47t-47 113q0 66 47 113t113 47Zm0-80q-33 0-56.5-23.5T400-600q0-33 23.5-56.5T480-680q33 0 56.5 23.5T560-600q0 33-23.5 56.5T480-520Zm0 200q17 0 28.5-11.5T520-360q0-17-11.5-28.5T480-400q-17 0-28.5 11.5T440-360q0 17 11.5 28.5T480-320ZM360-80q-17 0-28.5-11.5T320-120q0-16 14.5-22.5T360-160q23 0 40.5-11t28.5-29H280q-33 0-56.5-23.5T200-280v-520q0-33 23.5-56.5T280-880h400q33 0 56.5 23.5T760-800v520q0 33-23.5 56.5T680-200H531q11 18 28.5 29t40.5 11q17 0 28.5 11.5T640-120q0 17-11.5 28.5T600-80H360Z"/>
</svg>
