<svg aria-hidden="true" viewBox="0 -960 960 960" fill="currentColor">
  <path d="m240-240-92 92q-19 19-43.5 8.5T80-177v-603h100l260 260H328L56-792q-11-11-11-28t11-28q11-11 28-11t28 11l736 736q11 11 11.5 27.5T848-56q-11 11-28 11t-28-11L606-240H240Zm588-6L554-520h126q17 0 28.5-11.5T720-560q0-17-11.5-28.5T680-600H474l-40-40h246q17 0 28.5-11.5T720-680q0-17-11.5-28.5T680-720H440q-17 0-28.5 11.5T400-680v6L194-880h606q33 0 56.5 23.5T880-800v480q0 26-14.5 45.5T828-246ZM280-400q17 0 28.5-11.5T320-440q0-17-11.5-28.5T280-480q-17 0-28.5 11.5T240-440q0 17 11.5 28.5T280-400Zm0-120q17 0 28.5-11.5T320-560q0-17-11.5-28.5T280-600q-17 0-28.5 11.5T240-560q0 17 11.5 28.5T280-520Z"/>
</svg>
