<svg aria-hidden="true" viewBox="0 -960 960 960" fill="currentColor">
  <path d="m680-413-70 116q-5 8-12.5 12.5T581-280q-20 0-30.5-17.5t.5-34.5l89-148-89-148q-11-17-.5-34.5T581-680q9 0 16.5 4.5T610-663l70 116 70-116q5-8 12.5-12.5T779-680q20 0 30.5 17.5T809-628l-89 148 89 148q11 17 .5 34.5T779-280q-9 0-16.5-4.5T750-297l-70-116ZM370-280q-19 0-31-15t-7-33l68-272H280q-17 0-28.5-11.5T240-640q0-17 11.5-28.5T280-680h130q29 0 49.5 21.5T480-608l-2 18-71 281q-3 13-13 21t-24 8Zm-198.5-11.5Q160-303 160-320t11.5-28.5Q183-360 200-360t28.5 11.5Q240-337 240-320t-11.5 28.5Q217-280 200-280t-28.5-11.5Z"/>
</svg>
