<svg aria-hidden="true" viewBox="0 -960 960 960" fill="currentColor">
  <path d="M540-280H400q-17 0-28.5-11.5T360-320v-120q0-33 23.5-56.5T440-520h60v-80H400q-17 0-28.5-11.5T360-640q0-17 11.5-28.5T400-680h100q33 0 56.5 23.5T580-600v80q0 33-23.5 56.5T500-440h-60v80h100q17 0 28.5 11.5T580-320q0 17-11.5 28.5T540-280ZM120-600H80q-17 0-28.5-11.5T40-640q0-17 11.5-28.5T80-680h80q17 0 28.5 11.5T200-640v320q0 17-11.5 28.5T160-280q-17 0-28.5-11.5T120-320v-280Zm660 187-70 116q-5 8-12.5 12.5T681-280q-20 0-30.5-17.5t.5-34.5l89-148-89-148q-11-17-.5-34.5T681-680q9 0 16.5 4.5T710-663l70 116 70-116q5-8 12.5-12.5T879-680q20 0 30.5 17.5T909-628l-89 148 89 148q11 17 .5 34.5T879-280q-9 0-16.5-4.5T850-297l-70-116ZM251.5-291.5Q240-303 240-320t11.5-28.5Q263-360 280-360t28.5 11.5Q320-337 320-320t-11.5 28.5Q297-280 280-280t-28.5-11.5Z"/>
</svg>
