<svg aria-hidden="true" viewBox="0 -960 960 960" fill="currentColor">
  <path d="M513-328q30-14 44.5-48t-6.5-64q-44-63-88.5-122.5T372-682q-11-14-27.5-6.5T332-663q16 73 34 145t40 146q10 35 41.5 46.5T513-328ZM205-160q-21 0-40.5-9.5T135-198q-28-46-41-97.5T81-400q0-69 23.5-138.5T179-663q15-17 32-16.5t28 10.5q11 10 14 25t-9 29q-38 42-60.5 99T161-400q0 41 10.5 81.5T205-240h551q21-36 32.5-77t11.5-83q0-75-32.5-139T681-648q-42-35-95-54t-108-18q-16 0-28.5-10.5T435-757q-2-16 6-29t24-14q73-3 142.5 21T734-708q67 56 106.5 135T880-400q0 56-14 106.5T826-198q-11 19-30 28.5t-40 9.5H205Zm276-241Z"/>
</svg>
