<svg aria-hidden="true" viewBox="0 -960 960 960" fill="currentColor">
  <path d="M448-328q34 14 65.5 2.5T555-372q22-74 40-146t34-145q4-18-12.5-25.5T589-682q-46 60-90.5 119.5T410-440q-21 30-6.5 64t44.5 48ZM205-160q-21 0-40-9.5T135-198q-26-45-40-95.5T81-400q0-94 39.5-173T227-708q57-47 126.5-71T496-800q16 1 24 14t6 29q-2 16-14.5 26.5T483-720q-55-1-108 18t-95 54q-54 45-86.5 109T161-400q0 42 11.5 83t32.5 77h551q23-38 33.5-78.5T800-400q0-59-22.5-116T717-615q-12-14-9-29t14-25q11-10 28-10.5t32 16.5q51 55 74.5 124.5T880-400q0 53-13 104.5T826-198q-10 19-29.5 28.5T756-160H205Zm275-241Z"/>
</svg>
