<svg aria-hidden="true" viewBox="0 -960 960 960" fill="currentColor">
  <path d="M291.5-291.5Q280-303 280-320v-280h-40q-17 0-28.5-11.5T200-640q0-17 11.5-28.5T240-680h40q33 0 56.5 23.5T360-600v280q0 17-11.5 28.5T320-280q-17 0-28.5-11.5ZM600-280q-33 0-56.5-23.5T520-360v-80q0-33 23.5-56.5T600-520h80v-80H560q-17 0-28.5-11.5T520-640q0-17 11.5-28.5T560-680h120q33 0 56.5 23.5T760-600v80q0 33-23.5 56.5T680-440h-80v80h120q17 0 28.5 11.5T760-320q0 17-11.5 28.5T720-280H600Zm-188.5-11.5Q400-303 400-320t11.5-28.5Q423-360 440-360t28.5 11.5Q480-337 480-320t-11.5 28.5Q457-280 440-280t-28.5-11.5Z"/>
</svg>
