<svg aria-hidden="true" viewBox="0 -960 960 960" fill="currentColor">
  <path d="M242.87-518.565q-37.783 0-64.392-26.609-26.609-26.609-26.609-64.391V-797.13q0-37.783 26.609-64.392 26.609-26.609 64.392-26.609h474.26q37.783 0 64.392 26.609 26.609 26.609 26.609 64.392v187.565q0 37.782-26.609 64.391-26.609 26.609-64.392 26.609H242.87Zm0 446.696q-37.783 0-64.392-26.61-26.609-26.608-26.609-64.391v-187.565q0-37.782 26.609-64.391 26.609-26.609 64.392-26.609h474.26q37.783 0 64.392 26.609 26.609 26.609 26.609 64.391v187.565q0 37.783-26.609 64.392Q754.913-71.87 717.13-71.87H242.87Z"/>
</svg>
