<svg aria-hidden="true" viewBox="0 -960 960 960" fill="currentColor">
  <path d="M480-160q-17 0-28.5-11.5T440-200v-160q0-17 11.5-28.5T480-400h100q17 0 28.5 11.5T620-360v160q0 17-11.5 28.5T580-160H480Zm20-60h60v-120h-60v120ZM720-80q-17 0-28.5-11.5T680-120v-70q0-17 11.5-28.5T720-230h80v-30h-90q-13 0-21.5-8.5T680-290q0-13 8.5-21.5T710-320h110q17 0 28.5 11.5T860-280v70q0 17-11.5 28.5T820-170h-80v30h90q13 0 21.5 8.5T860-110q0 13-8.5 21.5T830-80H720Zm-360-2Q237-96 158.5-187.5T80-408q0-65 29-128.5t73-121Q226-715 277.5-766t95.5-90q6-5 12.5-7.5T400-866q8 0 14.5 2.5T427-856q41 36 85 79t83 90.5q39 47.5 69.5 99.5T710-480H440q-33 0-56.5 23.5T360-400v318Z"/>
</svg>
