<svg aria-hidden="true" viewBox="0 -960 960 960" fill="currentColor">
  <path d="M182-191.869q-55.304 0-85.218-39.087-29.913-39.087-22.673-92.957l41.521-299.283q9.505-63.015 56.503-103.975 46.997-40.96 110.106-40.96h395.522q63.109 0 110.106 40.96 46.998 40.96 56.503 103.975l41.521 299.283q7.24 54.109-23.032 93.076-30.272 38.968-84.66 38.968-22.395 0-41.949-8.098t-35.511-24.055l-87.86-87.847H347.348L259.5-224.022q-15.956 15.957-35.511 24.055-19.554 8.098-41.989 8.098Zm13.848-96.283L310.565-402.87h339.109l114.717 114.718q1.761 1.761 14.087 5.282 9.356 0 14.885-5.663 5.528-5.663 4.007-14.989l-44-308q-3.761-27.804-24.979-46.706-21.218-18.902-50.152-18.902h-396q-28.933 0-50.151 18.902-21.218 18.902-24.979 46.706l-44 308q-1.522 9.326 3.782 14.989 5.305 5.663 14.631 5.663 1.521 0 14.326-5.282Zm482.956-153.283q17 0 28.5-11.5t11.5-28.5q0-17-11.5-28.5t-28.5-11.5q-17 0-28.5 11.5t-11.5 28.5q0 17 11.5 28.5t28.5 11.5Zm-77.608-117.369q17 0 28.5-11.5t11.5-28.5q0-17-11.5-28.5t-28.5-11.5q-17 0-28.5 11.5t-11.5 28.5q0 17 11.5 28.5t28.5 11.5ZM241.913-510h34.317q13.727 0 23.868 10.141 10.141 10.142 10.141 23.902 0 13.761 10.141 23.903 10.142 10.141 23.903 10.141h25.956v-34.146q0-13.658 10.141-23.8Q390.522-510 404.283-510q13.76 0 23.902-10.141 10.141-10.142 10.141-23.902V-570H404.18q-13.658 0-23.8-10.141-10.141-10.142-10.141-23.902 0-13.761-10.141-23.903-10.141-10.141-23.902-10.141h-25.957v34.146q0 13.658-10.295 23.8Q289.649-570 275.922-570q-13.726 0-23.868 10.141-10.141 10.142-10.141 23.902V-510Zm238.326 30Z"/>
</svg>
