<svg aria-hidden="true" viewBox="0 -960 960 960" fill="currentColor">
  <path d="M182-200q-51 0-79-35.5T82-322l42-300q9-60 53.5-99T282-760h396q60 0 104.5 39t53.5 99l42 300q7 51-21 86.5T778-200q-21 0-39-7.5T706-230l-90-90H344l-90 90q-15 15-33 22.5t-39 7.5Zm16-86 114-114h336l114 114q2 2 16 6 11 0 17.5-6.5T800-304l-44-308q-4-29-26-48.5T678-680H282q-30 0-52 19.5T204-612l-44 308q-2 11 4.5 17.5T182-280q2 0 16-6Zm510.5-165.5Q720-463 720-480t-11.5-28.5Q697-520 680-520t-28.5 11.5Q640-497 640-480t11.5 28.5Q663-440 680-440t28.5-11.5Zm-80-120Q640-583 640-600t-11.5-28.5Q617-640 600-640t-28.5 11.5Q560-617 560-600t11.5 28.5Q583-560 600-560t28.5-11.5ZM480-480Zm-170-30v40q0 13 8.5 21.5T340-440q13 0 21.5-8.5T370-470v-40h40q13 0 21.5-8.5T440-540q0-13-8.5-21.5T410-570h-40v-40q0-13-8.5-21.5T340-640q-13 0-21.5 8.5T310-610v40h-40q-13 0-21.5 8.5T240-540q0 13 8.5 21.5T270-510h40Z"/>
</svg>
