<svg aria-hidden="true" viewBox="0 -960 960 960" fill="currentColor">
  <path d="M224-288q45-35 70.5-85T320-480q0-57-25.5-107T224-672q-31 42-47.5 91T160-480q0 52 16.5 101t47.5 91Zm362.5 110.5Q638-195 680-230q-57-46-88.5-111.5T560-480q0-73 31.5-138.5T680-730q-42-35-93.5-52.5T480-800q-55 0-106.5 17.5T280-730q57 46 88.5 111.5T400-480q0 73-31.5 138.5T280-230q42 35 93.5 52.5T480-160q55 0 106.5-17.5ZM736-288q31-42 47.5-91T800-480q0-52-16.5-101T736-672q-45 35-70.5 85T640-480q0 57 25.5 107t70.5 85ZM480-480ZM324-111.5Q251-143 197-197t-85.5-127Q80-397 80-480t31.5-156Q143-709 197-763t127-85.5Q397-880 480-880t156 31.5Q709-817 763-763t85.5 127Q880-563 880-480t-31.5 156Q817-251 763-197t-127 85.5Q563-80 480-80t-156-31.5Z"/>
</svg>
