<svg aria-hidden="true" viewBox="0 -960 960 960" fill="currentColor">
  <path d="M316.652-104.695q-17 0-28.5-11.5t-11.5-28.5v-127.174h410.283v127.174q0 17-11.5 28.5t-28.5 11.5H316.652ZM770.522-640v120q0 3-2 8l-30.717 154.87q-3.479 20.152-18.892 32.706-15.413 12.555-35.565 12.555H276.652q-20.152 0-35.565-12.555-15.413-12.554-18.892-32.706L191.478-512q-2-5-2-8v-237.13q0-37.783 26.609-64.392 26.609-26.609 64.391-26.609h311.87q37.782 0 64.391 26.609 26.609 26.609 26.609 64.392v108.282q1.674-15.804 13.413-26.228Q708.5-685.5 725.022-685.5q19.152 0 32.326 13.174T770.522-640Zm-405.978 82.87h143.738q18.435 0 31.25-12.816 12.816-12.815 12.816-31.25v-30.434q0-19.152-13.174-32.326t-32.326-13.174h-140.87q-19.152 0-32.326 13.174t-13.174 32.326v30.434q0 18.435 12.816 31.25 12.815 12.816 31.25 12.816Z"/>
</svg>
