<svg aria-hidden="true" viewBox="0 -960 960 960" fill="currentColor">
  <path d="M227-338v71q0 8-3 15.5t-9 13.5L85-108Q74-97 57-97t-28-11q-11-11-11-28t11-28l118-118-44-118q-7-18-3-41.5t23-42.5l132-132q12-12 26-18t31-6q17 0 31 6t26 18l80 78q27 27 66 42.5t84 15.5v80q-60 0-112-19t-90-57l-28-28-94 94 73 74q5 5 8 12.5t3 15.5v188q0 17-11.5 28.5T319-80q-17 0-28.5-11.5T279-120v-170l-52-48Zm452 38v180q0 17-11.5 28.5T639-80q-17 0-28.5-11.5T599-120v-223q0-8 3-15.5t9-13.5l72-68-24-140q-15 18-33 32t-39 26q-33-2-62.5-14T475-568q45-8 79.5-30.5T611-656l40-64q17-27 47-36.5t59 2.5l178 76q11 5 17.5 14.5T959-642v122q0 17-11.5 28.5T919-480q-17 0-28.5-11.5T879-520v-96l-72-28 102 515q4 19-8.5 34T867-80q-14 0-25.5-8.5T827-111l-64-269-84 80ZM402.5-643.5Q379-667 379-700t23.5-56.5Q426-780 459-780t56.5 23.5Q539-733 539-700t-23.5 56.5Q492-620 459-620t-56.5-23.5Zm200-160Q579-827 579-860t23.5-56.5Q626-940 659-940t56.5 23.5Q739-893 739-860t-23.5 56.5Q692-780 659-780t-56.5-23.5Z"/>
</svg>
