<svg aria-hidden="true" viewBox="0 -960 960 960" fill="currentColor">
  <path d="M354.152-112.869q-47.957 4.282-113.261-3.816-65.304-8.097-98.869-25.815-15.435-32.239-25.055-98.087-9.619-65.848-5.098-114.565l242.283 242.283Zm109.587-16.957L128.826-464.978q17.239-75.24 49.619-136.022 32.381-60.783 76.337-105.739 43.957-43.957 104.74-75.218 60.782-31.261 133.456-48.456L829.413-493.5q-16.956 74.957-47.956 136.359-31 61.402-74.479 104.88-45.239 44.239-107.021 75.859-61.783 31.62-136.218 46.576Zm-114.543-219.37q13.434 13.435 31.945 13.435 18.511 0 30.946-12.435l198.717-198.717q12.674-12.674 12.674-31.946 0-19.271-12.674-31.945-13.434-13.435-31.945-13.435-18.511 0-30.946 12.435L349.196-413.087q-12.674 12.674-12.674 31.946 0 19.271 12.674 31.945ZM846.37-603.087 604.565-847.131q49.196-5.521 116.924 3.316 67.729 8.837 96.489 26.315 18.479 39.043 26.316 101.228 7.837 62.185 2.076 113.185Z"/>
</svg>
