<svg aria-hidden="true" viewBox="0 -960 960 960" fill="currentColor">
  <path d="M281.5-401.5Q200-483 200-600t81.5-198.5Q363-880 480-880t198.5 81.5Q760-717 760-600t-81.5 198.5Q597-320 480-320t-198.5-81.5Zm147-210Q440-623 440-640t-11.5-28.5Q417-680 400-680t-28.5 11.5Q360-657 360-640t11.5 28.5Q383-600 400-600t28.5-11.5Zm160 0Q600-623 600-640t-11.5-28.5Q577-680 560-680t-28.5 11.5Q520-657 520-640t11.5 28.5Q543-600 560-600t28.5-11.5Zm-80-80Q520-703 520-720t-11.5-28.5Q497-760 480-760t-28.5 11.5Q440-737 440-720t11.5 28.5Q463-680 480-680t28.5-11.5ZM440-80v-40q0-33-23.5-56.5T360-200h-40q-17 0-28.5-11.5T280-240q0-17 11.5-28.5T320-280h320q17 0 28.5 11.5T680-240q0 17-11.5 28.5T640-200h-40q-33 0-56.5 23.5T520-120v40h-80Z"/>
</svg>
