<svg aria-hidden="true" viewBox="0 -960 960 960" fill="currentColor">
  <path d="M520-378q-97 0-142 11t-77 43L165-188q-11 11-27.5 11T109-188q-12-12-12-28.5t12-28.5l135-135q31-31 42.5-77.5T298-600q0-58 26-114t74-104q91-91 201-103t181 61q72 72 60 182T738-478q-48 48-104 74t-114 26ZM412-494q47 46 127 34t143-75q64-64 76.5-143.5T724-803q-48-48-125.5-36T456-763q-63 63-76.5 142.5T412-494ZM607-87q-47-47-47-113t47-113q47-47 113-47t113 47q47 47 47 113T833-87q-47 47-113 47T607-87Zm169.5-56.5Q800-167 800-200t-23.5-56.5Q753-280 720-280t-56.5 23.5Q640-233 640-200t23.5 56.5Q687-120 720-120t56.5-23.5ZM720-200Z"/>
</svg>
