<svg aria-hidden="true" viewBox="0 -960 960 960" fill="currentColor">
  <path d="M451.5-491.5Q440-503 440-520t11.5-28.5Q463-560 480-560t28.5 11.5Q520-537 520-520t-11.5 28.5Q497-480 480-480t-28.5-11.5Zm0-160Q440-663 440-680t11.5-28.5Q463-720 480-720t28.5 11.5Q520-697 520-680t-11.5 28.5Q497-640 480-640t-28.5-11.5Zm0-160Q440-823 440-840t11.5-28.5Q463-880 480-880t28.5 11.5Q520-857 520-840t-11.5 28.5Q497-800 480-800t-28.5-11.5Zm120 400Q560-423 560-440t11.5-28.5Q583-480 600-480t28.5 11.5Q640-457 640-440t-11.5 28.5Q617-400 600-400t-28.5-11.5Zm113-114Q673-537 673-554t11.5-28.5Q696-594 713-594t28.5 11.5Q753-571 753-554t-11.5 28.5Q730-514 713-514t-28.5-11.5Zm113-112Q786-649 786-666t11.5-28.5Q809-706 826-706t28.5 11.5Q866-683 866-666t-11.5 28.5Q843-626 826-626t-28.5-11.5Zm-466 226Q320-423 320-440t11.5-28.5Q343-480 360-480t28.5 11.5Q400-457 400-440t-11.5 28.5Q377-400 360-400t-28.5-11.5Zm-113-114Q207-537 207-554t11.5-28.5Q230-594 247-594t28.5 11.5Q287-571 287-554t-11.5 28.5Q264-514 247-514t-28.5-11.5Zm-113-112Q94-649 94-666t11.5-28.5Q117-706 134-706t28.5 11.5Q174-683 174-666t-11.5 28.5Q151-626 134-626t-28.5-11.5ZM440-240H320q-17 0-28.5-11.5T280-280q0-17 11.5-28.5T320-320h320q17 0 28.5 11.5T680-280q0 17-11.5 28.5T640-240H520v120q0 17-11.5 28.5T480-80q-17 0-28.5-11.5T440-120v-120Z"/>
</svg>
