<svg aria-hidden="true" viewBox="0 -960 960 960" fill="currentColor">
  <path d="M340-300h280q17 0 28.5-11.5T660-340v-280q0-17-11.5-28.5T620-660H340q-17 0-28.5 11.5T300-620v280q0 17 11.5 28.5T340-300Zm40-80v-200h200v200H380Zm-56 268.5Q251-143 197-197t-85.5-127Q80-397 80-480t31.5-156Q143-709 197-763t127-85.5Q397-880 480-880t156 31.5Q709-817 763-763t85.5 127Q880-563 880-480t-31.5 156Q817-251 763-197t-127 85.5Q563-80 480-80t-156-31.5ZM480-160q133 0 226.5-93.5T800-480q0-133-93.5-226.5T480-800q-133 0-226.5 93.5T160-480q0 133 93.5 226.5T480-160Zm0-320Z"/>
</svg>
