<svg aria-hidden="true" viewBox="0 -960 960 960" fill="currentColor">
  <path d="M481-493q-7-1-13.5-3.5T456-504L305-655l-122 89q-20 14-41.5 3T120-599q0-10 4-18t12-14l149-109q6-5 13-6.5t14-.5q7 1 13.5 3.5T337-736l151 151 289-209q20-14 41.5-3t21.5 36q0 10-4.5 18T823-729L508-500q-6 5-13 6.5t-14 .5Zm0 360q-7 0-14-3t-12-8L232-360l-49 35q-20 14-41.5 3T120-358q0-10 4.5-18.5T137-390l76-55q6-5 12.5-6.5t13.5-.5q7 1 13.5 3.5T264-441l221 215 156-125q5-5 11.5-7t13.5-2h134q17 0 28.5 11.5T840-320q0 17-11.5 28.5T800-280H680L507-142q-6 5-12.5 7t-13.5 2Z"/>
</svg>
