<svg aria-hidden="true" viewBox="0 -960 960 960" fill="currentColor">
  <path d="M480.522-491.087q-7.957-1-15.294-3.978-7.337-2.978-13.054-8.696L304.522-651.413 183.717-563.37q-22.63 16.153-47.239 3.479-24.609-12.674-24.609-40.783 0-11.196 4.718-20.511 4.717-9.315 13.674-16.033l151.63-110.913q6.957-5.478 14.794-7.217 7.837-1.739 15.793-.739 7.957 1 15.294 3.978 7.337 2.978 13.054 8.696l147.652 147.652 287.805-208.283q22.63-16.152 47.239-3.478 24.609 12.674 24.609 40.783 0 11.195-5.098 20.511-5.098 9.315-14.055 16.032L511.109-499.283q-6.957 5.479-14.794 7.337-7.837 1.859-15.793.859Zm0 367.174q-7.957-.239-15.674-3.598-7.718-3.358-13.674-9.076L231.522-349.239l-48.044 34.283q-22.63 16.152-47.119 3.478-24.49-12.674-24.49-40.783 0-11.195 5.098-20.891 5.098-9.696 14.055-15.652l78.63-56.913q6.957-5.479 14.413-7.337 7.457-1.859 15.413-.859 7.957 1 15.294 3.978 7.337 2.978 13.054 8.696l217.652 211.652 151.935-122.13q5.717-5.479 13.174-7.837 7.456-2.359 15.413-2.359h136.63q19.153 0 32.327 13.174t13.174 32.326q0 19.152-13.174 32.326t-32.327 13.174H681.913L510.587-133.869q-6.717 5.717-14.413 7.956-7.696 2.239-15.652 2Z"/>
</svg>
