<svg aria-hidden="true" viewBox="0 -960 960 960" fill="currentColor">
  <path d="M380-327.087 173.826-120.913Q159.391-106.478 140-106.478t-33.826-14.435q-14.435-14.435-14.435-33.946 0-19.511 14.435-33.945l242-242q13.435-13.435 31.826-13.435t31.826 13.435L539.522-302.87l252.174-284.695q12.434-14.674 32.326-14.794 19.891-.119 33.804 13.555 12.674 12.434 13.294 30.206.619 17.772-11.816 31.446l-287 324q-12.674 14.674-32.445 15.413-19.772.739-33.685-13.174L380-327.087Zm0-249.565L173.826-370.478Q159.391-356.043 140-356.043t-33.826-14.435q-14.435-14.435-14.435-33.946 0-19.511 14.435-33.946l242-242q13.435-13.435 31.826-13.435t31.826 13.435l127.696 127.935 252.174-284.696q12.434-14.674 32.326-14.793 19.891-.12 33.804 13.554 12.674 12.435 13.294 30.207.619 17.772-11.816 31.446l-287 324q-12.674 14.674-32.445 15.413-19.772.739-33.685-13.174L380-576.652Z"/>
</svg>
