<svg aria-hidden="true" viewBox="0 -960 960 960" fill="currentColor">
  <path d="M788.5-372q16.5 0 28.5 12l63 64q12 12 12 28t-12 28q-12 12-28 12t-28-12l-64-63q-12-12-12-28.5t12-28.5q12-12 28.5-12ZM812-811.5q0 16.5-12 28.5l-63 63q-12 12-28.5 12T680-720q-12-12-12-28.5t12-28.5l64-63q12-12 28-12t28 12q12 12 12 28.5ZM188.5-852q16.5 0 28.5 12l63 64q12 12 12 28t-12 28q-12 12-28.5 12T223-720l-63-63q-12-12-12-28.5t12-28.5q12-12 28.5-12ZM212-331.5q0 16.5-12 28.5l-63 63q-12 12-28.5 12T80-240q-12-12-12-28.5T80-297l64-63q12-12 28-12t28 12q12 12 12 28.5ZM354-287l126-76 126 77-33-144 111-96-146-13-58-136-58 135-146 13 111 97-33 143Zm126-194Zm0 212L314-169q-11 7-23 6t-21-8q-9-7-14-17.5t-2-23.5l44-189-147-127q-10-9-12.5-20.5T140-571q4-11 12-18t22-9l194-17 75-178q5-12 15.5-18t21.5-6q11 0 21.5 6t15.5 18l75 178 194 17q14 2 22 9t12 18q4 11 1.5 22.5T809-528L662-401l44 189q3 13-2 23.5T690-171q-9 7-21 8t-23-6L480-269Z"/>
</svg>
