<svg aria-hidden="true" viewBox="0 -960 960 960" fill="currentColor">
  <path d="M115-395q-35-35-35-85t35-85q35-35 85-35t85 35q35 35 35 85t-35 85q-35 35-85 35t-85-35Zm113.5-56.5Q240-463 240-480t-11.5-28.5Q217-520 200-520t-28.5 11.5Q160-497 160-480t11.5 28.5Q183-440 200-440t28.5-11.5ZM395-395q-35-35-35-85t35-85q35-35 85-35t85 35q35 35 35 85t-35 85q-35 35-85 35t-85-35Zm113.5-56.5Q520-463 520-480t-11.5-28.5Q497-520 480-520t-28.5 11.5Q440-497 440-480t11.5 28.5Q463-440 480-440t28.5-11.5ZM675-395q-35-35-35-85t35-85q35-35 85-35t85 35q35 35 35 85t-35 85q-35 35-85 35t-85-35Z"/>
</svg>
