<svg aria-hidden="true" viewBox="0 -960 960 960" fill="currentColor">
  <path d="M786.826-80q-24.554 0-36.831-16.696-12.278-16.695-5.038-41.369 12.565-46.457 18.326-92.794 5.76-46.336 2.717-92.793-40.87 78.891-118.152 124.978Q570.565-152.587 480-152.587q-85.552 0-154.809-40.098-69.256-40.097-118.342-107.087-49.086-66.99-75.674-153.772Q104.587-540.326 104.587-634q0-56.026 6.5-110.578t22.782-107.835q3.479-11.435 14.674-19.511Q159.739-880 172.413-880q24.674 0 37.272 17.076 12.598 17.076 5.358 41.75-12.565 45.457-18.326 91.533-5.76 46.076-2.717 93.293Q235.87-716 312.652-761.707 389.435-807.413 480-807.413q85.435 0 154.837 40.085 69.401 40.084 118.391 106.554 48.99 66.47 75.587 153.364 26.598 86.894 26.598 181.41 0 55.118-6.5 109.744t-22.782 107.908q-3.479 12.196-14.674 20.272Q800.261-80 786.826-80ZM479.968-316.413q67.467 0 115.543-48.044 48.076-48.045 48.076-115.511 0-67.467-48.044-115.543-48.045-48.076-115.511-48.076-67.467 0-115.543 48.044-48.076 48.045-48.076 115.511 0 67.467 48.044 115.543 48.045 48.076 115.511 48.076Zm0-87.174q-31.533 0-53.957-22.456-22.424-22.455-22.424-53.989 0-31.533 22.456-53.957 22.455-22.424 53.989-22.424 31.533 0 53.957 22.456 22.424 22.455 22.424 53.989 0 31.533-22.456 53.957-22.455 22.424-53.989 22.424Z"/>
</svg>
