<svg aria-hidden="true" viewBox="0 -960 960 960" fill="currentColor">
  <path d="M768-80q-15 0-23.5-13t-3.5-29q17-53 23-107t2-109q-39 83-116.5 130.5T480-160q-84 0-152-39.5T212-305q-48-66-74-151.5T112-634q0-52 5.5-102.5T137-837q5-19 20-31t35-12q15 0 23.5 13t3.5 29q-16 53-22.5 107T194-622q39-83 116.5-130.5T480-800q84 0 152 39.5T748-655q48 66 74 151.5T848-326q0 52-5.5 102.5T823-123q-5 19-20 31t-35 12ZM593-367q47-47 47-113t-47-113q-47-47-113-47t-113 47q-47 47-47 113t47 113q47 47 113 47t113-47Zm-169.5-56.5Q400-447 400-480t23.5-56.5Q447-560 480-560t56.5 23.5Q560-513 560-480t-23.5 56.5Q513-400 480-400t-56.5-23.5Z"/>
</svg>
