<svg aria-hidden="true" viewBox="0 -960 960 960" fill="currentColor">
  <path d="M783-80q-23 0-34.5-15.5T744-134q14-51 20-102t2-102q-38 82-116 130t-170 48q-84 0-152-39.5T212-305q-48-66-74-151.5T112-634q0-57 6.5-112.5T142-856q3-10 13-17t21-7q23 0 35 16t5 39q-14 50-20 100.5T194-622q39-83 116.5-130.5T480-800q84 0 152 39.5t116 105q48 65.5 74 151T848-326q0 56-6.5 111.5T818-105q-3 11-13 18t-22 7ZM480-320q66 0 113-47t47-113q0-66-47-113t-113-47q-66 0-113 47t-47 113q0 66 47 113t113 47Zm0-80q-33 0-56.5-23.5T400-480q0-33 23.5-56.5T480-560q33 0 56.5 23.5T560-480q0 33-23.5 56.5T480-400Z"/>
</svg>
