<svg aria-hidden="true" viewBox="0 -960 960 960" fill="currentColor">
  <path d="M103.5-423.5Q80-447 80-480t23.5-56.5Q127-560 160-560t56.5 23.5Q240-513 240-480t-23.5 56.5Q193-400 160-400t-56.5-23.5ZM198-256l118-118q11-11 28-11t28 11q11 11 11 28t-11 28L254-200q-11 11-28 11t-28-11q-11-11-11-28t11-28Zm120-332L200-706q-11-11-11-28t11-28q11-11 28-11t28 11l118 118q11 11 11 28t-11 28q-11 11-28 11t-28-11Zm105.5 484.5Q400-127 400-160t23.5-56.5Q447-240 480-240t56.5 23.5Q560-193 560-160t-23.5 56.5Q513-80 480-80t-56.5-23.5Zm0-640Q400-767 400-800t23.5-56.5Q447-880 480-880t56.5 23.5Q560-833 560-800t-23.5 56.5Q513-720 480-720t-56.5-23.5ZM586-644l120-118q11-11 27.5-11.5T762-762q11 11 11 28t-11 28L643-587q-12 12-28.5 12T586-587q-11-12-11.5-28.5T586-644Zm120 444L588-318q-11-11-11-28t11-28q11-11 28-11t28 11l118 118q11 11 11 28t-11 28q-11 11-28 11t-28-11Zm37.5-223.5Q720-447 720-480t23.5-56.5Q767-560 800-560t56.5 23.5Q880-513 880-480t-23.5 56.5Q833-400 800-400t-56.5-23.5Z"/>
</svg>
