<svg aria-hidden="true" viewBox="0 -960 960 960" fill="currentColor">
  <path d="M480-320q59 0 127.5-20.5T797-414q2-11 2.5-21.5t.5-21.5q0-11-8.5-18t-19.5-4q-14 5-31 10.5T698-452q-69 29-118 40.5T480-400q-52 0-102-12t-122-41q-26-11-40-16l-28-10q-11-4-19.5 3.5T160-457q0 11 .5 21.5T163-414q101 48 179.5 71T480-320Zm0 160q94 0 167-41t114-110q-88 37-155 54t-126 17q-58 0-129-17.5T198-310q40 69 113.5 109.5T480-160ZM367-607q-47-47-47-113t47-113q47-47 113-47t113 47q47 47 47 113t-47 113q-47 47-113 47t-113-47Zm169.5-56.5Q560-687 560-720t-23.5-56.5Q513-800 480-800t-56.5 23.5Q400-753 400-720t23.5 56.5Q447-640 480-640t56.5-23.5ZM480-80q-177 0-288.5-105T80-457q0-52 41.5-83t90.5-15q16 5 33.5 11.5T287-527q64 26 106 36.5t87 10.5q43 0 85-10t103-36q29-11 46.5-18t34.5-12q49-14 90 17t41 82q0 79-31 147.5T764-190q-54 51-127 80.5T480-80Z"/>
</svg>
