<svg aria-hidden="true" viewBox="0 -960 960 960" fill="currentColor">
  <path d="M262.391-834.174q33.575-13.674 68.233-20.511 34.659-6.837 71.289-6.837 47.772 0 93.951 12.076 46.18 12.076 89.528 36.228l-199.24 233.631-139.761-139.522q-12.478-12.478-18.598-26.925-6.119-14.446-6.119-28.892 0-18.574 10.239-34.672 10.239-16.098 30.478-24.576ZM652.913-67.087q-33 0-56.5-23.5t-23.5-56.5q0-33 23.5-56.5t56.5-23.5q33 0 56.5 23.5t23.5 56.5q0 33-23.5 56.5t-56.5 23.5Zm-412.913 0q-33 0-56.5-23.5t-23.5-56.5q0-33 23.5-56.5t56.5-23.5q33 0 56.5 23.5t23.5 56.5q0 33-23.5 56.5t-56.5 23.5Zm51.022-200q-29.827 0-41.642-26.348-11.815-26.347 7.337-48.739l396.305-465.652q20.717-23.718 46.267-36.316 25.549-12.598 55.791-12.598 58.399 0 98.953 40.601t40.554 98.9q0 19.152-13.174 32.326t-32.326 13.174q-19.152 0-32.326-13.174t-13.174-32.326q0-20.658-13.966-34.579t-34.512-13.921q-9.587 0-17.071 3.521-7.483 3.522-13.646 10.566l-31.479 35.717v357.848q0 37.538-26.731 64.269-26.731 26.731-64.269 26.731H291.022Z"/>
</svg>
