<svg aria-hidden="true" viewBox="0 -960 960 960" fill="currentColor">
  <path d="M278.087-74.5v-238.087h-65.674q-43.089 0-73.251-30.162Q109-372.911 109-416q0-31.63 17.649-58.051 17.649-26.421 46.329-39.362L433.782-627.5v-23.13q-36-12.522-57.641-43.261Q354.5-724.63 354.5-762.63q0-52.292 36.604-88.896 36.604-36.605 88.896-36.605t88.896 36.605Q605.5-814.922 605.5-762.63h-87.413q0-16.283-10.95-27.185-10.95-10.902-27.137-10.902t-27.137 10.95q-10.95 10.95-10.95 27.137 0 16.288 10.95 27.307 10.95 11.019 27.137 11.019 18.524 0 31.056 12.531 12.531 12.531 12.531 31.056v52.021l263.435 115.283q28.68 12.941 46.329 39.362T851-416q0 43.089-30.162 73.251-30.162 30.162-73.251 30.162h-65.674V-74.5H278.087ZM365.5-350.913h229-229ZM212.413-400h65.674v-38.087h403.826V-400h65.674q7 0 11.5-4.896t4.5-12.73q0-4.896-2.5-8.582-2.5-3.686-7.5-5.792L480.033-552 206.479-432q-5.066 2-7.566 5.739t-2.5 8.635q0 7.834 4.5 12.73 4.5 4.896 11.5 4.896ZM365.5-161.913h229v-189h-229v189Z"/>
</svg>
