<svg aria-hidden="true" viewBox="0 -960 960 960" fill="currentColor">
  <path d="M308.5-491.5Q320-503 320-520t-11.5-28.5Q297-560 280-560t-28.5 11.5Q240-537 240-520t11.5 28.5Q263-480 280-480t28.5-11.5ZM880-720v429q0 27-24.5 37.5T812-262L594-480h86q17 0 28.5-11.5T720-520q0-17-11.5-28.5T680-560H514L342-732q-19-19-8.5-43.5T371-800h429q33 0 56.5 23.5T880-720ZM160-160q-33 0-56.5-23.5T80-240v-480q0-33 23.5-56.5T160-800l320 320H368L54-794q-11-11-11-28t11-28q11-11 28-11t28 11l740 740q11 11 11.5 27.5T850-54q-11 11-28 11t-28-11L686-160H160Zm286-240H280q-17 0-28.5 11.5T240-360q0 17 11.5 28.5T280-320h246l-80-80Z"/>
</svg>
