<svg aria-hidden="true" viewBox="0 -960 960 960" fill="currentColor">
  <path d="M160-160q-33 0-56.5-23.5T80-240v-480q0-33 23.5-56.5T160-800l80 80h-80v480h446l-80-80H280q-17 0-28.5-11.5T240-360q0-17 11.5-28.5T280-400h166L54-794q-11-11-11.5-27.5T54-850q11-11 28-11t28 11l740 740q11 11 11.5 27.5T850-54q-11 11-28 11t-28-11L686-160H160Zm710-44-70-70v-446H354l-80-80h526q33 0 56.5 23.5T880-720v476q0 11-2 21t-8 19ZM594-480l-80-80h166q17 0 28.5 11.5T720-520q0 17-11.5 28.5T680-480h-86Zm-17-17Zm-194 34Zm-103-17q-17 0-28.5-11.5T240-520q0-17 11.5-28.5T280-560q17 0 28.5 11.5T320-520q0 17-11.5 28.5T280-480Z"/>
</svg>
