<svg aria-hidden="true" viewBox="0 -960 960 960" fill="currentColor">
  <path d="M280-480q17 0 28.5-11.5T320-520q0-17-11.5-28.5T280-560q-17 0-28.5 11.5T240-520q0 17 11.5 28.5T280-480Zm-6-320h526q33 0 56.5 23.5T880-720v476q0 11-2 21t-8 19L594-480h86q17 0 28.5-11.5T720-520q0-17-11.5-28.5T680-560H514L274-800ZM160-160q-33 0-56.5-23.5T80-240v-480q0-33 23.5-56.5T160-800l320 320H368L54-794q-11-11-11-28t11-28q11-11 28-11t28 11l740 740q11 11 11.5 27.5T850-54q-11 11-28 11t-28-11L686-160H160Zm286-240H280q-17 0-28.5 11.5T240-360q0 17 11.5 28.5T280-320h246l-80-80Z"/>
</svg>
