<svg aria-hidden="true" viewBox="0 -960 960 960" fill="currentColor">
  <path d="M262.5-337.5Q280-355 280-380t-17.5-42.5Q245-440 220-440t-42.5 17.5Q160-405 160-380t17.5 42.5Q195-320 220-320t42.5-17.5ZM180-200q-58 0-99-41t-41-99v-380q0-83 77-121.5T360-880q40 0 77 1.5t70 6.5q18 2 28.5 16.5T546-823q0 16-12.5 25.5T505-791q-29-5-64.5-7t-80.5-2q-86 0-142.5 10T137-760h175q32 0 39 32t-23 45q-4 2-8 2.5t-8 .5H120v120h160q17 0 28.5 11.5T320-520q0 17-11.5 28.5T280-480H120v140q0 25 17.5 42.5T180-280h221l-34 160H126q-15 0-19-14.5t8-22.5l65-43Zm416-200-65 288q-3 14-14 23t-26 9q-20 0-32-15t-8-35l101-474-72 28v56q0 17-11.5 28.5T440-480q-17 0-28.5-11.5T400-520v-82q0-12 6.5-21.5T424-638l178-76q29-12 59-2.5t47 36.5l40 64q20 34 39 58.5t54 33.5q17 4 28 15.5t11 28.5q0 17-11.5 28t-27.5 9q-48-8-79-35t-62-62l-24 80 59 56q12 11 18.5 26t6.5 32v226q0 17-11.5 28.5T720-80q-17 0-28.5-11.5T680-120v-200l-84-80Zm104-340q-33 0-56.5-23.5T620-820q0-33 23.5-56.5T700-900q33 0 56.5 23.5T780-820q0 33-23.5 56.5T700-740Z"/>
</svg>
