<svg aria-hidden="true" viewBox="0 -960 960 960" fill="currentColor">
  <path d="M80-160v-446q0-85 44-147.5T248-848q54-21 115-26.5t117-5.5q56 0 117 5.5T712-848q80 32 124 94.5T880-606v446q0 33-23.5 56.5T800-80H160q-33 0-56.5-23.5T80-160Zm220-280v-160h360v160H300Zm291.5 128.5Q580-323 580-340t11.5-28.5Q603-380 620-380t28.5 11.5Q660-357 660-340t-11.5 28.5Q637-300 620-300t-28.5-11.5Zm-280 0Q300-323 300-340t11.5-28.5Q323-380 340-380t28.5 11.5Q380-357 380-340t-11.5 28.5Q357-300 340-300t-28.5-11.5ZM424-220h110l51 51q5 5 10.5 7t11.5 2q20 0 27.5-19t-6.5-33l-10-10q44-6 73-39.5t29-78.5v-260q0-78-70-99t-170-21q-91 0-165.5 21T240-600v260q0 45 29 78.5t73 39.5l-11 11q-14 14-6.5 32.5T352-160q6 0 11-2t10-7l51-51Z"/>
</svg>
