<svg aria-hidden="true" viewBox="0 -960 960 960" fill="currentColor">
  <path d="M360-80H240q-17 0-28.5-11.5T200-120q0-17 11.5-28.5T240-160h120q17 0 28.5 11.5T400-120q0 17-11.5 28.5T360-80Zm360 0H600q-17 0-28.5-11.5T560-120q0-17 11.5-28.5T600-160h120q17 0 28.5 11.5T760-120q0 17-11.5 28.5T720-80ZM216-200q-38 0-62-28.5T137-294l91-520q5-29 27.5-47.5T307-880h346q29 0 51.5 18.5T732-814l92 520q7 37-17 65.5T745-200H216Zm-1-80h529l-92-520H307l-92 520Zm265-40q66 0 113-47t47-113q0-66-47-113t-113-47q-66 0-113 47t-47 113q0 66 47 113t113 47Zm0-80q-33 0-56.5-23.5T400-480q0-33 23.5-56.5T480-560q33 0 56.5 23.5T560-480q0 33-23.5 56.5T480-400Zm0-280q17 0 28.5-11.5T520-720q0-17-11.5-28.5T480-760q-17 0-28.5 11.5T440-720q0 17 11.5 28.5T480-680Zm0 200Z"/>
</svg>
