<svg aria-hidden="true" viewBox="0 -960 960 960" fill="currentColor">
  <path d="M160-410H80q-17 0-28.5-11.5T40-450q0-17 11.5-28.5T80-490h80q17 0 28.5 11.5T200-450q0 17-11.5 28.5T160-410Zm122-238q-11 11-28 11t-28-11l-57-57q-12-12-12-28t12-28q12-11 28-11.5t28 11.5l57 57q11 11 11.5 27.5T282-648Zm-77.5 433.5Q190-229 190-250t14.5-35.5Q219-300 240-300t35.5 14.5Q290-271 290-250t-14.5 35.5Q261-200 240-200t-35.5-14.5ZM395-535q-35 35-35 85 0 17-11.5 28.5T320-410q-17 0-28.5-11.5T280-450q0-83 58.5-141.5T480-650q83 0 141.5 58.5T680-450q0 17-11.5 28.5T640-410q-17 0-28.5-11.5T600-450q0-50-35-85t-85-35q-50 0-85 35ZM324.5-54.5Q310-69 310-90t14.5-35.5Q339-140 360-140t35.5 14.5Q410-111 410-90t-14.5 35.5Q381-40 360-40t-35.5-14.5Zm120-160Q430-229 430-250t14.5-35.5Q459-300 480-300t35.5 14.5Q530-271 530-250t-14.5 35.5Q501-200 480-200t-35.5-14.5Zm7-527Q440-753 440-770v-80q0-17 11.5-28.5T480-890q17 0 28.5 11.5T520-850v80q0 17-11.5 28.5T480-730q-17 0-28.5-11.5Zm113 687Q550-69 550-90t14.5-35.5Q579-140 600-140t35.5 14.5Q650-111 650-90t-14.5 35.5Q621-40 600-40t-35.5-14.5ZM678-648q-12-12-12-28t12-28l57-57q11-11 27.5-11.5T791-761q11 11 11 28t-11 28l-57 57q-11 11-27.5 11T678-648Zm6.5 433.5Q670-229 670-250t14.5-35.5Q699-300 720-300t35.5 14.5Q770-271 770-250t-14.5 35.5Q741-200 720-200t-35.5-14.5ZM800-410q-17 0-28.5-11.5T760-450q0-17 11.5-28.5T800-490h80q17 0 28.5 11.5T920-450q0 17-11.5 28.5T880-410h-80Zm-320 0Z"/>
</svg>
