<svg aria-hidden="true" viewBox="0 -960 960 960" fill="currentColor">
  <path d="M412-168q45-91 120-121.5T660-320q23 0 45 4t43 10q24-38 38-82t14-92q0-134-93-227t-227-93q-134 0-227 93t-93 227q0 45 11.5 86t34.5 76q41-20 85-31t89-11q32 0 61.5 5.5T500-340q-23 12-43.5 28T418-278q-12-2-20.5-2H380q-32 0-63.5 7T256-252q32 32 71.5 53.5T412-168Zm-88 56.5Q251-143 197-197t-85.5-127Q80-397 80-480t31.5-156Q143-709 197-763t127-85.5Q397-880 480-880t156 31.5Q709-817 763-763t85.5 127Q880-563 880-480t-31.5 156Q817-251 763-197t-127 85.5Q563-80 480-80t-156-31.5ZM281-461q-41-41-41-99t41-99q41-41 99-41t99 41q41 41 41 99t-41 99q-41 41-99 41t-99-41Zm141.5-56.5Q440-535 440-560t-17.5-42.5Q405-620 380-620t-42.5 17.5Q320-585 320-560t17.5 42.5Q355-500 380-500t42.5-17.5ZM589-409q-29-29-29-71t29-71q29-29 71-29t71 29q29 29 29 71t-29 71q-29 29-71 29t-71-29Zm-109-71Z"/>
</svg>
