<svg aria-hidden="true" viewBox="0 -960 960 960" fill="currentColor">
  <path d="M324-111.5Q251-143 197-197t-85.5-127Q80-397 80-480t31.5-156Q143-709 197-763t127-85.5Q397-880 480-880t156 31.5Q709-817 763-763t85.5 127Q880-563 880-480t-31.5 156Q817-251 763-197t-127 85.5Q563-80 480-80t-156-31.5ZM479-461q41-41 41-99t-41-99q-41-41-99-41t-99 41q-41 41-41 99t41 99q41 41 99 41t99-41Zm252 52q29-29 29-71t-29-71q-29-29-71-29t-71 29q-29 29-29 71t29 71q29 29 71 29t71-29ZM480-160q85 0 155-40t113-106q-21-6-43-10t-45-4q-53 0-128 31T412-167q17 4 34 5.5t34 1.5Zm-127-26q35-72 79.5-107t67.5-47q-29-9-58.5-14.5T380-360q-45 0-89 11t-85 31q26 43 63.5 77.5T353-186Z"/>
</svg>
