<svg aria-hidden="true" viewBox="0 -960 960 960" fill="currentColor">
  <path d="M324-111.5Q251-143 197-197t-85.5-127Q80-397 80-480t31.5-156Q143-709 197-763t127-85.5Q397-880 480-880t156 31.5Q709-817 763-763t85.5 127Q880-563 880-480t-31.5 156Q817-251 763-197t-127 85.5Q563-80 480-80t-156-31.5Zm40-70.5 48-110q-42-15-72.5-46.5T292-412l-110 46q23 64 71 112t111 72Zm-72-366q17-42 47.5-73.5T412-668l-46-110q-64 24-112 72t-72 112l110 46Zm273 153q35-35 35-85t-35-85q-35-35-85-35t-85 35q-35 35-35 85t35 85q35 35 85 35t85-35Zm31 213q63-24 110.5-71.5T778-364l-110-48q-15 42-46 72.5T550-292l46 110Zm72-368 110-46q-24-63-71.5-110.5T596-778l-46 112q41 15 71 45.5t47 70.5Z"/>
</svg>
