<svg aria-hidden="true" viewBox="0 -960 960 960" fill="currentColor">
  <path d="M685.5-745.739q-34.435 0-59.011-24.576t-24.576-59.011q0-34.435 24.576-59.011t59.011-24.576q34.435 0 59.011 24.576t24.576 59.011q0 34.435-24.576 59.011T685.5-745.739ZM360-200.239q-10.239 0-20.098-1.5-9.859-1.5-19.337-4.739-86.956-59.479-145.554-120.435-58.598-60.957-58.598-105.913 0-33.152 25.196-43.87 25.195-10.717 52.391-10.717 28.283 0 65.087 8.022 36.804 8.021 78.369 23.065l-20.282-116.109q-4.239-21.435 4.38-42.369 8.62-20.935 28.533-34.131l78.348-52.978L358.717-715l-78.565 54.043q-15.195 9.957-32.75 6.718-17.554-3.239-27.511-18.674-9.956-14.435-7.478-31.37 2.478-16.935 18.674-28.652l77.369-53.326q15.674-9.435 32.827-13.794 17.152-4.358 35.304-.88l185.891 34.522q14.718 2.239 28.435 11.478 13.717 9.239 23.196 26.196l35 62q21.282 36.804 57.043 62.206 35.761 25.402 80.522 33.642 15.956 3.239 26.435 14.576 10.478 11.337 10.478 26.054 0 22.152-14.935 35.967-14.935 13.816-34.087 10.337-64-11.239-115.38-47.141-51.381-35.902-83.381-88.706l-82.586 56.217 115.304 90.5q16.152 12.674 25.608 31.446 9.457 18.771 9.457 40.163v109.739q16.239 11.478 31.837 23.717 15.598 12.239 30.315 23.957-22.435 20.63-49.228 32.228-26.794 11.598-56.511 11.598-26.761 0-50.283-9.402-23.521-9.402-43.521-24.685-11.718-9-26.196-9-14.478 0-26.196 9-20 15.283-43.521 24.685-23.522 9.402-50.283 9.402Zm196.413-150.044v-51.63L417.022-510.978l16.326 94.521q26.761 12.761 63.532 32.587 36.772 19.826 59.533 33.587ZM120-32.587q-18.435 0-31.01-12.695-12.577-12.696-12.577-31.131 0-18.435 12.576-31.011T120-120q25.043 0 49.706-6.5 24.664-6.5 47.664-20.022Q227.326-152 240-152t22.63 5.478q23 13.522 47.664 20.022Q334.957-120 360-120q25.043 0 49.946-6.5 24.902-6.5 47.663-20.022Q467.565-152 480.5-152q12.935 0 22.13 5.478 23 13.522 47.664 19.902 24.663 6.381 49.706 6.381 25.043 0 49.826-6.381 24.783-6.38 47.544-19.902Q706.565-152 719.88-152q13.316 0 22.511 5.478Q765.152-133 790.054-126.5 814.957-120 840-120q18.435 0 31.011 12.576t12.576 31.011q0 18.435-12.576 31.13Q858.435-32.587 840-32.587q-30.761 0-60.88-7.5-30.12-7.5-59.12-22.26-29 14.76-59.12 22.26-30.119 7.5-60.88 7.5-30.761 0-60.88-7.5-30.12-7.5-59.12-22.26-29 14.76-59.12 22.26-30.119 7.5-60.88 7.5-30.761 0-60.88-7.5-30.12-7.5-59.12-22.26-29 14.76-59.12 22.26-30.119 7.5-60.88 7.5Z"/>
</svg>
