<svg aria-hidden="true" viewBox="0 -960 960 960" fill="currentColor">
  <path d="M680-740q-33 0-56.5-23.5T600-820q0-33 23.5-56.5T680-900q33 0 56.5 23.5T760-820q0 33-23.5 56.5T680-740ZM360-200q-10 0-19.5-1.5T322-206q-86-59-144-119t-58-104q0-31 24-41t50-10q29 0 67 8.5t81 24.5l-21-124q-4-20 4.5-39.5T352-642l86-58-80-15-80 55q-14 9-30 6t-25-17q-9-13-7-28.5t17-26.5l80-55q14-8 29-12t31-1l189 35q14 2 27 11t22 25l35 62q22 38 58 64t81 34q15 3 25 13.5t10 24.5q0 20-13.5 32.5T776-483q-64-11-115.5-47.5T577-621l-90 61 122 96q14 11 22.5 27.5T640-401v115q16 11 31 23t29 23q-21 18-46 29t-54 11q-27 0-51-10t-44-26q-11-9-25-9t-25 9q-20 16-44 26t-51 10Zm200-140v-60L412-516l18 106q27 13 67 34.5t63 35.5ZM120-40q-17 0-28.5-11.5T80-80q0-17 11.5-28.5T120-120q26 0 51.5-6.5T220-147q9-5 20-5t20 5q23 14 48.5 20.5T360-120q26 0 51.5-6.5T460-147q9-5 20.5-5t19.5 5q23 14 48.5 20.5T600-120q26 0 51.5-6.5T700-147q8-5 20-5t20 5q23 14 48.5 20.5T840-120q17 0 28.5 11.5T880-80q0 17-11.5 28.5T840-40q-31 0-61-7.5T720-70q-29 15-59 22.5T600-40q-31 0-61-7.5T480-70q-29 15-59 22.5T360-40q-31 0-61-7.5T240-70q-29 15-59 22.5T120-40Z"/>
</svg>
