<svg aria-hidden="true" viewBox="0 -960 960 960" fill="currentColor">
  <path d="M325-111.5q-73-31.5-127.5-86t-86-127.5Q80-398 80-480.5t31.5-155q31.5-72.5 86-127t127.5-86Q398-880 480.5-880t155 31.5q72.5 31.5 127 86t86 127Q880-563 880-480.5T848.5-325q-31.5 73-86 127.5t-127 86Q563-80 480.5-80T325-111.5Zm272-191Q654-285 704-252q46-46 71-104.5T800-480q0-134-93-227t-227-93q-134 0-227 93t-93 227q0 65 24.5 124T256-252q50-33 107-50.5T480-320q60 0 117 17.5ZM400-230q-39 10-74 30 35 20 74 30t80 10q41 0 80-10t74-30q-35-20-74-30t-80-10q-41 0-80 10ZM280-520q17 0 28.5-11.5T320-560q0-17-11.5-28.5T280-600q-17 0-28.5 11.5T240-560q0 17 11.5 28.5T280-520Zm148.5-131.5Q440-663 440-680t-11.5-28.5Q417-720 400-720t-28.5 11.5Q360-697 360-680t11.5 28.5Q383-640 400-640t28.5-11.5ZM680-520q17 0 28.5-11.5T720-560q0-17-11.5-28.5T680-600q-17 0-28.5 11.5T640-560q0 17 11.5 28.5T680-520Zm-143.5 96.5Q560-447 560-480q0-13-4-25.5T544-528l54-136q7-16 .5-31.5T576-718q-15-7-30.5-.5T524-696l-54 136q-30 5-50 27.5T400-480q0 33 23.5 56.5T480-400q33 0 56.5-23.5ZM480-320Zm0-206Zm0 286Z"/>
</svg>
