<svg aria-hidden="true" viewBox="0 -960 960 960" fill="currentColor">
  <path d="M325-111.5q-73-31.5-127.5-86t-86-127.5Q80-398 80-480.5t31.5-155q31.5-72.5 86-127t127.5-86Q398-880 480.5-880t155 31.5q72.5 31.5 127 86t86 127Q880-563 880-480.5T848.5-325q-31.5 73-86 127.5t-127 86Q563-80 480.5-80T325-111.5Zm-16.5-420Q320-543 320-560t-11.5-28.5Q297-600 280-600t-28.5 11.5Q240-577 240-560t11.5 28.5Q263-520 280-520t28.5-11.5Zm120-120Q440-663 440-680t-11.5-28.5Q417-720 400-720t-28.5 11.5Q360-697 360-680t11.5 28.5Q383-640 400-640t28.5-11.5Zm280 120Q720-543 720-560t-11.5-28.5Q697-600 680-600t-28.5 11.5Q640-577 640-560t11.5 28.5Q663-520 680-520t28.5-11.5Zm-172 108Q560-447 560-480q0-13-4-25.5T544-528l54-136q7-16 .5-31.5T576-718q-15-7-30.5-.5T524-696l-54 136q-30 5-50 27.5T400-480q0 33 23.5 56.5T480-400q33 0 56.5-23.5ZM326-200q35-20 74-30t80-10q41 0 80 10t74 30l70-52q-50-33-107-50.5T480-320q-60 0-117 17.5T256-252l70 52Z"/>
</svg>
