<svg aria-hidden="true" viewBox="0 -960 960 960" fill="currentColor">
  <path d="M440-240q-17 0-28.5-11.5T400-280q0-17 11.5-28.5T440-320h160q17 0 28.5 11.5T640-280q0 17-11.5 28.5T600-240H440ZM242-354l338.86-339q12.03-12 28.07-12t28.05 12Q649-681 649-664.5T637-636L270.13-268q-12.03 12-28.06 12-16.04 0-28.07-12L42-439.75q-12-12.05-11.5-28.63.5-16.57 12.5-28.59Q55-509 71.5-509t28.5 12l142 143Zm358-46q-17 0-28.5-11.5T560-440q0-17 11.5-28.5T600-480h160q17 0 28.5 11.5T800-440q0 17-11.5 28.5T760-400H600Zm160-160q-17 0-28.5-11.5T720-600q0-17 11.5-28.5T760-640h160q17 0 28.5 11.5T960-600q0 17-11.5 28.5T920-560H760Z"/>
</svg>
