<svg aria-hidden="true" viewBox="0 -960 960 960" fill="currentColor">
  <path d="M327.087-357.196v-245.608L204.522-480l122.565 122.804Zm-2.5 102.827L130.543-448.174q-6.956-6.956-9.815-14.913-2.859-7.956-2.859-16.913t2.859-16.913q2.859-7.957 9.815-14.913L324.587-705.87q21.63-21.63 49.478-9.696 27.848 11.935 27.848 42.522v386.088q0 30.587-27.848 42.402-27.848 11.815-49.478-9.815Zm310.826 0q-21.63 21.63-49.478 9.815-27.848-11.815-27.848-42.402v-386.088q0-30.587 27.848-42.402 27.848-11.815 49.478 9.815l194.044 193.805q6.956 6.956 9.935 14.913 2.978 7.956 2.978 16.913t-2.978 16.913q-2.979 7.957-9.935 14.913L635.413-254.369Z"/>
</svg>
