<svg aria-hidden="true" viewBox="0 -960 960 960" fill="currentColor">
  <path d="M720-880q33 0 56.5 23.5T800-800v640q0 33-23.5 56.5T720-80H240q-33 0-56.5-23.5T160-160v-640q0-33 23.5-56.5T240-880h480ZM600-680H360q-17 0-28.5 11.5T320-640v320q0 17 11.5 28.5T360-280h240q17 0 28.5-11.5T640-320v-320q0-17-11.5-28.5T600-680Zm-40 80v160H400v-160h160Zm-80 390q-13 0-21.5 8.5T450-180q0 13 8.5 21.5T480-150q13 0 21.5-8.5T510-180q0-13-8.5-21.5T480-210Zm0-600q-13 0-21.5 8.5T450-780q0 13 8.5 21.5T480-750q13 0 21.5-8.5T510-780q0-13-8.5-21.5T480-810Z"/>
</svg>
