<svg aria-hidden="true" viewBox="0 -960 960 960" fill="currentColor">
  <path d="M275.87-367q11 11 27 11t28-12q11-11 11-28t-11-28l-16-16h170.26l-17 17q-11 11-11 27t12 28q11 11 28 11t28-11l80.174-80.174q6.718-6.717 9.696-14.793 2.978-8.076 2.978-17.033T615-497.033q-2.978-8.076-9.696-14.793L524.13-593q-11-11-27-11t-28 12q-11 11-11 28t11 28l16 16H314.87l17-17q11-11 11-27t-12-28q-11-11-28-11t-28 11l-80.174 80.174q-6.718 6.717-9.696 14.793-2.978 8.076-2.978 17.033T185-462.967q2.978 8.076 9.696 14.793L275.87-367Zm-113 215.131q-37.783 0-64.392-26.609Q71.87-205.087 71.87-242.87v-474.26q0-37.783 26.61-64.392 26.608-26.609 64.391-26.609h474.26q37.783 0 64.392 26.609 26.609 26.609 26.609 64.392V-540L849.11-660.978q10.435-10.435 24.728-5.098 14.294 5.337 14.294 21.25v329.652q0 15.913-14.294 21.25-14.293 5.337-24.728-5.098L728.131-420v177.13q0 37.783-26.609 64.392-26.609 26.609-64.392 26.609H162.87Zm0-91.001h474.26v-474.26H162.87v474.26Zm0 0v-474.26 474.26Z"/>
</svg>
