<svg aria-hidden="true" viewBox="0 -960 960 960" fill="currentColor">
  <path d="M645-555q35-35 35-85t-35-85q-35-35-85-35t-85 35q-35 35-35 85t35 85q35 35 85 35t85-35ZM320-330q45-53 108-81.5T560-440q69 0 132 28.5T800-330v-470H320v470Zm0 90q-33 0-56.5-23.5T240-320v-480q0-33 23.5-56.5T320-880h480q33 0 56.5 23.5T880-800v480q0 33-23.5 56.5T800-240H320ZM160-80q-33 0-56.5-23.5T80-160v-520q0-17 11.5-28.5T120-720q17 0 28.5 11.5T160-680v520h520q17 0 28.5 11.5T720-120q0 17-11.5 28.5T680-80H160Zm371.5-531.5Q520-623 520-640t11.5-28.5Q543-680 560-680t28.5 11.5Q600-657 600-640t-11.5 28.5Q577-600 560-600t-28.5-11.5ZM428-320h264q-29-20-63-30t-69-10q-35 0-69 10t-63 30Zm132-245Z"/>
</svg>
