<svg aria-hidden="true" viewBox="0 -960 960 960" fill="currentColor">
  <path d="M273-367q11 11 27 11t28-12q11-11 11-28t-11-28l-16-16h176l-17 17q-11 11-11 27t12 28q11 11 28 11t28-11l84-84q6-6 8.5-13t2.5-15q0-8-2.5-15t-8.5-13l-85-85q-11-11-27-11t-28 12q-11 11-11 28t11 28l16 16H312l17-17q11-11 11-27t-12-28q-11-11-28-11t-28 11l-84 84q-6 6-8.5 13t-2.5 15q0 8 2.5 15t8.5 13l85 85ZM160-160q-33 0-56.5-23.5T80-240v-480q0-33 23.5-56.5T160-800h480q33 0 56.5 23.5T720-720v180l126-126q9-9 21.5-4.5T880-652v344q0 14-12.5 18.5T846-294L720-420v180q0 33-23.5 56.5T640-160H160Z"/>
</svg>
