<svg aria-hidden="true" viewBox="0 -960 960 960" fill="currentColor">
  <path d="M104.695-271.63v-91h91.001v91h-91.001Zm0-325.74v-91h91.001v91h-91.001ZM271.63-104.695v-91.001h91v91.001h-91Zm0-659.609v-91.001h91v91.001h-91Zm325.74 659.609v-91.001h91v91.001h-91Zm0-659.609v-91.001h91v91.001h-91ZM764.304-271.63v-91h91.001v91h-91.001Zm0-325.74v-91h91.001v91h-91.001ZM362.63-271.391q-37.782 0-64.391-26.609-26.609-26.609-26.609-64.391V-597.13q0-37.783 26.609-64.392 26.609-26.609 64.391-26.609h234.74q37.782 0 64.391 26.609 26.609 26.609 26.609 64.392v234.739q0 37.782-26.609 64.391-26.609 26.609-64.391 26.609H362.63Zm0-91h234.74V-597.13H362.63v234.739ZM480-479.761Z"/>
</svg>
