<svg aria-hidden="true" viewBox="0 -960 960 960" fill="currentColor">
  <path d="M240-80q-33 0-56.5-23.5T160-160v-640q0-33 23.5-56.5T240-880h480q33 0 56.5 23.5T800-800v640q0 33-23.5 56.5T720-80H240Zm120-200h240q17 0 28.5-11.5T640-320v-320q0-17-11.5-28.5T600-680H360q-17 0-28.5 11.5T320-640v320q0 17 11.5 28.5T360-280Zm40-80v-160h160v160H400Zm80-390q13 0 21.5-8.5T510-780q0-13-8.5-21.5T480-810q-13 0-21.5 8.5T450-780q0 13 8.5 21.5T480-750Zm0 600q13 0 21.5-8.5T510-180q0-13-8.5-21.5T480-210q-13 0-21.5 8.5T450-180q0 13 8.5 21.5T480-150Z"/>
</svg>
