<svg aria-hidden="true" viewBox="0 -960 960 960" fill="currentColor">
  <path d="M767-160H640q-17 0-28.5-11.5T600-200q0-17 11.5-28.5T640-240h127l-36-36q-11-11-11-27.5t12-28.5q11-11 28-11t28 11l104 104q12 12 12 28t-12 28L788-68q-11 11-27.5 11.5T732-68q-11-11-11-28t11-28l35-36Zm-567 40q-33 0-56.5-23.5T120-200v-560q0-33 23.5-56.5T200-840h560q33 0 56.5 23.5T840-760v334q-19-7-39.5-10.5T759-440q-39 0-74 12t-64 33l-85-85 86-86q11-11 11-28t-11-28q-11-11-28-11t-28 11l-86 86-86-86q-11-11-28-11t-28 11q-11 11-11 28t11 28l86 86-86 86q-11 11-11 28t11 28q11 11 28 11t28-11l86-86 85 85q-21 29-33 64.5T520-200q0 21 3.5 41t10.5 39H200Z"/>
</svg>
