<svg aria-hidden="true" viewBox="0 -960 960 960" fill="currentColor">
  <path d="M120-160q-17 0-28.5-11.5T80-200q0-17 11.5-28.5T120-240q17 0 28.5 11.5T160-200q0 17-11.5 28.5T120-160Zm131.5-11.5Q240-183 240-200t11.5-28.5Q263-240 280-240t28.5 11.5Q320-217 320-200t-11.5 28.5Q297-160 280-160t-28.5-11.5Zm160 0Q400-183 400-200t11.5-28.5Q423-240 440-240t28.5 11.5Q480-217 480-200t-11.5 28.5Q457-160 440-160t-28.5-11.5Zm160 0Q560-183 560-200t11.5-28.5Q583-240 600-240t28.5 11.5Q640-217 640-200t-11.5 28.5Q617-160 600-160t-28.5-11.5ZM760-160q-17 0-28.5-11.5T720-200q0-17 11.5-28.5T760-240h40v-40q0-17 11.5-28.5T840-320q17 0 28.5 11.5T880-280v40q0 33-23.5 56.5T800-160h-40ZM120-320q-17 0-28.5-11.5T80-360q0-17 11.5-28.5T120-400q17 0 28.5 11.5T160-360q0 17-11.5 28.5T120-320Zm691.5-91.5Q800-423 800-440t11.5-28.5Q823-480 840-480t28.5 11.5Q880-457 880-440t-11.5 28.5Q857-400 840-400t-28.5-11.5ZM120-480q-17 0-28.5-11.5T80-520q0-17 11.5-28.5T120-560q17 0 28.5 11.5T160-520q0 17-11.5 28.5T120-480Zm360-160v-120q0-17 11.5-28.5T520-800h280q33 0 56.5 23.5T880-720v120q0 17-11.5 28.5T840-560H560q-33 0-56.5-23.5T480-640Zm-360 0q-17 0-28.5-11.5T80-680v-40q0-33 23.5-56.5T160-800h40q17 0 28.5 11.5T240-760q0 17-11.5 28.5T200-720h-40v40q0 17-11.5 28.5T120-640Zm211.5-91.5Q320-743 320-760t11.5-28.5Q343-800 360-800t28.5 11.5Q400-777 400-760t-11.5 28.5Q377-720 360-720t-28.5-11.5Z"/>
</svg>
