<svg aria-hidden="true" viewBox="0 -960 960 960" fill="currentColor">
  <path d="M320-240q-33 0-56.5-23.5T240-320v-480q0-33 23.5-56.5T320-880h480q33 0 56.5 23.5T880-800v480q0 33-23.5 56.5T800-240H320Zm0-80h480v-320H560q-17 0-28.5-11.5T520-680v-120H320v480Zm0-480v480-480Zm-200 80q-17 0-28.5-11.5T80-760q0-17 11.5-28.5T120-800q17 0 28.5 11.5T160-760q0 17-11.5 28.5T120-720ZM251.5-91.5Q240-103 240-120t11.5-28.5Q263-160 280-160t28.5 11.5Q320-137 320-120t-11.5 28.5Q297-80 280-80t-28.5-11.5Zm160 0Q400-103 400-120t11.5-28.5Q423-160 440-160t28.5 11.5Q480-137 480-120t-11.5 28.5Q457-80 440-80t-28.5-11.5Zm160 0Q560-103 560-120t11.5-28.5Q583-160 600-160t28.5 11.5Q640-137 640-120t-11.5 28.5Q617-80 600-80t-28.5-11.5ZM120-560q-17 0-28.5-11.5T80-600q0-17 11.5-28.5T120-640q17 0 28.5 11.5T160-600q0 17-11.5 28.5T120-560Zm0 160q-17 0-28.5-11.5T80-440q0-17 11.5-28.5T120-480q17 0 28.5 11.5T160-440q0 17-11.5 28.5T120-400Zm0 160q-17 0-28.5-11.5T80-280q0-17 11.5-28.5T120-320q17 0 28.5 11.5T160-280q0 17-11.5 28.5T120-240Zm0 160q-17 0-28.5-11.5T80-120q0-17 11.5-28.5T120-160q17 0 28.5 11.5T160-120q0 17-11.5 28.5T120-80Zm611.5-11.5Q720-103 720-120t11.5-28.5Q743-160 760-160t28.5 11.5Q800-137 800-120t-11.5 28.5Q777-80 760-80t-28.5-11.5Z"/>
</svg>
