<svg aria-hidden="true" viewBox="0 -960 960 960" fill="currentColor">
  <path d="M660-160q-75 0-127.5-52.5T480-340q0-75 52.5-127.5T660-520q75 0 127.5 52.5T840-340q0 26-7.5 50T812-244l80 80q11 11 11 28t-11 28q-11 11-28 11t-28-11l-80-80q-22 13-46 20.5t-50 7.5Zm71-109q29-29 29-71t-29-71q-29-29-71-29t-71 29q-29 29-29 71t29 71q29 29 71 29t71-29Zm-571 29v-360 40-160 480Zm0 80q-33 0-56.5-23.5T80-240v-480q0-33 23.5-56.5T160-800h640q33 0 56.5 23.5T880-720v120q0 17-11.5 28.5T840-560H520v-160H160v480h200q17 0 28.5 11.5T400-200q0 17-11.5 28.5T360-160H160Z"/>
</svg>
