<svg aria-hidden="true" viewBox="0 -960 960 960" fill="currentColor">
  <path d="M562.87-151.869v-91.001h80v91.001h-80ZM317.13-717.13v-91.001h80v91.001h-80Zm251.001 160q-37.538 0-64.269-26.732-26.732-26.731-26.732-64.269v-160h320q37.783 0 64.392 26.609 26.609 26.609 26.609 64.392v160h-320ZM722.87-151.869v-91.001h74.26v-74.26h91.001v74.26q0 37.783-26.609 64.392-26.609 26.609-64.392 26.609h-74.26Zm-320 0v-91.001h80v91.001h-80ZM797.13-397.13v-80h91.001v80H797.13ZM71.87-322.87v-80h91v80h-91Zm0-160v-80h91v80h-91Zm91 331.001q-37.783 0-64.392-26.609Q71.87-205.087 71.87-242.87h91.001v91.001Zm-91-491.001v-74.26q0-37.783 26.608-64.392 26.609-26.609 64.392-26.609h74.26v91.001h-74.26v74.26h-91Zm171 491.001v-91.001h80v91.001h-80Z"/>
</svg>
