<svg aria-hidden="true" viewBox="0 -960 960 960" fill="currentColor">
  <path d="M157.37-66.37q-37.783 0-64.392-26.608-26.609-26.609-26.609-64.392h91.001v91Zm-91-171v-82.869h91v82.869h-91Zm0-162.869v-82.87h91v82.87h-91Zm0-162.87v-82.869h91v82.869h-91Zm0-162.869q0-37.783 26.608-64.392 26.609-26.609 64.392-26.609v91.001h-91Zm171 659.609v-91.001h82.869v91H237.37Zm162.869 0v-91.001h82.87v91h-82.87Zm162.87 0v-91.001h82.869v91h-82.869Zm162.869 0v-91.001h91.001q0 37.783-26.609 64.392-26.609 26.609-64.392 26.609ZM328.37-237.37q-37.783 0-64.392-26.608-26.608-26.609-26.608-64.392v-474.26q0-37.783 26.608-64.392 26.609-26.609 64.392-26.609h474.26q37.783 0 64.392 26.609 26.609 26.609 26.609 64.392v474.26q0 37.783-26.609 64.392-26.609 26.608-64.392 26.608H328.37Zm0-91h474.26v-314.978H567.413q-19.152 0-32.326-13.174t-13.174-32.326V-802.63H328.37v474.26Zm0-474.26v474.26-474.26Z"/>
</svg>
