<svg aria-hidden="true" viewBox="0 -960 960 960" fill="currentColor">
  <path d="m369.913-274.5-37.565 93.413q-5.478 12.435-16.033 19.511-10.554 7.076-23.228 7.076-22.87 0-35.805-18.891-12.934-18.892-3.978-39.522l39.761-99q9.717-24.435 31.033-39.011 21.315-14.576 47.989-14.576H434.5v-146.413q-155.391-5.717-258.652-47.391T72.587-658.087q0-61.826 118.315-104.62Q309.217-805.5 480-805.5q171.544 0 289.478 42.793 117.935 42.794 117.935 104.62 0 57.109-103.261 98.783T525.5-511.913V-365.5h62.413q25.674 0 47.609 14.576 21.935 14.576 31.413 39.011l40 99q4.478 10.435 2.859 20.75-1.62 10.315-7.337 18.772-5.718 8.456-14.913 13.674-9.196 5.217-20.631 5.217-12.674 0-23.228-7.076-10.555-7.076-16.033-19.511L590.087-274.5H369.913ZM480-601.913q93.652 0 176.424-15.804 82.771-15.805 120.858-40.37-38.087-24.565-120.858-40.489Q573.652-714.5 480-714.5t-176.424 15.924q-82.771 15.924-120.858 40.489 38.087 24.565 120.858 40.37Q386.348-601.913 480-601.913Zm0-56.174Z"/>
</svg>
