<svg aria-hidden="true" viewBox="0 -960 960 960" fill="currentColor">
  <path d="M120-320h208q-10 14-19 28.5T292-260q-10 19-9.5 40t9.5 40q8 17 17 31.5t19 28.5H200q-33 0-56.5-23.5T120-200v-120Zm0-80v-200h320v173q-10 6-19.5 12.5T402-400H120Zm400-200h320v173q-44-26-93.5-39.5T640-480q-32 0-62 4.5T520-463v-137Zm-400-80v-80q0-33 23.5-56.5T200-840h560q33 0 56.5 23.5T840-760v80H120ZM640-40q-79 0-147.5-36T382-178q-6-9-9-19.5t-3-21.5q0-11 3-22t9-21q42-66 110.5-102T640-400q79 0 147.5 36T898-262q6 10 9 20.5t3 21.5q0 11-3 21.5t-9 20.5q-42 66-110.5 102T640-40Zm71-109q29-29 29-71t-29-71q-29-29-71-29t-71 29q-29 29-29 71t29 71q29 29 71 29t71-29Zm-113.5-28.5Q580-195 580-220t17.5-42.5Q615-280 640-280t42.5 17.5Q700-245 700-220t-17.5 42.5Q665-160 640-160t-42.5-17.5Z"/>
</svg>
