<svg aria-hidden="true" viewBox="0 -960 960 960" fill="currentColor">
  <path d="M360-120q-33 0-56.5-23.5T280-200v-400q0-33 23.5-56.5T360-680h400q33 0 56.5 23.5T840-600v400q0 33-23.5 56.5T760-120H360Zm40-400h320q17 0 28.5-11.5T760-560q0-17-11.5-28.5T720-600H400q-17 0-28.5 11.5T360-560q0 17 11.5 28.5T400-520Zm120 160h80v-80h-80v80Zm0 160h80v-80h-80v80ZM360-360h80v-80h-80v80Zm320 0h80v-80h-80v80ZM360-200h80v-80h-80v80Zm320 0h80v-80h-80v80Zm-480-80q-33 0-56.5-23.5T120-360v-400q0-33 23.5-56.5T200-840h400q33 0 56.5 23.5T680-760v40h-80v-40H200v400h40v80h-40Z"/>
</svg>
