<svg aria-hidden="true" viewBox="0 -960 960 960" fill="currentColor">
  <path d="M157.37-331.152q-19.153 0-32.327-13.174t-13.174-32.326V-394.5q0-19.152 13.174-32.326T157.37-440h645.26q19.153 0 32.327 13.174t13.174 32.326v17.848q0 19.152-13.174 32.326t-32.327 13.174H157.37Zm0-188.848q-19.153 0-32.327-13.174T111.869-565.5v-17.848q0-19.152 13.174-32.326t32.327-13.174h645.26q19.153 0 32.327 13.174t13.174 32.326v17.848q0 19.152-13.174 32.326T802.63-520H157.37Zm0-188.848q-19.153 0-32.327-13.174t-13.174-32.326v-17.848q0-19.152 13.174-32.326t32.327-13.174h645.26q19.153 0 32.327 13.174t13.174 32.326v17.848q0 19.152-13.174 32.326t-32.327 13.174H157.37Zm0 566.544q-19.153 0-32.327-13.174t-13.174-32.326v-17.848q0-19.152 13.174-32.326t32.327-13.174h645.26q19.153 0 32.327 13.174t13.174 32.326v17.848q0 19.152-13.174 32.326t-32.327 13.174H157.37Z"/>
</svg>
