<svg aria-hidden="true" viewBox="0 -960 960 960" fill="currentColor">
  <path d="M180.218-602.152h601.325L749.696-714.5H213.065l-32.847 112.348ZM481-658.326ZM285.696-433.304h390.369l-10.478-77.848H296.696l-11 77.848ZM206.478-154.5q-20.63 0-33.924-15.533-13.293-15.532-10.576-36.163l43.718-304.956h-85.892q-22.63 0-35.804-18.272-13.174-18.272-7.457-39.663L134.5-772.435q4.239-14.674 15.793-23.869 11.555-9.196 27.468-9.196h606q15.674 0 27.228 9.196 11.555 9.195 16.033 23.869l58.196 203.348q5.956 21.631-7.337 39.783-13.294 18.152-36.164 18.152h-85.13l42.957 304.956q2.717 20.631-10.457 36.163-13.174 15.533-33.804 15.533-16.913 0-29.848-10.696-12.935-10.695-15.413-27.608l-20.326-149.5H272.065l-20.565 149.5q-2.478 16.913-15.293 27.608-12.816 10.696-29.729 10.696Z"/>
</svg>
