<svg aria-hidden="true" viewBox="0 -960 960 960" fill="currentColor">
  <path d="M182.739-147.087q-19.152 0-35.646-7.342t-29.006-19.766l-96.422-96.422q-11.404-11.405-11.404-28.144 0-16.739 11.478-28.217 12.255-12.239 29.106-12.239 16.85 0 28.329 12.239l37.435 37.674v-304.283q0-13.829 9.55-22.871 9.551-9.042 22.285-9.042 13.795 0 22.773 9.042 8.979 9.042 8.979 22.871v157.174h37.608v-217.174q0-13.829 9.551-22.871 9.55-9.042 22.285-9.042 13.795 0 22.893 9.042 9.097 9.042 9.097 22.871v217.174h37.609v-177.174q0-13.829 9.501-22.871 9.5-9.042 22.168-9.042 13.722 0 22.82 9.042t9.098 22.871v177.174h37.609V-570q0-13.829 9.55-22.871 9.551-9.042 22.285-9.042 13.795 0 22.774 9.042 8.978 9.042 8.978 22.871v331.913q0 37.538-26.228 64.269-26.229 26.731-64.772 26.731H182.739Zm381.283-124.782V-634.5q0-37.783-26.609-64.391-26.609-26.609-64.391-26.609H71.109v-111.63q0-37.783 26.608-64.392 26.609-26.609 64.392-26.609H636.37q37.782 0 64.391 26.609 26.609 26.609 26.609 64.392V-660l121.456-121.456q11.196-11.196 24.87-5.499 13.674 5.698 13.674 21.651v329.608q0 15.953-13.674 21.651-13.674 5.697-24.87-5.499L727.37-540v177.13q0 37.783-26.609 64.392-26.609 26.609-64.391 26.609h-72.348Z"/>
</svg>
