<svg aria-hidden="true" viewBox="0 -960 960 960" fill="currentColor">
  <path d="M177-160q-17 0-31.5-6.5T120-184l-93-93q-11-11-11-27.5T27-332q12-12 28.5-12T83-332l36 36v-294q0-13 9-21.5t21-8.5q13 0 21.5 8.5T179-590v150h40v-210q0-13 9-21.5t21-8.5q13 0 21.5 8.5T279-650v210h40v-170q0-13 9-21.5t21-8.5q13 0 21.5 8.5T379-610v170h40v-130q0-13 9-21.5t21-8.5q13 0 21.5 8.5T479-570v330q0 33-23 56.5T399-160H177Zm382-120v-360q0-33-23.5-56.5T479-720H79v-120q0-33 23.5-56.5T159-920h480q33 0 56.5 23.5T719-840v180l126-126q10-10 22-5t12 19v343q0 14-12 19t-22-5L719-540v180q0 33-23.5 56.5T639-280h-80Z"/>
</svg>
