<svg aria-hidden="true" viewBox="0 -960 960 960" fill="currentColor">
  <path d="M564.783-271.869v-91.001h72.347v-474.26H162.87v111.63h-91v-111.63q0-37.783 26.608-64.392 26.609-26.609 64.392-26.609h474.26q37.783 0 64.392 26.609 26.609 26.609 26.609 64.392V-660l121.456-121.456q11.196-11.196 24.87-5.499 13.674 5.698 13.674 21.651v329.608q0 15.953-13.674 21.651-13.674 5.697-24.87-5.499L728.131-540v177.13q0 37.783-26.609 64.392-26.609 26.609-64.392 26.609h-72.347ZM183.5-147.087q-19.152 0-35.646-7.342t-29.006-19.766l-96.422-96.422q-11.404-11.405-11.404-28.144 0-16.739 11.478-28.217 12.255-12.239 29.106-12.239 16.85 0 28.329 12.239l37.435 37.674v-304.283q0-13.829 9.55-22.871 9.551-9.042 22.285-9.042 13.795 0 22.773 9.042 8.979 9.042 8.979 22.871v157.174h37.608v-217.174q0-13.829 9.551-22.871 9.55-9.042 22.284-9.042 13.796 0 22.894 9.042 9.097 9.042 9.097 22.871v217.174H320v-177.174q0-13.829 9.501-22.871 9.5-9.042 22.167-9.042 13.723 0 22.821 9.042t9.098 22.871v177.174h37.609V-570q0-13.829 9.55-22.871 9.551-9.042 22.285-9.042 13.795 0 22.773 9.042 8.979 9.042 8.979 22.871v331.913q0 37.538-26.229 64.269-26.228 26.731-64.772 26.731H183.5ZM637.13-837.13v474.26-474.26Z"/>
</svg>
