<svg aria-hidden="true" viewBox="0 -960 960 960" fill="currentColor">
  <path d="M640-40v-80h40v-600H280v240h-80v-360q0-33 23.5-56.5T280-920h400q33 0 56.5 23.5T760-840v720q0 33-23.5 56.5T680-40h-40ZM370-210q27 27 44 60t23 71q2 16-9 27.5T400-40q-17 0-29-10.5T355-78q-5-21-15.5-40T313-153q-16-16-35-26.5T238-195q-17-4-27.5-16T200-240q0-17 11.5-28t27.5-9q38 6 71 23t60 44Zm126-100q42 46 68.5 103.5T598-83q2 17-9.5 30T560-40q-17 0-29-12t-14-29q-6-50-26.5-94T438-254q-38-43-89.5-70T237-358q-16-2-26.5-14T200-400q0-17 11.5-28.5T239-438q76 8 142 41t115 87ZM280-800h400v-40H280v40Zm0 0v-40 40ZM240-40q-17 0-28.5-11.5T200-80q0-17 11.5-28.5T240-120q17 0 28.5 11.5T280-80q0 17-11.5 28.5T240-40Z"/>
</svg>
