<svg aria-hidden="true" viewBox="0 -960 960 960" fill="currentColor">
  <path d="M238.087-81.913v-308.282H160q-42.717 0-72.554-29.837-29.837-29.837-29.837-72.555 0-42.717 29.837-72.554 29.837-29.837 72.554-29.837h78.087v-40.957H160q-42.717 0-72.554-29.837-29.837-29.837-29.837-72.554t29.837-72.554q29.837-29.837 72.554-29.837h78.087v-37.37q0-17.813 12.05-29.863T280-920q17.813 0 29.863 12.05t12.05 29.863v37.37H400q42.717 0 72.554 29.837 29.837 29.837 29.837 72.554t-29.837 72.554Q442.717-635.935 400-635.935h-78.087v40.957H400q42.717 0 72.554 29.837 29.837 29.837 29.837 72.554 0 42.718-29.837 72.555-29.837 29.837-72.554 29.837h-78.087v308.282q0 17.813-12.05 29.863T280-40q-17.813 0-29.863-12.05t-12.05-29.863Zm440-41.674v-280.978q-52.239-14.239-86.12-56.718-33.88-42.478-33.88-98.717v-314.5q0-19.152 13.174-32.326T603.587-920h232.826q19.152 0 32.326 13.174t13.174 32.326V-560q0 56.239-33.88 98.717-33.881 42.479-86.12 56.718v280.978H800q17.813 0 29.863 11.982 12.05 11.983 12.05 29.696t-12.05 29.811Q817.813-40 800-40H640q-17.813 0-29.863-12.05t-12.05-29.863q0-17.712 12.05-29.693 12.05-11.981 29.863-11.981h38.087ZM641.913-720h156.174v-116.413H641.913V-720Z"/>
</svg>
