<svg aria-hidden="true" viewBox="0 -960 960 960" fill="currentColor">
  <path d="M238.087-81.913v-308.282H160q-42.717 0-72.554-29.837-29.837-29.837-29.837-72.555 0-42.717 29.837-72.554 29.837-29.837 72.554-29.837h78.087v-40.957H160q-42.717 0-72.554-29.837-29.837-29.837-29.837-72.554t29.837-72.554q29.837-29.837 72.554-29.837h78.087v-37.37q0-17.813 12.05-29.863T280-920q17.813 0 29.863 12.05t12.05 29.863v37.37H400q42.717 0 72.554 29.837 29.837 29.837 29.837 72.554t-29.837 72.554Q442.717-635.935 400-635.935h-78.087v40.957H400q42.717 0 72.554 29.837 29.837 29.837 29.837 72.554 0 42.718-29.837 72.555-29.837 29.837-72.554 29.837h-78.087v308.282q0 17.813-12.05 29.863T280-40q-17.813 0-29.863-12.05t-12.05-29.863ZM160-470.195h240q8.957 0 15.674-6.718 6.717-6.717 6.717-15.674 0-8.956-6.717-15.674-6.717-6.717-15.674-6.717H160q-8.957 0-15.674 6.717-6.717 6.718-6.717 15.674 0 8.957 6.717 15.674 6.717 6.718 15.674 6.718Zm0-245.74h240q8.957 0 15.674-6.717 6.717-6.718 6.717-15.674 0-8.957-6.717-15.674-6.717-6.717-15.674-6.717H160q-8.957 0-15.674 6.717-6.717 6.717-6.717 15.674 0 8.956 6.717 15.674 6.717 6.717 15.674 6.717Zm518.087 592.348v-280.978q-52.239-14.239-86.12-56.718-33.88-42.478-33.88-98.717v-314.5q0-19.152 13.174-32.326T603.587-920h232.826q19.152 0 32.326 13.174t13.174 32.326V-560q0 56.239-33.88 98.717-33.881 42.479-86.12 56.718v280.978H800q17.813 0 29.863 11.982 12.05 11.983 12.05 29.696t-12.05 29.811Q817.813-40 800-40H640q-17.813 0-29.863-12.05t-12.05-29.863q0-17.712 12.05-29.693 12.05-11.981 29.863-11.981h38.087Zm42.032-358.326q32.161 0 55.065-23.022 22.903-23.022 22.903-55.065v-76.413H641.913V-560q0 32.043 23.022 55.065t55.184 23.022ZM641.913-720h156.174v-116.413H641.913V-720ZM137.609-470.195v-44.783 44.783Zm0-245.74v-44.782 44.782ZM720-636.413Z"/>
</svg>
