<svg aria-hidden="true" viewBox="0 -960 960 960" fill="currentColor">
  <path d="M140-80q-25 0-42.5-17.5T80-140v-286q0-7 1-14t3-13l75-213q8-24 29-39t47-15h85v-40q0-17 11.5-28.5T360-800h92q-12 39-12 80t12 80H234l-42 120h332q39 39 90 59.5T720-440q20 0 39-2.5t41-7.5v310q0 25-17.5 42.5T740-80q-25 0-42.5-17.5T680-140v-20H200v20q0 25-17.5 42.5T140-80Zm120-200q25 0 42.5-17.5T320-340q0-25-17.5-42.5T260-400q-25 0-42.5 17.5T200-340q0 25 17.5 42.5T260-280Zm360 0q25 0 42.5-17.5T680-340q0-25-17.5-42.5T620-400q-25 0-42.5 17.5T560-340q0 25 17.5 42.5T620-280Zm100-240q-83 0-141.5-58.5T520-720q0-83 58.5-141.5T720-920q83 0 141.5 58.5T920-720q0 83-58.5 141.5T720-520Zm0-160q8 0 14-6t6-14v-120q0-8-6-14t-14-6q-8 0-14 6t-6 14v120q0 8 6 14t14 6Zm0 80q8 0 14-6t6-14q0-8-6-14t-14-6q-8 0-14 6t-6 14q0 8 6 14t14 6Z"/>
</svg>
