<svg aria-hidden="true" viewBox="0 -960 960 960" fill="currentColor">
  <path d="M432.587-684.261V-792.87q0-45.615 31.496-77.112 31.497-31.497 77.113-31.497h108.609v108.609q0 45.616-31.497 77.113-31.497 31.496-77.112 31.496H432.587Zm-218.326 245.5q-61.567 0-105.088-43.521-43.521-43.521-43.521-105.088v-148.608H214.26q61.566 0 105.087 43.521 43.522 43.521 43.522 105.087v148.609H214.261ZM648.37-81.391q-38.761 0-74.261-11.522-35.5-11.522-64.739-32.043l-29.891 29.89Q466.805-82.39 447.652-82.39q-19.152 0-31.826-12.674t-12.674-31.826q0-19.152 12.674-31.826l29.891-29.892q-20.521-29.239-32.043-64.739-11.522-35.5-11.522-74.261 0-102.63 71.794-174.804 71.793-72.174 174.403-71.413h245.238v246.245q1.522 102.603-70.532 174.396Q751-81.391 648.37-81.391Zm0-91q64.81 0 110.275-45.566 45.464-45.565 43.942-109.609v-155.26H648.319q-64.036-.761-109.601 44.773-45.566 45.534-45.566 110.444 0 20.422 4.544 38.624 4.543 18.202 13.869 34.528l104.979-104.978q12.674-12.674 31.826-12.674t31.826 12.674q12.674 12.674 12.674 31.826 0 19.153-12.674 31.827L575.218-190.804q16.326 9.326 34.528 13.869 18.202 4.544 38.624 4.544Zm.761-155.979Z"/>
</svg>
