<svg aria-hidden="true" viewBox="0 -960 960 960" fill="currentColor">
  <path d="M393.848-434.5H150.195q-19.152 0-32.326-13.174T104.695-480q0-19.152 13.174-32.326t32.326-13.174h243.653l-27.392-27.391q-12.434-12.435-12.315-30.729.12-18.293 14.033-32.206 12.674-12.913 31.826-12.913t32.065 12.913l103.761 103.761Q549.5-498.391 549.5-480t-13.674 32.065l-104 104Q419.152-331.261 400.261-331q-18.891.261-33.044-13.891-12.435-12.435-12.435-31.109t12.435-31.109l26.631-27.391Zm370.456 284.305v-659.61q0-19.152 13.174-32.326t32.327-13.174q19.152 0 32.326 13.174t13.174 32.326v659.61q0 19.152-13.174 32.326t-32.326 13.174q-19.153 0-32.327-13.174t-13.174-32.326ZM601.435-764.304v-91.001h82.869v91.001h-82.869Zm0 659.609v-91.001h82.869v91.001h-82.869Zm-162.87-659.609v-91.001h82.87v91.001h-82.87Zm0 659.609v-91.001h82.87v91.001h-82.87ZM275.696-764.304v-91.001h82.869v91.001h-82.869Zm0 659.609v-91.001h82.869v91.001h-82.869Zm-80 0q-37.783 0-64.392-26.609-26.609-26.609-26.609-64.392h91.001v91.001Zm-91.001-659.609q0-37.783 26.609-64.392 26.609-26.609 64.392-26.609v91.001h-91.001Z"/>
</svg>
