<svg aria-hidden="true" viewBox="0 -960 960 960" fill="currentColor">
  <path d="M680-120q-33 0-56.5-23.5T600-200v-560q0-33 23.5-56.5T680-840h80q33 0 56.5 23.5T840-760v560q0 33-23.5 56.5T760-120h-80Zm-228.5-11.5Q440-143 440-160t11.5-28.5Q463-200 480-200t28.5 11.5Q520-177 520-160t-11.5 28.5Q497-120 480-120t-28.5-11.5Zm-160 0Q280-143 280-160t11.5-28.5Q303-200 320-200t28.5 11.5Q360-177 360-160t-11.5 28.5Q337-120 320-120t-28.5-11.5Zm-160 0Q120-143 120-160t11.5-28.5Q143-200 160-200t28.5 11.5Q200-177 200-160t-11.5 28.5Q177-120 160-120t-28.5-11.5Zm320-640Q440-783 440-800t11.5-28.5Q463-840 480-840t28.5 11.5Q520-817 520-800t-11.5 28.5Q497-760 480-760t-28.5-11.5Zm-160 0Q280-783 280-800t11.5-28.5Q303-840 320-840t28.5 11.5Q360-817 360-800t-11.5 28.5Q337-760 320-760t-28.5-11.5Zm-160 0Q120-783 120-800t11.5-28.5Q143-840 160-840t28.5 11.5Q200-817 200-800t-11.5 28.5Q177-760 160-760t-28.5-11.5ZM273-440l36 36q11 11 11 27.5T308-348q-11 11-28 11t-28-11L148-452q-12-12-12-28t12-28l104-104q11-11 27.5-11.5T308-612q11 11 11 28t-11 28l-35 36h207q17 0 28.5 11.5T520-480q0 17-11.5 28.5T480-440H273Z"/>
</svg>
