<svg aria-hidden="true" viewBox="0 -960 960 960" fill="currentColor">
  <path d="M532-348 428-452q-12-12-12-28t12-28l104-104q11-11 27.5-11.5T588-612q11 11 11 28t-11 28l-35 36h247q17 0 28.5 11.5T840-480q0 17-11.5 28.5T800-440H553l36 36q11 11 11 27.5T588-348q-11 11-28 11t-28-11ZM160-120q-17 0-28.5-11.5T120-160v-640q0-17 11.5-28.5T160-840q17 0 28.5 11.5T200-800v640q0 17-11.5 28.5T160-120Zm120 0v-80h80v80h-80Zm0-640v-80h80v80h-80Zm160 640v-80h80v80h-80Zm0-640v-80h80v80h-80Zm160 640v-80h80v80h-80Zm0-640v-80h80v80h-80Zm160 0v-80q33 0 56.5 23.5T840-760h-80Zm0 640v-80h80q0 33-23.5 56.5T760-120Z"/>
</svg>
