<svg aria-hidden="true" viewBox="0 -960 960 960" fill="currentColor">
  <path d="M438.565-104.695v-91.001h82.87v91.001h-82.87Zm0-659.609v-91.001h82.87v91.001h-82.87Zm162.87 659.609v-91.001h82.869v91.001h-82.869Zm0-659.609v-91.001h82.869v91.001h-82.869ZM681.5-434.5H437.609q-19.153 0-32.327-13.174-13.173-13.174-13.173-32.326t13.173-32.326q13.174-13.174 32.327-13.174H681.5l-27.391-27.391q-12.435-12.435-12.435-30.729 0-18.293 13.913-32.206 12.674-12.913 31.826-12.913t32.066 12.913l103.76 103.761q13.674 13.674 13.674 32.065t-13.674 32.065l-104 104Q706.565-331.261 687.674-331q-18.891.261-32.804-13.891-12.435-12.435-12.435-31.109t12.435-31.109L681.5-434.5ZM186.13-195.696v-568.608h-35.935q-19.152 0-32.326-13.174t-13.174-32.327q0-19.152 13.174-32.326t32.326-13.174h162.87q19.152 0 32.326 13.174t13.174 32.326q0 19.153-13.174 32.327t-32.326 13.174H277.13v568.608h35.935q19.152 0 32.326 13.174t13.174 32.327q0 19.152-13.174 32.326t-32.326 13.174h-162.87q-19.152 0-32.326-13.174t-13.174-32.326q0-19.153 13.174-32.327t32.326-13.174h35.935Zm578.174-568.608v-91.001q37.783 0 64.392 26.609 26.609 26.609 26.609 64.392h-91.001Zm0 659.609v-91.001h91.001q0 37.783-26.609 64.392-26.609 26.609-64.392 26.609Z"/>
</svg>
