<svg aria-hidden="true" viewBox="0 -960 960 960" fill="currentColor">
  <path d="M440-760v-80h80v80h-80Zm0 640v-80h80v80h-80ZM280-760v-80h80v80h-80Zm0 640v-80h80v80h-80Zm-28-228L148-452q-12-12-12-28t12-28l104-104q11-11 27.5-11.5T308-612q11 11 11 28t-11 28l-35 36h207q17 0 28.5 11.5T520-480q0 17-11.5 28.5T480-440H273l36 36q11 11 11 27.5T308-348q-11 11-28 11t-28-11Zm428 228q-33 0-56.5-23.5T600-200v-560q0-33 23.5-56.5T680-840h80q33 0 56.5 23.5T840-760v560q0 33-23.5 56.5T760-120h-80Zm-480 0q-33 0-56.5-23.5T120-200h80v80Zm-80-640q0-33 23.5-56.5T200-840v80h-80Z"/>
</svg>
