<svg aria-hidden="true" viewBox="0 -960 960 960" fill="currentColor">
  <path d="M451.5-771.5Q440-783 440-800t11.5-28.5Q463-840 480-840t28.5 11.5Q520-817 520-800t-11.5 28.5Q497-760 480-760t-28.5-11.5Zm160 0Q600-783 600-800t11.5-28.5Q623-840 640-840t28.5 11.5Q680-817 680-800t-11.5 28.5Q657-760 640-760t-28.5-11.5Zm160 0Q760-783 760-800t11.5-28.5Q783-840 800-840t28.5 11.5Q840-817 840-800t-11.5 28.5Q817-760 800-760t-28.5-11.5Zm-320 640Q440-143 440-160t11.5-28.5Q463-200 480-200t28.5 11.5Q520-177 520-160t-11.5 28.5Q497-120 480-120t-28.5-11.5Zm160 0Q600-143 600-160t11.5-28.5Q623-200 640-200t28.5 11.5Q680-177 680-160t-11.5 28.5Q657-120 640-120t-28.5-11.5Zm160 0Q760-143 760-160t11.5-28.5Q783-200 800-200t28.5 11.5Q840-177 840-160t-11.5 28.5Q817-120 800-120t-28.5-11.5ZM160-120q-17 0-28.5-11.5T120-160q0-17 11.5-28.5T160-200h40v-560h-40q-17 0-28.5-11.5T120-800q0-17 11.5-28.5T160-840h160q17 0 28.5 11.5T360-800q0 17-11.5 28.5T320-760h-40v560h40q17 0 28.5 11.5T360-160q0 17-11.5 28.5T320-120H160Zm527-320H440q-17 0-28.5-11.5T400-480q0-17 11.5-28.5T440-520h247l-36-36q-11-11-11-27.5t12-28.5q11-11 28-11t28 11l104 104q12 12 12 28t-12 28L708-348q-11 11-27.5 11.5T652-348q-11-11-11-28t11-28l35-36Z"/>
</svg>
