<svg aria-hidden="true" viewBox="0 -960 960 960" fill="currentColor">
  <path d="M451.5-131.5Q440-143 440-160t11.5-28.5Q463-200 480-200t28.5 11.5Q520-177 520-160t-11.5 28.5Q497-120 480-120t-28.5-11.5Zm-160 0Q280-143 280-160t11.5-28.5Q303-200 320-200t28.5 11.5Q360-177 360-160t-11.5 28.5Q337-120 320-120t-28.5-11.5Zm-160 0Q120-143 120-160t11.5-28.5Q143-200 160-200t28.5 11.5Q200-177 200-160t-11.5 28.5Q177-120 160-120t-28.5-11.5Zm320-640Q440-783 440-800t11.5-28.5Q463-840 480-840t28.5 11.5Q520-817 520-800t-11.5 28.5Q497-760 480-760t-28.5-11.5Zm-160 0Q280-783 280-800t11.5-28.5Q303-840 320-840t28.5 11.5Q360-817 360-800t-11.5 28.5Q337-760 320-760t-28.5-11.5Zm-160 0Q120-783 120-800t11.5-28.5Q143-840 160-840t28.5 11.5Q200-817 200-800t-11.5 28.5Q177-760 160-760t-28.5-11.5ZM640-120q-17 0-28.5-11.5T600-160q0-17 11.5-28.5T640-200h40v-560h-40q-17 0-28.5-11.5T600-800q0-17 11.5-28.5T640-840h160q17 0 28.5 11.5T840-800q0 17-11.5 28.5T800-760h-40v560h40q17 0 28.5 11.5T840-160q0 17-11.5 28.5T800-120H640ZM273-440l36 36q11 11 11 27.5T308-348q-11 11-28 11t-28-11L148-452q-12-12-12-28t12-28l104-104q11-11 27.5-11.5T308-612q11 11 11 28t-11 28l-35 36h247q17 0 28.5 11.5T560-480q0 17-11.5 28.5T520-440H273Z"/>
</svg>
