<svg aria-hidden="true" viewBox="0 -960 960 960" fill="currentColor">
  <path d="M160-80q-33 0-56.5-23.5T80-160v-640q0-33 23.5-56.5T160-880h320q17 0 28.5 11.5T520-840q0 17-11.5 28.5T480-800H160v640h440v-80q0-17 11.5-28.5T640-280q17 0 28.5 11.5T680-240v80q0 33-23.5 56.5T600-80H160Zm120-160q-17 0-28.5-11.5T240-280q0-17 11.5-28.5T280-320h200q17 0 28.5 11.5T520-280q0 17-11.5 28.5T480-240H280Zm0-120q-17 0-28.5-11.5T240-400q0-17 11.5-28.5T280-440h120q17 0 28.5 11.5T440-400q0 17-11.5 28.5T400-360H280Zm286-34L440-520h-80q-17 0-28.5-11.5T320-560v-120q0-17 11.5-28.5T360-720h80l126-126q10-10 22-5t12 19v424q0 14-12 19t-22-5Zm114-88v-276q36 21 58 57t22 81q0 45-22 81t-58 57Zm160-138q0-68-34.5-123.5T715-830q-14-8-20.5-23.5T694-884q6-16 21.5-22.5T745-905q78 40 126.5 115.5T920-620q0 94-48.5 169.5T745-335q-14 8-29.5 1.5T694-356q-6-15 .5-30.5T715-410q56-31 90.5-86.5T840-620Z"/>
</svg>
