<svg aria-hidden="true" viewBox="0 -960 960 960" fill="currentColor">
  <path d="M440-120v-80h80v80h-80Zm0-640v-80h80v80h-80Zm160 640v-80h80v80h-80Zm0-640v-80h80v80h-80Zm87 320H440q-17 0-28.5-11.5T400-480q0-17 11.5-28.5T440-520h247l-36-36q-11-11-11-27.5t12-28.5q11-11 28-11t28 11l104 104q12 12 12 28t-12 28L708-348q-11 11-27.5 11.5T652-348q-11-11-11-28t11-28l35-36ZM200-200v-560h-40q-17 0-28.5-11.5T120-800q0-17 11.5-28.5T160-840h160q17 0 28.5 11.5T360-800q0 17-11.5 28.5T320-760h-40v560h40q17 0 28.5 11.5T360-160q0 17-11.5 28.5T320-120H160q-17 0-28.5-11.5T120-160q0-17 11.5-28.5T160-200h40Zm560-560v-80q33 0 56.5 23.5T840-760h-80Zm0 640v-80h80q0 33-23.5 56.5T760-120Z"/>
</svg>
