<svg aria-hidden="true" viewBox="0 -960 960 960" fill="currentColor">
  <path d="M771.5-131.5Q760-143 760-160t11.5-28.5Q783-200 800-200t28.5 11.5Q840-177 840-160t-11.5 28.5Q817-120 800-120t-28.5-11.5Zm-160 0Q600-143 600-160t11.5-28.5Q623-200 640-200t28.5 11.5Q680-177 680-160t-11.5 28.5Q657-120 640-120t-28.5-11.5Zm-160 0Q440-143 440-160t11.5-28.5Q463-200 480-200t28.5 11.5Q520-177 520-160t-11.5 28.5Q497-120 480-120t-28.5-11.5Zm-160 0Q280-143 280-160t11.5-28.5Q303-200 320-200t28.5 11.5Q360-177 360-160t-11.5 28.5Q337-120 320-120t-28.5-11.5Zm480-640Q760-783 760-800t11.5-28.5Q783-840 800-840t28.5 11.5Q840-817 840-800t-11.5 28.5Q817-760 800-760t-28.5-11.5Zm-160 0Q600-783 600-800t11.5-28.5Q623-840 640-840t28.5 11.5Q680-817 680-800t-11.5 28.5Q657-760 640-760t-28.5-11.5Zm-160 0Q440-783 440-800t11.5-28.5Q463-840 480-840t28.5 11.5Q520-817 520-800t-11.5 28.5Q497-760 480-760t-28.5-11.5Zm-160 0Q280-783 280-800t11.5-28.5Q303-840 320-840t28.5 11.5Q360-817 360-800t-11.5 28.5Q337-760 320-760t-28.5-11.5Zm-160 640Q120-143 120-160v-640q0-17 11.5-28.5T160-840q17 0 28.5 11.5T200-800v640q0 17-11.5 28.5T160-120q-17 0-28.5-11.5ZM553-440l36 36q11 11 11 27.5T588-348q-11 11-28 11t-28-11L428-452q-12-12-12-28t12-28l104-104q11-11 28-11t28 11q12 12 12 28.5T589-556l-36 36h247q17 0 28.5 11.5T840-480q0 17-11.5 28.5T800-440H553Z"/>
</svg>
