<svg aria-hidden="true" viewBox="0 -960 960 960" fill="currentColor">
  <path d="M440-760v-80h80v80h-80Zm0 640v-80h80v80h-80ZM280-760v-80h80v80h-80Zm0 640v-80h80v80h-80Zm-28-228L148-452q-12-12-12-28t12-28l104-104q11-11 27.5-11.5T308-612q11 11 11 28t-11 28l-35 36h247q17 0 28.5 11.5T560-480q0 17-11.5 28.5T520-440H273l36 36q11 11 11 27.5T308-348q-11 11-28 11t-28-11Zm388 228q-17 0-28.5-11.5T600-160q0-17 11.5-28.5T640-200h40v-560h-40q-17 0-28.5-11.5T600-800q0-17 11.5-28.5T640-840h160q17 0 28.5 11.5T840-800q0 17-11.5 28.5T800-760h-40v560h40q17 0 28.5 11.5T840-160q0 17-11.5 28.5T800-120H640ZM120-760q0-33 23.5-56.5T200-840v80h-80Zm80 640q-33 0-56.5-23.5T120-200h80v80Z"/>
</svg>
