<svg aria-hidden="true" viewBox="0 -960 960 960" fill="currentColor">
  <path d="M440-760v-80h80v80h-80Zm0 640v-80h80v80h-80ZM280-760v-80h80v80h-80Zm0 640v-80h80v80h-80ZM120-600v-80h80v80h-80Zm0 160v-80h80v80h-80Zm0 160v-80h80v80h-80Zm520 160q-17 0-28.5-11.5T600-160q0-17 11.5-28.5T640-200h40v-560h-40q-17 0-28.5-11.5T600-800q0-17 11.5-28.5T640-840h160q17 0 28.5 11.5T840-800q0 17-11.5 28.5T800-760h-40v560h40q17 0 28.5 11.5T840-160q0 17-11.5 28.5T800-120H640Zm-440 0q-33 0-56.5-23.5T120-200h80v80Zm-80-640q0-33 23.5-56.5T200-840v80h-80Z"/>
</svg>
