<svg aria-hidden="true" viewBox="0 -960 960 960" fill="currentColor">
  <path d="M33.543-200 236.61-727.37q5.717-15.195 23.391-23.913Q277.674-760 324.218-760q16.195 0 29.01 8.837 12.816 8.837 18.533 24.033l175.565 459.478q9.435 24.63-5.739 46.141T500.304-200q-16.152 0-29.467-9.076-13.315-9.076-19.033-24.75l-12.608-35.544q-11-31.521-47.642-50.782-36.641-19.261-127.163-19.261-33.521 0-60.663 19.141-27.141 19.142-38.141 50.663L140.304-200H33.544Zm187.001-224h163.934L304.87-650.022h-4L220.544-424Zm424-12.413q-18.435 0-31.011-12.576T600.957-480q0-18.435 12.576-31.011t31.011-12.576H882.87q18.434 0 31.011 12.576 12.576 12.576 12.576 31.011t-12.576 31.011q-12.577 12.576-31.011 12.576H644.544Z"/>
</svg>
