<svg aria-hidden="true" viewBox="0 -960 960 960" fill="currentColor">
  <path d="M438.565-764.304v-91.001h82.87v91.001h-82.87Zm0 659.609v-91.001h82.87v91.001h-82.87ZM275.696-764.304v-91.001h82.869v91.001h-82.869Zm0 659.609v-91.001h82.869v91.001h-82.869Zm-35.175-239.479-103.76-103.761Q123.087-461.609 123.087-480t13.674-32.065l104-104q12.674-12.674 31.565-12.935 18.891-.261 32.804 13.891 12.435 12.435 12.435 31.109t-12.435 31.109L278.5-525.5h243.891q19.153 0 32.327 13.174 13.173 13.174 13.173 32.326t-13.173 32.326Q541.544-434.5 522.391-434.5H278.5l27.391 27.391q12.435 12.435 12.435 30.729 0 18.293-13.913 32.206-12.674 12.913-31.826 12.913t-32.066-12.913Zm406.414 239.479q-19.152 0-32.326-13.174t-13.174-32.326q0-19.153 13.174-32.327t32.326-13.174h35.935v-568.608h-35.935q-19.152 0-32.326-13.174t-13.174-32.327q0-19.152 13.174-32.326t32.326-13.174h162.87q19.152 0 32.326 13.174t13.174 32.326q0 19.153-13.174 32.327t-32.326 13.174H773.87v568.608h35.935q19.152 0 32.326 13.174t13.174 32.327q0 19.152-13.174 32.326t-32.326 13.174h-162.87Zm-542.24-659.609q0-37.783 26.609-64.392 26.609-26.609 64.392-26.609v91.001h-91.001Zm91.001 659.609q-37.783 0-64.392-26.609-26.609-26.609-26.609-64.392h91.001v91.001Z"/>
</svg>
