<svg aria-hidden="true" viewBox="0 -960 960 960" fill="currentColor">
  <path d="M760-660q17 0 28.5-11.5T800-700q0-17-11.5-28.5T760-740q-17 0-28.5 11.5T720-700q0 17 11.5 28.5T760-660Zm-160 0q17 0 28.5-11.5T640-700q0-17-11.5-28.5T600-740q-17 0-28.5 11.5T560-700q0 17 11.5 28.5T600-660Zm24.5 71.5Q598-577 586-551q-5 10 2.5 18.5T608-524h144q12 0 19.5-8.5T774-551q-12-26-38.5-37.5T680-600q-29 0-55.5 11.5ZM110-150q-70-70-70-170v-200q0-33 23.5-56.5T120-600h320q33 0 56.5 23.5T520-520v200q0 100-70 170T280-80q-100 0-170-70Zm283-57q47-47 47-113v-200H120v200q0 66 47 113t113 47q66 0 113-47Zm527-593v200q0 102-70 171t-171 69q-17 0-33.5-2t-32.5-7q-16-5-23-20t-2-31q5-16 20-23.5t31-2.5q11 3 21 4.5t21 1.5q66 0 112.5-47T840-600v-200H520v100q0 17-11.5 28.5T480-660q-17 0-28.5-11.5T440-700v-100q0-33 23.5-56.5T520-880h320q33 0 56.5 23.5T920-800ZM200-380q17 0 28.5-11.5T240-420q0-17-11.5-28.5T200-460q-17 0-28.5 11.5T160-420q0 17 11.5 28.5T200-380Zm188.5-11.5Q400-403 400-420t-11.5-28.5Q377-460 360-460t-28.5 11.5Q320-437 320-420t11.5 28.5Q343-380 360-380t28.5-11.5ZM333-255q25-11 39-35 5-11-1-20.5t-17-9.5H206q-11 0-17 9.5t-1 20.5q14 24 39 35t53 11q28 0 53-11Zm-53-85Zm390-280Z"/>
</svg>
