<svg aria-hidden="true" viewBox="0 -960 960 960" fill="currentColor">
  <path d="M691.5-531.5Q680-543 680-560t11.5-28.5Q703-600 720-600t28.5 11.5Q760-577 760-560t-11.5 28.5Q737-520 720-520t-28.5-11.5Zm0-120Q680-663 680-680v-120q0-17 11.5-28.5T720-840q17 0 28.5 11.5T760-800v120q0 17-11.5 28.5T720-640q-17 0-28.5-11.5ZM320-120q-83 0-141.5-58.5T120-320q0-48 21-89.5t59-70.5v-240q0-50 35-85t85-35q50 0 85 35t35 85v240q38 29 59 70.5t21 89.5q0 83-58.5 141.5T320-120Zm-40-440h80v-160q0-17-11.5-28.5T320-760q-17 0-28.5 11.5T280-720v160Z"/>
</svg>
