<svg aria-hidden="true" viewBox="0 -960 960 960" fill="currentColor">
  <path d="M87.413-392.348q-36.348 0-61.88-25.413Q0-443.174 0-479.522V-702.63q0-18.152 6.957-34.805 6.956-16.652 19.39-29.087l158.457-158.695q10.957-10.957 27.511-12.816 16.555-1.858 29.87 6.62Q255.5-922.935 262.337-908q6.837 14.935 3.359 30.37l-25.565 119.065h157.565q53.021 0 76.054 39.869 23.033 39.87 4.163 83.37l-80.935 187.761q-11.434 25.63-33.599 40.424-22.165 14.793-49.444 14.793H87.413Zm228.674-87.174 79.848-186.826v-4.804H138.783l23.282-106.565-74.652 73.13v225.065h228.674ZM711.13-33.63q-11.674-8.479-15.489-22.153-3.815-13.674-1.337-26.587l25.565-119.065H564.065q-53.022 0-77.315-39.489-24.294-39.489-4.663-83.75l80.935-187.761q11.434-25.63 33.599-40.424 22.165-14.793 49.444-14.793h226.522q36.348 0 61.88 25.413Q960-516.826 960-480.478v223.347q0 18.211-6.957 34.714-6.956 16.504-19.391 28.939L775.196-34.783q-13.239 13.24-31.674 12.696-18.435-.544-32.392-11.543Zm-67.217-446.848-79.848 186.826v4.804h257.152l-23.282 106.565 74.652-73.13v-225.065H643.913Zm-556.5.956v-225.065 225.065Zm785.174-.956v225.065-225.065Z"/>
</svg>
