<svg aria-hidden="true" viewBox="0 -960 960 960" fill="currentColor">
  <path d="m555.522-105.804-31.131-15.566q-18.195-9.478-22.434-29.673-4.24-20.196 9.717-36.153l67.848-77.608q6.478-7.479 15.076-11.337Q603.196-280 612.152-280q28.152 0 39.729 25.152 11.576 25.152-6.859 46.826l-29.543 33.826 31.13 15.566q18.196 9.478 22.435 29.673 4.239 20.196-9.718 36.153l-67.847 77.608Q585-7.717 576.402-3.859 567.805 0 558.848 0q-28.152 0-39.728-25.152t6.858-46.826l29.544-33.826Zm-251.001 0-31.13-15.566q-18.196-9.478-22.435-29.673-4.239-20.196 9.718-36.153l67.847-77.608q13.805-3.435 29.468-9.316 15.663-5.88 3.163-5.88 28.152 0 39.728 25.152t-6.858 46.826l-29.544 33.826 31.131 15.566q18.195 9.478 22.434 29.673 4.24 20.196-9.717 36.153l-67.848 77.608q-13.804 3.435-29.467 9.316Q295.348 0 307.848 0q-28.152 0-39.729-25.152-11.576-25.152 6.859-46.826l29.543-33.826ZM300-318.087q-93.152 0-159.326-66.174Q74.5-450.435 74.5-543.587q0-84.435 55.478-147.75t137.435-75.272q32.957-57 89.413-89.739Q413.283-889.087 480-889.087q90.957 0 158.533 57.5t83.011 143.978q69.717 7.435 116.837 59.631Q885.5-575.783 885.5-503.587q0 77.152-54.054 131.326Q777.391-318.087 700-318.087H300Z"/>
</svg>
