<svg aria-hidden="true" viewBox="0 -960 960 960" fill="currentColor">
  <path d="m556-107-34-17q-17-9-21-28t9-34l70-80q6-7 14-10.5t16-3.5q26 0 36.5 23t-6.5 43l-36 41 34 17q17 9 21 28t-9 34l-70 80q-6 7-14 10.5T550 0q-26 0-36.5-23t6.5-43l36-41Zm-240 0-34-17q-17-9-21-28t9-34l70-80q15-2 31.5-8t-1.5-6q26 0 36.5 23t-6.5 43l-36 41 34 17q17 9 21 28t-9 34l-70 80q-15 2-31.5 8t1.5 6q-26 0-36.5-23t6.5-43l36-41Zm-16-213q-91 0-155.5-64.5T80-540q0-83 55-145t136-73q32-57 87.5-89.5T480-880q90 0 156.5 57.5T717-679q69 6 116 57t47 122q0 75-52.5 127.5T700-320H300Z"/>
</svg>
