<svg aria-hidden="true" viewBox="0 -960 960 960" fill="currentColor">
  <path d="M327-40q-10 0-15.5-8T309-65l27-75h-62q-5 0-8-4t-1-9l38-107q3-9 10.5-14.5T331-280h49q11 0 17 9t1 19l-31 72h62q6 0 9 5.5t-1 10.5L346-47q-3 4-7 5.5T327-40Zm270-40q-10 0-15.5-8t-2.5-17l19-55h-64q-5 0-8-4t-1-9l31-87q3-9 10.5-14.5T584-280h48q11 0 17.5 9t1.5 19l-23 52h61q6 0 8.5 5.5T696-184l-80 97q-1 1-19 7ZM300-320q-91 0-155.5-64.5T80-540q0-83 55-145t136-73q32-57 87.5-89.5T480-880q90 0 156.5 57.5T717-679q69 6 116 57t47 122q0 75-52.5 127.5T700-320H300Z"/>
</svg>
