<svg aria-hidden="true" viewBox="0 -960 960 960" fill="currentColor">
  <path d="m555.522-105.804-31.131-15.566q-18.434-9.478-22.554-29.673-4.12-20.196 9.837-36.153l67.848-77.608q6.478-7.479 14.695-11.337Q602.435-280 612.152-280q28.152 0 39.729 25.152 11.576 25.152-6.859 46.826l-29.543 33.826 31.13 15.566q18.435 9.478 22.554 29.673 4.12 20.196-9.837 36.153l-67.847 77.608Q585-7.717 576.783-3.859 568.565 0 558.848 0q-28.152 0-39.728-25.152t6.858-46.826l29.544-33.826Zm-251.001 0-31.13-15.566q-18.196-9.478-22.435-29.673-4.239-20.196 9.718-36.153l67.847-77.608q6.479-7.479 14.696-11.337Q351.435-280 361.152-280q28.152 0 39.728 25.152t-6.858 46.826l-29.544 33.826 31.131 15.566q18.195 9.478 22.434 29.673 4.24 20.196-9.717 36.153l-67.848 77.608Q334-7.717 325.783-3.859 317.565 0 307.848 0q-28.152 0-39.729-25.152-11.576-25.152 6.859-46.826l29.543-33.826ZM300-318.087q-93.152 0-159.326-66.174Q74.5-450.435 74.5-543.587q0-84.435 55.478-147.75t137.435-75.272q32.957-57 89.413-89.739Q413.283-889.087 480-889.087q90.957 0 158.533 57.5t83.011 143.978q69.717 7.435 116.837 59.631Q885.5-575.783 885.5-503.587q0 77.152-54.054 131.326Q777.391-318.087 700-318.087H300Zm0-91h400q39.609 0 67.054-27.446 27.446-27.445 27.446-67.054t-27.446-67.054Q739.609-598.087 700-598.087h-65.5v-45.5q0-63.848-45.326-109.174Q543.848-798.087 480-798.087q-46.326 0-84.511 25.163-38.185 25.163-57.467 67.489l-11.435 27.348h-28.348q-54.848 2-93.793 40.826-38.946 38.826-38.946 93.674 0 55.609 39.446 95.054 39.445 39.446 95.054 39.446Zm180-194.5Z"/>
</svg>
