<svg aria-hidden="true" viewBox="0 -960 960 960" fill="currentColor">
  <path d="M527-271q35 0 60-21.5t25-51.5v-52q0-23-18.5-38.5T549-450q26 0 44.5-16t18.5-39v-32q0-30-25-51t-60-21H394q-15 0-25.5 10.5T358-573q0 15 10.5 25.5T394-537h133v51h-48q-15 0-25.5 10.5T443-450q0 15 10.5 25.5T479-414h48v70H394q-15 0-25.5 10.5T358-308q0 15 11 26t26 11h132ZM400-840q-17 0-28.5-11.5T360-880q0-17 11.5-28.5T400-920h160q17 0 28.5 11.5T600-880q0 17-11.5 28.5T560-840H400Zm80 760q-74 0-139.5-28.5T226-186q-49-49-77.5-114.5T120-440q0-74 28.5-139.5T226-694q49-49 114.5-77.5T480-800q62 0 119 20t107 58l28-28q11-11 28-11t28 11q11 11 11 28t-11 28l-28 28q38 50 58 107t20 119q0 74-28.5 139.5T734-186q-49 49-114.5 77.5T480-80Zm0-80q116 0 198-82t82-198q0-116-82-198t-198-82q-116 0-198 82t-82 198q0 116 82 198t198 82Zm0-280Z"/>
</svg>
