<svg aria-hidden="true" viewBox="0 -960 960 960" fill="currentColor">
  <path d="m431-301 184-122q9-6 9-17t-9-17L431-579q-10-7-20.5-1.5T400-563v246q0 12 10.5 17.5T431-301Zm-31-539q-17 0-28.5-11.5T360-880q0-17 11.5-28.5T400-920h160q17 0 28.5 11.5T600-880q0 17-11.5 28.5T560-840H400Zm-59.5 731.5Q275-137 226-186t-77.5-114.5Q120-366 120-440t28.5-139.5Q177-645 226-694t114.5-77.5Q406-800 480-800q62 0 119 20t107 58l28-28q11-11 28-11t28 11q11 11 11 28t-11 28l-28 28q38 50 58 107t20 119q0 74-28.5 139.5T734-186q-49 49-114.5 77.5T480-80q-74 0-139.5-28.5ZM678-242q82-82 82-198t-82-198q-82-82-198-82t-198 82q-82 82-82 198t82 198q82 82 198 82t198-82ZM480-440Z"/>
</svg>
