<svg aria-hidden="true" viewBox="0 -960 960 960" fill="currentColor">
  <path d="M400-840q-17 0-28.5-11.5T360-880q0-17 11.5-28.5T400-920h160q17 0 28.5 11.5T600-880q0 17-11.5 28.5T560-840H400Zm108.5 428.5Q520-423 520-440v-160q0-17-11.5-28.5T480-640q-17 0-28.5 11.5T440-600v160q0 17 11.5 28.5T480-400q17 0 28.5-11.5Zm-168 303Q275-137 226-186t-77.5-114.5Q120-366 120-440t28.5-139.5Q177-645 226-694t114.5-77.5Q406-800 480-800q62 0 119 20t107 58l28-28q11-11 28-11t28 11q11 11 11 28t-11 28l-28 28q38 50 58 107t20 119q0 74-28.5 139.5T734-186q-49 49-114.5 77.5T480-80q-74 0-139.5-28.5Z"/>
</svg>
