<svg aria-hidden="true" viewBox="0 -960 960 960" fill="currentColor">
  <path d="M127.5-247.5Q40-335 40-460t87.5-212.5Q215-760 340-760q52 0 98 16.5t84 45.5l14-14q11-11 27.5-11.5T592-712q11 11 11 28t-11 28l-14 14q29 38 45.5 84.5T640-460q0 125-87.5 212.5T340-160q-125 0-212.5-87.5ZM280-800q-17 0-28.5-11.5T240-840q0-17 11.5-28.5T280-880h120q17 0 28.5 11.5T440-840q0 17-11.5 28.5T400-800H280Zm216 496q64-64 64-156t-64-156q-64-64-156-64t-156 64q-64 64-64 156t64 156q64 64 156 64t156-64ZM368.5-431.5Q380-443 380-460v-120q0-17-11.5-28.5T340-620q-17 0-28.5 11.5T300-580v120q0 17 11.5 28.5T340-420q17 0 28.5-11.5ZM340-460Zm400-188-24 24q-11 11-28 11t-28-11q-11-11-11-28t11-28l92-92q12-12 28-12t28 12l92 92q11 12 11 28.5T899-624q-12 11-28.5 11.5T843-624l-23-23v447q0 17-11.5 28.5T780-160q-17 0-28.5-11.5T740-200v-448Z"/>
</svg>
