<svg aria-hidden="true" viewBox="0 -960 960 960" fill="currentColor">
  <path d="M324-111.5Q251-143 197-197t-85.5-127Q80-397 80-480t31.5-156Q143-709 197-763t127-85.5Q397-880 480-880t156 31.5Q709-817 763-763t85.5 127Q880-563 880-480t-31.5 156Q817-251 763-197t-127 85.5Q563-80 480-80t-156-31.5ZM440-760v-38q-30 5-59 13.5T326-760h114Zm0 120v-40H230q-8 9-14 19t-12 21h236Zm0 120v-40H170l-4 20-4 20h278Zm0 120v-40H162l4 20 4 20h270Zm0 120v-40H204q6 11 12 21t14 19h210Zm0 118v-38H326q26 16 55 24.5t59 13.5Z"/>
</svg>
