<svg aria-hidden="true" viewBox="0 -960 960 960" fill="currentColor">
  <path d="M419-80q-28 0-52.5-12T325-126L124-381q-8-9-7-21.5t9-20.5q20-21 48-25t52 11l74 45v-328q0-17 11.5-28.5T340-760q17 0 29 11.5t12 28.5v400q0 23-20.5 34.5T320-286l-36-22 104 133q6 7 14 11t17 4h221q33 0 56.5-23.5T720-240v-160q0-17-11.5-28.5T680-440H501q-17 0-28.5-11.5T461-480q0-17 11.5-28.5T501-520h179q50 0 85 35t35 85v160q0 66-47 113T640-80H419Zm83-260ZM339-960q100 0 170 70t70 170q0 25-5 48.5T559-625q-5 11-15.5 14t-21.5-2q-11-5-15.5-17t.5-25q6-16 9-32t3-33q0-75-52.5-127.5T339-900q-75 0-127.5 52.5T159-720q0 17 2.5 33.5T170-655q5 13 .5 25T155-613q-11 5-21.5 1.5T118-626q-9-22-14-45.5T99-720q0-100 70-170t170-70Zm0 100q58 0 99 41t41 99q0 10-1.5 19t-3.5 18q-4 13-15 19t-23 2q-12-4-18.5-15t-2.5-23q1-3 3-20 0-33-23.5-56.5T338-800q-33 0-56.5 23T258-720q0 5 .5 10.5T261-699q3 12-3 22t-18 13q-12 3-22.5-3T203-685q-2-7-3-15.5t-1-19.5q0-59 41-99.5t99-40.5Z"/>
</svg>
