<svg aria-hidden="true" viewBox="0 -960 960 960" fill="currentColor">
  <path d="M280-160q-45 0-78.5-28.5T162-262q-38-20-60-57t-22-81q0-53 30.5-94.5T192-552l-72-72-12 12q-11 11-28 11t-28-11q-11-11-11-28t11-28l80-80q11-11 28-11t28 11q11 11 11 28t-11 28l-12 12 56 56 32-94q12-37 43.5-59.5T378-800h204q39 0 70.5 22.5T696-718l54 162q57 11 93.5 55T880-400q0 44-22 81t-60 57q-6 45-39.5 73.5T680-160q-38 0-68.5-22T568-240H392q-13 36-43.5 58T280-160Zm16-400h144v-160h-62q-13 0-23 7.5T340-692l-44 132Zm224 0h144l-44-132q-5-13-15-20.5t-23-7.5h-62v160ZM392-320h176q13-36 43.5-58t68.5-22q30 0 56 14t44 38q9-11 14.5-24.5T800-400q0-33-23.5-56.5T720-480H240q-33 0-56.5 23.5T160-400q0 14 5.5 27.5T180-348q18-24 44-38t56-14q38 0 68.5 22t43.5 58Zm-83.5 68.5Q320-263 320-280t-11.5-28.5Q297-320 280-320t-28.5 11.5Q240-297 240-280t11.5 28.5Q263-240 280-240t28.5-11.5Zm400 0Q720-263 720-280t-11.5-28.5Q697-320 680-320t-28.5 11.5Q640-297 640-280t11.5 28.5Q663-240 680-240t28.5-11.5ZM480-400Z"/>
</svg>
