<svg aria-hidden="true" viewBox="0 -960 960 960" fill="currentColor">
  <path d="M479.945-65.413q-86.054 0-161.684-32.576-75.631-32.576-131.663-88.609-56.033-56.032-88.61-131.718-32.575-75.686-32.575-161.739 0-86.054 32.576-161.684 32.576-75.631 88.609-131.663 56.032-56.033 131.7-88.609Q393.966-894.587 480-894.587h9.522q14.761 0 24.413 9.652 9.652 9.651 9.652 24.413v305.065q19.435 11.718 31.631 31.011 12.195 19.294 12.195 44.43 0 36.064-25.688 61.747-25.688 25.682-61.761 25.682-36.073 0-61.725-25.682-25.652-25.683-25.652-61.747 0-25.136 12.195-44.81 12.196-19.674 31.631-30.631v-82.173q-52.239 14.717-86.12 57.934-33.88 43.218-33.88 99.696 0 67.48 48.044 115.533 48.045 48.054 115.511 48.054 67.467 0 115.543-48.054Q643.587-412.52 643.587-480q0-23.239-6.38-45.62Q630.826-548 618.304-568q-9.956-15.96-8.456-31.349 1.5-15.39 12.696-26.586 13.195-13.196 32.771-12.956 19.576.239 31.055 16.717 22.956 32.956 33.793 69.25T731-480q0 104.583-73.2 177.792Q584.6-229 480.028-229q-104.572 0-177.8-73.208Q229-375.417 229-480q0-93.667 59.032-162.877 59.033-69.21 148.381-84.645v-77.174q-120.674 16.196-202.25 107.83Q152.587-605.233 152.587-480q0 136.87 95.272 232.141Q343.13-152.587 480-152.587t232.141-95.272Q807.413-343.13 807.413-480q0-59.478-17.375-107.904-17.375-48.426-49.06-89.64-11.717-15.195-11.337-32.75.381-17.554 13.337-30.511 13.196-13.195 31.131-13.076 17.935.12 28.891 14.076 43.435 53.153 67.511 117.783Q894.587-557.391 894.587-480q0 86.034-32.576 161.702-32.576 75.668-88.609 131.7-56.032 56.033-131.718 88.61-75.686 32.575-161.739 32.575Z"/>
</svg>
