<svg aria-hidden="true" viewBox="0 -960 960 960" fill="currentColor">
  <path d="M480-80q-83 0-156-31.5T197-197q-54-54-85.5-127T80-480q0-83 31.5-156T197-763q54-54 127-85.5T480-880h10q13 0 21.5 8.5T520-850v301q18 11 29 28.5t11 40.5q0 33-23.5 56.5T480-400q-33 0-56.5-23.5T400-480q0-23 11-41t29-28v-86q-52 14-86 56.5T320-480q0 66 47 113t113 47q66 0 113-47t47-113q0-23-6.5-45.5T614-568q-9-14-7.5-27.5T618-619q12-12 30.5-12t29.5 16q22 32 32 66.5t10 68.5q0 100-70 170t-170 70q-100 0-170-70t-70-170q0-90 57-156.5T440-717v-81q-119 15-199.5 105T160-480q0 134 93 227t227 93q134 0 227-93t93-227q0-59-17-106t-48-87q-11-14-10.5-30t12.5-28q12-12 28.5-12t26.5 13q42 51 65 113t23 137q0 83-31.5 156T763-197q-54 54-127 85.5T480-80Z"/>
</svg>
