<svg aria-hidden="true" viewBox="0 -960 960 960" fill="currentColor">
  <path d="M278.087-274.5v-91h232.348q-11.848-14.848-19.147-32.039-7.299-17.191-11.592-36.961H358.087v-91h121.609q4.293-19.77 11.592-36.961t19.147-32.039H114.5v-91H680q85.283 0 145.391 60.082Q885.5-565.336 885.5-480.092t-60.109 145.418Q765.283-274.5 680-274.5H278.087Zm402.011-91q47.75 0 81.076-33.425 33.326-33.424 33.326-81.173 0-47.75-33.375-81.076Q727.749-594.5 680.07-594.5q-47.679 0-81.124 33.375Q565.5-527.749 565.5-480.07q0 47.679 33.425 81.124 33.424 33.446 81.173 33.446ZM74.5-434.5v-91h243.587v91H74.5Zm40 160v-91h123.587v91H114.5ZM680-480Z"/>
</svg>
