<svg aria-hidden="true" viewBox="0 -960 960 960" fill="currentColor">
  <path d="M278.087-274.5v-91h192.348q-11.848-14.848-19.147-32.039-7.299-17.191-11.592-36.961H194.5v-91h245.196q4.293-19.77 11.592-36.961t19.147-32.039H274.5v-91H640q85.283 0 145.391 60.082Q845.5-565.336 845.5-480.092t-60.109 145.418Q725.283-274.5 640-274.5H278.087Zm362.011-91q47.75 0 81.076-33.425 33.326-33.424 33.326-81.173 0-47.75-33.375-81.076Q687.749-594.5 640.07-594.5q-47.679 0-81.124 33.375Q525.5-527.749 525.5-480.07q0 47.679 33.425 81.124 33.424 33.446 81.173 33.446Zm-525.598 91v-91h123.587v91H114.5ZM640-480Z"/>
</svg>
