<svg aria-hidden="true" viewBox="0 -960 960 960" fill="currentColor">
  <path d="M600-274.5q-73.717 0-129.294-45.5-55.576-45.5-71.01-114.5H154.5v-91h245.196q4.293-19.77 11.592-36.961t19.147-32.039H234.5v-91H600q85.283 0 145.391 60.082Q805.5-565.336 805.5-480.092t-60.109 145.418Q685.283-274.5 600-274.5Zm.098-91q47.75 0 81.076-33.425 33.326-33.424 33.326-81.173 0-47.75-33.375-81.076Q647.749-594.5 600.07-594.5q-47.679 0-81.124 33.375Q485.5-527.749 485.5-480.07q0 47.679 33.425 81.124 33.424 33.446 81.173 33.446Zm-325.598 91v-91h123.348v91H274.5ZM600-480Z"/>
</svg>
