<svg aria-hidden="true" viewBox="0 -960 960 960" fill="currentColor">
  <path d="M160-260v-380q0-97 85-127t195-33l30-60H310q-13 0-21.5-8.5T280-890q0-13 8.5-21.5T310-920h340q13 0 21.5 8.5T680-890q0 13-8.5 21.5T650-860H550l-30 60q119 3 199.5 32.5T800-640v380q0 59-40.5 99.5T660-120l20 20q17 17 8 38.5T655-40q-7 0-13.5-2.5T630-50l-70-70H400l-70 70q-5 5-11.5 7.5T305-40q-23 0-32.5-21.5T280-100l20-20q-59 0-99.5-40.5T160-260Zm362.5 2.5Q540-275 540-300t-17.5-42.5Q505-360 480-360t-42.5 17.5Q420-325 420-300t17.5 42.5Q455-240 480-240t42.5-17.5ZM240-480h480v-120H240v120Z"/>
</svg>
