<svg aria-hidden="true" viewBox="0 -960 960 960" fill="currentColor">
  <path d="m606.63-197.217-36.073 99.148q-4.122 11.243-14.272 18.363-10.149 7.12-22.328 7.12-20.479 0-32.979-16.806-12.5-16.804-4.5-37.174l154.767-409.426q5.103-11.204 15.265-18.323 10.161-7.12 22.355-7.12h30.485q12.194 0 22.289 7.134 10.096 7.134 15.144 18.344l155.348 410.414q8 19.349-4.157 36.153-12.156 16.803-32.546 16.803-13.254 0-23.113-7.5-9.858-7.5-14.858-19.978L803.9-197.217H606.63Zm24.24-71.196H777.5L706.143-470h-4.078L630.87-268.413ZM357.848-398.565 182.5-223.456q-11.478 11.239-28.598 11.358-17.12.12-28.359-11.239t-11.119-28.598q.119-17.239 11.333-28.438L303.13-457.522q-38.956-42.956-67.815-88.674-28.859-45.717-50.337-96.674h85.435q18.478 36.479 39.337 66.076 20.859 29.598 50.098 62.077 44.928-48.848 74.54-100.239 29.612-51.392 50.09-109.348H72.645q-17.33 0-29.053-11.859-11.723-11.859-11.723-29.144 0-17.285 11.86-28.978 11.858-11.693 29.156-11.693h244.203v-40.718q0-17.305 11.702-29.011 11.701-11.706 28.999-11.706t29.007 11.706q11.708 11.706 11.708 29.011v40.718h244.357q17.309 0 29.017 11.706 11.709 11.706 11.709 29.011 0 17.239-11.706 29.098-11.707 11.859-29.011 11.859h-76.957q-21.478 71.956-58.315 140.391-36.837 68.435-90.794 128.391l97.913 99.674-30.239 83.435-126.63-126.152Z"/>
</svg>
