<svg aria-hidden="true" viewBox="0 -960 960 960" fill="currentColor">
  <path d="M599.522-565.805q0-62.282 19.521-122.586 19.522-60.305 59.609-113.109 13.239-18.196 35.696-20.033 22.456-1.837 37.935 13.642 13.195 13.195 14.097 31.63.903 18.435-9.815 33.87-27.326 41.087-41.25 85.413-13.924 44.326-13.924 91.173 0 46.087 14.044 91.935 14.043 45.848 41.369 85.413 10.718 15.435 9.816 33.609-.903 18.174-14.098 31.369-15.718 15.718-38.055 13.761-22.337-1.956-35.815-20.152-40.087-54.043-59.609-113.967-19.521-59.924-19.521-121.968Zm186.608 0q0-23.76 6-48.163 6-24.402 17.522-45.923 9.478-18.674 30.272-23.816 20.793-5.141 38.511 7.25 15.804 10.479 22.848 28.239 7.043 17.761-.957 35.283-5 11.283-8 23.065-3 11.783-2.761 24.065.239 12.283 2.881 24.566 2.641 12.282 7.641 23.565 8 16.761 1.337 34.522-6.663 17.76-22.467 28.239-17.479 12.391-38.153 7.13t-30.391-23.935Q797.891-494 792.011-517.642q-5.881-23.641-5.881-48.163ZM355.217-408.37q-69.587 0-118.859-49.272-49.271-49.271-49.271-118.858t49.271-118.859q49.272-49.272 118.859-49.272 69.587 0 118.859 49.272 49.272 49.272 49.272 118.859 0 69.587-49.152 118.858-49.153 49.272-118.979 49.272ZM72.587-72.348q-19.152 0-32.326-13.174t-13.174-32.326v-74.869q0-36.587 19.271-67.261 19.272-30.674 49.272-45.674 51-26 116.794-44.359 65.793-18.359 142.793-18.359t142.794 18.12q65.793 18.119 116.793 44.119 30 15 49.272 45.913 19.272 30.914 19.272 67.501v74.869q0 19.152-13.174 32.326t-32.326 13.174H72.587Z"/>
</svg>
