<svg aria-hidden="true" viewBox="0 -960 960 960" fill="currentColor">
  <path d="M600-556q0-63 20-124.5T682-796q13-17 34.5-18t36.5 14q12 12 13.5 29t-8.5 31q-29 43-44 89t-15 95q0 48 15 96t44 89q10 14 8.5 30.5T753-312q-15 15-36.5 14T682-316q-42-55-62-116t-20-124Zm189 0q0-24 6-49t18-47q9-17 28-22.5t36 4.5q17 10 25 28t0 36q-5 12-8 24.5t-3 25.5q0 13 3 26t8 25q8 17 .5 35T878-442q-17 10-36 4.5T814-460q-13-23-19-47t-6-49ZM360-400q-66 0-113-47t-47-113q0-66 47-113t113-47q66 0 113 47t47 113q0 66-47 113t-113 47ZM80-80q-17 0-28.5-11.5T40-120v-72q0-33 17-62t47-44q51-26 115-44t141-18q77 0 141 18t115 44q30 15 47 44t17 62v72q0 17-11.5 28.5T640-80H80Z"/>
</svg>
