<svg aria-hidden="true" viewBox="0 -960 960 960" fill="currentColor">
  <path d="M599.522-565.805q0-62.282 19.521-122.586 19.522-60.305 59.609-113.109 13.239-18.196 35.696-20.033 22.456-1.837 37.935 13.642 13.195 13.195 14.097 31.63.903 18.435-9.815 33.87-27.326 41.087-41.25 85.413-13.924 44.326-13.924 91.272 0 45.988 14.044 91.836 14.043 45.848 41.369 85.413 10.718 15.435 9.816 33.609-.903 18.174-14.098 31.369-15.718 15.718-38.055 13.761-22.337-1.956-35.815-20.152-40.087-54.043-59.609-114.018-19.521-59.975-19.521-121.917Zm186.608-.115q0-23.645 6-48.048 6-24.402 17.522-45.923 9.478-18.674 30.272-23.816 20.793-5.141 38.511 7.25 15.804 10.479 22.848 28.239 7.043 17.761-.957 35.283-5 11.302-8 23.075t-2.761 24.055q.239 12.283 2.881 24.566 2.641 12.282 7.641 23.565 8 16.77 1.337 34.526-6.663 17.756-22.467 28.235-17.479 12.391-38.153 7.13t-30.391-23.935Q797.891-494 792.011-517.645q-5.881-23.645-5.881-48.275ZM355.217-408.37q-69.587 0-118.859-49.272-49.271-49.271-49.271-118.858t49.271-118.859q49.272-49.272 118.859-49.272 69.587 0 118.859 49.272 49.272 49.272 49.272 118.859 0 69.587-49.272 118.858-49.272 49.272-118.859 49.272ZM72.587-72.348q-19.152 0-32.326-13.174t-13.174-32.326v-74.869q0-35.255 18.554-66.237 18.554-30.981 49.99-46.698 52.912-26.718 118.706-44.718 65.793-18 141-18 75.206 0 141.119 17.761 65.914 17.761 118.348 44.478 31.435 15.718 49.99 46.99 18.554 31.271 18.554 66.424v74.869q0 19.152-13.174 32.326t-32.326 13.174H72.587Zm45.5-91h474.261v-28.174q0-10.728-5.381-19.505-5.38-8.777-14.619-13.777-37.435-18.479-93.457-35.522-56.022-17.044-123.674-17.044-66.934 0-122.956 16.924-56.022 16.924-94.174 35.642-9.239 5-14.62 13.777-5.38 8.777-5.38 19.505v28.174ZM355.209-499.37q31.813 0 54.476-22.655 22.663-22.654 22.663-54.467t-22.655-54.476q-22.654-22.663-54.467-22.663t-54.476 22.655q-22.663 22.654-22.663 54.467t22.654 54.476q22.655 22.663 54.468 22.663Zm.008-77.13Zm0 413.152Z"/>
</svg>
