<svg aria-hidden="true" viewBox="0 -960 960 960" fill="currentColor">
  <path d="m604-202-35 97q-4 11-14 18t-22 7q-20 0-32.5-16.5T496-133l152-402q5-11 15-18t22-7h30q12 0 22 7t15 18l152 403q8 19-4 35.5T868-80q-13 0-22.5-7.5T831-107l-33-95H604Zm24-70h144l-70-198h-4l-70 198ZM360-400 188-228q-11 11-28 11t-28-11q-11-11-11-28t11-28l174-174q-38-42-66.5-87T190-640h84q18 36 38.5 65t49.5 61q44-48 73-98.5T484-720H80q-17 0-28.5-11.5T40-760q0-17 11.5-28.5T80-800h240v-40q0-17 11.5-28.5T360-880q17 0 28.5 11.5T400-840v40h240q17 0 28.5 11.5T680-760q0 17-11.5 28.5T640-720h-76q-21 71-57 138t-89 126l96 98-30 82-124-124Z"/>
</svg>
