<svg aria-hidden="true" viewBox="0 -960 960 960" fill="currentColor">
  <path d="M200-120q-33 0-56.5-23.5T120-200v-560q0-33 23.5-56.5T200-840h120q33 0 56.5 23.5T400-760v560q0 33-23.5 56.5T320-120H200Zm251.5-11.5Q440-143 440-160t11.5-28.5Q463-200 480-200t28.5 11.5Q520-177 520-160t-11.5 28.5Q497-120 480-120t-28.5-11.5Zm0-160Q440-303 440-320t11.5-28.5Q463-360 480-360t28.5 11.5Q520-337 520-320t-11.5 28.5Q497-280 480-280t-28.5-11.5Zm0-160Q440-463 440-480t11.5-28.5Q463-520 480-520t28.5 11.5Q520-497 520-480t-11.5 28.5Q497-440 480-440t-28.5-11.5Zm0-160Q440-623 440-640t11.5-28.5Q463-680 480-680t28.5 11.5Q520-657 520-640t-11.5 28.5Q497-600 480-600t-28.5-11.5Zm0-160Q440-783 440-800t11.5-28.5Q463-840 480-840t28.5 11.5Q520-817 520-800t-11.5 28.5Q497-760 480-760t-28.5-11.5Zm80 560Q520-223 520-240t11.5-28.5Q543-280 560-280t28.5 11.5Q600-257 600-240t-11.5 28.5Q577-200 560-200t-28.5-11.5Zm0-160Q520-383 520-400t11.5-28.5Q543-440 560-440t28.5 11.5Q600-417 600-400t-11.5 28.5Q577-360 560-360t-28.5-11.5Zm0-160Q520-543 520-560t11.5-28.5Q543-600 560-600t28.5 11.5Q600-577 600-560t-11.5 28.5Q577-520 560-520t-28.5-11.5Zm0-160Q520-703 520-720t11.5-28.5Q543-760 560-760t28.5 11.5Q600-737 600-720t-11.5 28.5Q577-680 560-680t-28.5-11.5Zm80 560Q600-143 600-160t11.5-28.5Q623-200 640-200t28.5 11.5Q680-177 680-160t-11.5 28.5Q657-120 640-120t-28.5-11.5Zm0-160Q600-303 600-320t11.5-28.5Q623-360 640-360t28.5 11.5Q680-337 680-320t-11.5 28.5Q657-280 640-280t-28.5-11.5Zm0-160Q600-463 600-480t11.5-28.5Q623-520 640-520t28.5 11.5Q680-497 680-480t-11.5 28.5Q657-440 640-440t-28.5-11.5Zm0-160Q600-623 600-640t11.5-28.5Q623-680 640-680t28.5 11.5Q680-657 680-640t-11.5 28.5Q657-600 640-600t-28.5-11.5Zm0-160Q600-783 600-800t11.5-28.5Q623-840 640-840t28.5 11.5Q680-817 680-800t-11.5 28.5Q657-760 640-760t-28.5-11.5ZM720-200q-17 0-28.5-11.5T680-240q0-17 11.5-28.5T720-280q17 0 28.5 11.5T760-240q0 17-11.5 28.5T720-200Zm0-160q-17 0-28.5-11.5T680-400q0-17 11.5-28.5T720-440q17 0 28.5 11.5T760-400q0 17-11.5 28.5T720-360Zm0-160q-17 0-28.5-11.5T680-560q0-17 11.5-28.5T720-600q17 0 28.5 11.5T760-560q0 17-11.5 28.5T720-520Zm-28.5-171.5Q680-703 680-720t11.5-28.5Q703-760 720-760t28.5 11.5Q760-737 760-720t-11.5 28.5Q737-680 720-680t-28.5-11.5Zm80 560Q760-143 760-160t11.5-28.5Q783-200 800-200t28.5 11.5Q840-177 840-160t-11.5 28.5Q817-120 800-120t-28.5-11.5Zm0-160Q760-303 760-320t11.5-28.5Q783-360 800-360t28.5 11.5Q840-337 840-320t-11.5 28.5Q817-280 800-280t-28.5-11.5Zm0-160Q760-463 760-480t11.5-28.5Q783-520 800-520t28.5 11.5Q840-497 840-480t-11.5 28.5Q817-440 800-440t-28.5-11.5Zm0-160Q760-623 760-640t11.5-28.5Q783-680 800-680t28.5 11.5Q840-657 840-640t-11.5 28.5Q817-600 800-600t-28.5-11.5Zm0-160Q760-783 760-800t11.5-28.5Q783-840 800-840t28.5 11.5Q840-817 840-800t-11.5 28.5Q817-760 800-760t-28.5-11.5Z"/>
</svg>
