<svg aria-hidden="true" viewBox="0 -960 960 960" fill="currentColor">
  <path d="M80-480q0-83 31.5-156T197-763q54-54 127-85.5T480-880q136 0 241 79.5T863-597q5 14-5.5 26T831-559q-17 0-31.5-9T779-593q-23-62-69.5-110T600-776v16q0 33-23.5 56.5T520-680h-80v80q0 17-11.5 28.5T400-560h-80v80h40q17 0 28.5 11.5T400-440v80h-40L168-552q-3 18-5.5 36t-2.5 36q0 122 80.5 213T443-162q16 2 26.5 13.5T480-120q0 17-11.5 28.5T441-82Q288-97 184-210T80-480Zm736 352L716-228q-21 12-45 20t-51 8q-75 0-127.5-52.5T440-380q0-75 52.5-127.5T620-560q75 0 127.5 52.5T800-380q0 27-8 51t-20 45l100 100q11 11 11 28t-11 28q-11 11-28 11t-28-11ZM620-280q42 0 71-29t29-71q0-42-29-71t-71-29q-42 0-71 29t-29 71q0 42 29 71t71 29Z"/>
</svg>
