<svg aria-hidden="true" viewBox="0 -960 960 960" fill="currentColor">
  <path d="M311-340h338q23 0 35-20.5t0-40.5L514-683q-12-20-34-20t-34 20L276-401q-12 20 0 40.5t35 20.5Zm70-80 99-164 98 164H381Zm-57 308.5Q251-143 197-197t-85.5-127Q80-397 80-480t31.5-156Q143-709 197-763t127-85.5Q397-880 480-880t156 31.5Q709-817 763-763t85.5 127Q880-563 880-480t-31.5 156Q817-251 763-197t-127 85.5Q563-80 480-80t-156-31.5ZM480-160q133 0 226.5-93.5T800-480q0-133-93.5-226.5T480-800q-133 0-226.5 93.5T160-480q0 133 93.5 226.5T480-160Zm0-320Z"/>
</svg>
