<svg aria-hidden="true" viewBox="0 -960 960 960" fill="currentColor">
  <path d="M347-116.413q-34.239 0-68.12-8.761Q245-133.935 213-152.696q-20.761 11.761-42.641 19.403-21.881 7.641-44.881 12.641-19.913 3.478-34.489-9.239-14.576-12.718-14.576-34.631 0-14.717 9.74-26.532 9.738-11.816 25.934-15.533 22-5.239 41.739-15.239 19.739-10 41.5-24.761 7.717-5.478 17.674-5.359 9.957.12 17.913 5.598 28 19.761 57.902 30.761t58.185 11q28.043 0 58.946-10.5 30.902-10.5 58.141-30.5 7.717-5.478 17.293-5.478 9.577 0 17.294 5.478 29 21 58.141 31 29.142 10 58.185 10 28.283 0 56.185-10.12 27.902-10.119 59.902-31.88 7.956-5.478 17.913-5.359 9.957.12 17.913 5.598 22.044 16.044 41.065 24.544 19.022 8.5 38.979 13.739 16.434 3.478 26.532 15.674 10.098 12.195 10.098 27.869 0 25.435-16.957 36.272-16.956 10.837-39.152 5.837-20.478-5-40.098-12.261-19.619-7.261-38.38-18.022-32.239 19.522-66.5 27.903-34.261 8.38-67.5 8.38-32.761 0-67.38-8.38Q513-133.174 481-152.696q-29.239 18.522-64.12 27.403-34.88 8.88-69.88 8.88ZM347-300q-34.761.761-69-9t-65-27.522q-15.239 8.761-31.098 15.261-15.859 6.5-33.098 11.5-28.956 8-50.674-7.413-21.717-15.413-21.717-48.13v-18.283q0-97.717 37.859-182.435 37.858-84.717 103.337-147.196 65.478-62.478 153.576-98.337Q459.283-847.413 560-847.413q11 0 22.5.5t22.739 1.5q32.152 2.478 45.989 27.272 13.837 24.793 2.12 62.424-4.761 15.521-7.261 30.684t-2.5 28.446q0 53.565 36.13 89.576Q715.848-571 769.413-571H840q18.435 0 31.011 12.576t12.576 31.011q0 18.435-12.576 31.13-12.576 12.696-31.011 12.696h-70.587q-90.435 0-151.717-61.283-61.283-61.282-61.283-151.717 0-12.804 1.641-26.75 1.642-13.946 5.163-27.75-70.652 18.957-115.141 75.663-44.489 56.707-44.489 131.837 0 35.522 11.022 66.706 11.021 31.185 30.348 58.033 4.282-2.761 8.684-5.283 4.402-2.521 8.685-6.043 7.717-5.478 17.674-5.359 9.957.12 17.913 5.598 28.239 20 60.022 30.761 31.782 10.761 57.065 10.761 25.283 0 56.185-11t59.902-30.761q7.956-5.478 17.913-5.478t17.913 5.478q19.283 13.283 38.804 23.283 19.522 10 40.044 15 17.391 4.956 27.609 16.413 10.217 11.456 10.217 27.13 0 25.391-16.554 36.75-16.555 11.359-39.468 6.12-20.761-5-40.022-12.761Q768.283-326 749-336.522 716.761-317 683.88-308.5 651-300 615-300q-35.761 0-71.761-10-36-10-62.239-26.522Q450-318 416-309.5t-69 9.5ZM230.913-430.174q29.804 21.043 56.228 31.163 26.424 10.12 55.229 10.598 4.043 0 8.206-.12 4.163-.119 8.206-.88-20.086-32.609-31.228-71.652-11.141-39.044-11.141-82.522 0-47.652 13.206-89.522 13.207-41.869 38.337-78.195-84.347 43.804-138.662 122.402-54.316 78.598-63.75 177.902h.239q8.847-5.044 15.413-9.468 6.565-4.423 13.891-9.467 7.717-5.478 17.793-5.598 10.077-.119 18.033 5.359Zm37.174-119.304Z"/>
</svg>
