<svg aria-hidden="true" viewBox="0 -960 960 960" fill="currentColor">
  <path d="M347-120q-34 0-68-9t-66-28q-21 12-43 20t-45 13q-18 3-31.5-9T80-165q0-14 9.5-24.5T114-203q22-5 41.5-15t41.5-25q7-5 16-5t16 5q28 20 58.5 31t59.5 11q29 0 60.5-10.5T466-242q7-5 15.5-5t15.5 5q29 21 58.5 31t59.5 10q29 0 57.5-10t60.5-32q7-5 16-5t16 5q23 17 42.5 25.5T846-204q15 3 24.5 14t9.5 25q0 24-16 34t-37 5q-20-5-39.5-12.5T749-157q-32 20-66.5 28.5T615-120q-33 0-67.5-8.5T481-157q-29 19-64 28t-70 9Zm0-180q-35 1-69-9t-65-28q-15 9-30.5 15.5T150-310q-28 8-49-5.5T80-361v-19q0-97 37.5-181T220-707q65-62 152.5-97.5T560-840q11 0 22.5.5T605-838q30 2 43 25t2 58q-5 16-7.5 32t-2.5 30q0 55 39 94t94 39h67q17 0 28.5 11.5T880-520q0 17-11.5 28.5T840-480h-67q-89 0-151-62t-62-151q0-14 2-29.5t6-30.5q-74 18-121 76.5T400-540q0 36 11.5 68.5T444-410l10-6q5-3 10-7 7-5 16-5t16 5q28 20 60.5 31t58.5 11q26 0 57.5-11t60.5-31q7-5 16-5t16 5q20 14 40 24t41 15q15 4 24.5 14.5T880-345q0 23-15 34t-36 6q-21-5-40.5-13T749-337q-32 20-65 28.5t-69 8.5q-36 0-72-10t-62-27q-31 19-65 27.5t-69 9.5ZM229-423q31 22 58.5 32t57.5 10h10q5 0 10-1-22-35-33.5-75T320-540q0-51 15-95.5t43-82.5q-92 45-150.5 128.5T161-400q11-6 19-11.5t17-11.5q7-5 16-5t16 5Zm41-126Z"/>
</svg>
