<svg aria-hidden="true" viewBox="0 -960 960 960" fill="currentColor">
  <path d="M565-395q35-35 35-85t-35-85q-35-35-85-35t-85 35q-35 35-35 85t35 85q35 35 85 35t85-35ZM360-40q-33 0-56.5-23.5T280-120v-720q0-33 23.5-56.5T360-920h240q33 0 56.5 23.5T680-840v720q0 33-23.5 56.5T600-40H360Zm77.5-397.5Q420-455 420-480t17.5-42.5Q455-540 480-540t42.5 17.5Q540-505 540-480t-17.5 42.5Q505-420 480-420t-42.5-17.5Zm71-294Q520-743 520-760t-11.5-28.5Q497-800 480-800t-28.5 11.5Q440-777 440-760t11.5 28.5Q463-720 480-720t28.5-11.5Z"/>
</svg>
