<svg aria-hidden="true" viewBox="0 -960 960 960" fill="currentColor">
  <path d="M448.5-471.5Q460-483 460-500t-11.5-28.5Q437-540 420-540t-28.5 11.5Q380-517 380-500t11.5 28.5Q403-460 420-460t28.5-11.5Zm120 0Q580-483 580-500t-11.5-28.5Q557-540 540-540t-28.5 11.5Q500-517 500-500t11.5 28.5Q523-460 540-460t28.5-11.5Zm-240 0Q340-483 340-500t-11.5-28.5Q317-540 300-540t-28.5 11.5Q260-517 260-500t11.5 28.5Q283-460 300-460t28.5-11.5Zm360 0Q700-483 700-500t-11.5-28.5Q677-540 660-540t-28.5 11.5Q620-517 620-500t11.5 28.5Q643-460 660-460t28.5-11.5ZM227-200l-22 66q-2 6-7 10t-12 4h-6q-8 0-14-6t-6-14v-60q-33 0-56.5-23.5T80-280v-440q0-33 23.5-56.5T160-800h640q33 0 56.5 23.5T880-720v440q0 33-23.5 56.5T800-200v61q0 8-5.5 13.5T781-120h-7q-6 0-11-3.5t-7-9.5l-22-67H227Zm-67-80h640v-440H160v440Zm320-220Z"/>
</svg>
