<svg aria-hidden="true" viewBox="0 -960 960 960" fill="currentColor">
  <path d="M160-240h640v-480H160v480Zm0 80q-33 0-56.5-23.5T80-240v-480q0-33 23.5-56.5T160-800h640q33 0 56.5 23.5T880-720v480q0 33-23.5 56.5T800-160H160Zm0-80v-480 480Zm291.5-251.5Q440-503 440-520t11.5-28.5Q463-560 480-560t28.5 11.5Q520-537 520-520t-11.5 28.5Q497-480 480-480t-28.5-11.5ZM480-680q-63 0-111.5 44.5T320-516q0 45 34 99t100 114q6 5 12.5 7.5T480-293q7 0 13.5-2.5T506-303q66-60 100-114t34-99q0-75-48.5-119.5T480-680Z"/>
</svg>
