<svg aria-hidden="true" viewBox="0 -960 960 960" fill="currentColor">
  <path d="M480-80q-83 0-156-31.5T197-197q-54-54-85.5-127T80-480q0-62 17-117.5T146-701l-91-91q-12-12-12-28.5T55-849q12-12 28.5-12t28.5 12l736 736q12 12 12 28t-12 28q-12 12-28.5 12T791-57l-90-89q-48 32-103.5 49T480-80Zm335-180L602-474l76-76q11-11 11-28t-11-28q-12-12-28.5-12T622-606l-76 77-286-286q48-31 103.5-48T480-880q83 0 156 31.5T763-763q54 54 85.5 127T880-480q0 61-17 116.5T815-260ZM282-438l114 114q12 12 28 12t28-12l36-36-56-56-8 8-86-86q-11-11-28-11t-28 11q-11 11-11 28t11 28Z"/>
</svg>
