<svg aria-hidden="true" viewBox="0 -960 960 960" fill="currentColor">
  <path d="M480-120q-75 0-140.5-28.5t-114-77q-48.5-48.5-77-114T120-480q0-53 14.5-101t40.5-90l-92-92q-12-12-12-28.5T83-820q12-12 28.5-12t28.5 12l680 680q12 12 12 28t-12 28q-12 12-28.5 12T763-84l-92-91q-42 26-90 40.5T480-120Zm0-80q36 0 69.5-8.5T613-233L233-613q-16 30-24.5 63.5T200-480q0 117 81.5 198.5T480-200Zm0-560q-36 0-69.5 8.5T347-727l-58-58q42-26 90-40.5T480-840q82 0 155.5 35T760-706v-54q0-17 11.5-28.5T800-800q17 0 28.5 11.5T840-760v160q0 17-11.5 28.5T800-560H640q-17 0-28.5-11.5T600-600q0-17 11.5-28.5T640-640h70q-41-56-101-88t-129-32Zm40 206-80-80v-6q0-17 11.5-28.5T480-680q17 0 28.5 11.5T520-640v86Zm265 265-58-58q6-13 11.5-27t11.5-32q5-16 18.5-24.5T798-437q17 2 27 14.5t6 27.5q-7 26-18.5 53.5T785-289Z"/>
</svg>
