<svg aria-hidden="true" viewBox="0 -960 960 960" fill="currentColor">
  <path d="M480-72.587q-34.435 0-59.011-24.695-24.576-24.696-24.576-59.131 0-21.478 10.88-39.717 10.881-18.24 29.12-29.957v-86.5H320q-36.109 0-61.761-25.652T232.587-400v-89.848q-18-9.956-29-28.435-11-18.478-11-41.717 0-34.674 24.695-59.13 24.696-24.457 59.131-24.457 34.674 0 59.13 24.457Q360-594.674 360-560q0 23.478-11 40.957-11 17.478-29 28.956V-400h116.413v-320h-37.848q-13.913 0-20.63-12.674-6.718-12.674 2.239-24.109l81.435-108.913q2.239-2.717 18.391-9.195 5.717 0 10.315 2.239t8.076 6.956l81.435 108.913q8.957 11.435 2.239 24.109Q575.348-720 561.435-720h-37.848v320H640v-76.413h-17.13q-9.435 0-16.153-6.717Q600-489.848 600-499.283v-121.434q0-9.435 6.717-16.153 6.718-6.717 16.153-6.717h121.434q9.435 0 16.272 6.717 6.837 6.718 6.837 16.153v121.434q0 9.435-6.837 16.153-6.837 6.717-16.272 6.717h-16.891V-400q0 36.109-25.652 61.761T640-312.587H523.587v86.022q19 10.956 29.5 29.435 10.5 18.478 10.5 40.717 0 34.435-24.576 59.13Q514.435-72.587 480-72.587Z"/>
</svg>
