<svg aria-hidden="true" viewBox="0 -960 960 960" fill="currentColor">
  <path d="M600-680q-17 0-28.5-11.5T560-720q0-17 11.5-28.5T600-760h240q17 0 28.5 11.5T880-720q0 17-11.5 28.5T840-680H600Zm0 160q-17 0-28.5-11.5T560-560q0-17 11.5-28.5T600-600h240q17 0 28.5 11.5T880-560q0 17-11.5 28.5T840-520H600Zm0 160q-17 0-28.5-11.5T560-400q0-17 11.5-28.5T600-440h240q17 0 28.5 11.5T880-400q0 17-11.5 28.5T840-360H600Zm-365-75q-35-35-35-85t35-85q35-35 85-35t85 35q35 35 35 85t-35 85q-35 35-85 35t-85-35ZM80-200v-36q0-21 10-40t28-30q45-27 95.5-40.5T320-360q56 0 106.5 13.5T522-306q18 11 28 30t10 40v36q0 17-11.5 28.5T520-160H120q-17 0-28.5-11.5T80-200Zm86-40h308q-35-20-74-30t-80-10q-41 0-80 10t-74 30Zm182.5-251.5Q360-503 360-520t-11.5-28.5Q337-560 320-560t-28.5 11.5Q280-537 280-520t11.5 28.5Q303-480 320-480t28.5-11.5ZM320-520Zm0 280Z"/>
</svg>
