<svg aria-hidden="true" viewBox="0 -960 960 960" fill="currentColor">
  <path d="M75-115q-35-35-35-85t35-85q35-35 85-35t85 35q35 35 35 85t-35 85q-35 35-85 35t-85-35Zm113.5-56.5Q200-183 200-200t-11.5-28.5Q177-240 160-240t-28.5 11.5Q120-217 120-200t11.5 28.5Q143-160 160-160t28.5-11.5ZM520-440v280q0 33-23.5 56.5T440-80h-60q-17 0-28.5-11.5T340-120q0-17 11.5-28.5T380-160h60v-280q0-33-23.5-56.5T360-520H160v80q0 17-11.5 28.5T120-400q-17 0-28.5-11.5T80-440v-80q0-33 23.5-56.5T160-600h40v-136q0-77 53.5-130.5T384-920q56 0 102 30.5t68 81.5l273 648h53q17 0 28.5 11.5T920-120q0 17-11.5 28.5T880-80H680q-17 0-28.5-11.5T640-120q0-17 11.5-28.5T680-160h60L481-776q-12-29-38.5-46.5T384-840q-44 0-74 30t-30 74v136h80q66 0 113 47t47 113ZM300-340Z"/>
</svg>
