<svg aria-hidden="true" viewBox="0 -960 960 960" fill="currentColor">
  <path d="M160-120q17 0 28.5-11.5T200-160q0-17-11.5-28.5T160-200q-17 0-28.5 11.5T120-160q0 17 11.5 28.5T160-120ZM80-40q17 0 28.5-11.5T120-80q0-17-11.5-28.5T80-120q-17 0-28.5 11.5T40-80q0 17 11.5 28.5T80-40Zm400-440q-17 0-28.5-11.5T440-520q0-17 11.5-28.5T480-560q17 0 28.5 11.5T520-520q0 17-11.5 28.5T480-480Zm-63 200-54 54q27 13 56 19.5t61 6.5q32 0 61-6.5t56-19.5l-53-54H417Zm63-480q-58 0-109 22t-89 60q-38 38-60 89t-22 109q0 63 25.5 117t69.5 92l56-56q-32-28-51.5-67.5T280-480q0-83 58.5-141.5T480-680q83 0 141.5 58.5T680-480q0 46-19.5 85.5T609-327l56 56q44-38 69.5-92T760-480q0-58-22-109t-60-89q-38-38-89-60t-109-22Zm0 160q-50 0-85 35t-35 85q0 50 35 85t85 35q50 0 85-35t35-85q0-50-35-85t-85-35Zm0 480q-75 0-140.5-28.5t-114-77q-48.5-48.5-77-114T120-480q0-75 28.5-140.5t77-114q48.5-48.5 114-77T480-840q75 0 140.5 28.5t114 77q48.5 48.5 77 114T840-480q0 75-28.5 140.5t-77 114q-48.5 48.5-114 77T480-120Zm320 0q-17 0-28.5-11.5T760-160q0-17 11.5-28.5T800-200q17 0 28.5 11.5T840-160q0 17-11.5 28.5T800-120Zm80 80q-17 0-28.5-11.5T840-80q0-17 11.5-28.5T880-120q17 0 28.5 11.5T920-80q0 17-11.5 28.5T880-40Z"/>
</svg>
