<svg aria-hidden="true" viewBox="0 -960 960 960" fill="currentColor">
  <path d="M480-480q17 0 28.5-11.5T520-520q0-17-11.5-28.5T480-560q-17 0-28.5 11.5T440-520q0 17 11.5 28.5T480-480ZM377-240h207l73 73q-39 23-84 35t-93 12q-48 0-92.5-12T304-167l73-73Zm103-600q75 0 140.5 28.5t114 77q48.5 48.5 77 114T840-480q0 79-32 147.5T722-214l-85-85q38-33 60.5-80T720-480q0-100-70-170t-170-70q-100 0-170 70t-70 170q0 54 22.5 101t60.5 80l-85 85q-54-50-86-118.5T120-480q0-75 28.5-140.5t77-114q48.5-48.5 114-77T480-840Zm0 200q66 0 113 47t47 113q0 66-47 113t-113 47q-66 0-113-47t-47-113q0-66 47-113t113-47Z"/>
</svg>
