<svg aria-hidden="true" viewBox="0 -960 960 960" fill="currentColor">
  <path d="M280-200q-39-10-79.5-15t-80.5-5q-17 0-28.5-11.5T80-260q0-17 11.5-28.5T120-300q40 0 80.5-5t79.5-15v120Zm367 0H320v-120h207L84-763q-11-11-11-27.5T84-819q12-12 28.5-12t28.5 12l678 679q11 11 11.5 27.5T819-84q-11 11-28 11t-28-11L647-200Zm212-14L753-320h67q25 0 42.5 17t17.5 43q0 14-6.5 26.5T859-214Zm-439-26q8 0 14-6t6-14q0-8-6-14t-14-6q-8 0-14 6t-6 14q0 8 6 14t14 6Zm430-120q-13 0-21.5-8.5T820-390v-59q0-60-36.5-105T687-610q-13-2-20-10t-7-20q0-12 5-21.5t21-15.5q20-8 34-27t14-42q0-23-14-42t-37-28q-11-5-17-11.5t-6-17.5q0-15 11-24.5t25-5.5q39 10 68.5 45.5T794-746q0 28-11.5 53T754-650q57 27 91.5 80T880-450v60q0 13-8.5 21.5T850-360Zm-100 0q-13 0-21.5-8.5T720-390v-22q0-39-23.5-59.5T641-492h-60L446-627v-1q0-48 29.5-83t72.5-45q11-3 21.5 6t10.5 23q0 11-7.5 19.5T551-694q-20 8-32.5 26.5T506-626q0 31 21.5 52.5T580-552h61q57 0 98 36t41 90v36q0 13-8.5 21.5T750-360Z"/>
</svg>
