<svg aria-hidden="true" viewBox="0 -960 960 960" fill="currentColor">
  <path d="M274.5-192.587q-39-10-79.5-15t-80.5-5q-18.525 0-31.056-12.695-12.531-12.696-12.531-31.131 0-18.435 12.531-31.011T114.5-300q40 0 80.5-5t79.5-15v127.413Zm374.891 0H318.087V-320h203.891L82.804-759.413q-11.717-11.717-11.717-28.831 0-17.114 11.717-29.56 12.51-12.479 29.712-12.479 17.201 0 29.68 12.479l675.608 676.608q11.718 11.718 12.098 28.816.381 17.097-12.098 29.576-11.717 11.717-29.195 11.717-17.479 0-29.196-11.717L649.391-192.587Zm215.827-15.195L753-320h70.657q26.365 0 45.061 18.044 18.695 18.044 18.695 45.64 0 14.86-6.858 28.077-6.859 13.217-15.337 20.457ZM416.379-234.5q8.751 0 15.23-6.564 6.478-6.563 6.478-15.315 0-8.751-6.513-15.23-6.512-6.478-15.195-6.478t-15.281 6.513q-6.598 6.512-6.598 15.195t6.564 15.281q6.563 6.598 15.315 6.598ZM855.5-360q-13.829 0-22.871-9.042-9.042-9.042-9.042-22.871V-449q0-59.617-36.022-104.33-36.021-44.713-94.587-56.192-13.956-2.478-21.674-11.195-7.717-8.718-7.717-21.435 0-12.239 5.957-22.457 5.956-10.217 22.434-17.174 19.283-8.478 32.446-26.957 13.163-18.478 13.163-40.847 0-22.843-13.606-41.713t-35.959-27.809q-11.718-5.239-18.076-12.456-6.359-7.218-6.359-18.457 0-15.949 11.598-26.051 11.598-10.101 26.315-5.862 40.435 10.957 70.174 47.294 29.739 36.337 29.739 85.054 0 29.435-11.858 54.913-11.859 25.478-30.055 42.761 57.718 25.087 92.815 79.88 35.098 54.794 35.098 121.794v58.326q0 13.829-9.042 22.871Q869.329-360 855.5-360Zm-103.581 0q-13.723 0-22.821-9.042T720-391.913v-19.848q0-39.116-23.5-59.678Q673-492 641-492h-60L442.413-630.561v-1.026q0-48.478 29.62-84.315 29.619-35.837 73.337-46.794 12.195-3.478 23.413 6.12Q580-746.978 580-731.544q0 11-7.739 19.74-7.739 8.739-21.739 14.217-19.761 8.239-32.142 26.665Q506-652.495 506-629.587q0 31 21.5 52.5t52.5 21.5h61.239q58.373 0 100.36 37.025 41.988 37.025 41.988 92.562v34.087q0 13.829-8.973 22.871Q765.642-360 751.919-360Z"/>
</svg>
