<svg aria-hidden="true" viewBox="0 -960 960 960" fill="currentColor">
  <path d="M280-200q-39-10-79.5-15t-80.5-5q-17 0-28.5-11.5T80-260q0-16 11.5-28t28.5-12q40 0 80.5-5t79.5-15v120Zm40 0v-120h500q25 0 42.5 17.5T880-260q0 25-17.5 42.5T820-200H320Zm100-40q8 0 14-6t6-14q0-8-6-14t-14-6q-8 0-14 6t-6 14q0 8 6 14t14 6Zm330-120q-13 0-21.5-8.5T720-390v-22q0-39-23-59.5T642-492h-62q-56 0-95-39t-39-95q0-48 28.5-83.5T547-756q13-3 23 6t10 24q0 10-7.5 18T554-695q-21 8-34.5 26T506-626q0 32 22 53t52 21h62q56 0 97 36t41 90v36q0 13-8.5 21.5T750-360Zm100 0q-13 0-21.5-8.5T820-390v-60q0-60-37.5-105T687-610q-14-3-20.5-11t-6.5-19q0-15 6-23.5t20-13.5q21-8 34.5-27t13.5-42q0-24-14.5-43T683-816q-10-4-16.5-11.5T660-844q0-16 11-25.5t25-5.5q42 12 70 47.5t28 81.5q0 29-11 52.5T754-650q56 26 91 80t35 120v60q0 13-8.5 21.5T850-360Z"/>
</svg>
