<svg aria-hidden="true" viewBox="0 -960 960 960" fill="currentColor">
  <path d="M751.391-386.13h-69.717q-19.152 0-32.326-13.174t-13.174-32.326q0-19.152 13.174-32.326t32.326-13.174h69.717v-69.718q0-19.152 13.174-32.326t32.326-13.174q19.152 0 32.326 13.174t13.174 32.326v69.718h69.718q19.152 0 32.326 13.174t13.174 32.326q0 19.152-13.174 32.326t-32.326 13.174h-69.718v69.717q0 19.152-13.174 32.326t-32.326 13.174q-19.152 0-32.326-13.174t-13.174-32.326v-69.717Zm-195.217 0H163.109q-19.152 0-32.326-13.174t-13.174-32.326v-326.218q0-19.152 13.174-32.326t32.326-13.174h633.782q19.152 0 32.326 13.174t13.174 32.326v85.5h-91v-40H208.609v235.218h347.565v91Zm-347.565-171v80-235.218 155.218Z"/>
</svg>
