<svg aria-hidden="true" viewBox="0 -960 960 960" fill="currentColor">
  <path d="M796.891-270.913q-19.152 0-32.326-13.174t-13.174-32.326v-69.717h-69.717q-19.152 0-32.326-13.174t-13.174-32.326q0-19.152 13.174-32.326t32.326-13.174h69.717v-69.718q0-19.152 13.174-32.326t32.326-13.174q19.152 0 32.326 13.174t13.174 32.326v69.718h69.718q19.152 0 32.326 13.174t13.174 32.326q0 19.152-13.174 32.326t-32.326 13.174h-69.718v69.717q0 19.152-13.174 32.326t-32.326 13.174ZM163.109-386.13q-19.152 0-32.326-13.174t-13.174-32.326v-326.218q0-19.152 13.174-32.326t32.326-13.174h633.782q19.152 0 32.326 13.174t13.174 32.326v85.5h-91q-33 0-56.5 23.5t-23.5 56.5v35.218h-35.217q-33 0-56.5 23.5t-23.5 56.5v91H163.109Z"/>
</svg>
