<svg aria-hidden="true" viewBox="0 -960 960 960" fill="currentColor">
  <path d="M152.348-352.587q-19.153 0-32.327-13.174-13.173-13.174-13.173-32.326t12.673-32.326q12.674-13.174 31.827-13.174h236.456q19.152 0 32.326 13.174t13.174 32.326q0 19.152-12.674 32.326t-31.826 13.174H152.348Zm0 163.587q-19.153 0-32.327-13.174-13.173-13.174-13.173-32.326t12.673-32.326Q132.195-280 151.348-280h236.456q19.152 0 32.326 13.174t13.174 32.326q0 19.152-12.674 32.326T388.804-189H152.348Zm0-327.413q-19.153 0-32.327-13.174-13.173-13.174-13.173-32.326t12.673-32.326q12.674-13.174 31.827-13.174h236.456q19.152 0 32.326 13.174t13.174 32.326q0 19.152-12.674 32.326t-31.826 13.174H152.348Zm0-163.587q-19.153 0-32.327-13.174-13.173-13.174-13.173-32.326t12.673-32.326Q132.195-771 151.348-771h236.456q19.152 0 32.326 13.174t13.174 32.326q0 19.152-12.674 32.326T388.804-680H152.348Zm451.956 0v400-400Zm-45.5 491q-19.152 0-32.326-13.174T513.304-234.5v-491q0-19.152 13.174-32.326T558.804-771h248.848q19.153 0 32.327 13.174 13.173 13.174 13.173 32.326v491q0 19.152-13.173 32.326Q826.805-189 807.652-189H558.804Zm45.5-491v400h157.848v-400H604.304Z"/>
</svg>
