<svg aria-hidden="true" viewBox="0 -960 960 960" fill="currentColor">
  <path d="M160-360q-17 0-28.5-11.5T120-400q0-17 11-28.5t28-11.5h241q17 0 28.5 11.5T440-400q0 17-11 28.5T401-360H160Zm0 160q-17 0-28.5-11.5T120-240q0-17 11-28.5t28-11.5h241q17 0 28.5 11.5T440-240q0 17-11 28.5T401-200H160Zm0-320q-17 0-28.5-11.5T120-560q0-17 11-28.5t28-11.5h241q17 0 28.5 11.5T440-560q0 17-11 28.5T401-520H160Zm0-160q-17 0-28.5-11.5T120-720q0-17 11-28.5t28-11.5h241q17 0 28.5 11.5T440-720q0 17-11 28.5T401-680H160Zm400 480q-17 0-28.5-11.5T520-240v-480q0-17 11.5-28.5T560-760h240q17 0 28.5 11.5T840-720v480q0 17-11.5 28.5T800-200H560Z"/>
</svg>
