<svg aria-hidden="true" viewBox="0 -960 960 960" fill="currentColor">
  <path d="M546-160q-17 0-28.5-11.5T506-200q0-17 11.5-28.5T546-240h94v-480H160v91q0 17-11.5 28.5T120-589q-17 0-28.5-11.5T80-629v-91q0-33 23.5-56.5T160-800h480q33 0 56.5 23.5T720-720v180l126-126q10-10 22-5t12 19v344q0 14-12 19t-22-5L720-420v180q0 33-23.5 56.5T640-160h-94ZM98.5-178.5Q40-237 40-320t58.5-141.5Q157-520 240-520t141.5 58.5Q440-403 440-320t-58.5 141.5Q323-120 240-120T98.5-178.5ZM240-200q8 0 14-6t6-14q0-8-6-14t-14-6q-8 0-14 6t-6 14q0 8 6 14t14 6Zm0-80q8 0 14-6t6-14v-120q0-8-6-14t-14-6q-8 0-14 6t-6 14v120q0 8 6 14t14 6Zm160-200Z"/>
</svg>
