<svg aria-hidden="true" viewBox="0 -960 960 960" fill="currentColor">
  <path d="M162.87-151.869q-37.783 0-64.392-26.609Q71.87-205.087 71.87-242.87v-474.26q0-37.783 26.61-64.392 26.608-26.609 64.391-26.609h474.26q37.783 0 64.392 26.609 26.609 26.609 26.609 64.392V-540L849.11-660.978q10.435-10.435 24.728-5.098 14.294 5.337 14.294 21.25v329.652q0 15.913-14.294 21.25-14.293 5.337-24.728-5.098L728.131-420v177.13q0 37.783-26.609 64.392-26.609 26.609-64.392 26.609H162.87ZM246.978-320h306.044q14.674 0 21.011-12.674t-2.62-24.109L480.391-476.13q-6.956-9.196-18.391-9.196-11.435 0-18.391 9.196L370-380l-43.609-56.891q-6.956-9.196-18.271-9.196-11.316 0-18.272 9.196l-61.261 80.108q-8.957 11.435-2.62 24.109Q232.304-320 246.978-320Z"/>
</svg>
