<svg aria-hidden="true" viewBox="0 -960 960 960" fill="currentColor">
  <path d="M531-160q-21 0-31.5-18t-1.5-38q10-25 15-51.5t5-53.5q0-116-81.5-197.5T239-600q-26 0-52 4.5T136-581q-20 8-38-2.5T80-614v-106q0-33 23.5-56.5T160-800h480q33 0 56.5 23.5T720-720v180l126-126q10-10 22-5t12 19v344q0 14-12 19t-22-5L720-420v180q0 33-23.5 56.5T640-160H531ZM98.5-178.5Q40-237 40-320t58.5-141.5Q157-520 240-520t141.5 58.5Q440-403 440-320t-58.5 141.5Q323-120 240-120T98.5-178.5ZM240-280q8 0 14-6t6-14v-120q0-8-6-14t-14-6q-8 0-14 6t-6 14v120q0 8 6 14t14 6Zm0 80q8 0 14-6t6-14q0-8-6-14t-14-6q-8 0-14 6t-6 14q0 8 6 14t14 6Z"/>
</svg>
