<svg aria-hidden="true" viewBox="0 -960 960 960" fill="currentColor">
  <path d="M162.87-151.869q-37.783 0-64.392-26.609Q71.87-205.087 71.87-242.87v-474.26q0-37.783 26.61-64.392 26.608-26.609 64.391-26.609h474.26q37.783 0 64.392 26.609 26.609 26.609 26.609 64.392V-540L849.11-660.978q11.435-11.435 25.228-5.598 13.794 5.837 13.794 21.75v329.652q0 15.913-13.794 21.75-13.793 5.837-25.228-5.598L728.131-420v177.13q0 37.783-26.609 64.392-26.609 26.609-64.392 26.609H162.87Zm0-91.001h474.26v-474.26H162.87v474.26Zm0 0v-474.26 474.26Z"/>
</svg>
