<svg aria-hidden="true" viewBox="0 -960 960 960" fill="currentColor">
  <path d="M849.109-299.022 728.131-420v70.587l-91.001-91V-717.13H360.413l-91-91.001H637.13q37.783 0 64.392 26.609 26.609 26.609 26.609 64.392V-540l120.978-120.978q11.435-11.435 25.228-5.598 13.794 5.837 13.794 21.75v329.652q0 15.913-13.794 21.75-13.793 5.837-25.228-5.598Zm-52.957 248.37L49.413-797.63q-11.717-11.718-11.598-28.435.12-16.718 12.598-29.196 11.717-11.717 29.315-11.717t29.315 11.717l746.979 746.978q11.717 11.718 11.598 28.555-.12 16.837-12.598 29.315-11.718 11.717-29.435 11.598-17.717-.12-29.435-11.837Zm-296-526.5ZM156.413-808.131l91 91.001H162.87v474.26h474.26v-84.543l90.522 90.522q-1.913 35.63-28.043 60.326-26.131 24.696-62.479 24.696H162.87q-37.783 0-64.392-26.609Q71.87-205.087 71.87-242.87v-474.26q0-36.109 24.696-62.359t60.326-28.163l-.478-.479Zm225.109 344.609Z"/>
</svg>
