<svg aria-hidden="true" viewBox="0 -960 960 960" fill="currentColor">
  <path d="M797.152-50.652 50.413-797.63q-11.717-11.718-11.598-28.435.12-16.718 12.598-29.196 11.717-11.717 29.315-11.717t29.315 11.717l746.979 746.978q11.717 11.718 11.598 28.555-.12 16.837-12.598 29.315-11.718 11.717-29.435 11.598-17.717-.12-29.435-11.837Zm-68.021-298.761L270.413-808.131H638.13q37.783 0 64.392 26.609 26.609 26.609 26.609 64.392V-540l120.978-120.978q10.435-10.435 24.728-5.098 14.294 5.337 14.294 21.25v329.652q0 15.913-14.294 21.25-14.293 5.337-24.728-5.098L729.131-420v70.587ZM157.652-807.652l570.761 570.761q-.761 35.109-28.467 60.065-27.707 24.957-62.816 24.957H162.87q-37.783 0-64.392-26.609Q71.87-205.087 71.87-242.87v-474.26q0-35.109 25.337-62.816 25.337-27.706 60.446-27.706Z"/>
</svg>
