<svg aria-hidden="true" viewBox="0 -960 960 960" fill="currentColor">
  <path d="M236.413-316.413h327.174v-23.674q0-59.956-57.815-79.935Q447.957-440 400-440q-47.957 0-105.772 19.978-57.815 19.979-57.815 79.935v23.674ZM400-480q33.957 0 57.935-23.978 23.978-23.979 23.978-57.935 0-33.957-23.978-57.815-23.978-23.859-57.935-23.859t-57.935 23.859q-23.978 23.858-23.978 57.815 0 33.956 23.978 57.935Q366.043-480 400-480ZM162.87-151.869q-37.783 0-64.392-26.609Q71.87-205.087 71.87-242.87v-474.26q0-37.783 26.61-64.392 26.608-26.609 64.391-26.609h474.26q37.783 0 64.392 26.609 26.609 26.609 26.609 64.392V-540L849.11-660.978q10.435-10.435 24.728-5.098 14.294 5.337 14.294 21.25v329.652q0 15.913-14.294 21.25-14.293 5.337-24.728-5.098L728.131-420v177.13q0 37.783-26.609 64.392-26.609 26.609-64.392 26.609H162.87Z"/>
</svg>
