<svg aria-hidden="true" viewBox="0 -960 960 960" fill="currentColor">
  <path d="M400-320.239q17 0 28.5-11.5t11.5-28.5v-80h80q17 0 28.5-11.5t11.5-28.5q0-17-11.5-28.5t-28.5-11.5h-80v-80q0-17-11.5-28.5t-28.5-11.5q-17 0-28.5 11.5t-11.5 28.5v80h-80q-17 0-28.5 11.5t-11.5 28.5q0 17 11.5 28.5t28.5 11.5h80v80q0 17 11.5 28.5t28.5 11.5Zm-237.13 168.37q-37.783 0-64.392-26.609Q71.87-205.087 71.87-242.87v-474.26q0-37.783 26.61-64.392 26.608-26.609 64.391-26.609h474.26q37.783 0 64.392 26.609 26.609 26.609 26.609 64.392V-540L849.11-660.978q10.435-10.435 24.728-5.098 14.294 5.337 14.294 21.25v329.652q0 15.913-14.294 21.25-14.293 5.337-24.728-5.098L728.131-420v177.13q0 37.783-26.609 64.392-26.609 26.609-64.392 26.609H162.87Zm0-91.001h474.26v-474.26H162.87v474.26Zm0 0v-474.26 474.26Z"/>
</svg>
