<svg aria-hidden="true" viewBox="0 -960 960 960" fill="currentColor">
  <path d="M120-120q-33 0-56.5-23.5T40-200v-440q0-17 11.5-28.5T80-680q17 0 28.5 11.5T120-640v440h600q17 0 28.5 11.5T760-160q0 17-11.5 28.5T720-120H120Zm731.5-531.5Q840-663 840-680v-80h-80q-17 0-28.5-11.5T720-800q0-17 11.5-28.5T760-840h80q33 0 56.5 23.5T920-760v80q0 17-11.5 28.5T880-640q-17 0-28.5-11.5Zm-640 0Q200-663 200-680v-80q0-33 23.5-56.5T280-840h80q17 0 28.5 11.5T400-800q0 17-11.5 28.5T360-760h-80v80q0 17-11.5 28.5T240-640q-17 0-28.5-11.5ZM760-280q-17 0-28.5-11.5T720-320q0-17 11.5-28.5T760-360h80v-80q0-17 11.5-28.5T880-480q17 0 28.5 11.5T920-440v80q0 33-23.5 56.5T840-280h-80Zm-480 0q-33 0-56.5-23.5T200-360v-80q0-17 11.5-28.5T240-480q17 0 28.5 11.5T280-440v80h80q17 0 28.5 11.5T400-320q0 17-11.5 28.5T360-280h-80Zm231-140 192-123q9-6 9-17t-9-17L511-700q-10-7-20.5-1T480-683v246q0 12 10.5 18t20.5-1Z"/>
</svg>
