<svg aria-hidden="true" viewBox="0 -960 960 960" fill="currentColor">
  <path d="M811.5-571.5Q800-583 800-600v-120H680q-17 0-28.5-11.5T640-760q0-17 11.5-28.5T680-800h120q33 0 56.5 23.5T880-720v120q0 17-11.5 28.5T840-560q-17 0-28.5-11.5ZM120-560q-17 0-28.5-11.5T80-600v-120q0-33 23.5-56.5T160-800h120q17 0 28.5 11.5T320-760q0 17-11.5 28.5T280-720H160v120q0 17-11.5 28.5T120-560Zm40 400q-33 0-56.5-23.5T80-240v-120q0-17 11.5-28.5T120-400q17 0 28.5 11.5T160-360v120h120q17 0 28.5 11.5T320-200q0 17-11.5 28.5T280-160H160Zm220-177v-286q0-12 10.5-18t20.5 1l223 143q9 6 9 17t-9 17L411-320q-10 7-20.5 1T380-337ZM640-1q-17 0-28.5-11.5T600-41q0-17 11.5-28.5T640-81h240q17 0 28.5 11.5T920-41q0 17-11.5 28.5T880-1H640Zm80-273v-126q0-17 11.5-28.5T760-440q17 0 28.5 11.5T800-400v126l36-35q11-11 27.5-11t28.5 12q11 11 11 28t-11 28L774-134q-6 6-14 6t-14-6L628-252q-11-11-11.5-27.5T628-308q11-11 27.5-11.5T684-309l36 35Z"/>
</svg>
