<svg aria-hidden="true" viewBox="0 -960 960 960" fill="currentColor">
  <path d="M162.87-151.869q-37.783 0-64.392-26.609Q71.87-205.087 71.87-242.87v-474.26q0-37.783 26.61-64.392 26.608-26.609 64.391-26.609h474.26q37.783 0 64.392 26.609 26.609 26.609 26.609 64.392V-540L849.11-660.978q11.435-11.435 25.228-5.598 13.794 5.837 13.794 21.75v329.652q0 15.913-13.794 21.75-13.793 5.837-25.228-5.598L728.131-420v177.13q0 37.783-26.609 64.392-26.609 26.609-64.392 26.609H162.87Zm0-91.001h474.26v-474.26H162.87v474.26ZM246.978-320h306.044q14.674 0 21.011-12.674t-2.62-24.109L480.391-476.13q-6.883-9.435-18.354-9.435-11.472 0-18.428 9.435L370-380l-43.609-56.891q-6.956-9.196-18.271-9.196-11.316 0-18.272 9.196l-61.261 80.108q-8.957 11.435-2.62 24.109Q232.304-320 246.978-320Zm-84.108 77.13v-474.26 474.26Z"/>
</svg>
