<svg aria-hidden="true" viewBox="0 -960 960 960" fill="currentColor">
  <path d="M160-240q-33 0-56.5-23.5T80-320v-320q0-33 23.5-56.5T160-720h640q33 0 56.5 23.5T880-640v320q0 33-23.5 56.5T800-240H160Zm120-200v40q0 17 11.5 28.5T320-360q17 0 28.5-11.5T360-400v-40h40q17 0 28.5-11.5T440-480q0-17-11.5-28.5T400-520h-40v-40q0-17-11.5-28.5T320-600q-17 0-28.5 11.5T280-560v40h-40q-17 0-28.5 11.5T200-480q0 17 11.5 28.5T240-440h40Zm342.5 62.5Q640-395 640-420t-17.5-42.5Q605-480 580-480t-42.5 17.5Q520-445 520-420t17.5 42.5Q555-360 580-360t42.5-17.5Zm120-120Q760-515 760-540t-17.5-42.5Q725-600 700-600t-42.5 17.5Q640-565 640-540t17.5 42.5Q675-480 700-480t42.5-17.5Z"/>
</svg>
