<svg aria-hidden="true" viewBox="0 -960 960 960" fill="currentColor">
  <path d="M340-540H200q-33 0-56.5-23.5T120-620v-140q0-33 23.5-56.5T200-840h140q33 0 56.5 23.5T420-760v140q0 33-23.5 56.5T340-540Zm0 420H200q-33 0-56.5-23.5T120-200v-140q0-33 23.5-56.5T200-420h140q33 0 56.5 23.5T420-340v140q0 33-23.5 56.5T340-120Zm420-420H620q-33 0-56.5-23.5T540-620v-140q0-33 23.5-56.5T620-840h140q33 0 56.5 23.5T840-760v140q0 33-23.5 56.5T760-540Zm0 420H620q-33 0-56.5-23.5T540-200v-140q0-33 23.5-56.5T620-420h140q33 0 56.5 23.5T840-340v140q0 33-23.5 56.5T760-120Z"/>
</svg>
