<svg aria-hidden="true" viewBox="0 -960 960 960" fill="currentColor">
  <path d="M114.5-276.413q-19.152 0-32.326-13.174T69-321.913v-316.174q0-19.152 13.174-32.326t32.326-13.174h78.087q19.152 0 32.326 13.174t13.174 32.326v316.174q0 19.152-13.174 32.326t-32.326 13.174H114.5Zm209.087 83.826q-19.152 0-32.326-13.174t-13.174-32.326v-483.826q0-19.152 13.174-32.326t32.326-13.174h312.826q19.152 0 32.326 13.174t13.174 32.326v483.826q0 19.152-13.174 32.326t-32.326 13.174H323.587Zm45.5-483.826v392.826-392.826Zm398.326 400q-19.152 0-32.326-13.174t-13.174-32.326v-316.174q0-19.152 13.174-32.326t32.326-13.174H845.5q19.152 0 32.326 13.174T891-638.087v316.174q0 19.152-13.174 32.326T845.5-276.413h-78.087Zm-398.326-400v392.826h221.826v-392.826H369.087Z"/>
</svg>
