<svg aria-hidden="true" viewBox="0 -960 960 960" fill="currentColor">
  <path d="M332.826-536.174H207.174q-37.783 0-64.391-26.609-26.609-26.608-26.609-64.391v-125.652q0-37.783 26.609-64.391 26.608-26.609 64.391-26.609h125.652q37.783 0 64.391 26.609 26.609 26.608 26.609 64.391v125.652q0 37.783-26.609 64.391-26.608 26.609-64.391 26.609Zm-128.043-88.609h130.434v-130.434H204.783v130.434Zm128.043 508.609H207.174q-37.783 0-64.391-26.609-26.609-26.608-26.609-64.391v-125.652q0-37.783 26.609-64.391 26.608-26.609 64.391-26.609h125.652q37.783 0 64.391 26.609 26.609 26.608 26.609 64.391v125.652q0 37.783-26.609 64.391-26.608 26.609-64.391 26.609Zm-128.043-88.609h130.434v-130.434H204.783v130.434Zm548.043-331.391H627.174q-37.783 0-64.391-26.609-26.609-26.608-26.609-64.391v-125.652q0-37.783 26.609-64.391 26.608-26.609 64.391-26.609h125.652q37.783 0 64.391 26.609 26.609 26.608 26.609 64.391v125.652q0 37.783-26.609 64.391-26.608 26.609-64.391 26.609Zm-128.043-88.609h130.434v-130.434H624.783v130.434Zm128.043 508.609H627.174q-37.783 0-64.391-26.609-26.609-26.608-26.609-64.391v-125.652q0-37.783 26.609-64.391 26.608-26.609 64.391-26.609h125.652q37.783 0 64.391 26.609 26.609 26.608 26.609 64.391v125.652q0 37.783-26.609 64.391-26.608 26.609-64.391 26.609Zm-128.043-88.609h130.434v-130.434H624.783v130.434Zm-289.566-420Zm0 289.566Zm289.566-289.566Zm0 289.566Z"/>
</svg>
