<svg aria-hidden="true" viewBox="0 -960 960 960" fill="currentColor">
  <path d="M760-640q-17 0-28.5-11.5T720-680v-80q0-17 11.5-28.5T760-800h80q17 0 28.5 11.5T880-760v80q0 17-11.5 28.5T840-640h-80Zm0 240q-17 0-28.5-11.5T720-440v-80q0-17 11.5-28.5T760-560h80q17 0 28.5 11.5T880-520v80q0 17-11.5 28.5T840-400h-80ZM120-160q-17 0-28.5-11.5T80-200v-560q0-17 11.5-28.5T120-800h480q17 0 28.5 11.5T640-760v560q0 17-11.5 28.5T600-160H120Zm640 0q-17 0-28.5-11.5T720-200v-80q0-17 11.5-28.5T760-320h80q17 0 28.5 11.5T880-280v80q0 17-11.5 28.5T840-160h-80Z"/>
</svg>
