<svg aria-hidden="true" viewBox="0 -960 960 960" fill="currentColor">
  <path d="M848.131-480ZM438.5-500q-19.152 0-32.326-13.174T393-545.5v-177.13q0-19.153 13.174-32.327t32.326-13.174h364.13q19.153 0 32.327 13.174t13.174 32.327v177.13q0 19.152-13.174 32.326T802.63-500H438.5Zm248.065 308.131q-19.152 0-32.326-13.174t-13.174-32.327V-414.5q0-19.152 13.174-32.326T686.565-460H802.63q19.153 0 32.327 13.174t13.174 32.326v177.13q0 19.153-13.174 32.327t-32.327 13.174H686.565Zm-248.065 0q-19.152 0-32.326-13.174T393-237.37V-414.5q0-19.152 13.174-32.326T438.5-460h117.065q19.152 0 32.326 13.174t13.174 32.326v177.13q0 19.153-13.174 32.327t-32.326 13.174H438.5Zm-281.13 0q-19.153 0-32.327-13.174t-13.174-32.327v-485.26q0-19.153 13.174-32.327t32.327-13.174H307.5q19.152 0 32.326 13.174T353-722.63v485.26q0 19.153-13.174 32.327T307.5-191.869H157.37Z"/>
</svg>
