<svg aria-hidden="true" viewBox="0 -960 960 960" fill="currentColor">
  <path d="M360-280v-400 400Zm412.913 87.413q-19.152 0-32.326-13.174t-13.174-32.326v-483.826q0-19.152 13.174-32.326t32.326-13.174H816.5q19.153 0 32.327 13.174Q862-741.065 862-721.913v483.826q0 19.152-13.173 32.326-13.174 13.174-32.327 13.174h-43.587Zm-454.826 0q-19.152 0-32.326-13.174t-13.174-32.326v-483.826q0-19.152 13.174-32.326t32.326-13.174h323.826q19.152 0 32.326 13.174t13.174 32.326v483.826q0 19.152-13.174 32.326t-32.326 13.174H318.087Zm-174.587 0q-19.153 0-32.327-13.174t-13.174-32.326v-483.826q0-19.152 13.174-32.326t32.327-13.174h43.587q19.152 0 32.326 13.174t13.174 32.326v483.826q0 19.152-13.174 32.326t-32.326 13.174H143.5ZM360-680v400h240v-400H360Z"/>
</svg>
