<svg aria-hidden="true" viewBox="0 -960 960 960" fill="currentColor">
  <path d="M840-480Zm-407-20q-17 0-28.5-11.5T393-540v-180q0-17 11.5-28.5T433-760h367q17 0 28.5 11.5T840-720v180q0 17-11.5 28.5T800-500H433Zm244 300q-17 0-28.5-11.5T637-240v-180q0-17 11.5-28.5T677-460h123q17 0 28.5 11.5T840-420v180q0 17-11.5 28.5T800-200H677Zm-244 0q-17 0-28.5-11.5T393-240v-180q0-17 11.5-28.5T433-460h124q17 0 28.5 11.5T597-420v180q0 17-11.5 28.5T557-200H433Zm-273 0q-17 0-28.5-11.5T120-240v-480q0-17 11.5-28.5T160-760h153q17 0 28.5 11.5T353-720v480q0 17-11.5 28.5T313-200H160Z"/>
</svg>
