<svg aria-hidden="true" viewBox="0 -960 960 960" fill="currentColor">
  <path d="M154.5-191.869q-19.152 0-32.326-13.174T109-237.37v-485.26q0-19.153 13.174-32.327t32.326-13.174h125.587q19.152 0 32.326 13.174t13.174 32.327v485.26q0 19.153-13.174 32.327t-32.326 13.174H154.5Zm261.609 0q-19.152 0-32.326-13.174t-13.174-32.327v-485.26q0-19.153 13.174-32.327t32.326-13.174H543.13q19.153 0 32.327 13.174 13.173 13.174 13.173 32.327v485.26q0 19.153-13.173 32.327-13.174 13.174-32.327 13.174H416.109Zm262.804 0q-19.152 0-32.326-13.174t-13.174-32.327v-485.26q0-19.153 13.174-32.327t32.326-13.174H804.5q19.152 0 32.326 13.174T850-722.63v485.26q0 19.153-13.174 32.327T804.5-191.869H678.913Z"/>
</svg>
