<svg aria-hidden="true" viewBox="0 -960 960 960" fill="currentColor">
  <path d="M291.5-291.5Q280-303 280-320v-280h-40q-17 0-28.5-11.5T200-640q0-17 11.5-28.5T240-680h60q25 0 42.5 17.5T360-620v300q0 17-11.5 28.5T320-280q-17 0-28.5-11.5Zm360 0Q640-303 640-320v-280h-40q-17 0-28.5-11.5T560-640q0-17 11.5-28.5T600-680h60q25 0 42.5 17.5T720-620v300q0 17-11.5 28.5T680-280q-17 0-28.5-11.5Zm-200-160Q440-463 440-480t11.5-28.5Q463-520 480-520t28.5 11.5Q520-497 520-480t-11.5 28.5Q497-440 480-440t-28.5-11.5Zm0 160Q440-303 440-320t11.5-28.5Q463-360 480-360t28.5 11.5Q520-337 520-320t-11.5 28.5Q497-280 480-280t-28.5-11.5Z"/>
</svg>
