<svg aria-hidden="true" viewBox="0 -960 960 960" fill="currentColor">
  <path d="M672.5-500q-19.152 0-32.326-13.174T627-545.5v-160.718q0-19.152 13.174-32.326t32.326-13.174h133q19.152 0 32.326 13.174T851-706.218V-545.5q0 19.152-13.174 32.326T805.5-500h-133Zm-256.587 0q-19.152 0-32.326-13.174T370.413-545.5v-160.718q0-19.152 13.174-32.326t32.326-13.174h129.174q19.152 0 32.326 13.174t13.174 32.326V-545.5q0 19.152-13.174 32.326T545.087-500H415.913ZM155.5-500q-19.152 0-32.326-13.174T110-545.5v-160.718q0-19.152 13.174-32.326t32.326-13.174h133q19.152 0 32.326 13.174T334-706.218V-545.5q0 19.152-13.174 32.326T288.5-500h-133Zm0 291.718q-19.152 0-32.326-13.174T110-253.782V-414.5q0-19.152 13.174-32.326T155.5-460h133q19.152 0 32.326 13.174T334-414.5v160.718q0 19.152-13.174 32.326T288.5-208.282h-133Zm260.413 0q-19.152 0-32.326-13.174t-13.174-32.326V-414.5q0-19.152 13.174-32.326T415.913-460h129.174q19.152 0 32.326 13.174t13.174 32.326v160.718q0 19.152-13.174 32.326t-32.326 13.174H415.913Zm256.587 0q-19.152 0-32.326-13.174T627-253.782V-414.5q0-19.152 13.174-32.326T672.5-460h133q19.152 0 32.326 13.174T851-414.5v160.718q0 19.152-13.174 32.326T805.5-208.282h-133Z"/>
</svg>
