<svg aria-hidden="true" viewBox="0 -960 960 960" fill="currentColor">
  <path d="M200-120q-33 0-56.5-23.5T120-200v-560q0-33 23.5-56.5T200-840h560q33 0 56.5 23.5T840-760v560q0 33-23.5 56.5T760-120H200Zm0-80h560v-560H200v560Zm0-560v560-560Zm91.5 91.5Q280-657 280-640v320q0 17 11.5 28.5T320-280q17 0 28.5-11.5T360-320v-320q0-17-11.5-28.5T320-680q-17 0-28.5 11.5Zm320 0Q600-657 600-640v240q0 17 11.5 28.5T640-360q17 0 28.5-11.5T680-400v-240q0-17-11.5-28.5T640-680q-17 0-28.5 11.5Zm-160 0Q440-657 440-640v120q0 17 11.5 28.5T480-480q17 0 28.5-11.5T520-520v-120q0-17-11.5-28.5T480-680q-17 0-28.5 11.5Z"/>
</svg>
