<svg aria-hidden="true" viewBox="0 -960 960 960" fill="currentColor">
  <path d="M320-280q17 0 28.5-11.5T360-320v-320q0-17-11.5-28.5T320-680q-17 0-28.5 11.5T280-640v320q0 17 11.5 28.5T320-280Zm160-200q17 0 28.5-11.5T520-520v-120q0-17-11.5-28.5T480-680q-17 0-28.5 11.5T440-640v120q0 17 11.5 28.5T480-480Zm160 120q17 0 28.5-11.5T680-400v-240q0-17-11.5-28.5T640-680q-17 0-28.5 11.5T600-640v240q0 17 11.5 28.5T640-360ZM200-120q-33 0-56.5-23.5T120-200v-560q0-33 23.5-56.5T200-840h560q33 0 56.5 23.5T840-760v560q0 33-23.5 56.5T760-120H200Zm0-80h560v-560H200v560Zm0-560v560-560Z"/>
</svg>
