<svg aria-hidden="true" viewBox="0 -960 960 960" fill="currentColor">
  <path d="M332.826-536.174H207.174q-37.783 0-64.391-26.609-26.609-26.608-26.609-64.391v-125.652q0-37.783 26.609-64.391 26.608-26.609 64.391-26.609h125.652q37.783 0 64.391 26.609 26.609 26.608 26.609 64.391v125.652q0 37.783-26.609 64.391-26.608 26.609-64.391 26.609Zm0 420H207.174q-37.783 0-64.391-26.609-26.609-26.608-26.609-64.391v-125.652q0-37.783 26.609-64.391 26.608-26.609 64.391-26.609h125.652q37.783 0 64.391 26.609 26.609 26.608 26.609 64.391v125.652q0 37.783-26.609 64.391-26.608 26.609-64.391 26.609Zm420-420H627.174q-37.783 0-64.391-26.609-26.609-26.608-26.609-64.391v-125.652q0-37.783 26.609-64.391 26.608-26.609 64.391-26.609h125.652q37.783 0 64.391 26.609 26.609 26.608 26.609 64.391v125.652q0 37.783-26.609 64.391-26.608 26.609-64.391 26.609Zm0 420H627.174q-37.783 0-64.391-26.609-26.609-26.608-26.609-64.391v-125.652q0-37.783 26.609-64.391 26.608-26.609 64.391-26.609h125.652q37.783 0 64.391 26.609 26.609 26.608 26.609 64.391v125.652q0 37.783-26.609 64.391-26.608 26.609-64.391 26.609Z"/>
</svg>
