<svg aria-hidden="true" viewBox="0 -960 960 960" fill="currentColor">
  <path d="M321.435-281.435q17 0 28.5-11.5t11.5-28.5v-317.13q0-17-11.5-28.5t-28.5-11.5q-17 0-28.5 11.5t-11.5 28.5v317.13q0 17 11.5 28.5t28.5 11.5Zm158.565-200q17 0 28.5-11.5t11.5-28.5v-117.13q0-17-11.5-28.5t-28.5-11.5q-17 0-28.5 11.5t-11.5 28.5v117.13q0 17 11.5 28.5t28.5 11.5Zm158.565 120q17 0 28.5-11.5t11.5-28.5v-237.13q0-17-11.5-28.5t-28.5-11.5q-17 0-28.5 11.5t-11.5 28.5v237.13q0 17 11.5 28.5t28.5 11.5ZM202.87-111.869q-37.783 0-64.392-26.609-26.609-26.609-26.609-64.392v-554.26q0-37.783 26.609-64.392 26.609-26.609 64.392-26.609h554.26q37.783 0 64.392 26.609 26.609 26.609 26.609 64.392v554.26q0 37.783-26.609 64.392-26.609 26.609-64.392 26.609H202.87Z"/>
</svg>
