<svg aria-hidden="true" viewBox="0 -960 960 960" fill="currentColor">
  <path d="M667-500q-17 0-28.5-11.5T627-540v-160q0-17 11.5-28.5T667-740h133q17 0 28.5 11.5T840-700v160q0 17-11.5 28.5T800-500H667Zm-253 0q-17 0-28.5-11.5T374-540v-160q0-17 11.5-28.5T414-740h133q17 0 28.5 11.5T587-700v160q0 17-11.5 28.5T547-500H414Zm-253 0q-17 0-28.5-11.5T121-540v-160q0-17 11.5-28.5T161-740h133q17 0 28.5 11.5T334-700v160q0 17-11.5 28.5T294-500H161Zm0 280q-17 0-28.5-11.5T121-260v-160q0-17 11.5-28.5T161-460h133q17 0 28.5 11.5T334-420v160q0 17-11.5 28.5T294-220H161Zm253 0q-17 0-28.5-11.5T374-260v-160q0-17 11.5-28.5T414-460h133q17 0 28.5 11.5T587-420v160q0 17-11.5 28.5T547-220H414Zm253 0q-17 0-28.5-11.5T627-260v-160q0-17 11.5-28.5T667-460h133q17 0 28.5 11.5T840-420v160q0 17-11.5 28.5T800-220H667Z"/>
</svg>
