<svg aria-hidden="true" viewBox="0 -960 960 960" fill="currentColor">
  <path d="M768.37-642.87q-19.152 0-32.326-13.174T722.87-688.37v-74.26q0-19.153 13.174-32.327t32.326-13.174h74.26q19.153 0 32.327 13.174t13.174 32.327v74.26q0 19.152-13.174 32.326T842.63-642.87h-74.26Zm0 245.5q-19.152 0-32.326-13.173-13.174-13.174-13.174-32.327v-74.5q0-19.152 13.174-32.326t32.326-13.174h74.26q19.153 0 32.327 13.174t13.174 32.326v74.5q0 19.153-13.174 32.327-13.174 13.173-32.327 13.173h-74.26Zm-651 245.501q-19.153 0-32.327-13.174T71.87-197.37v-565.26q0-19.153 13.174-32.327t32.327-13.174h480q19.152 0 32.326 13.174t13.174 32.327v565.26q0 19.153-13.174 32.327t-32.326 13.174h-480Zm651 0q-19.152 0-32.326-13.174T722.87-197.37v-74.499q0-19.153 13.174-32.327t32.326-13.174h74.26q19.153 0 32.327 13.174t13.174 32.327v74.499q0 19.153-13.174 32.327t-32.327 13.174h-74.26Z"/>
</svg>
