<svg aria-hidden="true" viewBox="0 -960 960 960" fill="currentColor">
  <path d="M779.652-297.848 645.435-432.065q7.282-15.805 10.924-32.946Q660-482.152 660-500q0-75-52.5-127.5T480-680q-18.326 0-34.989 3.641-16.663 3.642-32.946 10.924L304.087-773.413q41-17 84.956-25.5 43.957-8.5 90.957-8.5 143.717 0 259.272 75.858 115.554 75.859 174.706 200.207 3.479 5.718 4.598 14.174 1.12 8.457 1.12 17.174 0 8.717-1.62 17.174-1.619 8.456-4.098 14.174-23.239 50.522-57.5 94.282-34.26 43.761-76.826 76.522ZM759.696-82.326 625.435-215.065q-34.522 11.239-70.5 16.859-35.978 5.619-74.935 5.619-143.717 0-259.272-75.978-115.554-75.978-174.706-200.087-3.479-5.718-4.598-14.174-1.12-8.457-1.12-17.174 0-8.717 1.12-16.794 1.12-8.076 4.598-13.793 20.76-44.043 49.402-81.804 28.641-37.761 62.924-69.761l-80.37-81.37q-11.717-11.717-11.717-28.815t12.478-29.576q11.717-11.717 29.315-11.717t29.316 11.717l680.956 680.956q11.717 11.718 12.098 28.935.38 17.218-12.098 29.696-11.717 11.717-29.315 11.717t-29.315-11.717ZM480-320q9.804 0 18.348-.88 8.543-.881 18.348-3.642L304.043-536.696q-2.521 9.805-3.282 18.468Q300-509.565 300-500q0 75 52.5 127.5T480-320Zm98.587-178.913-98-98q46.717-7.326 76.022 26.141 29.304 33.468 21.978 71.859Z"/>
</svg>
