<svg aria-hidden="true" viewBox="0 -960 960 960" fill="currentColor">
  <path d="M772-300 644-428q8-17 12-34.5t4-37.5q0-75-52.5-127.5T480-680q-20 0-37.5 4T408-664L306-766q41-17 84-25.5t90-8.5q143 0 257 75.5T908-528q3 5 4 12.5t1 15.5q0 8-1.5 15.5T908-472q-23 51-57.5 95T772-300Zm-8 216L624-222q-35 11-70.5 16.5T480-200q-143 0-257-75.5T52-472q-3-5-4-12.5T47-500q0-8 1-15t4-12q21-45 50-83t64-70l-83-84q-11-11-11-27.5T84-820q11-11 28-11t28 11l680 680q11 11 11.5 27.5T820-84q-11 11-28 11t-28-11ZM480-320q11 0 20.5-1t20.5-4L305-541q-3 11-4 20.5t-1 20.5q0 75 52.5 127.5T480-320Zm106-166L466-606q57-9 93 32t27 88Z"/>
</svg>
