<svg aria-hidden="true" viewBox="0 -960 960 960" fill="currentColor">
  <path d="m645.435-432.065-68.283-68.283q7.326-38.391-22.337-72.217t-76.38-26.5l-66.37-66.37q16.283-7.282 32.946-10.924Q461.674-680 480-680q75 0 127.5 52.5T660-500q0 17.848-3.641 34.989-3.642 17.141-10.924 32.946ZM779.652-299.37l-62.782-61.26q36.326-28.522 64.75-62.185 28.423-33.663 49.902-77.185-50.479-100.761-143.5-160.38Q595-720 480-720q-29 0-55.685 3.761-26.685 3.761-52.011 11.043l-68.217-68.217q41-17 84.956-25.5 43.957-8.5 90.957-8.5 143.717 0 259.272 75.858 115.554 75.859 174.706 200.207 3.479 5.718 4.598 14.174 1.12 8.457 1.12 17.174 0 8.717-1.62 17.174-1.619 8.456-4.098 14.174-23.239 50.522-57.5 93.522-34.26 43-76.826 75.76ZM759.696-82.326 625.435-215.065q-34.522 11.239-70.5 16.859-35.978 5.619-74.935 5.619-143.717 0-259.272-75.978-115.554-75.978-174.706-200.087-3.479-5.718-4.598-14.174-1.12-8.457-1.12-17.174 0-8.717 1.12-16.794 1.12-8.076 4.598-13.793 20.76-44.043 49.402-81.804 28.641-37.761 62.924-69.761l-80.37-81.37q-11.717-11.717-11.717-28.815t12.478-29.576q11.717-11.717 29.315-11.717t29.316 11.717l680.956 680.956q11.717 11.718 12.098 28.935.38 17.218-12.098 29.696-11.717 11.717-29.315 11.717t-29.315-11.717ZM219.848-621.37q-28.522 26.479-51.207 56.044-22.684 29.565-39.924 65.326 50 101 143.142 160.5Q365-280 480-280q17.848 0 35.772-2.141 17.924-2.142 37.924-5.142l-36-38q-9.805 2.761-18.848 4.022Q489.804-320 480-320q-75 0-127.5-52.5T300-500q0-9.565 1.141-18.728 1.142-9.163 3.663-18.968l-84.956-83.674Zm324.739 88.457Zm-157.935 78.587Z"/>
</svg>
