<svg aria-hidden="true" viewBox="0 -960 960 960" fill="currentColor">
  <path d="M291.5-528.5Q300-537 300-550v-20q0-13-8.5-21.5T270-600q-13 0-21.5 8.5T240-570v20q0 13 8.5 21.5T270-520q13 0 21.5-8.5Zm100 80Q400-457 400-470v-180q0-13-8.5-21.5T370-680q-13 0-21.5 8.5T340-650v180q0 13 8.5 21.5T370-440q13 0 21.5-8.5Zm110 80Q510-377 510-390v-340q0-13-8.5-21.5T480-760q-13 0-21.5 8.5T450-730v340q0 13 8.5 21.5T480-360q13 0 21.5-8.5Zm110-80Q620-457 620-470v-180q0-13-8.5-21.5T590-680q-13 0-21.5 8.5T560-650v180q0 13 8.5 21.5T590-440q13 0 21.5-8.5Zm100-80Q720-537 720-550v-20q0-13-8.5-21.5T690-600q-13 0-21.5 8.5T660-570v20q0 13 8.5 21.5T690-520q13 0 21.5-8.5ZM240-240l-92 92q-19 19-43.5 8.5T80-177v-623q0-33 23.5-56.5T160-880h640q33 0 56.5 23.5T880-800v480q0 33-23.5 56.5T800-240H240Z"/>
</svg>
