<svg aria-hidden="true" viewBox="0 -960 960 960" fill="currentColor">
  <path d="M248.5-528.5Q240-537 240-550v-20q0-13 8.5-21.5T270-600q13 0 21.5 8.5T300-570v20q0 13-8.5 21.5T270-520q-13 0-21.5-8.5Zm420 0Q660-537 660-550v-20q0-13 8.5-21.5T690-600q13 0 21.5 8.5T720-570v20q0 13-8.5 21.5T690-520q-13 0-21.5-8.5ZM340-470v-150l60 60v90q0 13-8.5 21.5T370-440q-13 0-21.5-8.5T340-470Zm110 80v-120l60 60v60q0 13-8.5 21.5T480-360q-13 0-21.5-8.5T450-390Zm51.5-361.5Q510-743 510-730v94q0 15-9.5 22t-20.5 7q-11 0-20.5-7.5T450-636v-94q0-13 8.5-21.5T480-760q13 0 21.5 8.5Zm110 80Q620-663 620-650v124q0 15-9.5 22t-20.5 7q-11 0-20.5-7.5T560-526v-124q0-13 8.5-21.5T590-680q13 0 21.5 8.5ZM880-800v498q0 17-11.5 28.5T840-262q-15 0-27.5-10T800-302v-498H291q-20 0-30-12.5T251-840q0-15 10-27.5t30-12.5h509q33 0 56.5 23.5T880-800ZM240-240l-92 92q-19 19-43.5 8.5T80-177v-591l-24-24q-11-11-11-28t11-28q11-11 28-11t28 11l736 736q11 11 11.5 27.5T848-56q-11 11-28 11t-28-11L606-240H240Zm297-297Zm-193 33ZM160-688v413l46-45h322L160-688Z"/>
</svg>
