<svg aria-hidden="true" viewBox="0 -960 960 960" fill="currentColor">
  <path d="M514-556 320-752q9-3 19-5.5t21-2.5q66 0 113 47t47 113q0 11-1.5 22t-4.5 22ZM759-80l-79-80q0 17-11.5 28.5T640-120H80q-17 0-28.5-11.5T40-160v-72q0-33 17-62t47-44q51-26 115-44t141-18q26 0 49.5 2.5T456-392l-56-54q-9 3-19 4.5t-21 1.5q-66 0-113-47t-47-113q0-11 1.5-21t4.5-19L84-764q-12-12-12-28t12-28q11-11 28-11t28 11l675 685q11 11 11.5 27T816-80q-11 12-28 12.5T759-80Zm6-275q-11-11-11.5-28t10.5-31q31-38 48.5-85.5T830-600q0-52-17.5-99T764-784q-11-14-11-31t12-29q14-14 33.5-14t31.5 14q42 51 66 113t24 131q0 69-24 131t-66 113q-12 14-31.5 14.5T765-355ZM636-484q-11-11-12.5-28.5T632-547q7-12 10.5-25.5T646-600q0-14-3.5-27.5T632-653q-10-17-8.5-34.5T636-716q14-14 34-13.5t31 15.5q17 25 27 53.5t10 60.5q0 32-10 60.5T701-486q-11 15-31 15.5T636-484Z"/>
</svg>
