<svg aria-hidden="true" viewBox="0 -960 960 960" fill="currentColor">
  <path d="M519.022-562.218 309.717-773.283q10.196-4.435 23.305-7.891 13.108-3.457 27.695-3.457 69.587 0 118.859 49.272 49.272 49.272 49.272 118.859 0 14.587-2.696 28.576-2.695 13.989-7.13 25.706Zm239.5 480.783-70.631-71.391q-1.434 17.239-13.891 28.859-12.456 11.619-30.652 11.619H78.087q-19.152 0-32.326-13.174t-13.174-32.326v-74.63q0-35.152 18.315-66.185t50.228-46.989q51-26 116.794-44.359 65.793-18.359 142.793-18.359 22.413 0 44 2.022t41.718 4.783l-53.37-51.848q-7.326 2.522-15.532 3.782-8.207 1.261-17.055 1.261-69.587 0-118.5-49.272-48.913-49.271-49.391-117.663 0-8.847 1.261-17.174 1.261-8.326 3.782-15.652L85.435-761.848q-11.718-12.478-11.718-29.815 0-17.337 11.718-29.054 12.478-12.479 29.815-12.479 17.337 0 29.054 12.479l673.087 681.173q11.718 11.718 12.098 29.055.381 17.337-11.337 29.054-11.717 12.478-29.435 12.859-17.717.38-30.195-12.859ZM123.587-203.348h474.261v-28.174q0-12.804-4.381-18.782-4.38-5.979-15.619-14.5-35.761-18-91.783-35.283T360.717-317.37q-69.326 0-125.228 17.403-55.902 17.402-91.902 35.163-8.761 4.521-14.38 13.402-5.62 8.88-5.62 19.88v28.174Zm237.13 0Zm410.261-166.718Q759.5-381.544 759-399.022t10.978-31.957q30.761-38 48.142-85.38 17.38-47.381 17.38-100.62 0-51.761-17.141-98.402t-47.663-84.641q-11.239-14.478-11.239-31.837t12.478-29.837q14.239-14.239 33.859-14.239 19.619 0 31.858 14.478 42 51 65.881 113.239 23.88 62.239 23.88 131.239 0 69.957-24.119 132.435-24.12 62.478-66.598 113.718-12.239 14.478-31.859 14.739-19.619.261-33.859-13.979ZM639.826-502.653q-10.761-11-12.261-28.38t8.022-34.859q6.522-11.521 9.783-24.424 3.26-12.902 3.26-26.184 0-13.283-3.26-26.066-3.261-12.782-9.544-24.065-9.522-17.478-8.022-34.978t12.5-28.5q14.718-14.717 35.316-14.217 20.598.5 31.598 16.456 16.282 24.522 25.565 52.424 9.282 27.902 9.282 58.946 0 31.282-9.641 59.304-9.641 28.022-25.924 52.543-11 15.718-31.478 16.218t-35.196-14.218Z"/>
</svg>
