<svg aria-hidden="true" viewBox="0 -960 960 960" fill="currentColor">
  <path d="M640-360q50 0 85-35t35-85q0-50-35-85t-85-35q-50 0-85 35t-35 85q0 11 1.5 20.5T527-440h-94q4-10 5.5-19.5T440-480q0-50-35-85t-85-35q-50 0-85 35t-35 85q0 50 35 85t85 35h320Zm-348.5-91.5Q280-463 280-480t11.5-28.5Q303-520 320-520t28.5 11.5Q360-497 360-480t-11.5 28.5Q337-440 320-440t-28.5-11.5Zm320 0Q600-463 600-480t11.5-28.5Q623-520 640-520t28.5 11.5Q680-497 680-480t-11.5 28.5Q657-440 640-440t-28.5-11.5ZM160-160q-33 0-56.5-23.5T80-240v-480q0-33 23.5-56.5T160-800h640q33 0 56.5 23.5T880-720v480q0 33-23.5 56.5T800-160H160Zm0-80h640v-480H160v480Zm0 0v-480 480Z"/>
</svg>
