<svg aria-hidden="true" viewBox="0 -960 960 960" fill="currentColor">
  <path d="m125.696-192.957 85.652-192.586q11.195-24.87 33.434-39.663Q267.021-440 294.391-440h60.587l57.37-143.065q10.195-26.109 33.185-41.522Q468.522-640 496.63-640h160.5q30.587 0 54.696 18.272 24.109 18.272 32.826 47.859l112.087 392.586q12.435 43.261-14.891 79.566-27.326 36.304-72.87 36.304H208.739q-50.012 0-76.724-41.022-26.711-41.021-6.319-86.522ZM203-152.587h571l-114-400H494l-80 200H292l-89 200Zm317-651v-80q0-18.435 12.531-31.131 12.532-12.695 31.056-12.695 18.435 0 31.131 12.695 12.695 12.696 12.695 31.131v80q0 18.524-12.695 31.056Q582.022-760 563.587-760q-18.435 0-31.011-12.531Q520-785.063 520-803.587Zm220.718 89.63q-12.196 12.196-30.511 12.196-18.316 0-30.511-12.196-12.196-12.195-12.196-30.51 0-18.316 12.196-30.511l58-58q12.195-12.196 30.511-12.196 18.315 0 30.511 12.196 12.195 12.195 12.195 30.511 0 18.315-12.195 30.51l-58 58Zm-354.022 0-58-58Q316.5-784.152 317-802.467q.5-18.316 12.696-30.511 12.195-12.196 30.51-12.196 18.316 0 30.511 12.196l57 58q12.196 12.195 12.196 30.511 0 18.315-12.196 30.51-12.195 12.196-30.511 12.196-18.315 0-30.51-12.196ZM774-152.587H203h571Z"/>
</svg>
