<svg aria-hidden="true" viewBox="0 -960 960 960" fill="currentColor">
  <path d="m130-192 89-200q10-22 29.5-35t43.5-13h68l60-150q9-23 29-36.5t45-13.5h166q27 0 48 16t29 42l114 400q11 38-13 70t-64 32H203q-44 0-67.5-36t-5.5-76Zm73 32h571L660-560H494l-80 200H292l-89 200Zm317-640v-80q0-17 11.5-28.5T560-920q17 0 28.5 11.5T600-880v80q0 17-11.5 28.5T560-760q-17 0-28.5-11.5T520-800Zm209 87q-11 11-28 11t-28-11q-11-11-11-28t11-28l58-58q11-11 28-11t28 11q11 11 11 28t-11 28l-58 58Zm-338 0-58-58q-11-11-10.5-28t11.5-28q11-11 28-11t28 11l57 58q11 11 11 28t-11 28q-11 11-28 11t-28-11Zm383 553H203h571Z"/>
</svg>
