<svg aria-hidden="true" viewBox="0 -960 960 960" fill="currentColor">
  <path d="M645.553-457.783q-8.488 0-16.423-2.598-7.934-2.597-14.13-8.315-86.478-78.478-150.739-151.217Q400-692.652 400-757.087q0-58.152 39.674-97.826 39.674-39.674 97.826-39.674 31.522 0 59.522 12.902t48.478 34.706q20.478-21.804 48.478-34.706 28-12.902 59.522-12.902 58.152 0 97.826 39.674Q891-815.239 891-757.087q0 64.435-64.261 137.174Q762.479-547.174 676-468.696q-6.195 5.718-14.077 8.315-7.882 2.598-16.37 2.598Zm-.053-101.935q58.522-55.521 108.304-110.192 49.783-54.67 49.783-87.177 0-22.044-13.967-36.185-13.966-14.141-36.12-14.141-13.282 0-25.543 5.5t-21.022 15.782L645.5-712.218l-61.435-73.913q-8.761-10.282-21.021-15.782-12.261-5.5-25.628-5.5-21.959 0-35.981 14.141-14.022 14.141-14.022 36.185 0 32.043 49.783 86.945 49.782 54.903 108.304 110.424Zm-91.087 419.066 238-74q-5-9-14.5-15.5t-21.5-6.5H552.022q-25.087 0-40.848-2t-32.761-7.987l-57-18.957q-16-4.989-23-19.956-7-14.966-2-30.93 5-15.965 19.5-23.448 14.5-7.483 30.5-2.483l44.87 14.717q15.565 4.761 36.467 7.522t57.718 3.522h10.945q0-11-6.5-21t-15.5-13l-234-86H280v220.717l274.413 75.283Zm-24.109 84.696L280-126.282q-10.152 26-36.163 41.402Q217.826-69.478 189-69.478h-69q-37.538 0-64.269-26.731Q29-122.941 29-160.478v-272.587q0-37.538 26.731-64.269Q82.462-524.065 120-524.065h219.696q7.956 0 15.913 1.619 7.956 1.62 15.152 4.098l234.043 86.761q35.153 12.957 56.968 44.511 21.815 31.554 21.815 70.424h72.826q52.989 0 90.082 31.924 37.092 31.924 37.092 88.076 0 24.63-12.935 39.043-12.935 14.414-38.848 22.892l-249.282 77.76q-12.435 4.24-26.109 4.36-13.674.119-26.109-3.36ZM645.5-683.565ZM116.413-156.652h76.174v-280h-76.174v280Z"/>
</svg>
