<svg aria-hidden="true" viewBox="0 -960 960 960" fill="currentColor">
  <path d="M40-160v-280q0-33 23.5-56.5T120-520q33 0 56.5 23.5T200-440v280q0 33-23.5 56.5T120-80q-33 0-56.5-23.5T40-160Zm495 73-255-72v-361h64q7 0 14 1.5t14 3.5l277 103q14 5 22.5 18t8.5 27q0 21-14.5 34T632-320H527q-5 0-7.5-.5T513-323l-45-17q-8-3-16 1t-10 11q-2 8 1 15t11 10l59 21q2 1 6 1.5t7 .5h274q32 0 56 23t24 57L585-89q-10 4-24.5 4.5T535-87Zm105-366q-7 0-13.5-2t-11.5-7q-86-78-150.5-150.5T400-748q0-56 38-94t94-38q32 0 60 13.5t48 36.5q20-23 48-36.5t60-13.5q56 0 94 38t38 94q0 63-64.5 135.5T665-462q-5 5-11.5 7t-13.5 2Z"/>
</svg>
