<svg aria-hidden="true" viewBox="0 -960 960 960" fill="currentColor">
  <path d="M640-453q-7 0-13.5-2t-11.5-7q-86-78-150.5-150.5T400-748q0-56 38-94t94-38q32 0 60 13.5t48 36.5q20-23 48-36.5t60-13.5q56 0 94 38t38 94q0 63-64.5 135.5T665-462q-5 5-11.5 7t-13.5 2Zm0-95q59-56 109.5-111.5T800-748q0-23-14.5-37.5T748-800q-14 0-26.5 5.5T700-778l-60 72-60-72q-9-11-21.5-16.5T532-800q-23 0-37.5 14.5T480-748q0 33 50.5 88.5T640-548Zm-82 404 238-74q-5-9-14.5-15.5T760-240H558q-27 0-43-2t-33-8l-57-19q-16-5-23-20t-2-31q5-16 19.5-23.5T450-346l42 14q17 5 38.5 8t58.5 4h11q0-11-6.5-21T578-354l-234-86h-64v220l278 76Zm-21 78-257-72q-8 26-31.5 42T200-80h-80q-33 0-56.5-23.5T40-160v-280q0-33 23.5-56.5T120-520h224q7 0 14 1.5t13 3.5l235 87q33 12 53.5 42t20.5 66h80q50 0 85 33t35 87q0 22-11.5 34.5T833-145L583-67q-11 4-23 4t-23-3Zm103-608ZM120-160h80v-280h-80v280Z"/>
</svg>
