<svg aria-hidden="true" viewBox="0 -960 960 960" fill="currentColor">
  <path d="M29-151.152v-291q0-33.718 24.098-57.815 24.097-24.098 57.815-24.098 33.717 0 57.696 24.098 23.978 24.097 23.978 57.815v291q0 33.717-23.978 57.696-23.979 23.978-57.696 23.978-33.718 0-57.815-23.978Q29-117.435 29-151.152ZM528.543-73.13l-255.717-72.478v-378.457h67.109q8.195 0 16.032 1.619 7.837 1.62 15.794 4.098l268.391 99.652q18.304 6.674 30.75 23.859 12.446 17.185 12.446 35.25 0 19.087-13.065 31.011t-30.631 11.924H532.261q-8.109 0-14.555-1.218-6.445-1.217-13.554-3.934l-43.087-15.805q-9.435-3.478-18.63 1.239-9.196 4.718-11.674 13.153-2.479 9.435 1.119 17.869 3.598 8.435 13.033 11.913l54.695 19.326q5.827 2.196 14.49 3.414 8.663 1.217 15.489 1.217h268.5q37.739 0 61.62 23.359 23.88 23.358 23.88 62.141L584.043-74.891q-11.673 4.24-27.13 4.74-15.457.5-28.37-2.98Zm118.87-384.653q-8.435 0-16.369-2.598-7.935-2.597-14.131-8.315-86.478-78.478-150.739-151.217-64.261-72.739-64.261-137.174 0-58.152 39.674-97.826 39.674-39.674 97.826-39.674 31.522 0 59.522 12.902t48.478 34.706q20.478-21.804 48.478-34.706 28-12.902 59.522-12.902 58.152 0 97.826 39.674 39.674 39.674 39.674 97.826 0 64.435-64.261 137.174-64.26 72.739-150.739 151.217-6.195 5.718-14.13 8.315-7.935 2.598-16.37 2.598Z"/>
</svg>
