<svg aria-hidden="true" viewBox="0 -960 960 960" fill="currentColor">
  <path d="M280-400q33 0 56.5-23.5T360-480q0-33-23.5-56.5T280-560q-33 0-56.5 23.5T200-480q0 33 23.5 56.5T280-400Zm0 160q-100 0-170-70T40-480q0-100 70-170t170-70q81 0 141.5 45.5T506-560h214q17 0 28.5 11.5T760-520v240q0 17-11.5 28.5T720-240q-17 0-28.5-11.5T680-280v-120H506q-24 69-84.5 114.5T280-240Zm571.5-11.5Q840-263 840-280t11.5-28.5Q863-320 880-320t28.5 11.5Q920-297 920-280t-11.5 28.5Q897-240 880-240t-28.5-11.5Zm0-160Q840-423 840-440v-120q0-17 11.5-28.5T880-600q17 0 28.5 11.5T920-560v120q0 17-11.5 28.5T880-400q-17 0-28.5-11.5Z"/>
</svg>
