<svg aria-hidden="true" viewBox="0 -960 960 960" fill="currentColor">
  <path d="M278.544-350.478q47.282-4.761 97.467-7.142Q426.196-360 480-360q52.804 0 103.109 2.38 50.304 2.381 98.347 7.142 18.435 2 25.533-11.076 7.098-13.076-4.859-28.033L577.391-539.37q-6.956-7.956-17.391-7.956-10.435 0-17.391 7.956L446-424l-62.609-75.13q-5.956-7.957-16.891-7.957-10.935 0-17.891 8.717L257.87-389.587q-11.957 15.196-5.359 28.152 6.598 12.957 26.033 10.957ZM120-151.869q-20.109 0-34.12-14.011Q71.87-179.891 71.87-200v-560q0-20.109 14.01-34.12 14.011-14.011 34.12-14.011 21.065 0 110.315 30t249.685 30q161.435 0 250.185-30t109.815-30q20.109 0 34.12 14.011 14.011 14.011 14.011 34.12v560q0 20.109-14.011 34.12-14.011 14.011-34.12 14.011-21.065 0-109.815-30t-250.185-30q-160.435 0-249.685 30t-110.315 30Z"/>
</svg>
