<svg aria-hidden="true" viewBox="0 -960 960 960" fill="currentColor">
  <path d="M274-350q48-5 99.5-7.5T480-360q54 0 105.5 2.5T686-350q17 2 23.5-10t-4.5-26L575-542q-6-7-15-7t-15 7l-99 118-65-78q-5-7-14.5-7t-15.5 8l-96 115q-11 14-5 26t24 10ZM120-160q-17 0-28.5-11.5T80-200v-560q0-17 11.5-28.5T120-800q17 0 109 30t251 30q160 0 251.5-30T840-800q17 0 28.5 11.5T880-760v560q0 17-11.5 28.5T840-160q-17 0-108.5-30T480-220q-159 0-251 30t-109 30Zm40-94q78-23 158.5-34.5T480-300q81 0 161.5 11.5T800-254v-451q-78 23-158.5 34T480-660q-81 0-161.5-11T160-705v451Zm320-226Z"/>
</svg>
