<svg aria-hidden="true" viewBox="0 -960 960 960" fill="currentColor">
  <path d="M160-80q-33 0-56.5-23.5T80-160v-480q0-33 23.5-56.5T160-720h160l132-132q12-12 28-12t28 12l132 132h160q33 0 56.5 23.5T880-640v480q0 33-23.5 56.5T800-80H160Zm0-80h640v-480H160v480Zm290-120-74-99q-6-8-16-8t-16 8l-80 107q-8 10-2 21t18 11h400q12 0 18-11t-2-21L586-419q-6-8-16-8t-16 8L450-280Zm292.5-177.5Q760-475 760-500t-17.5-42.5Q725-560 700-560t-42.5 17.5Q640-525 640-500t17.5 42.5Q675-440 700-440t42.5-17.5ZM404-720h152l-76-76-76 76ZM160-160v-480 480Z"/>
</svg>
