<svg aria-hidden="true" viewBox="0 -960 960 960" fill="currentColor">
  <path d="M116.891-891.957h77.37q19.152 0 32.326 13.174t13.174 32.326v778.414q-37.065 0-62.837-26.848-25.772-26.848-25.772-64.152v-641.914h-34.261q-19.152 0-32.326-13.173-13.174-13.174-13.174-32.327 0-19.152 13.174-32.326t32.326-13.174Zm253.87 823.914q-37.783 0-64.391-26.609-26.609-26.609-26.609-64.391v-641.914q0-37.782 26.609-64.391 26.608-26.609 64.391-26.609h346.848q37.782 0 64.391 26.609 26.609 26.609 26.609 64.391v641.914q0 37.782-26.609 64.391-26.609 26.609-64.391 26.609H370.761Zm-2.391-475.022q17.282-9.805 36.28-14.326 18.997-4.522 39.894-4.522h199.282q20.897 0 39.894 4.522 18.997 4.521 36.28 14.326v-260.283H368.37v260.283Zm175.934-58.848q-33.478 0-57.097-23.62-23.62-23.619-23.62-57.097 0-33.479 23.62-57.098 23.619-23.62 57.097-23.62 33.479 0 57.098 23.62 23.62 23.619 23.62 57.098 0 33.478-23.62 57.097-23.619 23.62-57.098 23.62ZM368.37-156.652H720V-397.13q0-31.422-22.376-53.798t-53.798-22.376H444.544q-31.422 0-53.798 22.376T368.37-397.13v240.478Zm132.347-115.217v32.108q0 18.196 12.457 30.652 12.456 12.457 30.652 12.457t30.652-12.457q12.457-12.456 12.457-30.652v-32.108h32.108q18.196 0 30.653-12.457 12.456-12.456 12.456-30.652t-12.456-30.652q-12.457-12.457-30.653-12.457h-32.108v-32.108q0-18.196-12.457-30.653-12.456-12.456-30.652-12.456t-30.652 12.456q-12.457 12.457-12.457 30.653v32.108h-32.108q-18.196 0-30.652 12.457-12.457 12.456-12.457 30.652t12.457 30.652q12.456 12.457 30.652 12.457h32.108ZM368.37-156.652H720 368.37Z"/>
</svg>
