<svg aria-hidden="true" viewBox="0 -960 960 960" fill="currentColor">
  <path d="M508.5-251.5Q520-263 520-280t-11.5-28.5Q497-320 480-320t-28.5 11.5Q440-297 440-280t11.5 28.5Q463-240 480-240t28.5-11.5ZM440-400q0 17 11.5 28.5T480-360q17 0 28.5-11.5T520-400v-41l-80-80v121Zm-43-276q-10-10-12-23.5t5-25.5l55-95q6-11 15-15.5t20-4.5q11 0 20.5 4.5T515-820l284 490q9 15-5 26t-27-2L397-676ZM791-57l-64-63H109q-23 0-34-20t0-40l259-447 279 278H499L55-792q-12-12-11.5-28.5T56-849q12-12 28.5-12t28.5 12l735 736q12 12 12 28t-12 28q-12 12-28.5 12T791-57Z"/>
</svg>
