<svg aria-hidden="true" viewBox="0 -960 960 960" fill="currentColor">
  <path d="M480-240q-17 0-28.5-11.5T440-280q0-17 11.5-28.5T480-320q17 0 28.5 11.5T520-280q0 17-11.5 28.5T480-240Zm-40-160v-121l80 80v41q0 17-11.5 28.5T480-360q-17 0-28.5-11.5T440-400Zm433 198L655-419 480-720l-47 80-58-58 70-122q11-20 35-20t35 20l358 618Zm-695 2h469L350-497 178-200ZM791-57l-64-63H109q-23 0-34-20t0-40l217-375L55-792q-12-12-11.5-28.5T56-849q12-12 28.5-12t28.5 12l735 736q12 12 12 28t-12 28q-12 12-28.5 12T791-57ZM499-348Zm45-181Z"/>
</svg>
