<svg aria-hidden="true" viewBox="0 -960 960 960" fill="currentColor">
  <path d="M541.5-338.5Q600-397 600-480t-58.5-141.5Q483-680 400-680t-141.5 58.5Q200-563 200-480t58.5 141.5Q317-280 400-280t141.5-58.5ZM340-80q-26 0-47.5-15.5T263-137l-23-77q-6-20-18.5-40.5T189-297q-34-37-51.5-84T120-480q0-51 17.5-98t51.5-85q20-23 32.5-43t18.5-40l23-77q8-26 29.5-41.5T340-880h120q26 0 47.5 15.5T537-823l23 77q6 20 18.5 40.5T611-663q34 37 51.5 84t17.5 99q0 51-17.5 98T611-297q-20 23-32.5 43T560-214l-23 77q-8 26-29.5 41.5T460-80H340Zm431.5-411.5Q760-503 760-520v-280q0-17 11.5-28.5T800-840q17 0 28.5 11.5T840-800v280q0 17-11.5 28.5T800-480q-17 0-28.5-11.5ZM340-800h120-120Zm0 640h120-120Zm-16-590q20-5 38.5-8t37.5-3q19 0 37.5 3t38.5 8l-16-50H340l-16 50Zm16 590h120l16-50q-20 5-38.5 7.5T400-200q-19 0-37.5-2.5T324-210l16 50Z"/>
</svg>
