<svg aria-hidden="true" viewBox="0 -960 960 960" fill="currentColor">
  <path d="M466-440h-86q-17 0-28.5-11.5T340-480q0-17 11.5-28.5T380-520h86l-15-16q-11-12-11-28t12-28q11-11 28-11t28 11l84 84q6 6 8.5 13t2.5 15q0 8-2.5 15t-8.5 13l-84 84q-11 11-28 11t-29-12q-11-11-11-27t11-28l15-16Zm-46-360h120-120Zm0 640h120-120Zm0 80q-26 0-47.5-15.5T343-137l-23-77q-6-20-18.5-40.5T269-297q-34-37-51.5-84T200-480q0-51 17.5-98t51.5-85q20-23 32.5-43t18.5-40l23-77q8-26 29.5-41.5T420-880h120q26 0 47.5 15.5T617-823l23 77q6 20 18.5 40.5T691-663q34 37 51.5 84t17.5 99q0 51-17.5 98T691-297q-20 23-32.5 43T640-214l-23 77q-8 26-29.5 41.5T540-80H420Zm201.5-258.5Q680-397 680-480t-58.5-141.5Q563-680 480-680t-141.5 58.5Q280-563 280-480t58.5 141.5Q397-280 480-280t141.5-58.5ZM404-750q20-5 38.5-8t37.5-3q19 0 37.5 3t38.5 8l-16-50H420l-16 50Zm16 590h120l16-50q-20 5-38.5 7.5T480-200q-19 0-37.5-2.5T404-210l16 50Z"/>
</svg>
