<svg aria-hidden="true" viewBox="0 -960 960 960" fill="currentColor">
  <path d="M800-280q-17 0-28.5-11.5T760-320q0-17 11.5-28.5T800-360q17 0 28.5 11.5T840-320q0 17-11.5 28.5T800-280Zm0-160q-17 0-28.5-11.5T760-480q0-17 11.5-28.5T800-520h40q17 0 28.5 11.5T880-480q0 17-11.5 28.5T840-440h-40Zm0-160q-17 0-28.5-12T760-641q0-17 12-28.5t29-11.5h79q17 0 28.5 11.5T920-641q0 17-11.5 29T880-600h-80ZM541.5-338.5Q600-397 600-480t-58.5-141.5Q483-680 400-680t-141.5 58.5Q200-563 200-480t58.5 141.5Q317-280 400-280t141.5-58.5ZM340-80q-26 0-47.5-15.5T263-137l-23-77q-6-20-18.5-40.5T189-297q-34-37-51.5-84T120-480q0-51 17.5-98t51.5-85q20-23 32.5-43t18.5-40l23-77q8-26 29.5-41.5T340-880h120q26 0 47.5 15.5T537-823l23 77q6 20 18.5 40.5T611-663q34 37 51.5 84t17.5 99q0 51-17.5 98T611-297q-20 23-32.5 43T560-214l-23 77q-8 26-29.5 41.5T460-80H340Z"/>
</svg>
