<svg aria-hidden="true" viewBox="0 -960 960 960" fill="currentColor">
  <path d="M368.5-408.5Q360-417 360-430v-100q0-13 8.5-21.5T390-560q13 0 21.5 8.5T420-530v100q0 13-8.5 21.5T390-400q-13 0-21.5-8.5Zm90 0Q450-417 450-430v-60q0-13 8.5-21.5T480-520q13 0 21.5 8.5T510-490v60q0 13-8.5 21.5T480-400q-13 0-21.5-8.5Zm90 0Q540-417 540-430v-20q0-13 8.5-21.5T570-480q13 0 21.5 8.5T600-450v20q0 13-8.5 21.5T570-400q-13 0-21.5-8.5ZM420-80q-26 0-47.5-15.5T343-137l-23-77q-6-20-18.5-40.5T269-297q-34-37-51.5-84T200-480q0-51 17.5-98t51.5-85q20-23 32.5-43t18.5-40l23-77q8-26 29.5-41.5T420-880h120q26 0 47.5 15.5T617-823l23 77q6 20 18.5 40.5T691-663q34 37 51.5 84t17.5 99q0 51-17.5 98T691-297q-20 23-32.5 43T640-214l-23 77q-8 26-29.5 41.5T540-80H420Zm201.5-258.5Q680-397 680-480t-58.5-141.5Q563-680 480-680t-141.5 58.5Q280-563 280-480t58.5 141.5Q397-280 480-280t141.5-58.5Z"/>
</svg>
