<svg aria-hidden="true" viewBox="0 -960 960 960" fill="currentColor">
  <path d="M420-360q-17 0-28.5-11.5T380-400v-100q0-17 11.5-28.5T420-540v-40q0-25 17.5-42.5T480-640q25 0 42.5 17.5T540-580v40q17 0 28.5 11.5T580-500v100q0 17-11.5 28.5T540-360H420Zm35-180h50v-40q0-11-7-18t-18-7q-11 0-18 7t-7 18v40ZM420-80q-26 0-47.5-15.5T343-137l-23-77q-6-20-18.5-40.5T269-297q-34-37-51.5-84T200-480q0-51 17.5-98t51.5-85q20-23 32.5-43t18.5-40l23-77q8-26 29.5-41.5T420-880h120q26 0 47.5 15.5T617-823l23 77q6 20 18.5 40.5T691-663q34 37 51.5 84t17.5 99q0 51-17.5 98T691-297q-20 23-32.5 43T640-214l-23 77q-8 26-29.5 41.5T540-80H420Zm201.5-258.5Q680-397 680-480t-58.5-141.5Q563-680 480-680t-141.5 58.5Q280-563 280-480t58.5 141.5Q397-280 480-280t141.5-58.5Z"/>
</svg>
