<svg aria-hidden="true" viewBox="0 -960 960 960" fill="currentColor">
  <path d="M80-450q0-11 7.5-20.5T109-485q20-8 40-21.5t65-13.5q57 0 76.5 20t55.5 20q38 0 56.5-20t77.5-20q57 0 77 20t55 20q38 0 56.5-20t77.5-20q44 0 64.5 13t40.5 21q14 5 21.5 15t7.5 21q0 22-15.5 35.5T831-407q-27-8-43-20.5T746-440q-36 0-54.5 20T614-400q-57 0-77.5-20T480-440q-38 0-55.5 20T348-400q-59 0-78.5-20T214-440q-26 0-42.5 12.5T129-407q-18 6-33.5-7.5T80-450Zm0 160q0-11 7.5-20.5T109-325q20-8 40-21.5t65-13.5q59 0 77.5 20t54.5 20q38 0 56.5-20t77.5-20q57 0 77.5 20t56.5 20q38 0 55.5-20t76.5-20q45 0 65 13.5t40 21.5q14 5 21.5 14.5T880-290q0 22-15.5 35.5T831-247q-26-8-42.5-20.5T746-280q-36 0-54.5 20T614-240q-57 0-77.5-20T480-280q-38 0-56.5 20T346-240q-59 0-76.5-20T214-280q-28 0-43.5 12.5T129-247q-18 6-33.5-7.5T80-290Zm0-320q0-11 7.5-20.5T109-645q20-8 40-21.5t65-13.5q57 0 76.5 20t55.5 20q38 0 56.5-20t77.5-20q57 0 77 20t55 20q38 0 56.5-20t77.5-20q44 0 64.5 13t40.5 21q14 5 21.5 15t7.5 21q0 22-15.5 35.5T831-567q-27-8-43-20.5T746-600q-36 0-54.5 20T614-560q-57 0-77.5-20T480-600q-38 0-55.5 20T348-560q-59 0-78.5-20T214-600q-26 0-42.5 12.5T129-567q-18 6-33.5-7.5T80-610Z"/>
</svg>
