<svg aria-hidden="true" viewBox="0 -960 960 960" fill="currentColor">
  <path d="M360-82Q238-96 159-187T80-408q0-64 29-127.5T182-657q44-58 95.5-109t95.5-90q6-5 12.5-7.5T400-866q8 0 14.5 2.5T427-856q45 40 96 90.5T618-657q44 58 73 121t29 128v8h-80v-8q0-73-60.5-165T400-774Q281-665 220.5-573T160-408q0 97 56 164t144 81v81Zm40-387Zm180 309h-80v50q0 13-8.5 21.5T470-80q-13 0-21.5-8.5T440-110v-180q0-13 8.5-21.5T470-320h110q24 0 42 18t18 42v40q0 24-18 42t-42 18Zm160-20v70q0 13-8.5 21.5T710-80q-13 0-21.5-8.5T680-110v-180q0-13 8.5-21.5T710-320q13 0 21.5 8.5T740-290v50h80v-50q0-13 8.5-21.5T850-320q13 0 21.5 8.5T880-290v180q0 13-8.5 21.5T850-80q-13 0-21.5-8.5T820-110v-70h-80Zm-240-40h80v-40h-80v40Z"/>
</svg>
