<svg aria-hidden="true" viewBox="0 -960 960 960" fill="currentColor">
  <path d="M780-160q-25 0-42.5-17.5T720-220v-520q0-25 17.5-42.5T780-800q25 0 42.5 17.5T840-740v520q0 25-17.5 42.5T780-160Zm-600 0q-25 0-42.5-17.5T120-220v-160q0-25 17.5-42.5T180-440q25 0 42.5 17.5T240-380v160q0 25-17.5 42.5T180-160Zm440-520q-25 0-42.5-17.5T560-740q0-25 17.5-42.5T620-800q25 0 42.5 17.5T680-740q0 25-17.5 42.5T620-680Zm-160 80q-25 0-42.5-17.5T400-660v-40q0-25 17.5-42.5T460-760q25 0 42.5 17.5T520-700v40q0 25-17.5 42.5T460-600ZM340-400q-25 0-42.5-17.5T280-460v-40q0-25 17.5-42.5T340-560q25 0 42.5 17.5T400-500v40q0 25-17.5 42.5T340-400Z"/>
</svg>
