<svg aria-hidden="true" viewBox="0 -960 960 960" fill="currentColor">
  <path d="M137.5-177.5Q120-195 120-220v-120q0-25 17.5-42.5T180-400q25 0 42.5 17.5T240-340v120q0 25-17.5 42.5T180-160q-25 0-42.5-17.5Zm200-240Q320-435 320-460v-80q0-25 17.5-42.5T380-600q25 0 42.5 17.5T440-540v80q0 25-17.5 42.5T380-400q-25 0-42.5-17.5Zm200-200Q520-635 520-660v-80q0-25 17.5-42.5T580-800q25 0 42.5 17.5T640-740v80q0 25-17.5 42.5T580-600q-25 0-42.5-17.5Zm200 440Q720-195 720-220v-520q0-25 17.5-42.5T780-800q25 0 42.5 17.5T840-740v520q0 25-17.5 42.5T780-160q-25 0-42.5-17.5Z"/>
</svg>
