<svg aria-hidden="true" viewBox="0 -960 960 960" fill="currentColor">
  <path d="M72.587-442.826q0-13.63 9.532-26.239 9.533-12.609 26.164-19.761 19.043-8 38.804-20.185 19.761-12.185 62.13-12.185 58.196 0 77.935 20.359 19.739 20.359 56.218 20.359 38.956 0 57.815-20.359 18.858-20.359 78.815-20.359 58.196 0 78.674 20.359 20.478 20.359 55.956 20.359 38.957 0 57.696-20.359 18.739-20.359 78.696-20.359 41.369 0 61.75 11.805 20.38 11.804 39.424 19.804 16.869 7.152 26.163 20.022 9.293 12.869 9.293 26.739 0 23.674-16.576 38.011-16.576 14.337-35.772 7.38-26.043-8.478-42.163-20.619-16.119-12.141-42.119-12.141-36.957 0-55.696 20.358-18.739 20.359-78.696 20.359-58.195 0-78.934-20.359-20.739-20.358-57.696-20.358-38.478 0-56.337 20.358-17.859 20.359-77.815 20.359-59.957 0-80.055-20.359-20.097-20.358-56.576-20.358-26 0-42.38 12.141-16.381 12.141-41.663 20.619-19.196 6.957-35.892-7.38-16.695-14.337-16.695-38.011Zm0 171q0-13.63 9.532-26.239 9.533-12.609 26.164-19.761 19.043-8 38.804-20.185 19.761-12.184 62.13-12.184 59.957 0 78.816 20.358 18.858 20.359 55.337 20.359 38.956 0 57.815-20.359 18.858-20.358 78.815-20.358 58.196 0 79.174 20.358 20.978 20.359 57.456 20.359 38.957 0 56.696-20.359 17.739-20.358 77.696-20.358 42.369 0 62.25 12.304 19.88 12.304 38.924 20.304 16.869 7.152 26.163 19.522 9.293 12.37 9.293 26.239 0 23.674-16.576 38.011-16.576 14.337-35.772 7.381-25.282-8.479-41.902-20.62-16.619-12.141-42.38-12.141-36.957 0-55.696 20.359-18.739 20.358-78.696 20.358-58.195 0-78.934-20.358-20.739-20.359-57.696-20.359-38.478 0-57.576 20.359-19.098 20.358-79.054 20.358-59.957 0-77.816-20.358-17.858-20.359-56.337-20.359-27.761 0-43.261 12.141-15.5 12.141-40.782 20.62-19.196 6.956-35.892-7.381-16.695-14.337-16.695-38.011Zm0-342q0-13.631 9.532-26.239 9.533-12.609 26.164-19.761 19.043-8 38.804-20.185 19.761-12.185 62.13-12.185 58.196 0 77.935 20.359 19.739 20.358 56.218 20.358 38.956 0 57.815-20.358 18.858-20.359 78.815-20.359 58.196 0 78.674 20.359 20.478 20.358 55.956 20.358 38.957 0 57.696-20.358 18.739-20.359 78.696-20.359 41.369 0 61.75 11.804 20.38 11.805 39.424 19.805 16.869 7.152 26.163 20.022 9.293 12.869 9.293 26.739 0 23.674-16.576 38.011-16.576 14.337-35.772 7.38-26.043-8.478-42.163-20.619-16.119-12.142-42.119-12.142-36.957 0-55.696 20.359-18.739 20.359-78.696 20.359-58.195 0-78.934-20.359-20.739-20.359-57.696-20.359-38.478 0-56.337 20.359t-77.815 20.359q-59.957 0-80.055-20.359-20.097-20.359-56.576-20.359-26 0-42.38 12.142-16.381 12.141-41.663 20.619-19.196 6.957-35.892-7.38-16.695-14.337-16.695-38.011Z"/>
</svg>
