<svg aria-hidden="true" viewBox="0 -960 960 960" fill="currentColor">
  <path d="M794.545-161.913q-26.477 0-45.011-18.546Q731-199.006 731-225.5V-751q0-26.495 18.534-45.041 18.534-18.546 45.011-18.546 26.477 0 45.173 18.546 18.695 18.546 18.695 45.041v525.5q0 26.494-18.695 45.041-18.696 18.546-45.173 18.546Zm-629.09 0q-26.477 0-45.173-18.546-18.695-18.547-18.695-45.041v-147.087q0-26.435 18.695-45.13 18.696-18.696 45.173-18.696t45.011 18.696Q229-399.022 229-372.587V-225.5q0 26.494-18.534 45.041-18.534 18.546-45.011 18.546Zm461.958-525.5q-26.594 0-45.21-18.457-18.616-18.456-18.616-45.13 0-26.674 18.583-45.131 18.583-18.456 45.131-18.456 26.547 0 45.123 18.534Q691-777.519 691-751.042q0 26.477-18.546 45.053-18.546 18.576-45.041 18.576Zm-167.371 83.826q-26.477 0-45.053-18.696-18.576-18.695-18.576-45.13v-40q0-26.495 18.534-45.041Q433.481-771 459.958-771q26.477 0 45.053 18.546 18.576 18.546 18.576 45.041v40q0 26.435-18.534 45.13-18.534 18.696-45.011 18.696ZM332.545-396.413q-26.477 0-45.011-18.546Q269-433.505 269-460v-40q0-26.495 18.534-45.041 18.534-18.546 45.011-18.546 26.477 0 45.172 18.546 18.696 18.546 18.696 45.041v40q0 26.495-18.696 45.041-18.695 18.546-45.172 18.546Z"/>
</svg>
