<svg aria-hidden="true" viewBox="0 -960 960 960" fill="currentColor">
  <path d="M80-190q0-13 9.5-23.5T113-228q39-10 71.5-31t95.5-21q38 0 62.5 8.5t45.5 19q21 10.5 42 19.5t50 9q29 0 50-9t42-19.5q21-10.5 46-19t62-8.5q63 0 95.5 21t71.5 31q14 4 23.5 14t9.5 24q0 19-13 31t-30 9q-51-10-80-31t-77-21q-28 0-48.5 8.5t-41 19Q570-164 544.5-155t-64.5 9q-39 0-64.5-9t-46-19.5Q349-185 329-193.5t-49-8.5q-48 0-77 21t-80 31q-17 3-30-9t-13-31Zm0-178q0-13 9.5-23.5T113-406q39-10 71.5-31t95.5-21q38 0 62.5 8.5t45.5 19q21 10.5 42 19.5t50 9q29 0 50-9t42-19.5q21-10.5 46-19t62-8.5q63 0 95.5 21t71.5 31q14 4 23.5 14t9.5 24q0 19-13 31t-30 9q-51-10-80-31t-77-21q-29 0-49.5 8.5t-41 19Q569-342 544-333t-64 9q-39 0-64.5-9t-46-19.5Q349-363 329-371.5t-49-8.5q-48 0-77 21t-80 31q-17 3-30-9t-13-31Zm0-356q0-13 9.5-23.5T113-762q39-10 71.5-31t95.5-21q38 0 62.5 8.5t45.5 19q21 10.5 42 19.5t50 9q29 0 50-9t42-19.5q21-10.5 46-19t62-8.5q63 0 95.5 21t71.5 31q14 4 23.5 14t9.5 24q0 19-13 31t-30 9q-51-10-80-31t-77-21q-28 0-48.5 8.5t-41 19Q570-698 544.5-689t-64.5 9q-39 0-64.5-9t-46-19.5Q349-719 329-727.5t-49-8.5q-48 0-77 21t-80 31q-17 3-30-9t-13-31Zm0 178q0-13 9.5-23.5T113-584q39-10 71.5-31t95.5-21q38 0 62.5 8.5t45.5 19q21 10.5 42 19.5t50 9q29 0 50-9t42-19.5q21-10.5 46-19t62-8.5q63 0 95.5 21t71.5 31q14 4 23.5 14t9.5 24q0 19-13 31t-30 9q-51-10-80-31t-77-21q-28 0-48.5 8.5t-41 19Q570-520 544.5-511t-64.5 9q-39 0-64.5-9t-46-19.5Q349-541 329-549.5t-49-8.5q-48 0-77 21t-80 31q-17 3-30-9t-13-31Z"/>
</svg>
