<svg aria-hidden="true" viewBox="0 -960 960 960" fill="currentColor">
  <path d="M72.587-176.608q0-15.153 11.174-28.164 11.174-13.01 28.282-18.684 37.566-10.718 69.946-30.881Q214.37-274.5 276.413-274.5q38.717 0 63.815 8.739t46.337 19.479q21.239 10.739 42.598 19.858 21.359 9.12 50.837 9.12 29.717 0 50.957-9.12 21.239-9.119 42.478-19.858 21.239-10.74 46.717-19.479 25.478-8.739 63.435-8.739 62.043 0 94.424 20.163 32.38 20.163 69.946 30.881 17.108 5.674 28.282 18.184 11.174 12.511 11.174 28.664 0 20.913-14.554 34.228-14.555 13.315-33.229 9.359-49.565-10.479-78.804-31.239-29.239-20.761-77.239-20.761-28.717 0-49.457 8.739-20.739 8.739-41.597 19.358-20.859 10.62-46.837 19.74-25.979 9.119-65.696 9.119t-65.696-9.119q-25.978-9.12-46.837-19.74-20.858-10.619-41.217-19.358-20.359-8.739-49.837-8.739-48 0-77.239 20.761-29.239 20.76-78.804 31.239-18.674 3.956-33.229-9.359-14.554-13.315-14.554-34.228Zm0-185.653q0-15.152 11.174-28.163 11.174-13.011 28.282-18.685 37.566-10.717 69.946-30.88 32.381-20.163 94.424-20.163 38.717 0 63.815 8.739t46.337 19.359q21.239 10.619 42.598 19.739 21.359 9.119 50.837 9.119 29.717 0 50.957-9.119 21.239-9.12 42.478-19.739 21.239-10.62 46.717-19.359 25.478-8.739 63.435-8.739 62.043 0 94.424 20.163 32.38 20.163 69.946 30.88 17.108 5.674 28.282 18.185t11.174 28.663q0 20.913-14.554 34.109-14.555 13.196-33.229 9.239-49.565-10.478-78.804-31.239-29.239-20.761-77.239-20.761-29.478 0-50.337 8.739t-41.717 19.479q-20.859 10.739-46.337 19.858-25.479 9.12-65.196 9.12t-65.696-9.12q-25.978-9.119-46.837-19.858-20.858-10.74-41.217-19.479-20.359-8.739-49.837-8.739-48 0-77.239 20.761-29.239 20.761-78.804 31.239-18.674 3.957-33.229-9.239-14.554-13.196-14.554-34.109Zm0-371.544q0-15.152 11.174-28.043 11.174-12.892 28.282-18.565 37.566-10.718 69.946-31 32.381-20.283 94.424-20.283 38.717 0 63.815 8.739t46.337 19.478q21.239 10.739 42.598 19.859 21.359 9.12 50.837 9.12 29.717 0 50.957-9.12 21.239-9.12 42.478-19.859 21.239-10.739 46.717-19.478 25.478-8.739 63.435-8.739 62.043 0 94.424 20.283 32.38 20.282 69.946 31 17.108 5.673 28.282 18.065 11.174 12.391 11.174 28.543 0 20.914-14.554 34.229-14.555 13.315-33.229 9.358-49.565-10.478-78.804-31.239-29.239-20.761-77.239-20.761-28.717 0-49.457 8.74-20.739 8.739-41.597 19.478-20.859 10.739-46.837 19.859-25.979 9.119-65.696 9.119t-65.696-9.119q-25.978-9.12-46.837-19.859-20.858-10.739-41.217-19.478-20.359-8.74-49.837-8.74-48 0-77.239 20.761-29.239 20.761-78.804 31.239-18.674 3.957-33.229-9.358-14.554-13.315-14.554-34.229Zm0 185.892q0-15.152 11.174-28.163 11.174-13.011 28.282-18.685 37.566-10.718 69.946-30.881 32.381-20.163 94.424-20.163 38.717 0 63.815 8.74 25.098 8.739 46.337 19.358 21.239 10.62 42.598 19.739 21.359 9.12 50.837 9.12 29.717 0 50.957-9.12 21.239-9.119 42.478-19.739 21.239-10.619 46.717-19.358 25.478-8.74 63.435-8.74 62.043 0 94.424 20.163 32.38 20.163 69.946 30.881 17.108 5.674 28.282 18.185t11.174 28.663q0 20.913-14.554 34.109-14.555 13.195-33.229 9.239-49.565-10.478-78.804-31.239-29.239-20.761-77.239-20.761-28.717 0-49.457 8.739-20.739 8.739-41.597 19.478-20.859 10.739-46.837 19.859-25.979 9.119-65.696 9.119t-65.696-9.119q-25.978-9.12-46.837-19.859-20.858-10.739-41.217-19.478-20.359-8.739-49.837-8.739-48 0-77.239 20.761-29.239 20.761-78.804 31.239-18.674 3.956-33.229-9.239Q72.587-527 72.587-547.913Z"/>
</svg>
