<svg aria-hidden="true" viewBox="0 -960 960 960" fill="currentColor">
  <path d="M776.609-165.304 578.022-363.652q-11.478-11.478-11.598-26.435-.12-14.956 11.598-26.674 11.717-11.717 26.554-11.717 14.837 0 26.555 11.717l198.587 198.348q11.717 11.478 11.717 26.435 0 14.956-11.717 26.674-11.718 11.717-26.555 11.598-14.837-.12-26.554-11.598Zm-166.087 12.239q-19.152 0-32.326-13.174t-13.174-32.326v-81.913l127.413 127.413h-81.913Zm-416.022.717q-19.152 0-32.326-13.174T149-197.848v-358.087h-28.413q-15.913 0-21.87-13.793-5.956-13.794 5.478-25.229l196.783-196.782q2.239-2.239 16.152-6.718 2.24 0 15.913 6.718l196.783 196.782q11.435 11.435 5.598 25.229-5.837 13.793-21.75 13.793h-28.652v358.087q0 19.152-13.174 32.326t-32.326 13.174H194.5ZM280-395.935h80v-160h-80v160Z"/>
</svg>
