<svg aria-hidden="true" viewBox="0 -960 960 960" fill="currentColor">
  <path d="M224.5-214.5Q210-229 210-250t14.5-35.5Q239-300 260-300t35.5 14.5Q310-271 310-250t-14.5 35.5Q281-200 260-200t-35.5-14.5Zm120 120Q330-109 330-130t14.5-35.5Q359-180 380-180t35.5 14.5Q430-151 430-130t-14.5 35.5Q401-80 380-80t-35.5-14.5Zm120-120Q450-229 450-250t14.5-35.5Q479-300 500-300t35.5 14.5Q550-271 550-250t-14.5 35.5Q521-200 500-200t-35.5-14.5Zm240 0Q690-229 690-250t14.5-35.5Q719-300 740-300t35.5 14.5Q790-271 790-250t-14.5 35.5Q761-200 740-200t-35.5-14.5Zm-120 120Q570-109 570-130t14.5-35.5Q599-180 620-180t35.5 14.5Q670-151 670-130t-14.5 35.5Q641-80 620-80t-35.5-14.5ZM300-360q-91 0-155.5-64.5T80-580q0-83 55-145t136-73q32-57 87.5-89.5T480-920q90 0 156.5 57.5T717-719q69 6 116 57t47 122q0 75-52.5 127.5T700-360H300Zm0-80h400q42 0 71-29t29-71q0-42-29-71t-71-29h-60v-40q0-66-47-113t-113-47q-48 0-87.5 26T333-744l-10 24h-25q-57 2-97.5 42.5T160-580q0 58 41 99t99 41Zm180-100Z"/>
</svg>
