<svg aria-hidden="true" viewBox="0 -960 960 960" fill="currentColor">
  <path d="M480-360q-33 0-56.5-23.5T400-440q0-33 23.5-56.5T480-520q33 0 56.5 23.5T560-440q0 33-23.5 56.5T480-360Zm-190 67q-23-31-36.5-68T240-440q0-100 70-170t170-70q100 0 170 70t70 170q0 42-13.5 80T670-292q-10 13-26.5 13T614-292q-11-11-11.5-27t9.5-31q14-20 21-42.5t7-47.5q0-66-47-113t-113-47q-66 0-113 47t-47 113q0 26 7.5 48t20.5 42q10 15 9 31.5T345-291q-12 12-28.5 11.5T290-293ZM177-179q-45-53-71-119.5T80-440q0-83 31.5-156T197-723q54-54 127-85.5T480-840q83 0 156 31.5T763-723q54 54 85.5 127T880-440q0 75-26 142t-71 120q-11 12-27 12t-28-12q-11-11-11.5-27.5T727-235q34-42 53.5-94T800-440q0-134-93-227t-227-93q-134 0-227 93t-93 227q0 59 19.5 110.5T234-236q11 13 10.5 29.5T232-178q-12 12-28 11.5T177-179Z"/>
</svg>
