<svg aria-hidden="true" viewBox="0 -960 960 960" fill="currentColor">
  <path d="M154.826-107.087q-20.631 0-33.185-14.293-12.554-14.294-9.315-33.924 30.435-224.87 86.369-361.24 55.935-136.369 117.718-136.369 48 0 84.837 64.75t61.076 149.88q26.957-200.457 73.391-307.543 46.435-107.087 107.87-107.087 76.739 0 134.055 193.967 57.315 193.968 73.032 503.359 2 19.392-11.935 33.946-13.934 14.554-35.326 14.554-16.674 0-30.848-11.315t-18.413-28.228q-20.804-79.131-53.826-141.348-33.022-62.217-56.739-66.522-23.717 4.544-56.239 65.142-32.522 60.597-53.326 138.489-5.239 17.913-20.413 30.848-15.174 12.934-34.087 12.934-18.674 0-33.109-12.434-14.435-12.435-16.913-31.348-20-142.652-53.141-255.663-33.142-113.011-59.946-145.359-27.804 33.348-60.685 146.478-32.88 113.131-52.641 256.544-2.478 16.913-16.413 29.348-13.935 12.434-31.848 12.434ZM548.131-393.87q19.282-22.413 43.565-37.021 24.282-14.609 51.891-14.609 26.848 0 51.63 14.728 24.783 14.728 44.066 37.141-15.805-130.326-41.968-232.717-26.163-102.391-53.728-129.022-27.565 27.631-53.609 129.022-26.043 101.391-41.847 232.478Z"/>
</svg>
