<svg aria-hidden="true" viewBox="0 -960 960 960" fill="currentColor">
  <path d="M452-148 30-570q-12-12-11.5-29.5T32-628q94-84 207.5-128T480-800q125 0 241 43.5T929-628q13 11 13 28.5T930-570l-71 71q-23-11-48-16t-51-5q-100 0-170 70t-70 170q0 26 5 51t16 48l-33 33q-12 12-28 12t-28-12Zm228 28q-17 0-28.5-11.5T640-160v-120q0-17 11.5-28.5T680-320v-40q0-33 23.5-56.5T760-440q33 0 56.5 23.5T840-360v40q17 0 28.5 11.5T880-280v120q0 17-11.5 28.5T840-120H680Zm40-200h80v-40q0-17-11.5-28.5T760-400q-17 0-28.5 11.5T720-360v40Z"/>
</svg>
