<svg aria-hidden="true" viewBox="0 -960 960 960" fill="currentColor">
  <path d="M663.174-292.37q2-14.521 3.761-28.923 1.761-14.403 1.761-29.163 0-82.87-36.315-151.761-36.316-68.892-98.468-114.566l-56.326 56.326q-11.435 11.435-25.228 5.598-13.794-5.837-13.794-21.75v-253.674q0-9.435 6.718-16.152 6.717-6.717 16.152-6.717h253.674q15.913 0 21.75 13.673 5.837 13.674-5.598 25.109l-56.326 56.565q53.913 48.674 85.989 116.066Q793-574.348 793-495.478q0 63.717-20.88 119.674-20.881 55.956-57.641 101.913-17.957 21.913-36.751 14.913-18.793-7-14.554-33.392ZM244.891-106.848q-15.913 0-21.75-13.673-5.837-13.674 5.598-25.109l56.326-56.565q-54.913-48.674-86.489-116.066Q167-385.652 167-464.522q0-63.717 20.88-119.674 20.881-55.956 58.402-101.913 17.479-21.435 36.392-14.435 18.913 7 14.152 32.914-2.761 13.76-4.141 28.163-1.381 14.402-1.381 29.923 0 82.87 36.815 151.761 36.816 68.892 97.968 114.566l56.326-56.326q11.435-11.435 25.228-5.598 13.794 5.837 13.794 21.75v253.674q0 9.435-6.718 16.152-6.717 6.717-16.152 6.717H244.891Z"/>
</svg>
