<svg aria-hidden="true" viewBox="0 -960 960 960" fill="currentColor">
  <path d="M452-148 30-570q-12-12-12-29.5T31-628q93-85 208.5-128.5T480-800q125 0 240.5 43.5T929-628q13 11 13 28.5T930-570l-67 67q-25-12-50-17t-53-5q-102 0-173.5 71.5T515-280q0 28 5 53t17 50l-29 29q-12 12-28 12t-28-12Zm228 28q-17 0-28.5-11.5T640-160v-200q0-17 11.5-28.5T680-400h90q17 0 28.5 11.5T810-360v70h70q17 0 28.5 11.5T920-250v90q0 17-11.5 28.5T880-120H680Zm20-60h50v-50h-50v50Zm0-110h50v-50h-50v50Zm110 110h50v-50h-50v50Z"/>
</svg>
