<svg aria-hidden="true" viewBox="0 -960 960 960" fill="currentColor">
  <path d="M447.217-136.043 31.152-567.413q-13.196-13.674-12.717-32.467.478-18.794 14.435-31.229 90.76-84.043 207.565-128.5Q357.239-804.065 480-804.065q122.478 0 239.804 44.217Q837.13-715.63 927.37-631.109q13.195 12.435 13.815 31.229.619 18.793-12.337 32.467l-65.848 68q-24.283-11.043-48.804-15.804-24.522-4.761-51.566-4.761-104.63 0-178.282 73.652-73.652 73.652-73.652 178.283 0 29.674 5.837 56.467 5.837 26.794 18.793 52.75l-22.543 22.783Q499.109-121.652 480-121.652t-32.783-14.391Zm269.913-86.5h-74.5q-19.152 0-32.326-13.174t-13.174-32.326q0-19.152 13.174-32.326t32.326-13.174h74.5v-74.5q0-19.152 13.174-32.326t32.326-13.174q19.153 0 32.327 13.174t13.174 32.326v74.5h74.499q19.153 0 32.327 13.174t13.174 32.326q0 19.152-13.174 32.326t-32.327 13.174h-74.499v74.5q0 19.152-13.174 32.326t-32.327 13.174q-19.152 0-32.326-13.174t-13.174-32.326v-74.5Z"/>
</svg>
