<svg aria-hidden="true" viewBox="0 -960 960 960" fill="currentColor">
  <path d="M678.565-111.869q-16.39 0-27.477-11.088Q640-134.044 640-150.435v-122.869q0-16.39 11.088-27.478 11.087-11.087 27.477-11.087H680v-40q0-33 23.5-56.5t56.5-23.5q33 0 56.5 23.5t23.5 56.5v40h1.435q16.39 0 27.477 11.087Q880-289.694 880-273.304v122.869q0 16.391-11.088 27.478-11.087 11.088-27.477 11.088h-162.87Zm41.435-200h80v-40q0-17-11.5-28.5t-28.5-11.5q-17 0-28.5 11.5t-11.5 28.5v40ZM447.217-136.043 32.152-566.413q-13.196-13.674-12.837-32.967.359-19.294 14.555-31.729 92.565-84 206.565-128.478 114-44.478 239.565-44.478 123.326 0 239.685 44.217Q836.043-715.63 926.37-631.109q14.195 12.435 14.434 31.729.239 19.293-12.956 32.967l-71.478 74.348q-20.779-9.522-44.031-14.283-23.252-4.761-47.774-5.521-4.783 0-9.207.717T746.63-509l83.261-86.848q-76.13-57.608-165.482-87.413-89.351-29.804-184.467-29.804-95.116 0-184.409 29.804-89.294 29.805-165.424 87.413L480-235.196l40.957-42.391q-.479 2.63-.718 5.141t-.239 5.142q.761 26.913 6.598 52.087 5.837 25.174 17.032 47.369l-30.847 31.805Q499.109-121.652 480-121.652t-32.783-14.391ZM480-474.13Z"/>
</svg>
