<svg aria-hidden="true" viewBox="0 -960 960 960" fill="currentColor">
  <path d="M512.783-137.282q-13.674 14.63-33.163 14.63-19.49 0-33.164-14.63L56.674-541.696q-12.478-12.956-17.978-28.032-5.5-15.076-4.5-31.033 1-15.956 7.478-30.413 6.478-14.456 18.956-24.935 87.283-69.478 193.305-108.717Q359.957-804.065 480-804.065q120.043 0 225.706 39.119 105.664 39.12 193.424 108.837 12.479 10.479 18.957 24.935 6.478 14.457 7.717 30.413 1.239 15.957-4.88 31.294-6.12 15.337-17.598 28.293l-5.304 6.5q-81-82.674-188.207-130.532Q602.609-713.065 480-713.065q-99.174 0-187.826 31.304-88.652 31.305-161.304 86.674L512.783-199.5q11.956 12.435 11.956 30.609t-11.956 31.609ZM833.37-188l-74.044-72.804q-17.761 10.521-37.402 15.663Q702.283-240 680-240q-68 0-114-46t-46-114q0-68 46-114t114-46q68 0 114 46t46 114q0 23-5.261 42.761-5.261 19.761-15.543 37.043L892-246.63q11.717 11.717 12.098 28.934.38 17.218-12.098 29.696-11.717 11.717-29.315 11.717T833.37-188ZM680-323.587q32.565 0 54.489-21.924T756.413-400q0-32.565-21.924-54.489T680-476.413q-32.565 0-54.489 21.924T603.587-400q0 32.565 21.924 54.489T680-323.587ZM480-168.391Z"/>
</svg>
