<svg aria-hidden="true" viewBox="0 -960 960 960" fill="currentColor">
  <path d="M720-240h-80q-17 0-28.5-11.5T600-280q0-17 11.5-28.5T640-320h80v-80q0-17 11.5-28.5T760-440q17 0 28.5 11.5T800-400v80h80q17 0 28.5 11.5T920-280q0 17-11.5 28.5T880-240h-80v80q0 17-11.5 28.5T760-120q-17 0-28.5-11.5T720-160v-80Zm-268 92L29-571q-12-12-12-29t13-28q91-85 209-128.5T480-800q122 0 241 43.5T930-628q12 11 12.5 28T931-571l-68 68q-21-10-44-15.5t-48-6.5l73-73q-79-60-172-91t-192-31q-99 0-192 31t-172 91l364 364 35-35q1 25 6.5 48t15.5 44l-29 29q-12 12-28 12t-28-12Zm28-329Z"/>
</svg>
