<svg aria-hidden="true" viewBox="0 -960 960 960" fill="currentColor">
  <path d="M680-120q-17 0-28.5-11.5T640-160v-120q0-17 11.5-28.5T680-320v-40q0-33 23.5-56.5T760-440q33 0 56.5 23.5T840-360v40q17 0 28.5 11.5T880-280v120q0 17-11.5 28.5T840-120H680Zm40-200h80v-40q0-17-11.5-28.5T760-400q-17 0-28.5 11.5T720-360v40ZM452-148 30-570q-12-12-12-29.5T31-628q94-84 208-128t241-44q125 0 241 43.5T929-628q13 11 13 28.5T930-570l-71 71q-21-10-44.5-15t-48.5-6l78-78q-79-60-172-91t-192-31q-99 0-192 31t-172 91l364 364 40-40q1 25 6 48.5t15 44.5l-33 33q-12 12-28 12t-28-12Zm28-329Z"/>
</svg>
