<svg aria-hidden="true" viewBox="0 -960 960 960" fill="currentColor">
  <path d="m827.87-254.5-63.5-63.5q20.521-35.478 31.782-76.359 11.261-40.88 11.261-85.641 0-136.87-95.272-232.141Q616.87-807.413 480-807.413q-44.761 0-85.261 11.261-40.5 11.261-76.739 31.782l-63.5-63.5q49.435-32.239 106.25-49.478 56.815-17.239 119.25-17.239 86.109 0 161.739 32.576 75.631 32.576 131.663 88.609 56.033 56.032 88.609 131.663 32.576 75.63 32.576 161.739 0 62.435-17.239 119.25T827.87-254.5ZM770.652-74.913l-448.761-448q-2.478 10.239-3.978 20.837-1.5 10.598-1.5 22.076 0 25.522 7.261 47.522t19.782 42q10.718 16.674 9.598 34.608-1.119 17.935-13.076 29.892-13.196 13.196-31.13 12.576-17.935-.62-28.653-14.576-23.717-31.957-37.456-70.272Q229-436.565 229-480q0-30.152 6.598-58.065 6.597-27.913 18.793-52.348l-56.13-56.131q-21.718 36.957-33.696 78.653-11.978 41.695-11.978 87.891 0 59.478 19.5 111.696 19.5 52.217 54.5 94.934 11.717 14.435 11.217 32.251-.5 17.815-13.456 30.771-13.196 13.196-30.75 12.696-17.555-.5-29.272-13.696-45.957-54.674-72.435-123.087Q65.413-402.848 65.413-480q0-64.63 18.076-122.261 18.076-57.63 51.511-107.544l-60.848-60.847q-11.717-11.718-11.717-29.316 0-17.597 12.478-30.076 11.717-11.717 29.315-11.717t30.076 11.717l695.74 696.501q11.717 11.717 11.717 29.315t-11.717 29.315q-12.479 12.478-30.076 12.478-17.598 0-29.316-12.478ZM708-374.37l-68.696-68.695q1.761-9.044 3.022-18.087 1.261-9.044 1.261-18.848 0-67.435-48.076-115.511Q547.435-643.587 480-643.587q-9.804 0-18.848 1.261-9.043 1.261-18.087 3.022L374.37-708q23.717-11 50.434-17 26.718-6 55.196-6 104.544 0 177.772 73.228T731-480q0 28.717-6 55.315t-17 50.315Z"/>
</svg>
