<svg aria-hidden="true" viewBox="0 -960 960 960" fill="currentColor">
  <path d="M452-148 29-571q-12-12-12-29t13-28q91-85 209-128.5T480-800q122 0 241 43.5T930-628q12 11 12.5 28T931-571l-68 68q-25-12-50-17t-53-5q-102 0-173.5 71.5T515-280q0 28 5 53t17 50l-29 29q-12 12-28 12t-28-12Zm268-92h-80q-17 0-28.5-11.5T600-280q0-17 11.5-28.5T640-320h80v-80q0-17 11.5-28.5T760-440q17 0 28.5 11.5T800-400v80h80q17 0 28.5 11.5T920-280q0 17-11.5 28.5T880-240h-80v80q0 17-11.5 28.5T760-120q-17 0-28.5-11.5T720-160v-80Z"/>
</svg>
