<svg aria-hidden="true" viewBox="0 -960 960 960" fill="currentColor">
  <path d="M154.826-107.087q-20.631 0-33.185-14.293-12.554-14.294-9.315-33.924 30.435-224.87 82.706-361.24 52.272-136.369 121.381-136.369 43.957 0 80.413 56.163 36.457 56.163 65.5 158.467 26.957-200.457 72.131-307.543 45.173-107.087 109.13-107.087 87.348 0 139.359 193.967 52.011 193.968 67.728 503.359 2 19.392-11.935 33.946-13.934 14.554-35.326 14.554-16.674 0-30.848-11.315t-18.413-28.228q-20.804-79.131-53.826-141.348-33.022-62.217-56.739-66.522-23.717 4.544-56.239 65.142-32.522 60.597-53.326 138.489-5.239 17.913-20.413 30.848-15.174 12.934-34.087 12.934-18.674 0-33.109-12.315-14.435-12.315-16.913-31.228-20-142.652-52.761-255.402t-60.326-145.859q-27.804 33.348-60.685 146.478-32.88 113.131-52.641 256.544-2.478 16.913-16.413 29.348-13.935 12.434-31.848 12.434ZM548.131-393.87q19.282-22.413 43.565-37.021 24.282-14.609 51.891-14.609 26.848 0 51.63 14.728 24.783 14.728 44.066 37.141-16.566-137.412-42.729-236.641-26.163-99.228-52.967-125.098-26.804 25.87-53.228 128.142-26.424 102.271-42.228 233.358Z"/>
</svg>
