<svg aria-hidden="true" viewBox="0 -960 960 960" fill="currentColor">
  <path d="m833.37-188-74.044-72.804q-17.761 10.521-37.402 15.663Q702.283-240 680-240q-68 0-114-46t-46-114q0-68 46-114t114-46q68 0 114 46t46 114q0 23-5.261 42.761-5.261 19.761-15.543 37.043L892-246.63q11.717 11.717 12.098 28.934.38 17.218-12.098 29.696-11.717 11.717-29.315 11.717T833.37-188ZM680-323.587q32.565 0 54.489-21.924T756.413-400q0-32.565-21.924-54.489T680-476.413q-32.565 0-54.489 21.924T603.587-400q0 32.565 21.924 54.489T680-323.587ZM478.761-142.565q-19.87 0-34.326-5.956-14.457-5.957-27.653-19.87L56.674-541.696q-12.478-12.956-17.978-28.032-5.5-15.076-4.5-31.033 1-15.956 7.478-30.413 6.478-14.456 18.956-24.935 87.283-69.478 193.305-108.717Q359.957-804.065 480-804.065q120.043 0 225.706 39.119 105.664 39.12 193.424 108.837 12.479 10.479 18.957 24.815 6.478 14.337 7.717 30.294 1.239 15.957-4.88 31.413-6.12 15.457-17.598 28.413l-17.13 17.609q-29.761-51.478-83.098-83.957Q749.761-640 680-640q-100 0-170 70t-70 170q0 72.348 35.489 127.044 35.489 54.695 88.076 82.26l-21.108 22.305q-13.957 14.674-28.892 20.25-14.935 5.576-34.804 5.576Z"/>
</svg>
