<svg aria-hidden="true" viewBox="0 -960 960 960" fill="currentColor">
  <path d="M162-120q-18 0-29-12.5t-8-29.5q29-211 83.5-344.5T320-640q48 0 84 67.5T464-417q26-205 71-314t105-109q71 0 127 190.5T838-163q2 17-10.5 30T796-120q-15 0-27.5-10T752-155q-22-82-55.5-143.5T640-360q-23 0-56 60t-55 141q-5 16-18.5 27.5T480-120q-17 0-30-11t-15-28q-20-146-53.5-256.5T320-555q-29 30-62 140.5T205-157q-2 15-14.5 26T162-120Zm378-260q20-26 45-43t55-17q29 0 54.5 17t45.5 43q-17-143-44-248.5T640-758q-29 25-56 129.5T540-380Z"/>
</svg>
