<svg aria-hidden="true" viewBox="0 -960 960 960" fill="currentColor">
  <path d="M212-389q-18-18-17-43t20-39q55-42 122.5-65.5T480-560q76 0 143.5 24T746-469q19 14 19.5 38.5T748-388q-17 17-41.5 17.5T661-384q-39-27-84.5-41.5T480-440q-51 0-96.5 15T300-384q-22 15-46.5 13.5T212-389ZM42-558q-17-17-17-41.5T43-640q89-75 200-117.5T480-800q126 0 237 42.5T917-640q18 16 18.5 40T918-558q-17 17-41.5 18T832-555q-73-59-162.5-92T480-680q-100 0-189.5 33T128-555q-20 16-44.5 15T42-558Zm438 398q-34 0-57-23t-23-57q0-34 23-57t57-23q34 0 57 23t23 57q0 34-23 57t-57 23Z"/>
</svg>
