<svg aria-hidden="true" viewBox="0 -960 960 960" fill="currentColor">
  <path d="M479.247-352.587q-36.073 0-61.725-25.688-25.653-25.688-25.653-61.761 0-36.073 25.689-61.725 25.688-25.652 61.761-25.652 36.072 0 61.725 25.688 25.652 25.688 25.652 61.761 0 36.073-25.688 61.725-25.689 25.652-61.761 25.652Zm-199.008 66.131q-24.45-31.901-38.203-71.005-13.754-39.104-13.754-82.539 0-104.583 73.201-177.792Q374.683-691 479.254-691q104.572 0 177.801 73.208Q730.283-544.583 730.283-440q0 43.435-13.753 82.539-13.754 39.104-38.204 71.005-10.717 13.195-28.391 13.315-17.674.119-32.391-14.598-11.718-11.717-12.457-28.772-.739-17.054 9.978-32.967 13.423-20 20.614-42.5 7.191-22.5 7.191-48.022 0-67.48-48.045-115.533-48.044-48.054-115.511-48.054-67.466 0-115.542 48.054Q315.696-507.48 315.696-440q0 25.522 7.19 48.022 7.191 22.5 20.614 42.5 10.717 15.913 9.598 33.348-1.12 17.434-14.837 31.152-12.435 12.435-29.87 12.076-17.435-.359-28.152-13.554Zm-115.87 115.869q-46.956-54.674-73.315-123.514Q64.695-362.94 64.695-440q0-86.034 32.576-161.702 32.577-75.668 88.609-131.7 56.033-56.033 131.701-88.609 75.668-32.576 161.702-32.576 94.694 0 175.184 38.13 80.49 38.131 137.403 105.196 21.435 24.631 11.239 47.946Q792.913-640 762.761-640q-9.933 0-21.521-5.598-11.588-5.598-19.066-13.554-45.717-50.392-107.983-79.326-62.265-28.935-134.908-28.935-136.87 0-232.142 95.272Q151.869-576.87 151.869-440q0 59.478 19.881 112.076 19.88 52.598 54.88 95.315 11.718 14.435 10.957 31.75-.761 17.316-14.718 31.272-12.434 12.435-29.989 12.315-17.554-.119-28.511-13.315Zm685.914-147.978q-18.525 0-31.056-12.531-12.531-12.532-12.531-31.056V-520q0-18.524 12.531-31.056 12.531-12.531 31.056-12.531 18.524 0 31.056 12.531Q893.87-538.524 893.87-520v157.848q0 18.524-12.531 31.056-12.532 12.531-31.056 12.531Zm-.013 165.261q-19.139 0-32.194-12.996-13.054-12.995-13.054-32.206 0-19.211 12.995-32.146 12.996-12.935 32.207-12.935t32.146 12.947q12.935 12.948 12.935 32.087 0 19.14-12.948 32.194-12.947 13.055-32.087 13.055Z"/>
</svg>
