<svg aria-hidden="true" viewBox="0 -960 960 960" fill="currentColor">
  <path d="M760 0q-17 0-28.5-11.5T720-40v-120q0-17 11.5-28.5T760-200v-40q0-33 23.5-56.5T840-320q33 0 56.5 23.5T920-240v40q17 0 28.5 11.5T960-160v120q0 17-11.5 28.5T920 0H760Zm40-200h80v-40q0-17-11.5-28.5T840-280q-17 0-28.5 11.5T800-240v40Zm-391 51q-29-29-29-71t29-71q29-29 71-29t71 29q29 29 29 71t-29 71q-29 29-71 29t-71-29Zm213.5-387Q690-512 745-470q20 15 20.5 39.5T748-388q-17 17-42 17.5T661-384q-38-26-84-41t-97-15q-51 0-97 15t-84 41q-20 14-45 13t-42-18q-17-18-17-42.5t20-39.5q55-42 122.5-65.5T480-560q75 0 142.5 24Zm93-223Q826-718 914-643q20 17 21 42t-17 43q-17 17-42 17.5T831-556q-72-59-161.5-91.5T480-680q-100 0-189.5 32.5T129-556q-20 16-45 15.5T42-558q-18-18-17-43t21-42q88-75 198.5-116T480-800q125 0 235.5 41Z"/>
</svg>
