<svg aria-hidden="true" viewBox="0 -960 960 960" fill="currentColor">
  <path d="M214.87-386.13q-19.196-19.196-18.196-45.511 1-26.316 21.196-41.033 54.76-41.043 121.304-64.185Q405.717-560 480-560q75.043 0 141.706 23.402 66.664 23.402 121.424 65.446 20.196 14.717 20.816 40.652.619 25.935-18.576 45.13-17.718 17.718-43.892 18.696-26.174.978-48.848-13.739-37.326-25.326-80.554-38.75T480-432.587q-48.848 0-91.956 13.805-43.109 13.804-79.674 38.369-23.435 15.478-49.609 13.739-26.174-1.739-43.891-19.456Zm-170-169.24q-18.196-18.195-18.196-44.25 0-26.054 19.196-42.771 88.76-74.283 198.924-115.946Q354.957-800 480-800q125.043 0 235.326 41.663 110.283 41.663 199.044 115.946 19.195 16.717 19.576 42.271.38 25.555-18.816 44.75-17.717 17.718-43.771 19.077-26.055 1.358-47.49-15.598-71.804-57.087-158.793-88.891Q578.087-672.587 480-672.587q-98.087 0-185.076 31.805-86.989 31.804-158.793 88.891-21.435 16.956-47.49 15.598-26.054-1.359-43.771-19.077ZM480-152.587q-35.435 0-59.511-24.195-24.076-24.196-24.076-59.631t24.076-59.511Q444.565-320 480-320t59.511 24.076q24.076 24.076 24.076 59.511t-24.076 59.631Q515.435-152.587 480-152.587Z"/>
</svg>
