<svg aria-hidden="true" viewBox="0 -960 960 960" fill="currentColor">
  <path d="M480-120q-42 0-71-29.5T380-220q0-42 29-71t71-29q42 0 71 29t29 71q0 41-29 70.5T480-120Zm344.109-432.413q-72.044-57.326-159.033-88.75Q578.087-672.587 480-672.587q-17.891 0-34.641 1.142-16.75 1.141-33.88 3.663L302.065-777.196q44-12 87.468-17.402Q433-800 480-800q124.283 0 234.946 41.402t198.663 114.924q19.956 16.717 20.456 42.152.5 25.435-18.935 45.631-17.717 17.956-43.771 19.076-26.055 1.119-47.25-15.598ZM708.022-371.239l-23.218-23.218-23.217-23.217-141.369-141.13q63.608 6.478 120.597 29.521 56.989 23.044 102.555 58.131 20.717 15.478 21.076 40.793.358 25.316-18.598 44.272-7.565 7.565-17.652 11.467-10.087 3.903-20.174 3.381Zm50.391 288.435-342.5-344.261q-30.565 6.761-57.391 18.424-26.826 11.663-51.391 27.228-23.435 15.478-48.99 14.12-25.554-1.359-43.989-19.794-18.956-18.956-17.837-45.033 1.12-26.076 21.076-40.793 21.566-16.804 46.131-30.467t50.891-25.185l-84.5-84.5q-25.565 13.522-49.13 28.565-23.565 15.044-45.131 31.848-21.195 16.717-47.13 15.978-25.935-.739-44.37-20.174-17.956-18.956-17.837-45.032.12-26.077 20.076-42.033 21.805-17.804 43.99-32.967 22.184-15.163 46.271-29.207l-53.848-54.087q-11.717-11.717-11.717-29.315t11.717-29.315Q94.522-830.522 112-830.522t29.196 11.718l676.608 676.608q11.718 11.718 11.718 29.696t-11.718 29.696q-12.478 12.478-30.076 12.097-17.598-.38-29.315-12.097Z"/>
</svg>
