<svg aria-hidden="true" viewBox="0 -960 960 960" fill="currentColor">
  <path d="M214.87-386.13q-19.196-19.196-18.196-45.511 1-26.316 21.196-41.033 54.76-41.043 121.304-64.185Q405.717-560 480-560q75.043 0 141.706 23.402 66.664 23.402 121.424 65.446 20.196 14.717 20.816 40.652.619 25.935-18.576 45.13-17.718 17.718-43.892 18.696-26.174.978-48.848-13.739-37.326-25.326-80.554-38.75T480-432.587q-48.848 0-91.956 13.805-43.109 13.804-79.674 38.369-23.435 15.478-49.609 13.739-26.174-1.739-43.891-19.456ZM480-152.587q-35.435 0-59.511-24.195-24.076-24.196-24.076-59.631t24.076-59.511Q444.565-320 480-320t59.511 24.076q24.076 24.076 24.076 59.511t-24.076 59.631Q515.435-152.587 480-152.587Z"/>
</svg>
