<svg aria-hidden="true" viewBox="0 -960 960 960" fill="currentColor">
  <path d="M760 0q-17 0-28.5-11.5T720-40v-120q0-17 11.5-28.5T760-200v-40q0-33 23.5-56.5T840-320q33 0 56.5 23.5T920-240v40q17 0 28.5 11.5T960-160v120q0 17-11.5 28.5T920 0H760Zm40-200h80v-40q0-17-11.5-28.5T840-280q-17 0-28.5 11.5T800-240v40ZM212-389q-18-18-17-43t20-39q55-42 122.5-65.5T480-560q76 0 143.5 24T746-469q19 14 19.5 38.5T748-388q-17 17-41.5 17.5T661-384q-39-27-84.5-41.5T480-440q-51 0-96.5 15T300-384q-22 15-46.5 13.5T212-389ZM42-558q-17-17-17-41.5T43-640q89-75 200-117.5T480-800q126 0 237 42.5T917-640q18 16 18.5 40T918-558q-17 17-41.5 18T832-555q-73-59-162.5-92T480-680q-100 0-189.5 33T128-555q-20 16-44.5 15T42-558Zm438 398q-34 0-57-23t-23-57q0-34 23-57t57-23q34 0 57 23t23 57q0 34-23 57t-57 23Z"/>
</svg>
