<svg aria-hidden="true" viewBox="0 -960 960 960" fill="currentColor">
  <path d="M479.964-352.587q-36.073 0-61.725-25.688t-25.652-61.761q0-36.073 25.688-61.725t61.761-25.652q36.073 0 61.725 25.688t25.652 61.761q0 36.073-25.688 61.725t-61.761 25.652Zm-199.769 64.609q-23.717-31.957-37.456-70.253Q229-396.528 229-440q0-104.583 73.2-177.792Q375.4-691 479.972-691q104.572 0 177.8 73.208Q731-544.583 731-440q0 43.435-13.739 82.511-13.739 39.076-37.456 70.272-10.718 13.956-28.772 14.076-18.055.119-31.961-13.787-11.768-11.768-12.507-29.322-.739-17.554 9.979-34.228 13.521-19.894 20.282-42.274 6.761-22.381 6.761-47.248 0-67.48-48.044-115.533-48.045-48.054-115.511-48.054-67.467 0-115.543 48.054Q316.413-507.48 316.413-440q0 25.522 7.244 47.522t19.799 42q10.718 16.674 9.626 34.608-1.092 17.935-13.104 29.892-13.196 13.196-31.13 12.576-17.935-.62-28.653-14.576Zm-115.869 116.63q-45.957-54.674-72.435-123.085T65.413-440q0-86.034 32.576-161.702 32.576-75.668 88.609-131.7 56.032-56.033 131.718-88.609 75.686-32.576 161.739-32.576 86.054 0 161.684 32.576 75.631 32.576 131.663 88.609 56.033 56.032 88.609 131.7Q894.587-526.034 894.587-440q0 77.06-26.478 145.899-26.478 68.84-72.435 123.514-11.717 13.196-29.272 13.315-17.554.12-30.677-13.003-12.029-12.029-12.529-29.964t11.217-32.37q34.239-42.717 53.62-95.315 19.38-52.598 19.38-112.076 0-136.87-95.272-232.141Q616.87-767.413 480-767.413t-232.141 95.272Q152.587-576.87 152.587-440q0 59.478 19.5 111.743 19.5 52.264 54.5 94.887 11.717 14.435 11.18 32.251-.536 17.815-13.419 30.771-13.174 13.196-30.74 12.696-17.565-.5-29.282-13.696Z"/>
</svg>
