<svg aria-hidden="true" viewBox="0 -960 960 960" fill="currentColor">
  <path d="M162-120q-18 0-29-12.5t-8-29.5q29-211 79-344.5T320-640q43 0 78.5 57T464-417q26-205 69.5-314T640-840q84 0 133.5 190.5T838-163q2 17-10.5 30T796-120q-15 0-27.5-10T752-155q-22-82-55.5-143.5T640-360q-23 0-56 60t-55 141q-5 16-18.5 27.5T480-120q-17 0-30-11t-15-28q-20-146-53-256t-62-140q-29 30-62 140.5T205-157q-2 15-14.5 26T162-120Zm378-260q20-26 45-43t55-17q29 0 54.5 17t45.5 43q-18-152-45-253.5T640-758q-28 23-55.5 128.5T540-380Z"/>
</svg>
