<svg aria-hidden="true" viewBox="0 -960 960 960" fill="currentColor">
  <path d="M700-180h50v-50h-50v50Zm0-110h50v-50h-50v50Zm110 110h50v-50h-50v50Zm-130 60q-17 0-28.5-11.5T640-160v-200q0-17 11.5-28.5T680-400h90q17 0 28.5 11.5T810-360v70h70q17 0 28.5 11.5T920-250v90q0 17-11.5 28.5T880-120H680Zm-228-28L30-570q-12-12-12-29.5T31-628q93-85 208.5-128.5T480-800q125 0 240.5 43.5T929-628q13 11 13 28.5T930-570l-67 67q-21-10-44-15.5t-48-6.5l73-73q-79-60-172-91t-192-31q-99 0-192 31t-172 91l364 364 35-35q1 25 6.5 48t15.5 44l-29 29q-12 12-28 12t-28-12Zm28-329Z"/>
</svg>
