<svg aria-hidden="true" viewBox="0 -960 960 960" fill="currentColor">
  <path d="m836-188-75-74q-18 11-38 16.5t-43 5.5q-68 0-114-46t-46-114q0-68 46-114t114-46q68 0 114 46t46 114q0 23-5.5 43T818-319l74 75q11 11 11.5 27.5T892-188q-11 11-28 11t-28-11ZM680-320q34 0 57-23t23-57q0-34-23-57t-57-23q-34 0-57 23t-23 57q0 34 23 57t57 23ZM479-155q-17 0-30.5-5T423-177L55-546q-12-12-17.5-26T33-601q1-15 7-28.5T58-653q88-69 194.5-108T480-800q121 0 227.5 39T902-653q12 10 18 23.5t7 28.5q1 15-5 29.5T905-545l-20 20q-30-51-82.5-83T680-640q-100 0-170 70t-70 170q0 69 32.5 122.5T554-195l-18 18q-13 13-26.5 17.5T479-155Z"/>
</svg>
