<svg aria-hidden="true" viewBox="0 -960 960 960" fill="currentColor">
  <path d="M480-120q-42 0-71-29.5T380-220q0-42 29-71t71-29q42 0 71 29t29 71q0 41-29 70.5T480-120Zm352-436q-73-59-162.5-91.5T480-680q-21 0-40.5 1.5T400-674L298-776q44-12 89.5-18t92.5-6q125 0 236.5 42T916-642q19 16 19.5 40T918-559q-17 17-41.5 18T832-556ZM703-371l-22.5-22.5L658-416 514-560q66 6 125.5 30T746-469q20 15 20 39t-18 42q-9 9-21 13.5t-24 3.5Zm59 287L414-434q-32 7-60.5 19.5T299-385q-22 15-46 14t-41-18q-18-18-17-43t20-39q23-18 49-32.5t54-26.5l-90-90q-27 14-52 30t-48 34q-20 16-44.5 15.5T42-559q-17-18-17-43t19-40q23-19 46.5-35t49.5-31l-56-56q-11-11-11-28t11-28q11-11 28-11t28 11l679 679q11 11 11 28.5T819-84q-12 12-29 11.5T762-84Z"/>
</svg>
