<svg aria-hidden="true" viewBox="0 -960 960 960" fill="currentColor">
  <path d="M480-360q-33 0-56.5-23.5T400-440q0-33 23.5-56.5T480-520q33 0 56.5 23.5T560-440q0 33-23.5 56.5T480-360Zm-189 69q-24-31-37.5-69T240-440q0-100 70-170t170-70q100 0 170 70t70 170q0 42-13.5 80T669-291q-10 12-26 12t-30-14q-11-11-11.5-26.5T611-349q14-20 21.5-42.5T640-440q0-66-47-113t-113-47q-66 0-113 47t-47 113q0 26 7.5 48.5T349-349q10 14 9 30t-14 29q-11 11-27 11t-26-12ZM178-178q-46-53-72-120T80-440q0-83 31.5-156T197-723q54-54 127-85.5T480-840q90 0 166.5 35.5T778-706q20 22 11 44t-37 22q-9 0-19.5-5T715-657q-45-48-105-75.5T480-760q-134 0-227 93t-93 227q0 59 20 111t55 94q11 13 10 29t-14 29q-11 11-27 11t-26-12Zm662-142q-17 0-28.5-11.5T800-360v-160q0-17 11.5-28.5T840-560q17 0 28.5 11.5T880-520v160q0 17-11.5 28.5T840-320Zm0 160q-17 0-28.5-11.5T800-200q0-17 11.5-28.5T840-240q17 0 28.5 11.5T880-200q0 17-11.5 28.5T840-160Z"/>
</svg>
