<svg aria-hidden="true" viewBox="0 -960 960 960" fill="currentColor">
  <path d="M447.217-136.043 32.152-566.413q-13.196-13.674-12.456-32.967.739-19.294 14.934-31.729 92.566-84 206.185-128.478Q354.435-804.065 480-804.065q123.326 0 239.685 44.217Q836.043-715.63 926.37-631.109q14.195 12.435 14.434 31.729.239 19.293-12.956 32.967l-71.478 74.348q-22.283-10.283-46.685-15.044-24.402-4.76-49.685-4.76-100 0-170 70t-70 170q0 27.674 5.837 53.989 5.837 26.315 17.793 50.032l-30.847 31.805Q499.109-121.652 480-121.652t-32.783-14.391Zm231.348 24.174q-16.282 0-27.424-11.142Q640-134.152 640-150.435v-122.869q0-16.283 11.141-27.424 11.142-11.141 27.424-11.141H680v-40q0-33 23.5-56.5t56.5-23.5q33 0 56.5 23.5t23.5 56.5v40h1.435q16.282 0 27.424 11.141Q880-289.587 880-273.304v122.869q0 16.283-11.141 27.424-11.142 11.142-27.424 11.142h-162.87Zm41.435-200h80v-40q0-17-11.5-28.5t-28.5-11.5q-17 0-28.5 11.5t-11.5 28.5v40Z"/>
</svg>
