<svg aria-hidden="true" viewBox="0 -960 960 960" fill="currentColor">
  <path d="M352.587-107.087q-19.152 0-32.326-13.174t-13.174-32.326q0-19.152 13.174-32.326t32.326-13.174H434.5v-157.782q-90.065-15.435-148.739-84.305Q227.087-509.043 227.087-600v-207.413q0-19.152 13.174-32.326t32.326-13.174h414.826q19.152 0 32.326 13.174t13.174 32.326V-600q0 90.957-58.674 159.826-58.674 68.87-148.739 84.305v157.782h81.913q19.152 0 32.326 13.174t13.174 32.326q0 19.152-13.174 32.326t-32.326 13.174H352.587Zm-34.5-538.413h323.826v-116.413H318.087V-645.5Z"/>
</svg>
