<svg aria-hidden="true" viewBox="0 -960 960 960" fill="currentColor">
  <path d="M439.87-451.674 480-482.522l39.37 30.848q12.913 10.435 27.467.859 14.554-9.576 9.076-25.729l-15.804-51.13 43.934-34.413q12.914-10.196 7.696-25.848-5.217-15.652-21.369-15.652h-52.457l-16.283-50.37q-5.478-16.152-21.75-16.152-16.271 0-21.75 16.152l-16.043 50.37H389.63q-16.152 0-21.75 16.033-5.597 16.032 7.316 25.467l43.934 34.413-16.043 51.13q-5.478 16.153 8.815 25.729 14.294 9.576 27.968-.859ZM296.587-52.978q-22.63 7.956-41.402-5.718-18.772-13.674-18.772-36.543v-247.304q-39.913-43.435-62.228-99.468-22.316-56.032-22.316-119.424 0-137.109 95.511-232.62 95.511-95.51 232.62-95.51t232.62 95.51q95.511 95.511 95.511 232.62 0 63.392-22.316 119.424-22.315 56.033-62.228 99.468v247.304q0 22.87-18.772 36.543-18.772 13.674-41.402 5.718L480-113.304 296.587-52.978ZM480-324.304q98.804 0 167.967-69.163 69.163-69.163 69.163-167.968 0-98.804-69.163-167.967Q578.804-798.565 480-798.565q-98.804 0-167.967 69.163-69.163 69.163-69.163 167.967 0 98.805 69.163 167.968Q381.196-324.304 480-324.304Zm-160 169.13 160-42.674 160 42.674v-120.413q-35.239 19.761-75.62 31.022Q524-233.304 480-233.304q-44 0-84.38-11.261-40.381-11.261-75.62-31.022v120.413Zm160-60.087Z"/>
</svg>
