<svg aria-hidden="true" viewBox="0 -960 960 960" fill="currentColor">
  <path d="M720-120q8 0 14-6t6-14q0-8-6-14t-14-6q-8 0-14 6t-6 14q0 8 6 14t14 6Zm0-80q8 0 14-6t6-14v-120q0-8-6-14t-14-6q-8 0-14 6t-6 14v120q0 8 6 14t14 6Zm-560 0v-15 15-440 440Zm0 80q-33 0-56.5-23.5T80-200v-440q0-33 23.5-56.5T160-720h160v-80q0-33 23.5-56.5T400-880h160q33 0 56.5 23.5T640-800v80h160q33 0 56.5 23.5T880-640v120q0 17-11.5 28T840-481q-17 0-28.5-11.5T800-521v-119H160v440h260q17 0 28.5 11.5T460-160q0 17-11.5 28.5T420-120H160Zm240-600h160v-80H400v80ZM578.5-98.5Q520-157 520-240t58.5-141.5Q637-440 720-440t141.5 58.5Q920-323 920-240T861.5-98.5Q803-40 720-40T578.5-98.5Z"/>
</svg>
