<svg aria-hidden="true" viewBox="0 -960 960 960" fill="currentColor">
  <path d="M160-200v-440 440-15 15Zm0 80q-33 0-56.5-23.5T80-200v-440q0-33 23.5-56.5T160-720h160v-80q0-33 23.5-56.5T400-880h160q33 0 56.5 23.5T640-800v80h160q33 0 56.5 23.5T880-640v171q-18-13-38-22.5T800-508v-132H160v440h283q3 21 9 41t15 39H160Zm240-600h160v-80H400v80ZM720-40q-83 0-141.5-58.5T520-240q0-83 58.5-141.5T720-440q83 0 141.5 58.5T920-240q0 83-58.5 141.5T720-40Zm20-208v-92q0-8-6-14t-14-6q-8 0-14 6t-6 14v91q0 8 3 15.5t9 13.5l60 60q6 6 14 6t14-6q6-6 6-14t-6-14l-60-60Z"/>
</svg>
