<svg aria-hidden="true" viewBox="0 -960 960 960" fill="currentColor">
  <path d="M127-167q-47-47-47-113t47-113q47-47 113-47t113 47q47 47 47 113t-47 113q-47 47-113 47t-113-47Zm480 0q-47-47-47-113t47-113q47-47 113-47t113 47q47 47 47 113t-47 113q-47 47-113 47t-113-47Zm-310.5-56.5Q320-247 320-280t-23.5-56.5Q273-360 240-360t-56.5 23.5Q160-313 160-280t23.5 56.5Q207-200 240-200t56.5-23.5Zm480 0Q800-247 800-280t-23.5-56.5Q753-360 720-360t-56.5 23.5Q640-313 640-280t23.5 56.5Q687-200 720-200t56.5-23.5ZM367-567q-47-47-47-113t47-113q47-47 113-47t113 47q47 47 47 113t-47 113q-47 47-113 47t-113-47Zm169.5-56.5Q560-647 560-680t-23.5-56.5Q513-760 480-760t-56.5 23.5Q400-713 400-680t23.5 56.5Q447-600 480-600t56.5-23.5ZM480-680Zm240 400Zm-480 0Z"/>
</svg>
