<svg aria-hidden="true" viewBox="0 -960 960 960" fill="currentColor">
  <path d="M400-720h160v-80H400v80ZM578.5-98.5Q520-157 520-240t58.5-141.5Q637-440 720-440t141.5 58.5Q920-323 920-240T861.5-98.5Q803-40 720-40T578.5-98.5ZM160-120q-33 0-56.5-23.5T80-200v-440q0-33 23.5-56.5T160-720h160v-80q0-33 23.5-56.5T400-880h160q33 0 56.5 23.5T640-800v80h160q33 0 56.5 23.5T880-640v116q0 18-15.5 27t-32.5 1q-26-12-54.5-18t-57.5-6q-116 0-198 82t-82 198q0 18 2.5 36.5T450-167q5 17-5.5 32T417-120H160Zm540-76-58-58q-6-6-14-6t-14 6q-6 6-6 14t6 14l78 78q12 12 28 12t28-12l78-78q6-6 6-14t-6-14q-6-6-14-6t-14 6l-58 58v-144q0-8-6-14t-14-6q-8 0-14 6t-6 14v144Z"/>
</svg>
