<svg aria-hidden="true" viewBox="0 -960 960 960" fill="currentColor">
  <path d="m478-434 99 150q9 14 21.5 15t22.5-6q10-7 14-19t-5-26L519-488l101-154q8-13 4.5-24.5T611-685q-10-7-22.5-6T568-676l-89 138-89-138q-9-14-21-15t-23 6q-11 7-14.5 19t5.5 26l102 153-111 169q-8 13-4.5 24.5T337-275q10 7 22.5 5.5T380-284l98-150ZM324-111.5Q251-143 197-197t-85.5-127Q80-397 80-480t31.5-156Q143-709 197-763t127-85.5Q397-880 480-880t156 31.5Q709-817 763-763t85.5 127Q880-563 880-480t-31.5 156Q817-251 763-197t-127 85.5Q563-80 480-80t-156-31.5ZM480-160q133 0 226.5-93.5T800-480q0-133-93.5-226.5T480-800q-133 0-226.5 93.5T160-480q0 133 93.5 226.5T480-160Zm0-320Z"/>
</svg>
