<svg viewBox="0 0 24 24" fill="none" xmlns="http://www.w3.org/2000/svg">
	<path d="M22.0785 11.9999C22.0785 17.5669 17.5655 22.0799 11.9985 22.0799C6.43153 22.0799 1.91992 17.5655 1.91992 11.9999C1.91992 6.43437 6.43295 1.91992 11.9999 1.91992C17.5669 1.91992 22.0799 6.43295 22.0799 11.9999H22.0785ZM12.3256 4.94378H11.6714C11.0726 4.94378 10.5819 5.43448 10.5819 6.03328V6.68755C10.5819 7.28634 11.0726 7.77705 11.6714 7.77705H12.3256C12.9244 7.77705 13.4151 7.28634 13.4151 6.68755V6.03328C13.4151 5.43448 12.9244 4.94378 12.3256 4.94378V4.94378ZM15.6766 8.30473H15.0224C14.4236 8.30473 13.9329 8.79543 13.9329 9.39423V10.0485C13.9329 10.6473 14.4236 11.138 15.0224 11.138H15.6766C16.2754 11.138 16.7661 10.6473 16.7661 10.0485V9.39423C16.7661 8.79543 16.2754 8.30473 15.6766 8.30473ZM12.3256 16.2228H11.6714C11.0726 16.2228 10.5819 16.7135 10.5819 17.3123V17.9666C10.5819 18.5654 11.0726 19.0561 11.6714 19.0561H12.3256C12.9244 19.0561 13.4151 18.5654 13.4151 17.9666V17.3123C13.4151 16.7135 12.9244 16.2228 12.3256 16.2228ZM13.4151 10.0385V9.38427C13.4151 8.78547 12.9244 8.29477 12.3256 8.29477H8.32037C7.72158 8.29477 7.23087 8.78547 7.23087 9.38427V10.0385C7.23087 10.6373 7.72158 11.128 8.32037 11.128H10.5819V14.287V14.6142C10.5819 15.2129 11.0726 15.7036 11.6714 15.7036H12.3256C12.9244 15.7036 13.4151 15.2129 13.4151 14.6142V13.9599V10.0385V10.0385Z" fill="currentColor"/>
</svg>
