<svg viewBox="0 0 24 24" fill="none" xmlns="http://www.w3.org/2000/svg">
	<path d="M23.9983 12C23.9983 18.6273 18.6257 24 11.9983 24C5.37096 24 0 18.6257 0 12C0 5.37435 5.37265 0 12 0C18.6273 0 24 5.37265 24 12H23.9983ZM12.3878 3.59983H11.6089C10.896 3.59983 10.3118 4.184 10.3118 4.89685V5.67574C10.3118 6.3886 10.896 6.97277 11.6089 6.97277H12.3878C13.1006 6.97277 13.6848 6.3886 13.6848 5.67574V4.89685C13.6848 4.184 13.1006 3.59983 12.3878 3.59983ZM16.377 7.60096H15.5981C14.8853 7.60096 14.3011 8.18513 14.3011 8.89798V9.67687C14.3011 10.3897 14.8853 10.9739 15.5981 10.9739H16.377C17.0899 10.9739 17.6741 10.3897 17.6741 9.67687V8.89798C17.6741 8.18513 17.0899 7.60096 16.377 7.60096ZM12.3878 17.0272H11.6089C10.896 17.0272 10.3118 17.6114 10.3118 18.3243V19.1031C10.3118 19.816 10.896 20.4002 11.6089 20.4002H12.3878C13.1006 20.4002 13.6848 19.816 13.6848 19.1031V18.3243C13.6848 17.6114 13.1006 17.0272 12.3878 17.0272ZM13.6848 9.66502V8.88613C13.6848 8.17327 13.1006 7.58911 12.3878 7.58911H7.61959C6.90673 7.58911 6.32256 8.17327 6.32256 8.88613V9.66502C6.32256 10.3779 6.90673 10.962 7.61959 10.962H10.3118V14.7227V15.1122C10.3118 15.825 10.896 16.4092 11.6089 16.4092H12.3878C13.1006 16.4092 13.6848 15.825 13.6848 15.1122V14.3333V9.66502Z" fill="currentColor"/>
</svg>
