<svg viewBox="0 0 24 24" fill="none" xmlns="http://www.w3.org/2000/svg">
	<path d="M18.6029 10.6729C18.9037 10.3721 19.0739 9.9649 19.0765 9.53948L19.1062 8.56733C19.1036 8.14191 18.9335 7.73468 18.6327 7.43386C18.3319 7.13305 17.9246 6.96289 17.4992 6.96029H16.5072C16.08 6.95497 15.6681 7.11891 15.3614 7.41632C15.0548 7.7137 14.8782 8.12036 14.8704 8.54749V9.53948C14.873 9.9649 15.0432 10.3721 15.344 10.6729C15.6448 10.9738 16.052 11.1439 16.4774 11.1465H17.4694C17.8949 11.1439 18.3021 10.9738 18.6029 10.6729Z" fill="currentColor"/>
	<path d="M13.6429 22.3587C13.9437 22.0579 14.1139 21.6506 14.1165 21.2252V20.2333C14.1165 19.8061 13.9475 19.3963 13.6464 19.0934C13.3453 18.7904 12.9366 18.6189 12.5094 18.6163H11.5174C11.0903 18.6189 10.6816 18.7904 10.3805 19.0934C10.0794 19.3963 9.9104 19.8061 9.9104 20.2333V21.2252C9.91302 21.6506 10.0832 22.0579 10.384 22.3587C10.6848 22.6595 11.092 22.8297 11.5174 22.8323H12.5094C12.9349 22.8297 13.3421 22.6595 13.6429 22.3587Z" fill="currentColor"/>
	<path d="M13.6429 17.3987C13.9437 17.0979 14.1139 16.6907 14.1165 16.2652L14.1661 15.3129V8.5574C14.1635 8.132 13.9933 7.72474 13.6925 7.42393C13.3917 7.12311 12.9845 6.95297 12.559 6.95036H6.60704C6.1867 6.95283 5.78384 7.11886 5.48384 7.41329C5.18386 7.70775 5.01032 8.10742 5 8.52764V9.51965C5.00262 9.94505 5.17275 10.3523 5.47357 10.6531C5.77438 10.9539 6.18164 11.1241 6.60704 11.1267H9.9104V16.2652C9.91302 16.6907 10.0832 17.0979 10.384 17.3987C10.6848 17.6995 11.092 17.8697 11.5174 17.8723H12.5094C12.9349 17.8697 13.3421 17.6995 13.6429 17.3987Z" fill="currentColor"/>
	<path d="M13.6464 5.69953C13.9475 5.39657 14.1165 4.98677 14.1165 4.55965L14.1562 3.60733C14.1536 3.18193 13.9834 2.77467 13.6826 2.47385C13.3818 2.17304 12.9745 2.00289 12.5491 2.00029H11.5571C11.1316 1.99226 10.7201 2.15231 10.4118 2.44572C10.1036 2.73914 9.92338 3.14225 9.9104 3.56765V4.55965C9.9104 4.98677 10.0794 5.39657 10.3805 5.69953C10.6816 6.00248 11.0903 6.17398 11.5174 6.1766H12.5094C12.9366 6.17398 13.3453 6.00248 13.6464 5.69953Z" fill="currentColor"/>
</svg>
