<svg viewBox="0 0 24 24" fill="none" xmlns="http://www.w3.org/2000/svg">
	<path d="M12.3396 7.18188H7.02621C6.23167 7.18188 5.58105 7.8325 5.58105 8.62704V9.49454C5.58105 10.2891 6.23167 10.9397 7.02621 10.9397H10.0269V15.565C10.0269 16.3595 10.6776 17.0102 11.4721 17.0102H12.3396C13.1341 17.0102 13.7848 16.3595 13.7848 15.565V8.62704C13.7848 7.8325 13.1341 7.18188 12.3396 7.18188Z" fill="currentColor"/>
	<path d="M12.3395 17.6982H11.472C10.6739 17.6982 10.0269 18.3453 10.0269 19.1434V20.0109C10.0269 20.809 10.6739 21.4561 11.472 21.4561H12.3395C13.1376 21.4561 13.7847 20.809 13.7847 20.0109V19.1434C13.7847 18.3453 13.1376 17.6982 12.3395 17.6982Z" fill="currentColor"/>
	<path d="M12.3395 2.73608H11.472C10.6739 2.73608 10.0269 3.3831 10.0269 4.18124V5.04873C10.0269 5.84687 10.6739 6.49389 11.472 6.49389H12.3395C13.1376 6.49389 13.7847 5.84687 13.7847 5.04873V4.18124C13.7847 3.3831 13.1376 2.73608 12.3395 2.73608Z" fill="currentColor"/>
	<path d="M16.7853 7.19385H15.9178C15.1197 7.19385 14.4727 7.84087 14.4727 8.63901V9.5065C14.4727 10.3046 15.1197 10.9517 15.9178 10.9517H16.7853C17.5834 10.9517 18.2305 10.3046 18.2305 9.5065V8.63901C18.2305 7.84087 17.5834 7.19385 16.7853 7.19385Z" fill="currentColor"/>
</svg>
