<svg viewBox="0 0 24 24" fill="none" xmlns="http://www.w3.org/2000/svg">
	<path fill-rule="evenodd" clip-rule="evenodd" d="M20.3474 9.79492H18.7724L17.7802 11.5306C17.6148 11.8204 17.6148 12.1779 17.7802 12.4677L18.7724 14.2033H20.3474L19.2213 12.233C19.1378 12.0881 19.1378 11.9101 19.2213 11.7637L20.3474 9.79335V9.79492ZM16.0949 9.79492C15.8335 9.79492 15.6224 10.006 15.6224 10.2674V13.7324C15.6224 13.9939 15.8335 14.2049 16.0949 14.2049H17.0399V9.79492H16.0949ZM7.96792 9.79492H6.39292L6.6717 10.2721C6.84022 10.5619 6.84337 10.9195 6.67957 11.2108L6.49687 11.5353C6.33465 11.8235 6.33465 12.1747 6.49687 12.4614L6.67957 12.7858C6.84337 13.0788 6.8418 13.4363 6.6717 13.7245L6.39292 14.2018H7.96792L8.2467 13.7245C8.41522 13.4347 8.41837 13.0772 8.25457 12.7858L7.94115 12.2299C7.86082 12.0865 7.86082 11.9101 7.94115 11.7668L8.25457 11.2108C8.41837 10.9179 8.4168 10.5604 8.2467 10.2721L7.96792 9.79492ZM3.96742 10.2674C3.96742 10.006 4.17847 9.79492 4.43992 9.79492H5.38492V14.2049H4.43992C4.17847 14.2049 3.96742 13.9939 3.96742 13.7324V10.2674ZM11.9999 15.7799C11.1305 15.7799 10.4249 15.0743 10.4249 14.2049C10.4249 13.9435 10.2139 13.7324 9.95242 13.7324H9.16492V14.2049C9.16492 15.7705 10.4344 17.0399 11.9999 17.0399C13.5655 17.0399 14.8349 15.7705 14.8349 14.2049V13.7324H14.0474C13.786 13.7324 13.5749 13.9435 13.5749 14.2049C13.5749 15.0743 12.8693 15.7799 11.9999 15.7799ZM11.9999 22.0799C17.5675 22.0799 22.0799 17.5675 22.0799 11.9999C22.0799 6.4323 17.5675 1.91992 11.9999 1.91992C6.4323 1.91992 1.91992 6.4323 1.91992 11.9999C1.91992 17.5675 6.4323 22.0799 11.9999 22.0799Z" fill="currentColor"/>
</svg>
