<svg width="24" height="24" viewBox="0 0 24 24" fill="none" xmlns="http://www.w3.org/2000/svg"><path d="M14 21.6L15.4 23L17.5 20.925L19.6 23L21 21.6L18.925 19.5L21 17.4L19.6 16L17.5 18.1L15.4 16L14 17.4L16.1 19.5L14 21.6Z" fill="currentColor"/><path d="M4 22C3.45 22 2.97917 21.8042 2.5875 21.4125C2.19583 21.0208 2 20.55 2 20V6C2 5.45 2.19583 4.97917 2.5875 4.5875C2.97917 4.19583 3.45 4 4 4H5V2H7V4H15V2H17V4H18C18.55 4 19.0208 4.19583 19.4125 4.5875C19.8042 4.97917 20 5.45 20 6V12.375L18 14.375V10H4V20H10.2L12.2 22H4ZM4 8H18V6H4V8Z" fill="currentColor"/></svg>