<svg width="486" height="200" viewBox="0 0 486 200" fill="none" xmlns="http://www.w3.org/2000/svg">
<g clip-path="url(#clip0_1_3)">
<path d="M333.624 122.81C323.286 122.81 314.453 120.978 307.115 117.324C299.777 113.67 294.172 107.957 290.281 100.203C286.389 92.4494 284.448 82.438 284.448 70.1787C284.448 52.2949 288.776 39.0454 297.44 30.4501C306.105 21.8547 318.156 17.5472 333.614 17.5472C341.981 17.5472 349.537 18.983 356.281 21.8448C363.024 24.7165 368.391 29.034 372.372 34.8171C376.363 40.6001 378.353 47.9378 378.353 56.8302H358.717C358.717 51.8889 357.657 47.7101 355.538 44.3036C353.419 40.8972 350.488 38.3027 346.754 36.5203C343.011 34.7378 338.733 33.8565 333.911 33.8565C327.217 33.8565 321.652 35.1636 317.225 37.7878C312.799 40.4119 309.521 44.2838 307.402 49.4232C305.283 54.5626 304.223 60.9397 304.223 68.5448V71.8027C304.223 79.5168 305.283 85.9336 307.402 91.0729C309.521 96.2123 312.769 100.064 317.146 102.639C321.523 105.214 327.118 106.491 333.901 106.491C339.021 106.491 343.497 105.63 347.339 103.897C351.181 102.164 354.152 99.5989 356.271 96.1826C358.39 92.7762 359.449 88.5973 359.449 83.656H378.353C378.353 92.5484 376.383 99.8861 372.451 105.669C368.51 111.452 363.173 115.75 356.429 118.572C349.686 121.384 342.08 122.8 333.614 122.8L333.624 122.81Z" fill="#004E48"/>
<path d="M440.343 122.81C430.004 122.81 421.171 120.978 413.834 117.324C406.496 113.67 400.891 107.957 397 100.203C393.108 92.4494 391.167 82.438 391.167 70.1787C391.167 52.2949 395.494 39.0454 404.159 30.4501C412.824 21.8547 424.875 17.5472 440.333 17.5472C448.7 17.5472 456.256 18.983 462.999 21.8448C469.743 24.7165 475.11 29.034 479.091 34.8171C483.082 40.6001 485.072 47.9378 485.072 56.8302H465.435C465.435 51.8889 464.376 47.7101 462.257 44.3036C460.138 40.8972 457.207 38.3027 453.473 36.5203C449.73 34.7378 445.452 33.8565 440.63 33.8565C433.936 33.8565 428.371 35.1636 423.944 37.7878C419.518 40.4119 416.24 44.2838 414.121 49.4232C412.002 54.5626 410.942 60.9397 410.942 68.5448V71.8027C410.942 79.5168 412.002 85.9336 414.121 91.0729C416.24 96.2123 419.488 100.064 423.865 102.639C428.242 105.214 433.837 106.491 440.62 106.491C445.739 106.491 450.215 105.63 454.058 103.897C457.9 102.164 460.87 99.5989 462.99 96.1826C465.109 92.7762 466.168 88.5973 466.168 83.656H485.072C485.072 92.5484 483.101 99.8861 479.17 105.669C475.229 111.452 469.892 115.75 463.148 118.572C456.404 121.384 448.799 122.8 440.333 122.8L440.343 122.81Z" fill="#004E48"/>
<path d="M268.505 81.22C266.822 77.8135 264.505 74.9913 261.544 72.7732C258.583 70.5451 255.226 69.04 251.483 68.2478V67.6536C254.642 66.5643 257.474 64.9601 259.989 62.8311C262.504 60.7021 264.505 58.068 265.98 54.8992C267.456 51.7404 268.198 48.225 268.198 44.3729C268.198 39.3326 266.96 34.9359 264.495 31.1828C262.029 27.4298 258.652 24.5086 254.355 22.439C250.067 20.3595 245.205 19.3296 239.778 19.3296H182.443V121.028H239.778C245.601 121.028 250.849 120.018 255.543 117.988C260.227 115.968 263.98 112.868 266.792 108.719C269.604 104.57 271.011 99.3316 271.011 93.0039C271.011 88.5577 270.169 84.6264 268.495 81.22H268.505ZM201.693 35.7776H235.787C239.541 35.7776 242.571 36.8174 244.888 38.887C247.205 40.9665 248.364 44.1749 248.364 48.5221C248.364 50.7996 247.849 52.8692 246.809 54.7507C245.769 56.6322 244.244 58.1076 242.224 59.1969C240.204 60.2862 237.709 60.8308 234.748 60.8308H201.683V35.7776H201.693ZM247.264 101.233C244.65 103.461 241.323 104.57 237.273 104.57H201.693V76.9916H236.085C239.541 76.9916 242.373 77.566 244.591 78.6949C246.809 79.8336 248.463 81.4378 249.552 83.5173C250.641 85.5969 251.176 88.0131 251.176 90.7858C251.176 95.529 249.869 99.0147 247.255 101.233H247.264Z" fill="#004E48"/>
<path d="M140.348 70.1787C140.348 108.937 108.927 140.357 70.1688 140.357C31.4106 140.357 0 108.927 0 70.1787C0 31.4304 31.4205 0 70.1787 0C108.937 0 140.357 31.4205 140.357 70.1787H140.348ZM72.4464 21.0526H67.8913C63.7223 21.0526 60.306 24.469 60.306 28.6379V33.193C60.306 37.362 63.7223 40.7783 67.8913 40.7783H72.4464C76.6153 40.7783 80.0317 37.362 80.0317 33.193V28.6379C80.0317 24.469 76.6153 21.0526 72.4464 21.0526ZM95.7766 44.4521H91.2215C87.0525 44.4521 83.6362 47.8685 83.6362 52.0374V56.5926C83.6362 60.7615 87.0525 64.1778 91.2215 64.1778H95.7766C99.9455 64.1778 103.362 60.7615 103.362 56.5926V52.0374C103.362 47.8685 99.9455 44.4521 95.7766 44.4521ZM72.4464 99.5791H67.8913C63.7223 99.5791 60.306 102.995 60.306 107.164V111.72C60.306 115.888 63.7223 119.305 67.8913 119.305H72.4464C76.6153 119.305 80.0317 115.888 80.0317 111.72V107.164C80.0317 102.995 76.6153 99.5791 72.4464 99.5791ZM80.0317 56.5232V51.9681C80.0317 47.7992 76.6153 44.3828 72.4464 44.3828H44.5611C40.3921 44.3828 36.9758 47.7992 36.9758 51.9681V56.5232C36.9758 60.6922 40.3921 64.1085 44.5611 64.1085H60.306V86.1019V88.3795C60.306 92.5484 63.7223 95.9648 67.8913 95.9648H72.4464C76.6153 95.9648 80.0317 92.5484 80.0317 88.3795V83.8243V56.5232Z" fill="#004E48"/>
<path d="M182.463 190.702V155.657H201.565C203.436 155.657 205.12 156.013 206.595 156.726C208.08 157.439 209.239 158.449 210.091 159.737C210.942 161.034 211.368 162.549 211.368 164.282C211.368 165.609 211.111 166.817 210.606 167.906C210.091 168.995 209.407 169.906 208.536 170.639C207.665 171.372 206.684 171.927 205.595 172.303V172.511C206.892 172.788 208.051 173.303 209.071 174.065C210.091 174.828 210.893 175.798 211.467 176.977C212.041 178.155 212.338 179.502 212.338 181.037C212.338 183.215 211.853 185.018 210.883 186.453C209.912 187.889 208.615 188.949 207.001 189.642C205.387 190.345 203.575 190.692 201.565 190.692H182.463V190.702ZM189.107 169.956H199.832C200.852 169.956 201.713 169.768 202.416 169.392C203.109 169.015 203.644 168.51 204.001 167.857C204.357 167.203 204.535 166.49 204.535 165.708C204.535 164.213 204.139 163.103 203.337 162.39C202.535 161.677 201.485 161.321 200.198 161.321H189.107V169.956ZM189.107 185.028H200.703C202.099 185.028 203.248 184.641 204.149 183.879C205.05 183.116 205.506 181.908 205.506 180.274C205.506 179.324 205.318 178.482 204.941 177.769C204.565 177.056 203.991 176.501 203.228 176.105C202.466 175.719 201.485 175.521 200.287 175.521H189.097V185.028H189.107Z" fill="#004E48"/>
<path d="M229.509 191.316C226.648 191.316 224.261 190.811 222.36 189.81C220.449 188.81 219.023 187.265 218.072 185.186C217.121 183.106 216.636 180.472 216.636 177.264C216.636 174.056 217.111 171.382 218.072 169.322C219.023 167.262 220.458 165.728 222.36 164.727C224.271 163.727 226.648 163.222 229.509 163.222C232.094 163.222 234.272 163.708 236.025 164.678C237.778 165.648 239.095 167.144 239.986 169.144C240.867 171.154 241.313 173.759 241.313 176.957V178.799H223.023C223.093 180.472 223.35 181.869 223.786 183.017C224.231 184.156 224.915 185.008 225.855 185.572C226.796 186.137 228.024 186.414 229.559 186.414C230.341 186.414 231.074 186.315 231.757 186.107C232.44 185.899 233.035 185.592 233.55 185.166C234.064 184.74 234.461 184.206 234.748 183.562C235.035 182.918 235.183 182.166 235.183 181.314H241.313C241.313 183.017 241.016 184.503 240.422 185.76C239.828 187.018 238.996 188.058 237.917 188.88C236.847 189.701 235.589 190.306 234.163 190.721C232.728 191.127 231.183 191.335 229.509 191.335V191.316ZM223.122 174.402H234.817C234.817 173.273 234.688 172.323 234.431 171.54C234.173 170.758 233.817 170.114 233.361 169.599C232.906 169.085 232.351 168.718 231.698 168.5C231.054 168.282 230.321 168.174 229.499 168.174C228.172 168.174 227.054 168.391 226.152 168.837C225.251 169.283 224.558 169.966 224.083 170.877C223.607 171.798 223.281 172.976 223.112 174.402H223.122Z" fill="#004E48"/>
<path d="M246.621 190.702V163.826H251.829L252.344 168.065H252.701C253.038 167.213 253.463 166.421 253.949 165.688C254.444 164.955 255.077 164.361 255.86 163.896C256.642 163.44 257.593 163.202 258.722 163.202C259.266 163.202 259.771 163.252 260.227 163.361C260.682 163.46 261.039 163.569 261.276 163.668V169.54H259.385C258.325 169.54 257.395 169.689 256.573 169.976C255.751 170.263 255.068 170.718 254.503 171.332C253.939 171.946 253.523 172.709 253.255 173.63C252.978 174.551 252.849 175.62 252.849 176.848V190.692H246.621V190.702Z" fill="#004E48"/>
<path d="M269.565 200C268.377 200 267.248 199.762 266.188 199.287C265.128 198.812 264.277 198.099 263.633 197.168C262.99 196.227 262.663 195.079 262.663 193.722C262.663 192.227 263.098 191.038 263.97 190.167C264.841 189.295 265.802 188.642 266.861 188.196C266.079 187.79 265.435 187.246 264.95 186.562C264.455 185.879 264.208 185.067 264.208 184.107C264.208 182.809 264.683 181.779 265.634 181.017C266.584 180.255 267.673 179.749 268.901 179.512C267.644 178.73 266.683 177.719 266.01 176.501C265.346 175.274 265.01 173.877 265.01 172.313C265.01 170.441 265.465 168.827 266.366 167.48C267.267 166.134 268.584 165.084 270.327 164.341C272.06 163.589 274.16 163.222 276.615 163.222C277.606 163.222 278.556 163.292 279.477 163.43C280.398 163.569 281.23 163.767 281.982 164.044C283.171 163.331 283.993 162.519 284.438 161.618C284.884 160.717 285.122 159.974 285.151 159.4H291.231C291.231 160.588 291.004 161.648 290.538 162.569C290.083 163.49 289.439 164.242 288.627 164.846C287.805 165.44 286.825 165.876 285.666 166.153C286.518 166.906 287.161 167.807 287.607 168.857C288.053 169.916 288.271 171.075 288.271 172.333C288.271 174.204 287.835 175.828 286.963 177.185C286.092 178.551 284.815 179.601 283.131 180.354C281.448 181.106 279.378 181.473 276.922 181.473H272.783C272.07 181.473 271.516 181.621 271.119 181.928C270.723 182.235 270.535 182.661 270.535 183.205C270.535 183.651 270.713 184.037 271.07 184.384C271.426 184.721 271.931 184.899 272.575 184.899H284.329C286.34 184.899 288.003 185.552 289.31 186.869C290.617 188.186 291.281 189.86 291.281 191.9C291.281 193.435 290.885 194.811 290.083 196.039C289.281 197.267 288.172 198.237 286.736 198.95C285.31 199.663 283.636 200.02 281.725 200.02H269.565V200ZM271.813 195.504H281.676C282.319 195.504 282.894 195.395 283.389 195.178C283.884 194.96 284.27 194.643 284.567 194.227C284.854 193.821 285.003 193.355 285.003 192.85C285.003 191.969 284.725 191.296 284.161 190.86C283.597 190.414 282.913 190.197 282.091 190.197H271.823C271.001 190.197 270.327 190.444 269.783 190.939C269.238 191.434 268.961 192.068 268.961 192.85C268.961 193.633 269.228 194.276 269.753 194.762C270.278 195.257 270.971 195.504 271.823 195.504H271.813ZM276.665 177.066C278.467 177.066 279.824 176.65 280.725 175.818C281.626 174.986 282.081 173.818 282.081 172.323C282.081 170.827 281.626 169.669 280.725 168.847C279.824 168.025 278.467 167.619 276.665 167.619C274.863 167.619 273.506 168.025 272.605 168.847C271.704 169.669 271.248 170.827 271.248 172.323C271.248 173.313 271.446 174.165 271.832 174.877C272.219 175.59 272.823 176.135 273.625 176.511C274.427 176.888 275.437 177.076 276.665 177.076V177.066Z" fill="#004E48"/>
<path d="M305.867 191.316C303.005 191.316 300.619 190.811 298.718 189.81C296.806 188.81 295.38 187.265 294.43 185.186C293.479 183.106 292.994 180.472 292.994 177.264C292.994 174.056 293.469 171.382 294.43 169.322C295.38 167.262 296.816 165.728 298.718 164.727C300.629 163.727 303.005 163.222 305.867 163.222C308.452 163.222 310.63 163.708 312.383 164.678C314.136 165.648 315.453 167.144 316.344 169.144C317.225 171.154 317.671 173.759 317.671 176.957V178.799H299.381C299.45 180.472 299.708 181.869 300.144 183.017C300.589 184.156 301.272 185.008 302.213 185.572C303.154 186.137 304.382 186.414 305.917 186.414C306.699 186.414 307.432 186.315 308.115 186.107C308.798 185.899 309.392 185.592 309.907 185.166C310.422 184.74 310.818 184.206 311.106 183.562C311.393 182.918 311.541 182.166 311.541 181.314H317.671C317.671 183.017 317.374 184.503 316.78 185.76C316.186 187.018 315.354 188.058 314.274 188.88C313.205 189.701 311.947 190.306 310.521 190.721C309.086 191.127 307.541 191.335 305.867 191.335V191.316ZM299.48 174.402H311.175C311.175 173.273 311.046 172.323 310.789 171.54C310.531 170.758 310.175 170.114 309.719 169.599C309.264 169.085 308.709 168.718 308.056 168.5C307.412 168.282 306.679 168.174 305.857 168.174C304.53 168.174 303.411 168.391 302.51 168.837C301.609 169.283 300.916 169.966 300.441 170.877C299.965 171.798 299.639 172.976 299.47 174.402H299.48Z" fill="#004E48"/>
<path d="M322.979 190.702V163.826H328.187L328.702 167.401H329.059C329.673 166.579 330.396 165.856 331.227 165.232C332.059 164.599 333.02 164.113 334.089 163.747C335.159 163.391 336.347 163.212 337.644 163.212C339.347 163.212 340.853 163.519 342.17 164.133C343.477 164.747 344.507 165.737 345.259 167.094C346.012 168.461 346.378 170.283 346.378 172.56V190.692H340.09V173.679C340.09 172.729 339.981 171.936 339.763 171.303C339.545 170.669 339.219 170.164 338.793 169.768C338.367 169.372 337.852 169.094 337.238 168.926C336.624 168.758 335.941 168.669 335.198 168.669C334.079 168.669 333.059 168.946 332.158 169.491C331.257 170.035 330.544 170.788 330.009 171.738C329.485 172.689 329.217 173.798 329.217 175.056V190.692H322.989L322.979 190.702Z" fill="#004E48"/>
</g>
<defs>
<clipPath id="clip0_1_3">
<rect width="485.082" height="200" fill="white"/>
</clipPath>
</defs>
</svg>
