<svg width="1313" height="200" viewBox="0 0 1313 200" fill="none" xmlns="http://www.w3.org/2000/svg">
<g clip-path="url(#clip0_39_888)">
<path d="M475.141 175.016C462.086 175.39 449.157 172.705 437.352 167.208C426.858 161.961 418.426 153.404 413.367 142.786C407.87 131.793 405.122 117.489 405.122 99.9375C405.122 74.4535 411.305 55.5903 423.61 43.3479C435.915 31.1056 453.092 24.9844 475.141 24.9844C486.196 24.797 497.189 26.9207 507.433 31.1056C516.677 34.9157 524.672 41.3492 530.356 49.594C536.352 58.9632 539.288 69.8938 538.788 80.9494H510.806C510.993 74.7033 509.432 68.5197 506.309 63.0856C503.31 58.2761 498.938 54.4035 493.816 52.03C488.132 49.4691 481.886 48.2199 475.64 48.3448C467.333 48.0325 459.151 50.0312 451.843 53.9663C445.409 57.7764 440.475 63.5853 437.726 70.5184C434.478 79.2005 432.917 88.4447 433.229 97.7514V102.436C432.917 111.805 434.478 121.112 437.726 129.856C440.35 136.727 445.284 142.536 451.593 146.346C458.214 149.656 465.522 151.468 472.892 151.78C480.325 152.092 487.695 150.843 494.566 148.157C499.813 145.846 504.247 142.036 507.308 137.164C510.493 131.793 512.055 125.609 511.805 119.363H538.726C539.163 130.419 536.227 141.349 530.294 150.718C524.672 158.963 516.74 165.334 507.495 169.082C497.189 173.204 486.134 175.265 475.016 175.078L475.141 175.016Z" fill="#004E48"/>
<path d="M627.108 175.016C614.116 175.39 601.187 172.705 589.382 167.208C578.888 161.961 570.456 153.404 565.397 142.786C559.775 131.793 556.964 117.489 557.089 100C557.089 74.5159 563.273 55.6527 575.578 43.4104C587.883 31.168 605.059 25.0468 627.108 25.0468C638.164 24.8595 649.157 26.9831 659.4 31.168C668.645 34.9781 676.64 41.4116 682.324 49.6565C688.32 58.9631 691.255 69.9563 690.756 81.0119H662.836C663.023 74.7658 661.462 68.5821 658.276 63.148C655.278 58.3385 650.906 54.466 645.784 52.0924C640.038 49.4691 633.791 48.1574 627.483 48.2823C619.176 47.97 610.993 49.9688 603.748 53.9038C597.314 57.7139 592.38 63.5228 589.632 70.456C586.384 79.138 584.822 88.3823 585.072 97.6889V102.374C584.822 111.743 586.321 121.049 589.632 129.794C592.255 136.665 597.189 142.473 603.498 146.284C610.119 149.594 617.364 151.405 624.797 151.718C632.167 152.03 639.6 150.781 646.471 148.095C651.718 145.784 656.152 141.974 659.213 137.102C662.336 131.73 663.898 125.547 663.71 119.3H690.631C691.068 130.356 688.132 141.287 682.199 150.656C676.577 158.901 668.645 165.272 659.4 169.019C649.157 173.142 638.164 175.141 627.108 175.016V175.016Z" fill="#004E48"/>
<path d="M382.386 115.803C380.075 111.056 376.702 106.933 372.455 103.748C368.207 100.562 363.335 98.376 358.151 97.3142V96.4397C362.586 94.9407 366.708 92.6296 370.269 89.569C373.891 86.5084 376.765 82.6358 378.701 78.2636C380.887 73.579 381.949 68.4572 381.886 63.273C382.011 56.6521 380.2 50.0937 376.64 44.4722C373.079 39.0381 368.082 34.7283 362.211 31.98C355.715 28.9194 348.595 27.4204 341.474 27.5453H259.9V172.517H341.537C349.282 172.642 356.964 171.205 364.085 168.207C370.581 165.459 376.14 160.837 380.075 155.028C384.322 148.345 386.384 140.537 386.071 132.605C386.134 126.796 384.884 121.049 382.386 115.803V115.803ZM287.258 51.0931H335.853C340.6 50.9057 345.222 52.4672 348.782 55.5278C350.531 57.3392 351.905 59.4628 352.78 61.8363C353.654 64.2099 353.966 66.7083 353.779 69.2692C353.779 72.3298 353.029 75.3904 351.593 78.1387C350.094 80.8245 347.783 83.0731 345.034 84.5097C341.724 86.1337 338.101 86.9457 334.416 86.8207H287.32V51.1555L287.258 51.0931ZM352.155 144.285C348.157 147.533 343.161 149.219 338.039 149.032H287.258V109.744H336.227C340.412 109.619 344.535 110.431 348.345 112.18C351.343 113.679 353.841 116.052 355.403 119.051C357.027 122.236 357.776 125.796 357.714 129.419C357.714 136.165 355.84 141.099 352.155 144.285V144.285Z" fill="#004E48"/>
<path d="M199.875 99.9375C199.875 119.738 194.004 139.038 183.073 155.465C172.08 171.893 156.465 184.697 138.226 192.317C119.988 199.875 99.8751 201.874 80.4497 198.001C61.0868 194.129 43.223 184.635 29.2942 170.643C15.3029 156.652 5.80887 138.851 1.93629 119.488C-1.93629 100.062 -5.52472e-07 79.95 7.62024 61.7114C15.178 43.4728 27.9825 27.8576 44.4097 16.8645C60.837 5.87133 80.1999 0 99.9375 0C126.421 0 151.843 10.5559 170.581 29.2942C189.319 48.0325 199.875 73.4541 199.875 99.9375ZM103.186 29.9813H96.6896C93.8164 29.9813 91.0681 31.168 89.0693 33.1668C87.0706 35.1655 85.8838 37.9138 85.8838 40.787V47.2829C85.8838 50.1562 87.0081 52.9044 89.0693 54.9032C91.0681 56.9019 93.8164 58.0887 96.6896 58.0887H103.186C106.059 58.0887 108.807 56.9644 110.806 54.9032C112.804 52.9044 113.991 50.1562 113.991 47.2829V40.787C113.991 37.9138 112.804 35.228 110.806 33.2292C108.807 31.2305 106.059 30.1062 103.186 30.1062V29.9813ZM136.415 63.3354H129.981C127.108 63.3354 124.36 64.4597 122.361 66.5209C120.362 68.5197 119.176 71.268 119.176 74.1412V80.5746C119.176 83.4478 120.3 86.1961 122.361 88.1949C124.36 90.1936 127.108 91.3804 129.981 91.3804H136.415C139.288 91.3804 142.036 90.2561 144.035 88.1949C146.034 86.1337 147.22 83.4478 147.22 80.5746V74.1412C147.22 71.268 146.034 68.5821 144.035 66.5834C142.036 64.5846 139.288 63.4603 136.415 63.4603V63.3354ZM103.186 141.849H96.6896C93.8164 141.849 91.0681 142.973 89.0693 145.034C87.0706 147.033 85.8838 149.781 85.8838 152.655V159.213C85.8838 162.086 87.0706 164.834 89.0693 166.833C91.0681 168.832 93.8164 170.019 96.6896 170.019H103.186C106.059 170.019 108.807 168.894 110.806 166.833C112.804 164.772 113.991 162.086 113.991 159.213V152.717C113.991 149.844 112.804 147.158 110.806 145.097C108.807 143.098 106.059 141.974 103.186 141.974V141.849V141.849ZM113.991 80.5122V74.0162C113.991 71.143 112.867 68.3948 110.806 66.396C108.807 64.3973 106.059 63.2105 103.186 63.2105H63.4603C60.5871 63.2105 57.8389 64.3973 55.8401 66.396C53.8414 68.3948 52.6546 71.143 52.6546 74.0162V80.5122C52.6546 83.3854 53.7789 86.1337 55.8401 88.1324C57.8389 90.1312 60.5871 91.3179 63.4603 91.3179H86.0088V125.921C86.0088 128.795 87.1955 131.543 89.1943 133.542C91.193 135.54 93.9413 136.727 96.8145 136.727H103.31C106.184 136.727 108.932 135.603 110.931 133.542C112.929 131.543 114.116 128.795 114.116 125.921V80.6371L113.991 80.5122Z" fill="#004E48"/>
<path d="M750.718 172.517V27.1705H794.129L816.864 108.057C817.739 110.868 818.551 114.054 819.425 117.614C820.3 121.112 821.112 124.547 821.861 127.795C822.673 131.043 823.235 133.854 823.61 136.227H825.297C825.547 134.104 825.984 131.543 826.608 128.357C827.171 125.234 827.795 121.924 828.607 118.301C829.419 114.741 830.294 111.181 831.23 107.808L854.091 27.1081H897.127V172.517H869.582V98.9382C869.582 92.4422 869.644 85.9463 869.769 79.4503C869.894 72.9544 870.081 67.3954 870.269 62.7108C870.456 58.0262 870.581 55.278 870.581 54.466H868.894C868.645 55.7152 867.895 58.4635 866.771 62.7108C865.647 66.9582 864.397 71.5178 863.148 76.4522C861.899 81.3866 860.774 85.634 859.775 89.1943L835.853 172.455H810.493L786.571 89.3816C785.696 86.5709 784.76 82.8857 783.76 78.7008C782.761 74.5159 781.637 70.2686 780.637 65.8963C779.575 61.524 778.576 57.7139 777.826 54.466H776.14C776.14 58.2761 776.39 62.8982 776.577 68.1449C776.702 73.3292 776.827 78.8257 777.014 84.2598C777.139 89.6939 777.264 94.6284 777.264 99.0006V172.517H750.781H750.718Z" fill="#004E48"/>
<path d="M962.586 175.016C953.092 175.453 943.723 172.33 936.415 166.209C929.731 160.337 926.359 150.344 926.359 136.227V61.0868H952.28V131.605C952.217 134.916 952.655 138.289 953.654 141.474C954.466 143.91 955.84 146.096 957.714 147.845C959.588 149.532 961.774 150.718 964.147 151.343C966.896 152.092 969.769 152.405 972.58 152.405C977.014 152.405 981.387 151.28 985.197 149.032C988.944 146.721 992.005 143.473 994.066 139.6C996.315 135.415 997.439 130.731 997.377 125.921V61.0244H1023.24V172.455H1001.81L999.688 157.589H998.189C995.628 161.024 992.567 164.022 989.132 166.583C985.572 169.269 981.574 171.33 977.264 172.705C972.517 174.266 967.458 175.016 962.461 175.016H962.586Z" fill="#004E48"/>
<path d="M1094.13 175.016C1086.95 175.141 1079.83 174.266 1072.95 172.392C1067.46 170.893 1062.27 168.457 1057.71 165.084C1053.84 162.274 1050.72 158.588 1048.59 154.279C1046.47 150.031 1045.41 145.284 1045.47 140.475V138.538C1045.47 138.101 1045.47 137.664 1045.47 137.289H1070.83V138.976C1070.83 142.411 1072.08 145.659 1074.39 148.22C1076.89 150.656 1079.95 152.342 1083.32 153.154C1087.13 154.154 1091.07 154.653 1095 154.653C1098.56 154.653 1102.06 154.279 1105.5 153.467C1108.49 152.842 1111.31 151.53 1113.74 149.656C1114.8 148.844 1115.62 147.783 1116.18 146.596C1116.74 145.409 1117.05 144.097 1116.99 142.786C1117.05 141.162 1116.74 139.475 1115.99 137.976C1115.24 136.477 1114.12 135.228 1112.8 134.291C1109.43 132.042 1105.62 130.418 1101.69 129.419L1086.95 125.359C1082.32 124.11 1077.64 122.673 1072.95 121.112C1068.52 119.675 1064.27 117.676 1060.34 115.178C1056.59 112.804 1053.53 109.619 1051.22 105.871C1048.78 101.562 1047.53 96.6896 1047.72 91.7551C1047.66 86.6333 1048.97 81.6365 1051.59 77.2642C1054.03 73.0793 1057.46 69.5815 1061.52 67.0206C1066.15 64.0849 1071.21 61.9613 1076.58 60.7745C1082.76 59.3379 1089.07 58.5884 1095.44 58.6508C1101.56 58.5884 1107.62 59.2754 1113.55 60.7745C1118.55 62.0237 1123.3 64.0849 1127.67 66.8332C1131.48 69.2067 1134.67 72.5172 1136.98 76.3897C1139.16 80.1374 1140.35 84.4472 1140.29 88.8195V93.5041H1115.12V92.005C1115.12 89.5066 1114.3 87.0081 1112.68 85.1343C1110.81 83.0731 1108.37 81.5115 1105.68 80.5746C1102.06 79.3254 1098.25 78.7633 1094.38 78.8882C1091.38 78.8882 1088.38 79.138 1085.51 79.7626C1083.32 80.1999 1081.2 80.9494 1079.26 82.0737C1077.83 82.9482 1076.51 84.0725 1075.58 85.4466C1074.77 86.6958 1074.33 88.1949 1074.33 89.6939C1074.33 90.9432 1074.58 92.1299 1075.08 93.2542C1075.64 94.3785 1076.45 95.3154 1077.45 96.0025C1080.08 97.8139 1083.01 99.188 1086.07 100.062C1089.63 101.187 1093.57 102.374 1097.81 103.685L1113.49 108.057C1118.61 109.432 1123.67 111.368 1128.42 113.679C1133.29 115.928 1137.29 119.613 1140.04 124.235C1142.72 128.857 1143.97 134.166 1143.6 139.475C1143.79 145.222 1142.47 150.968 1139.85 156.09C1137.41 160.65 1133.85 164.397 1129.48 167.083C1124.67 170.019 1119.36 172.017 1113.8 173.142C1107.37 174.453 1100.81 175.141 1094.19 175.078L1094.13 175.016Z" fill="#004E48"/>
<path d="M1165.33 43.9101V19.3004H1191.19V43.8476H1165.33V43.9101ZM1165.33 172.517V61.0868H1191.19V172.517H1165.33Z" fill="#004E48"/>
<path d="M1265.08 175.016C1255.09 175.39 1245.16 173.204 1236.16 168.77C1228.42 164.522 1222.3 157.776 1218.93 149.594C1211.24 128.357 1211.24 105.059 1218.93 83.8226C1222.42 75.7027 1228.54 68.9569 1236.29 64.772C1245.16 60.3373 1255.03 58.1512 1265.02 58.5259C1271.77 58.4635 1278.45 59.4004 1284.95 61.3367C1290.51 63.0231 1295.57 65.9588 1299.88 69.7689C1304.06 73.579 1307.31 78.326 1309.31 83.6352C1311.56 89.8189 1312.62 96.3148 1312.49 102.873H1286.2C1286.38 98.4385 1285.57 94.0662 1283.89 89.9438C1282.45 86.6334 1279.95 83.9475 1276.76 82.1986C1273.02 80.3248 1268.77 79.3879 1264.58 79.5753C1259.59 79.2005 1254.59 80.5746 1250.53 83.5103C1246.47 86.446 1243.54 90.6933 1242.29 95.5653C1240.35 102.061 1239.48 108.807 1239.66 115.615V118.426C1239.48 125.172 1240.41 131.855 1242.29 138.351C1243.66 143.161 1246.66 147.408 1250.72 150.281C1255.22 153.092 1260.46 154.466 1265.77 154.216C1269.89 154.404 1274.02 153.467 1277.7 151.593C1280.89 149.781 1283.51 147.033 1285.01 143.66C1286.82 139.663 1287.7 135.29 1287.57 130.918H1312.55C1312.62 137.289 1311.56 143.598 1309.37 149.532C1307.37 154.903 1304.25 159.713 1300.06 163.648C1295.75 167.583 1290.63 170.518 1285.13 172.33C1278.64 174.266 1271.89 175.203 1265.08 174.953V175.016Z" fill="#004E48"/>
</g>
<defs>
<clipPath id="clip0_39_888">
<rect width="1312.62" height="200" fill="white"/>
</clipPath>
</defs>
</svg>
