<svg width="486" height="200" viewBox="0 0 486 200" fill="none" xmlns="http://www.w3.org/2000/svg">
<g clip-path="url(#clip0_6_2628)">
<path d="M333.624 122.81C323.286 122.81 314.453 120.978 307.115 117.324C299.777 113.67 294.172 107.957 290.281 100.203C286.389 92.4494 284.448 82.438 284.448 70.1787C284.448 52.2949 288.776 39.0454 297.44 30.4501C306.105 21.8547 318.156 17.5472 333.614 17.5472C341.982 17.5472 349.537 18.983 356.281 21.8448C363.024 24.7165 368.391 29.034 372.372 34.8171C376.363 40.6001 378.353 47.9378 378.353 56.8302H358.717C358.717 51.8889 357.657 47.7101 355.538 44.3036C353.419 40.8972 350.488 38.3027 346.755 36.5203C343.011 34.7378 338.734 33.8565 333.911 33.8565C327.217 33.8565 321.652 35.1636 317.225 37.7878C312.799 40.4119 309.521 44.2838 307.402 49.4232C305.283 54.5626 304.223 60.9397 304.223 68.5448V71.8027C304.223 79.5168 305.283 85.9336 307.402 91.0729C309.521 96.2123 312.769 100.064 317.146 102.639C321.523 105.214 327.118 106.491 333.901 106.491C339.021 106.491 343.497 105.63 347.339 103.897C351.181 102.164 354.152 99.5989 356.271 96.1826C358.39 92.7762 359.449 88.5973 359.449 83.656H378.353C378.353 92.5484 376.383 99.8861 372.451 105.669C368.51 111.452 363.173 115.75 356.429 118.572C349.686 121.384 342.081 122.8 333.614 122.8L333.624 122.81Z" fill="#004E48"/>
<path d="M440.343 122.81C430.004 122.81 421.171 120.978 413.834 117.324C406.496 113.67 400.891 107.957 397 100.203C393.108 92.4494 391.167 82.438 391.167 70.1787C391.167 52.2949 395.494 39.0454 404.159 30.4501C412.824 21.8547 424.875 17.5472 440.333 17.5472C448.7 17.5472 456.256 18.983 462.999 21.8448C469.743 24.7165 475.11 29.034 479.091 34.8171C483.082 40.6001 485.072 47.9378 485.072 56.8302H465.435C465.435 51.8889 464.376 47.7101 462.257 44.3036C460.138 40.8972 457.207 38.3027 453.473 36.5203C449.73 34.7378 445.452 33.8565 440.63 33.8565C433.936 33.8565 428.371 35.1636 423.944 37.7878C419.518 40.4119 416.24 44.2838 414.121 49.4232C412.002 54.5626 410.942 60.9397 410.942 68.5448V71.8027C410.942 79.5168 412.002 85.9336 414.121 91.0729C416.24 96.2123 419.488 100.064 423.865 102.639C428.242 105.214 433.837 106.491 440.62 106.491C445.739 106.491 450.215 105.63 454.058 103.897C457.9 102.164 460.87 99.5989 462.99 96.1826C465.109 92.7762 466.168 88.5973 466.168 83.656H485.072C485.072 92.5484 483.101 99.8861 479.17 105.669C475.229 111.452 469.892 115.75 463.148 118.572C456.404 121.384 448.799 122.8 440.333 122.8L440.343 122.81Z" fill="#004E48"/>
<path d="M268.506 81.22C266.822 77.8135 264.505 74.9913 261.544 72.7732C258.583 70.5451 255.226 69.04 251.483 68.2478V67.6536C254.642 66.5643 257.474 64.9601 259.99 62.8311C262.505 60.7021 264.505 58.068 265.981 54.8992C267.456 51.7404 268.199 48.225 268.199 44.3729C268.199 39.3326 266.961 34.9359 264.495 31.1828C262.029 27.4298 258.653 24.5086 254.355 22.439C250.067 20.3595 245.205 19.3296 239.779 19.3296H182.443V121.028H239.779C245.601 121.028 250.85 120.018 255.543 117.988C260.227 115.968 263.98 112.868 266.793 108.719C269.605 104.57 271.011 99.3316 271.011 93.0039C271.011 88.5577 270.169 84.6264 268.496 81.22H268.506ZM201.694 35.7776H235.788C239.541 35.7776 242.571 36.8174 244.888 38.887C247.205 40.9665 248.364 44.1749 248.364 48.5221C248.364 50.7996 247.849 52.8692 246.809 54.7507C245.77 56.6322 244.245 58.1076 242.225 59.1969C240.204 60.2862 237.709 60.8308 234.748 60.8308H201.684V35.7776H201.694ZM247.265 101.233C244.651 103.461 241.323 104.57 237.273 104.57H201.694V76.9916H236.085C239.541 76.9916 242.373 77.566 244.591 78.6949C246.809 79.8336 248.463 81.4378 249.552 83.5173C250.642 85.5969 251.176 88.0131 251.176 90.7858C251.176 95.529 249.869 99.0147 247.255 101.233H247.265Z" fill="#004E48"/>
<path d="M140.348 70.1787C140.348 108.937 108.927 140.357 70.1688 140.357C31.4106 140.357 0 108.927 0 70.1787C0 31.4304 31.4205 0 70.1787 0C108.937 0 140.357 31.4205 140.357 70.1787H140.348ZM72.4464 21.0526H67.8913C63.7223 21.0526 60.306 24.469 60.306 28.6379V33.193C60.306 37.362 63.7223 40.7783 67.8913 40.7783H72.4464C76.6153 40.7783 80.0317 37.362 80.0317 33.193V28.6379C80.0317 24.469 76.6153 21.0526 72.4464 21.0526ZM95.7766 44.4521H91.2215C87.0525 44.4521 83.6362 47.8685 83.6362 52.0374V56.5926C83.6362 60.7615 87.0525 64.1778 91.2215 64.1778H95.7766C99.9455 64.1778 103.362 60.7615 103.362 56.5926V52.0374C103.362 47.8685 99.9455 44.4521 95.7766 44.4521ZM72.4464 99.5791H67.8913C63.7223 99.5791 60.306 102.995 60.306 107.164V111.72C60.306 115.888 63.7223 119.305 67.8913 119.305H72.4464C76.6153 119.305 80.0317 115.888 80.0317 111.72V107.164C80.0317 102.995 76.6153 99.5791 72.4464 99.5791ZM80.0317 56.5232V51.9681C80.0317 47.7992 76.6153 44.3828 72.4464 44.3828H44.5611C40.3921 44.3828 36.9758 47.7992 36.9758 51.9681V56.5232C36.9758 60.6922 40.3921 64.1085 44.5611 64.1085H60.306V86.1019V88.3795C60.306 92.5484 63.7223 95.9648 67.8913 95.9648H72.4464C76.6153 95.9648 80.0317 92.5484 80.0317 88.3795V83.8243V56.5232Z" fill="#004E48"/>
<path d="M196.049 191.316C194.108 191.316 192.257 191.108 190.484 190.682C188.712 190.256 187.147 189.593 185.78 188.691C184.414 187.79 183.344 186.661 182.562 185.325C181.78 183.988 181.384 182.384 181.384 180.552C181.384 180.344 181.384 180.146 181.413 179.938C181.433 179.73 181.443 179.581 181.443 179.482H188.137C188.137 179.551 188.137 179.68 188.108 179.868C188.088 180.056 188.078 180.215 188.078 180.354C188.078 181.473 188.405 182.443 189.048 183.245C189.692 184.047 190.633 184.661 191.861 185.087C193.089 185.513 194.534 185.731 196.208 185.731C197.327 185.731 198.327 185.661 199.198 185.523C200.07 185.384 200.812 185.196 201.446 184.938C202.08 184.681 202.595 184.374 203.001 184.017C203.407 183.661 203.704 183.265 203.892 182.819C204.08 182.374 204.169 181.898 204.169 181.383C204.169 180.393 203.862 179.581 203.248 178.928C202.634 178.274 201.813 177.739 200.773 177.294C199.733 176.848 198.555 176.452 197.248 176.095C195.931 175.739 194.594 175.373 193.207 174.996C191.831 174.62 190.484 174.174 189.167 173.64C187.85 173.115 186.682 172.471 185.642 171.728C184.602 170.986 183.78 170.035 183.166 168.896C182.552 167.758 182.245 166.381 182.245 164.787C182.245 163.193 182.592 161.717 183.295 160.499C183.998 159.271 184.978 158.261 186.256 157.459C187.533 156.657 189.019 156.063 190.722 155.667C192.425 155.281 194.277 155.082 196.287 155.082C198.159 155.082 199.921 155.281 201.575 155.667C203.229 156.063 204.684 156.667 205.942 157.509C207.2 158.34 208.19 159.4 208.903 160.677C209.616 161.955 209.972 163.48 209.972 165.252V165.866H203.377V165.351C203.377 164.361 203.08 163.529 202.486 162.846C201.892 162.163 201.06 161.638 199.981 161.262C198.911 160.885 197.654 160.697 196.228 160.697C194.693 160.697 193.386 160.846 192.296 161.133C191.207 161.42 190.375 161.846 189.791 162.41C189.217 162.975 188.92 163.658 188.92 164.48C188.92 165.302 189.227 166.044 189.84 166.629C190.454 167.213 191.276 167.698 192.316 168.114C193.356 168.52 194.534 168.896 195.841 169.233C197.149 169.57 198.495 169.936 199.882 170.332C201.258 170.728 202.605 171.174 203.922 171.689C205.239 172.204 206.407 172.838 207.447 173.6C208.487 174.363 209.309 175.313 209.923 176.432C210.537 177.551 210.844 178.898 210.844 180.472C210.844 183.097 210.21 185.206 208.932 186.81C207.655 188.414 205.902 189.573 203.674 190.286C201.446 190.999 198.901 191.355 196.039 191.355L196.049 191.316Z" fill="#004E48"/>
<path d="M223.588 191.316C221.914 191.316 220.607 190.989 219.657 190.315C218.706 189.642 218.033 188.8 217.637 187.761C217.24 186.721 217.052 185.661 217.052 184.572V168.936H213.834V163.826H217.201L218.33 156.32H223.281V163.826H227.935V168.936H223.281V183.958C223.281 184.671 223.469 185.226 223.845 185.622C224.222 186.018 224.786 186.206 225.529 186.206H227.925V190.494C227.588 190.632 227.163 190.761 226.677 190.88C226.182 190.999 225.667 191.098 225.123 191.187C224.578 191.266 224.063 191.316 223.588 191.316Z" fill="#004E48"/>
<path d="M240.412 191.316C239.66 191.316 238.808 191.226 237.828 191.038C236.847 190.85 235.916 190.504 235.015 189.989C234.114 189.474 233.372 188.721 232.797 187.721C232.223 186.721 231.926 185.394 231.926 183.76C231.926 181.918 232.332 180.393 233.154 179.185C233.976 177.977 235.124 177.026 236.6 176.323C238.075 175.62 239.848 175.135 241.917 174.838C243.977 174.551 246.235 174.402 248.691 174.402V172.204C248.691 171.421 248.572 170.718 248.334 170.104C248.096 169.491 247.661 169.005 247.027 168.649C246.393 168.292 245.453 168.114 244.195 168.114C242.937 168.114 241.947 168.263 241.234 168.57C240.521 168.877 240.026 169.253 239.749 169.689C239.471 170.134 239.343 170.59 239.343 171.065V171.778H233.312C233.273 171.61 233.263 171.441 233.263 171.263V170.649C233.263 169.114 233.718 167.787 234.639 166.668C235.56 165.549 236.837 164.688 238.471 164.094C240.105 163.5 241.997 163.202 244.145 163.202C246.601 163.202 248.611 163.539 250.196 164.222C251.78 164.906 252.959 165.876 253.751 167.134C254.533 168.391 254.929 169.926 254.929 171.728V184.394C254.929 185.037 255.117 185.503 255.494 185.77C255.87 186.047 256.276 186.176 256.722 186.176H258.355V190.464C258.019 190.603 257.524 190.761 256.87 190.949C256.226 191.137 255.424 191.226 254.474 191.226C253.582 191.226 252.8 191.078 252.097 190.791C251.394 190.504 250.81 190.088 250.334 189.543C249.859 188.998 249.513 188.355 249.314 187.602H249.008C248.433 188.315 247.74 188.959 246.938 189.513C246.136 190.068 245.205 190.513 244.126 190.82C243.056 191.127 241.818 191.276 240.422 191.276L240.412 191.316ZM242.304 186.206C243.324 186.206 244.235 186.057 245.037 185.75C245.839 185.443 246.502 185.018 247.027 184.473C247.552 183.928 247.968 183.265 248.255 182.483C248.542 181.7 248.691 180.849 248.691 179.928V178.7C246.819 178.7 245.086 178.819 243.502 179.056C241.917 179.294 240.66 179.74 239.719 180.383C238.778 181.027 238.313 181.948 238.313 183.146C238.313 183.76 238.461 184.295 238.749 184.75C239.036 185.206 239.481 185.572 240.076 185.82C240.67 186.067 241.412 186.206 242.294 186.206H242.304Z" fill="#004E48"/>
<path d="M267.832 190.702L257.87 163.826H264.406L268.753 175.937C268.961 176.521 269.208 177.294 269.496 178.264C269.783 179.235 270.08 180.245 270.387 181.274C270.694 182.314 270.951 183.255 271.149 184.107H271.407C271.615 183.324 271.852 182.423 272.12 181.403C272.397 180.383 272.674 179.373 272.961 178.393C273.249 177.403 273.516 176.591 273.754 175.937L278.041 163.826H284.379L274.368 190.702H267.832Z" fill="#004E48"/>
<path d="M294.599 191.316C293.846 191.316 292.995 191.226 292.014 191.038C291.034 190.85 290.103 190.504 289.202 189.989C288.301 189.474 287.558 188.721 286.984 187.721C286.409 186.721 286.112 185.394 286.112 183.76C286.112 181.918 286.518 180.393 287.34 179.185C288.162 177.977 289.311 177.026 290.786 176.323C292.262 175.62 294.034 175.135 296.104 174.838C298.173 174.541 300.421 174.402 302.877 174.402V172.204C302.877 171.421 302.758 170.718 302.521 170.104C302.283 169.491 301.847 169.005 301.214 168.649C300.58 168.292 299.639 168.114 298.381 168.114C297.124 168.114 296.134 168.263 295.421 168.57C294.708 168.877 294.213 169.253 293.935 169.689C293.658 170.134 293.529 170.59 293.529 171.065V171.778H287.499C287.459 171.61 287.449 171.441 287.449 171.263V170.649C287.449 169.114 287.905 167.787 288.826 166.668C289.747 165.549 291.024 164.688 292.658 164.094C294.292 163.5 296.183 163.202 298.332 163.202C300.788 163.202 302.798 163.539 304.382 164.222C305.967 164.906 307.145 165.876 307.937 167.134C308.72 168.391 309.116 169.926 309.116 171.728V184.394C309.116 185.037 309.304 185.503 309.68 185.77C310.056 186.047 310.462 186.176 310.908 186.176H312.542V190.464C312.205 190.603 311.71 190.761 311.057 190.949C310.413 191.137 309.611 191.226 308.66 191.226C307.769 191.226 306.987 191.078 306.284 190.791C305.581 190.504 304.996 190.088 304.521 189.543C304.046 188.998 303.699 188.355 303.501 187.602H303.194C302.62 188.315 301.927 188.959 301.124 189.513C300.322 190.068 299.392 190.513 298.312 190.82C297.243 191.127 296.005 191.276 294.609 191.276L294.599 191.316ZM296.49 186.206C297.51 186.206 298.421 186.057 299.223 185.75C300.025 185.443 300.689 185.018 301.214 184.473C301.738 183.928 302.154 183.265 302.441 182.483C302.729 181.7 302.877 180.849 302.877 179.928V178.7C301.006 178.7 299.273 178.819 297.688 179.056C296.104 179.294 294.846 179.74 293.906 180.383C292.965 181.027 292.499 181.948 292.499 183.146C292.499 183.76 292.648 184.295 292.935 184.75C293.222 185.206 293.668 185.572 294.262 185.82C294.856 186.067 295.599 186.206 296.48 186.206H296.49Z" fill="#004E48"/>
<path d="M317.097 190.702V163.826H322.305L322.82 167.401H323.177C323.791 166.579 324.514 165.856 325.345 165.232C326.177 164.599 327.138 164.113 328.207 163.747C329.277 163.391 330.465 163.212 331.762 163.212C333.465 163.212 334.971 163.519 336.288 164.133C337.595 164.747 338.625 165.737 339.377 167.094C340.13 168.461 340.496 170.283 340.496 172.56V190.692H334.208V173.679C334.208 172.729 334.099 171.936 333.881 171.303C333.664 170.669 333.337 170.164 332.911 169.768C332.485 169.372 331.97 169.094 331.356 168.926C330.742 168.758 330.059 168.669 329.316 168.669C328.197 168.669 327.177 168.946 326.276 169.491C325.375 170.035 324.662 170.788 324.127 171.738C323.603 172.689 323.335 173.798 323.335 175.056V190.692H317.107L317.097 190.702Z" fill="#004E48"/>
<path d="M350.389 200C349.201 200 348.072 199.762 347.013 199.287C345.953 198.812 345.101 198.099 344.458 197.168C343.814 196.227 343.487 195.079 343.487 193.722C343.487 192.227 343.923 191.038 344.794 190.167C345.666 189.295 346.626 188.642 347.686 188.196C346.904 187.79 346.26 187.246 345.775 186.562C345.28 185.879 345.032 185.067 345.032 184.107C345.032 182.809 345.507 181.779 346.458 181.017C347.409 180.255 348.498 179.749 349.726 179.512C348.468 178.73 347.508 177.719 346.834 176.501C346.171 175.274 345.834 173.877 345.834 172.313C345.834 170.441 346.29 168.827 347.191 167.48C348.092 166.134 349.409 165.084 351.152 164.341C352.885 163.589 354.984 163.222 357.44 163.222C358.43 163.222 359.381 163.292 360.302 163.43C361.223 163.569 362.054 163.767 362.807 164.044C363.995 163.331 364.817 162.519 365.263 161.618C365.708 160.717 365.946 159.974 365.976 159.4H372.056C372.056 160.588 371.828 161.648 371.363 162.569C370.907 163.49 370.264 164.242 369.452 164.846C368.63 165.44 367.649 165.876 366.491 166.153C367.342 166.906 367.986 167.807 368.432 168.857C368.877 169.916 369.095 171.075 369.095 172.333C369.095 174.204 368.659 175.828 367.788 177.185C366.917 178.551 365.639 179.601 363.956 180.354C362.272 181.106 360.203 181.473 357.747 181.473H353.608C352.895 181.473 352.34 181.621 351.944 181.928C351.548 182.235 351.36 182.661 351.36 183.205C351.36 183.651 351.538 184.037 351.894 184.384C352.251 184.721 352.756 184.899 353.4 184.899H365.154C367.164 184.899 368.828 185.552 370.135 186.869C371.442 188.186 372.105 189.86 372.105 191.9C372.105 193.435 371.709 194.811 370.907 196.039C370.105 197.267 368.996 198.237 367.56 198.95C366.134 199.663 364.461 200.02 362.55 200.02H350.389V200ZM352.637 195.504H362.5C363.144 195.504 363.718 195.395 364.213 195.178C364.708 194.96 365.094 194.643 365.392 194.227C365.679 193.821 365.827 193.355 365.827 192.85C365.827 191.969 365.55 191.296 364.986 190.86C364.421 190.414 363.738 190.197 362.916 190.197H352.647C351.825 190.197 351.152 190.444 350.607 190.939C350.063 191.434 349.785 192.068 349.785 192.85C349.785 193.633 350.053 194.276 350.577 194.762C351.102 195.257 351.795 195.504 352.647 195.504H352.637ZM357.489 177.066C359.292 177.066 360.648 176.65 361.549 175.818C362.451 174.986 362.906 173.818 362.906 172.323C362.906 170.827 362.451 169.669 361.549 168.847C360.648 168.025 359.292 167.619 357.489 167.619C355.687 167.619 354.331 168.025 353.429 168.847C352.528 169.669 352.073 170.827 352.073 172.323C352.073 173.313 352.271 174.165 352.657 174.877C353.043 175.59 353.647 176.135 354.449 176.511C355.251 176.888 356.261 177.076 357.489 177.076V177.066Z" fill="#004E48"/>
<path d="M386.692 191.316C383.83 191.316 381.443 190.811 379.542 189.81C377.631 188.81 376.205 187.265 375.254 185.186C374.304 183.106 373.818 180.472 373.818 177.264C373.818 174.056 374.294 171.382 375.254 169.322C376.205 167.262 377.641 165.728 379.542 164.727C381.453 163.727 383.83 163.222 386.692 163.222C389.276 163.222 391.455 163.708 393.207 164.678C394.96 165.648 396.277 167.144 397.168 169.144C398.05 171.154 398.495 173.759 398.495 176.957V178.799H380.205C380.275 180.472 380.532 181.869 380.968 183.017C381.414 184.156 382.097 185.008 383.038 185.572C383.978 186.137 385.206 186.414 386.741 186.414C387.523 186.414 388.256 186.315 388.939 186.107C389.623 185.899 390.217 185.592 390.732 185.166C391.247 184.74 391.643 184.206 391.93 183.562C392.217 182.918 392.366 182.166 392.366 181.314H398.495C398.495 183.017 398.198 184.503 397.604 185.76C397.01 187.018 396.178 188.058 395.099 188.88C394.029 189.701 392.772 190.306 391.346 190.721C389.91 191.127 388.365 191.335 386.692 191.335V191.316ZM380.304 174.402H391.999C391.999 173.273 391.871 172.323 391.613 171.54C391.356 170.758 390.999 170.114 390.544 169.599C390.088 169.085 389.534 168.718 388.88 168.5C388.236 168.282 387.504 168.174 386.682 168.174C385.355 168.174 384.236 168.391 383.335 168.837C382.433 169.283 381.74 169.966 381.265 170.877C380.79 171.798 380.463 172.976 380.295 174.402H380.304Z" fill="#004E48"/>
<path d="M403.803 190.702V163.826H409.011L409.526 168.065H409.883C410.22 167.213 410.645 166.421 411.131 165.688C411.626 164.955 412.259 164.361 413.042 163.896C413.824 163.44 414.775 163.202 415.904 163.202C416.448 163.202 416.953 163.252 417.409 163.361C417.864 163.46 418.221 163.569 418.458 163.668V169.54H416.567C415.507 169.54 414.577 169.689 413.755 169.976C412.933 170.263 412.25 170.718 411.685 171.332C411.121 171.946 410.705 172.709 410.437 173.63C410.16 174.551 410.031 175.62 410.031 176.848V190.692H403.803V190.702Z" fill="#004E48"/>
</g>
<defs>
<clipPath id="clip0_6_2628">
<rect width="485.082" height="200" fill="white"/>
</clipPath>
</defs>
</svg>
