<svg width="1582" height="200" viewBox="0 0 1582 200" fill="none" xmlns="http://www.w3.org/2000/svg">
<g clip-path="url(#clip0_39_996)">
<path d="M469.792 175C455.062 175 442.471 172.394 432.024 167.183C421.572 161.974 413.575 153.841 408.037 142.783C402.493 131.728 399.727 117.466 399.727 100.001C399.727 74.5104 405.898 55.6355 418.242 43.382C430.584 31.1284 447.77 25.0003 469.795 25.0003C481.716 25.0003 492.482 27.043 502.092 31.1284C511.7 35.2139 519.345 41.3741 525.026 49.6146C530.706 57.8525 533.548 68.3126 533.548 80.987H505.564C505.564 73.9448 504.055 67.9936 501.039 63.1335C498.02 58.2734 493.849 54.5766 488.52 52.0407C483.188 49.5047 477.084 48.2368 470.213 48.2368C460.673 48.2368 452.748 50.1052 446.435 53.8341C440.122 57.5683 435.458 63.0986 432.445 70.4197C429.426 77.7434 427.92 86.8283 427.92 97.6718V102.32C427.92 113.306 429.424 122.463 432.445 129.787C435.458 137.11 440.087 142.603 446.331 146.265C452.571 149.93 460.533 151.758 470.213 151.758C477.505 151.758 483.89 150.527 489.362 148.061C494.833 145.6 499.074 141.936 502.092 137.076C505.105 132.215 506.617 126.267 506.617 119.222H533.55C533.55 131.899 530.744 142.357 525.133 150.594C519.522 158.835 511.909 164.96 502.304 168.976C492.694 172.989 481.858 174.997 469.795 174.997" fill="#004E48"/>
<path d="M621.869 175C607.139 175 594.547 172.394 584.101 167.183C573.649 161.974 565.652 153.841 560.114 142.783C554.57 131.728 551.803 117.466 551.803 100.001C551.803 74.5104 557.974 55.6355 570.319 43.382C582.661 31.1284 599.847 25.0003 621.872 25.0003C633.793 25.0003 644.559 27.043 654.169 31.1284C663.777 35.2139 671.422 41.3741 677.103 49.6146C682.783 57.8525 685.625 68.3126 685.625 80.987H657.641C657.641 73.9448 656.132 67.9936 653.116 63.1335C650.097 58.2734 645.926 54.5766 640.597 52.0407C635.265 49.5047 629.161 48.2368 622.29 48.2368C612.75 48.2368 604.825 50.1052 598.512 53.8341C592.199 57.5683 587.535 63.0986 584.519 70.4197C581.5 77.7434 579.994 86.8283 579.994 97.6718V102.32C579.994 113.306 581.498 122.463 584.519 129.787C587.532 137.11 592.162 142.603 598.405 146.265C604.646 149.93 612.607 151.758 622.288 151.758C629.579 151.758 635.964 150.527 641.436 148.061C646.907 145.6 651.148 141.936 654.167 137.076C657.18 132.215 658.692 126.267 658.692 119.222H685.625C685.625 131.899 682.818 142.357 677.207 150.594C671.597 158.835 663.983 164.96 654.378 168.976C644.768 172.989 633.933 174.997 621.869 174.997" fill="#004E48"/>
<path d="M376.997 115.74C374.603 110.88 371.3 106.867 367.083 103.698C362.864 100.529 358.084 98.3849 352.742 97.2536V96.4092C357.24 94.8597 361.285 92.5731 364.869 89.5439C368.456 86.5174 371.303 82.7509 373.41 78.242C375.52 73.7357 376.573 68.7335 376.573 63.2434C376.573 56.0591 374.812 49.7943 371.3 44.4409C367.783 39.0902 362.969 34.9351 356.851 31.9756C350.734 29.0187 343.807 27.539 336.076 27.539H254.37V172.464H336.076C344.37 172.464 351.857 171.022 358.537 168.132C365.215 165.247 370.56 160.843 374.568 154.926C378.576 149.01 380.578 141.547 380.578 132.532C380.578 126.195 379.383 120.595 376.991 115.737M281.788 50.9845H330.376C335.719 50.9845 340.043 52.4642 343.348 55.4211C346.651 58.3779 348.305 62.9566 348.305 69.1517C348.305 72.3927 347.568 75.3522 346.091 78.0249C344.614 80.7029 342.432 82.8153 339.552 84.3621C336.668 85.9142 333.119 86.6862 328.902 86.6862H281.788V50.9872V50.9845ZM346.723 144.257C342.997 147.426 338.25 149.01 332.486 149.01H281.788V109.714H330.8C335.722 109.714 339.764 110.526 342.927 112.142C346.091 113.764 348.444 116.051 349.994 119.008C351.541 121.964 352.315 125.417 352.315 129.361C352.315 136.121 350.45 141.086 346.726 144.255" fill="#004E48"/>
<path d="M200 100.001C200 155.229 155.229 200 99.9987 200C44.7679 200 0 155.229 0 100.001C0 44.7733 44.7706 0 100.001 0C155.232 0 200.003 44.7706 200.003 100.001M103.242 29.9999H96.7577C90.8119 29.9999 85.949 34.8627 85.949 40.8085V47.2931C85.949 53.239 90.8119 58.1018 96.7577 58.1018H103.242C109.188 58.1018 114.051 53.239 114.051 47.2931V40.8085C114.051 34.8627 109.185 29.9999 103.242 29.9999ZM136.491 63.3399H130.007C124.061 63.3399 119.198 68.2027 119.198 74.1485V80.6332C119.198 86.579 124.063 91.4418 130.007 91.4418H136.491C142.437 91.4418 147.3 86.5763 147.3 80.6332V74.1485C147.3 68.2027 142.437 63.3399 136.491 63.3399M103.242 141.896H96.7577C90.8119 141.896 85.949 146.758 85.949 152.704V159.189C85.949 165.135 90.8119 169.997 96.7577 169.997H103.242C109.188 169.997 114.051 165.135 114.051 159.189V152.704C114.051 146.758 109.185 141.896 103.242 141.896ZM114.051 80.542V74.0574C114.051 68.1116 109.185 63.2488 103.242 63.2488H63.5088C57.563 63.2488 52.7001 68.1116 52.7001 74.0574V80.542C52.7001 86.4879 57.5656 91.3507 63.5088 91.3507H85.949V122.696V125.94C85.949 131.886 90.8119 136.749 96.7577 136.749H103.242C109.188 136.749 114.051 131.886 114.051 125.94V119.455C114.051 119.455 114.051 119.455 114.051 119.453V80.5474C114.051 80.5474 114.051 80.5474 114.051 80.5447" fill="#004E48"/>
<path d="M740.831 172.147V28.7989H843.851V51.9951H767.998V90.4446H836.329V113.641H767.998V172.15H740.831V172.147Z" fill="#004E48"/>
<path d="M894.002 174.657C890.935 174.657 887.421 174.27 883.448 173.506C879.478 172.74 875.644 171.314 871.956 169.223C868.262 167.134 865.232 164.036 862.865 159.923C860.496 155.816 859.313 150.415 859.313 143.729C859.313 136.207 860.986 129.974 864.329 125.026C867.672 120.083 872.374 116.179 878.435 113.324C884.496 110.47 891.737 108.451 900.168 107.263C908.596 106.081 917.825 105.486 927.857 105.486V96.5003C927.857 93.2969 927.366 90.4392 926.393 87.9327C925.417 85.4263 923.64 83.4399 921.064 81.9762C918.485 80.5125 914.619 79.7807 909.467 79.7807C904.315 79.7807 900.272 80.408 897.347 81.6626C894.423 82.9171 892.402 84.4505 891.286 86.26C890.168 88.0721 889.614 89.954 889.614 91.9029V94.8275H864.956C864.817 94.1332 864.747 93.4363 864.747 92.7366V90.2301C864.747 83.9599 866.629 78.5288 870.39 73.9314C874.151 69.334 879.376 65.8169 886.062 63.3774C892.747 60.9406 900.481 59.7209 909.258 59.7209C919.289 59.7209 927.543 61.1149 934.02 63.9001C940.499 66.6881 945.338 70.6582 948.544 75.8106C951.747 80.9656 953.35 87.2358 953.35 94.6184V146.442C953.35 149.091 954.114 150.97 955.65 152.085C957.181 153.203 958.854 153.758 960.666 153.758H967.352V171.311C965.958 171.869 963.936 172.528 961.29 173.297C958.642 174.061 955.369 174.447 951.468 174.447C947.844 174.447 944.606 173.852 941.751 172.673C938.893 171.491 936.491 169.783 934.542 167.553C932.591 165.325 931.2 162.679 930.363 159.612H929.108C926.739 162.537 923.916 165.151 920.646 167.448C917.37 169.745 913.542 171.523 909.153 172.777C904.765 174.032 899.714 174.659 894.005 174.659L894.002 174.657ZM901.733 153.76C905.912 153.76 909.638 153.133 912.912 151.878C916.185 150.624 918.9 148.884 921.061 146.654C923.219 144.426 924.892 141.711 926.077 138.504C927.259 135.301 927.854 131.819 927.854 128.055V123.039C920.19 123.039 913.121 123.53 906.644 124.503C900.165 125.479 895.01 127.291 891.182 129.937C887.348 132.585 885.434 136.346 885.434 141.22C885.434 143.726 886.027 145.922 887.212 147.801C888.394 149.683 890.206 151.144 892.645 152.189C895.082 153.235 898.111 153.758 901.736 153.758L901.733 153.76Z" fill="#004E48"/>
<path d="M1027.74 174.657C1016.31 174.657 1006.81 172.6 999.217 168.491C991.623 164.384 985.948 158.079 982.187 149.578C978.426 141.083 976.544 130.285 976.544 117.19C976.544 104.095 978.458 93.1253 982.291 84.6971C986.122 76.269 991.832 70.0015 999.426 65.8892C1007.02 61.7824 1016.46 59.7236 1027.74 59.7236C1035.12 59.7236 1041.67 60.6324 1047.38 62.4392C1053.09 64.2513 1058 67.0044 1062.11 70.6931C1066.22 74.3871 1069.32 78.947 1071.41 84.3808C1073.51 89.8146 1074.55 96.1545 1074.55 103.398H1048.64C1048.64 98.2455 1047.87 93.9938 1046.34 90.651C1044.81 87.3081 1042.47 84.7668 1039.34 83.0244C1036.21 81.2846 1032.2 80.4134 1027.32 80.4134C1021.61 80.4134 1016.94 81.7403 1013.32 84.3835C1009.7 87.032 1007.02 90.9646 1005.28 96.1894C1003.54 101.414 1002.67 107.995 1002.67 115.935V118.651C1002.67 126.455 1003.54 133.001 1005.28 138.293C1007.02 143.59 1009.77 147.522 1013.53 150.098C1017.29 152.677 1022.24 153.964 1028.37 153.964C1033.1 153.964 1037.04 153.096 1040.18 151.353C1043.31 149.613 1045.71 147 1047.38 143.517C1049.06 140.038 1049.89 135.859 1049.89 130.98H1074.55C1074.55 137.807 1073.5 143.936 1071.41 149.369C1069.33 154.803 1066.26 159.401 1062.22 163.162C1058.18 166.923 1053.27 169.78 1047.49 171.729C1041.7 173.678 1035.12 174.654 1027.74 174.654V174.657Z" fill="#004E48"/>
<path d="M1096.28 45.3067V21.0677H1121.77V45.3067H1096.28V45.3067ZM1096.28 172.147V62.2328H1121.77V172.147H1096.28V172.147Z" fill="#004E48"/>
<path d="M1148.94 172.147V21.0677H1174.43V172.147H1148.94Z" fill="#004E48"/>
<path d="M1201.6 45.3067V21.0677H1227.09V45.3067H1201.6ZM1201.6 172.147V62.2328H1227.09V172.147H1201.6V172.147Z" fill="#004E48"/>
<path d="M1283.3 174.657C1276.48 174.657 1271.11 173.297 1267.21 170.582C1263.31 167.866 1260.56 164.384 1258.96 160.132C1257.36 155.883 1256.56 151.533 1256.56 147.072V83.1289H1243.39V62.2328H1257.19L1261.78 31.5145H1282.05V62.2328H1301.07V83.1289H1282.05V144.566C1282.05 147.49 1282.82 149.758 1284.35 151.356C1285.88 152.959 1288.18 153.758 1291.24 153.758H1301.07V171.311C1299.67 171.869 1297.96 172.389 1295.95 172.879C1293.92 173.364 1291.8 173.783 1289.57 174.134C1287.34 174.48 1285.25 174.657 1283.3 174.657H1283.3Z" fill="#004E48"/>
<path d="M1319.87 45.3067V21.0677H1345.36V45.3067H1319.87ZM1319.87 172.147V62.2328H1345.36V172.147H1319.87V172.147Z" fill="#004E48"/>
<path d="M1419.75 174.657C1408.05 174.657 1398.3 172.6 1390.5 168.491C1382.7 164.384 1376.84 158.079 1372.95 149.578C1369.05 141.083 1367.09 130.285 1367.09 117.19C1367.09 104.095 1369.04 93.1253 1372.95 84.6971C1376.84 76.269 1382.7 70.0015 1390.5 65.8892C1398.3 61.7824 1408.05 59.7236 1419.75 59.7236C1430.34 59.7236 1439.22 61.71 1446.4 65.6801C1453.57 69.6503 1458.97 75.7462 1462.59 83.9653C1466.21 92.187 1468.03 102.843 1468.03 115.938V123.46H1393.22C1393.49 130.288 1394.54 136.033 1396.35 140.7C1398.16 145.37 1400.98 148.849 1404.81 151.149C1408.64 153.447 1413.69 154.597 1419.96 154.597C1423.16 154.597 1426.16 154.179 1428.95 153.342C1431.73 152.506 1434.17 151.219 1436.26 149.477C1438.35 147.737 1439.99 145.541 1441.17 142.895C1442.35 140.25 1442.95 137.186 1442.95 133.701H1468.02C1468.02 140.668 1466.8 146.729 1464.37 151.881C1461.93 157.036 1458.51 161.285 1454.13 164.628C1449.74 167.971 1444.62 170.48 1438.77 172.15C1432.92 173.82 1426.58 174.657 1419.75 174.657H1419.75ZM1393.63 105.489H1441.49C1441.49 100.891 1440.96 96.9936 1439.92 93.7874C1438.87 90.584 1437.41 87.9354 1435.53 85.8472C1433.65 83.7562 1431.38 82.263 1428.74 81.3543C1426.09 80.4509 1423.1 79.9952 1419.75 79.9952C1414.32 79.9952 1409.76 80.9039 1406.07 82.7107C1402.37 84.5229 1399.55 87.3081 1397.6 91.0692C1395.65 94.8302 1394.33 99.6368 1393.63 105.489V105.489Z" fill="#004E48"/>
<path d="M1532.59 174.657C1524.65 174.657 1517.69 173.785 1511.7 172.046C1505.71 170.306 1500.69 167.901 1496.65 164.837C1492.61 161.776 1489.58 158.186 1487.56 154.077C1485.54 149.97 1484.53 145.477 1484.53 140.598C1484.53 139.904 1484.57 139.276 1484.64 138.716C1484.71 138.161 1484.74 137.743 1484.74 137.462H1509.82V139.134C1509.95 142.895 1511.14 145.925 1513.37 148.225C1515.6 150.522 1518.52 152.163 1522.15 153.136C1525.77 154.112 1529.6 154.599 1533.64 154.599C1537.26 154.599 1540.71 154.219 1543.98 153.449C1547.25 152.685 1549.97 151.431 1552.13 149.688C1554.29 147.949 1555.37 145.686 1555.37 142.898C1555.37 139.276 1553.98 136.491 1551.19 134.54C1548.4 132.591 1544.75 130.988 1540.22 129.733C1535.7 128.479 1530.85 127.157 1525.7 125.763C1521.1 124.508 1516.5 123.117 1511.91 121.584C1507.31 120.053 1503.16 118.104 1499.47 115.732C1495.78 113.365 1492.79 110.298 1490.49 106.537C1488.19 102.776 1487.04 98.1088 1487.04 92.5356C1487.04 86.9623 1488.22 82.3676 1490.59 78.3251C1492.96 74.2853 1496.23 70.9076 1500.41 68.1893C1504.59 65.4737 1509.54 63.4203 1515.25 62.0237C1520.96 60.6324 1527.16 59.9354 1533.85 59.9354C1540.54 59.9354 1546.35 60.6351 1551.72 62.0237C1557.08 63.4176 1561.75 65.404 1565.72 67.9802C1569.69 70.5591 1572.75 73.6928 1574.91 77.3842C1577.07 81.0782 1578.15 85.1529 1578.15 89.6082C1578.15 90.584 1578.11 91.5598 1578.05 92.5329C1577.97 93.5086 1577.94 94.0662 1577.94 94.2056H1553.07V92.742C1553.07 90.0961 1552.27 87.8309 1550.67 85.9517C1549.07 84.0699 1546.77 82.5767 1543.78 81.4588C1540.78 80.3463 1537.05 79.7861 1532.6 79.7861C1529.26 79.7861 1526.33 80.0676 1523.82 80.6225C1521.32 81.18 1519.26 81.9467 1517.66 82.9198C1516.05 83.8956 1514.84 85.0081 1514 86.2627C1513.16 87.5173 1512.75 88.9112 1512.75 90.4419C1512.75 93.0905 1513.79 95.1787 1515.88 96.7121C1517.97 98.2455 1520.79 99.5697 1524.34 100.682C1527.89 101.8 1531.76 102.98 1535.94 104.234C1540.95 105.628 1546.11 107.054 1551.4 108.518C1556.69 109.982 1561.6 111.829 1566.13 114.056C1570.66 116.287 1574.32 119.42 1577.1 123.46C1579.89 127.503 1581.28 132.864 1581.28 139.55C1581.28 146.236 1580.06 151.428 1577.63 155.953C1575.19 160.481 1571.77 164.103 1567.39 166.818C1563 169.534 1557.84 171.52 1551.92 172.775C1546 174.029 1539.56 174.657 1532.6 174.657H1532.59Z" fill="#004E48"/>
</g>
<defs>
<clipPath id="clip0_39_996">
<rect width="1581.28" height="200" fill="white"/>
</clipPath>
</defs>
</svg>
