<svg width="486" height="200" viewBox="0 0 486 200" fill="none" xmlns="http://www.w3.org/2000/svg">
<g clip-path="url(#clip0_5_1113)">
<path d="M333.938 122.608C323.617 122.608 314.798 120.779 307.473 117.131C300.147 113.483 294.551 107.779 290.666 100.038C286.781 92.297 284.843 82.3021 284.843 70.0631C284.843 52.2087 289.163 38.9811 297.814 30.3999C306.464 21.8187 318.496 17.5183 333.928 17.5183C342.282 17.5183 349.825 18.9518 356.557 21.8089C363.29 24.6758 368.648 28.9862 372.622 34.7597C376.606 40.5332 378.593 47.8588 378.593 56.7365H358.989C358.989 51.8034 357.931 47.6314 355.816 44.2306C353.7 40.8298 350.774 38.2396 347.047 36.4601C343.31 34.6806 339.039 33.8007 334.224 33.8007C327.541 33.8007 321.985 35.1057 317.566 37.7255C313.147 40.3454 309.875 44.2108 307.759 49.3417C305.644 54.4726 304.586 60.8393 304.586 68.4318V71.6844C304.586 79.3857 305.644 85.7919 307.759 90.9228C309.875 96.0537 313.118 99.8994 317.487 102.47C321.857 105.04 327.443 106.315 334.215 106.315C339.326 106.315 343.794 105.455 347.63 103.725C351.466 101.995 354.432 99.4347 356.547 96.024C358.663 92.6232 359.721 88.4513 359.721 83.5181H378.593C378.593 92.3958 376.626 99.7214 372.701 105.495C368.767 111.268 363.438 115.559 356.706 118.377C349.973 121.184 342.381 122.598 333.928 122.598L333.938 122.608Z" fill="#004E48"/>
<path d="M440.481 122.608C430.16 122.608 421.341 120.779 414.016 117.131C406.69 113.483 401.094 107.779 397.209 100.038C393.324 92.297 391.386 82.3021 391.386 70.0631C391.386 52.2087 395.706 38.9811 404.357 30.3999C413.007 21.8187 425.039 17.5183 440.471 17.5183C448.825 17.5183 456.368 18.9518 463.1 21.8089C469.833 24.6758 475.191 28.9862 479.165 34.7597C483.149 40.5332 485.136 47.8588 485.136 56.7365H465.532C465.532 51.8034 464.474 47.6314 462.359 44.2306C460.243 40.8298 457.317 38.2396 453.59 36.4601C449.853 34.6806 445.582 33.8007 440.767 33.8007C434.084 33.8007 428.528 35.1057 424.109 37.7255C419.69 40.3454 416.418 44.2108 414.302 49.3417C412.187 54.4726 411.129 60.8393 411.129 68.4318V71.6844C411.129 79.3857 412.187 85.7919 414.302 90.9228C416.418 96.0537 419.661 99.8994 424.03 102.47C428.4 105.04 433.986 106.315 440.758 106.315C445.869 106.315 450.337 105.455 454.173 103.725C458.009 101.995 460.975 99.4347 463.09 96.024C465.206 92.6232 466.264 88.4513 466.264 83.5181H485.136C485.136 92.3958 483.169 99.7214 479.244 105.495C475.31 111.268 469.981 115.559 463.249 118.377C456.516 121.184 448.924 122.598 440.471 122.598L440.481 122.608Z" fill="#004E48"/>
<path d="M268.927 81.0861C267.246 77.6853 264.933 74.8677 261.977 72.6532C259.021 70.4288 255.669 68.9262 251.932 68.1353V67.5421C255.086 66.4546 257.914 64.8531 260.425 62.7276C262.936 60.602 264.933 57.9723 266.406 54.8088C267.879 51.6551 268.62 48.1455 268.62 44.2998C268.62 39.2678 267.384 34.8783 264.923 31.1315C262.461 27.3846 259.09 24.4682 254.799 22.402C250.519 20.3259 245.665 19.2978 240.247 19.2978H183.006V120.828H240.247C246.06 120.828 251.3 119.82 255.986 117.793C260.662 115.777 264.409 112.682 267.216 108.54C270.024 104.398 271.428 99.1678 271.428 92.8506C271.428 88.4117 270.588 84.4869 268.917 81.0861H268.927ZM202.225 35.7187H236.263C240.01 35.7187 243.035 36.7567 245.348 38.8229C247.662 40.899 248.818 44.1021 248.818 48.4421C248.818 50.7159 248.304 52.7821 247.266 54.6605C246.228 56.5388 244.706 58.0119 242.689 59.0993C240.672 60.1868 238.181 60.7306 235.225 60.7306H202.215V35.7187H202.225ZM247.721 101.066C245.111 103.29 241.789 104.398 237.746 104.398H202.225V76.8647H236.56C240.01 76.8647 242.837 77.4381 245.052 78.5651C247.266 79.702 248.917 81.3036 250.005 83.3797C251.092 85.4558 251.626 87.868 251.626 90.6361C251.626 95.3716 250.321 98.8515 247.711 101.066H247.721Z" fill="#004E48"/>
<path d="M140.98 70.0631C140.98 108.757 109.612 140.126 70.9174 140.126C32.2231 140.126 0.864258 108.747 0.864258 70.0631C0.864258 31.3786 32.2329 6.10352e-05 70.9272 6.10352e-05C109.622 6.10352e-05 140.99 31.3687 140.99 70.0631H140.98ZM73.1912 21.018H68.6435C64.4815 21.018 61.0708 24.4287 61.0708 28.5907V33.1384C61.0708 37.3004 64.4815 40.7111 68.6435 40.7111H73.1912C77.3532 40.7111 80.7639 37.3004 80.7639 33.1384V28.5907C80.7639 24.4287 77.3532 21.018 73.1912 21.018ZM96.4829 44.3789H91.9353C87.7732 44.3789 84.3625 47.7896 84.3625 51.9517V56.4993C84.3625 60.6613 87.7732 64.0721 91.9353 64.0721H96.4829C100.645 64.0721 104.056 60.6613 104.056 56.4993V51.9517C104.056 47.7896 100.645 44.3789 96.4829 44.3789ZM73.1912 99.415H68.6435C64.4815 99.415 61.0708 102.826 61.0708 106.988V111.535C61.0708 115.697 64.4815 119.108 68.6435 119.108H73.1912C77.3532 119.108 80.7639 115.697 80.7639 111.535V106.988C80.7639 102.826 77.3532 99.415 73.1912 99.415ZM80.7639 56.4301V51.8825C80.7639 47.7204 77.3532 44.3097 73.1912 44.3097H45.3518C41.1898 44.3097 37.7791 47.7204 37.7791 51.8825V56.4301C37.7791 60.5921 41.1898 64.0029 45.3518 64.0029H61.0708V85.9599V88.2338C61.0708 92.3958 64.4815 95.8065 68.6435 95.8065H73.1912C77.3532 95.8065 80.7639 92.3958 80.7639 88.2338V83.6861V56.4301Z" fill="#004E48"/>
<path d="M182.997 190.387V155.4H189.63V169.626H205.952V155.4H212.586V190.387H205.952V175.34H189.63V190.387H182.997Z" fill="#004E48"/>
<path d="M225.665 191C224.914 191 224.064 190.911 223.085 190.723C222.106 190.535 221.177 190.189 220.277 189.675C219.378 189.161 218.636 188.41 218.063 187.411C217.489 186.413 217.193 185.088 217.193 183.457C217.193 181.618 217.598 180.096 218.419 178.89C219.239 177.683 220.386 176.734 221.859 176.032C223.332 175.331 225.102 174.846 227.168 174.55C229.234 174.253 231.478 174.115 233.93 174.115V171.92C233.93 171.139 233.811 170.437 233.574 169.824C233.337 169.211 232.902 168.727 232.269 168.371C231.637 168.015 230.697 167.837 229.442 167.837C228.186 167.837 227.198 167.985 226.486 168.292C225.774 168.598 225.28 168.974 225.003 169.409C224.726 169.854 224.598 170.308 224.598 170.783V171.495H218.577C218.537 171.327 218.527 171.159 218.527 170.981V170.368C218.527 168.835 218.982 167.511 219.902 166.393C220.821 165.276 222.096 164.416 223.728 163.823C225.359 163.23 227.247 162.933 229.392 162.933C231.844 162.933 233.851 163.269 235.433 163.952C237.015 164.634 238.191 165.603 238.982 166.858C239.763 168.114 240.158 169.646 240.158 171.445V184.09C240.158 184.732 240.346 185.197 240.722 185.464C241.098 185.741 241.503 185.869 241.948 185.869H243.579V190.15C243.243 190.288 242.748 190.446 242.096 190.634C241.453 190.822 240.653 190.911 239.694 190.911C238.804 190.911 238.023 190.763 237.321 190.476C236.619 190.189 236.036 189.774 235.561 189.23C235.087 188.687 234.741 188.044 234.543 187.293H234.237C233.663 188.005 232.971 188.647 232.17 189.201C231.37 189.754 230.44 190.199 229.363 190.506C228.295 190.812 227.059 190.961 225.665 190.961V191ZM227.554 185.899C228.572 185.899 229.481 185.751 230.282 185.444C231.083 185.138 231.745 184.712 232.269 184.169C232.793 183.625 233.208 182.963 233.495 182.182C233.782 181.401 233.93 180.55 233.93 179.631V178.405C232.062 178.405 230.332 178.524 228.75 178.761C227.168 178.998 225.912 179.443 224.973 180.086C224.034 180.728 223.569 181.648 223.569 182.844C223.569 183.457 223.718 183.991 224.004 184.446C224.291 184.9 224.736 185.266 225.329 185.513C225.922 185.76 226.664 185.899 227.544 185.899H227.554Z" fill="#004E48"/>
<path d="M248.126 190.387V163.556H253.327L253.841 167.787H254.197C254.533 166.937 254.958 166.146 255.442 165.415C255.937 164.683 256.569 164.09 257.35 163.625C258.131 163.171 259.08 162.933 260.207 162.933C260.751 162.933 261.255 162.983 261.71 163.092C262.165 163.19 262.521 163.299 262.758 163.398V169.26H260.87C259.812 169.26 258.883 169.409 258.062 169.695C257.241 169.982 256.559 170.437 255.996 171.05C255.432 171.663 255.017 172.424 254.75 173.343C254.473 174.263 254.345 175.331 254.345 176.556V190.377H248.126V190.387Z" fill="#004E48"/>
<path d="M277.043 191C275.106 191 273.405 190.792 271.942 190.367C270.479 189.942 269.253 189.359 268.274 188.608C267.286 187.856 266.544 186.986 266.06 185.978C265.566 184.979 265.318 183.882 265.318 182.686C265.318 182.518 265.318 182.36 265.348 182.231C265.368 182.093 265.378 181.994 265.378 181.925H271.497V182.33C271.527 183.249 271.823 183.991 272.367 184.544C272.911 185.108 273.623 185.503 274.512 185.741C275.402 185.978 276.332 186.097 277.32 186.097C278.2 186.097 279.05 186.008 279.841 185.82C280.642 185.632 281.304 185.325 281.828 184.9C282.352 184.475 282.619 183.922 282.619 183.239C282.619 182.36 282.283 181.677 281.601 181.203C280.919 180.728 280.029 180.333 278.922 180.026C277.814 179.72 276.638 179.394 275.373 179.058C274.255 178.751 273.128 178.415 272.011 178.039C270.884 177.664 269.876 177.189 268.976 176.616C268.077 176.042 267.345 175.291 266.782 174.372C266.218 173.452 265.941 172.315 265.941 170.951C265.941 169.587 266.228 168.47 266.811 167.481C267.385 166.492 268.185 165.672 269.204 165.009C270.222 164.347 271.428 163.843 272.822 163.507C274.216 163.171 275.728 162.993 277.36 162.993C278.991 162.993 280.414 163.161 281.719 163.507C283.024 163.843 284.171 164.327 285.14 164.96C286.109 165.593 286.86 166.354 287.384 167.254C287.908 168.153 288.175 169.152 288.175 170.239C288.175 170.476 288.175 170.714 288.145 170.951C288.126 171.188 288.116 171.327 288.116 171.356H282.046V171C282.046 170.358 281.848 169.804 281.462 169.34C281.067 168.885 280.513 168.519 279.782 168.242C279.05 167.975 278.141 167.837 277.053 167.837C276.233 167.837 275.521 167.906 274.908 168.044C274.295 168.183 273.791 168.371 273.405 168.608C273.01 168.845 272.713 169.122 272.515 169.429C272.318 169.735 272.209 170.071 272.209 170.447C272.209 171.089 272.466 171.603 272.97 171.979C273.484 172.355 274.166 172.681 275.036 172.948C275.906 173.215 276.846 173.511 277.864 173.818C279.09 174.154 280.345 174.51 281.64 174.866C282.935 175.222 284.132 175.677 285.239 176.22C286.346 176.764 287.236 177.525 287.918 178.514C288.6 179.502 288.936 180.807 288.936 182.439C288.936 184.07 288.64 185.335 288.047 186.443C287.453 187.55 286.623 188.43 285.545 189.092C284.478 189.754 283.212 190.239 281.769 190.545C280.326 190.852 278.754 191 277.053 191H277.043Z" fill="#004E48"/>
<path d="M302.253 191C300.582 191 299.277 190.674 298.328 190.002C297.379 189.329 296.707 188.489 296.311 187.451C295.916 186.413 295.728 185.355 295.728 184.268V168.657H292.515V163.556H295.876L297.003 156.062H301.946V163.556H306.593V168.657H301.946V183.655C301.946 184.366 302.134 184.92 302.51 185.316C302.886 185.711 303.449 185.899 304.191 185.899H306.583V190.18C306.247 190.318 305.822 190.446 305.337 190.565C304.843 190.684 304.329 190.783 303.785 190.872C303.242 190.951 302.727 191 302.253 191Z" fill="#004E48"/>
<path d="M319.059 191C318.308 191 317.458 190.911 316.479 190.723C315.5 190.535 314.571 190.189 313.671 189.675C312.772 189.161 312.03 188.41 311.457 187.411C310.884 186.413 310.587 185.088 310.587 183.457C310.587 181.618 310.992 180.096 311.813 178.89C312.633 177.683 313.78 176.734 315.253 176.032C316.726 175.331 318.496 174.846 320.562 174.55C322.628 174.253 324.872 174.115 327.324 174.115V171.92C327.324 171.139 327.205 170.437 326.968 169.824C326.731 169.211 326.296 168.727 325.663 168.371C325.031 168.015 324.091 167.837 322.836 167.837C321.58 167.837 320.592 167.985 319.88 168.292C319.168 168.598 318.674 168.974 318.397 169.409C318.12 169.854 317.992 170.308 317.992 170.783V171.495H311.971C311.931 171.327 311.922 171.159 311.922 170.981V170.368C311.922 168.835 312.376 167.511 313.296 166.393C314.215 165.276 315.49 164.416 317.122 163.823C318.753 163.23 320.641 162.933 322.786 162.933C325.238 162.933 327.245 163.269 328.827 163.952C330.409 164.634 331.585 165.603 332.376 166.858C333.157 168.114 333.552 169.646 333.552 171.445V184.09C333.552 184.732 333.74 185.197 334.116 185.464C334.492 185.741 334.897 185.869 335.342 185.869H336.973V190.15C336.637 190.288 336.143 190.446 335.49 190.634C334.847 190.822 334.047 190.911 333.098 190.911C332.208 190.911 331.427 190.763 330.725 190.476C330.023 190.189 329.44 189.774 328.965 189.23C328.491 188.687 328.145 188.044 327.947 187.293H327.64C327.067 188.005 326.375 188.647 325.574 189.201C324.774 189.754 323.844 190.199 322.767 190.506C321.699 190.812 320.463 190.961 319.069 190.961L319.059 191ZM320.948 185.899C321.966 185.899 322.875 185.751 323.676 185.444C324.477 185.138 325.139 184.712 325.663 184.169C326.187 183.625 326.602 182.963 326.889 182.182C327.176 181.401 327.324 180.55 327.324 179.631V178.405C325.456 178.405 323.726 178.524 322.144 178.761C320.562 178.998 319.306 179.443 318.367 180.086C317.428 180.728 316.963 181.648 316.963 182.844C316.963 183.457 317.112 183.991 317.398 184.446C317.685 184.9 318.13 185.266 318.723 185.513C319.316 185.76 320.058 185.899 320.938 185.899H320.948Z" fill="#004E48"/>
<path d="M349.864 191C347.689 191 345.801 190.506 344.2 189.517C342.598 188.529 341.372 187.006 340.502 184.93C339.632 182.854 339.197 180.185 339.197 176.922C339.197 173.66 339.642 171.05 340.522 168.994C341.402 166.937 342.628 165.415 344.19 164.426C345.752 163.438 347.521 162.943 349.499 162.943C350.724 162.943 351.842 163.082 352.86 163.349C353.878 163.625 354.778 164.041 355.559 164.594C356.34 165.148 357.002 165.84 357.546 166.66H357.852V153.502H364.071V190.377H358.92L358.406 186.808H358.05C357.2 188.202 356.053 189.25 354.61 189.942C353.166 190.634 351.575 190.99 349.845 190.99L349.864 191ZM351.802 185.642C353.226 185.642 354.382 185.316 355.272 184.673C356.152 184.03 356.814 183.091 357.239 181.865C357.665 180.639 357.882 179.147 357.882 177.377V176.715C357.882 175.39 357.763 174.204 357.526 173.146C357.289 172.088 356.923 171.208 356.429 170.496C355.934 169.784 355.312 169.241 354.541 168.865C353.779 168.489 352.87 168.302 351.812 168.302C350.28 168.302 349.064 168.598 348.164 169.191C347.264 169.784 346.612 170.704 346.226 171.949C345.831 173.195 345.643 174.767 345.643 176.665V177.377C345.643 179.245 345.841 180.798 346.226 182.014C346.612 183.23 347.264 184.149 348.164 184.742C349.064 185.335 350.28 185.632 351.812 185.632L351.802 185.642Z" fill="#004E48"/>
</g>
<defs>
<clipPath id="clip0_5_1113">
<rect width="484.282" height="191" fill="white" transform="translate(0.864258 6.10352e-05)"/>
</clipPath>
</defs>
</svg>
