<svg width="508" height="200" viewBox="0 0 508 200" fill="none" xmlns="http://www.w3.org/2000/svg">
<g clip-path="url(#clip0_44_1590)">
<path d="M348.768 128.385C337.961 128.385 328.727 126.47 321.056 122.65C313.385 118.83 307.526 112.857 303.458 104.752C299.389 96.646 297.36 86.1801 297.36 73.3644C297.36 54.6687 301.884 40.8178 310.942 31.8323C320 22.8468 332.598 18.3437 348.758 18.3437C357.505 18.3437 365.404 19.8447 372.453 22.8364C379.503 25.8385 385.114 30.352 389.275 36.3975C393.447 42.4431 395.528 50.1139 395.528 59.4099H375C375 54.2443 373.892 49.8758 371.677 46.3147C369.462 42.7536 366.398 40.0414 362.495 38.1781C358.582 36.3147 354.11 35.3934 349.068 35.3934C342.07 35.3934 336.253 36.7598 331.625 39.5031C326.998 42.2464 323.571 46.294 321.356 51.6667C319.141 57.0393 318.033 63.706 318.033 71.6563V75.0621C318.033 83.1263 319.141 89.8344 321.356 95.207C323.571 100.58 326.967 104.607 331.542 107.298C336.118 109.99 341.967 111.325 349.058 111.325C354.41 111.325 359.089 110.424 363.106 108.613C367.122 106.801 370.228 104.12 372.443 100.549C374.658 96.9876 375.766 92.6191 375.766 87.4534H395.528C395.528 96.7495 393.468 104.42 389.358 110.466C385.238 116.511 379.658 121.004 372.609 123.954C365.559 126.894 357.609 128.375 348.758 128.375L348.768 128.385Z" fill="#004E48"/>
<path d="M460.331 128.385C449.524 128.385 440.29 126.47 432.619 122.65C424.948 118.83 419.089 112.857 415.021 104.752C410.952 96.646 408.923 86.1801 408.923 73.3644C408.923 54.6687 413.447 40.8178 422.505 31.8323C431.563 22.8468 444.162 18.3437 460.321 18.3437C469.068 18.3437 476.967 19.8447 484.017 22.8364C491.066 25.8385 496.677 30.352 500.839 36.3975C505.01 42.4431 507.091 50.1139 507.091 59.4099H486.563C486.563 54.2443 485.455 49.8758 483.24 46.3147C481.025 42.7536 477.961 40.0414 474.058 38.1781C470.145 36.3147 465.673 35.3934 460.631 35.3934C453.634 35.3934 447.816 36.7598 443.188 39.5031C438.561 42.2464 435.135 46.294 432.919 51.6667C430.704 57.0393 429.596 63.706 429.596 71.6563V75.0621C429.596 83.1263 430.704 89.8344 432.919 95.207C435.135 100.58 438.53 104.607 443.106 107.298C447.681 109.99 453.53 111.325 460.621 111.325C465.973 111.325 470.652 110.424 474.669 108.613C478.685 106.801 481.791 104.12 484.006 100.549C486.222 96.9876 487.329 92.6191 487.329 87.4534H507.091C507.091 96.7495 505.031 104.42 500.921 110.466C496.801 116.511 491.222 121.004 484.172 123.954C477.122 126.894 469.172 128.375 460.321 128.375L460.331 128.385Z" fill="#004E48"/>
<path d="M280.694 84.9068C278.934 81.3457 276.511 78.3954 273.416 76.0766C270.321 73.7474 266.812 72.1739 262.899 71.3458V70.7246C266.201 69.5859 269.161 67.9089 271.791 65.6832C274.42 63.4576 276.511 60.7039 278.054 57.3913C279.596 54.089 280.373 50.4141 280.373 46.3872C280.373 41.118 279.079 36.5217 276.501 32.5983C273.923 28.6749 270.393 25.6211 265.901 23.4576C261.418 21.2836 256.335 20.207 250.663 20.207H190.725V126.522H250.663C256.749 126.522 262.236 125.466 267.143 123.344C272.039 121.232 275.963 117.992 278.903 113.654C281.843 109.317 283.313 103.841 283.313 97.2257C283.313 92.5776 282.433 88.4679 280.683 84.9068H280.694ZM210.849 37.4017H246.491C250.414 37.4017 253.582 38.4886 256.004 40.6522C258.427 42.8261 259.638 46.1801 259.638 50.7246C259.638 53.1056 259.099 55.2692 258.012 57.236C256.925 59.2029 255.331 60.7453 253.219 61.8841C251.108 63.0228 248.499 63.5921 245.404 63.5921H210.839V37.4017H210.849ZM258.489 105.828C255.756 108.157 252.277 109.317 248.043 109.317H210.849V80.4865H246.801C250.414 80.4865 253.375 81.087 255.694 82.2671C258.012 83.4576 259.741 85.1346 260.88 87.3085C262.019 89.4824 262.578 92.0083 262.578 94.9068C262.578 99.8654 261.211 103.509 258.478 105.828H258.489Z" fill="#004E48"/>
<path d="M146.718 73.3644C146.718 113.882 113.872 146.729 73.354 146.729C32.8364 146.729 0 113.872 0 73.3644C0 32.8571 32.8468 0 73.3644 0C113.882 0 146.729 32.8468 146.729 73.3644H146.718ZM75.735 22.0083H70.9731C66.6149 22.0083 63.0435 25.5797 63.0435 29.9379V34.6998C63.0435 39.058 66.6149 42.6294 70.9731 42.6294H75.735C80.0932 42.6294 83.6646 39.058 83.6646 34.6998V29.9379C83.6646 25.5797 80.0932 22.0083 75.735 22.0083V22.0083ZM100.124 46.47H95.3623C91.0042 46.47 87.4327 50.0414 87.4327 54.3996V59.1615C87.4327 63.5197 91.0042 67.0911 95.3623 67.0911H100.124C104.482 67.0911 108.054 63.5197 108.054 59.1615V54.3996C108.054 50.0414 104.482 46.47 100.124 46.47ZM75.735 104.099H70.9731C66.6149 104.099 63.0435 107.671 63.0435 112.029V116.791C63.0435 121.149 66.6149 124.721 70.9731 124.721H75.735C80.0932 124.721 83.6646 121.149 83.6646 116.791V112.029C83.6646 107.671 80.0932 104.099 75.735 104.099ZM83.6646 59.089V54.3271C83.6646 49.9689 80.0932 46.3975 75.735 46.3975H46.5839C42.2257 46.3975 38.6542 49.9689 38.6542 54.3271V59.089C38.6542 63.4472 42.2257 67.0186 46.5839 67.0186H63.0435V90.0104V92.3913C63.0435 96.7495 66.6149 100.321 70.9731 100.321H75.735C80.0932 100.321 83.6646 96.7495 83.6646 92.3913V87.6294V59.089V59.089Z" fill="#004E48"/>
<path d="M190.538 199.358V162.723H197.164L212.816 184.348C212.992 184.565 213.209 184.855 213.458 185.228C213.706 185.6 213.934 185.963 214.151 186.325C214.369 186.677 214.503 186.967 214.576 187.184H214.845V162.723H221.522V199.358H214.948L199.244 177.567C198.954 177.143 198.634 176.615 198.261 175.994C197.888 175.373 197.629 174.938 197.484 174.689H197.215V199.358H190.538V199.358Z" fill="#004E48"/>
<path d="M247.526 200C243.716 200 240.424 199.317 237.65 197.94C234.876 196.574 232.743 194.482 231.263 191.667C229.783 188.851 229.048 185.311 229.048 181.035C229.048 176.76 229.783 173.178 231.263 170.383C232.743 167.588 234.865 165.507 237.65 164.13C240.424 162.764 243.716 162.07 247.526 162.07C251.335 162.07 254.669 162.754 257.433 164.13C260.197 165.507 262.309 167.588 263.789 170.383C265.269 173.178 266.004 176.729 266.004 181.035C266.004 185.342 265.269 188.851 263.789 191.667C262.309 194.482 260.197 196.574 257.433 197.94C254.669 199.306 251.366 200 247.526 200ZM247.526 194.13C249.379 194.13 251.004 193.861 252.412 193.333C253.82 192.795 255 192.008 255.963 190.952C256.925 189.907 257.65 188.602 258.157 187.05C258.654 185.497 258.903 183.716 258.903 181.687V180.507C258.903 178.447 258.654 176.625 258.157 175.062C257.66 173.499 256.925 172.184 255.963 171.139C255 170.093 253.82 169.296 252.412 168.758C251.004 168.219 249.379 167.961 247.526 167.961C245.673 167.961 244.048 168.23 242.64 168.758C241.232 169.296 240.052 170.083 239.089 171.139C238.126 172.184 237.412 173.499 236.925 175.062C236.449 176.625 236.201 178.447 236.201 180.507V181.687C236.201 183.716 236.439 185.507 236.925 187.05C237.402 188.602 238.126 189.896 239.089 190.952C240.052 192.008 241.232 192.795 242.64 193.333C244.048 193.872 245.673 194.13 247.526 194.13Z" fill="#004E48"/>
<path d="M273.53 199.358V162.723H292.805C295.507 162.723 297.754 163.188 299.534 164.11C301.315 165.031 302.65 166.356 303.54 168.064C304.431 169.772 304.876 171.781 304.876 174.099C304.876 176.418 304.337 178.592 303.271 180.424C302.205 182.257 300.631 183.634 298.571 184.565L306.159 199.358H298.571L291.843 185.735H280.466V199.358H273.52H273.53ZM280.476 179.917H292.277C294.058 179.917 295.424 179.4 296.387 178.364C297.35 177.329 297.826 175.911 297.826 174.089C297.826 172.919 297.609 171.925 297.184 171.128C296.76 170.331 296.139 169.71 295.311 169.286C294.493 168.861 293.478 168.644 292.267 168.644H280.466V179.917H280.476Z" fill="#004E48"/>
<path d="M329.286 200C323.623 200 319.224 198.478 316.097 195.435C312.961 192.391 311.398 187.588 311.398 181.046C311.398 176.739 312.133 173.188 313.613 170.393C315.093 167.598 317.226 165.518 320.021 164.141C322.816 162.774 326.17 162.081 330.083 162.081C332.433 162.081 334.638 162.35 336.708 162.878C338.768 163.416 340.6 164.224 342.184 165.311C343.768 166.398 345.01 167.764 345.89 169.4C346.781 171.035 347.226 172.981 347.226 175.217H340.072C340.072 174.048 339.814 173.002 339.296 172.091C338.778 171.18 338.064 170.414 337.164 169.793C336.253 169.172 335.217 168.706 334.037 168.406C332.867 168.106 331.615 167.95 330.3 167.95C328.344 167.95 326.625 168.209 325.145 168.727C323.665 169.244 322.443 170.031 321.46 171.077C320.476 172.122 319.752 173.437 319.265 175C318.789 176.563 318.54 178.406 318.54 180.497V181.615C318.54 184.503 318.944 186.863 319.772 188.716C320.59 190.569 321.832 191.925 323.489 192.805C325.145 193.675 327.195 194.11 329.658 194.11C331.76 194.11 333.603 193.789 335.186 193.147C336.77 192.505 338.012 191.573 338.923 190.342C339.834 189.11 340.29 187.609 340.29 185.828V185.455H328.592V179.689H347.226V199.348H342.257L341.667 195.29C340.6 196.356 339.462 197.236 338.251 197.93C337.039 198.623 335.704 199.141 334.244 199.482C332.785 199.824 331.128 199.99 329.275 199.99L329.286 200Z" fill="#004E48"/>
<path d="M356.097 199.358V162.723H384.669V168.654H363.043V177.681H382.319V183.613H363.043V193.437H384.99V199.369H356.097V199.358Z" fill="#004E48"/>
</g>
<defs>
<clipPath id="clip0_44_1590">
<rect width="507.101" height="200" fill="white"/>
</clipPath>
</defs>
</svg>
