<svg width="486" height="200" viewBox="0 0 486 200" fill="none" xmlns="http://www.w3.org/2000/svg">
<g clip-path="url(#clip0_3_757)">
<path d="M334.485 122.81C324.147 122.81 315.314 120.978 307.977 117.324C300.639 113.67 295.034 107.957 291.142 100.203C287.251 92.4494 285.31 82.438 285.31 70.1787C285.31 52.2949 289.637 39.0454 298.302 30.4501C306.966 21.8547 319.018 17.5472 334.476 17.5472C342.843 17.5472 350.399 18.983 357.142 21.8448C363.886 24.7165 369.253 29.034 373.234 34.8171C377.224 40.6001 379.215 47.9378 379.215 56.8302H359.578C359.578 51.8889 358.519 47.7101 356.4 44.3036C354.28 40.8972 351.349 38.3027 347.616 36.5203C343.873 34.7378 339.595 33.8565 334.773 33.8565C328.079 33.8565 322.513 35.1636 318.087 37.7878C313.661 40.4119 310.383 44.2838 308.264 49.4232C306.145 54.5626 305.085 60.9397 305.085 68.5448V71.8027C305.085 79.5168 306.145 85.9336 308.264 91.0729C310.383 96.2123 313.631 100.064 318.008 102.639C322.385 105.214 327.98 106.491 334.763 106.491C339.882 106.491 344.358 105.63 348.2 103.897C352.043 102.164 355.013 99.5989 357.132 96.1826C359.251 92.7761 360.311 88.5973 360.311 83.656H379.215C379.215 92.5484 377.244 99.8861 373.313 105.669C369.372 111.452 364.034 115.75 357.291 118.572C350.547 121.384 342.942 122.8 334.476 122.8L334.485 122.81Z" fill="#004E48"/>
<path d="M441.204 122.81C430.866 122.81 422.033 120.978 414.695 117.324C407.358 113.67 401.753 107.957 397.861 100.203C393.969 92.4494 392.029 82.438 392.029 70.1787C392.029 52.2949 396.356 39.0454 405.021 30.4501C413.685 21.8547 425.737 17.5472 441.194 17.5472C449.562 17.5472 457.117 18.983 463.861 21.8448C470.605 24.7165 475.972 29.034 479.953 34.8171C483.943 40.6001 485.934 47.9378 485.934 56.8302H466.297C466.297 51.8889 465.237 47.7101 463.118 44.3036C460.999 40.8972 458.068 38.3027 454.335 36.5203C450.592 34.7378 446.314 33.8565 441.491 33.8565C434.797 33.8565 429.232 35.1636 424.806 37.7878C420.379 40.4119 417.102 44.2838 414.982 49.4232C412.863 54.5626 411.804 60.9397 411.804 68.5448V71.8027C411.804 79.5168 412.863 85.9336 414.982 91.0729C417.102 96.2123 420.35 100.064 424.727 102.639C429.103 105.214 434.698 106.491 441.481 106.491C446.601 106.491 451.077 105.63 454.919 103.897C458.761 102.164 461.732 99.5989 463.851 96.1826C465.97 92.7761 467.03 88.5973 467.03 83.656H485.934C485.934 92.5484 483.963 99.8861 480.032 105.669C476.091 111.452 470.753 115.75 464.01 118.572C457.266 121.384 449.661 122.8 441.194 122.8L441.204 122.81Z" fill="#004E48"/>
<path d="M269.367 81.22C267.683 77.8135 265.366 74.9913 262.405 72.7732C259.444 70.5451 256.088 69.0399 252.344 68.2478V67.6536C255.503 66.5643 258.335 64.9601 260.851 62.8311C263.366 60.7021 265.366 58.068 266.842 54.8992C268.317 51.7404 269.06 48.225 269.06 44.3729C269.06 39.3326 267.822 34.9359 265.356 31.1828C262.891 27.4298 259.514 24.5086 255.216 22.439C250.928 20.3595 246.066 19.3296 240.64 19.3296H183.304V121.028H240.64C246.462 121.028 251.711 120.018 256.404 117.988C261.088 115.968 264.841 112.868 267.654 108.719C270.466 104.57 271.872 99.3316 271.872 93.0039C271.872 88.5577 271.03 84.6264 269.357 81.22H269.367ZM202.555 35.7776H236.649C240.402 35.7776 243.432 36.8173 245.749 38.887C248.067 40.9665 249.225 44.1749 249.225 48.5221C249.225 50.7996 248.71 52.8692 247.67 54.7507C246.631 56.6322 245.106 58.1076 243.086 59.1969C241.065 60.2862 238.57 60.8308 235.609 60.8308H202.545V35.7776H202.555ZM248.126 101.233C245.512 103.461 242.184 104.57 238.134 104.57H202.555V76.9916H236.946C240.402 76.9916 243.234 77.566 245.452 78.6949C247.67 79.8336 249.324 81.4378 250.413 83.5173C251.503 85.5969 252.037 88.0131 252.037 90.7858C252.037 95.529 250.73 99.0147 248.116 101.233H248.126Z" fill="#004E48"/>
<path d="M141.209 70.1787C141.209 108.937 109.789 140.357 71.0304 140.357C32.2722 140.357 0.861572 108.927 0.861572 70.1787C0.861572 31.4304 32.2821 0 71.0403 0C109.799 0 141.219 31.4205 141.219 70.1787H141.209ZM73.308 21.0526H68.7528C64.5839 21.0526 61.1676 24.469 61.1676 28.6379V33.1931C61.1676 37.362 64.5839 40.7783 68.7528 40.7783H73.308C77.4769 40.7783 80.8933 37.362 80.8933 33.1931V28.6379C80.8933 24.469 77.4769 21.0526 73.308 21.0526ZM96.6382 44.4521H92.0831C87.9141 44.4521 84.4978 47.8685 84.4978 52.0374V56.5926C84.4978 60.7615 87.9141 64.1778 92.0831 64.1778H96.6382C100.807 64.1778 104.223 60.7615 104.223 56.5926V52.0374C104.223 47.8685 100.807 44.4521 96.6382 44.4521ZM73.308 99.5792H68.7528C64.5839 99.5792 61.1676 102.996 61.1676 107.164V111.72C61.1676 115.889 64.5839 119.305 68.7528 119.305H73.308C77.4769 119.305 80.8933 115.889 80.8933 111.72V107.164C80.8933 102.996 77.4769 99.5792 73.308 99.5792ZM80.8933 56.5233V51.9681C80.8933 47.7992 77.4769 44.3828 73.308 44.3828H45.4226C41.2537 44.3828 37.8374 47.7992 37.8374 51.9681V56.5233C37.8374 60.6922 41.2537 64.1085 45.4226 64.1085H61.1676V86.1019V88.3795C61.1676 92.5484 64.5839 95.9648 68.7528 95.9648H73.308C77.4769 95.9648 80.8933 92.5484 80.8933 88.3795V83.8243V56.5233Z" fill="#004E48"/>
<path d="M183.126 190.702V155.657H189.771V169.906H206.12V155.657H212.764V190.702H206.12V175.63H189.771V190.702H183.126Z" fill="#004E48"/>
<path d="M225.865 191.316C225.113 191.316 224.261 191.226 223.281 191.038C222.3 190.85 221.37 190.504 220.468 189.989C219.567 189.474 218.825 188.721 218.25 187.721C217.676 186.721 217.379 185.394 217.379 183.76C217.379 181.918 217.785 180.393 218.607 179.185C219.429 177.977 220.577 177.026 222.053 176.323C223.528 175.62 225.301 175.135 227.371 174.838C229.44 174.541 231.688 174.402 234.144 174.402V172.204C234.144 171.421 234.025 170.718 233.787 170.104C233.55 169.49 233.114 169.005 232.48 168.649C231.846 168.292 230.906 168.114 229.648 168.114C228.39 168.114 227.4 168.263 226.687 168.57C225.974 168.877 225.479 169.253 225.202 169.689C224.925 170.134 224.796 170.59 224.796 171.065V171.778H218.765C218.726 171.61 218.716 171.441 218.716 171.263V170.649C218.716 169.114 219.171 167.787 220.092 166.668C221.013 165.549 222.291 164.688 223.924 164.094C225.558 163.5 227.45 163.202 229.599 163.202C232.054 163.202 234.065 163.539 235.649 164.222C237.233 164.906 238.412 165.876 239.204 167.134C239.986 168.391 240.382 169.926 240.382 171.728V184.394C240.382 185.037 240.57 185.503 240.947 185.77C241.323 186.047 241.729 186.176 242.175 186.176H243.809V190.464C243.472 190.603 242.977 190.761 242.323 190.949C241.68 191.137 240.877 191.226 239.917 191.226C239.026 191.226 238.243 191.078 237.54 190.791C236.837 190.504 236.253 190.088 235.778 189.543C235.302 188.998 234.956 188.355 234.758 187.602H234.451C233.876 188.315 233.183 188.959 232.381 189.513C231.579 190.068 230.648 190.513 229.569 190.82C228.499 191.127 227.262 191.276 225.865 191.276V191.316ZM227.757 186.206C228.777 186.206 229.688 186.057 230.49 185.75C231.292 185.443 231.955 185.018 232.48 184.473C233.005 183.928 233.421 183.265 233.708 182.483C233.995 181.7 234.144 180.849 234.144 179.928V178.7C232.272 178.7 230.539 178.819 228.955 179.056C227.37 179.294 226.113 179.74 225.172 180.383C224.231 181.027 223.766 181.948 223.766 183.146C223.766 183.76 223.915 184.295 224.202 184.75C224.489 185.206 224.934 185.572 225.529 185.82C226.123 186.067 226.865 186.206 227.747 186.206H227.757Z" fill="#004E48"/>
<path d="M247.374 190.702V153.765H253.602V190.702H247.374Z" fill="#004E48"/>
<path d="M260.247 190.702V153.765H266.475V190.702H260.247Z" fill="#004E48"/>
<path d="M273.13 159.687V153.765H279.358V159.687H273.13ZM273.13 190.702V163.826H279.358V190.702H273.13Z" fill="#004E48"/>
<path d="M286.003 190.702V163.826H291.212L291.727 167.401H292.083C292.697 166.579 293.42 165.856 294.252 165.232C295.083 164.599 296.044 164.113 297.113 163.747C298.183 163.391 299.371 163.212 300.668 163.212C302.372 163.212 303.877 163.519 305.194 164.133C306.501 164.747 307.531 165.737 308.283 167.094C309.036 168.461 309.402 170.283 309.402 172.56V190.692H303.114V173.679C303.114 172.729 303.005 171.936 302.788 171.303C302.57 170.669 302.243 170.164 301.817 169.768C301.391 169.372 300.876 169.094 300.262 168.926C299.649 168.758 298.965 168.669 298.223 168.669C297.104 168.669 296.084 168.946 295.183 169.49C294.281 170.035 293.568 170.788 293.034 171.738C292.509 172.689 292.241 173.798 292.241 175.056V190.692H286.013L286.003 190.702Z" fill="#004E48"/>
<path d="M319.285 200C318.097 200 316.968 199.762 315.908 199.287C314.849 198.812 313.997 198.099 313.354 197.168C312.71 196.227 312.383 195.078 312.383 193.722C312.383 192.227 312.819 191.038 313.69 190.167C314.562 189.295 315.522 188.642 316.582 188.196C315.799 187.79 315.156 187.246 314.671 186.562C314.175 185.879 313.928 185.067 313.928 184.107C313.928 182.809 314.403 181.779 315.354 181.017C316.304 180.254 317.394 179.749 318.622 179.512C317.364 178.73 316.403 177.719 315.73 176.501C315.067 175.274 314.73 173.877 314.73 172.313C314.73 170.441 315.185 168.827 316.087 167.48C316.988 166.134 318.305 165.084 320.048 164.341C321.78 163.589 323.88 163.222 326.336 163.222C327.326 163.222 328.277 163.292 329.197 163.43C330.118 163.569 330.95 163.767 331.703 164.044C332.891 163.331 333.713 162.519 334.159 161.618C334.604 160.717 334.842 159.974 334.872 159.4H340.952C340.952 160.588 340.724 161.648 340.258 162.569C339.803 163.49 339.159 164.242 338.347 164.846C337.525 165.44 336.545 165.876 335.386 166.153C336.238 166.906 336.882 167.807 337.327 168.857C337.773 169.916 337.991 171.075 337.991 172.333C337.991 174.204 337.555 175.828 336.684 177.185C335.812 178.551 334.535 179.601 332.851 180.354C331.168 181.106 329.098 181.472 326.643 181.472H322.503C321.79 181.472 321.236 181.621 320.84 181.928C320.444 182.235 320.256 182.661 320.256 183.205C320.256 183.651 320.434 184.037 320.79 184.384C321.147 184.72 321.652 184.899 322.295 184.899H334.05C336.06 184.899 337.723 185.552 339.031 186.869C340.338 188.186 341.001 189.86 341.001 191.9C341.001 193.435 340.605 194.811 339.803 196.039C339.001 197.267 337.892 198.237 336.456 198.95C335.03 199.663 333.356 200.02 331.445 200.02H319.285V200ZM321.533 195.504H331.396C332.039 195.504 332.614 195.395 333.109 195.177C333.604 194.96 333.99 194.643 334.287 194.227C334.574 193.821 334.723 193.355 334.723 192.85C334.723 191.969 334.446 191.296 333.881 190.86C333.317 190.414 332.634 190.197 331.812 190.197H321.543C320.721 190.197 320.048 190.444 319.503 190.939C318.958 191.434 318.681 192.068 318.681 192.85C318.681 193.633 318.948 194.276 319.473 194.762C319.998 195.257 320.691 195.504 321.543 195.504H321.533ZM326.385 177.066C328.187 177.066 329.544 176.65 330.445 175.818C331.346 174.986 331.802 173.818 331.802 172.323C331.802 170.827 331.346 169.669 330.445 168.847C329.544 168.025 328.187 167.619 326.385 167.619C324.583 167.619 323.226 168.025 322.325 168.847C321.424 169.669 320.969 170.827 320.969 172.323C320.969 173.313 321.167 174.164 321.553 174.877C321.939 175.59 322.543 176.135 323.345 176.511C324.147 176.888 325.157 177.076 326.385 177.076V177.066Z" fill="#004E48"/>
<path d="M352.399 191.316C350.22 191.316 348.329 190.82 346.725 189.83C345.121 188.84 343.893 187.315 343.021 185.235C342.15 183.156 341.714 180.482 341.714 177.214C341.714 173.947 342.16 171.332 343.041 169.273C343.922 167.213 345.15 165.688 346.715 164.698C348.279 163.707 350.052 163.212 352.032 163.212C353.26 163.212 354.379 163.351 355.399 163.618C356.419 163.896 357.32 164.312 358.103 164.866C358.885 165.421 359.548 166.114 360.093 166.936H360.4V153.755H366.629V190.692H361.47L360.955 187.117H360.598C359.747 188.513 358.598 189.563 357.152 190.256C355.706 190.949 354.112 191.306 352.379 191.306L352.399 191.316ZM354.34 185.948C355.766 185.948 356.924 185.622 357.816 184.978C358.697 184.334 359.36 183.394 359.786 182.166C360.212 180.938 360.43 179.442 360.43 177.67V177.006C360.43 175.68 360.311 174.491 360.073 173.432C359.836 172.372 359.469 171.491 358.974 170.778C358.479 170.065 357.855 169.52 357.083 169.144C356.32 168.768 355.409 168.579 354.35 168.579C352.815 168.579 351.597 168.877 350.696 169.471C349.795 170.065 349.141 170.986 348.755 172.233C348.359 173.481 348.171 175.056 348.171 176.957V177.67C348.171 179.541 348.369 181.096 348.755 182.314C349.141 183.532 349.795 184.453 350.696 185.047C351.597 185.641 352.815 185.938 354.35 185.938L354.34 185.948Z" fill="#004E48"/>
<path d="M379.205 191.316C378.452 191.316 377.601 191.226 376.62 191.038C375.64 190.85 374.709 190.504 373.808 189.989C372.907 189.474 372.164 188.721 371.59 187.721C371.016 186.721 370.719 185.394 370.719 183.76C370.719 181.918 371.124 180.393 371.946 179.185C372.768 177.977 373.917 177.026 375.392 176.323C376.868 175.62 378.64 175.135 380.71 174.838C382.78 174.541 385.028 174.402 387.483 174.402V172.204C387.483 171.421 387.365 170.718 387.127 170.104C386.889 169.49 386.454 169.005 385.82 168.649C385.186 168.292 384.245 168.114 382.988 168.114C381.73 168.114 380.74 168.263 380.027 168.57C379.314 168.877 378.819 169.253 378.541 169.689C378.264 170.134 378.135 170.59 378.135 171.065V171.778H372.105C372.065 171.61 372.055 171.441 372.055 171.263V170.649C372.055 169.114 372.511 167.787 373.432 166.668C374.353 165.549 375.63 164.688 377.264 164.094C378.898 163.5 380.789 163.202 382.938 163.202C385.394 163.202 387.404 163.539 388.989 164.222C390.573 164.906 391.751 165.876 392.544 167.134C393.326 168.391 393.722 169.926 393.722 171.728V184.394C393.722 185.037 393.91 185.503 394.286 185.77C394.663 186.047 395.069 186.176 395.514 186.176H397.148V190.464C396.811 190.603 396.316 190.761 395.663 190.949C395.019 191.137 394.217 191.226 393.266 191.226C392.375 191.226 391.593 191.078 390.89 190.791C390.187 190.504 389.602 190.088 389.127 189.543C388.652 188.998 388.305 188.355 388.107 187.602H387.8C387.226 188.315 386.533 188.959 385.731 189.513C384.929 190.068 383.998 190.513 382.918 190.82C381.849 191.127 380.611 191.276 379.215 191.276L379.205 191.316ZM381.096 186.206C382.116 186.206 383.027 186.057 383.829 185.75C384.631 185.443 385.295 185.018 385.82 184.473C386.345 183.928 386.76 183.265 387.048 182.483C387.335 181.7 387.483 180.849 387.483 179.928V178.7C385.612 178.7 383.879 178.819 382.294 179.056C380.71 179.294 379.452 179.74 378.512 180.383C377.571 181.027 377.106 181.948 377.106 183.146C377.106 183.76 377.254 184.295 377.541 184.75C377.828 185.206 378.274 185.572 378.868 185.82C379.462 186.067 380.205 186.206 381.086 186.206H381.096Z" fill="#004E48"/>
<path d="M400.713 190.702V153.765H406.942V190.702H400.713Z" fill="#004E48"/>
</g>
<defs>
<clipPath id="clip0_3_757">
<rect width="485.082" height="200" fill="white" transform="translate(0.861572)"/>
</clipPath>
</defs>
</svg>
