<svg width="485" height="200" viewBox="0 0 485 200" fill="none" xmlns="http://www.w3.org/2000/svg">
<g clip-path="url(#clip0_5_1310)">
<path d="M333.541 122.608C323.22 122.608 314.402 120.779 307.076 117.131C299.751 113.483 294.155 107.779 290.27 100.038C286.384 92.2969 284.447 82.302 284.447 70.063C284.447 52.2086 288.767 38.981 297.417 30.3998C306.068 21.8187 318.099 17.5182 333.531 17.5182C341.885 17.5182 349.428 18.9517 356.161 21.8088C362.893 24.6758 368.252 28.9861 372.226 34.7596C376.21 40.5331 378.197 47.8587 378.197 56.7365H358.593C358.593 51.8033 357.535 47.6314 355.419 44.2305C353.304 40.8297 350.377 38.2395 346.65 36.46C342.913 34.6805 338.643 33.8007 333.828 33.8007C327.145 33.8007 321.589 35.1056 317.17 37.7255C312.751 40.3453 309.478 44.2108 307.363 49.3417C305.247 54.4726 304.189 60.8392 304.189 68.4318V71.6843C304.189 79.3856 305.247 85.7918 307.363 90.9227C309.478 96.0536 312.721 99.8993 317.091 102.47C321.46 105.04 327.046 106.315 333.818 106.315C338.929 106.315 343.398 105.455 347.234 103.725C351.069 101.995 354.035 99.4347 356.151 96.024C358.267 92.6231 359.324 88.4512 359.324 83.518H378.197C378.197 92.3958 376.23 99.7214 372.305 105.495C368.37 111.268 363.042 115.559 356.309 118.376C349.577 121.184 341.984 122.598 333.531 122.598L333.541 122.608Z" fill="#004E48"/>
<path d="M440.084 122.608C429.763 122.608 420.945 120.779 413.619 117.131C406.293 113.483 400.698 107.779 396.813 100.038C392.927 92.2969 390.99 82.302 390.99 70.063C390.99 52.2086 395.31 38.981 403.96 30.3998C412.611 21.8187 424.642 17.5182 440.074 17.5182C448.428 17.5182 455.971 18.9517 462.704 21.8088C469.436 24.6758 474.794 28.9861 478.769 34.7596C482.753 40.5331 484.74 47.8587 484.74 56.7365H465.136C465.136 51.8033 464.078 47.6314 461.962 44.2305C459.847 40.8297 456.92 38.2395 453.193 36.46C449.456 34.6805 445.186 33.8007 440.371 33.8007C433.688 33.8007 428.132 35.1056 423.713 37.7255C419.294 40.3453 416.021 44.2108 413.906 49.3417C411.79 54.4726 410.732 60.8392 410.732 68.4318V71.6843C410.732 79.3856 411.79 85.7918 413.906 90.9227C416.021 96.0536 419.264 99.8993 423.634 102.47C428.003 105.04 433.589 106.315 440.361 106.315C445.472 106.315 449.941 105.455 453.777 103.725C457.612 101.995 460.578 99.4347 462.694 96.024C464.809 92.6231 465.867 88.4512 465.867 83.518H484.74C484.74 92.3958 482.773 99.7214 478.848 105.495C474.913 111.268 469.584 115.559 462.852 118.376C456.12 121.184 448.527 122.598 440.074 122.598L440.084 122.608Z" fill="#004E48"/>
<path d="M268.53 81.086C266.85 77.6852 264.536 74.8677 261.58 72.6532C258.624 70.4288 255.273 68.9261 251.536 68.1352V67.542C254.69 66.4546 257.517 64.853 260.028 62.7275C262.539 60.602 264.536 57.9723 266.009 54.8087C267.482 51.655 268.224 48.1455 268.224 44.2998C268.224 39.2677 266.988 34.8783 264.526 31.1314C262.065 27.3846 258.693 24.4682 254.403 22.402C250.122 20.3259 245.268 19.2977 239.851 19.2977H182.61V120.828H239.851C245.664 120.828 250.903 119.82 255.589 117.793C260.265 115.776 264.012 112.682 266.82 108.54C269.628 104.398 271.031 99.1678 271.031 92.8505C271.031 88.4117 270.191 84.4869 268.52 81.086H268.53ZM201.828 35.7186H235.866C239.613 35.7186 242.638 36.7566 244.952 38.8228C247.265 40.8989 248.422 44.102 248.422 48.442C248.422 50.7158 247.908 52.782 246.87 54.6604C245.832 56.5388 244.309 58.0118 242.292 59.0993C240.276 60.1868 237.784 60.7305 234.828 60.7305H201.819V35.7186H201.828ZM247.324 101.066C244.715 103.29 241.393 104.398 237.349 104.398H201.828V76.8647H236.163C239.613 76.8647 242.441 77.4381 244.655 78.5651C246.87 79.702 248.521 81.3035 249.608 83.3796C250.696 85.4557 251.229 87.8679 251.229 90.636C251.229 95.3715 249.925 98.8514 247.315 101.066H247.324Z" fill="#004E48"/>
<path d="M140.584 70.063C140.584 108.757 109.215 140.126 70.5209 140.126C31.8266 140.126 0.467773 108.747 0.467773 70.063C0.467773 31.3786 31.8365 0 70.5308 0C109.225 0 140.594 31.3687 140.594 70.063H140.584ZM72.7947 21.0179H68.2471C64.085 21.0179 60.6743 24.4286 60.6743 28.5907V33.1383C60.6743 37.3004 64.085 40.7111 68.2471 40.7111H72.7947C76.9567 40.7111 80.3675 37.3004 80.3675 33.1383V28.5907C80.3675 24.4286 76.9567 21.0179 72.7947 21.0179ZM96.0864 44.3788H91.5388C87.3767 44.3788 83.966 47.7895 83.966 51.9516V56.4992C83.966 60.6613 87.3767 64.072 91.5388 64.072H96.0864C100.248 64.072 103.659 60.6613 103.659 56.4992V51.9516C103.659 47.7895 100.248 44.3788 96.0864 44.3788ZM72.7947 99.4149H68.2471C64.085 99.4149 60.6743 102.826 60.6743 106.988V111.535C60.6743 115.697 64.085 119.108 68.2471 119.108H72.7947C76.9567 119.108 80.3675 115.697 80.3675 111.535V106.988C80.3675 102.826 76.9567 99.4149 72.7947 99.4149ZM80.3675 56.43V51.8824C80.3675 47.7203 76.9567 44.3096 72.7947 44.3096H44.9553C40.7933 44.3096 37.3826 47.7203 37.3826 51.8824V56.43C37.3826 60.5921 40.7933 64.0028 44.9553 64.0028H60.6743V85.9599V88.2337C60.6743 92.3958 64.085 95.8065 68.2471 95.8065H72.7947C76.9567 95.8065 80.3675 92.3958 80.3675 88.2337V83.6861V56.43Z" fill="#004E48"/>
<path d="M182.432 190.387V155.4H189.065V169.626H205.387V155.4H212.021V190.387H205.387V175.34H189.065V190.387H182.432Z" fill="#004E48"/>
<path d="M225.1 191C224.349 191 223.499 190.911 222.52 190.723C221.541 190.535 220.612 190.189 219.712 189.675C218.813 189.161 218.071 188.41 217.498 187.411C216.925 186.413 216.628 185.088 216.628 183.457C216.628 181.618 217.033 180.096 217.854 178.889C218.674 177.683 219.821 176.734 221.294 176.032C222.767 175.33 224.537 174.846 226.603 174.549C228.669 174.253 230.913 174.114 233.365 174.114V171.92C233.365 171.139 233.247 170.437 233.009 169.824C232.772 169.211 232.337 168.727 231.704 168.371C231.072 168.015 230.132 167.837 228.877 167.837C227.621 167.837 226.633 167.985 225.921 168.292C225.209 168.598 224.715 168.974 224.438 169.409C224.161 169.854 224.033 170.308 224.033 170.783V171.495H218.012C217.972 171.327 217.963 171.159 217.963 170.981V170.368C217.963 168.835 218.417 167.511 219.337 166.393C220.256 165.276 221.531 164.416 223.163 163.823C224.794 163.23 226.682 162.933 228.827 162.933C231.279 162.933 233.286 163.269 234.868 163.952C236.45 164.634 237.626 165.603 238.417 166.858C239.198 168.114 239.593 169.646 239.593 171.445V184.09C239.593 184.732 239.781 185.197 240.157 185.464C240.533 185.741 240.938 185.869 241.383 185.869H243.014V190.15C242.678 190.288 242.184 190.446 241.531 190.634C240.888 190.822 240.088 190.911 239.129 190.911C238.239 190.911 237.458 190.763 236.756 190.476C236.054 190.189 235.471 189.774 234.996 189.23C234.522 188.687 234.176 188.044 233.978 187.293H233.672C233.098 188.005 232.406 188.647 231.605 189.201C230.805 189.754 229.875 190.199 228.798 190.506C227.73 190.812 226.494 190.96 225.1 190.96V191ZM226.989 185.899C228.007 185.899 228.916 185.75 229.717 185.444C230.518 185.138 231.18 184.712 231.704 184.169C232.228 183.625 232.643 182.963 232.93 182.182C233.217 181.401 233.365 180.55 233.365 179.631V178.405C231.497 178.405 229.767 178.524 228.185 178.761C226.603 178.998 225.348 179.443 224.408 180.086C223.469 180.728 223.004 181.648 223.004 182.844C223.004 183.457 223.153 183.991 223.439 184.446C223.726 184.9 224.171 185.266 224.764 185.513C225.357 185.76 226.099 185.899 226.979 185.899H226.989Z" fill="#004E48"/>
<path d="M247.562 190.387V163.556H252.762L253.276 167.125H253.632C254.205 166.304 254.877 165.583 255.619 164.96C256.37 164.327 257.22 163.843 258.199 163.477C259.168 163.121 260.226 162.943 261.382 162.943C262.944 162.943 264.338 163.269 265.564 163.912C266.79 164.555 267.739 165.632 268.421 167.125H268.777C269.351 166.304 270.033 165.583 270.814 164.96C271.595 164.327 272.494 163.843 273.513 163.477C274.531 163.121 275.638 162.943 276.825 162.943C278.426 162.943 279.83 163.23 281.056 163.813C282.282 164.396 283.251 165.345 283.962 166.67C284.674 167.995 285.03 169.765 285.03 171.979V190.387H278.812V173.254C278.812 172.335 278.713 171.564 278.505 170.931C278.298 170.298 278.021 169.814 277.665 169.448C277.309 169.082 276.864 168.825 276.34 168.657C275.816 168.489 275.243 168.4 274.63 168.4C273.641 168.4 272.761 168.677 271.98 169.221C271.199 169.765 270.577 170.516 270.122 171.465C269.667 172.414 269.43 173.521 269.43 174.777V190.387H263.211V173.254C263.211 172.335 263.113 171.564 262.905 170.931C262.697 170.298 262.42 169.814 262.065 169.448C261.709 169.092 261.264 168.825 260.74 168.657C260.216 168.489 259.643 168.4 259.03 168.4C258.041 168.4 257.151 168.677 256.35 169.221C255.55 169.765 254.927 170.516 254.462 171.465C254.007 172.414 253.77 173.521 253.77 174.777V190.387H247.552H247.562Z" fill="#004E48"/>
<path d="M298.366 191C297.615 191 296.765 190.911 295.786 190.723C294.807 190.535 293.878 190.189 292.979 189.675C292.079 189.161 291.337 188.41 290.764 187.411C290.191 186.413 289.894 185.088 289.894 183.457C289.894 181.618 290.299 180.096 291.12 178.889C291.94 177.683 293.087 176.734 294.56 176.032C296.043 175.33 297.803 174.846 299.869 174.549C301.935 174.253 304.179 174.114 306.631 174.114V171.92C306.631 171.139 306.513 170.437 306.275 169.824C306.038 169.211 305.603 168.727 304.97 168.371C304.338 168.015 303.398 167.837 302.143 167.837C300.887 167.837 299.899 167.985 299.187 168.292C298.475 168.598 297.981 168.974 297.704 169.409C297.427 169.854 297.299 170.308 297.299 170.783V171.495H291.278C291.239 171.327 291.229 171.159 291.229 170.981V170.368C291.229 168.835 291.683 167.511 292.603 166.393C293.522 165.276 294.798 164.416 296.429 163.823C298.06 163.23 299.948 162.933 302.094 162.933C304.545 162.933 306.552 163.269 308.134 163.952C309.716 164.634 310.892 165.603 311.683 166.858C312.464 168.114 312.86 169.646 312.86 171.445V184.09C312.86 184.732 313.047 185.197 313.423 185.464C313.799 185.741 314.204 185.869 314.649 185.869H316.28V190.15C315.944 190.288 315.45 190.446 314.797 190.634C314.155 190.822 313.354 190.911 312.405 190.911C311.515 190.911 310.734 190.763 310.032 190.476C309.33 190.189 308.747 189.774 308.272 189.23C307.798 188.687 307.452 188.044 307.254 187.293H306.948C306.374 188.005 305.682 188.647 304.881 189.201C304.081 189.754 303.151 190.199 302.074 190.506C301.006 190.812 299.77 190.96 298.376 190.96L298.366 191ZM300.255 185.899C301.273 185.899 302.182 185.75 302.983 185.444C303.784 185.138 304.446 184.712 304.97 184.169C305.494 183.625 305.91 182.963 306.196 182.182C306.483 181.401 306.631 180.55 306.631 179.631V178.405C304.763 178.405 303.033 178.524 301.451 178.761C299.869 178.998 298.614 179.443 297.674 180.086C296.735 180.728 296.271 181.648 296.271 182.844C296.271 183.457 296.419 183.991 296.706 184.446C296.992 184.9 297.437 185.266 298.03 185.513C298.623 185.76 299.365 185.899 300.245 185.899H300.255Z" fill="#004E48"/>
<path d="M320.828 190.387V163.556H326.028L326.542 167.787H326.898C327.234 166.937 327.659 166.146 328.143 165.415C328.638 164.683 329.27 164.09 330.051 163.625C330.832 163.171 331.781 162.933 332.908 162.933C333.452 162.933 333.956 162.983 334.411 163.091C334.866 163.19 335.222 163.299 335.459 163.398V169.26H333.571C332.513 169.26 331.584 169.409 330.763 169.695C329.943 169.982 329.261 170.437 328.697 171.05C328.134 171.663 327.718 172.424 327.451 173.343C327.175 174.263 327.046 175.33 327.046 176.556V190.377H320.828V190.387Z" fill="#004E48"/>
</g>
<defs>
<clipPath id="clip0_5_1310">
<rect width="484.282" height="191" fill="white" transform="translate(0.467773)"/>
</clipPath>
</defs>
</svg>
