<svg width="485" height="200" viewBox="0 0 485 200" fill="none" xmlns="http://www.w3.org/2000/svg">
<g clip-path="url(#clip0_2_462)">
<path d="M333.074 122.608C322.752 122.608 313.934 120.779 306.608 117.131C299.283 113.483 293.687 107.779 289.802 100.038C285.917 92.2969 283.979 82.302 283.979 70.063C283.979 52.2086 288.299 38.981 296.95 30.3998C305.6 21.8187 317.631 17.5182 333.064 17.5182C341.417 17.5182 348.961 18.9517 355.693 21.8088C362.425 24.6758 367.784 28.9861 371.758 34.7596C375.742 40.5331 377.729 47.8587 377.729 56.7365H358.125C358.125 51.8033 357.067 47.6314 354.952 44.2305C352.836 40.8297 349.91 38.2395 346.183 36.46C342.446 34.6805 338.175 33.8007 333.36 33.8007C326.677 33.8007 321.121 35.1056 316.702 37.7255C312.283 40.3453 309.011 44.2108 306.895 49.3417C304.779 54.4726 303.722 60.8392 303.722 68.4318V71.6843C303.722 79.3856 304.779 85.7918 306.895 90.9227C309.011 96.0536 312.253 99.8993 316.623 102.47C320.993 105.04 326.578 106.315 333.35 106.315C338.461 106.315 342.93 105.455 346.766 103.725C350.602 101.995 353.567 99.4347 355.683 96.024C357.799 92.6231 358.857 88.4512 358.857 83.518H377.729C377.729 92.3958 375.762 99.7214 371.837 105.495C367.902 111.268 362.574 115.559 355.841 118.376C349.109 121.184 341.516 122.598 333.064 122.598L333.074 122.608Z" fill="#004E48"/>
<path d="M439.616 122.608C429.295 122.608 420.477 120.779 413.151 117.131C405.826 113.483 400.23 107.779 396.345 100.038C392.46 92.2969 390.522 82.302 390.522 70.063C390.522 52.2086 394.842 38.981 403.493 30.3998C412.143 21.8187 424.174 17.5182 439.607 17.5182C447.96 17.5182 455.504 18.9517 462.236 21.8088C468.968 24.6758 474.327 28.9861 478.301 34.7596C482.285 40.5331 484.272 47.8587 484.272 56.7365H464.668C464.668 51.8033 463.61 47.6314 461.494 44.2305C459.379 40.8297 456.453 38.2395 452.726 36.46C448.989 34.6805 444.718 33.8007 439.903 33.8007C433.22 33.8007 427.664 35.1056 423.245 37.7255C418.826 40.3453 415.554 44.2108 413.438 49.3417C411.322 54.4726 410.265 60.8392 410.265 68.4318V71.6843C410.265 79.3856 411.322 85.7918 413.438 90.9227C415.554 96.0536 418.796 99.8993 423.166 102.47C427.536 105.04 433.121 106.315 439.893 106.315C445.004 106.315 449.473 105.455 453.309 103.725C457.145 101.995 460.11 99.4347 462.226 96.024C464.342 92.6231 465.4 88.4512 465.4 83.518H484.272C484.272 92.3958 482.305 99.7214 478.38 105.495C474.445 111.268 469.117 115.559 462.384 118.376C455.652 121.184 448.059 122.598 439.607 122.598L439.616 122.608Z" fill="#004E48"/>
<path d="M268.062 81.086C266.382 77.6852 264.068 74.8677 261.112 72.6532C258.157 70.4288 254.805 68.9261 251.068 68.1352V67.542C254.222 66.4546 257.049 64.853 259.56 62.7275C262.071 60.602 264.068 57.9723 265.541 54.8087C267.015 51.655 267.756 48.1455 267.756 44.2998C267.756 39.2677 266.52 34.8783 264.059 31.1314C261.597 27.3846 258.226 24.4682 253.935 22.402C249.654 20.3259 244.8 19.2977 239.383 19.2977H182.142V120.828H239.383C245.196 120.828 250.435 119.82 255.121 117.793C259.798 115.776 263.544 112.682 266.352 108.54C269.16 104.398 270.564 99.1678 270.564 92.8505C270.564 88.4117 269.723 84.4869 268.053 81.086H268.062ZM201.361 35.7186H235.399C239.146 35.7186 242.171 36.7566 244.484 38.8228C246.797 40.8989 247.954 44.102 247.954 48.442C247.954 50.7158 247.44 52.782 246.402 54.6604C245.364 56.5388 243.841 58.0118 241.825 59.0993C239.808 60.1868 237.317 60.7305 234.361 60.7305H201.351V35.7186H201.361ZM246.857 101.066C244.247 103.29 240.925 104.398 236.882 104.398H201.361V76.8647H235.695C239.146 76.8647 241.973 77.4381 244.187 78.5651C246.402 79.702 248.053 81.3035 249.14 83.3796C250.228 85.4557 250.762 87.8679 250.762 90.636C250.762 95.3715 249.457 98.8514 246.847 101.066H246.857Z" fill="#004E48"/>
<path d="M140.116 70.063C140.116 108.757 108.747 140.126 70.0531 140.126C31.3588 140.126 0 108.747 0 70.063C0 31.3786 31.3687 0 70.063 0C108.757 0 140.126 31.3687 140.126 70.063H140.116ZM72.3269 21.0179H67.7793C63.6172 21.0179 60.2065 24.4286 60.2065 28.5907V33.1383C60.2065 37.3004 63.6172 40.7111 67.7793 40.7111H72.3269C76.489 40.7111 79.8997 37.3004 79.8997 33.1383V28.5907C79.8997 24.4286 76.489 21.0179 72.3269 21.0179ZM95.6186 44.3788H91.071C86.909 44.3788 83.4982 47.7895 83.4982 51.9516V56.4992C83.4982 60.6613 86.909 64.072 91.071 64.072H95.6186C99.7807 64.072 103.191 60.6613 103.191 56.4992V51.9516C103.191 47.7895 99.7807 44.3788 95.6186 44.3788ZM72.3269 99.4149H67.7793C63.6172 99.4149 60.2065 102.826 60.2065 106.988V111.535C60.2065 115.697 63.6172 119.108 67.7793 119.108H72.3269C76.489 119.108 79.8997 115.697 79.8997 111.535V106.988C79.8997 102.826 76.489 99.4149 72.3269 99.4149ZM79.8997 56.43V51.8824C79.8997 47.7203 76.489 44.3096 72.3269 44.3096H44.4876C40.3255 44.3096 36.9148 47.7203 36.9148 51.8824V56.43C36.9148 60.5921 40.3255 64.0028 44.4876 64.0028H60.2065V85.9599V88.2337C60.2065 92.3958 63.6172 95.8065 67.7793 95.8065H72.3269C76.489 95.8065 79.8997 92.3958 79.8997 88.2337V83.6861V56.43Z" fill="#004E48"/>
<path d="M182.162 190.387V155.4H209.448V161.065H188.795V169.686H207.203V175.35H188.795V184.732H209.754V190.397H182.162V190.387Z" fill="#004E48"/>
<path d="M215.874 159.424V153.512H222.092V159.424H215.874ZM215.874 190.387V163.556H222.092V190.387H215.874Z" fill="#004E48"/>
<path d="M228.726 190.387V153.512H234.944V174.984L244.583 163.556H251.879L242.902 173.956L252.393 190.377H245.255L238.928 178.494L234.954 182.32V190.377H228.735L228.726 190.387Z" fill="#004E48"/>
<path d="M266.164 191C263.307 191 260.925 190.496 259.027 189.497C257.119 188.499 255.695 186.957 254.746 184.88C253.797 182.804 253.312 180.175 253.312 176.972C253.312 173.768 253.787 171.099 254.746 169.043C255.695 166.987 257.128 165.454 259.027 164.456C260.935 163.457 263.307 162.953 266.164 162.953C268.745 162.953 270.92 163.437 272.669 164.406C274.419 165.375 275.734 166.868 276.624 168.865C277.504 170.872 277.949 173.472 277.949 176.665V178.504H259.689C259.758 180.175 260.015 181.569 260.45 182.715C260.895 183.852 261.577 184.703 262.516 185.266C263.456 185.83 264.681 186.106 266.214 186.106C266.995 186.106 267.726 186.007 268.408 185.8C269.091 185.592 269.684 185.286 270.198 184.861C270.712 184.436 271.107 183.902 271.394 183.259C271.681 182.617 271.829 181.865 271.829 181.015H277.949C277.949 182.715 277.652 184.198 277.059 185.454C276.466 186.709 275.635 187.747 274.558 188.568C273.49 189.389 272.234 189.992 270.811 190.407C269.377 190.812 267.835 191.02 266.164 191.02V191ZM259.788 174.114H271.463C271.463 172.987 271.335 172.038 271.078 171.257C270.821 170.476 270.465 169.834 270.01 169.32C269.555 168.806 269.002 168.44 268.349 168.222C267.707 168.005 266.975 167.896 266.154 167.896C264.83 167.896 263.713 168.114 262.813 168.558C261.913 169.003 261.221 169.685 260.747 170.595C260.272 171.514 259.946 172.691 259.778 174.114H259.788Z" fill="#004E48"/>
<path d="M283.248 190.387V163.556H288.448L288.962 167.787H289.318C289.654 166.937 290.079 166.146 290.563 165.415C291.058 164.683 291.69 164.09 292.471 163.625C293.252 163.171 294.201 162.933 295.328 162.933C295.872 162.933 296.376 162.983 296.831 163.091C297.286 163.19 297.642 163.299 297.879 163.398V169.26H295.991C294.933 169.26 294.004 169.409 293.183 169.695C292.363 169.982 291.68 170.437 291.117 171.05C290.553 171.663 290.138 172.424 289.871 173.343C289.594 174.263 289.466 175.33 289.466 176.556V190.377H283.248V190.387Z" fill="#004E48"/>
</g>
<defs>
<clipPath id="clip0_2_462">
<rect width="484.282" height="191" fill="white"/>
</clipPath>
</defs>
</svg>
