<svg width="1429" height="200" viewBox="0 0 1429 200" fill="none" xmlns="http://www.w3.org/2000/svg">
<g clip-path="url(#clip0_22_523)">
<path d="M475.141 175.016C462.086 175.39 449.157 172.705 437.352 167.208C426.858 161.961 418.426 153.404 413.367 142.786C407.87 131.793 405.122 117.489 405.122 99.9375C405.122 74.4535 411.305 55.5903 423.61 43.3479C435.915 31.1056 453.092 24.9844 475.141 24.9844C486.196 24.797 497.189 26.9207 507.433 31.1056C516.677 34.9157 524.672 41.3492 530.356 49.594C536.352 58.9632 539.288 69.8938 538.788 80.9494H510.806C510.993 74.7033 509.432 68.5197 506.309 63.0856C503.31 58.2761 498.938 54.4035 493.816 52.03C488.132 49.4691 481.886 48.2199 475.64 48.3448C467.333 48.0325 459.151 50.0312 451.843 53.9663C445.409 57.7764 440.475 63.5853 437.726 70.5184C434.478 79.2005 432.917 88.4447 433.229 97.7514V102.436C432.917 111.805 434.478 121.112 437.726 129.856C440.35 136.727 445.284 142.536 451.593 146.346C458.214 149.656 465.522 151.468 472.892 151.78C480.325 152.092 487.695 150.843 494.566 148.157C499.813 145.846 504.247 142.036 507.308 137.164C510.493 131.793 512.055 125.609 511.805 119.363H538.726C539.163 130.419 536.227 141.349 530.294 150.718C524.672 158.963 516.74 165.334 507.495 169.082C497.189 173.204 486.134 175.265 475.016 175.078L475.141 175.016Z" fill="#004641"/>
<path d="M627.108 175.016C614.116 175.39 601.187 172.705 589.382 167.208C578.888 161.961 570.456 153.404 565.397 142.786C559.775 131.793 556.964 117.489 557.089 100C557.089 74.5159 563.273 55.6527 575.578 43.4104C587.883 31.168 605.059 25.0468 627.108 25.0468C638.164 24.8595 649.157 26.9831 659.4 31.168C668.645 34.9781 676.64 41.4116 682.324 49.6565C688.32 58.9631 691.255 69.9563 690.756 81.0119H662.836C663.023 74.7658 661.462 68.5821 658.276 63.148C655.278 58.3385 650.906 54.466 645.784 52.0924C640.038 49.4691 633.791 48.1574 627.483 48.2823C619.176 47.97 610.993 49.9688 603.748 53.9038C597.314 57.7139 592.38 63.5228 589.632 70.456C586.384 79.138 584.822 88.3823 585.072 97.6889V102.374C584.822 111.743 586.321 121.049 589.632 129.794C592.255 136.665 597.189 142.473 603.498 146.284C610.119 149.594 617.364 151.405 624.797 151.718C632.167 152.03 639.6 150.781 646.471 148.095C651.718 145.784 656.152 141.974 659.213 137.102C662.336 131.73 663.898 125.547 663.71 119.3H690.631C691.068 130.356 688.132 141.287 682.199 150.656C676.577 158.901 668.645 165.272 659.4 169.019C649.157 173.142 638.164 175.141 627.108 175.016V175.016Z" fill="#004641"/>
<path d="M382.386 115.803C380.075 111.056 376.702 106.933 372.455 103.748C368.207 100.562 363.335 98.376 358.151 97.3142V96.4397C362.586 94.9407 366.708 92.6296 370.269 89.569C373.891 86.5084 376.765 82.6358 378.701 78.2636C380.887 73.579 381.949 68.4572 381.886 63.273C382.011 56.6521 380.2 50.0937 376.64 44.4722C373.079 39.0381 368.082 34.7283 362.211 31.98C355.715 28.9194 348.595 27.4204 341.474 27.5453H259.9V172.517H341.537C349.282 172.642 356.964 171.205 364.085 168.207C370.581 165.459 376.14 160.837 380.075 155.028C384.322 148.345 386.384 140.537 386.071 132.605C386.134 126.796 384.884 121.049 382.386 115.803V115.803ZM287.258 51.0931H335.853C340.6 50.9057 345.222 52.4672 348.782 55.5278C350.531 57.3392 351.905 59.4628 352.78 61.8363C353.654 64.2099 353.966 66.7083 353.779 69.2692C353.779 72.3298 353.029 75.3904 351.593 78.1387C350.094 80.8245 347.783 83.0731 345.034 84.5097C341.724 86.1337 338.101 86.9457 334.416 86.8207H287.32V51.1555L287.258 51.0931ZM352.155 144.285C348.157 147.533 343.161 149.219 338.039 149.032H287.258V109.744H336.227C340.412 109.619 344.535 110.431 348.345 112.18C351.343 113.679 353.841 116.052 355.403 119.051C357.027 122.236 357.776 125.796 357.714 129.419C357.714 136.165 355.84 141.099 352.155 144.285V144.285Z" fill="#004641"/>
<path d="M199.875 99.9375C199.875 119.738 194.004 139.038 183.073 155.465C172.08 171.893 156.465 184.697 138.226 192.317C119.988 199.875 99.8751 201.874 80.4497 198.001C61.0868 194.129 43.223 184.635 29.2942 170.643C15.3029 156.652 5.80887 138.851 1.93629 119.488C-1.93629 100.062 -2.45982e-06 79.95 7.62024 61.7114C15.178 43.4728 27.9825 27.8576 44.4097 16.8645C60.837 5.87133 80.1999 0 99.9375 0C126.421 0 151.843 10.5559 170.581 29.2942C189.319 48.0325 199.875 73.4541 199.875 99.9375ZM103.186 29.9813H96.6896C93.8164 29.9813 91.0681 31.168 89.0693 33.1668C87.0706 35.1655 85.8838 37.9138 85.8838 40.787V47.2829C85.8838 50.1562 87.0081 52.9044 89.0693 54.9032C91.0681 56.9019 93.8164 58.0887 96.6896 58.0887H103.186C106.059 58.0887 108.807 56.9644 110.806 54.9032C112.804 52.9044 113.991 50.1562 113.991 47.2829V40.787C113.991 37.9138 112.804 35.228 110.806 33.2292C108.807 31.2305 106.059 30.1062 103.186 30.1062V29.9813ZM136.415 63.3354H129.981C127.108 63.3354 124.36 64.4597 122.361 66.5209C120.362 68.5197 119.176 71.268 119.176 74.1412V80.5746C119.176 83.4478 120.3 86.1961 122.361 88.1949C124.36 90.1936 127.108 91.3804 129.981 91.3804H136.415C139.288 91.3804 142.036 90.2561 144.035 88.1949C146.034 86.1961 147.22 83.4478 147.22 80.5746V74.1412C147.22 71.268 146.034 68.5821 144.035 66.5834C142.036 64.5846 139.288 63.4603 136.415 63.4603V63.3354ZM103.186 141.849H96.6896C93.8164 141.849 91.0681 142.973 89.0693 145.034C87.0706 147.033 85.8838 149.781 85.8838 152.655V159.213C85.8838 162.086 87.0706 164.834 89.0693 166.833C91.0681 168.832 93.8164 170.019 96.6896 170.019H103.186C106.059 170.019 108.807 168.894 110.806 166.833C112.804 164.834 113.991 162.086 113.991 159.213V152.717C113.991 149.844 112.804 147.158 110.806 145.097C108.807 143.098 106.059 141.974 103.186 141.974V141.849V141.849ZM113.991 80.5122V74.0162C113.991 71.143 112.867 68.3948 110.806 66.396C108.807 64.3973 106.059 63.2105 103.186 63.2105H63.4603C60.5871 63.2105 57.8389 64.3973 55.8401 66.396C53.8413 68.3948 52.6546 71.143 52.6546 74.0162V80.5122C52.6546 83.3854 53.7789 86.1337 55.8401 88.1324C57.8389 90.1312 60.5871 91.3179 63.4603 91.3179H86.0088V125.921C86.0088 128.795 87.1955 131.543 89.1943 133.542C91.193 135.54 93.9413 136.727 96.8145 136.727H103.31C106.184 136.727 108.932 135.603 110.931 133.542C112.929 131.543 114.116 128.795 114.116 125.921V80.6371L113.991 80.5122Z" fill="#004641"/>
<path d="M735.665 172.517L792.255 27.1705H826.983L883.76 172.517H853.904L842.286 141.474H775.765L764.085 172.517H735.665V172.517ZM784.385 118.301H833.292L818.676 78.8257C818.114 77.3891 817.427 75.6402 816.677 73.3916C815.928 71.2055 815.053 68.7695 814.241 66.2086C813.367 63.5853 812.555 60.9619 811.68 58.2761C810.868 55.5903 810.056 53.2167 809.369 51.0931H808.432C807.62 53.9038 806.558 57.1518 805.372 60.837C804.185 64.5222 802.998 67.9575 801.874 71.2055C800.75 74.4535 799.813 77.0144 799.063 78.8257L784.385 118.301V118.301Z" fill="#004641"/>
<path d="M893.317 127.108V103.373H946.908V127.108H893.317Z" fill="#004641"/>
<path d="M998.626 175.016C992.88 175.328 987.196 173.891 982.324 170.893C978.451 168.332 975.515 164.585 973.891 160.275C972.267 156.027 971.455 151.53 971.455 147.033V82.1986H958.089V61.0244H972.205L976.827 29.8563H997.439V61.0244H1016.74V82.1986H997.439V144.472C997.252 146.971 998.126 149.469 999.813 151.343C1000.75 152.217 1001.87 152.904 1003.06 153.279C1004.25 153.716 1005.56 153.841 1006.81 153.779H1016.74V171.58C1015.05 172.267 1013.3 172.829 1011.56 173.267C1009.49 173.766 1007.37 174.204 1005.12 174.516C1003 174.891 1000.81 175.016 998.688 175.016H998.626Z" fill="#004641"/>
<path d="M1083.57 175.016C1073.27 175.39 1063.09 173.204 1053.84 168.77C1045.91 164.585 1039.6 157.839 1036.04 149.594C1028.17 128.357 1028.17 104.997 1036.04 83.8226C1039.66 75.6402 1045.91 68.9569 1053.84 64.772C1063.09 60.2748 1073.27 58.1512 1083.51 58.5259C1092.88 58.2136 1102.19 60.2748 1110.49 64.5846C1117.93 68.7071 1123.67 75.2655 1126.92 83.1355C1130.92 93.4416 1132.79 104.497 1132.42 115.553V123.173H1056.65C1056.71 129.107 1057.84 135.041 1059.84 140.662C1061.4 145.034 1064.33 148.782 1068.27 151.28C1072.95 153.841 1078.26 155.028 1083.64 154.778C1086.7 154.778 1089.82 154.403 1092.75 153.529C1095.5 152.717 1098 151.405 1100.19 149.594C1102.31 147.783 1104.06 145.472 1105.18 142.911C1106.43 139.975 1107.06 136.79 1107 133.604H1132.35C1132.48 139.913 1131.23 146.221 1128.67 152.03C1126.3 157.089 1122.74 161.524 1118.24 164.959C1113.62 168.457 1108.31 171.081 1102.69 172.58C1096.44 174.329 1090.07 175.141 1083.57 175.141V175.016ZM1057.09 104.872H1105.62C1105.68 100.874 1105.18 96.877 1104.06 93.0044C1103.19 90.0687 1101.62 87.3204 1099.63 84.9469C1097.75 82.8232 1095.38 81.2617 1092.75 80.3873C1089.82 79.4503 1086.76 78.9507 1083.64 79.0131C1078.83 78.8882 1074.08 79.8251 1069.77 81.8239C1066.08 83.6352 1063.15 86.6334 1061.34 90.2561C1059.09 94.8157 1057.71 99.7502 1057.21 104.809L1057.09 104.872Z" fill="#004641"/>
<path d="M1183.14 175.016C1179.58 175.016 1175.95 174.578 1172.45 173.829C1168.39 173.017 1164.4 171.58 1160.84 169.457C1156.96 167.208 1153.78 163.96 1151.59 160.025C1148.97 154.966 1147.72 149.282 1147.97 143.598C1147.72 136.914 1149.47 130.294 1153.09 124.672C1156.71 119.488 1161.65 115.365 1167.4 112.804C1174.39 109.681 1181.82 107.62 1189.44 106.683C1198.81 105.434 1208.24 104.872 1217.61 104.934V95.8151C1217.61 92.8794 1217.18 89.8813 1216.18 87.133C1215.18 84.5097 1213.24 82.386 1210.74 81.0743C1207.06 79.3879 1203 78.5759 1199 78.8257C1194.82 78.6383 1190.63 79.263 1186.7 80.6996C1184.26 81.574 1182.07 83.198 1180.57 85.3217C1179.51 87.0081 1178.89 88.9444 1178.89 90.9432V93.8788H1153.72C1153.59 93.1917 1153.53 92.5047 1153.53 91.7551V89.1942C1153.4 83.198 1155.4 77.3267 1159.15 72.6421C1163.4 67.7077 1168.89 64.0225 1175.08 61.9613C1182.64 59.3379 1190.63 58.0887 1198.63 58.2136C1207.18 57.9638 1215.74 59.4004 1223.74 62.461C1229.79 64.8345 1234.92 69.0818 1238.48 74.5159C1241.85 80.2623 1243.54 86.8832 1243.35 93.5665V146.096C1243.29 147.158 1243.41 148.22 1243.79 149.219C1244.16 150.219 1244.85 151.093 1245.66 151.78C1247.16 152.904 1248.91 153.467 1250.78 153.467H1257.53V171.268C1256.09 171.83 1254.03 172.517 1251.34 173.267C1248.09 174.141 1244.72 174.516 1241.41 174.453C1238.04 174.453 1234.73 173.891 1231.61 172.642C1228.79 171.518 1226.3 169.706 1224.3 167.458C1222.3 165.147 1220.8 162.398 1220.05 159.4H1218.8C1216.36 162.398 1213.49 165.084 1210.31 167.333C1206.75 169.769 1202.81 171.58 1198.69 172.705C1193.69 174.141 1188.51 174.828 1183.26 174.766L1183.14 175.016ZM1191.01 153.841C1194.88 153.841 1198.69 153.217 1202.31 151.905C1205.43 150.781 1208.24 148.969 1210.56 146.596C1212.8 144.222 1214.55 141.412 1215.62 138.351C1216.86 134.978 1217.43 131.355 1217.43 127.733V122.673C1210.24 122.673 1203.06 123.111 1195.94 124.11C1190.38 124.797 1185.01 126.671 1180.26 129.731C1178.39 130.981 1176.89 132.667 1175.83 134.666C1174.83 136.665 1174.33 138.913 1174.39 141.162C1174.39 143.535 1174.95 145.846 1176.2 147.845C1177.58 149.844 1179.58 151.405 1181.82 152.28C1184.76 153.342 1187.82 153.841 1190.94 153.716L1191.01 153.841Z" fill="#004641"/>
<path d="M1272.33 172.517V61.0868H1293.94L1296.07 75.8901H1297.56C1299.94 72.5172 1302.69 69.5191 1305.81 66.8957C1308.99 64.2723 1312.62 62.1487 1316.49 60.7745C1320.74 59.2755 1325.23 58.5259 1329.73 58.5259C1335.79 58.401 1341.72 59.7751 1347.1 62.5859C1352.47 65.584 1356.65 70.2686 1358.96 75.9525H1360.46C1362.84 72.5796 1365.71 69.5815 1368.96 66.9582C1372.33 64.2723 1376.14 62.2111 1380.26 60.837C1384.7 59.3379 1389.32 58.5884 1394 58.5884C1400.06 58.4635 1406.06 59.7127 1411.62 62.2111C1416.8 64.772 1421.05 68.8944 1423.67 74.0787C1426.92 80.9494 1428.48 88.5072 1428.11 96.1274V172.642H1402.25V101.437C1402.31 98.1886 1401.87 94.9407 1401 91.8176C1400.31 89.5066 1399.13 87.3829 1397.5 85.6964C1395.94 84.1349 1394 83.0106 1391.88 82.4485C1389.57 81.6989 1387.2 81.3866 1384.82 81.3866C1380.89 81.3866 1377.01 82.5109 1373.77 84.822C1370.39 87.1955 1367.77 90.381 1366.02 94.1287C1364.02 98.4385 1363.09 103.123 1363.21 107.87V172.767H1337.35V101.562C1337.41 98.3136 1336.98 95.0656 1336.1 91.9425C1335.42 89.6315 1334.23 87.5703 1332.6 85.8214C1330.98 84.3223 1329.11 83.198 1326.98 82.5734C1324.67 81.8239 1322.3 81.5116 1319.86 81.5116C1315.87 81.5116 1311.99 82.6359 1308.74 84.9469C1305.37 87.258 1302.62 90.5059 1300.94 94.2536C1298.94 98.5634 1298 103.248 1298.13 107.995V172.892H1272.39L1272.33 172.517Z" fill="#004641"/>
</g>
<defs>
<clipPath id="clip0_22_523">
<rect width="1428.11" height="200" fill="white"/>
</clipPath>
</defs>
</svg>
