<?xml version="1.0" encoding="utf-8"?>
<!-- Generator: Adobe Illustrator 26.0.2, SVG Export Plug-In . SVG Version: 6.00 Build 0)  -->
<svg version="1.1" id="Layer_1" xmlns="http://www.w3.org/2000/svg" xmlns:xlink="http://www.w3.org/1999/xlink" x="0px" y="0px"
	 viewBox="0 0 836.61 283.27" style="enable-background:new 0 0 836.61 283.27;" xml:space="preserve">
<style type="text/css">
	.st0{fill:#014F48;}
</style>
<path class="st0" d="M493.98,181.83c-15.3,0-28.39-2.71-39.24-8.12c-10.86-5.41-19.17-13.86-24.92-25.35
	c-5.76-11.49-8.64-26.3-8.64-44.45c0-26.49,6.41-46.1,19.24-58.83c12.82-12.73,30.68-19.1,53.56-19.1c12.39,0,23.57,2.12,33.56,6.37
	c9.98,4.25,17.93,10.65,23.83,19.21c5.9,8.56,8.85,19.43,8.85,32.6h-29.08c0-7.32-1.57-13.5-4.7-18.55
	c-3.14-5.05-7.47-8.89-13.01-11.52c-5.54-2.63-11.88-3.95-19.02-3.95c-9.91,0-18.15,1.94-24.7,5.82
	c-6.56,3.88-11.41,9.62-14.54,17.23c-3.14,7.61-4.7,17.05-4.7,28.32v4.83c0,11.41,1.56,20.93,4.7,28.54
	c3.13,7.61,7.94,13.32,14.43,17.12c6.48,3.81,14.76,5.71,24.81,5.71c7.58,0,14.21-1.28,19.9-3.84c5.68-2.56,10.09-6.37,13.23-11.41
	c3.13-5.05,4.7-11.23,4.7-18.55h27.98c0,13.17-2.92,24.04-8.74,32.6c-5.83,8.56-13.74,14.93-23.72,19.1
	C517.77,179.75,506.51,181.83,493.98,181.83z"/>
<path class="st0" d="M651.99,181.83c-15.3,0-28.39-2.71-39.24-8.12c-10.86-5.41-19.17-13.86-24.92-25.35
	c-5.76-11.49-8.64-26.3-8.64-44.45c0-26.49,6.41-46.1,19.24-58.83c12.82-12.73,30.68-19.1,53.56-19.1c12.39,0,23.57,2.12,33.56,6.37
	c9.98,4.25,17.93,10.65,23.83,19.21c5.9,8.56,8.85,19.43,8.85,32.6h-29.08c0-7.32-1.57-13.5-4.7-18.55
	c-3.14-5.05-7.47-8.89-13.01-11.52c-5.54-2.63-11.88-3.95-19.02-3.95c-9.91,0-18.15,1.94-24.7,5.82
	c-6.56,3.88-11.41,9.62-14.54,17.23c-3.14,7.61-4.7,17.05-4.7,28.32v4.83c0,11.41,1.56,20.93,4.7,28.54
	c3.13,7.61,7.94,13.32,14.43,17.12c6.48,3.81,14.76,5.71,24.81,5.71c7.58,0,14.21-1.28,19.9-3.84c5.68-2.56,10.09-6.37,13.23-11.41
	c3.13-5.05,4.7-11.23,4.7-18.55h27.98c0,13.17-2.92,24.04-8.74,32.6c-5.83,8.56-13.74,14.93-23.72,19.1
	C675.78,179.75,664.52,181.83,651.99,181.83z"/>
<path class="st0" d="M397.56,120.26c-2.49-5.05-5.92-9.22-10.3-12.51c-4.38-3.29-9.35-5.52-14.9-6.7v-0.88
	c4.67-1.61,8.88-3.99,12.6-7.13c3.73-3.15,6.68-7.06,8.88-11.74c2.19-4.68,3.29-9.88,3.29-15.59c0-7.46-1.83-13.97-5.48-19.54
	c-3.65-5.56-8.66-9.88-15.01-12.95c-6.36-3.07-13.55-4.61-21.59-4.61H341.6h-4.42h-33h-1.3h-32.73V179.2h32.73h1.3h33h4.42h13.44
	c8.62,0,16.4-1.5,23.34-4.5c6.94-3,12.49-7.57,16.66-13.72s6.25-13.9,6.25-23.27C401.29,131.12,400.04,125.31,397.56,120.26z
	 M298.64,52.98h4.24h1.3h33h4.42h7.52c5.55,0,10.04,1.54,13.48,4.61c3.43,3.07,5.15,7.83,5.15,14.27c0,3.37-0.77,6.44-2.3,9.22
	c-1.53,2.78-3.8,4.98-6.79,6.59c-3,1.61-6.68,2.41-11.07,2.41h-10.41h-33h-5.53h-0.01V52.98z M366.11,149.89
	c-3.87,3.29-8.8,4.94-14.79,4.94h-9.71h-4.42h-33h-1.3h-4.24V114h0.01h5.53h33h12.38c5.11,0,9.31,0.84,12.6,2.52
	c3.29,1.68,5.73,4.06,7.34,7.13c1.61,3.07,2.41,6.66,2.41,10.76C371.92,141.44,369.98,146.6,366.11,149.89z"/>
<path class="st0" d="M207.81,103.9c0,57.38-46.52,103.9-103.9,103.9S0,161.29,0,103.9S46.52,0,103.9,0S207.81,46.52,207.81,103.9z
	 M107.27,31.17h-6.74c-6.18,0-11.23,5.05-11.23,11.23v6.74c0,6.18,5.05,11.23,11.23,11.23h6.74c6.18,0,11.23-5.05,11.23-11.23V42.4
	C118.5,36.23,113.45,31.17,107.27,31.17z M141.82,65.81h-6.74c-6.18,0-11.23,5.05-11.23,11.23v6.74c0,6.18,5.05,11.23,11.23,11.23
	h6.74c6.18,0,11.23-5.05,11.23-11.23v-6.74C153.05,70.87,148,65.81,141.82,65.81z M107.27,147.44h-6.74
	c-6.18,0-11.23,5.05-11.23,11.23v6.74c0,6.18,5.05,11.23,11.23,11.23h6.74c6.18,0,11.23-5.05,11.23-11.23v-6.74
	C118.5,152.49,113.45,147.44,107.27,147.44z M118.5,83.69v-6.74c0-6.18-5.05-11.23-11.23-11.23h-3.37h-3.37H88.13H82.5h-1.78h-1.82
	h-0.54h-2.59h-3.04h-1.78h-4.95c-6.18,0-11.23,5.05-11.23,11.23v6.74c0,6.18,5.05,11.23,11.23,11.23h4.95h1.78h3.04h2.59h0.54h1.82
	h1.78h5.62h1.18v32.57h0v3.37c0,6.18,5.05,11.23,11.23,11.23h6.74c6.18,0,11.23-5.05,11.23-11.23v-6.74c0,0,0,0,0,0L118.5,83.69
	C118.5,83.69,118.5,83.69,118.5,83.69z"/>
<g>
	<path class="st0" d="M270.23,282.36v-51.89h20.8c5.24,0,9.73,0.93,13.46,2.8c3.73,1.87,6.61,4.7,8.62,8.51
		c2.02,3.81,3.03,8.69,3.03,14.64c0,5.9-1.01,10.77-3.03,14.6c-2.02,3.83-4.89,6.68-8.62,8.55c-3.73,1.87-8.22,2.8-13.46,2.8H270.23
		z M280.07,273.96h10.97c2.42,0,4.56-0.35,6.43-1.06c1.87-0.7,3.43-1.75,4.69-3.14c1.26-1.39,2.22-3.13,2.87-5.22
		c0.65-2.09,0.98-4.53,0.98-7.3v-1.59c0-2.82-0.33-5.28-0.98-7.37c-0.66-2.09-1.61-3.83-2.87-5.22c-1.26-1.39-2.83-2.43-4.69-3.14
		c-1.87-0.71-4.01-1.06-6.43-1.06h-10.97V273.96z"/>
	<path class="st0" d="M323.82,282.36v-39.79h7.71l0.76,6.28h0.53c0.5-1.26,1.12-2.43,1.85-3.52c0.73-1.08,1.68-1.97,2.84-2.65
		c1.16-0.68,2.57-1.02,4.24-1.02c0.81,0,1.55,0.08,2.23,0.23c0.68,0.15,1.2,0.3,1.55,0.45v8.7h-2.8c-1.56,0-2.95,0.21-4.16,0.64
		c-1.21,0.43-2.23,1.1-3.06,2c-0.83,0.91-1.45,2.04-1.85,3.4c-0.41,1.36-0.61,2.95-0.61,4.77v20.5H323.82z"/>
	<path class="st0" d="M361.24,283.27c-1.11,0-2.38-0.14-3.82-0.42c-1.44-0.28-2.83-0.79-4.16-1.55c-1.34-0.76-2.43-1.88-3.29-3.36
		s-1.29-3.44-1.29-5.86c0-2.72,0.61-4.98,1.82-6.77c1.21-1.79,2.91-3.2,5.11-4.24c2.19-1.03,4.82-1.77,7.87-2.19
		c3.05-0.43,6.39-0.64,10.02-0.64v-3.25c0-1.16-0.18-2.19-0.53-3.1c-0.35-0.91-1-1.63-1.93-2.16c-0.93-0.53-2.33-0.79-4.2-0.79
		s-3.33,0.23-4.39,0.68c-1.06,0.45-1.79,1.01-2.19,1.66c-0.4,0.66-0.61,1.34-0.61,2.04v1.06h-8.93c-0.05-0.25-0.08-0.5-0.08-0.76
		c0-0.25,0-0.55,0-0.91c0-2.27,0.68-4.24,2.04-5.9c1.36-1.66,3.25-2.94,5.67-3.82c2.42-0.88,5.22-1.32,8.4-1.32
		c3.63,0,6.62,0.51,8.96,1.51c2.35,1.01,4.1,2.45,5.26,4.31c1.16,1.87,1.74,4.14,1.74,6.81v18.76c0,0.96,0.28,1.64,0.83,2.04
		c0.55,0.41,1.16,0.61,1.82,0.61h2.42v6.35c-0.51,0.2-1.24,0.44-2.19,0.72c-0.96,0.28-2.14,0.42-3.56,0.42
		c-1.31,0-2.48-0.21-3.52-0.64c-1.03-0.43-1.9-1.05-2.61-1.85c-0.71-0.81-1.21-1.77-1.51-2.88h-0.45c-0.86,1.06-1.88,2-3.06,2.84
		c-1.19,0.83-2.57,1.48-4.16,1.93C365.13,283.04,363.3,283.27,361.24,283.27z M364.04,275.7c1.51,0,2.86-0.23,4.05-0.68
		c1.18-0.45,2.17-1.08,2.95-1.89c0.78-0.81,1.39-1.79,1.82-2.95c0.43-1.16,0.64-2.42,0.64-3.78v-1.82c-2.77,0-5.33,0.18-7.68,0.53
		c-2.35,0.35-4.21,1.01-5.6,1.97c-1.39,0.96-2.08,2.32-2.08,4.08c0,0.91,0.21,1.7,0.64,2.38c0.43,0.68,1.08,1.21,1.97,1.59
		C361.63,275.51,362.72,275.7,364.04,275.7z"/>
	<path class="st0" d="M393.84,282.36v-39.79h7.71l0.76,5.29h0.53c0.86-1.21,1.84-2.28,2.95-3.21c1.11-0.93,2.38-1.66,3.82-2.19
		c1.44-0.53,3.01-0.79,4.73-0.79c2.32,0,4.39,0.48,6.2,1.44c1.82,0.96,3.23,2.55,4.24,4.77h0.53c0.86-1.21,1.86-2.28,3.03-3.21
		c1.16-0.93,2.5-1.66,4.01-2.19c1.51-0.53,3.15-0.79,4.92-0.79c2.37,0,4.46,0.43,6.28,1.29c1.82,0.86,3.25,2.27,4.31,4.24
		c1.06,1.97,1.59,4.59,1.59,7.87v27.31h-9.23v-25.42c0-1.36-0.15-2.51-0.45-3.44c-0.3-0.93-0.72-1.66-1.25-2.19
		c-0.53-0.53-1.19-0.92-1.97-1.17c-0.78-0.25-1.63-0.38-2.53-0.38c-1.46,0-2.77,0.4-3.93,1.21c-1.16,0.81-2.08,1.92-2.76,3.33
		c-0.68,1.41-1.02,3.05-1.02,4.92v23.15h-9.23v-25.42c0-1.36-0.15-2.51-0.45-3.44c-0.3-0.93-0.72-1.66-1.25-2.19
		c-0.53-0.53-1.19-0.92-1.97-1.17c-0.78-0.25-1.63-0.38-2.53-0.38c-1.46,0-2.79,0.4-3.97,1.21c-1.19,0.81-2.12,1.92-2.8,3.33
		c-0.68,1.41-1.02,3.05-1.02,4.92v23.15H393.84z"/>
	<path class="st0" d="M458.44,282.36v-39.79h7.71l0.76,5.29h0.53c0.86-1.21,1.84-2.28,2.95-3.21c1.11-0.93,2.38-1.66,3.82-2.19
		c1.44-0.53,3.01-0.79,4.73-0.79c2.32,0,4.39,0.48,6.2,1.44c1.82,0.96,3.23,2.55,4.24,4.77h0.53c0.86-1.21,1.86-2.28,3.03-3.21
		c1.16-0.93,2.5-1.66,4.01-2.19c1.51-0.53,3.15-0.79,4.92-0.79c2.37,0,4.46,0.43,6.28,1.29c1.82,0.86,3.25,2.27,4.31,4.24
		c1.06,1.97,1.59,4.59,1.59,7.87v27.31h-9.23v-25.42c0-1.36-0.15-2.51-0.45-3.44c-0.3-0.93-0.72-1.66-1.25-2.19
		c-0.53-0.53-1.19-0.92-1.97-1.17c-0.78-0.25-1.63-0.38-2.53-0.38c-1.46,0-2.77,0.4-3.93,1.21c-1.16,0.81-2.08,1.92-2.76,3.33
		c-0.68,1.41-1.02,3.05-1.02,4.92v23.15h-9.23v-25.42c0-1.36-0.15-2.51-0.45-3.44c-0.3-0.93-0.72-1.66-1.25-2.19
		c-0.53-0.53-1.19-0.92-1.97-1.17c-0.78-0.25-1.63-0.38-2.53-0.38c-1.46,0-2.79,0.4-3.97,1.21c-1.19,0.81-2.12,1.92-2.8,3.33
		c-0.68,1.41-1.02,3.05-1.02,4.92v23.15H458.44z"/>
	<path class="st0" d="M540.04,283.27c-4.24,0-7.77-0.74-10.59-2.23c-2.83-1.49-4.94-3.77-6.35-6.85c-1.41-3.07-2.12-6.98-2.12-11.72
		c0-4.79,0.71-8.71,2.12-11.76c1.41-3.05,3.53-5.32,6.35-6.81c2.82-1.49,6.35-2.23,10.59-2.23c3.83,0,7.05,0.72,9.64,2.16
		c2.6,1.44,4.55,3.64,5.86,6.62c1.31,2.98,1.97,6.83,1.97,11.57v2.72h-27.08c0.1,2.47,0.48,4.55,1.13,6.24
		c0.66,1.69,1.68,2.95,3.06,3.78c1.39,0.83,3.21,1.25,5.48,1.25c1.16,0,2.24-0.15,3.25-0.45c1.01-0.3,1.89-0.77,2.65-1.4
		c0.76-0.63,1.35-1.42,1.78-2.38c0.43-0.96,0.64-2.07,0.64-3.33h9.08c0,2.52-0.44,4.72-1.32,6.58c-0.88,1.87-2.12,3.4-3.71,4.61
		c-1.59,1.21-3.44,2.12-5.56,2.72C544.81,282.96,542.51,283.27,540.04,283.27z M530.59,258.23h17.32c0-1.67-0.19-3.08-0.57-4.24
		c-0.38-1.16-0.91-2.12-1.59-2.87c-0.68-0.76-1.5-1.3-2.46-1.63c-0.96-0.33-2.04-0.49-3.25-0.49c-1.97,0-3.62,0.33-4.95,0.98
		c-1.34,0.66-2.36,1.67-3.06,3.03C531.32,254.37,530.84,256.11,530.59,258.23z"/>
	<path class="st0" d="M564.95,282.36v-39.79h7.71l0.76,5.29h0.53c0.91-1.21,1.98-2.28,3.22-3.21c1.23-0.93,2.65-1.66,4.24-2.19
		c1.59-0.53,3.34-0.79,5.26-0.79c2.52,0,4.75,0.45,6.69,1.36c1.94,0.91,3.47,2.37,4.58,4.39c1.11,2.02,1.66,4.72,1.66,8.09v26.85
		h-9.3v-25.19c0-1.41-0.16-2.58-0.49-3.52s-0.81-1.69-1.44-2.27s-1.4-1-2.31-1.25c-0.91-0.25-1.92-0.38-3.03-0.38
		c-1.66,0-3.17,0.4-4.5,1.21c-1.34,0.81-2.4,1.92-3.18,3.33c-0.78,1.41-1.17,3.05-1.17,4.92v23.15H564.95z"/>
	<path class="st0" d="M644.17,283.27c-2.87,0-5.62-0.32-8.24-0.95c-2.62-0.63-4.94-1.61-6.96-2.95c-2.02-1.33-3.61-3-4.77-4.99
		c-1.16-1.99-1.74-4.35-1.74-7.07c0-0.3,0.01-0.61,0.04-0.91c0.02-0.3,0.04-0.53,0.04-0.68h9.91c0,0.1-0.01,0.29-0.04,0.57
		c-0.03,0.28-0.04,0.52-0.04,0.72c0,1.66,0.48,3.09,1.44,4.27c0.96,1.19,2.34,2.09,4.16,2.72c1.82,0.63,3.96,0.95,6.43,0.95
		c1.66,0,3.14-0.1,4.42-0.3c1.29-0.2,2.39-0.49,3.33-0.87c0.93-0.38,1.7-0.83,2.31-1.36c0.6-0.53,1.05-1.12,1.32-1.78
		c0.28-0.66,0.42-1.36,0.42-2.12c0-1.46-0.45-2.67-1.36-3.63c-0.91-0.96-2.13-1.77-3.67-2.42c-1.54-0.65-3.28-1.25-5.22-1.78
		c-1.94-0.53-3.93-1.07-5.98-1.63c-2.04-0.55-4.03-1.22-5.98-2c-1.94-0.78-3.68-1.73-5.22-2.84c-1.54-1.11-2.76-2.51-3.67-4.2
		c-0.91-1.69-1.36-3.72-1.36-6.09c0-2.42,0.52-4.54,1.55-6.35c1.03-1.81,2.5-3.31,4.39-4.5c1.89-1.18,4.1-2.07,6.62-2.65
		c2.52-0.58,5.27-0.87,8.24-0.87c2.77,0,5.38,0.29,7.83,0.87c2.45,0.58,4.6,1.49,6.47,2.72c1.86,1.24,3.33,2.8,4.39,4.69
		c1.06,1.89,1.59,4.15,1.59,6.77v0.91h-9.76v-0.76c0-1.46-0.44-2.7-1.32-3.71c-0.88-1.01-2.12-1.79-3.71-2.35
		c-1.59-0.55-3.44-0.83-5.56-0.83c-2.27,0-4.21,0.21-5.82,0.64c-1.62,0.43-2.85,1.06-3.71,1.89c-0.86,0.83-1.29,1.85-1.29,3.06
		c0,1.26,0.45,2.32,1.36,3.18c0.91,0.86,2.13,1.59,3.67,2.19c1.54,0.61,3.28,1.16,5.22,1.66c1.94,0.51,3.93,1.05,5.98,1.63
		c2.04,0.58,4.03,1.25,5.98,2c1.94,0.76,3.68,1.7,5.22,2.84c1.54,1.13,2.76,2.53,3.67,4.2c0.91,1.66,1.36,3.66,1.36,5.98
		c0,3.88-0.95,7.01-2.84,9.38c-1.89,2.37-4.49,4.09-7.79,5.14C652.18,282.74,648.41,283.27,644.17,283.27z"/>
	<path class="st0" d="M683.85,283.27c-1.11,0-2.38-0.14-3.82-0.42s-2.83-0.79-4.16-1.55c-1.34-0.76-2.43-1.88-3.29-3.36
		s-1.29-3.44-1.29-5.86c0-2.72,0.61-4.98,1.82-6.77c1.21-1.79,2.91-3.2,5.11-4.24s4.82-1.77,7.87-2.19
		c3.05-0.43,6.39-0.64,10.02-0.64v-3.25c0-1.16-0.18-2.19-0.53-3.1c-0.35-0.91-1-1.63-1.93-2.16c-0.93-0.53-2.33-0.79-4.2-0.79
		s-3.33,0.23-4.39,0.68s-1.79,1.01-2.19,1.66c-0.4,0.66-0.61,1.34-0.61,2.04v1.06h-8.92c-0.05-0.25-0.08-0.5-0.08-0.76
		c0-0.25,0-0.55,0-0.91c0-2.27,0.68-4.24,2.04-5.9c1.36-1.66,3.25-2.94,5.67-3.82c2.42-0.88,5.22-1.32,8.4-1.32
		c3.63,0,6.62,0.51,8.96,1.51c2.35,1.01,4.1,2.45,5.26,4.31c1.16,1.87,1.74,4.14,1.74,6.81v18.76c0,0.96,0.28,1.64,0.83,2.04
		c0.55,0.41,1.16,0.61,1.82,0.61h2.42v6.35c-0.51,0.2-1.24,0.44-2.19,0.72c-0.96,0.28-2.14,0.42-3.56,0.42
		c-1.31,0-2.48-0.21-3.52-0.64c-1.03-0.43-1.9-1.05-2.61-1.85c-0.71-0.81-1.21-1.77-1.51-2.88h-0.45c-0.86,1.06-1.88,2-3.06,2.84
		c-1.19,0.83-2.57,1.48-4.16,1.93C687.75,283.04,685.92,283.27,683.85,283.27z M686.65,275.7c1.51,0,2.86-0.23,4.05-0.68
		c1.18-0.45,2.17-1.08,2.95-1.89c0.78-0.81,1.39-1.79,1.82-2.95c0.43-1.16,0.64-2.42,0.64-3.78v-1.82c-2.77,0-5.33,0.18-7.68,0.53
		c-2.35,0.35-4.21,1.01-5.6,1.97c-1.39,0.96-2.08,2.32-2.08,4.08c0,0.91,0.21,1.7,0.64,2.38c0.43,0.68,1.08,1.21,1.97,1.59
		S685.34,275.7,686.65,275.7z"/>
	<path class="st0" d="M716.24,282.36v-39.79h7.71l0.76,5.29h0.53c0.91-1.21,1.98-2.28,3.22-3.21c1.23-0.93,2.65-1.66,4.24-2.19
		c1.59-0.53,3.34-0.79,5.26-0.79c2.52,0,4.75,0.45,6.69,1.36c1.94,0.91,3.47,2.37,4.58,4.39c1.11,2.02,1.66,4.72,1.66,8.09v26.85
		h-9.3v-25.19c0-1.41-0.16-2.58-0.49-3.52s-0.81-1.69-1.44-2.27s-1.4-1-2.31-1.25c-0.91-0.25-1.92-0.38-3.03-0.38
		c-1.66,0-3.17,0.4-4.5,1.21c-1.34,0.81-2.4,1.92-3.18,3.33c-0.78,1.41-1.17,3.05-1.17,4.92v23.15H716.24z"/>
	<path class="st0" d="M772.82,283.27c-3.23,0-6.03-0.73-8.4-2.19c-2.37-1.46-4.2-3.73-5.49-6.81c-1.29-3.07-1.93-7.03-1.93-11.88
		c0-4.79,0.66-8.71,1.97-11.76c1.31-3.05,3.13-5.31,5.45-6.77c2.32-1.46,4.94-2.19,7.87-2.19c1.82,0,3.48,0.2,4.99,0.61
		c1.51,0.4,2.85,1.02,4.01,1.85c1.16,0.83,2.14,1.85,2.95,3.06h0.45v-19.52h9.23v54.69h-7.64l-0.76-5.29H785
		c-1.26,2.07-2.96,3.62-5.11,4.65C777.75,282.75,775.39,283.27,772.82,283.27z M775.69,275.32c2.12,0,3.83-0.48,5.14-1.44
		c1.31-0.96,2.28-2.35,2.91-4.16c0.63-1.82,0.95-4.03,0.95-6.66v-0.98c0-1.97-0.18-3.73-0.53-5.29c-0.35-1.56-0.9-2.88-1.63-3.93
		c-0.73-1.06-1.66-1.87-2.8-2.42c-1.13-0.55-2.48-0.83-4.05-0.83c-2.27,0-4.07,0.44-5.41,1.32c-1.34,0.88-2.3,2.24-2.88,4.08
		c-0.58,1.84-0.87,4.17-0.87,7v1.06c0,2.77,0.29,5.07,0.87,6.88c0.58,1.82,1.54,3.17,2.88,4.05
		C771.62,274.88,773.42,275.32,775.69,275.32z"/>
	<path class="st0" d="M819.14,283.27c-4.24,0-7.77-0.74-10.59-2.23c-2.83-1.49-4.94-3.77-6.35-6.85c-1.41-3.07-2.12-6.98-2.12-11.72
		c0-4.79,0.71-8.71,2.12-11.76c1.41-3.05,3.53-5.32,6.35-6.81c2.82-1.49,6.35-2.23,10.59-2.23c3.83,0,7.05,0.72,9.64,2.16
		c2.6,1.44,4.55,3.64,5.86,6.62c1.31,2.98,1.97,6.83,1.97,11.57v2.72h-27.08c0.1,2.47,0.48,4.55,1.13,6.24
		c0.66,1.69,1.68,2.95,3.06,3.78c1.39,0.83,3.21,1.25,5.48,1.25c1.16,0,2.24-0.15,3.25-0.45c1.01-0.3,1.89-0.77,2.65-1.4
		c0.76-0.63,1.35-1.42,1.78-2.38c0.43-0.96,0.64-2.07,0.64-3.33h9.08c0,2.52-0.44,4.72-1.32,6.58c-0.88,1.87-2.12,3.4-3.71,4.61
		c-1.59,1.21-3.44,2.12-5.56,2.72C823.9,282.96,821.61,283.27,819.14,283.27z M809.69,258.23h17.32c0-1.67-0.19-3.08-0.57-4.24
		c-0.38-1.16-0.91-2.12-1.59-2.87c-0.68-0.76-1.5-1.3-2.46-1.63c-0.96-0.33-2.04-0.49-3.25-0.49c-1.97,0-3.62,0.33-4.95,0.98
		c-1.34,0.66-2.36,1.67-3.06,3.03C810.42,254.37,809.94,256.11,809.69,258.23z"/>
</g>
</svg>
