<svg width="485" height="200" viewBox="0 0 485 200" fill="none" xmlns="http://www.w3.org/2000/svg">
<g clip-path="url(#clip0_6_2798)">
<path d="M333.231 122.635C322.907 122.635 314.087 120.806 306.759 117.157C299.432 113.508 293.835 107.803 289.949 100.06C286.063 92.3176 284.125 82.3205 284.125 70.0787C284.125 52.2204 288.446 38.9898 297.099 30.4067C305.751 21.8236 317.785 17.5222 333.221 17.5222C341.576 17.5222 349.121 18.956 355.855 21.8137C362.589 24.6814 367.948 28.9927 371.924 34.7675C375.909 40.5423 377.896 47.8695 377.896 56.7492H358.288C358.288 51.815 357.23 47.6421 355.113 44.2405C352.997 40.8389 350.07 38.2482 346.342 36.4683C342.605 34.6884 338.333 33.8083 333.517 33.8083C326.833 33.8083 321.276 35.1136 316.855 37.734C312.435 40.3544 309.162 44.2207 307.046 49.3528C304.93 54.4848 303.872 60.8529 303.872 68.4472V71.7004C303.872 79.4034 304.93 85.8111 307.046 90.9431C309.162 96.0752 312.406 99.9218 316.776 102.493C321.147 105.064 326.734 106.339 333.507 106.339C338.62 106.339 343.089 105.479 346.926 103.749C350.763 102.018 353.729 99.457 355.845 96.0455C357.961 92.6439 359.019 88.4711 359.019 83.5368H377.896C377.896 92.4165 375.928 99.7438 372.003 105.519C368.067 111.293 362.737 115.585 356.003 118.403C349.269 121.211 341.675 122.625 333.221 122.625L333.231 122.635Z" fill="#004E48"/>
<path d="M439.797 122.635C429.473 122.635 420.653 120.806 413.326 117.157C405.999 113.508 400.402 107.803 396.516 100.06C392.63 92.3176 390.691 82.3205 390.691 70.0787C390.691 52.2204 395.013 38.9898 403.665 30.4067C412.317 21.8236 424.351 17.5222 439.787 17.5222C448.143 17.5222 455.687 18.956 462.421 21.8137C469.155 24.6814 474.515 28.9927 478.49 34.7675C482.475 40.5423 484.463 47.8695 484.463 56.7492H464.854C464.854 51.815 463.796 47.6421 461.68 44.2405C459.564 40.8389 456.637 38.2482 452.909 36.4683C449.171 34.6884 444.899 33.8083 440.084 33.8083C433.399 33.8083 427.842 35.1136 423.422 37.734C419.002 40.3544 415.729 44.2207 413.613 49.3528C411.497 54.4848 410.438 60.8529 410.438 68.4472V71.7004C410.438 79.4034 411.497 85.8111 413.613 90.9431C415.729 96.0752 418.972 99.9218 423.343 102.493C427.713 105.064 433.3 106.339 440.074 106.339C445.186 106.339 449.656 105.479 453.492 103.749C457.329 102.018 460.295 99.457 462.412 96.0455C464.528 92.6439 465.586 88.4711 465.586 83.5368H484.463C484.463 92.4165 482.495 99.7438 478.569 105.519C474.634 111.293 469.304 115.585 462.57 118.403C455.836 121.211 448.242 122.625 439.787 122.625L439.797 122.635Z" fill="#004E48"/>
<path d="M268.204 81.1042C266.523 77.7027 264.209 74.8845 261.253 72.6695C258.296 70.4446 254.944 68.9416 251.206 68.1505V67.5572C254.361 66.4695 257.189 64.8676 259.7 62.7416C262.212 60.6156 264.209 57.9853 265.683 54.821C267.156 51.6667 267.898 48.1563 267.898 44.3097C267.898 39.2766 266.662 34.8861 264.199 31.1385C261.737 27.3908 258.365 24.4737 254.074 22.407C249.792 20.3305 244.937 19.3021 239.518 19.3021H182.265V120.855H239.518C245.332 120.855 250.573 119.847 255.26 117.82C259.938 115.802 263.685 112.707 266.494 108.564C269.302 104.421 270.706 99.19 270.706 92.8714C270.706 88.4315 269.865 84.5058 268.194 81.1042H268.204ZM201.488 35.7266H235.533C239.281 35.7266 242.307 36.7649 244.621 38.8316C246.934 40.9081 248.091 44.112 248.091 48.4529C248.091 50.7273 247.577 52.7939 246.539 54.6727C245.501 56.5515 243.978 58.0249 241.961 59.1126C239.943 60.2003 237.451 60.7442 234.495 60.7442H201.478V35.7266H201.488ZM246.994 101.089C244.383 103.313 241.061 104.421 237.016 104.421H201.488V76.8819H235.83C239.281 76.8819 242.109 77.4555 244.324 78.5827C246.539 79.7199 248.19 81.3218 249.278 83.3983C250.366 85.4749 250.9 87.8877 250.9 90.6564C250.9 95.3929 249.594 98.8736 246.984 101.089H246.994Z" fill="#004E48"/>
<path d="M140.229 70.0787C140.229 108.782 108.854 140.157 70.1508 140.157C31.4479 140.157 0.0820312 108.772 0.0820312 70.0787C0.0820312 31.3857 31.4577 6.10352e-05 70.1607 6.10352e-05C108.864 6.10352e-05 140.239 31.3758 140.239 70.0787H140.229ZM72.4251 21.0227H67.8765C63.7135 21.0227 60.302 24.4342 60.302 28.5971V33.1458C60.302 37.3088 63.7135 40.7203 67.8765 40.7203H72.4251C76.5881 40.7203 79.9996 37.3088 79.9996 33.1458V28.5971C79.9996 24.4342 76.5881 21.0227 72.4251 21.0227ZM95.7221 44.3888H91.1734C87.0105 44.3888 83.599 47.8003 83.599 51.9633V56.5119C83.599 60.6749 87.0105 64.0864 91.1734 64.0864H95.7221C99.8851 64.0864 103.297 60.6749 103.297 56.5119V51.9633C103.297 47.8003 99.8851 44.3888 95.7221 44.3888ZM72.4251 99.4372H67.8765C63.7135 99.4372 60.302 102.849 60.302 107.012V111.56C60.302 115.723 63.7135 119.135 67.8765 119.135H72.4251C76.5881 119.135 79.9996 115.723 79.9996 111.56V107.012C79.9996 102.849 76.5881 99.4372 72.4251 99.4372ZM79.9996 56.4427V51.8941C79.9996 47.7311 76.5881 44.3196 72.4251 44.3196H44.5796C40.4166 44.3196 37.0051 47.7311 37.0051 51.8941V56.4427C37.0051 60.6057 40.4166 64.0172 44.5796 64.0172H60.302V85.9792V88.2535C60.302 92.4165 63.7135 95.828 67.8765 95.828H72.4251C76.5881 95.828 79.9996 92.4165 79.9996 88.2535V83.7049V56.4427Z" fill="#004E48"/>
<path d="M195.99 191.043C194.052 191.043 192.203 190.835 190.433 190.41C188.663 189.985 187.101 189.322 185.736 188.422C184.372 187.523 183.304 186.395 182.522 185.06C181.741 183.725 181.346 182.124 181.346 180.294C181.346 180.087 181.346 179.889 181.375 179.681C181.395 179.474 181.405 179.325 181.405 179.226H188.09C188.09 179.296 188.09 179.424 188.06 179.612C188.04 179.8 188.03 179.958 188.03 180.096C188.03 181.214 188.357 182.183 188.999 182.984C189.642 183.785 190.581 184.398 191.808 184.823C193.034 185.248 194.477 185.466 196.149 185.466C197.266 185.466 198.265 185.397 199.135 185.258C200.005 185.12 200.747 184.932 201.379 184.675C202.012 184.418 202.527 184.111 202.932 183.755C203.337 183.399 203.634 183.004 203.822 182.559C204.01 182.114 204.099 181.639 204.099 181.125C204.099 180.136 203.792 179.325 203.179 178.673C202.566 178.02 201.745 177.486 200.707 177.041C199.669 176.596 198.492 176.2 197.187 175.844C195.872 175.489 194.537 175.123 193.152 174.747C191.778 174.371 190.433 173.926 189.118 173.392C187.803 172.868 186.636 172.225 185.598 171.484C184.559 170.742 183.739 169.793 183.126 168.656C182.513 167.518 182.206 166.144 182.206 164.552C182.206 162.96 182.552 161.487 183.254 160.27C183.956 159.044 184.935 158.036 186.211 157.235C187.486 156.434 188.97 155.84 190.67 155.445C192.371 155.059 194.22 154.861 196.228 154.861C198.097 154.861 199.857 155.059 201.508 155.445C203.159 155.84 204.613 156.444 205.869 157.284C207.125 158.115 208.113 159.173 208.825 160.448C209.537 161.724 209.893 163.247 209.893 165.017V165.63H203.308V165.116C203.308 164.127 203.011 163.296 202.418 162.614C201.824 161.932 200.994 161.408 199.916 161.032C198.848 160.656 197.592 160.468 196.168 160.468C194.636 160.468 193.33 160.616 192.243 160.903C191.155 161.19 190.324 161.615 189.741 162.179C189.167 162.742 188.871 163.425 188.871 164.245C188.871 165.066 189.177 165.808 189.79 166.391C190.403 166.975 191.224 167.459 192.262 167.874C193.301 168.28 194.477 168.656 195.783 168.992C197.088 169.328 198.433 169.694 199.817 170.089C201.192 170.485 202.536 170.93 203.852 171.444C205.167 171.958 206.334 172.591 207.372 173.353C208.41 174.114 209.231 175.063 209.844 176.181C210.457 177.298 210.764 178.643 210.764 180.215C210.764 182.836 210.131 184.942 208.855 186.544C207.579 188.146 205.829 189.303 203.604 190.014C201.379 190.726 198.838 191.082 195.98 191.082L195.99 191.043Z" fill="#004E48"/>
<path d="M223.48 191.043C221.809 191.043 220.504 190.717 219.555 190.044C218.605 189.372 217.933 188.531 217.537 187.493C217.142 186.455 216.954 185.397 216.954 184.309V168.695H213.74V163.593H217.102L218.23 156.097H223.174V163.593H227.821V168.695H223.174V183.696C223.174 184.408 223.362 184.962 223.737 185.357C224.113 185.753 224.677 185.94 225.418 185.94H227.811V190.222C227.475 190.361 227.05 190.489 226.565 190.608C226.071 190.726 225.557 190.825 225.013 190.914C224.469 190.993 223.955 191.043 223.48 191.043Z" fill="#004E48"/>
<path d="M244.354 191.043C241.427 191.043 238.975 190.539 237.007 189.54C235.029 188.541 233.556 186.999 232.567 184.922C231.578 182.845 231.084 180.215 231.084 177.011C231.084 173.807 231.578 171.138 232.567 169.081C233.556 167.024 235.029 165.491 237.007 164.493C238.985 163.494 241.427 162.99 244.354 162.99C247.281 162.99 249.773 163.494 251.731 164.493C253.689 165.491 255.152 167.024 256.141 169.081C257.13 171.138 257.624 173.788 257.624 177.011C257.624 180.235 257.13 182.845 256.141 184.922C255.152 186.999 253.679 188.541 251.731 189.54C249.773 190.539 247.321 191.043 244.354 191.043ZM244.354 185.94C245.986 185.94 247.301 185.624 248.309 185.001C249.308 184.368 250.04 183.419 250.505 182.143C250.96 180.868 251.197 179.276 251.197 177.377V176.665C251.197 174.757 250.969 173.175 250.505 171.899C250.05 170.623 249.308 169.674 248.309 169.041C247.311 168.408 245.986 168.102 244.354 168.102C242.723 168.102 241.407 168.418 240.399 169.041C239.39 169.674 238.668 170.623 238.204 171.899C237.749 173.175 237.511 174.767 237.511 176.665V177.377C237.511 179.286 237.739 180.868 238.204 182.143C238.658 183.419 239.39 184.368 240.399 185.001C241.398 185.634 242.723 185.94 244.354 185.94Z" fill="#004E48"/>
<path d="M261.926 190.43V163.593H267.127L267.641 167.825H267.997C268.333 166.975 268.759 166.184 269.243 165.452C269.738 164.72 270.37 164.127 271.152 163.662C271.933 163.207 272.882 162.97 274.009 162.97C274.553 162.97 275.058 163.019 275.512 163.128C275.967 163.227 276.323 163.336 276.561 163.435V169.298H274.672C273.614 169.298 272.684 169.447 271.864 169.733C271.043 170.02 270.361 170.475 269.797 171.088C269.233 171.701 268.818 172.463 268.551 173.382C268.274 174.302 268.146 175.37 268.146 176.596V190.42H261.926V190.43Z" fill="#004E48"/>
<path d="M289.227 191.043C287.052 191.043 285.163 190.548 283.561 189.56C281.959 188.571 280.733 187.048 279.863 184.971C278.993 182.895 278.558 180.225 278.558 176.962C278.558 173.699 279.003 171.088 279.883 169.031C280.763 166.975 281.989 165.452 283.551 164.463C285.114 163.474 286.884 162.98 288.861 162.98C290.087 162.98 291.205 163.118 292.223 163.385C293.242 163.662 294.142 164.077 294.923 164.631C295.704 165.185 296.367 165.877 296.91 166.698H297.217V153.536H303.437V190.42H298.285L297.771 186.85H297.415C296.564 188.244 295.417 189.293 293.974 189.985C292.53 190.677 290.938 191.033 289.207 191.033L289.227 191.043ZM291.165 185.683C292.589 185.683 293.746 185.357 294.636 184.714C295.516 184.072 296.179 183.132 296.604 181.906C297.029 180.68 297.247 179.187 297.247 177.417V176.754C297.247 175.429 297.128 174.243 296.891 173.185C296.653 172.126 296.287 171.246 295.793 170.534C295.299 169.822 294.676 169.279 293.904 168.903C293.143 168.527 292.233 168.339 291.175 168.339C289.642 168.339 288.426 168.636 287.526 169.229C286.627 169.822 285.974 170.742 285.588 171.988C285.193 173.234 285.005 174.806 285.005 176.705V177.417C285.005 179.286 285.203 180.838 285.588 182.054C285.974 183.271 286.627 184.19 287.526 184.784C288.426 185.377 289.642 185.673 291.175 185.673L291.165 185.683Z" fill="#004E48"/>
</g>
<defs>
<clipPath id="clip0_6_2798">
<rect width="484.39" height="191.043" fill="white" transform="translate(0.0820312 6.10352e-05)"/>
</clipPath>
</defs>
</svg>
