<svg width="485" height="200" viewBox="0 0 485 200" fill="none" xmlns="http://www.w3.org/2000/svg">
<g clip-path="url(#clip0_5_2143)">
<path d="M333.879 122.679C323.564 122.679 314.751 120.849 307.43 117.199C300.108 113.549 294.516 107.841 290.633 100.096C286.75 92.3504 284.813 82.3497 284.813 70.1036C284.813 52.2389 289.131 39.0036 297.777 30.4175C306.422 21.8313 318.446 17.5284 333.87 17.5284C342.218 17.5284 349.757 18.9627 356.486 21.8214C363.214 24.6901 368.569 29.0029 372.541 34.7798C376.523 40.5566 378.509 47.8865 378.509 56.7694H358.916C358.916 51.8333 357.859 47.659 355.745 44.2562C353.63 40.8534 350.706 38.2617 346.981 36.4812C343.246 34.7006 338.978 33.8203 334.166 33.8203C327.487 33.8203 321.934 35.126 317.518 37.7473C313.101 40.3687 309.831 44.2364 307.716 49.3703C305.602 54.5041 304.545 60.8745 304.545 68.4714V71.7258C304.545 79.4316 305.602 85.8415 307.716 90.9754C309.831 96.1093 313.071 99.9572 317.438 102.529C321.806 105.101 327.388 106.377 334.156 106.377C339.264 106.377 343.73 105.516 347.564 103.785C351.397 102.054 354.361 99.4923 356.476 96.0796C358.59 92.6768 359.647 88.5024 359.647 83.5664H378.509C378.509 92.4493 376.543 99.7792 372.62 105.556C368.688 111.333 363.362 115.626 356.634 118.445C349.905 121.254 342.317 122.669 333.87 122.669L333.879 122.679Z" fill="#004E48"/>
<path d="M440.361 122.679C430.046 122.679 421.232 120.849 413.911 117.199C406.59 113.549 400.997 107.841 397.114 100.096C393.231 92.3504 391.295 82.3497 391.295 70.1036C391.295 52.2389 395.613 39.0036 404.258 30.4175C412.903 21.8313 424.928 17.5284 440.351 17.5284C448.7 17.5284 456.239 18.9627 462.967 21.8214C469.696 24.6901 475.051 29.0029 479.023 34.7798C483.005 40.5566 484.991 47.8865 484.991 56.7694H465.398C465.398 51.8333 464.341 47.659 462.226 44.2562C460.112 40.8534 457.187 38.2617 453.462 36.4812C449.727 34.7006 445.459 33.8203 440.647 33.8203C433.968 33.8203 428.415 35.126 423.999 37.7473C419.582 40.3687 416.312 44.2364 414.198 49.3703C412.083 54.5041 411.026 60.8745 411.026 68.4714V71.7258C411.026 79.4316 412.083 85.8415 414.198 90.9754C416.312 96.1093 419.553 99.9572 423.92 102.529C428.287 105.101 433.869 106.377 440.638 106.377C445.746 106.377 450.212 105.516 454.045 103.785C457.879 102.054 460.843 99.4923 462.957 96.0796C465.072 92.6768 466.129 88.5024 466.129 83.5664H484.991C484.991 92.4493 483.024 99.7792 479.102 105.556C475.169 111.333 469.844 115.626 463.115 118.445C456.387 121.254 448.799 122.669 440.351 122.669L440.361 122.679Z" fill="#004E48"/>
<path d="M268.906 81.133C267.227 77.7302 264.915 74.911 261.961 72.6952C259.006 70.4696 255.657 68.966 251.922 68.1747V67.5812C255.074 66.493 257.9 64.8906 260.409 62.7638C262.919 60.6371 264.915 58.0058 266.387 54.8404C267.859 51.6849 268.6 48.1733 268.6 44.3254C268.6 39.2904 267.365 34.8985 264.905 31.1494C262.445 27.4004 259.075 24.4823 254.787 22.4149C250.509 20.3377 245.658 19.3089 240.243 19.3089H183.036V120.898H240.243C246.053 120.898 251.29 119.889 255.973 117.861C260.646 115.844 264.391 112.747 267.197 108.603C270.003 104.458 271.406 99.2252 271.406 92.9043C271.406 88.4629 270.566 84.5358 268.897 81.133H268.906ZM202.244 35.7393H236.262C240.006 35.7393 243.03 36.7779 245.342 38.8453C247.654 40.9226 248.81 44.1276 248.81 48.4701C248.81 50.7452 248.296 52.8126 247.259 54.6921C246.221 56.5715 244.7 58.0454 242.684 59.1335C240.668 60.2216 238.178 60.7657 235.224 60.7657H202.234V35.7393H202.244ZM247.713 101.124C245.105 103.35 241.785 104.458 237.744 104.458H202.244V76.9092H236.558C240.006 76.9092 242.832 77.4829 245.045 78.6106C247.259 79.7481 248.909 81.3506 249.995 83.4279C251.082 85.5052 251.616 87.9188 251.616 90.6885C251.616 95.4267 250.312 98.9087 247.703 101.124H247.713Z" fill="#004E48"/>
<path d="M141.035 70.1036C141.035 108.82 109.684 140.207 71.0123 140.207C32.3405 140.207 1 108.81 1 70.1036C1 31.3968 32.3504 0 71.0222 0C109.694 0 141.044 31.3869 141.044 70.1036H141.035ZM73.2848 21.0301H68.7398C64.5802 21.0301 61.1715 24.4428 61.1715 28.6072V33.1575C61.1715 37.322 64.5802 40.7347 68.7398 40.7347H73.2848C77.4445 40.7347 80.8532 37.322 80.8532 33.1575V28.6072C80.8532 24.4428 77.4445 21.0301 73.2848 21.0301ZM96.563 44.4045H92.018C87.8584 44.4045 84.4496 47.8172 84.4496 51.9817V56.532C84.4496 60.6964 87.8584 64.1091 92.018 64.1091H96.563C100.723 64.1091 104.131 60.6964 104.131 56.532V51.9817C104.131 47.8172 100.723 44.4045 96.563 44.4045ZM73.2848 99.4725H68.7398C64.5802 99.4725 61.1715 102.885 61.1715 107.05V111.6C61.1715 115.764 64.5802 119.177 68.7398 119.177H73.2848C77.4445 119.177 80.8532 115.764 80.8532 111.6V107.05C80.8532 102.885 77.4445 99.4725 73.2848 99.4725ZM80.8532 56.4627V51.9125C80.8532 47.748 77.4445 44.3353 73.2848 44.3353H45.4617C41.302 44.3353 37.8933 47.748 37.8933 51.9125V56.4627C37.8933 60.6272 41.302 64.0399 45.4617 64.0399H61.1715V86.0097V88.2848C61.1715 92.4493 64.5802 95.862 68.7398 95.862H73.2848C77.4445 95.862 80.8532 92.4493 80.8532 88.2848V83.7346V56.4627Z" fill="#004E48"/>
<path d="M200.633 191.111C196.997 191.111 193.855 190.458 191.207 189.142C188.559 187.836 186.523 185.838 185.11 183.148C183.698 180.457 182.996 177.074 182.996 172.989C182.996 168.903 183.698 165.481 185.11 162.81C186.523 160.139 188.549 158.151 191.207 156.835C193.855 155.53 196.997 154.867 200.633 154.867C204.269 154.867 207.45 155.52 210.088 156.835C212.726 158.151 214.742 160.139 216.155 162.81C217.568 165.481 218.269 168.874 218.269 172.989C218.269 177.104 217.568 180.457 216.155 183.148C214.742 185.838 212.726 187.836 210.088 189.142C207.45 190.448 204.298 191.111 200.633 191.111ZM183.144 193L212.864 152.987H218.062L188.391 193H183.144ZM200.633 185.502C202.401 185.502 203.952 185.245 205.296 184.74C206.64 184.226 207.766 183.474 208.685 182.465C209.604 181.466 210.296 180.22 210.78 178.736C211.254 177.252 211.491 175.551 211.491 173.612V172.484C211.491 170.516 211.254 168.775 210.78 167.281C210.305 165.787 209.604 164.531 208.685 163.532C207.766 162.533 206.64 161.771 205.296 161.257C203.952 160.743 202.401 160.495 200.633 160.495C198.864 160.495 197.313 160.753 195.969 161.257C194.625 161.771 193.499 162.523 192.58 163.532C191.661 164.531 190.979 165.787 190.515 167.281C190.061 168.775 189.823 170.516 189.823 172.484V173.612C189.823 175.551 190.051 177.262 190.515 178.736C190.97 180.22 191.661 181.456 192.58 182.465C193.499 183.474 194.625 184.226 195.969 184.74C197.313 185.255 198.864 185.502 200.633 185.502Z" fill="#004E48"/>
<path d="M234.325 191.111C232.388 191.111 230.689 190.903 229.226 190.478C227.764 190.052 226.539 189.469 225.561 188.717C224.573 187.965 223.832 187.095 223.347 186.086C222.853 185.086 222.606 183.988 222.606 182.792C222.606 182.623 222.606 182.465 222.636 182.337C222.656 182.198 222.666 182.099 222.666 182.03H228.782V182.435C228.811 183.355 229.108 184.097 229.651 184.651C230.195 185.215 230.906 185.611 231.795 185.848C232.684 186.086 233.613 186.204 234.601 186.204C235.481 186.204 236.33 186.115 237.121 185.927C237.921 185.739 238.583 185.433 239.107 185.007C239.63 184.582 239.897 184.028 239.897 183.346C239.897 182.465 239.561 181.783 238.879 181.308C238.198 180.833 237.308 180.437 236.202 180.131C235.095 179.824 233.919 179.498 232.655 179.161C231.538 178.855 230.412 178.518 229.295 178.142C228.169 177.767 227.161 177.292 226.262 176.718C225.363 176.144 224.632 175.392 224.069 174.473C223.506 173.553 223.229 172.415 223.229 171.05C223.229 169.685 223.515 168.567 224.098 167.578C224.671 166.589 225.472 165.768 226.489 165.105C227.507 164.442 228.713 163.938 230.106 163.601C231.499 163.265 233.01 163.087 234.641 163.087C236.271 163.087 237.694 163.255 238.998 163.601C240.302 163.938 241.448 164.422 242.417 165.055C243.385 165.689 244.136 166.45 244.659 167.35C245.183 168.251 245.45 169.25 245.45 170.338C245.45 170.575 245.45 170.813 245.42 171.05C245.4 171.287 245.391 171.426 245.391 171.456H239.324V171.099C239.324 170.456 239.126 169.902 238.741 169.438C238.346 168.983 237.793 168.617 237.061 168.34C236.33 168.072 235.421 167.934 234.334 167.934C233.514 167.934 232.803 168.003 232.19 168.142C231.578 168.28 231.074 168.468 230.689 168.706C230.293 168.943 229.997 169.22 229.799 169.527C229.602 169.833 229.493 170.17 229.493 170.545C229.493 171.188 229.75 171.703 230.254 172.079C230.768 172.455 231.449 172.781 232.319 173.048C233.188 173.315 234.127 173.612 235.145 173.919C236.37 174.255 237.625 174.611 238.919 174.967C240.213 175.323 241.409 175.778 242.515 176.322C243.622 176.866 244.511 177.628 245.193 178.617C245.875 179.606 246.211 180.912 246.211 182.544C246.211 184.176 245.914 185.443 245.321 186.55C244.729 187.658 243.899 188.539 242.822 189.202C241.755 189.864 240.49 190.349 239.047 190.656C237.605 190.962 236.034 191.111 234.334 191.111H234.325Z" fill="#004E48"/>
<path d="M259.519 191.111C257.849 191.111 256.545 190.784 255.597 190.112C254.648 189.439 253.976 188.598 253.581 187.559C253.186 186.521 252.998 185.462 252.998 184.374V168.755H249.787V163.651H253.146L254.273 156.153H259.213V163.651H263.857V168.755H259.213V183.761C259.213 184.473 259.401 185.027 259.776 185.423C260.152 185.819 260.715 186.006 261.456 186.006H263.847V190.29C263.511 190.428 263.086 190.557 262.602 190.675C262.108 190.794 261.594 190.893 261.051 190.982C260.507 191.061 259.994 191.111 259.519 191.111Z" fill="#004E48"/>
<path d="M271.692 190.497V168.755H267.819V163.651H271.692V160.228C271.692 159.041 271.89 157.904 272.275 156.835C272.671 155.767 273.352 154.887 274.34 154.204C275.328 153.522 276.702 153.185 278.47 153.185C278.984 153.185 279.498 153.225 280.022 153.284C280.545 153.353 281.049 153.442 281.523 153.561C281.998 153.68 282.403 153.808 282.749 153.947V158.28H280.199C279.449 158.28 278.885 158.477 278.49 158.863C278.095 159.249 277.907 159.823 277.907 160.574V163.641H282.749V168.745H277.907V190.487H271.692V190.497Z" fill="#004E48"/>
<path d="M297.747 191.111C294.822 191.111 292.382 190.606 290.406 189.607C288.43 188.608 286.957 187.065 285.969 184.988C284.981 182.91 284.487 180.279 284.487 177.074C284.487 173.869 284.981 171.198 285.969 169.141C286.957 167.083 288.43 165.55 290.406 164.551C292.382 163.552 294.822 163.047 297.747 163.047C300.671 163.047 303.161 163.552 305.118 164.551C307.074 165.55 308.536 167.083 309.524 169.141C310.512 171.198 311.006 173.849 311.006 177.074C311.006 180.299 310.512 182.91 309.524 184.988C308.536 187.065 307.064 188.608 305.118 189.607C303.161 190.606 300.711 191.111 297.747 191.111ZM297.747 186.006C299.377 186.006 300.691 185.69 301.699 185.067C302.697 184.434 303.428 183.484 303.892 182.208C304.347 180.932 304.584 179.339 304.584 177.44V176.728C304.584 174.819 304.357 173.236 303.892 171.96C303.438 170.684 302.697 169.734 301.699 169.101C300.701 168.468 299.377 168.162 297.747 168.162C296.116 168.162 294.802 168.478 293.795 169.101C292.787 169.734 292.066 170.684 291.601 171.96C291.147 173.236 290.91 174.829 290.91 176.728V177.44C290.91 179.349 291.137 180.932 291.601 182.208C292.056 183.484 292.787 184.434 293.795 185.067C294.793 185.7 296.116 186.006 297.747 186.006Z" fill="#004E48"/>
<path d="M315.304 190.497V153.601H321.518V190.497H315.304Z" fill="#004E48"/>
<path d="M337.485 191.111C335.311 191.111 333.424 190.616 331.824 189.627C330.223 188.638 328.998 187.114 328.128 185.037C327.259 182.96 326.824 180.289 326.824 177.025C326.824 173.76 327.269 171.149 328.148 169.091C329.028 167.034 330.253 165.511 331.814 164.521C333.375 163.532 335.144 163.038 337.12 163.038C338.345 163.038 339.461 163.176 340.479 163.443C341.497 163.72 342.396 164.136 343.176 164.689C343.957 165.243 344.619 165.936 345.162 166.757H345.469V153.591H351.683V190.487H346.536L346.022 186.916H345.666C344.816 188.311 343.67 189.36 342.228 190.052C340.785 190.745 339.194 191.101 337.465 191.101L337.485 191.111ZM339.422 185.749C340.844 185.749 342 185.423 342.89 184.78C343.769 184.137 344.431 183.197 344.856 181.971C345.281 180.744 345.498 179.25 345.498 177.48V176.817C345.498 175.491 345.38 174.304 345.142 173.246C344.905 172.188 344.54 171.307 344.046 170.595C343.552 169.883 342.929 169.339 342.159 168.963C341.398 168.587 340.489 168.399 339.432 168.399C337.9 168.399 336.685 168.696 335.786 169.289C334.887 169.883 334.235 170.803 333.849 172.049C333.454 173.295 333.266 174.868 333.266 176.767V177.48C333.266 179.349 333.464 180.902 333.849 182.119C334.235 183.336 334.887 184.256 335.786 184.849C336.685 185.443 337.9 185.739 339.432 185.739L339.422 185.749Z" fill="#004E48"/>
</g>
<defs>
<clipPath id="clip0_5_2143">
<rect width="484" height="193" fill="white" transform="translate(1)"/>
</clipPath>
</defs>
</svg>
