<svg width="1565" height="200" viewBox="0 0 1565 200" fill="none" xmlns="http://www.w3.org/2000/svg">
<g clip-path="url(#clip0_952_538)">
<path d="M469.274 174.86C454.469 174.86 441.899 172.346 431.564 167.039C421.229 161.732 413.128 153.631 407.542 142.737C401.955 131.564 399.162 117.318 399.162 100C399.162 74.581 405.307 55.5866 417.598 43.5754C429.888 31.2849 447.207 25.1397 468.994 25.1397C490.782 25.1397 491.62 27.095 501.117 31.2849C510.615 35.4749 518.436 41.6201 524.022 49.7207C529.609 57.8212 532.402 68.4358 532.402 81.0056H504.469C504.469 74.0223 503.073 68.1564 500 63.1285C496.927 58.3799 492.737 54.4693 487.43 51.9553C482.123 49.4413 475.978 48.0447 469.274 48.0447C462.57 48.0447 451.955 50 445.531 53.6313C439.106 57.2626 434.637 62.8492 431.564 70.1117C428.492 77.3743 427.095 86.5922 427.095 97.2067V101.955C427.095 112.849 428.492 122.067 431.564 129.33C434.637 136.592 439.106 142.179 445.531 145.81C451.676 149.441 459.777 151.397 469.274 151.397C478.771 151.397 482.961 150.279 488.268 147.765C493.855 145.251 498.045 141.62 501.117 136.872C504.19 132.123 505.587 125.978 505.587 118.994H532.402C532.402 131.564 529.609 142.179 524.022 150.279C518.436 158.38 510.894 164.525 501.117 168.715C491.62 172.626 480.726 174.86 468.715 174.86" fill="#004E48"/>
<path d="M621.229 174.86C606.425 174.86 593.855 172.346 583.52 167.039C573.184 161.732 565.084 153.631 559.497 142.737C553.911 131.564 551.117 117.318 551.117 100C551.117 74.581 557.263 55.5866 569.553 43.5754C581.844 31.2849 599.162 25.1397 620.95 25.1397C642.737 25.1397 643.575 27.095 653.073 31.2849C662.57 35.4749 670.391 41.6201 675.978 49.7207C681.564 57.8212 684.358 68.4358 684.358 81.0056H656.425C656.425 74.0223 655.028 68.1564 651.955 63.1285C648.883 58.3799 644.693 54.4693 639.386 51.9553C634.078 49.4413 627.933 48.0447 621.229 48.0447C614.525 48.0447 603.911 50 597.486 53.6313C591.061 57.2626 586.592 62.8492 583.52 70.1117C580.447 77.3743 579.05 86.5922 579.05 97.2067V101.955C579.05 112.849 580.447 122.067 583.52 129.33C586.592 136.592 591.061 142.179 597.486 145.81C603.631 149.441 611.732 151.397 621.229 151.397C630.726 151.397 634.916 150.279 640.223 147.765C645.81 145.251 650 141.62 653.073 136.872C656.145 132.123 657.542 125.978 657.542 118.994H684.358C684.358 131.564 681.564 142.179 675.978 150.279C670.391 158.38 662.849 164.525 653.073 168.715C643.575 172.626 632.682 174.86 620.67 174.86" fill="#004E48"/>
<path d="M376.536 115.642C374.022 110.894 370.95 106.704 366.76 103.631C362.57 100.559 357.821 98.324 352.514 97.2067V96.3687C356.983 94.6927 361.173 92.4581 364.525 89.3855C368.156 86.3129 370.95 82.6816 373.184 78.2123C375.419 73.743 376.257 68.7151 376.257 63.1285C376.257 57.5419 374.581 49.7207 370.95 44.4134C367.318 39.1061 362.57 34.9162 356.425 31.8436C350.279 28.7709 343.296 27.3743 335.754 27.3743H254.19V172.067H335.754C344.134 172.067 351.397 170.67 358.101 167.877C364.804 165.084 370.112 160.615 374.022 154.749C377.933 148.883 379.888 141.341 379.888 132.402C379.888 123.464 378.771 120.391 376.257 115.642M281.564 50.838H330.168C335.475 50.838 339.944 52.2346 343.017 55.3073C346.369 58.3799 348.045 62.8492 348.045 68.9944C348.045 75.1397 347.207 75.1397 345.81 77.933C344.413 80.7263 342.179 82.6816 339.385 84.3575C336.592 86.0335 332.961 86.5922 328.771 86.5922H281.844V50.838H281.564ZM346.369 144.134C342.737 147.207 337.989 148.883 332.123 148.883H281.564V109.497H330.447C335.475 109.497 339.385 110.335 342.458 112.011C345.531 113.687 348.045 115.922 349.441 118.994C351.117 122.067 351.676 125.419 351.676 129.33C351.676 136.034 349.721 141.061 346.089 144.134" fill="#004E48"/>
<path d="M199.721 100C199.721 155.028 155.028 200 99.7207 200C44.4134 200 0 155.028 0 100C0 44.9721 44.6927 0 100 0C155.307 0 200 44.6927 200 100M103.073 29.8883H96.648C90.7821 29.8883 85.7542 34.6369 85.7542 40.7821V47.2067C85.7542 53.0726 90.5028 58.1006 96.648 58.1006H103.073C108.939 58.1006 113.966 53.352 113.966 47.2067V40.7821C113.966 34.9162 109.218 29.8883 103.073 29.8883ZM136.313 63.4078H129.888C124.022 63.4078 118.994 68.1564 118.994 74.3017V80.7263C118.994 86.5922 123.743 91.6201 129.888 91.6201H136.313C142.179 91.6201 147.207 86.8715 147.207 80.7263V74.3017C147.207 68.4358 142.458 63.4078 136.313 63.4078ZM103.073 141.62H96.648C90.7821 141.62 85.7542 146.369 85.7542 152.514V158.939C85.7542 164.804 90.5028 169.832 96.648 169.832H103.073C108.939 169.832 113.966 165.084 113.966 158.939V152.514C113.966 146.648 109.218 141.62 103.073 141.62ZM113.966 80.4469V74.0223C113.966 68.1564 109.218 63.1285 103.073 63.1285H63.4078C57.5419 63.1285 52.514 67.8771 52.514 74.0223V80.4469C52.514 86.3128 57.2626 91.3408 63.4078 91.3408H85.7542V122.626V125.978C85.7542 131.844 90.5028 136.872 96.648 136.872H103.073C108.939 136.872 113.966 132.123 113.966 125.978V119.553V80.7263" fill="#004E48"/>
<path d="M824.86 175.14C810.056 175.14 797.486 172.626 786.872 167.318C776.257 162.011 768.436 153.911 762.849 143.017C757.263 131.844 754.469 117.598 754.469 100.279C754.469 74.8603 760.615 55.8659 772.905 43.8547C785.196 31.5642 802.514 25.419 824.581 25.419C846.648 25.419 847.207 27.3743 856.983 31.5642C866.48 35.7542 874.302 41.8994 879.888 50C885.475 58.1006 888.548 68.7151 888.548 81.2849H860.615C860.615 74.3017 859.218 68.4358 856.145 63.4078C853.073 58.6592 848.883 54.7486 843.575 52.2346C838.268 49.7207 832.123 48.324 825.14 48.324C818.156 48.324 807.542 50.2793 801.397 53.9106C794.972 57.5419 790.503 63.1285 787.43 70.3911C784.358 77.6536 782.961 86.8715 782.961 97.486V102.235C782.961 113.128 784.358 122.346 787.43 129.609C790.503 136.872 794.972 142.458 801.397 146.089C807.542 149.721 815.642 151.676 825.419 151.676C835.196 151.676 839.106 150.559 844.693 148.045C850.279 145.531 854.469 141.899 857.542 137.151C860.615 132.402 862.011 126.257 862.011 119.274H889.106C889.106 131.844 886.313 142.458 880.726 150.559C875.14 158.659 867.598 164.804 857.821 168.994C848.045 172.905 837.43 175.14 825.14 175.14H824.86Z" fill="#004E48"/>
<path d="M960.335 175.14C948.324 175.14 937.989 173.184 929.888 168.994C921.788 164.804 915.642 158.38 911.453 150C907.263 141.341 905.307 130.447 905.307 117.318C905.307 104.19 907.263 93.0168 911.453 84.6369C915.642 76.257 921.788 69.8324 929.888 65.6425C937.989 61.4525 948.045 59.4972 960.335 59.4972C972.626 59.4972 982.682 61.4525 990.782 65.6425C998.883 69.8324 1005.03 76.257 1008.94 84.6369C1013.13 93.0168 1015.08 104.19 1015.08 117.318C1015.08 130.447 1013.13 141.341 1008.94 150C1004.75 158.659 998.883 165.084 990.782 168.994C982.682 173.184 972.626 175.14 960.335 175.14ZM960.335 153.911C967.039 153.911 972.626 152.514 976.816 150C981.006 147.486 984.078 143.575 985.754 138.268C987.43 132.961 988.548 126.536 988.548 118.436V115.363C988.548 107.542 987.71 100.838 985.754 95.5307C983.799 90.2235 980.726 86.3129 976.816 83.7989C972.626 81.2849 967.318 79.8883 960.335 79.8883C953.352 79.8883 948.045 81.2849 943.855 83.7989C939.665 86.3129 936.592 90.2235 934.916 95.5307C932.961 100.838 932.123 107.263 932.123 115.363V118.436C932.123 126.257 932.961 132.961 934.916 138.268C936.872 143.575 939.944 147.486 943.855 150C948.045 152.514 953.352 153.911 960.335 153.911Z" fill="#004E48"/>
<path d="M1037.15 172.626V61.7318H1058.66L1060.89 76.5363H1062.29C1064.8 73.1844 1067.88 70.1117 1071.23 67.5978C1074.58 65.0838 1078.49 62.8492 1082.96 61.4525C1087.43 60.0559 1092.18 59.2179 1097.77 59.2179C1103.35 59.2179 1110.89 60.6145 1116.48 63.1285C1121.79 65.6425 1126.26 69.8324 1129.33 75.419C1132.4 81.0056 1134.08 88.5475 1134.08 98.0447V172.905H1108.1V102.514C1108.1 98.6034 1107.54 95.2514 1106.7 92.7374C1105.87 90.2235 1104.47 87.9888 1102.79 86.3129C1101.12 84.6369 1098.88 83.5196 1096.37 82.9609C1093.85 82.1229 1091.06 81.8436 1087.99 81.8436C1083.24 81.8436 1079.05 82.9609 1075.42 85.1955C1071.79 87.4302 1068.72 90.5028 1066.48 94.4134C1064.25 98.324 1063.13 102.793 1063.13 108.101V172.626H1037.15Z" fill="#004E48"/>
<path d="M1160.34 172.626V61.7318H1181.84L1184.08 76.5363H1185.47C1187.99 73.1844 1191.06 70.1117 1194.41 67.5978C1197.77 65.0838 1201.68 62.8492 1206.15 61.4525C1210.61 60.0559 1215.36 59.2179 1220.95 59.2179C1226.54 59.2179 1234.08 60.6145 1239.66 63.1285C1244.97 65.6425 1249.44 69.8324 1252.51 75.419C1255.59 81.0056 1257.26 88.5475 1257.26 98.0447V172.905H1231.28V102.514C1231.28 98.6034 1230.73 95.2514 1229.89 92.7374C1229.05 90.2235 1227.65 87.9888 1225.98 86.3129C1224.3 84.6369 1222.07 83.5196 1219.55 82.9609C1217.04 82.1229 1214.25 81.8436 1211.17 81.8436C1206.42 81.8436 1202.23 82.9609 1198.6 85.1955C1194.97 87.4302 1191.9 90.5028 1189.66 94.4134C1187.43 98.324 1186.31 102.793 1186.31 108.101V172.626H1160.34Z" fill="#004E48"/>
<path d="M1331.28 175.14C1319.55 175.14 1309.5 173.184 1301.68 168.994C1293.85 164.804 1287.99 158.38 1284.08 150C1280.17 141.341 1278.21 130.447 1278.21 117.318C1278.21 104.19 1280.17 93.0168 1284.08 84.6369C1287.99 76.257 1293.85 69.8324 1301.68 65.6425C1309.5 61.4525 1319.27 59.4972 1331.28 59.4972C1343.3 59.4972 1350.84 61.4525 1358.1 65.6425C1365.36 69.5531 1370.67 75.6983 1374.58 84.0782C1378.21 92.4581 1380.17 103.073 1380.17 116.48V124.022H1304.75C1305.03 131.006 1306.15 136.592 1307.82 141.341C1309.78 146.089 1312.57 149.441 1316.48 151.955C1320.39 154.19 1325.42 155.307 1331.84 155.307C1338.27 155.307 1337.99 154.749 1340.78 153.911C1343.58 153.073 1346.09 151.676 1348.04 150C1350.28 148.324 1351.68 146.089 1353.07 143.296C1354.19 140.503 1354.75 137.43 1354.75 134.078H1380.17C1380.17 141.061 1379.05 147.207 1376.54 152.514C1374.02 157.821 1370.67 162.011 1366.2 165.363C1361.73 168.715 1356.7 171.229 1350.56 172.905C1344.69 174.581 1338.27 175.419 1331.28 175.419V175.14ZM1304.75 105.307H1353.07C1353.07 100.559 1352.51 96.648 1351.4 93.5754C1350.28 90.2235 1348.88 87.7095 1346.93 85.4749C1344.97 83.2402 1342.74 81.8436 1339.94 81.0056C1337.15 80.1676 1334.36 79.6089 1331.01 79.6089C1325.42 79.6089 1320.95 80.4469 1317.32 82.4022C1313.69 84.3575 1310.61 87.1508 1308.66 90.7821C1306.7 94.6927 1305.31 99.4413 1304.75 105.307Z" fill="#004E48"/>
<path d="M1448.04 175.14C1436.59 175.14 1426.82 173.184 1419.27 168.994C1411.73 164.804 1405.87 158.38 1401.96 150C1398.04 141.341 1396.37 130.447 1396.37 117.318C1396.37 104.19 1398.32 93.0168 1402.23 84.6369C1406.15 76.257 1411.73 69.8324 1419.55 65.6425C1427.1 61.4525 1436.87 59.4972 1448.04 59.4972C1459.22 59.4972 1462.01 60.3352 1467.88 62.2905C1473.74 64.2458 1478.49 67.0391 1482.68 70.6704C1486.87 74.3017 1489.94 79.0503 1492.18 84.3575C1494.41 89.9441 1495.25 96.3687 1495.25 103.631H1468.99C1468.99 98.324 1468.16 94.1341 1466.76 90.7821C1465.08 87.4302 1462.85 84.9162 1459.78 82.9609C1456.7 81.2849 1452.51 80.4469 1447.77 80.4469C1443.02 80.4469 1437.15 81.8436 1433.52 84.3575C1429.89 87.1508 1427.1 91.0615 1425.42 96.3687C1423.74 101.676 1422.91 108.38 1422.91 116.201V118.994C1422.91 126.816 1423.74 133.52 1425.42 138.827C1427.1 144.134 1429.89 148.045 1433.8 150.838C1437.71 153.352 1442.46 154.749 1448.88 154.749C1455.31 154.749 1457.54 153.911 1460.89 152.235C1463.97 150.559 1466.48 147.765 1468.16 144.413C1469.83 140.782 1470.67 136.592 1470.67 131.844H1495.53C1495.53 138.827 1494.41 144.972 1492.46 150.279C1490.22 155.866 1487.15 160.335 1483.24 164.246C1479.05 168.156 1474.3 170.95 1468.44 172.905C1462.57 174.86 1455.87 175.978 1448.6 175.978L1448.04 175.14Z" fill="#004E48"/>
<path d="M1546.65 175.14C1539.66 175.14 1534.36 173.743 1530.45 170.95C1526.54 168.156 1523.74 164.804 1522.07 160.335C1520.39 156.145 1519.55 151.676 1519.55 147.207V82.6816H1506.15V61.4525H1520.11L1524.86 30.4469H1545.25V61.4525H1564.53V82.6816H1545.25V144.693C1545.25 147.765 1546.09 150 1547.49 151.676C1549.16 153.352 1551.4 154.19 1554.47 154.19H1564.53V171.788C1563.13 172.346 1561.45 172.905 1559.22 173.464C1557.26 174.022 1555.03 174.302 1552.79 174.86C1550.56 175.14 1548.32 175.419 1546.37 175.419L1546.65 175.14Z" fill="#004E48"/>
</g>
<defs>
<clipPath id="clip0_952_538">
<rect width="1564.53" height="200" fill="white"/>
</clipPath>
</defs>
</svg>
