<svg width="486" height="200" viewBox="0 0 486 200" fill="none" xmlns="http://www.w3.org/2000/svg">
<g clip-path="url(#clip0_6_2462)">
<path d="M334.568 122.717C324.231 122.717 315.4 120.886 308.063 117.235C300.727 113.584 295.123 107.874 291.232 100.127C287.341 92.3788 285.4 82.3751 285.4 70.1252C285.4 52.255 289.727 39.0156 298.39 30.4269C307.053 21.8381 319.103 17.5338 334.558 17.5338C342.924 17.5338 350.478 18.9686 357.221 21.8282C363.963 24.6977 369.329 29.0119 373.309 34.7905C377.3 40.5691 379.29 47.9013 379.29 56.7869H359.656C359.656 51.8493 358.597 47.6737 356.478 44.2698C354.359 40.866 351.429 38.2735 347.696 36.4924C343.954 34.7114 339.677 33.8307 334.855 33.8307C328.162 33.8307 322.598 35.1368 318.172 37.759C313.746 40.3811 310.469 44.25 308.35 49.3855C306.232 54.5209 305.172 60.8933 305.172 68.4925V71.748C305.172 79.4561 306.232 85.868 308.35 91.0034C310.469 96.1389 313.717 99.988 318.093 102.561C322.469 105.133 328.063 106.41 334.845 106.41C339.964 106.41 344.439 105.549 348.28 103.817C352.122 102.086 355.092 99.5229 357.211 96.1092C359.33 92.7054 360.389 88.5297 360.389 83.5922H379.29C379.29 92.4778 377.319 99.8099 373.389 105.589C369.448 111.367 364.112 115.662 357.369 118.482C350.627 121.292 343.023 122.707 334.558 122.707L334.568 122.717Z" fill="#004E48"/>
<path d="M441.268 122.717C430.931 122.717 422.1 120.886 414.764 117.235C407.427 113.584 401.823 107.874 397.932 100.127C394.041 92.3788 392.101 82.3751 392.101 70.1252C392.101 52.255 396.427 39.0156 405.09 30.4269C413.754 21.8381 425.803 17.5338 441.258 17.5338C449.624 17.5338 457.178 18.9686 463.921 21.8282C470.663 24.6977 476.03 29.0119 480.01 34.7905C484 40.5691 485.99 47.9013 485.99 56.7869H466.356C466.356 51.8493 465.297 47.6737 463.178 44.2698C461.06 40.866 458.129 38.2735 454.396 36.4924C450.654 34.7114 446.377 33.8307 441.555 33.8307C434.862 33.8307 429.298 35.1368 424.872 37.759C420.447 40.3811 417.169 44.25 415.051 49.3855C412.932 54.5209 411.872 60.8933 411.872 68.4925V71.748C411.872 79.4561 412.932 85.868 415.051 91.0034C417.169 96.1389 420.417 99.988 424.793 102.561C429.169 105.133 434.763 106.41 441.545 106.41C446.664 106.41 451.139 105.549 454.98 103.817C458.822 102.086 461.792 99.5229 463.911 96.1092C466.03 92.7054 467.089 88.5297 467.089 83.5922H485.99C485.99 92.4778 484.02 99.8099 480.089 105.589C476.148 111.367 470.812 115.662 464.069 118.482C457.327 121.292 449.723 122.707 441.258 122.707L441.268 122.717Z" fill="#004E48"/>
<path d="M269.46 81.158C267.777 77.7542 265.46 74.9341 262.5 72.7177C259.539 70.4913 256.183 68.9873 252.44 68.1957V67.602C255.599 66.5136 258.43 64.9106 260.945 62.7832C263.46 60.6558 265.46 58.0238 266.935 54.8574C268.41 51.7009 269.153 48.1882 269.153 44.3391C269.153 39.3026 267.915 34.9093 265.45 31.1591C262.985 27.4089 259.609 24.4899 255.312 22.4219C251.025 20.344 246.163 19.3149 240.738 19.3149H183.412V120.936H240.738C246.559 120.936 251.807 119.926 256.5 117.898C261.183 115.879 264.935 112.782 267.747 108.636C270.559 104.49 271.965 99.2558 271.965 92.933C271.965 88.4901 271.123 84.5619 269.45 81.158H269.46ZM202.659 35.7503H236.748C240.5 35.7503 243.53 36.7893 245.846 38.8573C248.163 40.9353 249.322 44.1412 249.322 48.4851C249.322 50.7609 248.807 52.8289 247.767 54.709C246.728 56.589 245.203 58.0633 243.183 59.1518C241.163 60.2402 238.668 60.7844 235.708 60.7844H202.649V35.7503H202.659ZM248.223 101.156C245.609 103.382 242.282 104.49 238.233 104.49H202.659V76.9329H237.045C240.5 76.9329 243.332 77.5068 245.549 78.6348C247.767 79.7727 249.421 81.3757 250.51 83.4536C251.599 85.5316 252.133 87.9459 252.133 90.7165C252.133 95.4562 250.827 98.9392 248.213 101.156H248.223Z" fill="#004E48"/>
<path d="M141.324 70.1252C141.324 108.854 109.909 140.25 71.157 140.25C32.4053 140.25 1 108.844 1 70.1252C1 31.4065 32.4152 6.10352e-05 71.1669 6.10352e-05C109.919 6.10352e-05 141.334 31.3966 141.334 70.1252H141.324ZM73.4342 21.0366H68.8798C64.7116 21.0366 61.2958 24.4504 61.2958 28.6161V33.1678C61.2958 37.3335 64.7116 40.7473 68.8798 40.7473H73.4342C77.6024 40.7473 81.0182 37.3335 81.0182 33.1678V28.6161C81.0182 24.4504 77.6024 21.0366 73.4342 21.0366ZM96.7604 44.4183H92.2061C88.0378 44.4183 84.6221 47.832 84.6221 51.9978V56.5494C84.6221 60.7152 88.0378 64.1289 92.2061 64.1289H96.7604C100.929 64.1289 104.344 60.7152 104.344 56.5494V51.9978C104.344 47.832 100.929 44.4183 96.7604 44.4183ZM73.4342 99.5032H68.8798C64.7116 99.5032 61.2958 102.917 61.2958 107.083V111.634C61.2958 115.8 64.7116 119.214 68.8798 119.214H73.4342C77.6024 119.214 81.0182 115.8 81.0182 111.634V107.083C81.0182 102.917 77.6024 99.5032 73.4342 99.5032ZM81.0182 56.4801V51.9285C81.0182 47.7627 77.6024 44.349 73.4342 44.349H45.5536C41.3853 44.349 37.9695 47.7627 37.9695 51.9285V56.4801C37.9695 60.6459 41.3853 64.0596 45.5536 64.0596H61.2958V86.0362V88.312C61.2958 92.4778 64.7116 95.8915 68.8798 95.8915H73.4342C77.6024 95.8915 81.0182 92.4778 81.0182 88.312V83.7604V56.4801Z" fill="#004E48"/>
<path d="M197.135 191.17C195.194 191.17 193.343 190.962 191.571 190.536C189.798 190.111 188.234 189.448 186.868 188.547C185.501 187.647 184.432 186.519 183.65 185.183C182.868 183.847 182.472 182.244 182.472 180.414C182.472 180.206 182.472 180.008 182.501 179.8C182.521 179.592 182.531 179.444 182.531 179.345H189.224C189.224 179.414 189.224 179.543 189.194 179.731C189.175 179.919 189.165 180.077 189.165 180.216C189.165 181.334 189.491 182.304 190.135 183.105C190.778 183.907 191.719 184.52 192.947 184.946C194.174 185.371 195.62 185.589 197.293 185.589C198.412 185.589 199.412 185.52 200.283 185.381C201.154 185.242 201.897 185.054 202.531 184.797C203.164 184.54 203.679 184.233 204.085 183.877C204.491 183.521 204.788 183.125 204.976 182.68C205.164 182.234 205.253 181.759 205.253 181.245C205.253 180.255 204.946 179.444 204.333 178.791C203.719 178.138 202.897 177.604 201.857 177.158C200.818 176.713 199.64 176.317 198.333 175.961C197.016 175.605 195.679 175.239 194.293 174.863C192.917 174.487 191.571 174.041 190.254 173.507C188.937 172.983 187.769 172.34 186.729 171.597C185.689 170.855 184.868 169.905 184.254 168.767C183.64 167.63 183.333 166.254 183.333 164.661C183.333 163.068 183.68 161.594 184.383 160.377C185.085 159.15 186.066 158.14 187.343 157.339C188.62 156.537 190.105 155.944 191.808 155.548C193.511 155.162 195.363 154.964 197.372 154.964C199.244 154.964 201.006 155.162 202.659 155.548C204.313 155.944 205.768 156.547 207.026 157.388C208.283 158.219 209.273 159.278 209.986 160.555C210.699 161.831 211.055 163.355 211.055 165.126V165.74H204.461V165.225C204.461 164.236 204.164 163.404 203.57 162.722C202.976 162.039 202.145 161.515 201.065 161.139C199.996 160.762 198.739 160.574 197.313 160.574C195.778 160.574 194.471 160.723 193.382 161.01C192.293 161.297 191.462 161.722 190.877 162.286C190.303 162.85 190.006 163.533 190.006 164.354C190.006 165.176 190.313 165.918 190.927 166.502C191.541 167.085 192.363 167.57 193.402 167.986C194.442 168.391 195.62 168.767 196.927 169.104C198.234 169.44 199.58 169.806 200.966 170.202C202.343 170.598 203.689 171.043 205.006 171.558C206.323 172.072 207.491 172.706 208.531 173.468C209.57 174.229 210.392 175.179 211.006 176.297C211.62 177.416 211.927 178.761 211.927 180.335C211.927 182.957 211.293 185.064 210.016 186.667C208.738 188.27 206.986 189.428 204.758 190.14C202.531 190.853 199.986 191.209 197.125 191.209L197.135 191.17Z" fill="#004E48"/>
<path d="M215.63 193L238.105 161.148H242.243L219.818 193H215.63ZM228.966 191.16C226.036 191.16 223.59 190.655 221.61 189.656C219.63 188.656 218.155 187.113 217.165 185.035C216.174 182.957 215.679 180.325 215.679 177.119C215.679 173.913 216.174 171.241 217.165 169.183C218.155 167.125 219.63 165.591 221.61 164.592C223.59 163.592 226.036 163.088 228.966 163.088C231.897 163.088 234.392 163.592 236.352 164.592C238.313 165.591 239.778 167.125 240.768 169.183C241.758 171.241 242.253 173.893 242.253 177.119C242.253 180.344 241.758 182.957 240.768 185.035C239.778 187.113 238.303 188.656 236.352 189.656C234.392 190.655 231.936 191.16 228.966 191.16ZM228.966 186.054C230.6 186.054 231.917 185.737 232.927 185.114C233.927 184.481 234.659 183.531 235.125 182.254C235.58 180.978 235.818 179.385 235.818 177.485V176.772C235.818 174.863 235.59 173.28 235.125 172.003C234.669 170.727 233.927 169.777 232.927 169.143C231.927 168.51 230.6 168.203 228.966 168.203C227.333 168.203 226.016 168.52 225.006 169.143C223.996 169.777 223.273 170.727 222.808 172.003C222.353 173.28 222.115 174.873 222.115 176.772V177.485C222.115 179.395 222.343 180.978 222.808 182.254C223.263 183.531 223.996 184.481 225.006 185.114C226.006 185.747 227.333 186.054 228.966 186.054Z" fill="#004E48"/>
<path d="M247.223 190.556V163.701H252.43L252.945 167.936H253.302C253.638 167.085 254.064 166.294 254.549 165.562C255.044 164.829 255.678 164.236 256.46 163.771C257.242 163.315 258.193 163.078 259.321 163.078C259.866 163.078 260.371 163.127 260.826 163.236C261.282 163.335 261.638 163.444 261.876 163.543V169.411H259.985C258.925 169.411 257.995 169.559 257.173 169.846C256.351 170.133 255.668 170.588 255.104 171.202C254.539 171.815 254.124 172.577 253.856 173.497C253.579 174.417 253.45 175.486 253.45 176.713V190.546H247.223V190.556Z" fill="#004E48"/>
<path d="M266.123 190.556V153.648H272.351V190.556H266.123Z" fill="#004E48"/>
<path d="M285.479 191.169C284.727 191.169 283.875 191.08 282.895 190.892C281.915 190.704 280.984 190.358 280.083 189.844C279.182 189.329 278.44 188.577 277.865 187.578C277.291 186.578 276.994 185.252 276.994 183.62C276.994 181.779 277.4 180.255 278.222 179.048C279.044 177.841 280.192 176.891 281.667 176.189C283.143 175.486 284.915 175.001 286.984 174.704C289.053 174.408 291.301 174.269 293.756 174.269V172.072C293.756 171.291 293.637 170.588 293.4 169.975C293.162 169.361 292.726 168.876 292.093 168.52C291.459 168.164 290.519 167.986 289.261 167.986C288.004 167.986 287.014 168.134 286.301 168.441C285.588 168.748 285.093 169.124 284.816 169.559C284.539 170.004 284.41 170.459 284.41 170.934V171.647H278.38C278.341 171.479 278.331 171.31 278.331 171.132V170.519C278.331 168.985 278.786 167.659 279.707 166.541C280.628 165.423 281.905 164.562 283.539 163.968C285.172 163.375 287.063 163.078 289.212 163.078C291.667 163.078 293.677 163.414 295.261 164.097C296.845 164.78 298.023 165.75 298.815 167.006C299.598 168.263 299.994 169.797 299.994 171.597V184.253C299.994 184.896 300.182 185.361 300.558 185.628C300.934 185.905 301.34 186.034 301.786 186.034H303.419V190.319C303.083 190.457 302.588 190.615 301.934 190.803C301.291 190.991 300.489 191.08 299.538 191.08C298.647 191.08 297.865 190.932 297.162 190.645C296.459 190.358 295.875 189.943 295.4 189.398C294.924 188.854 294.578 188.211 294.38 187.459H294.073C293.499 188.171 292.806 188.815 292.004 189.369C291.202 189.923 290.271 190.368 289.192 190.675C288.123 190.981 286.885 191.13 285.489 191.13L285.479 191.169ZM287.37 186.064C288.39 186.064 289.301 185.915 290.103 185.609C290.905 185.302 291.568 184.876 292.093 184.332C292.618 183.788 293.033 183.125 293.321 182.343C293.608 181.562 293.756 180.711 293.756 179.79V178.563C291.885 178.563 290.152 178.682 288.568 178.92C286.984 179.157 285.727 179.602 284.786 180.246C283.845 180.889 283.38 181.809 283.38 183.006C283.38 183.62 283.529 184.154 283.816 184.609C284.103 185.064 284.548 185.43 285.142 185.678C285.737 185.925 286.479 186.064 287.36 186.064H287.37Z" fill="#004E48"/>
<path d="M307.974 190.556V163.701H313.181L313.696 167.273H314.053C314.667 166.452 315.389 165.73 316.221 165.106C317.053 164.473 318.013 163.988 319.082 163.622C320.152 163.266 321.34 163.088 322.637 163.088C324.34 163.088 325.845 163.395 327.161 164.008C328.468 164.622 329.498 165.611 330.25 166.967C331.003 168.332 331.369 170.153 331.369 172.429V190.546H325.082V173.547C325.082 172.597 324.973 171.805 324.755 171.172C324.538 170.539 324.211 170.034 323.785 169.638C323.359 169.242 322.845 168.965 322.231 168.797C321.617 168.629 320.934 168.54 320.191 168.54C319.072 168.54 318.053 168.817 317.152 169.361C316.251 169.905 315.538 170.657 315.003 171.607C314.478 172.557 314.211 173.665 314.211 174.922V190.546H307.984L307.974 190.556Z" fill="#004E48"/>
<path d="M346.736 191.169C344.558 191.169 342.666 190.675 341.063 189.685C339.459 188.696 338.231 187.172 337.36 185.094C336.488 183.016 336.053 180.344 336.053 177.079C336.053 173.814 336.498 171.202 337.379 169.143C338.261 167.085 339.488 165.562 341.053 164.572C342.617 163.583 344.389 163.088 346.369 163.088C347.597 163.088 348.716 163.226 349.736 163.493C350.755 163.771 351.656 164.186 352.439 164.74C353.221 165.294 353.884 165.987 354.429 166.808H354.736V153.638H360.963V190.546H355.805L355.29 186.974H354.934C354.082 188.369 352.934 189.418 351.488 190.111C350.043 190.803 348.449 191.16 346.716 191.16L346.736 191.169ZM348.676 185.806C350.102 185.806 351.26 185.48 352.151 184.837C353.033 184.194 353.696 183.254 354.122 182.027C354.547 180.8 354.765 179.306 354.765 177.534V176.871C354.765 175.545 354.646 174.358 354.409 173.299C354.171 172.241 353.805 171.36 353.31 170.647C352.815 169.935 352.191 169.391 351.419 169.015C350.656 168.639 349.746 168.451 348.686 168.451C347.152 168.451 345.934 168.748 345.033 169.341C344.132 169.935 343.478 170.855 343.092 172.102C342.696 173.349 342.508 174.922 342.508 176.822V177.534C342.508 179.404 342.706 180.958 343.092 182.175C343.478 183.392 344.132 184.312 345.033 184.906C345.934 185.5 347.152 185.797 348.686 185.797L348.676 185.806Z" fill="#004E48"/>
<path d="M378.428 191.17C375.566 191.17 373.18 190.665 371.279 189.665C369.368 188.666 367.943 187.122 366.992 185.045C366.042 182.967 365.557 180.335 365.557 177.129C365.557 173.923 366.032 171.251 366.992 169.193C367.943 167.135 369.378 165.601 371.279 164.602C373.19 163.602 375.566 163.098 378.428 163.098C381.012 163.098 383.19 163.583 384.942 164.552C386.695 165.522 388.012 167.016 388.903 169.015C389.784 171.023 390.229 173.626 390.229 176.822V178.662H371.943C372.012 180.335 372.269 181.73 372.705 182.878C373.151 184.016 373.834 184.866 374.774 185.43C375.715 185.994 376.943 186.272 378.477 186.272C379.259 186.272 379.992 186.173 380.675 185.965C381.358 185.757 381.952 185.45 382.467 185.025C382.982 184.599 383.378 184.065 383.665 183.422C383.952 182.779 384.101 182.027 384.101 181.176H390.229C390.229 182.878 389.932 184.362 389.338 185.618C388.744 186.875 387.913 187.914 386.833 188.735C385.764 189.557 384.507 190.16 383.081 190.576C381.645 190.982 380.101 191.189 378.428 191.189V191.17ZM372.042 174.269H383.735C383.735 173.141 383.606 172.191 383.348 171.409C383.091 170.628 382.735 169.985 382.279 169.47C381.824 168.955 381.269 168.589 380.616 168.372C379.972 168.154 379.24 168.045 378.418 168.045C377.091 168.045 375.972 168.263 375.071 168.708C374.17 169.153 373.477 169.836 373.002 170.746C372.527 171.667 372.2 172.844 372.032 174.269H372.042Z" fill="#004E48"/>
<path d="M402.635 191.169C400.962 191.169 399.655 190.843 398.704 190.17C397.754 189.497 397.081 188.656 396.685 187.617C396.289 186.578 396.101 185.52 396.101 184.431V168.807H392.883V163.701H396.249L397.378 156.201H402.328V163.701H406.982V168.807H402.328V183.818C402.328 184.53 402.516 185.084 402.893 185.48C403.269 185.876 403.833 186.064 404.576 186.064H406.972V190.348C406.635 190.487 406.209 190.615 405.724 190.734C405.229 190.853 404.714 190.952 404.17 191.041C403.625 191.12 403.11 191.169 402.635 191.169Z" fill="#004E48"/>
</g>
<defs>
<clipPath id="clip0_6_2462">
<rect width="485" height="193" fill="white" transform="translate(1 6.10352e-05)"/>
</clipPath>
</defs>
</svg>
