<svg width="488" height="200" viewBox="0 0 488 200" fill="none" xmlns="http://www.w3.org/2000/svg">
<g clip-path="url(#clip0_6_2939)">
<path d="M335.673 123.391C325.286 123.391 316.411 121.55 309.039 117.879C301.666 114.208 296.035 108.467 292.125 100.677C288.215 92.8863 286.265 82.8276 286.265 70.5104C286.265 52.542 290.612 39.2299 299.318 30.594C308.024 21.958 320.132 17.6301 335.663 17.6301C344.07 17.6301 351.661 19.0727 358.437 21.9481C365.212 24.8333 370.605 29.1712 374.604 34.9816C378.614 40.792 380.613 48.1644 380.613 57.0988H360.884C360.884 52.1341 359.82 47.9355 357.69 44.513C355.561 41.0904 352.616 38.4837 348.865 36.6929C345.105 34.902 340.806 34.0165 335.961 34.0165C329.236 34.0165 323.644 35.3298 319.197 37.9664C314.749 40.6029 311.456 44.4931 309.327 49.6567C307.198 54.8204 306.133 61.2277 306.133 68.8688V72.1421C306.133 79.8925 307.198 86.3397 309.327 91.5033C311.456 96.667 314.72 100.537 319.117 103.124C323.515 105.711 329.136 106.994 335.951 106.994C341.095 106.994 345.592 106.129 349.452 104.388C353.313 102.646 356.297 100.07 358.427 96.6371C360.556 93.2146 361.62 89.016 361.62 84.0513H380.613C380.613 92.9858 378.634 100.358 374.684 106.169C370.724 111.979 365.361 116.297 358.586 119.132C351.81 121.958 344.169 123.381 335.663 123.381L335.673 123.391Z" fill="#004E48"/>
<path d="M442.896 123.391C432.509 123.391 423.635 121.55 416.262 117.879C408.89 114.208 403.258 108.467 399.348 100.677C395.438 92.8863 393.488 82.8276 393.488 70.5104C393.488 52.542 397.836 39.2299 406.542 30.594C415.247 21.958 427.356 17.6301 442.886 17.6301C451.293 17.6301 458.885 19.0727 465.66 21.9481C472.436 24.8333 477.828 29.1712 481.828 34.9816C485.837 40.792 487.837 48.1644 487.837 57.0988H468.108C468.108 52.1341 467.043 47.9355 464.914 44.513C462.785 41.0904 459.84 38.4837 456.089 36.6929C452.328 34.902 448.03 34.0165 443.185 34.0165C436.459 34.0165 430.868 35.3298 426.42 37.9664C421.973 40.6029 418.68 44.4931 416.551 49.6567C414.422 54.8204 413.357 61.2277 413.357 68.8688V72.1421C413.357 79.8925 414.422 86.3397 416.551 91.5033C418.68 96.667 421.943 100.537 426.341 103.124C430.738 105.711 436.36 106.994 443.175 106.994C448.319 106.994 452.816 106.129 456.676 104.388C460.536 102.646 463.521 100.07 465.65 96.6371C467.779 93.2146 468.844 89.016 468.844 84.0513H487.837C487.837 92.9858 485.857 100.358 481.907 106.169C477.948 111.979 472.585 116.297 465.809 119.132C459.034 121.958 451.393 123.381 442.886 123.381L442.896 123.391Z" fill="#004E48"/>
<path d="M270.246 81.6038C268.555 78.1813 266.227 75.3457 263.252 73.1171C260.277 70.8785 256.904 69.3662 253.144 68.5703V67.9733C256.317 66.8789 259.163 65.2671 261.69 63.1281C264.217 60.989 266.227 58.3425 267.709 55.1587C269.192 51.9849 269.938 48.4529 269.938 44.5826C269.938 39.5185 268.694 35.101 266.217 31.3302C263.74 27.5595 260.347 24.6244 256.029 22.545C251.721 20.4557 246.836 19.421 241.384 19.421H183.777V121.6H241.384C247.234 121.6 252.507 120.585 257.223 118.545C261.929 116.516 265.7 113.402 268.525 109.233C271.351 105.064 272.763 99.801 272.763 93.4434C272.763 88.9762 271.918 85.0264 270.236 81.6038H270.246ZM203.119 35.9467H237.374C241.145 35.9467 244.189 36.9913 246.517 39.0707C248.845 41.1601 250.01 44.3836 250.01 48.7514C250.01 51.0397 249.492 53.1191 248.448 55.0095C247.403 56.8998 245.871 58.3823 243.841 59.4767C241.811 60.5711 239.304 61.1183 236.329 61.1183H203.109V35.9467H203.119ZM248.905 101.711C246.279 103.95 242.936 105.064 238.866 105.064H203.119V77.3555H237.672C241.145 77.3555 243.99 77.9325 246.219 79.0668C248.448 80.2109 250.109 81.8227 251.203 83.912C252.298 86.0014 252.835 88.429 252.835 91.2148C252.835 95.9805 251.522 99.4826 248.895 101.711H248.905Z" fill="#004E48"/>
<path d="M141.483 70.5104C141.483 109.452 109.914 141.021 70.9731 141.021C32.0317 141.021 0.472656 109.442 0.472656 70.5104C0.472656 31.5789 32.0417 0 70.9831 0C109.924 0 141.493 31.569 141.493 70.5104H141.483ZM73.2614 21.1521H68.6848C64.4961 21.1521 61.0636 24.5846 61.0636 28.7733V33.3499C61.0636 37.5386 64.4961 40.971 68.6848 40.971H73.2614C77.4501 40.971 80.8826 37.5386 80.8826 33.3499V28.7733C80.8826 24.5846 77.4501 21.1521 73.2614 21.1521ZM96.7019 44.6622H92.1252C87.9366 44.6622 84.5041 48.0947 84.5041 52.2834V56.86C84.5041 61.0487 87.9366 64.4811 92.1252 64.4811H96.7019C100.891 64.4811 104.323 61.0487 104.323 56.86V52.2834C104.323 48.0947 100.891 44.6622 96.7019 44.6622ZM73.2614 100.05H68.6848C64.4961 100.05 61.0636 103.482 61.0636 107.671V112.248C61.0636 116.436 64.4961 119.869 68.6848 119.869H73.2614C77.4501 119.869 80.8826 116.436 80.8826 112.248V107.671C80.8826 103.482 77.4501 100.05 73.2614 100.05ZM80.8826 56.7904V52.2137C80.8826 48.0251 77.4501 44.5926 73.2614 44.5926H45.2443C41.0557 44.5926 37.6232 48.0251 37.6232 52.2137V56.7904C37.6232 60.979 41.0557 64.4115 45.2443 64.4115H61.0636V86.5088V88.7971C61.0636 92.9858 64.4961 96.4183 68.6848 96.4183H73.2614C77.4501 96.4183 80.8826 92.9858 80.8826 88.7971V84.2205V56.7904Z" fill="#004E48"/>
<path d="M195 190.658V161.198H183.758V155.447H212.959V161.198H201.666V190.658H194.991H195Z" fill="#004E48"/>
<path d="M212.094 193.115L234.679 161.088H238.837L216.302 193.115H212.094ZM225.495 191.265C222.55 191.265 220.093 190.757 218.103 189.752C216.113 188.747 214.631 187.195 213.636 185.106C212.641 183.017 212.143 180.37 212.143 177.147C212.143 173.923 212.641 171.237 213.636 169.167C214.631 167.098 216.113 165.556 218.103 164.551C220.093 163.546 222.55 163.038 225.495 163.038C228.44 163.038 230.948 163.546 232.918 164.551C234.888 165.556 236.36 167.098 237.355 169.167C238.35 171.237 238.847 173.903 238.847 177.147C238.847 180.39 238.35 183.017 237.355 185.106C236.36 187.195 234.878 188.747 232.918 189.752C230.948 190.757 228.48 191.265 225.495 191.265ZM225.495 186.131C227.137 186.131 228.46 185.812 229.475 185.186C230.48 184.549 231.216 183.594 231.684 182.31C232.142 181.027 232.38 179.425 232.38 177.515V176.798C232.38 174.878 232.151 173.286 231.684 172.003C231.226 170.719 230.48 169.764 229.475 169.127C228.47 168.491 227.137 168.182 225.495 168.182C223.854 168.182 222.531 168.501 221.516 169.127C220.501 169.764 219.775 170.719 219.307 172.003C218.849 173.286 218.611 174.888 218.611 176.798V177.515C218.611 179.435 218.839 181.027 219.307 182.31C219.765 183.594 220.501 184.549 221.516 185.186C222.521 185.822 223.854 186.131 225.495 186.131Z" fill="#004E48"/>
<path d="M244.18 190.658V163.655H249.413L249.93 167.247H250.289C250.905 166.421 251.632 165.695 252.467 165.068C253.303 164.431 254.268 163.944 255.343 163.576C256.417 163.218 257.611 163.039 258.915 163.039C260.626 163.039 262.138 163.347 263.461 163.964C264.775 164.581 265.809 165.576 266.566 166.939C267.322 168.312 267.69 170.142 267.69 172.431V190.648H261.372V173.555C261.372 172.6 261.263 171.804 261.044 171.167C260.825 170.53 260.496 170.023 260.069 169.625C259.641 169.227 259.123 168.948 258.507 168.779C257.89 168.61 257.203 168.521 256.457 168.521C255.333 168.521 254.308 168.799 253.403 169.346C252.497 169.894 251.781 170.65 251.244 171.605C250.716 172.56 250.448 173.674 250.448 174.938V190.648H244.19L244.18 190.658Z" fill="#004E48"/>
<path d="M283.798 191.275C281.848 191.275 280.137 191.066 278.664 190.638C277.192 190.21 275.958 189.623 274.973 188.867C273.978 188.111 273.232 187.235 272.744 186.22C272.247 185.215 271.998 184.111 271.998 182.907C271.998 182.738 271.998 182.579 272.028 182.45C272.048 182.31 272.058 182.211 272.058 182.141H278.216V182.549C278.246 183.474 278.545 184.22 279.092 184.778C279.639 185.345 280.355 185.743 281.251 185.981C282.146 186.22 283.082 186.34 284.076 186.34C284.962 186.34 285.818 186.25 286.614 186.061C287.419 185.872 288.086 185.564 288.613 185.136C289.141 184.708 289.409 184.151 289.409 183.464C289.409 182.579 289.071 181.892 288.384 181.415C287.698 180.937 286.803 180.539 285.688 180.231C284.574 179.922 283.39 179.594 282.116 179.256C280.992 178.947 279.858 178.609 278.734 178.231C277.599 177.853 276.585 177.375 275.679 176.798C274.774 176.221 274.038 175.465 273.471 174.54C272.903 173.615 272.625 172.47 272.625 171.097C272.625 169.724 272.913 168.6 273.5 167.605C274.077 166.61 274.883 165.785 275.908 165.118C276.933 164.451 278.147 163.944 279.55 163.606C280.952 163.267 282.475 163.088 284.116 163.088C285.758 163.088 287.191 163.257 288.504 163.606C289.817 163.944 290.971 164.431 291.946 165.068C292.921 165.705 293.677 166.471 294.205 167.376C294.732 168.282 295.001 169.287 295.001 170.381C295.001 170.62 295.001 170.859 294.971 171.097C294.951 171.336 294.941 171.475 294.941 171.505H288.832V171.147C288.832 170.5 288.633 169.943 288.245 169.476C287.847 169.018 287.29 168.65 286.554 168.371C285.818 168.103 284.902 167.963 283.808 167.963C282.982 167.963 282.266 168.033 281.649 168.172C281.032 168.312 280.525 168.501 280.137 168.739C279.739 168.978 279.44 169.257 279.241 169.565C279.042 169.874 278.933 170.212 278.933 170.59C278.933 171.237 279.191 171.754 279.699 172.132C280.216 172.51 280.903 172.839 281.778 173.107C282.654 173.376 283.599 173.674 284.624 173.983C285.857 174.321 287.121 174.679 288.424 175.037C289.728 175.395 290.931 175.853 292.046 176.4C293.16 176.948 294.056 177.714 294.742 178.709C295.429 179.704 295.767 181.017 295.767 182.658C295.767 184.3 295.468 185.574 294.871 186.688C294.274 187.802 293.439 188.688 292.354 189.354C291.28 190.021 290.006 190.508 288.554 190.817C287.101 191.125 285.519 191.275 283.808 191.275H283.798Z" fill="#004E48"/>
<path d="M315.237 191.274C313.496 191.274 311.904 190.926 310.461 190.22C309.019 189.513 307.865 188.469 306.969 187.066H306.611L306.094 190.658H300.91V153.547H307.168V166.789H307.477C308.024 165.964 308.69 165.277 309.476 164.71C310.262 164.143 311.168 163.725 312.193 163.456C313.217 163.178 314.352 163.048 315.585 163.048C317.605 163.048 319.396 163.546 320.948 164.541C322.51 165.536 323.724 167.068 324.619 169.137C325.505 171.207 325.952 173.873 325.952 177.117C325.952 180.36 325.515 183.086 324.639 185.176C323.764 187.265 322.53 188.807 320.948 189.792C319.356 190.787 317.446 191.284 315.227 191.284L315.237 191.274ZM313.287 185.882C314.829 185.882 316.053 185.584 316.958 184.987C317.864 184.39 318.51 183.474 318.908 182.241C319.306 181.007 319.495 179.455 319.495 177.574V176.858C319.495 174.938 319.296 173.356 318.908 172.112C318.51 170.869 317.864 169.943 316.958 169.336C316.053 168.739 314.829 168.441 313.287 168.441C312.222 168.441 311.307 168.63 310.541 169.008C309.775 169.386 309.138 169.933 308.641 170.65C308.143 171.366 307.775 172.261 307.536 173.316C307.298 174.381 307.178 175.575 307.178 176.908V177.574C307.178 179.355 307.387 180.858 307.815 182.091C308.243 183.325 308.909 184.26 309.815 184.917C310.72 185.564 311.874 185.892 313.277 185.892L313.287 185.882Z" fill="#004E48"/>
<path d="M342.747 191.275C339.871 191.275 337.473 190.767 335.563 189.762C333.643 188.757 332.21 187.205 331.255 185.116C330.3 183.027 329.812 180.38 329.812 177.157C329.812 173.933 330.29 171.247 331.255 169.177C332.21 167.108 333.653 165.566 335.563 164.561C337.483 163.556 339.871 163.048 342.747 163.048C345.343 163.048 347.532 163.536 349.293 164.511C351.054 165.486 352.377 166.988 353.273 168.998C354.158 171.018 354.606 173.634 354.606 176.848V178.699H336.23C336.299 180.38 336.558 181.783 336.996 182.937C337.444 184.081 338.13 184.937 339.075 185.504C340.02 186.071 341.254 186.35 342.796 186.35C343.582 186.35 344.319 186.25 345.005 186.041C345.692 185.832 346.288 185.524 346.806 185.096C347.323 184.668 347.721 184.131 348.01 183.484C348.298 182.838 348.447 182.081 348.447 181.226H354.606C354.606 182.937 354.308 184.429 353.711 185.693C353.114 186.957 352.278 188.001 351.193 188.827C350.119 189.653 348.855 190.26 347.423 190.678C345.98 191.085 344.428 191.294 342.747 191.294V191.275ZM336.329 174.281H348.079C348.079 173.147 347.95 172.192 347.691 171.406C347.433 170.62 347.074 169.973 346.617 169.456C346.159 168.938 345.602 168.57 344.945 168.351C344.299 168.133 343.562 168.023 342.737 168.023C341.403 168.023 340.279 168.242 339.374 168.69C338.468 169.137 337.772 169.824 337.294 170.739C336.817 171.665 336.488 172.848 336.319 174.281H336.329Z" fill="#004E48"/>
<path d="M359.611 190.658V163.655H364.845L365.362 167.914H365.72C366.058 167.058 366.486 166.262 366.974 165.526C367.471 164.79 368.108 164.193 368.894 163.725C369.68 163.267 370.635 163.029 371.769 163.029C372.317 163.029 372.824 163.078 373.282 163.188C373.739 163.287 374.097 163.397 374.336 163.496V169.396H372.436C371.371 169.396 370.436 169.545 369.61 169.834C368.785 170.122 368.098 170.58 367.531 171.197C366.964 171.814 366.546 172.58 366.277 173.505C365.999 174.43 365.869 175.505 365.869 176.739V190.648H359.611V190.658Z" fill="#004E48"/>
<path d="M381.658 200C380.464 200 379.33 199.761 378.266 199.284C377.201 198.806 376.345 198.09 375.699 197.155C375.052 196.209 374.724 195.055 374.724 193.692C374.724 192.19 375.161 190.996 376.037 190.12C376.912 189.245 377.878 188.588 378.942 188.14C378.156 187.733 377.509 187.185 377.022 186.499C376.524 185.812 376.276 184.997 376.276 184.031C376.276 182.728 376.753 181.693 377.708 180.927C378.664 180.161 379.758 179.654 380.992 179.415C379.728 178.629 378.763 177.614 378.086 176.39C377.42 175.157 377.082 173.754 377.082 172.182C377.082 170.301 377.539 168.68 378.445 167.327C379.35 165.974 380.673 164.919 382.424 164.173C384.165 163.417 386.275 163.048 388.742 163.048C389.737 163.048 390.692 163.118 391.617 163.257C392.543 163.397 393.379 163.596 394.135 163.874C395.329 163.158 396.154 162.342 396.602 161.437C397.05 160.531 397.289 159.785 397.318 159.208H403.427C403.427 160.402 403.198 161.467 402.731 162.392C402.273 163.317 401.626 164.073 400.811 164.68C399.985 165.277 399 165.715 397.836 165.993C398.691 166.75 399.338 167.655 399.786 168.71C400.234 169.774 400.452 170.938 400.452 172.202C400.452 174.082 400.015 175.714 399.139 177.077C398.264 178.45 396.98 179.505 395.289 180.261C393.597 181.017 391.518 181.385 389.051 181.385H384.892C384.175 181.385 383.618 181.534 383.22 181.843C382.822 182.151 382.633 182.579 382.633 183.126C382.633 183.574 382.812 183.962 383.171 184.31C383.529 184.648 384.036 184.827 384.683 184.827H396.493C398.512 184.827 400.184 185.484 401.497 186.807C402.81 188.131 403.477 189.812 403.477 191.861C403.477 193.404 403.079 194.787 402.273 196.02C401.467 197.254 400.353 198.229 398.91 198.945C397.478 199.662 395.796 200.02 393.876 200.02H381.658V200ZM383.917 195.483H393.826C394.473 195.483 395.05 195.374 395.547 195.155C396.045 194.936 396.433 194.617 396.731 194.2C397.02 193.792 397.169 193.324 397.169 192.817C397.169 191.931 396.891 191.255 396.323 190.817C395.756 190.369 395.07 190.15 394.244 190.15H383.927C383.101 190.15 382.424 190.399 381.877 190.896C381.33 191.394 381.051 192.031 381.051 192.817C381.051 193.603 381.32 194.249 381.847 194.737C382.375 195.234 383.071 195.483 383.927 195.483H383.917ZM388.792 176.958C390.603 176.958 391.966 176.54 392.871 175.704C393.776 174.868 394.234 173.694 394.234 172.192C394.234 170.689 393.776 169.525 392.871 168.7C391.966 167.874 390.603 167.466 388.792 167.466C386.981 167.466 385.618 167.874 384.713 168.7C383.807 169.525 383.35 170.689 383.35 172.192C383.35 173.187 383.549 174.042 383.937 174.759C384.325 175.475 384.932 176.022 385.737 176.4C386.543 176.778 387.558 176.967 388.792 176.967V176.958Z" fill="#004E48"/>
</g>
<defs>
<clipPath id="clip0_6_2939">
<rect width="487.374" height="200" fill="white" transform="translate(0.472656)"/>
</clipPath>
</defs>
</svg>
