<svg width="486" height="200" viewBox="0 0 486 200" fill="none" xmlns="http://www.w3.org/2000/svg">
<g clip-path="url(#clip0_6_3058)">
<path d="M334.047 122.608C323.726 122.608 314.907 120.779 307.582 117.131C300.256 113.483 294.66 107.779 290.775 100.038C286.89 92.2969 284.952 82.302 284.952 70.063C284.952 52.2086 289.272 38.981 297.923 30.3998C306.573 21.8187 318.605 17.5182 334.037 17.5182C342.391 17.5182 349.934 18.9517 356.666 21.8088C363.399 24.6758 368.757 28.9861 372.731 34.7596C376.715 40.5331 378.702 47.8587 378.702 56.7365H359.098C359.098 51.8033 358.04 47.6314 355.925 44.2305C353.809 40.8297 350.883 38.2395 347.156 36.46C343.419 34.6805 339.148 33.8007 334.333 33.8007C327.65 33.8007 322.094 35.1056 317.675 37.7255C313.256 40.3453 309.984 44.2108 307.868 49.3417C305.753 54.4726 304.695 60.8392 304.695 68.4318V71.6843C304.695 79.3856 305.753 85.7918 307.868 90.9227C309.984 96.0536 313.226 99.8993 317.596 102.47C321.966 105.04 327.551 106.315 334.323 106.315C339.435 106.315 343.903 105.455 347.739 103.725C351.575 101.995 354.541 99.4347 356.656 96.024C358.772 92.6231 359.83 88.4512 359.83 83.518H378.702C378.702 92.3958 376.735 99.7214 372.81 105.495C368.875 111.268 363.547 115.559 356.814 118.376C350.082 121.184 342.489 122.598 334.037 122.598L334.047 122.608Z" fill="#004E48"/>
<path d="M440.589 122.608C430.268 122.608 421.449 120.779 414.124 117.131C406.798 113.483 401.202 107.779 397.317 100.038C393.432 92.2969 391.494 82.302 391.494 70.063C391.494 52.2086 395.814 38.981 404.465 30.3998C413.115 21.8187 425.147 17.5182 440.579 17.5182C448.933 17.5182 456.476 18.9517 463.208 21.8088C469.941 24.6758 475.299 28.9861 479.273 34.7596C483.257 40.5331 485.244 47.8587 485.244 56.7365H465.64C465.64 51.8033 464.582 47.6314 462.467 44.2305C460.351 40.8297 457.425 38.2395 453.698 36.46C449.961 34.6805 445.69 33.8007 440.875 33.8007C434.192 33.8007 428.636 35.1056 424.217 37.7255C419.798 40.3453 416.526 44.2108 414.41 49.3417C412.295 54.4726 411.237 60.8392 411.237 68.4318V71.6843C411.237 79.3856 412.295 85.7918 414.41 90.9227C416.526 96.0536 419.768 99.8993 424.138 102.47C428.508 105.04 434.093 106.315 440.865 106.315C445.977 106.315 450.445 105.455 454.281 103.725C458.117 101.995 461.083 99.4347 463.198 96.024C465.314 92.6231 466.372 88.4512 466.372 83.518H485.244C485.244 92.3958 483.277 99.7214 479.352 105.495C475.418 111.268 470.089 115.559 463.356 118.376C456.624 121.184 449.031 122.598 440.579 122.598L440.589 122.608Z" fill="#004E48"/>
<path d="M269.035 81.086C267.354 77.6852 265.041 74.8677 262.085 72.6532C259.129 70.4288 255.777 68.9261 252.04 68.1352V67.542C255.194 66.4546 258.021 64.853 260.533 62.7275C263.044 60.602 265.041 57.9723 266.514 54.8087C267.987 51.655 268.728 48.1455 268.728 44.2998C268.728 39.2677 267.492 34.8783 265.031 31.1314C262.569 27.3846 259.198 24.4682 254.907 22.402C250.627 20.3259 245.773 19.2977 240.355 19.2977H183.114V120.828H240.355C246.168 120.828 251.408 119.82 256.094 117.793C260.77 115.776 264.517 112.682 267.324 108.54C270.132 104.398 271.536 99.1678 271.536 92.8505C271.536 88.4117 270.695 84.4869 269.025 81.086H269.035ZM202.333 35.7186H236.371C240.118 35.7186 243.143 36.7566 245.456 38.8228C247.77 40.8989 248.926 44.102 248.926 48.442C248.926 50.7158 248.412 52.782 247.374 54.6604C246.336 56.5388 244.814 58.0118 242.797 59.0993C240.78 60.1868 238.289 60.7305 235.333 60.7305H202.323V35.7186H202.333ZM247.829 101.066C245.219 103.29 241.897 104.398 237.854 104.398H202.333V76.8647H236.667C240.118 76.8647 242.945 77.4381 245.16 78.5651C247.374 79.702 249.025 81.3035 250.113 83.3796C251.2 85.4557 251.734 87.8679 251.734 90.636C251.734 95.3715 250.429 98.8514 247.819 101.066H247.829Z" fill="#004E48"/>
<path d="M141.089 70.063C141.089 108.757 109.72 140.126 71.0258 140.126C32.3315 140.126 0.972656 108.747 0.972656 70.063C0.972656 31.3786 32.3413 0 71.0357 0C109.73 0 141.099 31.3687 141.099 70.063H141.089ZM73.2996 21.0179H68.752C64.5899 21.0179 61.1792 24.4286 61.1792 28.5907V33.1383C61.1792 37.3004 64.5899 40.7111 68.752 40.7111H73.2996C77.4616 40.7111 80.8723 37.3004 80.8723 33.1383V28.5907C80.8723 24.4286 77.4616 21.0179 73.2996 21.0179ZM96.5913 44.3788H92.0437C87.8816 44.3788 84.4709 47.7895 84.4709 51.9516V56.4992C84.4709 60.6613 87.8816 64.072 92.0437 64.072H96.5913C100.753 64.072 104.164 60.6613 104.164 56.4992V51.9516C104.164 47.7895 100.753 44.3788 96.5913 44.3788ZM73.2996 99.4149H68.752C64.5899 99.4149 61.1792 102.826 61.1792 106.988V111.535C61.1792 115.697 64.5899 119.108 68.752 119.108H73.2996C77.4616 119.108 80.8723 115.697 80.8723 111.535V106.988C80.8723 102.826 77.4616 99.4149 73.2996 99.4149ZM80.8723 56.43V51.8824C80.8723 47.7203 77.4616 44.3096 73.2996 44.3096H45.4602C41.2982 44.3096 37.8875 47.7203 37.8875 51.8824V56.43C37.8875 60.5921 41.2982 64.0028 45.4602 64.0028H61.1792V85.9599V88.2337C61.1792 92.3958 64.5899 95.8065 68.752 95.8065H73.2996C77.4616 95.8065 80.8723 92.3958 80.8723 88.2337V83.6861V56.43Z" fill="#004E48"/>
<path d="M195.72 190.387L182.967 155.4H190.154L198.468 179.473C198.607 179.809 198.745 180.204 198.874 180.649C199.012 181.094 199.141 181.509 199.279 181.895C199.417 182.29 199.536 182.636 199.635 182.943H199.892C199.991 182.676 200.099 182.35 200.228 181.974C200.347 181.598 200.475 181.203 200.614 180.778C200.752 180.353 200.89 179.937 201.019 179.532L209.284 155.41H216.164L203.411 190.397H195.71L195.72 190.387Z" fill="#004E48"/>
<path d="M223.342 191C222.59 191 221.74 190.911 220.761 190.723C219.783 190.535 218.853 190.189 217.954 189.675C217.054 189.161 216.313 188.41 215.739 187.411C215.166 186.413 214.869 185.088 214.869 183.457C214.869 181.618 215.274 180.096 216.095 178.889C216.916 177.683 218.062 176.734 219.535 176.032C221.008 175.33 222.778 174.846 224.844 174.549C226.91 174.253 229.155 174.114 231.606 174.114V171.92C231.606 171.139 231.488 170.437 231.25 169.824C231.013 169.211 230.578 168.727 229.945 168.371C229.313 168.015 228.374 167.837 227.118 167.837C225.863 167.837 224.874 167.985 224.162 168.292C223.45 168.598 222.956 168.974 222.679 169.409C222.402 169.854 222.274 170.308 222.274 170.783V171.495H216.253C216.214 171.327 216.204 171.159 216.204 170.981V170.368C216.204 168.835 216.659 167.511 217.578 166.393C218.497 165.276 219.773 164.416 221.404 163.823C223.035 163.23 224.923 162.933 227.069 162.933C229.52 162.933 231.527 163.269 233.109 163.952C234.691 164.634 235.867 165.603 236.658 166.858C237.439 168.114 237.835 169.646 237.835 171.445V184.09C237.835 184.732 238.022 185.197 238.398 185.464C238.774 185.741 239.179 185.869 239.624 185.869H241.255V190.15C240.919 190.288 240.425 190.446 239.772 190.634C239.13 190.822 238.329 190.911 237.38 190.911C236.49 190.911 235.709 190.763 235.007 190.476C234.305 190.189 233.722 189.774 233.247 189.23C232.773 188.687 232.427 188.044 232.229 187.293H231.923C231.349 188.005 230.657 188.647 229.857 189.201C229.056 189.754 228.126 190.199 227.049 190.506C225.981 190.812 224.745 190.96 223.351 190.96L223.342 191ZM225.23 185.899C226.248 185.899 227.158 185.75 227.958 185.444C228.759 185.138 229.422 184.712 229.945 184.169C230.469 183.625 230.885 182.963 231.171 182.182C231.458 181.401 231.606 180.55 231.606 179.631V178.405C229.738 178.405 228.008 178.524 226.426 178.761C224.844 178.998 223.589 179.443 222.65 180.086C221.71 180.728 221.246 181.648 221.246 182.844C221.246 183.457 221.394 183.991 221.681 184.446C221.967 184.9 222.412 185.266 223.005 185.513C223.599 185.76 224.34 185.899 225.22 185.899H225.23Z" fill="#004E48"/>
<path d="M244.814 190.387V153.512H251.033V190.387H244.814Z" fill="#004E48"/>
<path d="M266.01 191C263.835 191 261.947 190.506 260.345 189.517C258.744 188.528 257.518 187.006 256.648 184.93C255.778 182.854 255.343 180.185 255.343 176.922C255.343 173.66 255.788 171.05 256.668 168.993C257.547 166.937 258.773 165.415 260.335 164.426C261.897 163.437 263.667 162.943 265.644 162.943C266.87 162.943 267.987 163.082 269.005 163.348C270.024 163.625 270.923 164.041 271.704 164.594C272.485 165.148 273.148 165.84 273.691 166.66H273.998V153.502H280.216V190.377H275.066L274.552 186.808H274.196C273.345 188.202 272.199 189.25 270.755 189.942C269.312 190.634 267.72 190.99 265.99 190.99L266.01 191ZM267.948 185.642C269.371 185.642 270.528 185.315 271.418 184.673C272.297 184.03 272.96 183.091 273.385 181.865C273.81 180.639 274.028 179.147 274.028 177.377V176.715C274.028 175.39 273.909 174.203 273.672 173.146C273.434 172.088 273.069 171.208 272.574 170.496C272.08 169.784 271.457 169.241 270.686 168.865C269.925 168.489 269.015 168.301 267.957 168.301C266.425 168.301 265.209 168.598 264.309 169.191C263.41 169.784 262.757 170.704 262.372 171.949C261.976 173.195 261.789 174.767 261.789 176.665V177.377C261.789 179.245 261.986 180.798 262.372 182.014C262.757 183.23 263.41 184.149 264.309 184.742C265.209 185.335 266.425 185.632 267.957 185.632L267.948 185.642Z" fill="#004E48"/>
<path d="M285.882 190.387V163.556H291.082L291.596 167.787H291.952C292.288 166.937 292.713 166.146 293.198 165.415C293.692 164.683 294.325 164.09 295.106 163.625C295.887 163.171 296.836 162.933 297.963 162.933C298.506 162.933 299.011 162.983 299.465 163.091C299.92 163.19 300.276 163.299 300.513 163.398V169.26H298.625C297.567 169.26 296.638 169.409 295.817 169.695C294.997 169.982 294.315 170.437 293.751 171.05C293.188 171.663 292.772 172.424 292.506 173.343C292.229 174.263 292.1 175.33 292.1 176.556V190.377H285.882V190.387Z" fill="#004E48"/>
<path d="M315.362 191C312.505 191 310.122 190.496 308.224 189.497C306.316 188.499 304.892 186.957 303.943 184.88C302.994 182.804 302.51 180.175 302.51 176.972C302.51 173.768 302.984 171.099 303.943 169.043C304.892 166.987 306.326 165.454 308.224 164.456C310.132 163.457 312.505 162.953 315.362 162.953C317.942 162.953 320.117 163.437 321.867 164.406C323.617 165.375 324.931 166.868 325.821 168.865C326.701 170.872 327.146 173.472 327.146 176.665V178.504H308.886C308.956 180.175 309.213 181.569 309.648 182.715C310.092 183.852 310.775 184.703 311.714 185.266C312.653 185.83 313.879 186.106 315.411 186.106C316.192 186.106 316.924 186.008 317.606 185.8C318.288 185.592 318.881 185.286 319.395 184.861C319.909 184.436 320.305 183.902 320.591 183.259C320.878 182.617 321.026 181.865 321.026 181.015H327.146C327.146 182.715 326.849 184.198 326.256 185.454C325.663 186.709 324.833 187.747 323.755 188.568C322.687 189.389 321.432 189.992 320.008 190.407C318.575 190.812 317.032 191.02 315.362 191.02V191ZM308.985 174.114H320.661C320.661 172.987 320.532 172.038 320.275 171.257C320.018 170.476 319.662 169.834 319.207 169.32C318.753 168.806 318.199 168.44 317.547 168.222C316.904 168.005 316.172 167.896 315.352 167.896C314.027 167.896 312.91 168.114 312.01 168.558C311.111 169.003 310.419 169.686 309.944 170.595C309.47 171.514 309.143 172.691 308.975 174.114H308.985Z" fill="#004E48"/>
<path d="M342.905 191C340.967 191 339.267 190.792 337.803 190.367C336.34 189.942 335.114 189.359 334.136 188.608C333.147 187.856 332.406 186.986 331.921 185.978C331.427 184.979 331.18 183.882 331.18 182.686C331.18 182.518 331.18 182.36 331.209 182.231C331.229 182.093 331.239 181.994 331.239 181.925H337.359V182.33C337.388 183.249 337.685 183.991 338.229 184.544C338.772 185.108 339.484 185.503 340.374 185.741C341.264 185.978 342.193 186.096 343.181 186.096C344.061 186.096 344.912 186.008 345.702 185.82C346.503 185.632 347.166 185.325 347.69 184.9C348.213 184.475 348.48 183.922 348.48 183.239C348.48 182.36 348.144 181.677 347.462 181.203C346.78 180.728 345.89 180.333 344.783 180.026C343.676 179.72 342.499 179.394 341.234 179.058C340.117 178.751 338.99 178.415 337.873 178.039C336.746 177.664 335.737 177.189 334.838 176.616C333.938 176.042 333.206 175.291 332.643 174.372C332.079 173.452 331.803 172.315 331.803 170.951C331.803 169.587 332.089 168.47 332.672 167.481C333.246 166.492 334.047 165.672 335.065 165.009C336.083 164.347 337.289 163.843 338.683 163.507C340.077 163.171 341.59 162.993 343.221 162.993C344.852 162.993 346.276 163.161 347.581 163.507C348.886 163.843 350.033 164.327 351.001 164.96C351.97 165.593 352.722 166.354 353.246 167.254C353.769 168.153 354.036 169.152 354.036 170.239C354.036 170.476 354.036 170.714 354.007 170.951C353.987 171.188 353.977 171.327 353.977 171.356H347.907V171C347.907 170.358 347.709 169.804 347.324 169.339C346.928 168.885 346.375 168.519 345.643 168.242C344.912 167.975 344.002 167.837 342.915 167.837C342.094 167.837 341.382 167.906 340.769 168.044C340.156 168.183 339.652 168.371 339.267 168.608C338.871 168.845 338.575 169.122 338.377 169.428C338.179 169.735 338.07 170.071 338.07 170.447C338.07 171.089 338.327 171.603 338.832 171.979C339.346 172.355 340.028 172.681 340.898 172.948C341.768 173.215 342.707 173.511 343.725 173.818C344.951 174.154 346.207 174.51 347.502 174.866C348.797 175.222 349.993 175.676 351.1 176.22C352.207 176.764 353.097 177.525 353.779 178.514C354.462 179.502 354.798 180.807 354.798 182.439C354.798 184.07 354.501 185.335 353.908 186.442C353.315 187.55 352.484 188.43 351.407 189.092C350.339 189.754 349.074 190.239 347.63 190.545C346.187 190.852 344.615 191 342.915 191H342.905Z" fill="#004E48"/>
</g>
<defs>
<clipPath id="clip0_6_3058">
<rect width="484.282" height="191" fill="white" transform="translate(0.972656)"/>
</clipPath>
</defs>
</svg>
