<svg width="485" height="200" viewBox="0 0 485 200" fill="none" xmlns="http://www.w3.org/2000/svg">
<g clip-path="url(#clip0_5_1494)">
<path d="M333.88 122.71C323.565 122.71 314.752 120.88 307.43 117.229C300.109 113.578 294.517 107.869 290.634 100.121C286.751 92.374 284.814 82.3708 284.814 70.1216C284.814 52.2523 289.132 39.0136 297.777 30.4253C306.422 21.8369 318.447 17.5329 333.87 17.5329C342.219 17.5329 349.758 18.9676 356.486 21.827C363.215 24.6964 368.57 29.0104 372.542 34.7887C376.524 40.567 378.51 47.8988 378.51 56.7839H358.917C358.917 51.8466 357.86 47.6712 355.745 44.2675C353.631 40.8638 350.706 38.2715 346.981 36.4905C343.247 34.7095 338.978 33.8289 334.166 33.8289C327.487 33.8289 321.935 35.135 317.518 37.757C313.101 40.379 309.831 44.2477 307.717 49.3829C305.602 54.5181 304.545 60.8901 304.545 68.489V71.7442C304.545 79.452 305.602 85.8635 307.717 90.9987C309.831 96.1339 313.072 99.9828 317.439 102.555C321.806 105.128 327.389 106.404 334.157 106.404C339.265 106.404 343.731 105.543 347.564 103.812C351.398 102.08 354.362 99.5178 356.476 96.1042C358.591 92.7006 359.648 88.5251 359.648 83.5878H378.51C378.51 92.473 376.543 99.8047 372.621 105.583C368.688 111.361 363.363 115.656 356.634 118.475C349.906 121.285 342.318 122.7 333.87 122.7L333.88 122.71Z" fill="#004E48"/>
<path d="M440.36 122.71C430.045 122.71 421.232 120.88 413.911 117.229C406.589 113.578 400.997 107.869 397.114 100.121C393.231 92.374 391.294 82.3708 391.294 70.1216C391.294 52.2523 395.612 39.0136 404.258 30.4253C412.903 21.8369 424.927 17.5329 440.351 17.5329C448.699 17.5329 456.238 18.9676 462.967 21.827C469.695 24.6964 475.05 29.0104 479.022 34.7887C483.004 40.567 484.99 47.8988 484.99 56.7839H465.397C465.397 51.8466 464.34 47.6712 462.226 44.2675C460.111 40.8638 457.187 38.2715 453.462 36.4905C449.727 34.7095 445.459 33.8289 440.647 33.8289C433.968 33.8289 428.415 35.135 423.998 37.757C419.582 40.379 416.312 44.2477 414.197 49.3829C412.083 54.5181 411.026 60.8901 411.026 68.489V71.7442C411.026 79.452 412.083 85.8635 414.197 90.9987C416.312 96.1339 419.552 99.9828 423.919 102.555C428.287 105.128 433.869 106.404 440.637 106.404C445.745 106.404 450.211 105.543 454.045 103.812C457.878 102.08 460.842 99.5178 462.957 96.1042C465.071 92.7006 466.128 88.5251 466.128 83.5878H484.99C484.99 92.473 483.024 99.8047 479.101 105.583C475.169 111.361 469.843 115.656 463.115 118.475C456.386 121.285 448.798 122.7 440.351 122.7L440.36 122.71Z" fill="#004E48"/>
<path d="M268.906 81.1538C267.227 77.7501 264.915 74.9302 261.961 72.7139C259.006 70.4876 255.657 68.9837 251.922 68.1922V67.5985C255.074 66.5101 257.9 64.9072 260.409 62.7799C262.919 60.6526 264.915 58.0207 266.387 54.8545C267.859 51.6982 268.6 48.1857 268.6 44.3368C268.6 39.3005 267.365 34.9074 264.905 31.1574C262.445 27.4075 259.075 24.4886 254.787 22.4207C250.509 20.3429 245.658 19.3139 240.243 19.3139H183.036V120.929H240.243C246.053 120.929 251.29 119.92 255.973 117.892C260.646 115.873 264.391 112.776 267.197 108.631C270.003 104.485 271.406 99.2506 271.406 92.9281C271.406 88.4855 270.566 84.5575 268.897 81.1538H268.906ZM202.244 35.7484H236.262C240.006 35.7484 243.03 36.7874 245.342 38.8553C247.654 40.9331 248.81 44.1389 248.81 48.4825C248.81 50.7582 248.296 52.8262 247.259 54.7061C246.221 56.586 244.7 58.0603 242.684 59.1487C240.668 60.2371 238.179 60.7812 235.224 60.7812H202.234V35.7484H202.244ZM247.713 101.15C245.105 103.377 241.785 104.485 237.744 104.485H202.244V76.9289H236.558C240.006 76.9289 242.832 77.5028 245.045 78.6307C247.259 79.7686 248.909 81.3715 249.995 83.4493C251.082 85.5271 251.616 87.9414 251.616 90.7118C251.616 95.4512 250.312 98.934 247.703 101.15H247.713Z" fill="#004E48"/>
<path d="M141.035 70.1216C141.035 108.848 109.684 140.243 71.0123 140.243C32.3406 140.243 1 108.838 1 70.1216C1 31.4048 32.3504 0 71.0222 0C109.694 0 141.044 31.3949 141.044 70.1216H141.035ZM73.2848 21.0355H68.7398C64.5802 21.0355 61.1715 24.449 61.1715 28.6146V33.166C61.1715 37.3315 64.5802 40.7451 68.7398 40.7451H73.2848C77.4445 40.7451 80.8532 37.3315 80.8532 33.166V28.6146C80.8532 24.449 77.4445 21.0355 73.2848 21.0355ZM96.563 44.4159H92.018C87.8584 44.4159 84.4496 47.8295 84.4496 51.995V56.5464C84.4496 60.712 87.8584 64.1255 92.018 64.1255H96.563C100.723 64.1255 104.131 60.712 104.131 56.5464V51.995C104.131 47.8295 100.723 44.4159 96.563 44.4159ZM73.2848 99.498H68.7398C64.5802 99.498 61.1715 102.912 61.1715 107.077V111.629C61.1715 115.794 64.5802 119.208 68.7398 119.208H73.2848C77.4445 119.208 80.8532 115.794 80.8532 111.629V107.077C80.8532 102.912 77.4445 99.498 73.2848 99.498ZM80.8532 56.4772V51.9258C80.8532 47.7602 77.4445 44.3467 73.2848 44.3467H45.4617C41.302 44.3467 37.8933 47.7602 37.8933 51.9258V56.4772C37.8933 60.6427 41.302 64.0563 45.4617 64.0563H61.1715V86.0317V88.3074C61.1715 92.473 64.5802 95.8866 68.7398 95.8866H73.2848C77.4445 95.8866 80.8532 92.473 80.8532 88.3074V83.756V56.4772Z" fill="#004E48"/>
<path d="M183.026 190.546V155.53H189.656V169.768H205.969V155.53H212.598V190.546H205.969V175.487H189.656V190.546H183.026Z" fill="#004E48"/>
<path d="M217.756 193L240.184 161.15H244.314L221.935 193H217.756ZM231.065 191.16C228.14 191.16 225.7 190.655 223.724 189.656C221.748 188.656 220.275 187.113 219.287 185.035C218.299 182.957 217.805 180.325 217.805 177.12C217.805 173.914 218.299 171.242 219.287 169.184C220.275 167.126 221.748 165.593 223.724 164.593C225.7 163.594 228.14 163.089 231.065 163.089C233.989 163.089 236.479 163.594 238.435 164.593C240.392 165.593 241.854 167.126 242.842 169.184C243.83 171.242 244.324 173.894 244.324 177.12C244.324 180.345 243.83 182.957 242.842 185.035C241.854 187.113 240.382 188.656 238.435 189.656C236.479 190.655 234.029 191.16 231.065 191.16ZM231.065 186.054C232.695 186.054 234.009 185.738 235.017 185.114C236.015 184.481 236.746 183.531 237.21 182.255C237.665 180.978 237.902 179.385 237.902 177.486V176.773C237.902 174.864 237.675 173.28 237.21 172.004C236.756 170.728 236.015 169.778 235.017 169.145C234.019 168.511 232.695 168.205 231.065 168.205C229.434 168.205 228.12 168.521 227.113 169.145C226.105 169.778 225.384 170.728 224.919 172.004C224.465 173.28 224.227 174.873 224.227 176.773V177.486C224.227 179.395 224.455 180.978 224.919 182.255C225.374 183.531 226.105 184.481 227.113 185.114C228.11 185.747 229.434 186.054 231.065 186.054Z" fill="#004E48"/>
<path d="M249.146 190.546V163.693H254.343L254.857 167.265H255.213C255.825 166.443 256.546 165.721 257.376 165.098C258.206 164.465 259.165 163.98 260.232 163.614C261.299 163.257 262.484 163.079 263.779 163.079C265.478 163.079 266.98 163.386 268.294 164C269.598 164.613 270.626 165.602 271.377 166.958C272.128 168.323 272.493 170.144 272.493 172.42V190.536H266.219V173.538C266.219 172.588 266.111 171.796 265.893 171.163C265.676 170.53 265.35 170.025 264.925 169.629C264.5 169.234 263.986 168.957 263.374 168.788C262.761 168.62 262.079 168.531 261.338 168.531C260.222 168.531 259.204 168.808 258.305 169.352C257.406 169.897 256.695 170.649 256.161 171.598C255.637 172.548 255.371 173.656 255.371 174.913V190.536H249.156L249.146 190.546Z" fill="#004E48"/>
<path d="M289.912 191.16C287.057 191.16 284.676 190.655 282.779 189.656C280.872 188.656 279.449 187.113 278.501 185.035C277.552 182.957 277.068 180.325 277.068 177.12C277.068 173.914 277.542 171.242 278.501 169.184C279.449 167.126 280.882 165.593 282.779 164.593C284.686 163.594 287.057 163.089 289.912 163.089C292.491 163.089 294.665 163.574 296.414 164.544C298.162 165.513 299.477 167.007 300.366 169.006C301.245 171.015 301.69 173.617 301.69 176.813V178.653H283.441C283.51 180.325 283.767 181.72 284.202 182.868C284.646 184.006 285.328 184.857 286.266 185.421C287.205 185.985 288.43 186.262 289.962 186.262C290.742 186.262 291.473 186.163 292.155 185.955C292.837 185.747 293.43 185.441 293.944 185.015C294.457 184.59 294.853 184.055 295.139 183.412C295.426 182.769 295.574 182.017 295.574 181.166H301.69C301.69 182.868 301.393 184.352 300.801 185.609C300.208 186.865 299.378 187.904 298.301 188.726C297.234 189.547 295.979 190.15 294.556 190.566C293.123 190.972 291.582 191.179 289.912 191.179V191.16ZM283.54 174.26H295.208C295.208 173.132 295.08 172.182 294.823 171.401C294.566 170.619 294.21 169.976 293.756 169.461C293.301 168.947 292.748 168.581 292.096 168.363C291.454 168.145 290.723 168.036 289.902 168.036C288.578 168.036 287.462 168.254 286.563 168.699C285.664 169.145 284.972 169.827 284.498 170.738C284.024 171.658 283.698 172.835 283.53 174.26H283.54Z" fill="#004E48"/>
<path d="M308.478 190.546V168.798H304.604V163.693H308.478V160.269C308.478 159.082 308.675 157.944 309.061 156.876C309.456 155.807 310.138 154.926 311.126 154.244C312.114 153.561 313.487 153.225 315.256 153.225C315.769 153.225 316.283 153.264 316.807 153.323C317.33 153.393 317.834 153.482 318.309 153.601C318.783 153.719 319.188 153.848 319.534 153.986V158.32H316.985C316.234 158.32 315.67 158.518 315.275 158.904C314.88 159.29 314.692 159.864 314.692 160.616V163.683H319.534V168.788H314.692V190.536H308.478V190.546Z" fill="#004E48"/>
<path d="M335.313 191.16C332.388 191.16 329.948 190.655 327.972 189.656C325.995 188.656 324.523 187.113 323.535 185.035C322.547 182.957 322.053 180.325 322.053 177.12C322.053 173.914 322.547 171.242 323.535 169.184C324.523 167.126 325.995 165.593 327.972 164.593C329.948 163.594 332.388 163.089 335.313 163.089C338.237 163.089 340.727 163.594 342.683 164.593C344.64 165.593 346.102 167.126 347.09 169.184C348.078 171.242 348.572 173.894 348.572 177.12C348.572 180.345 348.078 182.957 347.09 185.035C346.102 187.113 344.63 188.656 342.683 189.656C340.727 190.655 338.277 191.16 335.313 191.16ZM335.313 186.054C336.943 186.054 338.257 185.738 339.265 185.114C340.263 184.481 340.994 183.531 341.458 182.255C341.913 180.978 342.15 179.385 342.15 177.486V176.773C342.15 174.864 341.923 173.28 341.458 172.004C341.004 170.728 340.263 169.778 339.265 169.145C338.267 168.511 336.943 168.205 335.313 168.205C333.682 168.205 332.368 168.521 331.361 169.145C330.353 169.778 329.631 170.728 329.167 172.004C328.713 173.28 328.475 174.873 328.475 176.773V177.486C328.475 179.395 328.703 180.978 329.167 182.255C329.622 183.531 330.353 184.481 331.361 185.114C332.358 185.747 333.682 186.054 335.313 186.054Z" fill="#004E48"/>
<path d="M364.015 191.16C362.078 191.16 360.379 190.952 358.917 190.526C357.454 190.101 356.229 189.517 355.251 188.765C354.263 188.013 353.522 187.143 353.038 186.133C352.544 185.134 352.297 184.036 352.297 182.838C352.297 182.67 352.297 182.512 352.327 182.383C352.346 182.245 352.356 182.146 352.356 182.077H358.472V182.482C358.502 183.402 358.798 184.145 359.342 184.699C359.885 185.263 360.596 185.658 361.486 185.896C362.375 186.133 363.304 186.252 364.292 186.252C365.171 186.252 366.021 186.163 366.811 185.975C367.611 185.787 368.273 185.48 368.797 185.055C369.321 184.629 369.588 184.075 369.588 183.393C369.588 182.512 369.252 181.829 368.57 181.354C367.888 180.879 366.999 180.484 365.892 180.177C364.786 179.87 363.61 179.544 362.345 179.207C361.229 178.901 360.102 178.564 358.986 178.188C357.86 177.812 356.852 177.337 355.953 176.763C355.054 176.189 354.322 175.437 353.759 174.517C353.196 173.597 352.919 172.459 352.919 171.094C352.919 169.728 353.206 168.61 353.789 167.621C354.362 166.631 355.162 165.81 356.18 165.147C357.198 164.484 358.403 163.98 359.796 163.643C361.189 163.307 362.701 163.129 364.331 163.129C365.961 163.129 367.384 163.297 368.688 163.643C369.993 163.98 371.139 164.465 372.107 165.098C373.075 165.731 373.826 166.493 374.35 167.393C374.874 168.294 375.14 169.293 375.14 170.381C375.14 170.619 375.14 170.856 375.111 171.094C375.091 171.331 375.081 171.47 375.081 171.5H369.014V171.143C369.014 170.5 368.817 169.946 368.432 169.481C368.036 169.026 367.483 168.66 366.752 168.383C366.021 168.116 365.112 167.977 364.025 167.977C363.205 167.977 362.493 168.046 361.881 168.185C361.268 168.323 360.764 168.511 360.379 168.749C359.984 168.986 359.687 169.263 359.49 169.57C359.292 169.877 359.183 170.213 359.183 170.589C359.183 171.232 359.44 171.747 359.944 172.123C360.458 172.499 361.14 172.825 362.009 173.093C362.879 173.36 363.817 173.656 364.835 173.963C366.06 174.3 367.315 174.656 368.609 175.012C369.904 175.368 371.099 175.823 372.206 176.368C373.312 176.912 374.202 177.674 374.883 178.663C375.565 179.652 375.901 180.959 375.901 182.591C375.901 184.224 375.605 185.49 375.012 186.598C374.419 187.707 373.589 188.587 372.512 189.25C371.445 189.913 370.18 190.398 368.738 190.705C367.295 191.011 365.724 191.16 364.025 191.16H364.015Z" fill="#004E48"/>
<path d="M391.591 191.16C389.655 191.16 387.955 190.952 386.493 190.526C385.031 190.101 383.805 189.517 382.827 188.765C381.839 188.013 381.098 187.143 380.614 186.133C380.12 185.134 379.873 184.036 379.873 182.838C379.873 182.67 379.873 182.512 379.903 182.383C379.922 182.245 379.932 182.146 379.932 182.077H386.048V182.482C386.078 183.402 386.374 184.145 386.918 184.699C387.461 185.263 388.173 185.658 389.062 185.896C389.951 186.133 390.88 186.252 391.868 186.252C392.747 186.252 393.597 186.163 394.387 185.975C395.188 185.787 395.85 185.48 396.373 185.055C396.897 184.629 397.164 184.075 397.164 183.393C397.164 182.512 396.828 181.829 396.146 181.354C395.464 180.879 394.575 180.484 393.468 180.177C392.362 179.87 391.186 179.544 389.921 179.207C388.805 178.901 387.679 178.564 386.562 178.188C385.436 177.812 384.428 177.337 383.529 176.763C382.63 176.189 381.899 175.437 381.335 174.517C380.772 173.597 380.496 172.459 380.496 171.094C380.496 169.728 380.782 168.61 381.365 167.621C381.938 166.631 382.738 165.81 383.756 165.147C384.774 164.484 385.979 163.98 387.372 163.643C388.765 163.307 390.277 163.129 391.907 163.129C393.538 163.129 394.96 163.297 396.265 163.643C397.569 163.98 398.715 164.465 399.683 165.098C400.651 165.731 401.402 166.493 401.926 167.393C402.45 168.294 402.716 169.293 402.716 170.381C402.716 170.619 402.716 170.856 402.687 171.094C402.667 171.331 402.657 171.47 402.657 171.5H396.591V171.143C396.591 170.5 396.393 169.946 396.008 169.481C395.613 169.026 395.059 168.66 394.328 168.383C393.597 168.116 392.688 167.977 391.601 167.977C390.781 167.977 390.07 168.046 389.457 168.185C388.844 168.323 388.341 168.511 387.955 168.749C387.56 168.986 387.264 169.263 387.066 169.57C386.868 169.877 386.76 170.213 386.76 170.589C386.76 171.232 387.017 171.747 387.52 172.123C388.034 172.499 388.716 172.825 389.585 173.093C390.455 173.36 391.394 173.656 392.411 173.963C393.636 174.3 394.891 174.656 396.186 175.012C397.48 175.368 398.675 175.823 399.782 176.368C400.889 176.912 401.778 177.674 402.46 178.663C403.141 179.652 403.477 180.959 403.477 182.591C403.477 184.224 403.181 185.49 402.588 186.598C401.995 187.707 401.165 188.587 400.088 189.25C399.021 189.913 397.757 190.398 396.314 190.705C394.871 191.011 393.3 191.16 391.601 191.16H391.591Z" fill="#004E48"/>
</g>
<defs>
<clipPath id="clip0_5_1494">
<rect width="484" height="193" fill="white" transform="translate(1)"/>
</clipPath>
</defs>
</svg>
