<svg width="486" height="200" viewBox="0 0 486 200" fill="none" xmlns="http://www.w3.org/2000/svg">
<g clip-path="url(#clip0_5_1762)">
<path d="M333.624 122.81C323.286 122.81 314.453 120.978 307.115 117.324C299.777 113.67 294.172 107.957 290.281 100.203C286.389 92.4494 284.448 82.438 284.448 70.1788C284.448 52.295 288.776 39.0455 297.44 30.4501C306.105 21.8548 318.156 17.5472 333.614 17.5472C341.982 17.5472 349.537 18.9831 356.281 21.8449C363.024 24.7166 368.391 29.0341 372.372 34.8171C376.363 40.6002 378.353 47.9379 378.353 56.8303H358.717C358.717 51.889 357.657 47.7101 355.538 44.3037C353.419 40.8972 350.488 38.3028 346.755 36.5203C343.011 34.7379 338.734 33.8566 333.911 33.8566C327.217 33.8566 321.652 35.1637 317.225 37.7879C312.799 40.412 309.521 44.2839 307.402 49.4232C305.283 54.5626 304.223 60.9398 304.223 68.5449V71.8028C304.223 79.5168 305.283 85.9336 307.402 91.073C309.521 96.2124 312.769 100.064 317.146 102.639C321.523 105.214 327.118 106.491 333.901 106.491C339.021 106.491 343.497 105.63 347.339 103.897C351.181 102.164 354.152 99.599 356.271 96.1827C358.39 92.7762 359.449 88.5974 359.449 83.6561H378.353C378.353 92.5485 376.383 99.8862 372.451 105.669C368.51 111.452 363.173 115.75 356.429 118.572C349.686 121.384 342.081 122.8 333.614 122.8L333.624 122.81Z" fill="#004E48"/>
<path d="M440.343 122.81C430.004 122.81 421.171 120.978 413.834 117.324C406.496 113.67 400.891 107.957 397 100.203C393.108 92.4494 391.167 82.438 391.167 70.1788C391.167 52.295 395.494 39.0455 404.159 30.4501C412.824 21.8548 424.875 17.5472 440.333 17.5472C448.7 17.5472 456.256 18.9831 462.999 21.8449C469.743 24.7166 475.11 29.0341 479.091 34.8171C483.082 40.6002 485.072 47.9379 485.072 56.8303H465.435C465.435 51.889 464.376 47.7101 462.257 44.3037C460.138 40.8972 457.207 38.3028 453.473 36.5203C449.73 34.7379 445.452 33.8566 440.63 33.8566C433.936 33.8566 428.371 35.1637 423.944 37.7879C419.518 40.412 416.24 44.2839 414.121 49.4232C412.002 54.5626 410.942 60.9398 410.942 68.5449V71.8028C410.942 79.5168 412.002 85.9336 414.121 91.073C416.24 96.2124 419.488 100.064 423.865 102.639C428.242 105.214 433.837 106.491 440.62 106.491C445.739 106.491 450.215 105.63 454.058 103.897C457.9 102.164 460.87 99.599 462.99 96.1827C465.109 92.7762 466.168 88.5974 466.168 83.6561H485.072C485.072 92.5485 483.101 99.8862 479.17 105.669C475.229 111.452 469.892 115.75 463.148 118.572C456.404 121.384 448.799 122.8 440.333 122.8L440.343 122.81Z" fill="#004E48"/>
<path d="M268.505 81.22C266.822 77.8136 264.505 74.9914 261.544 72.7732C258.583 70.5452 255.226 69.04 251.483 68.2478V67.6537C254.642 66.5644 257.474 64.9602 259.989 62.8312C262.504 60.7021 264.505 58.0681 265.98 54.8993C267.455 51.7404 268.198 48.225 268.198 44.373C268.198 39.3326 266.96 34.9359 264.495 31.1829C262.029 27.4299 258.652 24.5087 254.355 22.439C250.067 20.3595 245.205 19.3297 239.778 19.3297H182.443V121.028H239.778C245.601 121.028 250.849 120.018 255.543 117.988C260.227 115.968 263.98 112.868 266.792 108.719C269.604 104.57 271.01 99.3316 271.01 93.004C271.01 88.5578 270.169 84.6265 268.495 81.22H268.505ZM201.693 35.7777H235.787C239.54 35.7777 242.571 36.8174 244.888 38.887C247.205 40.9665 248.364 44.1749 248.364 48.5221C248.364 50.7997 247.849 52.8693 246.809 54.7508C245.769 56.6322 244.244 58.1077 242.224 59.197C240.204 60.2862 237.708 60.8309 234.748 60.8309H201.683V35.7777H201.693ZM247.264 101.233C244.65 103.461 241.323 104.57 237.273 104.57H201.693V76.9917H236.084C239.54 76.9917 242.373 77.566 244.591 78.6949C246.809 79.8337 248.463 81.4379 249.552 83.5174C250.641 85.5969 251.176 88.0131 251.176 90.7858C251.176 95.5291 249.869 99.0148 247.254 101.233H247.264Z" fill="#004E48"/>
<path d="M140.348 70.1788C140.348 108.937 108.927 140.358 70.1688 140.358C31.4106 140.358 0 108.927 0 70.1788C0 31.4305 31.4205 6.10352e-05 70.1787 6.10352e-05C108.937 6.10352e-05 140.357 31.4206 140.357 70.1788H140.348ZM72.4464 21.0527H67.8913C63.7223 21.0527 60.306 24.469 60.306 28.638V33.1931C60.306 37.362 63.7223 40.7784 67.8913 40.7784H72.4464C76.6153 40.7784 80.0317 37.362 80.0317 33.1931V28.638C80.0317 24.469 76.6153 21.0527 72.4464 21.0527ZM95.7766 44.4522H91.2215C87.0525 44.4522 83.6362 47.8686 83.6362 52.0375V56.5926C83.6362 60.7616 87.0525 64.1779 91.2215 64.1779H95.7766C99.9455 64.1779 103.362 60.7616 103.362 56.5926V52.0375C103.362 47.8686 99.9455 44.4522 95.7766 44.4522ZM72.4464 99.5792H67.8913C63.7223 99.5792 60.306 102.996 60.306 107.164V111.72C60.306 115.889 63.7223 119.305 67.8913 119.305H72.4464C76.6153 119.305 80.0317 115.889 80.0317 111.72V107.164C80.0317 102.996 76.6153 99.5792 72.4464 99.5792ZM80.0317 56.5233V51.9682C80.0317 47.7992 76.6153 44.3829 72.4464 44.3829H44.5611C40.3921 44.3829 36.9758 47.7992 36.9758 51.9682V56.5233C36.9758 60.6922 40.3921 64.1086 44.5611 64.1086H60.306V86.102V88.3795C60.306 92.5485 63.7223 95.9648 67.8913 95.9648H72.4464C76.6153 95.9648 80.0317 92.5485 80.0317 88.3795V83.8244V56.5233Z" fill="#004E48"/>
<path d="M182.453 190.702V155.657H192.93L198.445 175.175C198.653 175.858 198.851 176.62 199.059 177.472C199.267 178.324 199.455 179.145 199.644 179.928C199.832 180.71 199.97 181.393 200.079 181.968H200.485C200.555 181.453 200.654 180.829 200.792 180.076C200.931 179.324 201.089 178.522 201.277 177.65C201.466 176.779 201.674 175.937 201.921 175.125L207.437 155.657H217.805V190.702H211.16V172.976C211.16 171.412 211.18 169.847 211.21 168.273C211.239 166.708 211.289 165.361 211.338 164.232C211.388 163.103 211.418 162.44 211.418 162.242H211.012C210.942 162.549 210.774 163.212 210.497 164.232C210.219 165.252 209.932 166.361 209.625 167.55C209.318 168.738 209.051 169.768 208.803 170.61L203.03 190.692H196.901L191.127 170.669C190.92 169.956 190.692 169.094 190.434 168.084C190.177 167.084 189.919 166.054 189.672 164.995C189.414 163.935 189.187 163.024 188.979 162.232H188.573C188.602 163.153 188.642 164.252 188.672 165.53C188.701 166.807 188.741 168.104 188.771 169.411C188.8 170.718 188.82 171.907 188.82 172.956V190.682H182.433L182.453 190.702Z" fill="#004E48"/>
<path d="M230.916 191.316C230.163 191.316 229.311 191.226 228.331 191.038C227.351 190.85 226.42 190.504 225.519 189.989C224.618 189.474 223.875 188.721 223.301 187.721C222.726 186.721 222.429 185.394 222.429 183.76C222.429 181.918 222.835 180.393 223.657 179.185C224.479 177.977 225.628 177.026 227.103 176.323C228.579 175.62 230.351 175.135 232.421 174.838C234.49 174.541 236.738 174.402 239.194 174.402V172.204C239.194 171.422 239.075 170.718 238.838 170.105C238.6 169.491 238.164 169.005 237.53 168.649C236.897 168.292 235.956 168.114 234.698 168.114C233.441 168.114 232.45 168.263 231.738 168.57C231.025 168.877 230.529 169.253 230.252 169.689C229.975 170.134 229.846 170.59 229.846 171.065V171.778H223.816C223.776 171.61 223.766 171.441 223.766 171.263V170.649C223.766 169.114 224.222 167.787 225.142 166.668C226.063 165.549 227.341 164.688 228.975 164.094C230.609 163.5 232.5 163.202 234.649 163.202C237.105 163.202 239.115 163.539 240.699 164.222C242.284 164.906 243.462 165.876 244.254 167.134C245.037 168.391 245.433 169.926 245.433 171.729V184.394C245.433 185.037 245.621 185.503 245.997 185.77C246.373 186.047 246.779 186.176 247.225 186.176H248.859V190.464C248.522 190.603 248.027 190.761 247.373 190.949C246.73 191.137 245.928 191.226 244.977 191.226C244.086 191.226 243.304 191.078 242.601 190.791C241.897 190.504 241.313 190.088 240.838 189.543C240.363 188.998 240.016 188.355 239.818 187.602H239.511C238.937 188.315 238.243 188.959 237.441 189.513C236.639 190.068 235.708 190.513 234.629 190.82C233.56 191.127 232.322 191.276 230.926 191.276L230.916 191.316ZM232.807 186.206C233.827 186.206 234.738 186.057 235.54 185.75C236.342 185.443 237.006 185.018 237.53 184.473C238.055 183.928 238.471 183.265 238.758 182.483C239.046 181.7 239.194 180.849 239.194 179.928V178.7C237.323 178.7 235.59 178.819 234.005 179.056C232.421 179.294 231.163 179.74 230.222 180.383C229.282 181.027 228.816 181.948 228.816 183.146C228.816 183.76 228.965 184.295 229.252 184.75C229.539 185.206 229.985 185.572 230.579 185.82C231.173 186.067 231.916 186.206 232.797 186.206H232.807ZM234.649 161.123C233.183 161.123 231.965 160.648 230.995 159.697C230.024 158.746 229.539 157.538 229.539 156.073C229.539 154.607 230.024 153.35 230.995 152.399C231.965 151.448 233.183 150.973 234.649 150.973C236.114 150.973 237.372 151.448 238.323 152.399C239.273 153.35 239.749 154.577 239.749 156.073C239.749 157.568 239.273 158.746 238.323 159.697C237.372 160.648 236.144 161.123 234.649 161.123ZM234.649 158.42C235.332 158.42 235.887 158.202 236.332 157.756C236.778 157.311 236.996 156.756 236.996 156.073C236.996 155.389 236.778 154.825 236.332 154.36C235.887 153.904 235.322 153.666 234.649 153.666C233.975 153.666 233.401 153.894 232.965 154.36C232.52 154.815 232.302 155.389 232.302 156.073C232.302 156.756 232.52 157.32 232.965 157.756C233.411 158.202 233.966 158.42 234.649 158.42Z" fill="#004E48"/>
<path d="M253.414 190.702V153.765H259.643V190.702H253.414Z" fill="#004E48"/>
<path d="M264.901 193.157L287.379 161.281H291.519L269.09 193.157H264.901ZM278.239 191.316C275.308 191.316 272.862 190.811 270.882 189.81C268.901 188.81 267.426 187.265 266.436 185.186C265.446 183.106 264.95 180.472 264.95 177.264C264.95 174.056 265.446 171.382 266.436 169.322C267.426 167.263 268.901 165.728 270.882 164.728C272.862 163.727 275.308 163.222 278.239 163.222C281.171 163.222 283.666 163.727 285.627 164.728C287.587 165.728 289.053 167.263 290.043 169.322C291.033 171.382 291.529 174.036 291.529 177.264C291.529 180.492 291.033 183.106 290.043 185.186C289.053 187.265 287.578 188.81 285.627 189.81C283.666 190.811 281.21 191.316 278.239 191.316ZM278.239 186.206C279.873 186.206 281.19 185.889 282.2 185.265C283.201 184.631 283.933 183.681 284.399 182.403C284.854 181.126 285.092 179.532 285.092 177.63V176.917C285.092 175.006 284.864 173.422 284.399 172.144C283.943 170.867 283.201 169.916 282.2 169.283C281.2 168.649 279.873 168.342 278.239 168.342C276.606 168.342 275.289 168.659 274.279 169.283C273.268 169.916 272.546 170.867 272.08 172.144C271.625 173.422 271.387 175.016 271.387 176.917V177.63C271.387 179.542 271.615 181.126 272.08 182.403C272.536 183.681 273.268 184.631 274.279 185.265C275.279 185.899 276.606 186.206 278.239 186.206Z" fill="#004E48"/>
<path d="M300.411 200C299.154 200 298.134 199.901 297.341 199.723C296.559 199.535 296.113 199.426 296.014 199.396V194.95H298.876C299.589 194.95 300.302 194.762 301.025 194.385C301.738 194.009 302.392 193.494 302.966 192.85C303.54 192.207 303.966 191.484 304.243 190.702L293.767 163.826H300.302L305.313 176.7C305.551 177.274 305.798 178.007 306.056 178.898C306.313 179.779 306.57 180.69 306.848 181.631C307.125 182.572 307.343 183.413 307.511 184.156H307.769C307.907 183.641 308.056 183.067 308.224 182.423C308.393 181.78 308.571 181.116 308.759 180.433C308.947 179.75 309.145 179.086 309.343 178.442C309.551 177.799 309.719 177.234 309.858 176.759L313.948 163.836H320.285L311.294 189.325C310.779 190.751 310.215 192.118 309.581 193.415C308.947 194.712 308.214 195.851 307.382 196.841C306.551 197.831 305.56 198.604 304.422 199.168C303.283 199.733 301.946 200.01 300.411 200.01V200Z" fill="#004E48"/>
</g>
<defs>
<clipPath id="clip0_5_1762">
<rect width="485.082" height="200" fill="white"/>
</clipPath>
</defs>
</svg>
