<svg width="486" height="200" viewBox="0 0 486 200" fill="none" xmlns="http://www.w3.org/2000/svg">
<g clip-path="url(#clip0_15_8562)">
<path d="M333.624 122.81C323.286 122.81 314.453 120.978 307.115 117.324C299.777 113.67 294.172 107.957 290.281 100.203C286.389 92.4493 284.448 82.4379 284.448 70.1787C284.448 52.2949 288.776 39.0454 297.44 30.45C306.105 21.8547 318.156 17.5471 333.614 17.5471C341.982 17.5471 349.537 18.983 356.281 21.8448C363.024 24.7165 368.391 29.034 372.372 34.817C376.363 40.6 378.353 47.9378 378.353 56.8302H358.717C358.717 51.8889 357.657 47.71 355.538 44.3036C353.419 40.8971 350.488 38.3027 346.755 36.5202C343.011 34.7378 338.734 33.8565 333.911 33.8565C327.217 33.8565 321.652 35.1636 317.225 37.7877C312.799 40.4119 309.521 44.2838 307.402 49.4231C305.283 54.5625 304.223 60.9397 304.223 68.5448V71.8027C304.223 79.5167 305.283 85.9335 307.402 91.0729C309.521 96.2123 312.769 100.064 317.146 102.639C321.523 105.214 327.118 106.491 333.901 106.491C339.021 106.491 343.497 105.63 347.339 103.897C351.181 102.164 354.152 99.5989 356.271 96.1826C358.39 92.7761 359.449 88.5973 359.449 83.6559H378.353C378.353 92.5484 376.383 99.8861 372.451 105.669C368.51 111.452 363.173 115.75 356.429 118.572C349.686 121.384 342.081 122.8 333.614 122.8L333.624 122.81Z" fill="#004E48"/>
<path d="M440.343 122.81C430.004 122.81 421.171 120.978 413.834 117.324C406.496 113.67 400.891 107.957 397 100.203C393.108 92.4493 391.167 82.4379 391.167 70.1787C391.167 52.2949 395.494 39.0454 404.159 30.45C412.824 21.8547 424.875 17.5471 440.333 17.5471C448.7 17.5471 456.256 18.983 462.999 21.8448C469.743 24.7165 475.11 29.034 479.091 34.817C483.082 40.6 485.072 47.9378 485.072 56.8302H465.435C465.435 51.8889 464.376 47.71 462.257 44.3036C460.138 40.8971 457.207 38.3027 453.473 36.5202C449.73 34.7378 445.452 33.8565 440.63 33.8565C433.936 33.8565 428.371 35.1636 423.944 37.7877C419.518 40.4119 416.24 44.2838 414.121 49.4231C412.002 54.5625 410.942 60.9397 410.942 68.5448V71.8027C410.942 79.5167 412.002 85.9335 414.121 91.0729C416.24 96.2123 419.488 100.064 423.865 102.639C428.242 105.214 433.837 106.491 440.62 106.491C445.739 106.491 450.215 105.63 454.058 103.897C457.9 102.164 460.87 99.5989 462.99 96.1826C465.109 92.7761 466.168 88.5973 466.168 83.6559H485.072C485.072 92.5484 483.101 99.8861 479.17 105.669C475.229 111.452 469.892 115.75 463.148 118.572C456.404 121.384 448.799 122.8 440.333 122.8L440.343 122.81Z" fill="#004E48"/>
<path d="M268.506 81.22C266.822 77.8135 264.505 74.9913 261.544 72.7732C258.583 70.5451 255.226 69.0399 251.483 68.2477V67.6536C254.642 66.5643 257.474 64.9601 259.99 62.8311C262.505 60.7021 264.505 58.068 265.981 54.8992C267.456 51.7403 268.199 48.225 268.199 44.3729C268.199 39.3326 266.961 34.9359 264.495 31.1828C262.029 27.4298 258.653 24.5086 254.355 22.439C250.067 20.3594 245.205 19.3296 239.779 19.3296H182.443V121.028H239.779C245.601 121.028 250.85 120.018 255.543 117.988C260.227 115.968 263.98 112.868 266.793 108.719C269.605 104.57 271.011 99.3316 271.011 93.0039C271.011 88.5577 270.169 84.6264 268.496 81.22H268.506ZM201.694 35.7776H235.788C239.541 35.7776 242.571 36.8173 244.888 38.8869C247.205 40.9665 248.364 44.1749 248.364 48.522C248.364 50.7996 247.849 52.8692 246.809 54.7507C245.77 56.6322 244.245 58.1076 242.225 59.1969C240.204 60.2862 237.709 60.8308 234.748 60.8308H201.684V35.7776H201.694ZM247.265 101.233C244.651 103.461 241.323 104.57 237.273 104.57H201.694V76.9916H236.085C239.541 76.9916 242.373 77.566 244.591 78.6948C246.809 79.8336 248.463 81.4378 249.552 83.5173C250.642 85.5968 251.176 88.0131 251.176 90.7858C251.176 95.529 249.869 99.0147 247.255 101.233H247.265Z" fill="#004E48"/>
<path d="M140.348 70.1787C140.348 108.937 108.927 140.357 70.1688 140.357C31.4106 140.357 0 108.927 0 70.1787C0 31.4304 31.4205 0 70.1787 0C108.937 0 140.357 31.4205 140.357 70.1787H140.348ZM72.4464 21.0526H67.8913C63.7223 21.0526 60.306 24.469 60.306 28.6379V33.193C60.306 37.362 63.7223 40.7783 67.8913 40.7783H72.4464C76.6153 40.7783 80.0317 37.362 80.0317 33.193V28.6379C80.0317 24.469 76.6153 21.0526 72.4464 21.0526ZM95.7766 44.4521H91.2215C87.0525 44.4521 83.6362 47.8685 83.6362 52.0374V56.5926C83.6362 60.7615 87.0525 64.1778 91.2215 64.1778H95.7766C99.9455 64.1778 103.362 60.7615 103.362 56.5926V52.0374C103.362 47.8685 99.9455 44.4521 95.7766 44.4521ZM72.4464 99.5791H67.8913C63.7223 99.5791 60.306 102.995 60.306 107.164V111.72C60.306 115.888 63.7223 119.305 67.8913 119.305H72.4464C76.6153 119.305 80.0317 115.888 80.0317 111.72V107.164C80.0317 102.995 76.6153 99.5791 72.4464 99.5791ZM80.0317 56.5232V51.9681C80.0317 47.7992 76.6153 44.3828 72.4464 44.3828H44.5611C40.3921 44.3828 36.9758 47.7992 36.9758 51.9681V56.5232C36.9758 60.6922 40.3921 64.1085 44.5611 64.1085H60.306V86.1019V88.3795C60.306 92.5484 63.7223 95.9648 67.8913 95.9648H72.4464C76.6153 95.9648 80.0317 92.5484 80.0317 88.3795V83.8243V56.5232Z" fill="#004E48"/>
<path d="M196.227 191.316C194.286 191.316 192.434 191.108 190.662 190.682C188.889 190.256 187.325 189.593 185.958 188.691C184.592 187.79 183.522 186.661 182.74 185.325C181.958 183.988 181.562 182.384 181.562 180.552C181.562 180.344 181.562 180.146 181.591 179.938C181.611 179.73 181.621 179.581 181.621 179.482H188.315C188.315 179.551 188.315 179.68 188.285 179.868C188.265 180.057 188.256 180.215 188.256 180.354C188.256 181.473 188.582 182.443 189.226 183.245C189.87 184.047 190.81 184.661 192.038 185.087C193.266 185.513 194.712 185.731 196.386 185.731C197.504 185.731 198.505 185.661 199.376 185.523C200.247 185.384 200.99 185.196 201.624 184.938C202.258 184.681 202.773 184.374 203.179 184.018C203.585 183.661 203.882 183.265 204.07 182.819C204.258 182.374 204.347 181.898 204.347 181.383C204.347 180.393 204.04 179.581 203.426 178.928C202.812 178.274 201.99 177.739 200.951 177.294C199.911 176.848 198.732 176.452 197.425 176.096C196.108 175.739 194.771 175.373 193.385 174.996C192.009 174.62 190.662 174.174 189.345 173.64C188.028 173.115 186.859 172.471 185.82 171.729C184.78 170.986 183.958 170.035 183.344 168.896C182.73 167.758 182.423 166.381 182.423 164.787C182.423 163.193 182.77 161.717 183.473 160.499C184.176 159.271 185.156 158.261 186.434 157.459C187.711 156.657 189.196 156.063 190.9 155.667C192.603 155.281 194.455 155.083 196.465 155.083C198.336 155.083 200.099 155.281 201.753 155.667C203.406 156.063 204.862 156.667 206.12 157.509C207.377 158.34 208.367 159.4 209.08 160.677C209.793 161.955 210.15 163.48 210.15 165.252V165.866H203.555V165.351C203.555 164.361 203.258 163.529 202.664 162.846C202.07 162.163 201.238 161.638 200.158 161.262C199.089 160.885 197.831 160.697 196.405 160.697C194.87 160.697 193.563 160.846 192.474 161.133C191.385 161.42 190.553 161.846 189.969 162.41C189.394 162.975 189.097 163.658 189.097 164.48C189.097 165.302 189.404 166.045 190.018 166.629C190.632 167.213 191.454 167.698 192.494 168.114C193.534 168.52 194.712 168.896 196.019 169.233C197.326 169.57 198.673 169.936 200.059 170.332C201.436 170.728 202.782 171.174 204.1 171.689C205.417 172.204 206.585 172.838 207.625 173.6C208.665 174.363 209.486 175.313 210.1 176.432C210.714 177.551 211.021 178.898 211.021 180.472C211.021 183.097 210.388 185.206 209.11 186.81C207.833 188.414 206.08 189.573 203.852 190.286C201.624 190.999 199.079 191.355 196.217 191.355L196.227 191.316Z" fill="#004E48"/>
<path d="M222.687 191.316C221.934 191.316 221.082 191.227 220.102 191.038C219.122 190.85 218.191 190.504 217.29 189.989C216.389 189.474 215.646 188.721 215.072 187.721C214.497 186.721 214.2 185.394 214.2 183.76C214.2 181.918 214.606 180.393 215.428 179.185C216.25 177.977 217.399 177.026 218.874 176.323C220.35 175.62 222.122 175.135 224.192 174.838C226.261 174.541 228.509 174.402 230.965 174.402V172.204C230.965 171.422 230.846 170.719 230.609 170.105C230.371 169.491 229.935 169.005 229.301 168.649C228.668 168.293 227.727 168.114 226.469 168.114C225.212 168.114 224.221 168.263 223.509 168.57C222.796 168.877 222.3 169.253 222.023 169.689C221.746 170.134 221.617 170.59 221.617 171.065V171.778H215.587C215.547 171.61 215.537 171.441 215.537 171.263V170.649C215.537 169.114 215.993 167.787 216.913 166.668C217.834 165.55 219.112 164.688 220.746 164.094C222.38 163.5 224.271 163.203 226.42 163.203C228.876 163.203 230.886 163.539 232.47 164.223C234.055 164.906 235.233 165.876 236.025 167.134C236.808 168.392 237.204 169.926 237.204 171.729V184.394C237.204 185.038 237.392 185.503 237.768 185.77C238.144 186.048 238.55 186.176 238.996 186.176H240.63V190.464C240.293 190.603 239.798 190.761 239.144 190.949C238.501 191.137 237.699 191.227 236.748 191.227C235.857 191.227 235.075 191.078 234.372 190.791C233.668 190.504 233.084 190.088 232.609 189.543C232.134 188.999 231.787 188.355 231.589 187.602H231.282C230.708 188.315 230.014 188.959 229.212 189.513C228.41 190.068 227.479 190.514 226.4 190.821C225.331 191.128 224.093 191.276 222.697 191.276L222.687 191.316ZM224.578 186.206C225.598 186.206 226.509 186.058 227.311 185.751C228.113 185.444 228.777 185.018 229.301 184.473C229.826 183.928 230.242 183.265 230.529 182.483C230.817 181.7 230.965 180.849 230.965 179.928V178.7C229.094 178.7 227.361 178.819 225.776 179.056C224.192 179.294 222.934 179.74 221.993 180.383C221.053 181.027 220.587 181.948 220.587 183.146C220.587 183.76 220.736 184.295 221.023 184.75C221.31 185.206 221.756 185.572 222.35 185.82C222.944 186.067 223.687 186.206 224.568 186.206H224.578Z" fill="#004E48"/>
<path d="M244.601 190.702V163.826H249.809L250.324 167.401H250.681C251.295 166.579 252.018 165.856 252.849 165.232C253.681 164.599 254.642 164.114 255.711 163.747C256.781 163.391 257.969 163.212 259.266 163.212C260.969 163.212 262.475 163.519 263.792 164.133C265.099 164.747 266.129 165.738 266.881 167.094C267.634 168.461 268 170.283 268 172.56V190.692H261.712V173.679C261.712 172.729 261.603 171.936 261.385 171.303C261.167 170.669 260.841 170.164 260.415 169.768C259.989 169.372 259.474 169.094 258.86 168.926C258.246 168.758 257.563 168.669 256.82 168.669C255.701 168.669 254.681 168.946 253.78 169.491C252.879 170.035 252.166 170.788 251.631 171.738C251.107 172.689 250.839 173.798 250.839 175.056V190.692H244.61L244.601 190.702Z" fill="#004E48"/>
<path d="M282.894 191.316C280.715 191.316 278.824 190.821 277.22 189.83C275.615 188.84 274.388 187.315 273.516 185.236C272.645 183.156 272.209 180.482 272.209 177.215C272.209 173.947 272.655 171.332 273.536 169.273C274.417 167.213 275.645 165.688 277.21 164.698C278.774 163.708 280.547 163.212 282.527 163.212C283.755 163.212 284.874 163.351 285.894 163.618C286.914 163.896 287.815 164.312 288.598 164.866C289.38 165.421 290.043 166.114 290.588 166.936H290.895V153.756H297.124V190.692H291.964L291.449 187.117H291.093C290.241 188.513 289.093 189.563 287.647 190.256C286.201 190.949 284.607 191.306 282.874 191.306L282.894 191.316ZM284.835 185.949C286.261 185.949 287.419 185.622 288.31 184.978C289.192 184.334 289.855 183.394 290.281 182.166C290.707 180.938 290.925 179.443 290.925 177.67V177.007C290.925 175.68 290.806 174.491 290.568 173.432C290.33 172.372 289.964 171.491 289.469 170.778C288.974 170.065 288.35 169.52 287.578 169.144C286.815 168.768 285.904 168.58 284.845 168.58C283.31 168.58 282.092 168.877 281.19 169.471C280.289 170.065 279.636 170.986 279.25 172.234C278.854 173.481 278.665 175.056 278.665 176.957V177.67C278.665 179.542 278.863 181.096 279.25 182.314C279.636 183.532 280.289 184.453 281.19 185.047C282.092 185.642 283.31 185.939 284.845 185.939L284.835 185.949Z" fill="#004E48"/>
<path d="M314.344 191.316C311.482 191.316 309.096 190.811 307.194 189.811C305.283 188.81 303.857 187.266 302.907 185.186C301.956 183.107 301.471 180.472 301.471 177.264C301.471 174.056 301.946 171.382 302.907 169.322C303.857 167.263 305.293 165.728 307.194 164.728C309.105 163.727 311.482 163.222 314.344 163.222C316.928 163.222 319.107 163.708 320.86 164.678C322.612 165.649 323.929 167.144 324.821 169.144C325.702 171.154 326.148 173.759 326.148 176.957V178.799H307.858C307.927 180.472 308.185 181.869 308.62 183.017C309.066 184.156 309.749 185.008 310.69 185.572C311.631 186.137 312.859 186.414 314.393 186.414C315.176 186.414 315.908 186.315 316.592 186.107C317.275 185.899 317.869 185.592 318.384 185.166C318.899 184.74 319.295 184.206 319.582 183.562C319.869 182.918 320.018 182.166 320.018 181.314H326.148C326.148 183.017 325.851 184.503 325.256 185.76C324.662 187.018 323.83 188.058 322.751 188.88C321.682 189.702 320.424 190.306 318.998 190.722C317.562 191.128 316.017 191.335 314.344 191.335V191.316ZM307.957 174.402H319.652C319.652 173.273 319.523 172.323 319.265 171.54C319.008 170.758 318.651 170.115 318.196 169.6C317.74 169.085 317.186 168.718 316.532 168.5C315.889 168.283 315.156 168.174 314.334 168.174C313.007 168.174 311.888 168.391 310.987 168.837C310.086 169.283 309.393 169.966 308.917 170.877C308.442 171.798 308.115 172.976 307.947 174.402H307.957Z" fill="#004E48"/>
<path d="M332.732 190.702V168.936H328.851V163.826H332.732V160.4C332.732 159.212 332.93 158.073 333.317 157.004C333.713 155.934 334.396 155.053 335.386 154.37C336.376 153.686 337.753 153.35 339.525 153.35C340.04 153.35 340.555 153.389 341.08 153.449C341.605 153.518 342.11 153.607 342.585 153.726C343.061 153.845 343.467 153.973 343.813 154.112V158.449H341.258C340.506 158.449 339.941 158.647 339.545 159.034C339.149 159.42 338.961 159.994 338.961 160.747V163.817H343.813V168.926H338.961V190.692H332.732V190.702Z" fill="#004E48"/>
<path d="M348.705 200C348.23 200 347.715 199.961 347.17 199.901C346.626 199.832 346.101 199.743 345.586 199.624C345.071 199.505 344.645 199.376 344.309 199.238V194.95H346.863C347.576 194.95 348.131 194.752 348.527 194.366C348.923 193.98 349.111 193.405 349.111 192.653V163.836H355.34V193.108C355.34 194.227 355.142 195.326 354.756 196.376C354.36 197.435 353.686 198.297 352.736 198.98C351.785 199.664 350.438 200 348.695 200H348.705ZM349.111 159.687V153.766H355.34V159.687H349.111Z" fill="#004E48"/>
<path d="M372.857 191.316C369.926 191.316 367.48 190.811 365.5 189.811C363.519 188.81 362.044 187.266 361.054 185.186C360.063 183.107 359.568 180.472 359.568 177.264C359.568 174.056 360.063 171.382 361.054 169.322C362.044 167.263 363.519 165.728 365.5 164.728C367.48 163.727 369.926 163.222 372.857 163.222C375.789 163.222 378.284 163.727 380.245 164.728C382.205 165.728 383.671 167.263 384.661 169.322C385.651 171.382 386.147 174.036 386.147 177.264C386.147 180.492 385.651 183.107 384.661 185.186C383.671 187.266 382.195 188.81 380.245 189.811C378.284 190.811 375.828 191.316 372.857 191.316ZM372.857 186.206C374.491 186.206 375.808 185.889 376.818 185.265C377.819 184.632 378.551 183.681 379.017 182.403C379.472 181.126 379.71 179.532 379.71 177.63V176.918C379.71 175.006 379.482 173.422 379.017 172.145C378.561 170.867 377.819 169.916 376.818 169.283C375.818 168.649 374.491 168.342 372.857 168.342C371.224 168.342 369.907 168.659 368.896 169.283C367.886 169.916 367.164 170.867 366.698 172.145C366.243 173.422 366.005 175.016 366.005 176.918V177.63C366.005 179.542 366.233 181.126 366.698 182.403C367.154 183.681 367.886 184.632 368.896 185.265C369.897 185.899 371.224 186.206 372.857 186.206Z" fill="#004E48"/>
<path d="M390.464 190.702V163.826H395.673L396.187 168.065H396.544C396.881 167.213 397.306 166.421 397.792 165.688C398.287 164.955 398.921 164.361 399.703 163.896C400.485 163.44 401.436 163.203 402.565 163.203C403.109 163.203 403.614 163.252 404.07 163.361C404.525 163.46 404.882 163.569 405.119 163.668V169.54H403.228C402.169 169.54 401.238 169.689 400.416 169.976C399.594 170.263 398.911 170.719 398.346 171.333C397.782 171.947 397.366 172.709 397.099 173.63C396.821 174.551 396.693 175.62 396.693 176.848V190.692H390.464V190.702Z" fill="#004E48"/>
<path d="M417.794 191.316C415.616 191.316 413.724 190.821 412.12 189.83C410.516 188.84 409.288 187.315 408.417 185.236C407.545 183.156 407.109 180.482 407.109 177.215C407.109 173.947 407.555 171.332 408.436 169.273C409.318 167.213 410.546 165.688 412.11 164.698C413.675 163.708 415.447 163.212 417.428 163.212C418.656 163.212 419.775 163.351 420.795 163.618C421.815 163.896 422.716 164.312 423.498 164.866C424.28 165.421 424.944 166.114 425.488 166.936H425.795V153.756H432.024V190.692H426.865L426.35 187.117H425.993C425.142 188.513 423.993 189.563 422.547 190.256C421.102 190.949 419.507 191.306 417.774 191.306L417.794 191.316ZM419.735 185.949C421.161 185.949 422.32 185.622 423.211 184.978C424.092 184.334 424.756 183.394 425.181 182.166C425.607 180.938 425.825 179.443 425.825 177.67V177.007C425.825 175.68 425.706 174.491 425.469 173.432C425.231 172.372 424.864 171.491 424.369 170.778C423.874 170.065 423.25 169.52 422.478 169.144C421.716 168.768 420.804 168.58 419.745 168.58C418.21 168.58 416.992 168.877 416.091 169.471C415.19 170.065 414.536 170.986 414.15 172.234C413.754 173.481 413.566 175.056 413.566 176.957V177.67C413.566 179.542 413.764 181.096 414.15 182.314C414.536 183.532 415.19 184.453 416.091 185.047C416.992 185.642 418.21 185.939 419.745 185.939L419.735 185.949Z" fill="#004E48"/>
</g>
<defs>
<clipPath id="clip0_15_8562">
<rect width="485.082" height="200" fill="white"/>
</clipPath>
</defs>
</svg>
