<svg width="486" height="200" viewBox="0 0 486 200" fill="none" xmlns="http://www.w3.org/2000/svg">
<g clip-path="url(#clip0_5_1861)">
<path d="M334.173 122.608C323.852 122.608 315.033 120.779 307.707 117.131C300.382 113.483 294.786 107.779 290.901 100.038C287.016 92.2969 285.078 82.302 285.078 70.063C285.078 52.2086 289.398 38.981 298.049 30.3998C306.699 21.8187 318.731 17.5182 334.163 17.5182C342.517 17.5182 350.06 18.9517 356.792 21.8088C363.525 24.6758 368.883 28.9861 372.857 34.7596C376.841 40.5331 378.828 47.8587 378.828 56.7365H359.224C359.224 51.8033 358.166 47.6314 356.051 44.2305C353.935 40.8297 351.009 38.2395 347.282 36.46C343.545 34.6805 339.274 33.8007 334.459 33.8007C327.776 33.8007 322.22 35.1056 317.801 37.7255C313.382 40.3453 310.11 44.2108 307.994 49.3417C305.879 54.4726 304.821 60.8392 304.821 68.4318V71.6843C304.821 79.3856 305.879 85.7918 307.994 90.9227C310.11 96.0536 313.352 99.8993 317.722 102.47C322.092 105.04 327.677 106.315 334.449 106.315C339.561 106.315 344.029 105.455 347.865 103.725C351.701 101.995 354.667 99.4347 356.782 96.024C358.898 92.6231 359.956 88.4512 359.956 83.518H378.828C378.828 92.3958 376.861 99.7214 372.936 105.495C369.001 111.268 363.673 115.559 356.94 118.376C350.208 121.184 342.615 122.598 334.163 122.598L334.173 122.608Z" fill="#004E48"/>
<path d="M440.715 122.608C430.394 122.608 421.575 120.779 414.249 117.131C406.924 113.483 401.328 107.779 397.443 100.038C393.558 92.2969 391.62 82.302 391.62 70.063C391.62 52.2086 395.94 38.981 404.591 30.3998C413.241 21.8187 425.273 17.5182 440.705 17.5182C449.059 17.5182 456.602 18.9517 463.334 21.8088C470.067 24.6758 475.425 28.9861 479.399 34.7596C483.383 40.5331 485.37 47.8587 485.37 56.7365H465.766C465.766 51.8033 464.708 47.6314 462.593 44.2305C460.477 40.8297 457.551 38.2395 453.824 36.46C450.087 34.6805 445.816 33.8007 441.001 33.8007C434.318 33.8007 428.762 35.1056 424.343 37.7255C419.924 40.3453 416.652 44.2108 414.536 49.3417C412.421 54.4726 411.363 60.8392 411.363 68.4318V71.6843C411.363 79.3856 412.421 85.7918 414.536 90.9227C416.652 96.0536 419.894 99.8993 424.264 102.47C428.634 105.04 434.219 106.315 440.991 106.315C446.103 106.315 450.571 105.455 454.407 103.725C458.243 101.995 461.209 99.4347 463.324 96.024C465.44 92.6231 466.498 88.4512 466.498 83.518H485.37C485.37 92.3958 483.403 99.7214 479.478 105.495C475.543 111.268 470.215 115.559 463.482 118.376C456.75 121.184 449.157 122.598 440.705 122.598L440.715 122.608Z" fill="#004E48"/>
<path d="M269.161 81.086C267.48 77.6852 265.167 74.8677 262.211 72.6532C259.255 70.4288 255.903 68.9261 252.166 68.1352V67.542C255.32 66.4546 258.147 64.853 260.658 62.7275C263.17 60.602 265.167 57.9723 266.64 54.8087C268.113 51.655 268.854 48.1455 268.854 44.2998C268.854 39.2677 267.618 34.8783 265.157 31.1314C262.695 27.3846 259.324 24.4682 255.033 22.402C250.753 20.3259 245.899 19.2977 240.481 19.2977H183.24V120.828H240.481C246.294 120.828 251.534 119.82 256.22 117.793C260.896 115.776 264.643 112.682 267.45 108.54C270.258 104.398 271.662 99.1678 271.662 92.8505C271.662 88.4117 270.821 84.4869 269.151 81.086H269.161ZM202.459 35.7186H236.497C240.244 35.7186 243.269 36.7566 245.582 38.8228C247.896 40.8989 249.052 44.102 249.052 48.442C249.052 50.7158 248.538 52.782 247.5 54.6604C246.462 56.5388 244.94 58.0118 242.923 59.0993C240.906 60.1868 238.415 60.7305 235.459 60.7305H202.449V35.7186H202.459ZM247.955 101.066C245.345 103.29 242.023 104.398 237.98 104.398H202.459V76.8647H236.793C240.244 76.8647 243.071 77.4381 245.286 78.5651C247.5 79.702 249.151 81.3035 250.239 83.3796C251.326 85.4557 251.86 87.8679 251.86 90.636C251.86 95.3715 250.555 98.8514 247.945 101.066H247.955Z" fill="#004E48"/>
<path d="M141.215 70.063C141.215 108.757 109.846 140.126 71.1517 140.126C32.4574 140.126 1.09863 108.747 1.09863 70.063C1.09863 31.3786 32.4673 0 71.1616 0C109.856 0 141.225 31.3687 141.225 70.063H141.215ZM73.4256 21.0179H68.8779C64.7159 21.0179 61.3052 24.4286 61.3052 28.5907V33.1383C61.3052 37.3004 64.7159 40.7111 68.8779 40.7111H73.4256C77.5876 40.7111 80.9983 37.3004 80.9983 33.1383V28.5907C80.9983 24.4286 77.5876 21.0179 73.4256 21.0179ZM96.7173 44.3788H92.1696C88.0076 44.3788 84.5969 47.7895 84.5969 51.9516V56.4992C84.5969 60.6613 88.0076 64.072 92.1696 64.072H96.7173C100.879 64.072 104.29 60.6613 104.29 56.4992V51.9516C104.29 47.7895 100.879 44.3788 96.7173 44.3788ZM73.4256 99.4149H68.8779C64.7159 99.4149 61.3052 102.826 61.3052 106.988V111.535C61.3052 115.697 64.7159 119.108 68.8779 119.108H73.4256C77.5876 119.108 80.9983 115.697 80.9983 111.535V106.988C80.9983 102.826 77.5876 99.4149 73.4256 99.4149ZM80.9983 56.43V51.8824C80.9983 47.7203 77.5876 44.3096 73.4256 44.3096H45.5862C41.4241 44.3096 38.0134 47.7203 38.0134 51.8824V56.43C38.0134 60.5921 41.4241 64.0028 45.5862 64.0028H61.3052V85.9599V88.2337C61.3052 92.3958 64.7159 95.8065 68.8779 95.8065H73.4256C77.5876 95.8065 80.9983 92.3958 80.9983 88.2337V83.6861V56.43Z" fill="#004E48"/>
<path d="M183.271 190.387V155.4H193.73L199.237 174.886C199.444 175.568 199.642 176.329 199.85 177.179C200.057 178.029 200.245 178.85 200.433 179.631C200.621 180.412 200.759 181.094 200.868 181.667H201.273C201.343 181.153 201.441 180.531 201.58 179.779C201.718 179.028 201.876 178.227 202.064 177.357C202.252 176.487 202.46 175.647 202.707 174.836L208.213 155.4H218.564V190.387H211.931V172.691C211.931 171.129 211.95 169.567 211.98 167.995C212.01 166.433 212.059 165.088 212.109 163.961C212.158 162.834 212.188 162.172 212.188 161.974H211.782C211.713 162.281 211.545 162.943 211.268 163.961C210.991 164.98 210.705 166.087 210.398 167.273C210.092 168.46 209.825 169.488 209.578 170.328L203.814 190.377H197.695L191.931 170.387C191.723 169.676 191.496 168.816 191.239 167.807C190.982 166.809 190.725 165.78 190.478 164.723C190.221 163.665 189.993 162.755 189.786 161.964H189.38C189.41 162.884 189.45 163.981 189.479 165.257C189.509 166.532 189.548 167.827 189.578 169.132C189.608 170.437 189.628 171.623 189.628 172.671V190.367H183.251L183.271 190.387Z" fill="#004E48"/>
<path d="M236.695 191C233.769 191 231.327 190.496 229.35 189.497C227.372 188.499 225.899 186.957 224.911 184.88C223.922 182.804 223.428 180.175 223.428 176.972C223.428 173.768 223.922 171.099 224.911 169.043C225.899 166.987 227.372 165.454 229.35 164.456C231.327 163.457 233.769 162.953 236.695 162.953C239.621 162.953 242.113 163.457 244.07 164.456C246.027 165.454 247.491 166.987 248.479 169.043C249.468 171.099 249.962 173.749 249.962 176.972C249.962 180.194 249.468 182.804 248.479 184.88C247.491 186.957 246.018 188.499 244.07 189.497C242.113 190.496 239.661 191 236.695 191ZM236.695 185.899C238.326 185.899 239.641 185.582 240.649 184.96C241.648 184.327 242.379 183.378 242.844 182.102C243.299 180.827 243.536 179.236 243.536 177.337V176.626C243.536 174.718 243.309 173.136 242.844 171.86C242.389 170.585 241.648 169.636 240.649 169.003C239.651 168.371 238.326 168.064 236.695 168.064C235.064 168.064 233.749 168.381 232.74 169.003C231.732 169.636 231.01 170.585 230.546 171.86C230.091 173.136 229.854 174.727 229.854 176.626V177.337C229.854 179.245 230.081 180.827 230.546 182.102C231.001 183.378 231.732 184.327 232.74 184.96C233.739 185.592 235.064 185.899 236.695 185.899Z" fill="#004E48"/>
<path d="M255.262 190.387V153.512H261.48V190.387H255.262Z" fill="#004E48"/>
<path d="M277.446 191C275.271 191 273.383 190.506 271.782 189.517C270.18 188.528 268.954 187.006 268.084 184.93C267.214 182.854 266.779 180.185 266.779 176.922C266.779 173.66 267.224 171.05 268.104 168.993C268.984 166.937 270.21 165.415 271.772 164.426C273.334 163.437 275.103 162.943 277.081 162.943C278.307 162.943 279.424 163.082 280.442 163.348C281.46 163.625 282.36 164.041 283.141 164.594C283.922 165.148 284.584 165.84 285.128 166.66H285.434V153.502H291.653V190.377H286.502L285.988 186.808H285.632C284.782 188.202 283.635 189.25 282.192 189.942C280.748 190.634 279.157 190.99 277.427 190.99L277.446 191ZM279.384 185.642C280.808 185.642 281.964 185.315 282.854 184.673C283.734 184.03 284.396 183.091 284.821 181.865C285.247 180.639 285.464 179.147 285.464 177.377V176.715C285.464 175.39 285.345 174.203 285.108 173.146C284.871 172.088 284.505 171.208 284.011 170.496C283.517 169.784 282.894 169.241 282.123 168.865C281.361 168.489 280.452 168.301 279.394 168.301C277.862 168.301 276.646 168.598 275.746 169.191C274.846 169.784 274.194 170.704 273.808 171.949C273.413 173.195 273.225 174.767 273.225 176.665V177.377C273.225 179.245 273.423 180.798 273.808 182.014C274.194 183.23 274.846 184.149 275.746 184.742C276.646 185.335 277.862 185.632 279.394 185.632L279.384 185.642Z" fill="#004E48"/>
<path d="M309.833 191C306.976 191 304.594 190.496 302.696 189.497C300.788 188.499 299.364 186.957 298.415 184.88C297.466 182.804 296.981 180.175 296.981 176.972C296.981 173.768 297.456 171.099 298.415 169.043C299.364 166.987 300.797 165.454 302.696 164.456C304.604 163.457 306.976 162.953 309.833 162.953C312.414 162.953 314.589 163.437 316.338 164.406C318.088 165.375 319.403 166.868 320.293 168.865C321.173 170.872 321.618 173.472 321.618 176.665V178.504H303.358C303.427 180.175 303.684 181.569 304.119 182.715C304.564 183.852 305.246 184.703 306.185 185.266C307.125 185.83 308.35 186.106 309.883 186.106C310.664 186.106 311.395 186.008 312.078 185.8C312.76 185.592 313.353 185.286 313.867 184.861C314.381 184.436 314.776 183.902 315.063 183.259C315.35 182.617 315.498 181.865 315.498 181.015H321.618C321.618 182.715 321.321 184.198 320.728 185.454C320.135 186.709 319.304 187.747 318.227 188.568C317.159 189.389 315.903 189.992 314.48 190.407C313.046 190.812 311.504 191.02 309.833 191.02V191ZM303.457 174.114H315.132C315.132 172.987 315.004 172.038 314.747 171.257C314.49 170.476 314.134 169.834 313.679 169.32C313.224 168.806 312.671 168.44 312.018 168.222C311.376 168.005 310.644 167.896 309.824 167.896C308.499 167.896 307.382 168.114 306.482 168.558C305.582 169.003 304.89 169.686 304.416 170.595C303.941 171.514 303.615 172.691 303.447 174.114H303.457Z" fill="#004E48"/>
</g>
<defs>
<clipPath id="clip0_5_1861">
<rect width="484.282" height="191" fill="white" transform="translate(1.09863)"/>
</clipPath>
</defs>
</svg>
