<svg width="485" height="200" viewBox="0 0 485 200" fill="none" xmlns="http://www.w3.org/2000/svg">
<g clip-path="url(#clip0_5_1623)">
<path d="M333.707 122.608C323.386 122.608 314.568 120.779 307.242 117.131C299.917 113.483 294.321 107.779 290.436 100.038C286.55 92.2969 284.613 82.302 284.613 70.063C284.613 52.2086 288.933 38.981 297.583 30.3998C306.234 21.8187 318.265 17.5182 333.697 17.5182C342.051 17.5182 349.594 18.9517 356.327 21.8088C363.059 24.6758 368.418 28.9861 372.392 34.7596C376.376 40.5331 378.363 47.8587 378.363 56.7365H358.759C358.759 51.8033 357.701 47.6314 355.585 44.2305C353.47 40.8297 350.543 38.2395 346.816 36.46C343.079 34.6805 338.809 33.8007 333.994 33.8007C327.311 33.8007 321.755 35.1056 317.336 37.7255C312.917 40.3453 309.644 44.2108 307.529 49.3417C305.413 54.4726 304.355 60.8392 304.355 68.4318V71.6843C304.355 79.3856 305.413 85.7918 307.529 90.9227C309.644 96.0536 312.887 99.8993 317.257 102.47C321.626 105.04 327.212 106.315 333.984 106.315C339.095 106.315 343.564 105.455 347.4 103.725C351.235 101.995 354.201 99.4347 356.317 96.024C358.433 92.6231 359.49 88.4512 359.49 83.518H378.363C378.363 92.3958 376.396 99.7214 372.471 105.495C368.536 111.268 363.208 115.559 356.475 118.376C349.743 121.184 342.15 122.598 333.697 122.598L333.707 122.608Z" fill="#004E48"/>
<path d="M440.25 122.608C429.929 122.608 421.111 120.779 413.785 117.131C406.46 113.483 400.864 107.779 396.979 100.038C393.093 92.2969 391.156 82.302 391.156 70.063C391.156 52.2086 395.476 38.981 404.126 30.3998C412.777 21.8187 424.808 17.5182 440.24 17.5182C448.594 17.5182 456.137 18.9517 462.87 21.8088C469.602 24.6758 474.96 28.9861 478.935 34.7596C482.919 40.5331 484.906 47.8587 484.906 56.7365H465.302C465.302 51.8033 464.244 47.6314 462.128 44.2305C460.013 40.8297 457.086 38.2395 453.359 36.46C449.622 34.6805 445.352 33.8007 440.537 33.8007C433.854 33.8007 428.298 35.1056 423.879 37.7255C419.46 40.3453 416.187 44.2108 414.072 49.3417C411.956 54.4726 410.898 60.8392 410.898 68.4318V71.6843C410.898 79.3856 411.956 85.7918 414.072 90.9227C416.187 96.0536 419.43 99.8993 423.8 102.47C428.169 105.04 433.755 106.315 440.527 106.315C445.638 106.315 450.107 105.455 453.943 103.725C457.778 101.995 460.744 99.4347 462.86 96.024C464.975 92.6231 466.033 88.4512 466.033 83.518H484.906C484.906 92.3958 482.939 99.7214 479.014 105.495C475.079 111.268 469.75 115.559 463.018 118.376C456.286 121.184 448.693 122.598 440.24 122.598L440.25 122.608Z" fill="#004E48"/>
<path d="M268.696 81.086C267.016 77.6852 264.702 74.8677 261.746 72.6532C258.79 70.4288 255.439 68.9261 251.702 68.1352V67.542C254.856 66.4546 257.683 64.853 260.194 62.7275C262.705 60.602 264.702 57.9723 266.175 54.8087C267.648 51.655 268.39 48.1455 268.39 44.2998C268.39 39.2677 267.154 34.8783 264.692 31.1314C262.231 27.3846 258.86 24.4682 254.569 22.402C250.288 20.3259 245.434 19.2977 240.017 19.2977H182.776V120.828H240.017C245.83 120.828 251.069 119.82 255.755 117.793C260.431 115.776 264.178 112.682 266.986 108.54C269.794 104.398 271.197 99.1678 271.197 92.8505C271.197 88.4117 270.357 84.4869 268.686 81.086H268.696ZM201.995 35.7186H236.032C239.779 35.7186 242.804 36.7566 245.118 38.8228C247.431 40.8989 248.588 44.102 248.588 48.442C248.588 50.7158 248.074 52.782 247.036 54.6604C245.998 56.5388 244.475 58.0118 242.458 59.0993C240.442 60.1868 237.95 60.7305 234.994 60.7305H201.985V35.7186H201.995ZM247.49 101.066C244.881 103.29 241.559 104.398 237.515 104.398H201.995V76.8647H236.329C239.779 76.8647 242.607 77.4381 244.821 78.5651C247.036 79.702 248.687 81.3035 249.774 83.3796C250.862 85.4557 251.395 87.8679 251.395 90.636C251.395 95.3715 250.091 98.8514 247.481 101.066H247.49Z" fill="#004E48"/>
<path d="M140.75 70.063C140.75 108.757 109.381 140.126 70.6869 140.126C31.9926 140.126 0.633789 108.747 0.633789 70.063C0.633789 31.3786 32.0025 0 70.6968 0C109.391 0 140.76 31.3687 140.76 70.063H140.75ZM72.9607 21.0179H68.4131C64.251 21.0179 60.8403 24.4286 60.8403 28.5907V33.1383C60.8403 37.3004 64.251 40.7111 68.4131 40.7111H72.9607C77.1228 40.7111 80.5335 37.3004 80.5335 33.1383V28.5907C80.5335 24.4286 77.1228 21.0179 72.9607 21.0179ZM96.2524 44.3788H91.7048C87.5427 44.3788 84.132 47.7895 84.132 51.9516V56.4992C84.132 60.6613 87.5427 64.072 91.7048 64.072H96.2524C100.414 64.072 103.825 60.6613 103.825 56.4992V51.9516C103.825 47.7895 100.414 44.3788 96.2524 44.3788ZM72.9607 99.4149H68.4131C64.251 99.4149 60.8403 102.826 60.8403 106.988V111.535C60.8403 115.697 64.251 119.108 68.4131 119.108H72.9607C77.1228 119.108 80.5335 115.697 80.5335 111.535V106.988C80.5335 102.826 77.1228 99.4149 72.9607 99.4149ZM80.5335 56.43V51.8824C80.5335 47.7203 77.1228 44.3096 72.9607 44.3096H45.1214C40.9593 44.3096 37.5486 47.7203 37.5486 51.8824V56.43C37.5486 60.5921 40.9593 64.0028 45.1214 64.0028H60.8403V85.9599V88.2337C60.8403 92.3958 64.251 95.8065 68.4131 95.8065H72.9607C77.1228 95.8065 80.5335 92.3958 80.5335 88.2337V83.6861V56.43Z" fill="#004E48"/>
<path d="M182.598 190.387V155.4H189.231V169.626H205.553V155.4H212.187V190.387H205.553V175.34H189.231V190.387H182.598Z" fill="#004E48"/>
<path d="M230.318 191C227.392 191 224.95 190.496 222.973 189.497C220.995 188.499 219.522 186.957 218.534 184.88C217.545 182.804 217.051 180.175 217.051 176.972C217.051 173.768 217.545 171.099 218.534 169.043C219.522 166.987 220.995 165.454 222.973 164.456C224.95 163.457 227.392 162.953 230.318 162.953C233.244 162.953 235.736 163.457 237.693 164.456C239.65 165.454 241.114 166.987 242.102 169.043C243.091 171.099 243.585 173.749 243.585 176.972C243.585 180.194 243.091 182.804 242.102 184.88C241.114 186.957 239.641 188.499 237.693 189.497C235.736 190.496 233.284 191 230.318 191ZM230.318 185.899C231.949 185.899 233.264 185.582 234.272 184.96C235.271 184.327 236.002 183.378 236.467 182.102C236.922 180.827 237.159 179.236 237.159 177.337V176.626C237.159 174.718 236.932 173.136 236.467 171.86C236.012 170.585 235.271 169.636 234.272 169.003C233.274 168.371 231.949 168.064 230.318 168.064C228.687 168.064 227.372 168.381 226.364 169.003C225.355 169.636 224.633 170.585 224.169 171.86C223.714 173.136 223.477 174.727 223.477 176.626V177.337C223.477 179.245 223.704 180.827 224.169 182.102C224.624 183.378 225.355 184.327 226.364 184.96C227.362 185.592 228.687 185.899 230.318 185.899Z" fill="#004E48"/>
<path d="M247.896 190.387V163.556H253.096L253.61 167.787H253.966C254.302 166.937 254.727 166.146 255.211 165.415C255.706 164.683 256.338 164.09 257.119 163.625C257.9 163.171 258.849 162.933 259.976 162.933C260.52 162.933 261.024 162.983 261.479 163.091C261.934 163.19 262.29 163.299 262.527 163.398V169.26H260.639C259.581 169.26 258.652 169.409 257.831 169.695C257.011 169.982 256.328 170.437 255.765 171.05C255.201 171.663 254.786 172.424 254.519 173.343C254.242 174.263 254.114 175.33 254.114 176.556V190.377H247.896V190.387Z" fill="#004E48"/>
<path d="M276.417 191C274.746 191 273.441 190.674 272.492 190.002C271.543 189.329 270.871 188.489 270.475 187.451C270.08 186.413 269.892 185.355 269.892 184.268V168.657H266.679V163.556H270.041L271.168 156.062H276.111V163.556H280.757V168.657H276.111V183.655C276.111 184.366 276.298 184.92 276.674 185.315C277.05 185.711 277.613 185.899 278.355 185.899H280.747V190.179C280.411 190.318 279.986 190.446 279.502 190.565C279.007 190.684 278.493 190.783 277.949 190.872C277.406 190.951 276.892 191 276.417 191Z" fill="#004E48"/>
<path d="M296.862 191C294.005 191 291.622 190.496 289.724 189.497C287.816 188.499 286.392 186.957 285.443 184.88C284.494 182.804 284.01 180.175 284.01 176.972C284.01 173.768 284.484 171.099 285.443 169.043C286.392 166.987 287.826 165.454 289.724 164.456C291.632 163.457 294.005 162.953 296.862 162.953C299.442 162.953 301.617 163.437 303.367 164.406C305.117 165.375 306.431 166.868 307.321 168.865C308.201 170.872 308.646 173.472 308.646 176.665V178.504H290.386C290.456 180.175 290.713 181.569 291.148 182.715C291.592 183.852 292.275 184.703 293.214 185.266C294.153 185.83 295.379 186.106 296.911 186.106C297.692 186.106 298.424 186.008 299.106 185.8C299.788 185.592 300.381 185.286 300.895 184.861C301.409 184.436 301.805 183.902 302.091 183.259C302.378 182.617 302.526 181.865 302.526 181.015H308.646C308.646 182.715 308.349 184.198 307.756 185.454C307.163 186.709 306.333 187.747 305.255 188.568C304.187 189.389 302.932 189.992 301.508 190.407C300.075 190.812 298.532 191.02 296.862 191.02V191ZM290.485 174.114H302.161C302.161 172.987 302.032 172.038 301.775 171.257C301.518 170.476 301.162 169.834 300.707 169.32C300.253 168.806 299.699 168.44 299.047 168.222C298.404 168.005 297.672 167.896 296.852 167.896C295.527 167.896 294.41 168.114 293.51 168.558C292.611 169.003 291.919 169.686 291.444 170.595C290.97 171.514 290.643 172.691 290.475 174.114H290.485Z" fill="#004E48"/>
<path d="M312.966 190.387V163.556H318.166L318.68 167.125H319.036C319.649 166.304 320.371 165.583 321.201 164.96C322.031 164.327 322.99 163.843 324.058 163.477C325.126 163.121 326.312 162.943 327.607 162.943C329.308 162.943 330.81 163.25 332.125 163.863C333.43 164.476 334.458 165.464 335.21 166.819C335.961 168.183 336.327 170.002 336.327 172.276V190.377H330.049V173.393C330.049 172.444 329.94 171.653 329.723 171.02C329.505 170.387 329.179 169.883 328.754 169.488C328.329 169.092 327.815 168.816 327.202 168.647C326.589 168.479 325.907 168.39 325.165 168.39C324.048 168.39 323.03 168.667 322.13 169.211C321.231 169.755 320.519 170.506 319.985 171.455C319.461 172.404 319.194 173.511 319.194 174.767V190.377H312.976L312.966 190.387Z" fill="#004E48"/>
</g>
<defs>
<clipPath id="clip0_5_1623">
<rect width="484.282" height="191" fill="white" transform="translate(0.633789)"/>
</clipPath>
</defs>
</svg>
