<svg width="1223" height="200" viewBox="0 0 1223 200" fill="none" xmlns="http://www.w3.org/2000/svg">
<g clip-path="url(#clip0_950_20)">
<path d="M475.141 175.016C462.086 175.39 449.157 172.705 437.352 167.208C426.858 161.961 418.426 153.404 413.367 142.786C407.87 131.793 405.122 117.489 405.122 99.9375C405.122 74.4535 411.305 55.5902 423.61 43.3479C435.915 31.1055 453.092 24.9844 475.141 24.9844C486.196 24.797 497.189 26.9207 507.433 31.1055C516.677 34.9157 524.672 41.3491 530.356 49.594C536.352 58.9631 539.288 69.8938 538.788 80.9494H510.806C510.993 74.7033 509.432 68.5197 506.309 63.0856C503.31 58.2761 498.938 54.4035 493.816 52.03C488.132 49.4691 481.886 48.2199 475.64 48.3448C467.333 48.0325 459.151 50.0312 451.843 53.9663C445.409 57.7764 440.475 63.5852 437.726 70.5184C434.478 79.2005 432.917 88.4447 433.229 97.7514V102.436C432.917 111.805 434.478 121.112 437.726 129.856C440.35 136.727 445.284 142.536 451.593 146.346C458.214 149.656 465.522 151.468 472.892 151.78C480.325 152.092 487.695 150.843 494.566 148.157C499.813 145.846 504.247 142.036 507.308 137.164C510.493 131.793 512.055 125.609 511.805 119.363H538.726C539.163 130.418 536.227 141.349 530.294 150.718C524.672 158.963 516.74 165.334 507.495 169.082C497.189 173.204 486.134 175.265 475.016 175.078L475.141 175.016Z" fill="#004E48"/>
<path d="M627.108 175.016C614.116 175.39 601.187 172.705 589.382 167.208C578.888 161.961 570.456 153.404 565.397 142.786C559.775 131.793 556.964 117.489 557.089 100C557.089 74.516 563.273 55.6527 575.578 43.4104C587.883 31.168 605.059 25.0469 627.108 25.0469C638.164 24.8595 649.157 26.9832 659.4 31.168C668.645 34.9782 676.64 41.4116 682.324 49.6565C688.32 58.9632 691.255 69.9563 690.756 81.0119H662.836C663.023 74.7658 661.462 68.5822 658.276 63.1481C655.278 58.3386 650.906 54.466 645.784 52.0925C640.038 49.4691 633.791 48.1574 627.483 48.2823C619.176 47.97 610.993 49.9688 603.748 53.9038C597.314 57.714 592.38 63.5228 589.632 70.456C586.384 79.1381 584.822 88.3823 585.072 97.689V102.311C584.822 111.68 586.321 120.987 589.632 129.731C592.255 136.602 597.189 142.411 603.498 146.221C610.119 149.532 617.364 151.343 624.797 151.655C632.167 151.968 639.6 150.718 646.471 148.033C651.718 145.721 656.152 141.911 659.213 137.039C662.336 131.668 663.898 125.484 663.71 119.238H690.631C691.068 130.294 688.132 141.224 682.199 150.593C676.577 158.838 668.645 165.209 659.4 168.957C649.157 173.079 638.164 175.078 627.108 174.953V175.016Z" fill="#004E48"/>
<path d="M382.386 115.803C380.075 111.056 376.702 106.933 372.455 103.748C368.207 100.562 363.335 98.376 358.151 97.3142V96.4397C362.586 94.9407 366.708 92.6296 370.269 89.569C373.891 86.5084 376.765 82.6359 378.701 78.2636C380.887 73.579 381.949 68.4572 381.886 63.273C382.011 56.6521 380.2 50.0937 376.64 44.4722C373.079 39.0381 368.082 34.7283 362.211 31.98C355.715 28.9194 348.595 27.4204 341.474 27.5453H259.9V172.392H341.537C349.282 172.517 356.964 171.081 364.085 168.082C370.581 165.334 376.14 160.712 380.075 154.903C384.322 148.22 386.384 140.412 386.071 132.48C386.134 126.671 384.884 120.924 382.386 115.678V115.803ZM287.258 51.0931H335.853C340.6 50.9057 345.222 52.4672 348.782 55.5278C350.531 57.3392 351.905 59.4628 352.78 61.8364C353.654 64.2099 353.966 66.7083 353.779 69.2692C353.779 72.3298 353.029 75.3904 351.593 78.1387C350.094 80.8245 347.783 83.0731 345.034 84.5097C341.724 86.1337 338.101 86.9457 334.416 86.8207H287.32V51.1555L287.258 51.0931ZM352.092 144.285C348.095 147.533 343.098 149.219 337.976 149.032H287.196V109.744H336.165C340.35 109.619 344.472 110.431 348.282 112.18C351.28 113.679 353.779 116.052 355.34 119.051C356.964 122.236 357.714 125.796 357.651 129.419C357.651 136.165 355.778 141.099 352.092 144.285Z" fill="#004E48"/>
<path d="M199.875 99.9375C199.875 119.738 194.004 139.038 183.073 155.465C172.08 171.893 156.465 184.697 138.226 192.317C119.988 199.875 99.8751 201.874 80.4497 198.001C61.0868 194.129 43.223 184.635 29.2942 170.643C15.3029 156.652 5.80887 138.851 1.93629 119.488C-1.93629 100.062 -5.52472e-07 79.95 7.62024 61.7114C15.178 43.4728 27.9825 27.8576 44.4097 16.8645C60.837 5.87133 80.1999 0 99.9375 0C126.421 0 151.843 10.5559 170.581 29.2942C189.319 48.0325 199.875 73.4541 199.875 99.9375ZM103.186 29.9813H96.6896C93.8164 29.9813 91.0681 31.168 89.0693 33.1668C87.0706 35.1655 85.8838 37.9138 85.8838 40.787V47.2829C85.8838 50.1562 87.0081 52.9044 89.0693 54.9032C91.0681 56.9019 93.8164 58.0887 96.6896 58.0887H103.186C106.059 58.0887 108.807 56.9644 110.806 54.9032C112.804 52.9044 113.991 50.1562 113.991 47.2829V40.787C113.991 37.9138 112.804 35.228 110.806 33.2292C108.807 31.2305 106.059 30.1062 103.186 30.1062V29.9813ZM136.415 63.3354H129.981C127.108 63.3354 124.36 64.4597 122.361 66.5209C120.362 68.5197 119.176 71.268 119.176 74.1412V80.5746C119.176 83.4478 120.3 86.1961 122.361 88.1949C124.36 90.1936 127.108 91.3804 129.981 91.3804H136.415C139.288 91.3804 142.036 90.2561 144.035 88.1949C146.034 86.1961 147.22 83.4478 147.22 80.5746V74.1412C147.22 71.268 146.034 68.5821 144.035 66.5834C142.036 64.5846 139.288 63.4603 136.415 63.4603V63.3354ZM103.186 141.786H96.6896C93.8164 141.786 91.0681 142.911 89.0693 144.972C87.0706 146.971 85.8838 149.719 85.8838 152.592V159.151C85.8838 162.024 87.0706 164.772 89.0693 166.771C91.0681 168.77 93.8164 169.956 96.6896 169.956H103.186C106.059 169.956 108.807 168.832 110.806 166.771C112.804 164.772 113.991 162.024 113.991 159.151V152.655C113.991 149.781 112.804 147.096 110.806 145.034C108.807 143.036 106.059 141.911 103.186 141.911V141.786ZM113.991 80.5122V74.0162C113.991 71.143 112.867 68.3948 110.806 66.396C108.807 64.3973 106.059 63.2105 103.186 63.2105H63.4603C60.5871 63.2105 57.8389 64.3973 55.8401 66.396C53.8414 68.3948 52.6546 71.143 52.6546 74.0162V80.5122C52.6546 83.3854 53.7789 86.1337 55.8401 88.1324C57.8389 90.1312 60.5871 91.3179 63.4603 91.3179H86.0088V125.921C86.0088 128.795 87.1955 131.543 89.1943 133.542C91.193 135.54 93.9413 136.727 96.8145 136.727H103.31C106.184 136.727 108.932 135.603 110.931 133.542C112.929 131.543 114.116 128.795 114.116 125.921V80.6371L113.991 80.5122Z" fill="#004E48"/>
<path d="M750.718 172.517V27.1705H855.091V50.7183H778.264V89.694H847.595V113.242H778.264V172.455H750.718V172.517Z" fill="#004E48"/>
<path d="M912.805 175.016C903.31 175.453 894.004 172.33 886.633 166.209C879.95 160.337 876.577 150.344 876.577 136.227V61.0244H902.436V131.543C902.374 134.853 902.811 138.226 903.81 141.412C904.622 143.848 905.996 146.034 907.87 147.783C909.682 149.469 911.93 150.656 914.304 151.28C917.052 152.03 919.925 152.342 922.736 152.342C927.171 152.405 931.543 151.218 935.353 148.969C939.101 146.658 942.224 143.41 944.285 139.538C946.471 135.353 947.658 130.606 947.533 125.859V60.9619H973.392V172.392H951.968L949.844 157.527H948.345C945.784 160.962 942.786 163.96 939.35 166.521C935.79 169.207 931.73 171.268 927.483 172.642C922.736 174.204 917.739 175.016 912.742 174.953L912.805 175.016Z" fill="#004E48"/>
<path d="M1000.94 172.517V61.0868H1022.55L1024.67 75.8901H1026.17C1028.73 72.5172 1031.79 69.4566 1035.17 66.8957C1038.79 64.2099 1042.79 62.1487 1047.03 60.7745C1051.78 59.2754 1056.78 58.5259 1061.77 58.5259C1068.21 58.401 1074.64 59.7127 1080.51 62.336C1086.01 64.8969 1090.51 69.2067 1093.32 74.5784C1096.69 81.574 1098.31 89.3192 1098 97.1268V172.33H1071.96V101.811C1072.02 98.5009 1071.58 95.128 1070.58 91.9425C1069.77 89.5066 1068.39 87.3204 1066.52 85.5715C1064.71 83.8851 1062.46 82.6983 1060.09 82.0737C1057.34 81.3242 1054.47 80.9494 1051.66 81.0119C1047.22 80.9494 1042.85 82.1362 1039.1 84.3848C1035.35 86.6334 1032.29 89.8813 1030.17 93.6914C1027.92 97.9388 1026.8 102.686 1026.92 107.433V172.33H1001L1000.94 172.517Z" fill="#004E48"/>
<path d="M1163.46 175.016C1155.22 175.203 1147.03 173.079 1139.91 168.894C1132.92 164.335 1127.48 157.651 1124.55 149.844C1120.61 139.225 1118.8 127.92 1119.18 116.615C1118.86 105.372 1120.74 94.1911 1124.8 83.6977C1127.61 76.1399 1132.73 69.644 1139.41 65.1468C1146.1 60.6496 1154.03 58.3385 1162.09 58.5884C1166.83 58.5884 1171.58 59.1505 1176.2 60.3373C1180.26 61.3366 1184.07 63.0855 1187.51 65.5215C1190.76 67.8326 1193.57 70.7058 1195.75 73.9538H1197V19.3004H1222.86V172.455H1201.44L1199.31 157.589H1197.63C1194.25 163.273 1189.26 167.77 1183.32 170.643C1177.08 173.579 1170.27 175.078 1163.4 175.016H1163.46ZM1171.46 152.779C1176.58 153.029 1181.64 151.593 1185.88 148.782C1189.76 145.846 1192.57 141.724 1194.07 137.102C1196 131.106 1196.88 124.797 1196.75 118.488V115.678C1196.75 110.681 1196.31 105.746 1195.25 100.812C1194.44 96.8769 1192.88 93.1293 1190.69 89.7564C1188.69 86.8832 1186.01 84.5097 1182.89 83.0106C1179.33 81.3866 1175.52 80.5746 1171.58 80.6995C1166.27 80.4497 1161.02 81.6989 1156.4 84.4472C1152.47 87.1955 1149.59 91.2554 1148.34 95.8776C1146.53 102.249 1145.72 108.869 1145.91 115.49V118.426C1145.72 124.922 1146.53 131.48 1148.34 137.726C1149.66 142.286 1152.47 146.284 1156.4 149.032C1160.96 151.718 1166.21 153.092 1171.52 152.842L1171.46 152.779Z" fill="#004E48"/>
</g>
<defs>
<clipPath id="clip0_950_20">
<rect width="1222.86" height="200" fill="white"/>
</clipPath>
</defs>
</svg>
