<svg width="1276" height="200" viewBox="0 0 1276 200" fill="none" xmlns="http://www.w3.org/2000/svg">
<g clip-path="url(#clip0_42_1179)">
<path d="M469.792 175C455.062 175 442.471 172.394 432.024 167.183C421.572 161.974 413.575 153.841 408.037 142.783C402.493 131.728 399.727 117.466 399.727 100.001C399.727 74.5104 405.898 55.6355 418.242 43.382C430.584 31.1284 447.77 25.0003 469.795 25.0003C481.716 25.0003 492.482 27.043 502.092 31.1284C511.7 35.2139 519.345 41.3741 525.026 49.6146C530.706 57.8552 533.548 68.3126 533.548 80.987H505.564C505.564 73.9448 504.055 67.9936 501.039 63.1335C498.02 58.2734 493.849 54.5766 488.52 52.0434C483.188 49.5074 477.084 48.2394 470.213 48.2394C460.673 48.2394 452.748 50.1079 446.435 53.8368C440.122 57.571 435.458 63.0986 432.445 70.4223C429.426 77.7461 427.92 86.831 427.92 97.6745V102.323C427.92 113.308 429.424 122.466 432.445 129.789C435.458 137.113 440.087 142.606 446.331 146.268C452.571 149.932 460.533 151.761 470.213 151.761C477.505 151.761 483.89 150.53 489.362 148.064C494.833 145.603 499.074 141.938 502.092 137.078C505.105 132.218 506.617 126.27 506.617 119.225H533.55C533.55 131.902 530.744 142.359 525.133 150.597C519.522 158.838 511.909 164.963 502.304 168.979C492.694 172.992 481.858 175 469.795 175" fill="#004E48"/>
<path d="M621.869 175C607.139 175 594.547 172.394 584.101 167.183C573.649 161.974 565.652 153.841 560.114 142.783C554.57 131.728 551.803 117.466 551.803 100.001C551.803 74.5104 557.974 55.6355 570.319 43.382C582.661 31.1284 599.847 25.0003 621.872 25.0003C633.793 25.0003 644.559 27.043 654.169 31.1284C663.777 35.2139 671.422 41.3741 677.103 49.6146C682.783 57.8552 685.625 68.3126 685.625 80.987H657.641C657.641 73.9448 656.132 67.9936 653.116 63.1335C650.097 58.2734 645.926 54.5766 640.597 52.0434C635.265 49.5074 629.161 48.2394 622.29 48.2394C612.75 48.2394 604.825 50.1079 598.512 53.8368C592.199 57.571 587.535 63.0986 584.519 70.4223C581.5 77.7461 579.994 86.831 579.994 97.6745V102.323C579.994 113.308 581.498 122.466 584.519 129.789C587.532 137.113 592.162 142.606 598.405 146.268C604.646 149.932 612.607 151.761 622.288 151.761C629.579 151.761 635.964 150.53 641.436 148.064C646.907 145.603 651.148 141.938 654.167 137.078C657.18 132.218 658.692 126.27 658.692 119.225H685.625C685.625 131.902 682.818 142.359 677.207 150.597C671.597 158.838 663.983 164.963 654.378 168.979C644.768 172.992 633.933 175 621.869 175" fill="#004E48"/>
<path d="M376.997 115.74C374.603 110.88 371.3 106.867 367.083 103.698C362.864 100.529 358.084 98.3849 352.742 97.2536V96.4092C357.24 94.8597 361.285 92.5731 364.869 89.5439C368.456 86.5174 371.303 82.7509 373.41 78.242C375.52 73.7357 376.573 68.7335 376.573 63.2434C376.573 56.0591 374.812 49.7943 371.3 44.4409C367.783 39.0902 362.969 34.9351 356.851 31.9756C350.734 29.0187 343.807 27.539 336.076 27.539H254.37V172.464H336.076C344.37 172.464 351.857 171.022 358.537 168.132C365.215 165.247 370.56 160.843 374.568 154.926C378.576 149.01 380.578 141.547 380.578 132.532C380.578 126.195 379.383 120.595 376.991 115.737M281.788 50.9845H330.376C335.719 50.9845 340.043 52.4642 343.348 55.4211C346.651 58.3779 348.305 62.9566 348.305 69.1517C348.305 72.3927 347.568 75.3522 346.091 78.0249C344.614 80.7029 342.432 82.8153 339.552 84.3621C336.668 85.9142 333.119 86.6862 328.902 86.6862H281.788V50.9872V50.9845ZM346.723 144.257C342.997 147.426 338.25 149.01 332.486 149.01H281.788V109.714H330.8C335.722 109.714 339.764 110.526 342.927 112.142C346.091 113.764 348.444 116.051 349.994 119.008C351.541 121.964 352.315 125.417 352.315 129.361C352.315 136.121 350.45 141.086 346.726 144.255" fill="#004E48"/>
<path d="M200 100.001C200 155.229 155.229 200.003 99.9987 200.003C44.7679 200.003 0 155.229 0 100.001C0 44.7733 44.7706 0 100.001 0C155.232 0 200.003 44.7706 200.003 100.001M103.242 29.9999H96.7577C90.8119 29.9999 85.949 34.8627 85.949 40.8085V47.2931C85.949 53.239 90.8119 58.1018 96.7577 58.1018H103.242C109.188 58.1018 114.051 53.239 114.051 47.2931V40.8085C114.051 34.8627 109.185 29.9999 103.242 29.9999ZM136.491 63.3399H130.007C124.061 63.3399 119.198 68.2027 119.198 74.1485V80.6332C119.198 86.579 124.063 91.4418 130.007 91.4418H136.491C142.437 91.4418 147.3 86.579 147.3 80.6332V74.1485C147.3 68.2027 142.437 63.3399 136.491 63.3399M103.242 141.896H96.7577C90.8119 141.896 85.949 146.758 85.949 152.704V159.189C85.949 165.135 90.8119 169.997 96.7577 169.997H103.242C109.188 169.997 114.051 165.135 114.051 159.189V152.704C114.051 146.758 109.185 141.896 103.242 141.896ZM114.051 80.542V74.0574C114.051 68.1116 109.185 63.2488 103.242 63.2488H63.5088C57.563 63.2488 52.7001 68.1116 52.7001 74.0574V80.542C52.7001 86.4879 57.5656 91.3507 63.5088 91.3507H85.949V122.696V125.94C85.949 131.886 90.8119 136.749 96.7577 136.749H103.242C109.188 136.749 114.051 131.883 114.051 125.94V119.455C114.051 119.455 114.051 119.455 114.051 119.453V80.5474C114.051 80.5474 114.051 80.5474 114.051 80.5447" fill="#004E48"/>
<path d="M740.831 172.147V28.7989H852.628V51.9925H767.998V87.3082H843.433V110.504H767.998V148.954H853.882V172.147H740.831Z" fill="#004E48"/>
<path d="M907.167 172.147L866.417 62.2328H893.166L910.928 111.756C911.764 114.126 912.772 117.295 913.957 121.265C915.139 125.235 916.359 129.347 917.614 133.593C918.868 137.845 919.911 141.711 920.747 145.19H921.793C922.629 141.987 923.602 138.295 924.718 134.116C925.83 129.937 926.98 125.83 928.165 121.787C929.347 117.748 930.427 114.405 931.403 111.756L948.957 62.2328H974.868L933.912 172.147H907.164H907.167Z" fill="#004E48"/>
<path d="M1036.72 174.657C1025.02 174.657 1015.27 172.6 1007.47 168.491C999.665 164.384 993.813 158.079 989.915 149.581C986.015 141.086 984.063 130.288 984.063 117.193C984.063 104.097 986.012 93.128 989.915 84.6998C993.813 76.2717 999.665 70.0041 1007.47 65.8919C1015.27 61.7851 1025.02 59.729 1036.72 59.729C1047.31 59.729 1056.19 61.7154 1063.37 65.6855C1070.54 69.6557 1075.94 75.7516 1079.56 83.9707C1083.18 92.1924 1084.99 102.848 1084.99 115.944V123.466H1010.18C1010.46 130.293 1011.51 136.038 1013.32 140.705C1015.13 145.375 1017.95 148.855 1021.78 151.155C1025.61 153.452 1030.66 154.602 1036.93 154.602C1040.14 154.602 1043.13 154.184 1045.92 153.348C1048.7 152.511 1051.14 151.224 1053.23 149.482C1055.32 147.742 1056.96 145.547 1058.14 142.901C1059.32 140.255 1059.92 137.191 1059.92 133.706H1084.99C1084.99 140.673 1083.77 146.734 1081.34 151.887C1078.9 157.042 1075.49 161.29 1071.1 164.633C1066.71 167.976 1061.59 170.485 1055.74 172.155C1049.89 173.828 1043.55 174.662 1036.72 174.662M1010.6 105.494H1058.46C1058.46 100.897 1057.93 96.9989 1056.89 93.7928C1055.84 90.5893 1054.38 87.9408 1052.5 85.8525C1050.62 83.7616 1048.35 82.2684 1045.71 81.3597C1043.06 80.4563 1040.07 80.0005 1036.72 80.0005C1031.29 80.0005 1026.73 80.9093 1023.04 82.7161C1019.34 84.5283 1016.52 87.3135 1014.57 91.0746C1012.62 94.8356 1011.3 99.6421 1010.6 105.494" fill="#004E48"/>
<path d="M1106.72 172.147V62.2328H1128.04L1130.13 76.8614H1131.59C1134.1 73.5186 1137.06 70.559 1140.47 67.9802C1143.88 65.404 1147.78 63.3828 1152.17 61.9191C1156.56 60.4554 1161.4 59.7263 1166.7 59.7263C1173.66 59.7263 1179.83 60.9809 1185.19 63.4873C1190.55 65.9938 1194.77 70.0363 1197.83 75.6068C1200.9 81.18 1202.43 88.6351 1202.43 97.9667V172.15H1176.73V102.564C1176.73 98.6663 1176.28 95.428 1175.37 92.8465C1174.46 90.2703 1173.14 88.1821 1171.4 86.5763C1169.66 84.9759 1167.53 83.8259 1165.02 83.1289C1162.52 82.4346 1159.73 82.0834 1156.67 82.0834C1152.07 82.0834 1147.92 83.2013 1144.23 85.4263C1140.54 87.6566 1137.61 90.7234 1135.46 94.6211C1133.3 98.5243 1132.22 103.052 1132.22 108.204V172.147H1106.72V172.147Z" fill="#004E48"/>
<path d="M1257.81 174.657C1250.98 174.657 1245.62 173.297 1241.72 170.582C1237.82 167.866 1235.06 164.384 1233.46 160.132C1231.86 155.883 1231.06 151.533 1231.06 147.072V83.1289H1217.9V62.2328H1231.69L1236.29 31.5145H1256.56V62.2328H1275.57V83.1289H1256.56V144.566C1256.56 147.49 1257.32 149.758 1258.85 151.356C1260.38 152.959 1262.68 153.758 1265.75 153.758H1275.57V171.311C1274.18 171.869 1272.47 172.389 1270.45 172.879C1268.43 173.364 1266.3 173.783 1264.08 174.134C1261.85 174.48 1259.76 174.657 1257.81 174.657" fill="#004E48"/>
</g>
<defs>
<clipPath id="clip0_42_1179">
<rect width="1275.57" height="200" fill="white"/>
</clipPath>
</defs>
</svg>
