<svg width="485" height="200" viewBox="0 0 485 200" fill="none" xmlns="http://www.w3.org/2000/svg">
<g clip-path="url(#clip0_3_600)">
<path d="M333.074 122.608C322.752 122.608 313.934 120.779 306.608 117.131C299.283 113.483 293.687 107.779 289.802 100.038C285.917 92.2969 283.979 82.302 283.979 70.063C283.979 52.2086 288.299 38.981 296.95 30.3998C305.6 21.8187 317.631 17.5182 333.064 17.5182C341.417 17.5182 348.961 18.9517 355.693 21.8088C362.425 24.6758 367.784 28.9861 371.758 34.7596C375.742 40.5331 377.729 47.8587 377.729 56.7365H358.125C358.125 51.8033 357.067 47.6314 354.952 44.2305C352.836 40.8297 349.91 38.2395 346.183 36.46C342.446 34.6805 338.175 33.8007 333.36 33.8007C326.677 33.8007 321.121 35.1056 316.702 37.7255C312.283 40.3453 309.011 44.2108 306.895 49.3417C304.779 54.4726 303.722 60.8392 303.722 68.4318V71.6843C303.722 79.3856 304.779 85.7918 306.895 90.9227C309.011 96.0536 312.253 99.8993 316.623 102.47C320.993 105.04 326.578 106.315 333.35 106.315C338.461 106.315 342.93 105.455 346.766 103.725C350.602 101.995 353.567 99.4347 355.683 96.024C357.799 92.6231 358.857 88.4512 358.857 83.518H377.729C377.729 92.3958 375.762 99.7214 371.837 105.495C367.902 111.268 362.574 115.559 355.841 118.376C349.109 121.184 341.516 122.598 333.064 122.598L333.074 122.608Z" fill="#004E48"/>
<path d="M439.616 122.608C429.295 122.608 420.477 120.779 413.151 117.131C405.826 113.483 400.23 107.779 396.345 100.038C392.46 92.2969 390.522 82.302 390.522 70.063C390.522 52.2086 394.842 38.981 403.493 30.3998C412.143 21.8187 424.174 17.5182 439.607 17.5182C447.96 17.5182 455.504 18.9517 462.236 21.8088C468.968 24.6758 474.327 28.9861 478.301 34.7596C482.285 40.5331 484.272 47.8587 484.272 56.7365H464.668C464.668 51.8033 463.61 47.6314 461.494 44.2305C459.379 40.8297 456.453 38.2395 452.726 36.46C448.989 34.6805 444.718 33.8007 439.903 33.8007C433.22 33.8007 427.664 35.1056 423.245 37.7255C418.826 40.3453 415.554 44.2108 413.438 49.3417C411.322 54.4726 410.265 60.8392 410.265 68.4318V71.6843C410.265 79.3856 411.322 85.7918 413.438 90.9227C415.554 96.0536 418.796 99.8993 423.166 102.47C427.536 105.04 433.121 106.315 439.893 106.315C445.004 106.315 449.473 105.455 453.309 103.725C457.145 101.995 460.11 99.4347 462.226 96.024C464.342 92.6231 465.4 88.4512 465.4 83.518H484.272C484.272 92.3958 482.305 99.7214 478.38 105.495C474.445 111.268 469.117 115.559 462.384 118.376C455.652 121.184 448.059 122.598 439.607 122.598L439.616 122.608Z" fill="#004E48"/>
<path d="M268.062 81.086C266.382 77.6852 264.068 74.8677 261.112 72.6532C258.157 70.4288 254.805 68.9261 251.068 68.1352V67.542C254.222 66.4546 257.049 64.853 259.56 62.7275C262.071 60.602 264.068 57.9723 265.541 54.8087C267.015 51.655 267.756 48.1455 267.756 44.2998C267.756 39.2677 266.52 34.8783 264.059 31.1314C261.597 27.3846 258.226 24.4682 253.935 22.402C249.654 20.3259 244.8 19.2977 239.383 19.2977H182.142V120.828H239.383C245.196 120.828 250.435 119.82 255.121 117.793C259.798 115.776 263.544 112.682 266.352 108.54C269.16 104.398 270.564 99.1678 270.564 92.8505C270.564 88.4117 269.723 84.4869 268.053 81.086H268.062ZM201.361 35.7186H235.399C239.146 35.7186 242.171 36.7566 244.484 38.8228C246.797 40.8989 247.954 44.102 247.954 48.442C247.954 50.7158 247.44 52.782 246.402 54.6604C245.364 56.5388 243.841 58.0118 241.825 59.0993C239.808 60.1868 237.317 60.7305 234.361 60.7305H201.351V35.7186H201.361ZM246.857 101.066C244.247 103.29 240.925 104.398 236.882 104.398H201.361V76.8647H235.695C239.146 76.8647 241.973 77.4381 244.187 78.5651C246.402 79.702 248.053 81.3035 249.14 83.3796C250.228 85.4557 250.762 87.8679 250.762 90.636C250.762 95.3715 249.457 98.8514 246.847 101.066H246.857Z" fill="#004E48"/>
<path d="M140.116 70.063C140.116 108.757 108.747 140.126 70.0531 140.126C31.3588 140.126 0 108.747 0 70.063C0 31.3786 31.3687 0 70.063 0C108.757 0 140.126 31.3687 140.126 70.063H140.116ZM72.3269 21.0179H67.7793C63.6172 21.0179 60.2065 24.4286 60.2065 28.5907V33.1383C60.2065 37.3004 63.6172 40.7111 67.7793 40.7111H72.3269C76.489 40.7111 79.8997 37.3004 79.8997 33.1383V28.5907C79.8997 24.4286 76.489 21.0179 72.3269 21.0179ZM95.6186 44.3788H91.071C86.909 44.3788 83.4982 47.7895 83.4982 51.9516V56.4992C83.4982 60.6613 86.909 64.072 91.071 64.072H95.6186C99.7807 64.072 103.191 60.6613 103.191 56.4992V51.9516C103.191 47.7895 99.7807 44.3788 95.6186 44.3788ZM72.3269 99.4149H67.7793C63.6172 99.4149 60.2065 102.826 60.2065 106.988V111.535C60.2065 115.697 63.6172 119.108 67.7793 119.108H72.3269C76.489 119.108 79.8997 115.697 79.8997 111.535V106.988C79.8997 102.826 76.489 99.4149 72.3269 99.4149ZM79.8997 56.43V51.8824C79.8997 47.7203 76.489 44.3096 72.3269 44.3096H44.4876C40.3255 44.3096 36.9148 47.7203 36.9148 51.8824V56.43C36.9148 60.5921 40.3255 64.0028 44.4876 64.0028H60.2065V85.9599V88.2337C60.2065 92.3958 63.6172 95.8065 67.7793 95.8065H72.3269C76.489 95.8065 79.8997 92.3958 79.8997 88.2337V83.6861V56.43Z" fill="#004E48"/>
<path d="M199.097 191C193.689 191 189.487 189.547 186.502 186.64C183.506 183.734 182.013 179.147 182.013 172.898C182.013 168.786 182.715 165.395 184.129 162.726C185.543 160.056 187.579 158.069 190.249 156.754C192.918 155.449 196.121 154.787 199.858 154.787C202.102 154.787 204.208 155.044 206.185 155.548C208.152 156.062 209.902 156.834 211.415 157.872C212.927 158.91 214.114 160.215 214.954 161.777C215.804 163.339 216.229 165.197 216.229 167.333H209.398C209.398 166.215 209.151 165.217 208.657 164.347C208.162 163.477 207.48 162.745 206.62 162.152C205.75 161.559 204.761 161.114 203.634 160.828C202.517 160.541 201.321 160.393 200.065 160.393C198.197 160.393 196.556 160.64 195.142 161.134C193.728 161.628 192.562 162.38 191.623 163.378C190.684 164.377 189.992 165.632 189.527 167.125C189.072 168.618 188.835 170.378 188.835 172.375V173.442C188.835 176.2 189.22 178.454 190.011 180.224C190.792 181.994 191.979 183.289 193.56 184.129C195.142 184.96 197.1 185.375 199.453 185.375C201.459 185.375 203.219 185.068 204.732 184.455C206.244 183.842 207.431 182.953 208.301 181.776C209.171 180.6 209.606 179.166 209.606 177.466V177.11H198.434V171.603H216.229V190.377H211.484L210.92 186.502C209.902 187.52 208.815 188.36 207.658 189.023C206.501 189.685 205.226 190.179 203.832 190.506C202.438 190.832 200.856 190.99 199.087 190.99L199.097 191Z" fill="#004E48"/>
<path d="M223.12 190.387V163.556H228.32L228.834 167.787H229.19C229.526 166.937 229.951 166.146 230.436 165.415C230.93 164.683 231.563 164.09 232.344 163.625C233.125 163.171 234.074 162.933 235.201 162.933C235.744 162.933 236.249 162.983 236.703 163.091C237.158 163.19 237.514 163.299 237.751 163.398V169.26H235.863C234.805 169.26 233.876 169.409 233.055 169.695C232.235 169.982 231.553 170.437 230.989 171.05C230.426 171.663 230.011 172.424 229.744 173.343C229.467 174.263 229.338 175.33 229.338 176.556V190.377H223.12V190.387Z" fill="#004E48"/>
<path d="M252.601 191C249.743 191 247.361 190.496 245.463 189.497C243.555 188.499 242.131 186.957 241.182 184.88C240.233 182.804 239.749 180.175 239.749 176.972C239.749 173.768 240.223 171.099 241.182 169.043C242.131 166.987 243.565 165.454 245.463 164.456C247.371 163.457 249.743 162.953 252.601 162.953C255.181 162.953 257.356 163.437 259.106 164.406C260.855 165.375 262.17 166.868 263.06 168.865C263.94 170.872 264.385 173.472 264.385 176.665V178.504H246.125C246.194 180.175 246.451 181.569 246.886 182.715C247.331 183.852 248.013 184.703 248.953 185.266C249.892 185.83 251.118 186.106 252.65 186.106C253.431 186.106 254.163 186.008 254.845 185.8C255.527 185.592 256.12 185.286 256.634 184.861C257.148 184.436 257.544 183.902 257.83 183.259C258.117 182.617 258.265 181.865 258.265 181.015H264.385C264.385 182.715 264.088 184.198 263.495 185.454C262.902 186.709 262.071 187.747 260.994 188.568C259.926 189.389 258.671 189.992 257.247 190.407C255.813 190.812 254.271 191.02 252.601 191.02V191ZM246.224 174.114H257.899C257.899 172.987 257.771 172.038 257.514 171.257C257.257 170.476 256.901 169.834 256.446 169.32C255.991 168.806 255.438 168.44 254.785 168.222C254.143 168.005 253.411 167.896 252.591 167.896C251.266 167.896 250.149 168.114 249.249 168.558C248.349 169.003 247.657 169.686 247.183 170.595C246.708 171.514 246.382 172.691 246.214 174.114H246.224Z" fill="#004E48"/>
<path d="M268.695 190.387V163.556H273.895L274.409 167.125H274.765C275.378 166.304 276.1 165.583 276.93 164.96C277.761 164.327 278.72 163.843 279.787 163.477C280.855 163.121 282.041 162.943 283.336 162.943C285.037 162.943 286.54 163.25 287.854 163.863C289.159 164.476 290.188 165.464 290.939 166.819C291.69 168.183 292.056 170.002 292.056 172.276V190.377H285.778V173.393C285.778 172.444 285.67 171.653 285.452 171.02C285.235 170.387 284.908 169.883 284.483 169.488C284.058 169.092 283.544 168.816 282.931 168.647C282.318 168.479 281.636 168.39 280.895 168.39C279.777 168.39 278.759 168.667 277.859 169.211C276.96 169.755 276.248 170.506 275.714 171.455C275.19 172.404 274.923 173.511 274.923 174.767V190.377H268.705L268.695 190.387Z" fill="#004E48"/>
<path d="M298.482 190.387V153.512H304.7V190.387H298.482Z" fill="#004E48"/>
<path d="M318.215 191C317.463 191 316.613 190.911 315.634 190.723C314.656 190.535 313.726 190.189 312.827 189.675C311.927 189.161 311.186 188.41 310.612 187.411C310.039 186.413 309.742 185.088 309.742 183.457C309.742 181.618 310.148 180.096 310.968 178.889C311.789 177.683 312.935 176.734 314.408 176.032C315.881 175.33 317.651 174.846 319.717 174.549C321.783 174.253 324.028 174.114 326.479 174.114V171.92C326.479 171.139 326.361 170.437 326.124 169.824C325.886 169.211 325.451 168.727 324.819 168.371C324.186 168.015 323.247 167.837 321.991 167.837C320.736 167.837 319.747 167.985 319.035 168.292C318.323 168.598 317.829 168.974 317.552 169.409C317.275 169.854 317.147 170.308 317.147 170.783V171.495H311.126C311.087 171.327 311.077 171.159 311.077 170.981V170.368C311.077 168.835 311.532 167.511 312.451 166.393C313.37 165.276 314.646 164.416 316.277 163.823C317.908 163.23 319.796 162.933 321.942 162.933C324.393 162.933 326.4 163.269 327.982 163.952C329.564 164.634 330.74 165.603 331.531 166.858C332.312 168.114 332.708 169.646 332.708 171.445V184.09C332.708 184.732 332.895 185.197 333.271 185.464C333.647 185.741 334.052 185.869 334.497 185.869H336.128V190.15C335.792 190.288 335.298 190.446 334.645 190.634C334.003 190.822 333.202 190.911 332.253 190.911C331.363 190.911 330.582 190.763 329.88 190.476C329.178 190.189 328.595 189.774 328.12 189.23C327.646 188.687 327.3 188.044 327.102 187.293H326.796C326.222 188.005 325.53 188.647 324.73 189.201C323.929 189.754 322.999 190.199 321.922 190.506C320.854 190.812 319.618 190.96 318.225 190.96L318.215 191ZM320.103 185.899C321.121 185.899 322.031 185.75 322.831 185.444C323.632 185.138 324.295 184.712 324.819 184.169C325.342 183.625 325.758 182.963 326.044 182.182C326.331 181.401 326.479 180.55 326.479 179.631V178.405C324.611 178.405 322.881 178.524 321.299 178.761C319.717 178.998 318.462 179.443 317.523 180.086C316.583 180.728 316.119 181.648 316.119 182.844C316.119 183.457 316.267 183.991 316.554 184.446C316.84 184.9 317.285 185.266 317.878 185.513C318.472 185.76 319.213 185.899 320.093 185.899H320.103Z" fill="#004E48"/>
<path d="M340.676 190.387V163.556H345.876L346.39 167.125H346.746C347.359 166.304 348.081 165.583 348.911 164.96C349.742 164.327 350.701 163.843 351.768 163.477C352.836 163.121 354.022 162.943 355.317 162.943C357.018 162.943 358.52 163.25 359.835 163.863C361.14 164.476 362.168 165.464 362.92 166.819C363.671 168.183 364.037 170.002 364.037 172.276V190.377H357.759V173.393C357.759 172.444 357.65 171.653 357.433 171.02C357.216 170.387 356.889 169.883 356.464 169.488C356.039 169.092 355.525 168.816 354.912 168.647C354.299 168.479 353.617 168.39 352.876 168.39C351.758 168.39 350.74 168.667 349.84 169.211C348.941 169.755 348.229 170.506 347.695 171.455C347.171 172.404 346.904 173.511 346.904 174.767V190.377H340.686L340.676 190.387Z" fill="#004E48"/>
<path d="M378.807 191C376.632 191 374.744 190.506 373.142 189.517C371.54 188.528 370.315 187.006 369.445 184.93C368.575 182.854 368.14 180.185 368.14 176.922C368.14 173.66 368.585 171.05 369.464 168.993C370.344 166.937 371.57 165.415 373.132 164.426C374.694 163.437 376.464 162.943 378.441 162.943C379.667 162.943 380.784 163.082 381.802 163.348C382.821 163.625 383.72 164.041 384.501 164.594C385.282 165.148 385.945 165.84 386.488 166.66H386.795V153.502H393.013V190.377H387.862L387.348 186.808H386.993C386.142 188.202 384.995 189.25 383.552 189.942C382.109 190.634 380.517 190.99 378.787 190.99L378.807 191ZM380.744 185.642C382.168 185.642 383.325 185.315 384.215 184.673C385.094 184.03 385.757 183.091 386.182 181.865C386.607 180.639 386.824 179.147 386.824 177.377V176.715C386.824 175.39 386.706 174.203 386.469 173.146C386.231 172.088 385.865 171.208 385.371 170.496C384.877 169.784 384.254 169.241 383.483 168.865C382.722 168.489 381.812 168.301 380.754 168.301C379.222 168.301 378.006 168.598 377.106 169.191C376.207 169.784 375.554 170.704 375.169 171.949C374.773 173.195 374.585 174.767 374.585 176.665V177.377C374.585 179.245 374.783 180.798 375.169 182.014C375.554 183.23 376.207 184.149 377.106 184.742C378.006 185.335 379.222 185.632 380.754 185.632L380.744 185.642Z" fill="#004E48"/>
</g>
<defs>
<clipPath id="clip0_3_600">
<rect width="484.282" height="191" fill="white"/>
</clipPath>
</defs>
</svg>
