<svg width="486" height="200" viewBox="0 0 486 200" fill="none" xmlns="http://www.w3.org/2000/svg">
<g clip-path="url(#clip0_5_1990)">
<path d="M333.624 122.81C323.286 122.81 314.453 120.978 307.115 117.324C299.777 113.67 294.172 107.957 290.281 100.203C286.389 92.4494 284.448 82.438 284.448 70.1787C284.448 52.2949 288.776 39.0454 297.44 30.4501C306.105 21.8547 318.156 17.5472 333.614 17.5472C341.982 17.5472 349.537 18.983 356.281 21.8448C363.024 24.7165 368.391 29.034 372.372 34.8171C376.363 40.6001 378.353 47.9378 378.353 56.8302H358.717C358.717 51.8889 357.657 47.7101 355.538 44.3036C353.419 40.8972 350.488 38.3027 346.755 36.5203C343.011 34.7378 338.734 33.8565 333.911 33.8565C327.217 33.8565 321.652 35.1636 317.225 37.7878C312.799 40.4119 309.521 44.2838 307.402 49.4232C305.283 54.5626 304.223 60.9397 304.223 68.5448V71.8027C304.223 79.5168 305.283 85.9336 307.402 91.0729C309.521 96.2123 312.769 100.064 317.146 102.639C321.523 105.214 327.118 106.491 333.901 106.491C339.021 106.491 343.497 105.63 347.339 103.897C351.181 102.164 354.152 99.5989 356.271 96.1826C358.39 92.7762 359.449 88.5973 359.449 83.656H378.353C378.353 92.5484 376.383 99.8861 372.451 105.669C368.51 111.452 363.173 115.75 356.429 118.572C349.686 121.384 342.081 122.8 333.614 122.8L333.624 122.81Z" fill="#004E48"/>
<path d="M440.343 122.81C430.004 122.81 421.171 120.978 413.834 117.324C406.496 113.67 400.891 107.957 397 100.203C393.108 92.4494 391.167 82.438 391.167 70.1787C391.167 52.2949 395.494 39.0454 404.159 30.4501C412.824 21.8547 424.875 17.5472 440.333 17.5472C448.7 17.5472 456.256 18.983 462.999 21.8448C469.743 24.7165 475.11 29.034 479.091 34.8171C483.082 40.6001 485.072 47.9378 485.072 56.8302H465.435C465.435 51.8889 464.376 47.7101 462.257 44.3036C460.138 40.8972 457.207 38.3027 453.473 36.5203C449.73 34.7378 445.452 33.8565 440.63 33.8565C433.936 33.8565 428.371 35.1636 423.944 37.7878C419.518 40.4119 416.24 44.2838 414.121 49.4232C412.002 54.5626 410.942 60.9397 410.942 68.5448V71.8027C410.942 79.5168 412.002 85.9336 414.121 91.0729C416.24 96.2123 419.488 100.064 423.865 102.639C428.242 105.214 433.837 106.491 440.62 106.491C445.739 106.491 450.215 105.63 454.058 103.897C457.9 102.164 460.87 99.5989 462.99 96.1826C465.109 92.7762 466.168 88.5973 466.168 83.656H485.072C485.072 92.5484 483.101 99.8861 479.17 105.669C475.229 111.452 469.892 115.75 463.148 118.572C456.404 121.384 448.799 122.8 440.333 122.8L440.343 122.81Z" fill="#004E48"/>
<path d="M268.506 81.22C266.822 77.8135 264.505 74.9913 261.544 72.7732C258.583 70.5451 255.226 69.04 251.483 68.2478V67.6536C254.642 66.5643 257.474 64.9601 259.99 62.8311C262.505 60.7021 264.505 58.068 265.981 54.8992C267.456 51.7404 268.199 48.225 268.199 44.3729C268.199 39.3326 266.961 34.9359 264.495 31.1828C262.029 27.4298 258.653 24.5086 254.355 22.439C250.067 20.3595 245.205 19.3296 239.779 19.3296H182.443V121.028H239.779C245.601 121.028 250.85 120.018 255.543 117.988C260.227 115.968 263.98 112.868 266.793 108.719C269.605 104.57 271.011 99.3316 271.011 93.0039C271.011 88.5577 270.169 84.6264 268.496 81.22H268.506ZM201.694 35.7776H235.788C239.541 35.7776 242.571 36.8174 244.888 38.887C247.205 40.9665 248.364 44.1749 248.364 48.5221C248.364 50.7996 247.849 52.8692 246.809 54.7507C245.77 56.6322 244.245 58.1076 242.225 59.1969C240.204 60.2862 237.709 60.8308 234.748 60.8308H201.684V35.7776H201.694ZM247.265 101.233C244.651 103.461 241.323 104.57 237.273 104.57H201.694V76.9916H236.085C239.541 76.9916 242.373 77.566 244.591 78.6949C246.809 79.8336 248.463 81.4378 249.552 83.5173C250.642 85.5969 251.176 88.0131 251.176 90.7858C251.176 95.529 249.869 99.0147 247.255 101.233H247.265Z" fill="#004E48"/>
<path d="M140.348 70.1787C140.348 108.937 108.927 140.357 70.1688 140.357C31.4106 140.357 0 108.927 0 70.1787C0 31.4304 31.4205 0 70.1787 0C108.937 0 140.357 31.4205 140.357 70.1787H140.348ZM72.4464 21.0526H67.8913C63.7223 21.0526 60.306 24.469 60.306 28.6379V33.193C60.306 37.362 63.7223 40.7783 67.8913 40.7783H72.4464C76.6153 40.7783 80.0317 37.362 80.0317 33.193V28.6379C80.0317 24.469 76.6153 21.0526 72.4464 21.0526ZM95.7766 44.4521H91.2215C87.0525 44.4521 83.6362 47.8685 83.6362 52.0374V56.5926C83.6362 60.7615 87.0525 64.1778 91.2215 64.1778H95.7766C99.9455 64.1778 103.362 60.7615 103.362 56.5926V52.0374C103.362 47.8685 99.9455 44.4521 95.7766 44.4521ZM72.4464 99.5791H67.8913C63.7223 99.5791 60.306 102.995 60.306 107.164V111.72C60.306 115.888 63.7223 119.305 67.8913 119.305H72.4464C76.6153 119.305 80.0317 115.888 80.0317 111.72V107.164C80.0317 102.995 76.6153 99.5791 72.4464 99.5791ZM80.0317 56.5232V51.9681C80.0317 47.7992 76.6153 44.3828 72.4464 44.3828H44.5611C40.3921 44.3828 36.9758 47.7992 36.9758 51.9681V56.5232C36.9758 60.6922 40.3921 64.1085 44.5611 64.1085H60.306V86.1019V88.3795C60.306 92.5484 63.7223 95.9648 67.8913 95.9648H72.4464C76.6153 95.9648 80.0317 92.5484 80.0317 88.3795V83.8243V56.5232Z" fill="#004E48"/>
<path d="M199.347 191.316C195.703 191.316 192.554 190.662 189.9 189.345C187.246 188.038 185.206 186.038 183.79 183.344C182.374 180.651 181.671 177.264 181.671 173.174C181.671 169.085 182.374 165.658 183.79 162.985C185.206 160.311 187.236 158.321 189.9 157.004C192.554 155.696 195.703 155.033 199.347 155.033C202.991 155.033 206.179 155.686 208.823 157.004C211.467 158.321 213.488 160.311 214.904 162.985C216.32 165.658 217.023 169.055 217.023 173.174C217.023 177.294 216.32 180.651 214.904 183.344C213.488 186.038 211.467 188.038 208.823 189.345C206.179 190.652 203.021 191.316 199.347 191.316ZM199.347 185.701C201.119 185.701 202.674 185.443 204.021 184.938C205.367 184.423 206.496 183.671 207.417 182.661C208.338 181.661 209.031 180.413 209.517 178.928C209.992 177.442 210.23 175.739 210.23 173.798V172.669C210.23 170.699 209.992 168.956 209.517 167.461C209.041 165.965 208.338 164.708 207.417 163.707C206.496 162.707 205.367 161.945 204.021 161.43C202.674 160.915 201.119 160.667 199.347 160.667C197.574 160.667 196.02 160.925 194.673 161.43C193.326 161.945 192.197 162.697 191.276 163.707C190.355 164.708 189.672 165.965 189.207 167.461C188.751 168.956 188.513 170.699 188.513 172.669V173.798C188.513 175.739 188.741 177.452 189.207 178.928C189.662 180.413 190.355 181.651 191.276 182.661C192.197 183.671 193.326 184.423 194.673 184.938C196.02 185.453 197.574 185.701 199.347 185.701Z" fill="#004E48"/>
<path d="M233.114 191.316C231.174 191.316 229.47 191.108 228.005 190.682C226.539 190.256 225.311 189.672 224.331 188.919C223.341 188.167 222.598 187.295 222.113 186.285C221.618 185.285 221.37 184.186 221.37 182.988C221.37 182.819 221.37 182.661 221.4 182.532C221.42 182.393 221.43 182.294 221.43 182.225H227.559V182.631C227.589 183.552 227.886 184.295 228.431 184.849C228.975 185.414 229.688 185.81 230.579 186.047C231.471 186.285 232.401 186.404 233.392 186.404C234.273 186.404 235.125 186.315 235.917 186.127C236.719 185.939 237.382 185.632 237.907 185.206C238.432 184.78 238.699 184.225 238.699 183.542C238.699 182.661 238.363 181.978 237.679 181.502C236.996 181.027 236.105 180.631 234.996 180.324C233.887 180.017 232.708 179.69 231.441 179.353C230.322 179.046 229.193 178.71 228.074 178.333C226.945 177.957 225.935 177.482 225.034 176.907C224.133 176.333 223.4 175.581 222.836 174.66C222.271 173.739 221.994 172.6 221.994 171.233C221.994 169.867 222.281 168.748 222.865 167.758C223.44 166.767 224.242 165.945 225.262 165.282C226.282 164.619 227.49 164.113 228.886 163.777C230.282 163.44 231.797 163.262 233.431 163.262C235.065 163.262 236.491 163.43 237.798 163.777C239.105 164.113 240.254 164.599 241.225 165.232C242.195 165.866 242.948 166.629 243.472 167.53C243.997 168.431 244.265 169.431 244.265 170.52C244.265 170.758 244.265 170.996 244.235 171.233C244.215 171.471 244.205 171.61 244.205 171.639H238.125V171.283C238.125 170.639 237.927 170.085 237.541 169.619C237.145 169.164 236.59 168.797 235.857 168.52C235.125 168.253 234.214 168.114 233.124 168.114C232.302 168.114 231.589 168.183 230.976 168.322C230.362 168.461 229.857 168.649 229.47 168.886C229.074 169.124 228.777 169.401 228.579 169.708C228.381 170.015 228.272 170.352 228.272 170.728C228.272 171.372 228.53 171.887 229.035 172.263C229.55 172.64 230.233 172.966 231.104 173.234C231.976 173.501 232.916 173.798 233.936 174.105C235.164 174.442 236.422 174.798 237.719 175.155C239.016 175.511 240.214 175.967 241.324 176.511C242.433 177.056 243.324 177.819 244.007 178.809C244.69 179.799 245.027 181.106 245.027 182.74C245.027 184.374 244.73 185.641 244.136 186.751C243.542 187.86 242.71 188.741 241.631 189.404C240.561 190.068 239.294 190.553 237.848 190.86C236.402 191.167 234.828 191.316 233.124 191.316H233.114Z" fill="#004E48"/>
<path d="M250.285 190.702V153.765H256.514V190.702H250.285Z" fill="#004E48"/>
<path d="M275.11 191.316C272.179 191.316 269.733 190.811 267.753 189.81C265.772 188.81 264.297 187.265 263.307 185.186C262.316 183.106 261.821 180.472 261.821 177.264C261.821 174.056 262.316 171.382 263.307 169.322C264.297 167.262 265.772 165.728 267.753 164.727C269.733 163.727 272.179 163.222 275.11 163.222C278.042 163.222 280.537 163.727 282.498 164.727C284.458 165.728 285.924 167.262 286.914 169.322C287.904 171.382 288.399 174.036 288.399 177.264C288.399 180.492 287.904 183.106 286.914 185.186C285.924 187.265 284.448 188.81 282.498 189.81C280.537 190.811 278.081 191.316 275.11 191.316ZM275.11 186.206C276.744 186.206 278.061 185.889 279.071 185.265C280.072 184.631 280.804 183.681 281.27 182.403C281.725 181.126 281.963 179.532 281.963 177.63V176.917C281.963 175.006 281.735 173.422 281.27 172.144C280.814 170.867 280.072 169.916 279.071 169.283C278.071 168.649 276.744 168.342 275.11 168.342C273.476 168.342 272.159 168.659 271.149 169.283C270.139 169.916 269.416 170.867 268.951 172.144C268.496 173.422 268.258 175.016 268.258 176.917V177.63C268.258 179.542 268.486 181.126 268.951 182.403C269.407 183.681 270.139 184.631 271.149 185.265C272.15 185.899 273.476 186.206 275.11 186.206Z" fill="#004E48"/>
<path d="M314.889 191.316C311.958 191.316 309.512 190.811 307.531 189.81C305.551 188.81 304.075 187.265 303.085 185.186C302.095 183.106 301.6 180.472 301.6 177.264C301.6 174.056 302.095 171.382 303.085 169.322C304.075 167.262 305.551 165.728 307.531 164.727C309.512 163.727 311.958 163.222 314.889 163.222C317.82 163.222 320.315 163.727 322.276 164.727C324.237 165.728 325.702 167.262 326.692 169.322C327.683 171.382 328.178 174.036 328.178 177.264C328.178 180.492 327.683 183.106 326.692 185.186C325.702 187.265 324.227 188.81 322.276 189.81C320.315 190.811 317.859 191.316 314.889 191.316ZM314.889 186.206C316.523 186.206 317.84 185.889 318.85 185.265C319.85 184.631 320.583 183.681 321.048 182.403C321.504 181.126 321.741 179.532 321.741 177.63V176.917C321.741 175.006 321.513 173.422 321.048 172.144C320.593 170.867 319.85 169.916 318.85 169.283C317.85 168.649 316.523 168.342 314.889 168.342C313.255 168.342 311.938 168.659 310.928 169.283C309.918 169.916 309.195 170.867 308.729 172.144C308.274 173.422 308.036 175.016 308.036 176.917V177.63C308.036 179.542 308.264 181.126 308.729 182.403C309.185 183.681 309.918 184.631 310.928 185.265C311.928 185.899 313.255 186.206 314.889 186.206Z" fill="#004E48"/>
<path d="M337.931 200C336.743 200 335.614 199.762 334.555 199.287C333.495 198.812 332.643 198.099 332 197.168C331.356 196.227 331.029 195.078 331.029 193.722C331.029 192.227 331.465 191.038 332.336 190.167C333.208 189.295 334.168 188.642 335.228 188.196C334.446 187.79 333.802 187.246 333.317 186.562C332.822 185.879 332.574 185.067 332.574 184.107C332.574 182.809 333.049 181.779 334 181.017C334.951 180.254 336.04 179.749 337.268 179.512C336.01 178.73 335.05 177.719 334.376 176.501C333.713 175.274 333.376 173.877 333.376 172.313C333.376 170.441 333.832 168.827 334.733 167.48C335.634 166.134 336.951 165.084 338.694 164.341C340.427 163.589 342.526 163.222 344.982 163.222C345.972 163.222 346.923 163.292 347.844 163.43C348.765 163.569 349.596 163.767 350.349 164.044C351.537 163.331 352.359 162.519 352.805 161.618C353.25 160.717 353.488 159.974 353.518 159.4H359.598C359.598 160.588 359.37 161.648 358.905 162.569C358.449 163.49 357.806 164.242 356.994 164.846C356.172 165.44 355.191 165.876 354.033 166.153C354.884 166.906 355.528 167.807 355.974 168.857C356.419 169.916 356.637 171.075 356.637 172.333C356.637 174.204 356.201 175.828 355.33 177.185C354.458 178.551 353.181 179.601 351.498 180.354C349.814 181.106 347.745 181.472 345.289 181.472H341.15C340.437 181.472 339.882 181.621 339.486 181.928C339.09 182.235 338.902 182.661 338.902 183.205C338.902 183.651 339.08 184.037 339.436 184.384C339.793 184.72 340.298 184.899 340.942 184.899H352.696C354.706 184.899 356.37 185.552 357.677 186.869C358.984 188.186 359.647 189.86 359.647 191.9C359.647 193.435 359.251 194.811 358.449 196.039C357.647 197.267 356.538 198.237 355.102 198.95C353.676 199.663 352.003 200.02 350.092 200.02H337.931V200ZM340.179 195.504H350.042C350.686 195.504 351.26 195.395 351.755 195.177C352.25 194.96 352.636 194.643 352.934 194.227C353.221 193.821 353.369 193.355 353.369 192.85C353.369 191.969 353.092 191.296 352.528 190.86C351.963 190.414 351.28 190.197 350.458 190.197H340.189C339.367 190.197 338.694 190.444 338.149 190.939C337.605 191.434 337.327 192.068 337.327 192.85C337.327 193.633 337.595 194.276 338.119 194.762C338.644 195.257 339.337 195.504 340.189 195.504H340.179ZM345.031 177.066C346.834 177.066 348.19 176.65 349.091 175.818C349.993 174.986 350.448 173.818 350.448 172.323C350.448 170.827 349.993 169.669 349.091 168.847C348.19 168.025 346.834 167.619 345.031 167.619C343.229 167.619 341.872 168.025 340.971 168.847C340.07 169.669 339.615 170.827 339.615 172.323C339.615 173.313 339.813 174.164 340.199 174.877C340.585 175.59 341.189 176.135 341.991 176.511C342.793 176.888 343.803 177.076 345.031 177.076V177.066Z" fill="#004E48"/>
<path d="M373.462 190.702V155.657H398.644V161.331H380.097V170.728H396.802V176.402H380.097V190.711H373.452L373.462 190.702Z" fill="#004E48"/>
<path d="M414.438 191.316C411.507 191.316 409.061 190.811 407.081 189.81C405.1 188.81 403.625 187.265 402.635 185.186C401.645 183.106 401.149 180.472 401.149 177.264C401.149 174.056 401.645 171.382 402.635 169.322C403.625 167.262 405.1 165.728 407.081 164.727C409.061 163.727 411.507 163.222 414.438 163.222C417.37 163.222 419.865 163.727 421.826 164.727C423.786 165.728 425.252 167.262 426.242 169.322C427.232 171.382 427.728 174.036 427.728 177.264C427.728 180.492 427.232 183.106 426.242 185.186C425.252 187.265 423.777 188.81 421.826 189.81C419.865 190.811 417.409 191.316 414.438 191.316ZM414.438 186.206C416.072 186.206 417.389 185.889 418.399 185.265C419.4 184.631 420.132 183.681 420.598 182.403C421.053 181.126 421.291 179.532 421.291 177.63V176.917C421.291 175.006 421.063 173.422 420.598 172.144C420.142 170.867 419.4 169.916 418.399 169.283C417.399 168.649 416.072 168.342 414.438 168.342C412.805 168.342 411.488 168.659 410.478 169.283C409.467 169.916 408.745 170.867 408.279 172.144C407.824 173.422 407.586 175.016 407.586 176.917V177.63C407.586 179.542 407.814 181.126 408.279 182.403C408.735 183.681 409.467 184.631 410.478 185.265C411.478 185.899 412.805 186.206 414.438 186.206Z" fill="#004E48"/>
<path d="M433.035 190.702V153.765H439.264V190.702H433.035Z" fill="#004E48"/>
<path d="M445.908 190.702V153.765H452.137V190.702H445.908Z" fill="#004E48"/>
<path d="M470.733 191.316C467.802 191.316 465.356 190.811 463.376 189.81C461.395 188.81 459.92 187.265 458.93 185.186C457.939 183.106 457.444 180.472 457.444 177.264C457.444 174.056 457.939 171.382 458.93 169.322C459.92 167.262 461.395 165.728 463.376 164.727C465.356 163.727 467.802 163.222 470.733 163.222C473.665 163.222 476.16 163.727 478.121 164.727C480.081 165.728 481.547 167.262 482.537 169.322C483.527 171.382 484.023 174.036 484.023 177.264C484.023 180.492 483.527 183.106 482.537 185.186C481.547 187.265 480.071 188.81 478.121 189.81C476.16 190.811 473.704 191.316 470.733 191.316ZM470.733 186.206C472.367 186.206 473.684 185.889 474.694 185.265C475.695 184.631 476.427 183.681 476.893 182.403C477.348 181.126 477.586 179.532 477.586 177.63V176.917C477.586 175.006 477.358 173.422 476.893 172.144C476.437 170.867 475.695 169.916 474.694 169.283C473.694 168.649 472.367 168.342 470.733 168.342C469.1 168.342 467.782 168.659 466.772 169.283C465.762 169.916 465.04 170.867 464.574 172.144C464.119 173.422 463.881 175.016 463.881 176.917V177.63C463.881 179.542 464.109 181.126 464.574 182.403C465.03 183.681 465.762 184.631 466.772 185.265C467.773 185.899 469.1 186.206 470.733 186.206Z" fill="#004E48"/>
</g>
<defs>
<clipPath id="clip0_5_1990">
<rect width="485.082" height="200" fill="white"/>
</clipPath>
</defs>
</svg>
