<svg width="1220" height="200" viewBox="0 0 1220 200" fill="none" xmlns="http://www.w3.org/2000/svg">
<g clip-path="url(#clip0_39_778)">
<path d="M475.141 175.016C462.086 175.39 449.157 172.705 437.352 167.208C426.858 161.961 418.426 153.404 413.367 142.786C407.87 131.793 405.122 117.489 405.122 99.9375C405.122 74.4535 411.305 55.5903 423.61 43.3479C435.915 31.1056 453.092 24.9844 475.141 24.9844C486.196 24.797 497.189 26.9207 507.433 31.1056C516.677 34.9157 524.672 41.3492 530.356 49.594C536.352 58.9632 539.288 69.8938 538.788 80.9494H510.806C510.993 74.7033 509.432 68.5197 506.309 63.0856C503.31 58.2761 498.938 54.4035 493.816 52.03C488.132 49.4691 481.886 48.2199 475.64 48.3448C467.333 48.0325 459.151 50.0312 451.843 53.9663C445.409 57.7764 440.475 63.5853 437.726 70.5184C434.478 79.2005 432.917 88.4447 433.229 97.7514V102.436C432.917 111.805 434.478 121.112 437.726 129.856C440.35 136.727 445.284 142.536 451.593 146.346C458.214 149.656 465.522 151.468 472.892 151.78C480.325 152.092 487.695 150.843 494.566 148.157C499.813 145.846 504.247 142.036 507.308 137.164C510.493 131.793 512.055 125.609 511.805 119.363H538.726C539.163 130.419 536.227 141.349 530.294 150.718C524.672 158.963 516.74 165.334 507.495 169.082C497.189 173.204 486.134 175.265 475.016 175.078L475.141 175.016Z" fill="#014E48"/>
<path d="M627.108 175.016C614.116 175.39 601.187 172.705 589.382 167.208C578.888 161.961 570.456 153.404 565.397 142.786C559.775 131.793 556.964 117.489 557.089 100C557.089 74.5159 563.273 55.6527 575.578 43.4104C587.883 31.168 605.059 25.0468 627.108 25.0468C638.164 24.8595 649.157 26.9831 659.4 31.168C668.645 34.9781 676.64 41.4116 682.324 49.6565C688.32 58.9631 691.255 69.9563 690.756 81.0119H662.836C663.023 74.7658 661.462 68.5821 658.276 63.148C655.278 58.3385 650.906 54.466 645.784 52.0924C640.037 49.4691 633.791 48.1574 627.483 48.2823C619.175 47.97 610.993 49.9688 603.748 53.9038C597.314 57.7139 592.38 63.5228 589.631 70.456C586.384 79.138 584.822 88.3823 585.072 97.6889V102.374C584.822 111.743 586.321 121.049 589.631 129.794C592.255 136.665 597.189 142.473 603.498 146.284C610.119 149.594 617.364 151.405 624.797 151.718C632.167 152.03 639.6 150.781 646.471 148.095C651.718 145.784 656.152 141.974 659.213 137.102C662.336 131.73 663.898 125.547 663.71 119.3H690.631C691.068 130.356 688.132 141.287 682.199 150.656C676.577 158.901 668.645 165.272 659.4 169.019C649.157 173.142 638.164 175.141 627.108 175.016V175.016Z" fill="#014E48"/>
<path d="M382.386 115.803C380.075 111.056 376.702 106.933 372.455 103.748C368.207 100.562 363.335 98.376 358.151 97.3142V96.4397C362.586 94.9407 366.708 92.6296 370.269 89.569C373.891 86.5084 376.765 82.6358 378.701 78.2636C380.887 73.579 381.949 68.4572 381.886 63.273C382.011 56.6521 380.2 50.0937 376.64 44.4722C373.079 39.0381 368.082 34.7283 362.211 31.98C355.715 28.9194 348.595 27.4204 341.474 27.5453H259.9V172.517H341.537C349.282 172.642 356.964 171.205 364.085 168.207C370.581 165.459 376.14 160.837 380.075 155.028C384.322 148.345 386.383 140.537 386.071 132.605C386.134 126.796 384.884 121.049 382.386 115.803V115.803ZM287.258 51.0931H335.853C340.6 50.9057 345.222 52.4672 348.782 55.5278C350.531 57.3392 351.905 59.4628 352.779 61.8363C353.654 64.2099 353.966 66.7083 353.779 69.2692C353.779 72.3298 353.029 75.3904 351.593 78.1387C350.094 80.8245 347.783 83.0731 345.034 84.5097C341.724 86.1337 338.101 86.9457 334.416 86.8207H287.32V51.1555L287.258 51.0931ZM352.155 144.285C348.157 147.533 343.16 149.219 338.039 149.032H287.258V109.744H336.227C340.412 109.619 344.535 110.431 348.345 112.18C351.343 113.679 353.841 116.052 355.403 119.051C357.027 122.236 357.776 125.796 357.714 129.419C357.714 136.165 355.84 141.099 352.155 144.285V144.285Z" fill="#014E48"/>
<path d="M199.875 99.9375C199.875 119.738 194.004 139.038 183.073 155.465C172.08 171.893 156.465 184.697 138.226 192.317C119.987 199.875 99.8751 201.874 80.4497 198.001C61.0868 194.129 43.223 184.635 29.2942 170.643C15.3029 156.652 5.80887 138.851 1.93629 119.488C-1.93629 100.062 -5.52827e-07 79.95 7.62024 61.7114C15.178 43.4728 27.9825 27.8576 44.4097 16.8645C60.837 5.87133 80.1999 0 99.9375 0C126.421 0 151.843 10.5559 170.581 29.2942C189.319 48.0325 199.875 73.4541 199.875 99.9375ZM103.186 29.9813H96.6896C93.8164 29.9813 91.0681 31.168 89.0693 33.1668C87.0706 35.1655 85.8838 37.9138 85.8838 40.787V47.2829C85.8838 50.1562 87.0081 52.9044 89.0693 54.9032C91.0681 56.9019 93.8164 58.0887 96.6896 58.0887H103.186C106.059 58.0887 108.807 56.9644 110.806 54.9032C112.804 52.9044 113.991 50.1562 113.991 47.2829V40.787C113.991 37.9138 112.804 35.228 110.806 33.2292C108.807 31.2305 106.059 30.1062 103.186 30.1062V29.9813ZM136.415 63.3354H129.981C127.108 63.3354 124.36 64.4597 122.361 66.5209C120.362 68.5197 119.176 71.268 119.176 74.1412V80.5746C119.176 83.4478 120.3 86.1961 122.361 88.1949C124.36 90.1936 127.108 91.3804 129.981 91.3804H136.415C139.288 91.3804 142.036 90.2561 144.035 88.1949C146.034 86.1337 147.22 83.4478 147.22 80.5746V74.1412C147.22 71.268 146.034 68.5821 144.035 66.5834C142.036 64.5846 139.288 63.4603 136.415 63.4603V63.3354ZM103.186 141.849H96.6896C93.8164 141.849 91.0681 142.973 89.0693 145.034C87.0706 147.033 85.8838 149.781 85.8838 152.655V159.213C85.8838 162.086 87.0706 164.834 89.0693 166.833C91.0681 168.832 93.8164 170.019 96.6896 170.019H103.186C106.059 170.019 108.807 168.894 110.806 166.833C112.804 164.772 113.991 162.086 113.991 159.213V152.717C113.991 149.844 112.804 147.158 110.806 145.097C108.807 143.098 106.059 141.974 103.186 141.974V141.849V141.849ZM113.991 80.5122V74.0162C113.991 71.143 112.867 68.3948 110.806 66.396C108.807 64.3973 106.059 63.2105 103.186 63.2105H63.4603C60.5871 63.2105 57.8388 64.3973 55.8401 66.396C53.8413 68.3948 52.6546 71.143 52.6546 74.0162V80.5122C52.6546 83.3854 53.7789 86.1337 55.8401 88.1324C57.8388 90.1312 60.5871 91.3179 63.4603 91.3179H86.0087V125.921C86.0087 128.795 87.1955 131.543 89.1943 133.542C91.193 135.54 93.9413 136.727 96.8145 136.727H103.31C106.184 136.727 108.932 135.603 110.931 133.542C112.929 131.543 114.116 128.795 114.116 125.921V80.6371L113.991 80.5122Z" fill="#014E48"/>
<path d="M750.718 172.517V27.1705H855.091V50.7183H778.264V89.6939H847.595V113.242H778.264V172.455H750.718V172.517Z" fill="#014E48"/>
<path d="M920.612 175.016C910.119 175.328 899.75 173.204 890.256 168.77C882.074 164.647 875.578 157.901 871.83 149.594C863.648 128.42 863.648 104.934 871.83 83.8226C875.64 75.5778 882.136 68.832 890.256 64.772C899.938 60.6496 910.306 58.5259 920.8 58.5259C931.293 58.5259 941.724 60.6496 951.343 64.772C959.4 68.8944 965.834 75.5778 969.644 83.8226C977.826 104.997 977.826 128.482 969.644 149.594C965.896 157.839 959.463 164.647 951.343 168.77C941.724 173.267 931.231 175.39 920.612 175.016V175.016ZM920.612 153.841C926.359 154.091 932.043 152.78 937.039 149.906C941.349 147.096 944.597 142.911 946.159 138.039C948.22 131.668 949.157 124.984 948.969 118.301V115.365C949.157 108.682 948.22 101.999 946.159 95.6277C944.597 90.7558 941.349 86.5709 937.039 83.7601C931.918 81.1992 926.359 79.8251 920.612 79.8251C914.866 79.8251 909.307 81.1992 904.185 83.7601C899.875 86.5709 896.69 90.7558 895.066 95.6277C893.004 101.999 892.068 108.682 892.255 115.365V118.301C892.068 124.984 893.004 131.668 895.066 138.039C896.69 142.911 899.875 147.096 904.185 149.906C909.182 152.717 914.866 154.091 920.612 153.841Z" fill="#014E48"/>
<path d="M997.751 172.517V61.0868H1019.36L1021.49 75.8901H1022.99C1025.55 72.5172 1028.61 69.4566 1031.98 66.8957C1035.54 64.2099 1039.6 62.1487 1043.85 60.7745C1048.59 59.2755 1053.59 58.5259 1058.59 58.5259C1065.02 58.401 1071.46 59.7127 1077.33 62.336C1082.82 64.9594 1087.32 69.2692 1090.19 74.5784C1093.57 81.574 1095.19 89.3816 1094.82 97.1268V172.33H1068.77V101.811C1068.83 98.5009 1068.39 95.128 1067.4 91.9425C1066.65 89.569 1065.27 87.3829 1063.46 85.634C1061.65 83.8851 1059.4 82.6983 1056.96 82.0737C1054.22 81.3242 1051.34 80.9494 1048.53 81.0119C1044.1 80.9494 1039.73 82.1362 1035.92 84.3848C1032.17 86.6334 1029.11 89.8813 1026.98 93.6914C1024.73 97.9388 1023.61 102.686 1023.74 107.433V172.33H997.876L997.751 172.517Z" fill="#014E48"/>
<path d="M1160.27 175.016C1152.03 175.203 1143.85 173.079 1136.73 168.894C1129.73 164.335 1124.3 157.651 1121.36 149.844C1117.36 139.225 1115.49 127.92 1115.87 116.615C1115.55 105.372 1117.43 94.1911 1121.49 83.6977C1124.3 76.1399 1129.42 69.644 1136.1 65.1468C1142.79 60.6496 1150.72 58.3385 1158.78 58.5884C1163.52 58.5884 1168.27 59.0881 1172.89 60.3373C1176.95 61.3367 1180.76 63.0856 1184.2 65.5215C1187.45 67.8326 1190.26 70.7058 1192.44 73.9538H1193.69V19.3004H1219.55V172.517H1197.94L1195.82 157.651H1194.32C1190.94 163.335 1185.95 167.833 1180.01 170.706C1173.83 173.641 1167.08 175.141 1160.21 175.078L1160.27 175.016ZM1168.33 152.78C1173.45 153.029 1178.51 151.593 1182.76 148.782C1186.63 145.846 1189.44 141.724 1190.88 137.102C1192.82 131.106 1193.69 124.797 1193.5 118.488V115.678C1193.5 110.681 1193.07 105.746 1192.07 100.812C1191.26 96.8769 1189.69 93.1293 1187.51 89.7564C1185.51 86.8207 1182.82 84.5097 1179.64 83.0106C1176.08 81.3866 1172.27 80.5746 1168.33 80.6996C1163.02 80.4497 1157.78 81.6989 1153.15 84.4472C1149.22 87.1955 1146.35 91.2555 1145.1 95.8776C1143.29 102.249 1142.47 108.869 1142.66 115.49V118.426C1142.47 124.922 1143.29 131.418 1145.1 137.726C1146.41 142.286 1149.22 146.284 1153.15 149.032C1157.71 151.718 1162.96 153.092 1168.27 152.842L1168.33 152.78Z" fill="#014E48"/>
</g>
<defs>
<clipPath id="clip0_39_778">
<rect width="1219.61" height="200" fill="white"/>
</clipPath>
</defs>
</svg>
