<svg width="469" height="200" viewBox="0 0 469 200" fill="none" xmlns="http://www.w3.org/2000/svg">
<g clip-path="url(#clip0_40_1150)">
<path d="M322.433 118.691C312.441 118.691 303.905 116.92 296.813 113.389C289.722 109.857 284.305 104.335 280.544 96.8418C276.782 89.3483 274.907 79.6727 274.907 67.8247C274.907 50.5407 279.089 37.7357 287.463 29.4287C295.837 21.1216 307.484 16.9586 322.423 16.9586C330.51 16.9586 337.812 18.3462 344.33 21.1121C350.847 23.8875 356.034 28.0601 359.881 33.6492C363.738 39.2382 365.662 46.3298 365.662 54.9239H346.684C346.684 50.1483 345.66 46.1097 343.612 42.8175C341.564 39.5253 338.731 37.0179 335.123 35.2952C331.505 33.5726 327.371 32.7208 322.71 32.7208C316.241 32.7208 310.862 33.9841 306.584 36.5202C302.306 39.0564 299.139 42.7984 297.091 47.7653C295.043 52.7323 294.019 58.8956 294.019 66.2456V69.3942C294.019 76.8495 295.043 83.051 297.091 88.018C299.139 92.985 302.278 96.7078 306.508 99.1961C310.738 101.684 316.145 102.919 322.701 102.919C327.649 102.919 331.974 102.086 335.688 100.412C339.401 98.7367 342.272 96.258 344.32 92.9563C346.368 89.6641 347.392 85.6254 347.392 80.8498H365.662C365.662 89.444 363.757 96.5355 359.958 102.125C356.149 107.714 350.991 111.867 344.473 114.595C337.956 117.313 330.606 118.681 322.423 118.681L322.433 118.691Z" fill="#004E48"/>
<path d="M425.572 118.691C415.58 118.691 407.044 116.92 399.952 113.389C392.861 109.857 387.444 104.335 383.683 96.8418C379.922 89.3483 378.046 79.6727 378.046 67.8247C378.046 50.5407 382.228 37.7357 390.602 29.4287C398.976 21.1216 410.623 16.9586 425.562 16.9586C433.649 16.9586 440.951 18.3462 447.469 21.1121C453.986 23.8875 459.173 28.0601 463.02 33.6492C466.877 39.2382 468.801 46.3298 468.801 54.9239H449.823C449.823 50.1483 448.799 46.1097 446.751 42.8175C444.703 39.5253 441.87 37.0179 438.262 35.2952C434.644 33.5726 430.51 32.7208 425.849 32.7208C419.38 32.7208 414.001 33.9841 409.723 36.5202C405.446 39.0564 402.278 42.7984 400.23 47.7653C398.182 52.7323 397.158 58.8956 397.158 66.2456V69.3942C397.158 76.8495 398.182 83.051 400.23 88.018C402.278 92.985 405.417 96.7078 409.647 99.1961C413.877 101.684 419.284 102.919 425.84 102.919C430.788 102.919 435.113 102.086 438.827 100.412C442.54 98.7367 445.411 96.258 447.459 92.9563C449.507 89.6641 450.531 85.6254 450.531 80.8498H468.801C468.801 89.444 466.896 96.5355 463.097 102.125C459.288 107.714 454.13 111.867 447.612 114.595C441.095 117.313 433.745 118.681 425.562 118.681L425.572 118.691Z" fill="#004E48"/>
<path d="M259.499 78.4955C257.872 75.2034 255.632 72.4758 252.771 70.3321C249.909 68.1788 246.665 66.7241 243.047 65.9585V65.3842C246.1 64.3315 248.837 62.7811 251.268 60.7235C253.699 58.6659 255.632 56.1202 257.058 53.0577C258.484 50.0048 259.202 46.6073 259.202 42.8845C259.202 38.0132 258.006 33.764 255.623 30.1369C253.24 26.5097 249.976 23.6865 245.823 21.6863C241.679 19.6765 236.98 18.6812 231.735 18.6812H176.323V116.968H231.735C237.362 116.968 242.435 115.992 246.971 114.03C251.498 112.078 255.125 109.082 257.843 105.072C260.561 101.062 261.92 95.9996 261.92 89.8842C261.92 85.5871 261.106 81.7877 259.489 78.4955H259.499ZM194.928 34.5775H227.878C231.505 34.5775 234.434 35.5824 236.673 37.5825C238.913 39.5923 240.033 42.6931 240.033 46.8944C240.033 49.0956 239.535 51.0958 238.53 52.9142C237.525 54.7325 236.051 56.1585 234.099 57.2112C232.147 58.2639 229.735 58.7903 226.873 58.7903H194.918V34.5775H194.928ZM238.97 97.8371C236.444 99.9904 233.228 101.062 229.314 101.062H194.928V74.409H228.165C231.505 74.409 234.243 74.9641 236.386 76.0551C238.53 77.1557 240.128 78.7061 241.181 80.7159C242.234 82.7256 242.75 85.0608 242.75 87.7405C242.75 92.3246 241.487 95.6934 238.961 97.8371H238.97Z" fill="#004E48"/>
<path d="M135.64 67.8247C135.64 105.283 105.273 135.649 67.8151 135.649C30.357 135.649 0 105.273 0 67.8247C0 30.3761 30.3665 0 67.8247 0C105.283 0 135.649 30.3665 135.649 67.8247H135.64ZM70.0163 20.3464H65.6139C61.5848 20.3464 58.2831 23.6482 58.2831 27.6773V32.0796C58.2831 36.1087 61.5848 39.4105 65.6139 39.4105H70.0163C74.0454 39.4105 77.3471 36.1087 77.3471 32.0796V27.6773C77.3471 23.6482 74.0454 20.3464 70.0163 20.3464V20.3464ZM92.5639 42.961H88.1616C84.1325 42.961 80.8307 46.2628 80.8307 50.2919V54.6942C80.8307 58.7233 84.1325 62.0251 88.1616 62.0251H92.5639C96.593 62.0251 99.8947 58.7233 99.8947 54.6942V50.2919C99.8947 46.2628 96.593 42.961 92.5639 42.961ZM70.0163 96.2389H65.6139C61.5848 96.2389 58.2831 99.5406 58.2831 103.57V107.972C58.2831 112.001 61.5848 115.303 65.6139 115.303H70.0163C74.0454 115.303 77.3471 112.001 77.3471 107.972V103.57C77.3471 99.5406 74.0454 96.2389 70.0163 96.2389ZM77.3471 54.6272V50.2249C77.3471 46.1958 74.0454 42.8941 70.0163 42.8941H43.0663C39.0372 42.8941 35.7355 46.1958 35.7355 50.2249V54.6272C35.7355 58.6563 39.0372 61.9581 43.0663 61.9581H58.2831V83.2137V85.4149C58.2831 89.444 61.5848 92.7457 65.6139 92.7457H70.0163C74.0454 92.7457 77.3471 89.444 77.3471 85.4149V81.0125V54.6272V54.6272Z" fill="#004E48"/>
<path d="M7.62752 199.474V168.992H20.557C22.2701 168.992 23.7343 169.289 24.9593 169.882C26.1747 170.476 27.1031 171.318 27.7251 172.418C28.3472 173.519 28.663 174.801 28.663 176.285C28.663 177.5 28.4716 178.591 28.0984 179.577C27.7251 180.553 27.1892 181.367 26.5097 182.017C25.8302 182.668 25.0359 183.156 24.1363 183.482V183.663C25.122 183.903 26.0121 184.324 26.816 184.927C27.6103 185.539 28.2419 186.343 28.7109 187.348C29.1702 188.353 29.4095 189.616 29.4095 191.128C29.4095 193.109 29.0363 194.717 28.2802 195.952C27.5242 197.177 26.4619 198.076 25.1029 198.641C23.7343 199.206 22.1169 199.483 20.222 199.483H7.62752V199.474ZM11.5896 182.142H19.8584C20.9015 182.142 21.7724 181.931 22.471 181.52C23.1697 181.108 23.696 180.515 24.0597 179.768C24.4234 179.012 24.6052 178.161 24.6052 177.213C24.6052 175.615 24.2128 174.428 23.4281 173.662C22.6433 172.897 21.5427 172.504 20.1168 172.504H11.5896V182.142V182.142ZM11.5896 195.961H20.3847C21.983 195.961 23.208 195.55 24.0597 194.736C24.9115 193.923 25.3421 192.593 25.3421 190.755C25.3421 189.626 25.1603 188.678 24.7966 187.913C24.433 187.147 23.8779 186.563 23.141 186.18C22.4041 185.798 21.4375 185.606 20.2412 185.606H11.5896V195.961Z" fill="#004E48"/>
<path d="M34.3669 199.474V176.103H37.3241L37.6304 179.701H37.8888C38.1185 178.936 38.4439 178.237 38.8458 177.615C39.2478 176.993 39.7646 176.495 40.3675 176.122C40.98 175.749 41.7073 175.567 42.5495 175.567C42.9228 175.567 43.2577 175.596 43.5544 175.653C43.8415 175.711 44.0808 175.768 44.253 175.835V179.481H42.8558C42.071 179.481 41.3724 179.625 40.7694 179.922C40.1569 180.218 39.6497 180.658 39.2478 181.233C38.8362 181.807 38.53 182.515 38.3099 183.338C38.0898 184.171 37.9845 185.118 37.9845 186.18V199.464H34.3669V199.474Z" fill="#004E48"/>
<path d="M53.8712 200C51.9571 200 50.4163 199.464 49.2583 198.402C48.1003 197.339 47.5165 195.483 47.5165 192.851V176.103H51.1724V192.229C51.1724 193.061 51.2585 193.751 51.4308 194.315C51.603 194.88 51.8614 195.33 52.1964 195.674C52.5313 196.019 52.9524 196.268 53.4597 196.43C53.9669 196.593 54.522 196.679 55.1345 196.679C56.0915 196.679 56.9815 196.411 57.795 195.875C58.6085 195.339 59.2592 194.564 59.7569 193.54C60.2546 192.516 60.4938 191.301 60.4938 189.875V176.103H64.1114V199.474H61.1924L60.8479 196.143H60.5895C60.0632 197.033 59.4602 197.76 58.7807 198.344C58.1012 198.918 57.3548 199.34 56.5413 199.608C55.7278 199.876 54.8473 200.01 53.8807 200.01L53.8712 200Z" fill="#004E48"/>
<path d="M70.0354 199.474V176.103H72.9926L73.2989 179.433H73.5573C74.0836 178.515 74.677 177.778 75.3661 177.213C76.0455 176.648 76.8016 176.237 77.6342 175.969C78.4573 175.701 79.3377 175.567 80.2661 175.567C81.5389 175.567 82.6586 175.797 83.6157 176.256C84.5727 176.715 85.3096 177.462 85.836 178.496C86.3623 179.529 86.6207 180.926 86.6207 182.668V199.464H82.9649V183.338C82.9649 182.505 82.8787 181.816 82.7065 181.252C82.5342 180.687 82.2758 180.237 81.9409 179.893C81.6059 179.548 81.1848 179.299 80.6776 179.137C80.1703 178.974 79.6153 178.888 79.0028 178.888C78.0457 178.888 77.1557 179.156 76.3422 179.692C75.5288 180.228 74.878 180.993 74.3803 181.998C73.8827 183.003 73.6434 184.238 73.6434 185.683V199.454H70.0258L70.0354 199.474Z" fill="#004E48"/>
<path d="M99.2057 200C97.7797 200 96.5451 199.837 95.4828 199.512C94.4205 199.187 93.5496 198.718 92.8701 198.115C92.1906 197.512 91.6834 196.775 91.3676 195.913C91.0518 195.052 90.8891 194.095 90.8891 193.023V192.583C90.8891 192.439 90.8986 192.305 90.9369 192.181H94.4684C94.4397 192.334 94.4205 192.459 94.4205 192.583V192.889C94.4492 193.865 94.6693 194.66 95.0713 195.263C95.4732 195.875 96.0475 196.306 96.7939 196.574C97.5404 196.842 98.3826 196.976 99.3396 196.976C100.239 196.976 101.034 196.832 101.713 196.555C102.393 196.277 102.929 195.856 103.321 195.311C103.713 194.765 103.905 194.076 103.905 193.243C103.905 192.296 103.637 191.559 103.101 191.042C102.565 190.525 101.866 190.104 101.014 189.798C100.163 189.492 99.2535 189.166 98.2965 188.841C97.4543 188.573 96.6313 188.276 95.8369 187.951C95.033 187.626 94.3152 187.214 93.6549 186.707C93.0041 186.2 92.4777 185.578 92.0854 184.821C91.693 184.065 91.5016 183.108 91.5016 181.96C91.5016 180.955 91.693 180.046 92.0662 179.252C92.4395 178.448 92.985 177.778 93.674 177.232C94.3727 176.687 95.2053 176.266 96.1814 175.988C97.1576 175.711 98.2486 175.567 99.4736 175.567C100.699 175.567 101.866 175.72 102.823 176.036C103.78 176.342 104.575 176.773 105.216 177.328C105.857 177.873 106.336 178.524 106.651 179.261C106.967 179.998 107.13 180.821 107.13 181.702C107.13 181.883 107.13 182.075 107.111 182.276C107.092 182.486 107.092 182.659 107.092 182.812H103.56V182.008C103.56 181.357 103.426 180.783 103.149 180.276C102.871 179.768 102.431 179.366 101.818 179.051C101.206 178.735 100.383 178.582 99.3396 178.582C98.6123 178.582 97.9807 178.658 97.4447 178.802C96.9088 178.945 96.4686 179.165 96.1336 179.443C95.7986 179.721 95.5498 180.055 95.368 180.438C95.1957 180.821 95.1096 181.271 95.1096 181.769C95.1096 182.544 95.3297 183.147 95.7891 183.587C96.2389 184.027 96.8227 184.391 97.55 184.678C98.2773 184.955 99.0621 185.252 99.9043 185.549C100.775 185.846 101.665 186.161 102.584 186.487C103.503 186.812 104.335 187.224 105.111 187.712C105.876 188.2 106.498 188.851 106.958 189.664C107.417 190.478 107.656 191.521 107.656 192.794C107.656 194.066 107.446 195.11 107.025 196.019C106.603 196.928 106.02 197.674 105.264 198.258C104.508 198.852 103.627 199.292 102.603 199.569C101.589 199.847 100.459 199.99 99.2057 199.99V200Z" fill="#004E48"/>
<path d="M117.016 200C115.915 200 115.054 199.78 114.451 199.33C113.848 198.88 113.418 198.277 113.188 197.512C112.958 196.746 112.843 195.913 112.843 195.023V179.252H110.317V176.093H112.882L113.58 169.519H116.499V176.093H120.203V179.252H116.499V194.717C116.499 195.454 116.604 196 116.825 196.335C117.045 196.679 117.456 196.842 118.069 196.842H120.203V199.33C119.916 199.445 119.581 199.56 119.198 199.665C118.825 199.77 118.452 199.847 118.088 199.914C117.724 199.971 117.37 200 117.026 200H117.016Z" fill="#004E48"/>
<path d="M129.553 200C128.74 200 127.945 199.885 127.16 199.665C126.376 199.445 125.677 199.091 125.045 198.603C124.423 198.115 123.926 197.454 123.562 196.622C123.198 195.789 123.017 194.784 123.017 193.597C123.017 192.143 123.323 190.927 123.935 189.932C124.548 188.937 125.419 188.123 126.567 187.492C127.716 186.86 129.113 186.401 130.768 186.113C132.424 185.836 134.309 185.692 136.434 185.692V182.716C136.434 181.855 136.3 181.127 136.042 180.515C135.783 179.912 135.334 179.443 134.692 179.118C134.051 178.792 133.171 178.629 132.032 178.629C130.845 178.629 129.917 178.811 129.266 179.185C128.615 179.558 128.165 180.027 127.917 180.61C127.668 181.185 127.543 181.816 127.543 182.496V183.07H124.06C124.031 182.926 124.012 182.773 124.012 182.63V182.094C124.012 180.582 124.356 179.347 125.055 178.381C125.754 177.414 126.72 176.706 127.974 176.246C129.218 175.787 130.663 175.557 132.281 175.557C133.898 175.557 135.343 175.806 136.501 176.313C137.659 176.821 138.549 177.577 139.162 178.601C139.774 179.625 140.08 180.917 140.08 182.486V195.33C140.08 195.866 140.195 196.248 140.425 196.488C140.655 196.727 140.951 196.842 141.296 196.842H142.865V199.282C142.454 199.464 142.014 199.617 141.535 199.751C141.057 199.885 140.53 199.952 139.946 199.952C139.219 199.952 138.635 199.799 138.185 199.483C137.736 199.167 137.391 198.746 137.161 198.22C136.932 197.684 136.769 197.091 136.683 196.44H136.425C135.956 197.148 135.381 197.77 134.702 198.306C134.022 198.842 133.247 199.253 132.395 199.55C131.534 199.847 130.587 199.99 129.543 199.99L129.553 200ZM130.51 196.842C131.266 196.842 131.993 196.698 132.711 196.421C133.419 196.143 134.051 195.741 134.606 195.224C135.161 194.708 135.601 194.057 135.936 193.291C136.271 192.526 136.434 191.645 136.434 190.669V188.449C134.252 188.449 132.462 188.611 131.056 188.937C129.649 189.262 128.596 189.779 127.897 190.487C127.199 191.195 126.854 192.114 126.854 193.243C126.854 194.047 126.998 194.708 127.285 195.243C127.572 195.779 127.993 196.181 128.548 196.44C129.103 196.698 129.754 196.842 130.51 196.842V196.842Z" fill="#004E48"/>
<path d="M153.067 200C151.383 200 149.957 199.588 148.78 198.756C147.603 197.923 146.703 196.603 146.081 194.775C145.459 192.956 145.143 190.573 145.143 187.645C145.143 184.716 145.459 182.496 146.081 180.735C146.703 178.974 147.593 177.672 148.761 176.821C149.919 175.979 151.316 175.557 152.943 175.557C153.842 175.557 154.666 175.672 155.402 175.912C156.139 176.151 156.809 176.514 157.403 177.003C157.996 177.491 158.494 178.132 158.905 178.936H159.164V167.337H162.819V199.464H159.9L159.556 196.268H159.298C158.685 197.426 157.843 198.335 156.752 199.005C155.661 199.675 154.436 200 153.077 200H153.067ZM153.986 196.708C155.23 196.708 156.235 196.382 156.991 195.732C157.747 195.081 158.302 194.133 158.647 192.889C158.991 191.645 159.173 190.123 159.173 188.315V187.338C159.173 185.769 159.039 184.439 158.781 183.367C158.522 182.295 158.159 181.414 157.69 180.764C157.221 180.113 156.685 179.634 156.053 179.319C155.431 179.003 154.752 178.85 154.024 178.85C152.866 178.85 151.909 179.137 151.153 179.72C150.397 180.295 149.842 181.204 149.478 182.429C149.115 183.654 148.933 185.262 148.933 187.252V188.362C148.933 190.344 149.124 191.951 149.498 193.186C149.871 194.42 150.435 195.311 151.172 195.875C151.909 196.44 152.847 196.717 153.986 196.717V196.708Z" fill="#004E48"/>
<path d="M189.042 200C186.257 200 183.922 199.426 182.056 198.287C180.18 197.148 178.773 195.416 177.835 193.09C176.888 190.765 176.419 187.807 176.419 184.228C176.419 178.897 177.529 174.935 179.749 172.342C181.97 169.748 185.137 168.456 189.262 168.456C191.588 168.456 193.617 168.877 195.358 169.72C197.1 170.562 198.45 171.835 199.407 173.538C200.364 175.242 200.842 177.414 200.842 180.046H196.832C196.832 178.237 196.536 176.744 195.942 175.557C195.349 174.371 194.478 173.481 193.329 172.868C192.181 172.265 190.793 171.959 189.166 171.959C187.367 171.959 185.817 172.371 184.506 173.184C183.195 173.998 182.209 175.261 181.548 176.983C180.879 178.706 180.544 180.926 180.544 183.644V185.022C180.544 187.693 180.879 189.865 181.548 191.549C182.218 193.234 183.185 194.478 184.467 195.282C185.74 196.086 187.3 196.478 189.128 196.478C190.755 196.478 192.152 196.181 193.329 195.588C194.507 194.995 195.397 194.105 196.009 192.928C196.622 191.75 196.928 190.248 196.928 188.439H200.804C200.804 191.08 200.306 193.253 199.32 194.976C198.335 196.698 196.957 197.962 195.186 198.775C193.416 199.588 191.368 200 189.042 200V200Z" fill="#004E48"/>
<path d="M205.8 199.474V167.346H209.417V178.897H209.723C210.221 178.132 210.786 177.5 211.417 177.012C212.059 176.524 212.757 176.16 213.532 175.921C214.298 175.682 215.15 175.567 216.078 175.567C217.351 175.567 218.461 175.797 219.409 176.256C220.356 176.715 221.083 177.462 221.61 178.495C222.136 179.529 222.394 180.926 222.394 182.668V199.464H218.739V183.338C218.739 182.505 218.652 181.816 218.48 181.252C218.308 180.687 218.05 180.237 217.715 179.893C217.38 179.548 216.959 179.299 216.451 179.137C215.944 178.974 215.389 178.888 214.777 178.888C213.819 178.888 212.929 179.146 212.116 179.663C211.303 180.18 210.652 180.945 210.154 181.95C209.656 182.955 209.417 184.199 209.417 185.683V199.454H205.8V199.474Z" fill="#004E48"/>
<path d="M228.098 199.474V176.103H231.056L231.362 179.701H231.62C231.85 178.936 232.175 178.237 232.577 177.615C232.979 176.993 233.496 176.495 234.099 176.122C234.711 175.749 235.439 175.567 236.271 175.567C236.645 175.567 236.98 175.596 237.276 175.653C237.563 175.711 237.803 175.768 237.975 175.835V179.481H236.578C235.793 179.481 235.094 179.625 234.491 179.922C233.879 180.218 233.372 180.658 232.97 181.233C232.558 181.807 232.252 182.515 232.032 183.338C231.812 184.171 231.706 185.118 231.706 186.18V199.464H228.089L228.098 199.474Z" fill="#004E48"/>
<path d="M241.468 171.614V167.346H245.086V171.614H241.468V171.614ZM241.468 199.474V176.103H245.086V199.474H241.468V199.474Z" fill="#004E48"/>
<path d="M257.881 200C256.455 200 255.221 199.837 254.158 199.512C253.096 199.187 252.225 198.718 251.546 198.115C250.866 197.512 250.359 196.775 250.043 195.913C249.727 195.052 249.565 194.095 249.565 193.023V192.583C249.565 192.439 249.584 192.305 249.612 192.181H253.144C253.115 192.334 253.096 192.459 253.096 192.583V192.889C253.125 193.865 253.345 194.66 253.747 195.263C254.149 195.875 254.723 196.306 255.469 196.574C256.206 196.842 257.058 196.976 258.015 196.976C258.915 196.976 259.709 196.832 260.389 196.555C261.068 196.277 261.604 195.856 261.996 195.311C262.389 194.765 262.58 194.076 262.58 193.243C262.58 192.296 262.312 191.559 261.776 191.042C261.24 190.525 260.542 190.104 259.69 189.798C258.829 189.492 257.929 189.166 256.972 188.841C256.13 188.573 255.307 188.276 254.512 187.951C253.708 187.626 252.991 187.214 252.33 186.707C251.68 186.2 251.153 185.578 250.761 184.821C250.368 184.065 250.177 183.108 250.177 181.96C250.177 180.955 250.368 180.046 250.742 179.252C251.115 178.448 251.66 177.778 252.349 177.232C253.048 176.687 253.881 176.266 254.857 175.988C255.833 175.711 256.924 175.567 258.149 175.567C259.374 175.567 260.542 175.72 261.499 176.036C262.456 176.342 263.25 176.773 263.891 177.328C264.532 177.873 265.011 178.524 265.327 179.261C265.643 179.998 265.805 180.821 265.805 181.702C265.805 181.883 265.805 182.075 265.786 182.276C265.767 182.486 265.767 182.659 265.767 182.812H262.236V182.008C262.236 181.357 262.102 180.783 261.824 180.276C261.547 179.768 261.106 179.366 260.494 179.051C259.881 178.735 259.058 178.582 258.015 178.582C257.288 178.582 256.656 178.658 256.12 178.802C255.584 178.945 255.144 179.165 254.809 179.443C254.474 179.721 254.225 180.055 254.043 180.438C253.871 180.821 253.785 181.271 253.785 181.769C253.785 182.544 254.005 183.147 254.465 183.587C254.914 184.027 255.498 184.391 256.225 184.678C256.953 184.955 257.738 185.252 258.58 185.549C259.451 185.846 260.341 186.161 261.259 186.487C262.178 186.812 263.011 187.224 263.786 187.712C264.552 188.2 265.174 188.851 265.633 189.664C266.092 190.478 266.332 191.521 266.332 192.794C266.332 194.066 266.121 195.11 265.7 196.019C265.279 196.928 264.695 197.674 263.939 198.258C263.183 198.852 262.303 199.292 261.279 199.569C260.264 199.847 259.125 199.99 257.881 199.99V200Z" fill="#004E48"/>
<path d="M275.691 200C274.591 200 273.73 199.78 273.127 199.33C272.514 198.89 272.093 198.277 271.863 197.512C271.634 196.746 271.519 195.913 271.519 195.023V179.252H268.992V176.093H271.567L272.265 169.519H275.184V176.093H278.888V179.252H275.184V194.717C275.184 195.454 275.289 196 275.51 196.335C275.73 196.679 276.141 196.842 276.754 196.842H278.888V199.33C278.601 199.445 278.266 199.56 277.883 199.665C277.5 199.77 277.137 199.847 276.773 199.914C276.409 199.971 276.055 200 275.711 200H275.691Z" fill="#004E48"/>
<path d="M283.013 171.614V167.346H286.63V171.614H283.013ZM283.013 199.474V176.103H286.63V199.474H283.013Z" fill="#004E48"/>
<path d="M297.77 200C296.957 200 296.162 199.885 295.378 199.665C294.593 199.445 293.885 199.091 293.262 198.603C292.64 198.115 292.143 197.454 291.779 196.622C291.415 195.789 291.234 194.784 291.234 193.597C291.234 192.143 291.54 190.927 292.152 189.932C292.765 188.937 293.636 188.123 294.784 187.492C295.933 186.86 297.33 186.401 298.986 186.113C300.641 185.836 302.527 185.692 304.651 185.692V182.716C304.651 181.855 304.517 181.127 304.259 180.515C304 179.912 303.551 179.443 302.909 179.118C302.268 178.792 301.388 178.629 300.249 178.629C299.062 178.629 298.134 178.811 297.483 179.185C296.832 179.558 296.382 180.027 296.134 180.61C295.885 181.185 295.76 181.816 295.76 182.496V183.07H292.277C292.248 182.926 292.229 182.773 292.229 182.63V182.094C292.229 180.582 292.573 179.347 293.272 178.381C293.971 177.414 294.937 176.706 296.191 176.246C297.435 175.787 298.88 175.557 300.498 175.557C302.115 175.557 303.56 175.806 304.718 176.313C305.876 176.821 306.766 177.577 307.379 178.601C307.991 179.625 308.297 180.917 308.297 182.486V195.33C308.297 195.866 308.412 196.248 308.642 196.488C308.872 196.727 309.168 196.842 309.513 196.842H311.082V199.282C310.671 199.464 310.231 199.617 309.752 199.751C309.274 199.885 308.747 199.952 308.163 199.952C307.436 199.952 306.852 199.799 306.403 199.483C305.953 199.177 305.608 198.746 305.378 198.22C305.149 197.684 304.986 197.091 304.9 196.44H304.642C304.173 197.148 303.608 197.77 302.919 198.306C302.23 198.842 301.464 199.253 300.612 199.55C299.751 199.847 298.804 199.99 297.761 199.99L297.77 200ZM298.727 196.842C299.483 196.842 300.211 196.698 300.928 196.421C301.637 196.143 302.268 195.741 302.823 195.224C303.378 194.708 303.819 194.057 304.153 193.291C304.488 192.526 304.651 191.645 304.651 190.669V188.449C302.479 188.449 300.679 188.611 299.273 188.937C297.866 189.262 296.813 189.779 296.114 190.487C295.416 191.195 295.071 192.114 295.071 193.243C295.071 194.047 295.215 194.708 295.502 195.243C295.789 195.779 296.21 196.181 296.765 196.44C297.32 196.698 297.971 196.842 298.727 196.842V196.842Z" fill="#004E48"/>
<path d="M314.451 199.474V176.103H317.408L317.715 179.433H317.973C318.499 178.515 319.093 177.778 319.782 177.213C320.471 176.648 321.217 176.237 322.05 175.969C322.873 175.701 323.753 175.567 324.682 175.567C325.955 175.567 327.074 175.797 328.031 176.256C328.988 176.715 329.725 177.462 330.252 178.496C330.778 179.529 331.036 180.926 331.036 182.668V199.464H327.381V183.338C327.381 182.505 327.294 181.816 327.122 181.252C326.95 180.687 326.692 180.237 326.357 179.893C326.022 179.548 325.601 179.299 325.093 179.137C324.586 178.974 324.031 178.888 323.419 178.888C322.461 178.888 321.571 179.156 320.758 179.692C319.944 180.228 319.294 180.993 318.796 181.998C318.298 183.003 318.059 184.238 318.059 185.683V199.454H314.442L314.451 199.474Z" fill="#004E48"/>
<path d="M357.029 200C354.244 200 351.909 199.426 350.043 198.287C348.167 197.148 346.76 195.416 345.823 193.09C344.875 190.765 344.406 187.807 344.406 184.228C344.406 178.897 345.516 174.935 347.737 172.342C349.957 169.748 353.125 168.456 357.249 168.456C359.575 168.456 361.604 168.877 363.346 169.72C365.088 170.562 366.437 171.835 367.394 173.538C368.351 175.242 368.83 177.414 368.83 180.046H364.82C364.82 178.237 364.523 176.744 363.93 175.557C363.336 174.371 362.465 173.481 361.317 172.868C360.168 172.265 358.781 171.959 357.154 171.959C355.355 171.959 353.804 172.371 352.493 173.184C351.182 173.998 350.196 175.261 349.536 176.983C348.866 178.706 348.531 180.926 348.531 183.644V185.022C348.531 187.693 348.866 189.865 349.536 191.549C350.206 193.234 351.172 194.478 352.455 195.282C353.728 196.086 355.288 196.478 357.115 196.478C358.742 196.478 360.14 196.181 361.317 195.588C362.494 194.995 363.384 194.105 363.997 192.928C364.609 191.741 364.915 190.248 364.915 188.439H368.791C368.791 191.08 368.294 193.253 367.308 194.976C366.322 196.698 364.944 197.962 363.174 198.775C361.403 199.588 359.355 200 357.029 200V200Z" fill="#004E48"/>
<path d="M373.797 199.474V167.346H377.414V178.897H377.72C378.208 178.132 378.783 177.5 379.414 177.012C380.056 176.524 380.754 176.16 381.529 175.921C382.295 175.682 383.147 175.567 384.075 175.567C385.348 175.567 386.458 175.797 387.405 176.256C388.353 176.715 389.08 177.462 389.607 178.495C390.133 179.529 390.391 180.926 390.391 182.668V199.464H386.736V183.338C386.736 182.505 386.649 181.816 386.477 181.252C386.305 180.687 386.047 180.237 385.712 179.893C385.377 179.548 384.955 179.299 384.448 179.137C383.941 178.974 383.386 178.888 382.773 178.888C381.816 178.888 380.926 179.146 380.113 179.663C379.299 180.18 378.649 180.945 378.151 181.95C377.653 182.955 377.414 184.199 377.414 185.683V199.454H373.797V199.474Z" fill="#004E48"/>
<path d="M402.23 200C400.316 200 398.775 199.464 397.617 198.402C396.459 197.339 395.875 195.483 395.875 192.851V176.103H399.531V192.229C399.531 193.061 399.617 193.751 399.789 194.315C399.962 194.88 400.22 195.33 400.555 195.674C400.89 196.019 401.311 196.268 401.818 196.43C402.326 196.593 402.881 196.679 403.493 196.679C404.45 196.679 405.34 196.411 406.154 195.875C406.967 195.339 407.618 194.564 408.116 193.54C408.613 192.516 408.853 191.301 408.853 189.875V176.103H412.47V199.474H409.551L409.207 196.143H408.948C408.422 197.033 407.819 197.76 407.139 198.344C406.46 198.918 405.713 199.34 404.9 199.608C404.087 199.876 403.206 200.01 402.239 200.01L402.23 200Z" fill="#004E48"/>
<path d="M418.385 199.474V176.103H421.342L421.648 179.701H421.906C422.136 178.936 422.461 178.237 422.863 177.615C423.265 176.993 423.782 176.495 424.385 176.122C424.998 175.749 425.725 175.567 426.567 175.567C426.94 175.567 427.275 175.596 427.572 175.653C427.859 175.711 428.098 175.768 428.271 175.835V179.481H426.873C426.089 179.481 425.39 179.625 424.787 179.922C424.175 180.218 423.667 180.658 423.265 181.233C422.854 181.807 422.548 182.515 422.327 183.338C422.107 184.171 422.002 185.118 422.002 186.18V199.464H418.385V199.474Z" fill="#004E48"/>
<path d="M439.2 200C437.2 200 435.534 199.56 434.214 198.689C432.893 197.818 431.898 196.468 431.228 194.641C430.558 192.822 430.223 190.535 430.223 187.779C430.223 185.022 430.567 182.659 431.247 180.85C431.926 179.041 432.941 177.711 434.29 176.849C435.64 175.988 437.315 175.557 439.324 175.557C440.779 175.557 442.014 175.758 443.028 176.16C444.042 176.562 444.885 177.156 445.555 177.94C446.224 178.725 446.713 179.692 447.009 180.831C447.306 181.969 447.469 183.3 447.469 184.802H443.813C443.813 183.376 443.669 182.218 443.382 181.319C443.095 180.419 442.616 179.749 441.947 179.318C441.277 178.888 440.377 178.677 439.248 178.677C438.205 178.677 437.276 178.955 436.482 179.5C435.688 180.046 435.075 180.945 434.654 182.19C434.233 183.434 434.022 185.109 434.022 187.214V188.458C434.022 190.353 434.214 191.932 434.606 193.186C434.999 194.449 435.582 195.377 436.367 195.99C437.152 196.602 438.118 196.899 439.286 196.899C440.454 196.899 441.315 196.669 441.985 196.21C442.655 195.751 443.143 195.062 443.44 194.143C443.746 193.224 443.899 192.095 443.899 190.765H447.469C447.469 192.066 447.315 193.272 447.009 194.382C446.703 195.492 446.224 196.468 445.574 197.311C444.923 198.153 444.071 198.813 443.028 199.292C441.985 199.77 440.702 200 439.2 200V200Z" fill="#004E48"/>
<path d="M452.225 199.474V167.346H455.843V178.897H456.149C456.647 178.132 457.211 177.5 457.843 177.012C458.484 176.524 459.183 176.16 459.958 175.921C460.724 175.682 461.575 175.567 462.504 175.567C463.776 175.567 464.887 175.797 465.834 176.256C466.772 176.715 467.509 177.462 468.035 178.495C468.562 179.529 468.82 180.926 468.82 182.668V199.464H465.164V183.338C465.164 182.505 465.078 181.816 464.906 181.252C464.733 180.687 464.475 180.237 464.14 179.893C463.805 179.548 463.384 179.299 462.877 179.137C462.37 178.974 461.815 178.888 461.202 178.888C460.245 178.888 459.355 179.146 458.541 179.663C457.728 180.18 457.077 180.945 456.58 181.95C456.082 182.955 455.843 184.199 455.843 185.683V199.454H452.225V199.474Z" fill="#004E48"/>
</g>
<defs>
<clipPath id="clip0_40_1150">
<rect width="468.81" height="200" fill="white"/>
</clipPath>
</defs>
</svg>
