<svg width="692" height="200" viewBox="0 0 692 200" fill="none" xmlns="http://www.w3.org/2000/svg">
<g clip-path="url(#clip0_40_1145)">
<path d="M475.425 175.009C460.693 175.009 448.106 172.398 437.649 167.191C427.193 161.984 419.206 153.842 413.66 142.793C408.114 131.743 405.348 117.477 405.348 100.007C405.348 74.5219 411.515 55.641 423.862 43.3923C436.21 31.1437 453.383 25.0052 475.411 25.0052C487.335 25.0052 498.102 27.0514 507.712 31.1296C517.322 35.2219 524.97 41.3744 530.643 49.6154C536.33 57.8564 539.166 68.3129 539.166 80.9849H511.183C511.183 73.9434 509.673 67.9884 506.654 63.1341C503.634 58.2798 499.457 54.5826 494.137 52.0426C488.803 49.5025 482.707 48.2466 475.834 48.2466C466.295 48.2466 458.365 50.1093 452.057 53.8488C445.749 57.5883 441.078 63.1059 438.058 70.4297C435.038 77.7534 433.529 86.8411 433.529 97.6786V102.321C433.529 113.314 435.038 122.458 438.058 129.782C441.078 137.106 445.707 142.595 451.944 146.264C458.181 149.933 466.154 151.753 475.82 151.753C483.116 151.753 489.494 150.526 494.969 148.056C500.445 145.587 504.678 141.932 507.698 137.063C510.718 132.209 512.227 126.254 512.227 119.213H539.166C539.166 131.885 536.358 142.341 530.756 150.582C525.139 158.823 517.533 164.947 507.924 168.969C498.314 172.977 487.476 174.995 475.411 174.995L475.425 175.009Z" fill="#004E48"/>
<path d="M627.503 175.009C612.771 175.009 600.183 172.398 589.727 167.191C579.27 161.984 571.283 153.842 565.738 142.793C560.192 131.743 557.426 117.477 557.426 100.007C557.426 74.5219 563.593 55.641 575.94 43.3923C588.288 31.1437 605.461 25.0052 627.489 25.0052C639.413 25.0052 650.18 27.0514 659.79 31.1296C669.4 35.2219 677.048 41.3744 682.721 49.6154C688.408 57.8564 691.244 68.3129 691.244 80.9849H663.261C663.261 73.9434 661.751 67.9884 658.731 63.1341C655.712 58.2798 651.535 54.5826 646.215 52.0426C640.881 49.5025 634.784 48.2466 627.912 48.2466C618.373 48.2466 610.442 50.1093 604.135 53.8488C597.827 57.5883 593.156 63.1059 590.136 70.4297C587.116 77.7534 585.606 86.8411 585.606 97.6786V102.321C585.606 113.314 587.116 122.458 590.136 129.782C593.156 137.106 597.785 142.595 604.022 146.264C610.259 149.933 618.232 151.753 627.898 151.753C635.194 151.753 641.572 150.526 647.047 148.056C652.522 145.587 656.756 141.932 659.776 137.063C662.795 132.209 664.305 126.254 664.305 119.213H691.244C691.244 131.885 688.436 142.341 682.834 150.582C677.217 158.823 669.611 164.947 660.001 168.969C650.392 172.977 639.554 174.995 627.489 174.995L627.503 175.009Z" fill="#004E48"/>
<path d="M382.629 115.741C380.23 110.887 376.928 106.865 372.709 103.704C368.489 100.529 363.706 98.3842 358.372 97.2553V96.4086C362.873 94.8564 366.909 92.5703 370.493 89.5364C374.077 86.5025 376.928 82.7488 379.031 78.2332C381.133 73.7317 382.191 68.7222 382.191 63.2329C382.191 56.0502 380.428 49.7848 376.914 44.4366C373.4 39.0884 368.588 34.9255 362.464 31.9762C356.354 29.0129 349.425 27.5453 341.692 27.5453H259.987V172.469H341.692C349.989 172.469 357.468 171.029 364.157 168.137C370.832 165.258 376.18 160.841 380.188 154.928C384.195 149.016 386.199 141.551 386.199 132.534C386.199 126.198 385 120.595 382.615 115.741H382.629ZM287.42 50.9842H336.005C341.353 50.9842 345.671 52.4659 348.973 55.4152C352.275 58.3786 353.926 62.9506 353.926 69.1455C353.926 72.3911 353.193 75.3404 351.711 78.0215C350.229 80.7027 348.056 82.8053 345.177 84.3575C342.299 85.9098 338.743 86.6859 334.523 86.6859H287.406V50.9842H287.42ZM352.36 144.26C348.635 147.435 343.893 149.016 338.122 149.016H287.42V109.716H336.428C341.353 109.716 345.389 110.534 348.55 112.143C351.711 113.766 354.068 116.052 355.62 119.015C357.172 121.978 357.934 125.422 357.934 129.373C357.934 136.132 356.071 141.099 352.346 144.26H352.36Z" fill="#004E48"/>
<path d="M200 100.007C200 155.239 155.225 200.014 99.9929 200.014C44.7612 200.014 0 155.225 0 100.007C0 44.7894 44.7753 0 100.007 0C155.239 0 200.014 44.7753 200.014 100.007H200ZM103.239 30.0007H96.7473C90.8065 30.0007 85.938 34.8691 85.938 40.81V47.3012C85.938 53.2421 90.8065 58.1105 96.7473 58.1105H103.239C109.179 58.1105 114.048 53.2421 114.048 47.3012V40.81C114.048 34.8691 109.179 30.0007 103.239 30.0007V30.0007ZM136.485 63.3458H129.994C124.053 63.3458 119.184 68.2142 119.184 74.1551V80.6463C119.184 86.5872 124.053 91.4556 129.994 91.4556H136.485C142.426 91.4556 147.294 86.5872 147.294 80.6463V74.1551C147.294 68.2142 142.426 63.3458 136.485 63.3458ZM103.239 141.904H96.7473C90.8065 141.904 85.938 146.772 85.938 152.713V159.204C85.938 165.145 90.8065 170.013 96.7473 170.013H103.239C109.179 170.013 114.048 165.145 114.048 159.204V152.713C114.048 146.772 109.179 141.904 103.239 141.904ZM114.048 80.5475V74.0563C114.048 68.1154 109.179 63.247 103.239 63.247H63.501C57.5601 63.247 52.6917 68.1154 52.6917 74.0563V80.5475C52.6917 86.4884 57.5601 91.3568 63.501 91.3568H85.938V122.698V125.944C85.938 131.885 90.8065 136.753 96.7473 136.753H103.239C109.179 136.753 114.048 131.885 114.048 125.944V119.452V80.5475V80.5475Z" fill="#004E48"/>
</g>
<defs>
<clipPath id="clip0_40_1145">
<rect width="691.258" height="200" fill="white"/>
</clipPath>
</defs>
</svg>
