<svg width="134" height="200" viewBox="0 0 134 200" fill="none" xmlns="http://www.w3.org/2000/svg">
<g clip-path="url(#clip0_40_1140)">
<path d="M66.7012 200C62.1414 200 58.2411 199.19 55.0097 197.579C51.7782 195.968 49.3005 193.443 47.5859 190.023C45.8712 186.603 45.0139 182.185 45.0139 176.777C45.0139 168.882 46.9264 163.041 50.7513 159.244C54.5763 155.448 59.8898 153.554 66.7106 153.554C70.4037 153.554 73.7388 154.185 76.7064 155.448C79.6835 156.71 82.0482 158.623 83.8099 161.176C85.5716 163.729 86.4478 166.97 86.4478 170.889H77.7804C77.7804 168.713 77.3094 166.866 76.3767 165.359C75.444 163.851 74.1533 162.711 72.5046 161.92C70.8559 161.138 68.9623 160.742 66.8331 160.742C63.8749 160.742 61.4254 161.317 59.4753 162.476C57.5251 163.635 56.0742 165.34 55.1416 167.61C54.2089 169.881 53.7378 172.688 53.7378 176.052V177.493C53.7378 180.894 54.1995 183.73 55.1416 186C56.0742 188.271 57.5062 189.967 59.4376 191.107C61.3689 192.237 63.8372 192.812 66.8331 192.812C69.0942 192.812 71.0726 192.435 72.759 191.662C74.4548 190.899 75.7643 189.769 76.697 188.261C77.6297 186.754 78.1007 184.917 78.1007 182.731H86.4384C86.4384 186.66 85.5716 189.891 83.8287 192.444C82.0953 194.997 79.7306 196.891 76.7629 198.135C73.7859 199.378 70.432 200 66.7012 200V200Z" fill="#004E48"/>
<path d="M113.788 200C109.228 200 105.328 199.19 102.096 197.579C98.8648 195.968 96.387 193.443 94.6724 190.023C92.9578 186.603 92.1004 182.185 92.1004 176.777C92.1004 168.882 94.0129 163.041 97.8379 159.244C101.663 155.448 106.976 153.554 113.797 153.554C117.49 153.554 120.825 154.185 123.793 155.448C126.77 156.71 129.135 158.623 130.896 161.176C132.658 163.729 133.534 166.97 133.534 170.889H124.867C124.867 168.713 124.396 166.866 123.463 165.359C122.531 163.851 121.24 162.711 119.591 161.92C117.942 161.138 116.049 160.742 113.92 160.742C110.961 160.742 108.512 161.317 106.562 162.476C104.612 163.635 103.161 165.34 102.228 167.61C101.295 169.881 100.824 172.688 100.824 176.052V177.493C100.824 180.894 101.286 183.73 102.228 186C103.161 188.271 104.593 189.967 106.524 191.107C108.455 192.237 110.924 192.812 113.92 192.812C116.181 192.812 118.159 192.435 119.846 191.662C121.541 190.899 122.851 189.769 123.784 188.261C124.716 186.754 125.187 184.917 125.187 182.731H133.525C133.525 186.66 132.658 189.891 130.915 192.444C129.182 194.997 126.817 196.891 123.849 198.135C120.872 199.378 117.519 200 113.788 200V200Z" fill="#004E48"/>
<path d="M37.9669 181.648C37.2227 180.14 36.2052 178.897 34.8957 177.917C33.5861 176.937 32.107 176.268 30.4583 175.92V175.656C31.8527 175.175 33.1057 174.469 34.2173 173.527C35.329 172.594 36.2052 171.426 36.8647 170.032C37.5147 168.637 37.8445 167.092 37.8445 165.387C37.8445 163.164 37.298 161.223 36.2146 159.565C35.1218 157.907 33.6332 156.625 31.7396 155.702C29.846 154.788 27.698 154.327 25.305 154.327H0V199.199H25.2956C27.8675 199.199 30.1851 198.756 32.2483 197.861C34.3116 196.966 35.9697 195.6 37.2132 193.773C38.4568 191.945 39.0786 189.627 39.0786 186.839C39.0786 184.879 38.7112 183.146 37.9669 181.638V181.648ZM8.48839 161.6H23.5338C25.192 161.6 26.5297 162.061 27.5472 162.975C28.5741 163.889 29.0829 165.312 29.0829 167.224C29.0829 168.232 28.8568 169.146 28.3951 169.975C27.9335 170.804 27.2646 171.454 26.3696 171.935C25.4746 172.415 24.3817 172.651 23.0722 172.651H8.48839V161.6V161.6ZM28.593 190.475C27.4342 191.455 25.9739 191.945 24.1839 191.945H8.48839V179.782H23.6657C25.192 179.782 26.445 180.037 27.4248 180.536C28.4045 181.035 29.13 181.742 29.6104 182.665C30.0909 183.579 30.3264 184.653 30.3264 185.868C30.3264 187.96 29.7518 189.496 28.593 190.485V190.475Z" fill="#004E48"/>
<path d="M133.525 66.7672C133.525 103.641 103.632 133.534 66.7577 133.534C29.8837 133.534 0 103.632 0 66.7672C0 29.9025 29.8931 0 66.7672 0C103.641 0 133.534 29.8931 133.534 66.7672H133.525ZM68.9246 20.0292H64.5909C60.6246 20.0292 57.3744 23.2795 57.3744 27.2458V31.5794C57.3744 35.5457 60.6246 38.796 64.5909 38.796H68.9246C72.8909 38.796 76.1411 35.5457 76.1411 31.5794V27.2458C76.1411 23.2795 72.8909 20.0292 68.9246 20.0292V20.0292ZM91.1206 42.2912H86.787C82.8207 42.2912 79.5704 45.5415 79.5704 49.5078V53.8414C79.5704 57.8077 82.8207 61.058 86.787 61.058H91.1206C95.0869 61.058 98.3372 57.8077 98.3372 53.8414V49.5078C98.3372 45.5415 95.0869 42.2912 91.1206 42.2912ZM68.9246 94.7383H64.5909C60.6246 94.7383 57.3744 97.9886 57.3744 101.955V106.289C57.3744 110.255 60.6246 113.505 64.5909 113.505H68.9246C72.8909 113.505 76.1411 110.255 76.1411 106.289V101.955C76.1411 97.9886 72.8909 94.7383 68.9246 94.7383ZM76.1411 53.7755V49.4418C76.1411 45.4755 72.8909 42.2253 68.9246 42.2253H42.3948C38.4286 42.2253 35.1783 45.4755 35.1783 49.4418V53.7755C35.1783 57.7418 38.4286 60.992 42.3948 60.992H57.3744V81.9162V84.0831C57.3744 88.0494 60.6246 91.2996 64.5909 91.2996H68.9246C72.8909 91.2996 76.1411 88.0494 76.1411 84.0831V79.7494V53.7755V53.7755Z" fill="#004E48"/>
</g>
<defs>
<clipPath id="clip0_40_1140">
<rect width="133.525" height="200" fill="white"/>
</clipPath>
</defs>
</svg>
